<?xml version="1.0" encoding="UTF-8" standalone="no"?>
<!DOCTYPE svg PUBLIC "-//W3C//DTD SVG 1.1//EN"
 "http://www.w3.org/Graphics/SVG/1.1/DTD/svg11.dtd">
<!-- Generated by graphviz version 2.26.3 (20100126.1600)
 -->
<!-- Title: de.tu_clausthal.in.mec.runtime.message.CMessageSystem Pages: 1 -->
<svg width="190pt" height="456pt"
 viewBox="0.00 0.00 190.00 456.00" xmlns="http://www.w3.org/2000/svg" xmlns:xlink="http://www.w3.org/1999/xlink">
<g id="graph1" class="graph" transform="scale(1 1) rotate(0) translate(4 452)">
<title>de.tu_clausthal.in.mec.runtime.message.CMessageSystem</title>
<!-- Node1 -->
<g id="node1" class="node"><title>Node1</title>
<polygon fill="#bfbfbf" stroke="black" points="-0.5,-0.5 -0.5,-219.5 182.5,-219.5 182.5,-0.5 -0.5,-0.5"/>
<text text-anchor="start" x="7.5" y="-207.4" font-family="Helvetica,sans-Serif" font-size="9.00">de.tu_clausthal.in.mec.runtime.message.</text>
<text text-anchor="middle" x="91" y="-194.4" font-family="Helvetica,sans-Serif" font-size="9.00">CMessageSystem</text>
<polyline fill="none" stroke="black" points="-0.5,-185.5 182.5,-185.5 "/>
<text text-anchor="start" x="7.5" y="-173.4" font-family="Helvetica,sans-Serif" font-size="9.00">&#45; m_communicator</text>
<text text-anchor="start" x="7.5" y="-160.4" font-family="Helvetica,sans-Serif" font-size="9.00">&#45; m_listener</text>
<text text-anchor="start" x="7.5" y="-147.4" font-family="Helvetica,sans-Serif" font-size="9.00">&#45; m_messageflow</text>
<text text-anchor="start" x="7.5" y="-134.4" font-family="Helvetica,sans-Serif" font-size="9.00">&#45; m_root</text>
<polyline fill="none" stroke="black" points="-0.5,-125.5 182.5,-125.5 "/>
<text text-anchor="start" x="7.5" y="-113.4" font-family="Helvetica,sans-Serif" font-size="9.00">+ addActionListener()</text>
<text text-anchor="start" x="7.5" y="-100.4" font-family="Helvetica,sans-Serif" font-size="9.00">+ pushMessage()</text>
<text text-anchor="start" x="7.5" y="-87.4" font-family="Helvetica,sans-Serif" font-size="9.00">+ register()</text>
<text text-anchor="start" x="7.5" y="-74.4" font-family="Helvetica,sans-Serif" font-size="9.00">+ release()</text>
<text text-anchor="start" x="7.5" y="-61.4" font-family="Helvetica,sans-Serif" font-size="9.00">+ removeListener()</text>
<text text-anchor="start" x="7.5" y="-48.4" font-family="Helvetica,sans-Serif" font-size="9.00">+ step()</text>
<text text-anchor="start" x="7.5" y="-35.4" font-family="Helvetica,sans-Serif" font-size="9.00">+ unregister()</text>
<text text-anchor="start" x="7.5" y="-22.4" font-family="Helvetica,sans-Serif" font-size="9.00">&#45; incrementMessageFlow()</text>
<text text-anchor="start" x="7.5" y="-9.4" font-family="Helvetica,sans-Serif" font-size="9.00">&#45; web_dynamic_flow()</text>
</g>
<!-- Node2 -->
<g id="node2" class="node"><title>Node2</title>
<a xlink:href="../../de/db1/a00197.htm" target="_top" xlink:title="interface of void&#45;step method ">
<polygon fill="none" stroke="black" points="19.5,-257 19.5,-333 162.5,-333 162.5,-257 19.5,-257"/>
<text text-anchor="start" x="27.5" y="-320.9" font-family="Helvetica,sans-Serif" font-size="9.00">de.tu_clausthal.in.mec.runtime.</text>
<text text-anchor="middle" x="91" y="-307.9" font-family="Helvetica,sans-Serif" font-size="9.00">IVoidSteppable</text>
<polyline fill="none" stroke="black" points="19.5,-299 162.5,-299 "/>
<text text-anchor="middle" x="91" y="-286.9" font-family="Helvetica,sans-Serif" font-size="9.00"> </text>
<polyline fill="none" stroke="black" points="19.5,-278 162.5,-278 "/>
<text text-anchor="start" x="27.5" y="-265.9" font-family="Helvetica,sans-Serif" font-size="9.00">+ step()</text>
</a>
</g>
<!-- Node2&#45;&gt;Node1 -->
<g id="edge2" class="edge"><title>Node2&#45;&gt;Node1</title>
<path fill="none" stroke="midnightblue" d="M91,-246.655C91,-238.159 91,-229.015 91,-219.626"/>
<polygon fill="none" stroke="midnightblue" points="87.5001,-246.668 91,-256.668 94.5001,-246.668 87.5001,-246.668"/>
</g>
<!-- Node3 -->
<g id="node4" class="node"><title>Node3</title>
<a xlink:href="../../da/d15/a00188.htm" target="_top" xlink:title="interface for all objects which are triggered by the simulation worker ">
<polygon fill="none" stroke="black" points="19.5,-371 19.5,-447 162.5,-447 162.5,-371 19.5,-371"/>
<text text-anchor="start" x="27.5" y="-434.9" font-family="Helvetica,sans-Serif" font-size="9.00">de.tu_clausthal.in.mec.runtime.</text>
<text text-anchor="middle" x="91" y="-421.9" font-family="Helvetica,sans-Serif" font-size="9.00">ISteppable</text>
<polyline fill="none" stroke="black" points="19.5,-413 162.5,-413 "/>
<text text-anchor="middle" x="91" y="-400.9" font-family="Helvetica,sans-Serif" font-size="9.00"> </text>
<polyline fill="none" stroke="black" points="19.5,-392 162.5,-392 "/>
<text text-anchor="start" x="27.5" y="-379.9" font-family="Helvetica,sans-Serif" font-size="9.00">+ release()</text>
</a>
</g>
<!-- Node3&#45;&gt;Node2 -->
<g id="edge4" class="edge"><title>Node3&#45;&gt;Node2</title>
<path fill="none" stroke="midnightblue" d="M91,-360.623C91,-351.52 91,-342.117 91,-333.371"/>
<polygon fill="none" stroke="midnightblue" points="87.5001,-360.722 91,-370.723 94.5001,-360.723 87.5001,-360.722"/>
</g>
</g>
</svg>
