<?xml version="1.0" encoding="UTF-8" standalone="no"?>
<!DOCTYPE svg PUBLIC "-//W3C//DTD SVG 1.1//EN"
 "http://www.w3.org/Graphics/SVG/1.1/DTD/svg11.dtd">
<!-- Generated by graphviz version 2.26.3 (20100126.1600)
 -->
<!-- Title: de.tu_clausthal.in.mec.object.car.CCarJasonAgent.getPredecessorWithName Pages: 1 -->
<svg width="586pt" height="146pt"
 viewBox="0.00 0.00 586.00 146.00" xmlns="http://www.w3.org/2000/svg" xmlns:xlink="http://www.w3.org/1999/xlink">
<g id="graph1" class="graph" transform="scale(1 1) rotate(0) translate(4 142)">
<title>de.tu_clausthal.in.mec.object.car.CCarJasonAgent.getPredecessorWithName</title>
<!-- Node1 -->
<g id="node1" class="node"><title>Node1</title>
<polygon fill="#bfbfbf" stroke="black" points="0.5,-52 0.5,-86 197.5,-86 197.5,-52 0.5,-52"/>
<text text-anchor="start" x="8.5" y="-73.9" font-family="Helvetica,sans-Serif" font-size="9.00">de.tu_clausthal.in.mec.object.car.</text>
<text text-anchor="middle" x="99" y="-60.9" font-family="Helvetica,sans-Serif" font-size="9.00">CCarJasonAgent.getPredecessorWithName</text>
</g>
<!-- Node2 -->
<g id="node3" class="node"><title>Node2</title>
<a xlink:href="../../dc/de2/a00024.htm#aed8518b945a13cffa9c27320d11fad52" target="_top" xlink:title="ctor ">
<polygon fill="none" stroke="black" points="234,-104 234,-138 394,-138 394,-104 234,-104"/>
<text text-anchor="start" x="242" y="-125.9" font-family="Helvetica,sans-Serif" font-size="9.00">de.tu_clausthal.in.mec.object.car.</text>
<text text-anchor="middle" x="314" y="-112.9" font-family="Helvetica,sans-Serif" font-size="9.00">CCarJasonAgent.CCarJasonAgent</text>
</a>
</g>
<!-- Node1&#45;&gt;Node2 -->
<g id="edge2" class="edge"><title>Node1&#45;&gt;Node2</title>
<path fill="none" stroke="midnightblue" d="M169.399,-86.0267C189.909,-90.9874 212.473,-96.4448 233.553,-101.543"/>
<polygon fill="midnightblue" stroke="midnightblue" points="232.9,-104.986 243.443,-103.935 234.546,-98.1822 232.9,-104.986"/>
</g>
<!-- Node3 -->
<g id="node5" class="node"><title>Node3</title>
<a xlink:href="../../d1/dc6/a00037.htm#a2fe039d44210807a6460f3bcb4379743" target="_top" xlink:title="creates a map from parameters ">
<polygon fill="none" stroke="black" points="240,-52 240,-86 388,-86 388,-52 240,-52"/>
<text text-anchor="start" x="248" y="-73.9" font-family="Helvetica,sans-Serif" font-size="9.00">de.tu_clausthal.in.mec.common.</text>
<text text-anchor="middle" x="314" y="-60.9" font-family="Helvetica,sans-Serif" font-size="9.00">CCommon.getMap</text>
</a>
</g>
<!-- Node1&#45;&gt;Node3 -->
<g id="edge4" class="edge"><title>Node1&#45;&gt;Node3</title>
<path fill="none" stroke="midnightblue" d="M197.69,-69C208.288,-69 219,-69 229.412,-69"/>
<polygon fill="midnightblue" stroke="midnightblue" points="229.708,-72.5001 239.708,-69 229.708,-65.5001 229.708,-72.5001"/>
</g>
<!-- Node5 -->
<g id="node9" class="node"><title>Node5</title>
<a xlink:href="../../d3/d65/a00154.htm#a87dc1f1ad232faa384d467ef3e3e7213" target="_top" xlink:title="returns the current predecessor of the car and the distance ">
<polygon fill="none" stroke="black" points="238,-0 238,-34 390,-34 390,-0 238,-0"/>
<text text-anchor="start" x="246" y="-21.9" font-family="Helvetica,sans-Serif" font-size="9.00">de.tu_clausthal.in.mec.object.car.</text>
<text text-anchor="middle" x="314" y="-8.9" font-family="Helvetica,sans-Serif" font-size="9.00">ICar.getPredecessor</text>
</a>
</g>
<!-- Node1&#45;&gt;Node5 -->
<g id="edge8" class="edge"><title>Node1&#45;&gt;Node5</title>
<path fill="none" stroke="midnightblue" d="M169.399,-51.9733C189.909,-47.0126 212.473,-41.5552 233.553,-36.4569"/>
<polygon fill="midnightblue" stroke="midnightblue" points="234.546,-39.8178 243.443,-34.065 232.9,-33.014 234.546,-39.8178"/>
</g>
<!-- Node4 -->
<g id="node7" class="node"><title>Node4</title>
<a xlink:href="../../d1/dc6/a00037.htm#ae523069a1b523b0e6a0c643049b1d745" target="_top" xlink:title="returns a default string of the resource file ">
<polygon fill="none" stroke="black" points="430,-52 430,-86 578,-86 578,-52 430,-52"/>
<text text-anchor="start" x="438" y="-73.9" font-family="Helvetica,sans-Serif" font-size="9.00">de.tu_clausthal.in.mec.common.</text>
<text text-anchor="middle" x="504" y="-60.9" font-family="Helvetica,sans-Serif" font-size="9.00">CCommon.getResourceString</text>
</a>
</g>
<!-- Node3&#45;&gt;Node4 -->
<g id="edge6" class="edge"><title>Node3&#45;&gt;Node4</title>
<path fill="none" stroke="midnightblue" d="M388.003,-69C398.426,-69 409.204,-69 419.8,-69"/>
<polygon fill="midnightblue" stroke="midnightblue" points="419.886,-72.5001 429.886,-69 419.886,-65.5001 419.886,-72.5001"/>
</g>
</g>
</svg>
