<?xml version="1.0" encoding="UTF-8" standalone="no"?>
<!DOCTYPE svg PUBLIC "-//W3C//DTD SVG 1.1//EN"
 "http://www.w3.org/Graphics/SVG/1.1/DTD/svg11.dtd">
<!-- Generated by graphviz version 2.26.3 (20100126.1600)
 -->
<!-- Title: de.tu_clausthal.in.mec.object.mas.IAgent&lt; T &gt; Pages: 1 -->
<svg width="338pt" height="430pt"
 viewBox="0.00 0.00 338.00 430.00" xmlns="http://www.w3.org/2000/svg" xmlns:xlink="http://www.w3.org/1999/xlink">
<g id="graph1" class="graph" transform="scale(1 1) rotate(0) translate(4 426)">
<title>de.tu_clausthal.in.mec.object.mas.IAgent&lt; T &gt;</title>
<!-- Node1 -->
<g id="node1" class="node"><title>Node1</title>
<polygon fill="#bfbfbf" stroke="black" points="86.5,-115 86.5,-295 243.5,-295 243.5,-115 86.5,-115"/>
<text text-anchor="start" x="94.5" y="-282.9" font-family="Helvetica,sans-Serif" font-size="9.00">de.tu_clausthal.in.mec.object.mas.</text>
<text text-anchor="middle" x="165" y="-269.9" font-family="Helvetica,sans-Serif" font-size="9.00">IAgent&lt; T &gt;</text>
<polyline fill="none" stroke="black" points="86.5,-261 243.5,-261 "/>
<text text-anchor="middle" x="165" y="-248.9" font-family="Helvetica,sans-Serif" font-size="9.00"> </text>
<polyline fill="none" stroke="black" points="86.5,-240 243.5,-240 "/>
<text text-anchor="start" x="94.5" y="-227.9" font-family="Helvetica,sans-Serif" font-size="9.00">+ addBeliefBase()</text>
<text text-anchor="start" x="94.5" y="-214.9" font-family="Helvetica,sans-Serif" font-size="9.00">+ bind()</text>
<text text-anchor="start" x="94.5" y="-201.9" font-family="Helvetica,sans-Serif" font-size="9.00">+ getBeliefBase()</text>
<text text-anchor="start" x="94.5" y="-188.9" font-family="Helvetica,sans-Serif" font-size="9.00">+ getCycle()</text>
<text text-anchor="start" x="94.5" y="-175.9" font-family="Helvetica,sans-Serif" font-size="9.00">+ getName()</text>
<text text-anchor="start" x="94.5" y="-162.9" font-family="Helvetica,sans-Serif" font-size="9.00">+ getSource()</text>
<text text-anchor="start" x="94.5" y="-149.9" font-family="Helvetica,sans-Serif" font-size="9.00">+ release()</text>
<text text-anchor="start" x="94.5" y="-136.9" font-family="Helvetica,sans-Serif" font-size="9.00">+ removeBeliefBase()</text>
<text text-anchor="start" x="94.5" y="-123.9" font-family="Helvetica,sans-Serif" font-size="9.00">+ unbind()</text>
</g>
<!-- Node3 -->
<g id="node5" class="node"><title>Node3</title>
<a xlink:href="../../d7/d25/a00182.htm" target="_top" xlink:title="interface of an agent with return&#45;steppable interface ">
<polygon fill="none" stroke="black" points="-0.5,-1 -0.5,-77 156.5,-77 156.5,-1 -0.5,-1"/>
<text text-anchor="start" x="7.5" y="-64.9" font-family="Helvetica,sans-Serif" font-size="9.00">de.tu_clausthal.in.mec.object.mas.</text>
<text text-anchor="middle" x="78" y="-51.9" font-family="Helvetica,sans-Serif" font-size="9.00">IReturnAgent&lt; T &gt;</text>
<polyline fill="none" stroke="black" points="-0.5,-43 156.5,-43 "/>
<text text-anchor="middle" x="78" y="-30.9" font-family="Helvetica,sans-Serif" font-size="9.00"> </text>
<polyline fill="none" stroke="black" points="-0.5,-22 156.5,-22 "/>
<text text-anchor="middle" x="78" y="-9.9" font-family="Helvetica,sans-Serif" font-size="9.00"> </text>
</a>
</g>
<!-- Node1&#45;&gt;Node3 -->
<g id="edge4" class="edge"><title>Node1&#45;&gt;Node3</title>
<path fill="none" stroke="midnightblue" d="M112.996,-105.774C107.707,-95.6816 102.592,-85.9221 97.9809,-77.1244"/>
<polygon fill="none" stroke="midnightblue" points="109.939,-107.481 117.681,-114.713 116.139,-104.231 109.939,-107.481"/>
</g>
<!-- Node4 -->
<g id="node7" class="node"><title>Node4</title>
<a xlink:href="../../d7/ded/a00196.htm" target="_top" xlink:title="interface of an agent with void&#45;steppable interface ">
<polygon fill="none" stroke="black" points="173.5,-1 173.5,-77 330.5,-77 330.5,-1 173.5,-1"/>
<text text-anchor="start" x="181.5" y="-64.9" font-family="Helvetica,sans-Serif" font-size="9.00">de.tu_clausthal.in.mec.object.mas.</text>
<text text-anchor="middle" x="252" y="-51.9" font-family="Helvetica,sans-Serif" font-size="9.00">IVoidAgent&lt; T &gt;</text>
<polyline fill="none" stroke="black" points="173.5,-43 330.5,-43 "/>
<text text-anchor="middle" x="252" y="-30.9" font-family="Helvetica,sans-Serif" font-size="9.00"> </text>
<polyline fill="none" stroke="black" points="173.5,-22 330.5,-22 "/>
<text text-anchor="middle" x="252" y="-9.9" font-family="Helvetica,sans-Serif" font-size="9.00"> </text>
</a>
</g>
<!-- Node1&#45;&gt;Node4 -->
<g id="edge6" class="edge"><title>Node1&#45;&gt;Node4</title>
<path fill="none" stroke="midnightblue" d="M217.004,-105.774C222.293,-95.6816 227.408,-85.9221 232.019,-77.1244"/>
<polygon fill="none" stroke="midnightblue" points="213.861,-104.231 212.319,-114.713 220.061,-107.481 213.861,-104.231"/>
</g>
<!-- Node2 -->
<g id="node2" class="node"><title>Node2</title>
<a xlink:href="../../d8/d64/a00181.htm" target="_top" xlink:title="message receiver interface for defining an object which can handle the message of a participant objec...">
<polygon fill="none" stroke="black" points="73.5,-332.5 73.5,-421.5 256.5,-421.5 256.5,-332.5 73.5,-332.5"/>
<text text-anchor="start" x="81.5" y="-409.4" font-family="Helvetica,sans-Serif" font-size="9.00">de.tu_clausthal.in.mec.runtime.message.</text>
<text text-anchor="middle" x="165" y="-396.4" font-family="Helvetica,sans-Serif" font-size="9.00">IReceiver</text>
<polyline fill="none" stroke="black" points="73.5,-387.5 256.5,-387.5 "/>
<text text-anchor="middle" x="165" y="-375.4" font-family="Helvetica,sans-Serif" font-size="9.00"> </text>
<polyline fill="none" stroke="black" points="73.5,-366.5 256.5,-366.5 "/>
<text text-anchor="start" x="81.5" y="-354.4" font-family="Helvetica,sans-Serif" font-size="9.00">+ getReceiverPath()</text>
<text text-anchor="start" x="81.5" y="-341.4" font-family="Helvetica,sans-Serif" font-size="9.00">+ receiveMessage()</text>
</a>
</g>
<!-- Node2&#45;&gt;Node1 -->
<g id="edge2" class="edge"><title>Node2&#45;&gt;Node1</title>
<path fill="none" stroke="midnightblue" d="M165,-322.039C165,-313.444 165,-304.372 165,-295.235"/>
<polygon fill="none" stroke="midnightblue" points="161.5,-322.258 165,-332.258 168.5,-322.258 161.5,-322.258"/>
</g>
</g>
</svg>
