<?xml version="1.0" encoding="UTF-8" standalone="no"?>
<!DOCTYPE svg PUBLIC "-//W3C//DTD SVG 1.1//EN"
 "http://www.w3.org/Graphics/SVG/1.1/DTD/svg11.dtd">
<!-- Generated by graphviz version 2.26.3 (20100126.1600)
 -->
<!-- Title: de.tu_clausthal.in.mec.object.waypoint.generator.CConstant Pages: 1 -->
<svg width="364pt" height="508pt"
 viewBox="0.00 0.00 364.00 508.00" xmlns="http://www.w3.org/2000/svg" xmlns:xlink="http://www.w3.org/1999/xlink">
<g id="graph1" class="graph" transform="scale(1 1) rotate(0) translate(4 504)">
<title>de.tu_clausthal.in.mec.object.waypoint.generator.CConstant</title>
<!-- Node1 -->
<g id="node1" class="node"><title>Node1</title>
<polygon fill="#bfbfbf" stroke="black" points="44,-0.5 44,-141.5 262,-141.5 262,-0.5 44,-0.5"/>
<text text-anchor="start" x="52" y="-129.4" font-family="Helvetica,sans-Serif" font-size="9.00">de.tu_clausthal.in.mec.object.waypoint.generator.</text>
<text text-anchor="middle" x="153" y="-116.4" font-family="Helvetica,sans-Serif" font-size="9.00">CConstant</text>
<polyline fill="none" stroke="black" points="44,-107.5 262,-107.5 "/>
<text text-anchor="start" x="52" y="-95.4" font-family="Helvetica,sans-Serif" font-size="9.00">&#45; m_endstep</text>
<text text-anchor="start" x="52" y="-82.4" font-family="Helvetica,sans-Serif" font-size="9.00">&#45; m_inspect</text>
<text text-anchor="start" x="52" y="-69.4" font-family="Helvetica,sans-Serif" font-size="9.00">&#45; m_startstep</text>
<text text-anchor="start" x="52" y="-56.4" font-family="Helvetica,sans-Serif" font-size="9.00">&#45; m_stepobjects</text>
<polyline fill="none" stroke="black" points="44,-47.5 262,-47.5 "/>
<text text-anchor="start" x="52" y="-35.4" font-family="Helvetica,sans-Serif" font-size="9.00">+ CConstant()</text>
<text text-anchor="start" x="52" y="-22.4" font-family="Helvetica,sans-Serif" font-size="9.00">+ getCount()</text>
<text text-anchor="start" x="52" y="-9.4" font-family="Helvetica,sans-Serif" font-size="9.00">+ inspect()</text>
</g>
<!-- Node2 -->
<g id="node2" class="node"><title>Node2</title>
<a xlink:href="../../dc/de6/a00167.htm" target="_top" xlink:title="global default implementation to get information about a simulation object ">
<polygon fill="none" stroke="black" points="0,-179 0,-255 120,-255 120,-179 0,-179"/>
<text text-anchor="start" x="8" y="-242.9" font-family="Helvetica,sans-Serif" font-size="9.00">de.tu_clausthal.in.mec.ui.</text>
<text text-anchor="middle" x="60" y="-229.9" font-family="Helvetica,sans-Serif" font-size="9.00">IInspectorDefault</text>
<polyline fill="none" stroke="black" points="0,-221 120,-221 "/>
<text text-anchor="start" x="8" y="-208.9" font-family="Helvetica,sans-Serif" font-size="9.00">&#45; m_inspect</text>
<polyline fill="none" stroke="black" points="0,-200 120,-200 "/>
<text text-anchor="start" x="8" y="-187.9" font-family="Helvetica,sans-Serif" font-size="9.00">+ inspect()</text>
</a>
</g>
<!-- Node2&#45;&gt;Node1 -->
<g id="edge2" class="edge"><title>Node2&#45;&gt;Node1</title>
<path fill="none" stroke="midnightblue" d="M89.8638,-170.117C95.6685,-161.004 101.872,-151.266 108.039,-141.584"/>
<polygon fill="none" stroke="midnightblue" points="86.8552,-168.326 84.4347,-178.64 92.7592,-172.086 86.8552,-168.326"/>
</g>
<!-- Node3 -->
<g id="node4" class="node"><title>Node3</title>
<a xlink:href="../../dd/df4/a00193.htm" target="_top" xlink:title="class to handle UI events with encapsulate the default lister structures ">
<polygon fill="none" stroke="black" points="0,-293 0,-499 120,-499 120,-293 0,-293"/>
<text text-anchor="start" x="8" y="-486.9" font-family="Helvetica,sans-Serif" font-size="9.00">de.tu_clausthal.in.mec.ui.</text>
<text text-anchor="middle" x="60" y="-473.9" font-family="Helvetica,sans-Serif" font-size="9.00">IUIListener</text>
<polyline fill="none" stroke="black" points="0,-465 120,-465 "/>
<text text-anchor="start" x="8" y="-452.9" font-family="Helvetica,sans-Serif" font-size="9.00"># c_maxzoom</text>
<text text-anchor="start" x="8" y="-439.9" font-family="Helvetica,sans-Serif" font-size="9.00"># c_miniconsize</text>
<polyline fill="none" stroke="black" points="0,-431 120,-431 "/>
<text text-anchor="start" x="8" y="-418.9" font-family="Helvetica,sans-Serif" font-size="9.00">+ IUIListener()</text>
<text text-anchor="start" x="8" y="-405.9" font-family="Helvetica,sans-Serif" font-size="9.00">+ mouseClicked()</text>
<text text-anchor="start" x="8" y="-392.9" font-family="Helvetica,sans-Serif" font-size="9.00">+ mouseEntered()</text>
<text text-anchor="start" x="8" y="-379.9" font-family="Helvetica,sans-Serif" font-size="9.00">+ mouseExited()</text>
<text text-anchor="start" x="8" y="-366.9" font-family="Helvetica,sans-Serif" font-size="9.00">+ mousePressed()</text>
<text text-anchor="start" x="8" y="-353.9" font-family="Helvetica,sans-Serif" font-size="9.00">+ mouseReleased()</text>
<text text-anchor="start" x="8" y="-340.9" font-family="Helvetica,sans-Serif" font-size="9.00">+ onClick()</text>
<text text-anchor="start" x="8" y="-327.9" font-family="Helvetica,sans-Serif" font-size="9.00">+ release()</text>
<text text-anchor="start" x="8" y="-314.9" font-family="Helvetica,sans-Serif" font-size="9.00"># iconscale()</text>
<text text-anchor="start" x="8" y="-301.9" font-family="Helvetica,sans-Serif" font-size="9.00"># iconsize()</text>
</a>
</g>
<!-- Node3&#45;&gt;Node2 -->
<g id="edge4" class="edge"><title>Node3&#45;&gt;Node2</title>
<path fill="none" stroke="midnightblue" d="M60,-282.677C60,-272.975 60,-263.676 60,-255.283"/>
<polygon fill="none" stroke="midnightblue" points="56.5001,-282.912 60,-292.912 63.5001,-282.912 56.5001,-282.912"/>
</g>
<!-- Node4 -->
<g id="node6" class="node"><title>Node4</title>
<a xlink:href="../../d9/d38/a00166.htm" target="_top" xlink:title="global interface to read information about a simulation object ">
<polygon fill="none" stroke="black" points="162,-358 162,-434 282,-434 282,-358 162,-358"/>
<text text-anchor="start" x="170" y="-421.9" font-family="Helvetica,sans-Serif" font-size="9.00">de.tu_clausthal.in.mec.ui.</text>
<text text-anchor="middle" x="222" y="-408.9" font-family="Helvetica,sans-Serif" font-size="9.00">IInspector</text>
<polyline fill="none" stroke="black" points="162,-400 282,-400 "/>
<text text-anchor="middle" x="222" y="-387.9" font-family="Helvetica,sans-Serif" font-size="9.00"> </text>
<polyline fill="none" stroke="black" points="162,-379 282,-379 "/>
<text text-anchor="start" x="170" y="-366.9" font-family="Helvetica,sans-Serif" font-size="9.00">+ inspect()</text>
</a>
</g>
<!-- Node4&#45;&gt;Node2 -->
<g id="edge6" class="edge"><title>Node4&#45;&gt;Node2</title>
<path fill="none" stroke="midnightblue" d="M181.339,-350.249C165.114,-332.067 146.229,-310.995 129,-292 118.064,-279.943 106.077,-266.866 95.2066,-255.059"/>
<polygon fill="none" stroke="midnightblue" points="178.849,-352.715 188.117,-357.85 184.073,-348.057 178.849,-352.715"/>
</g>
<!-- Node5 -->
<g id="node8" class="node"><title>Node5</title>
<a xlink:href="../../db/ddf/a00164.htm" target="_top" xlink:title="distribution interface to define the amount of objects that should be generated ">
<polygon fill="none" stroke="black" points="138,-179 138,-255 356,-255 356,-179 138,-179"/>
<text text-anchor="start" x="146" y="-242.9" font-family="Helvetica,sans-Serif" font-size="9.00">de.tu_clausthal.in.mec.object.waypoint.generator.</text>
<text text-anchor="middle" x="247" y="-229.9" font-family="Helvetica,sans-Serif" font-size="9.00">IGenerator</text>
<polyline fill="none" stroke="black" points="138,-221 356,-221 "/>
<text text-anchor="middle" x="247" y="-208.9" font-family="Helvetica,sans-Serif" font-size="9.00"> </text>
<polyline fill="none" stroke="black" points="138,-200 356,-200 "/>
<text text-anchor="start" x="146" y="-187.9" font-family="Helvetica,sans-Serif" font-size="9.00">+ getCount()</text>
</a>
</g>
<!-- Node4&#45;&gt;Node5 -->
<g id="edge10" class="edge"><title>Node4&#45;&gt;Node5</title>
<path fill="none" stroke="midnightblue" d="M228.753,-347.647C232.816,-318.556 237.915,-282.051 241.689,-255.029"/>
<polygon fill="none" stroke="midnightblue" points="225.28,-347.212 227.363,-357.6 232.213,-348.18 225.28,-347.212"/>
</g>
<!-- Node5&#45;&gt;Node1 -->
<g id="edge8" class="edge"><title>Node5&#45;&gt;Node1</title>
<path fill="none" stroke="midnightblue" d="M216.815,-170.117C210.948,-161.004 204.678,-151.266 198.445,-141.584"/>
<polygon fill="none" stroke="midnightblue" points="213.946,-172.127 222.303,-178.64 219.832,-168.337 213.946,-172.127"/>
</g>
</g>
</svg>
