<?xml version="1.0" encoding="UTF-8" standalone="no"?>
<!DOCTYPE svg PUBLIC "-//W3C//DTD SVG 1.1//EN"
 "http://www.w3.org/Graphics/SVG/1.1/DTD/svg11.dtd">
<!-- Generated by graphviz version 2.26.3 (20100126.1600)
 -->
<!-- Title: de.tu_clausthal.in.mec.ui.COSMViewer.getCurrentClickableLayer Pages: 1 -->
<svg width="390pt" height="94pt"
 viewBox="0.00 0.00 390.00 94.00" xmlns="http://www.w3.org/2000/svg" xmlns:xlink="http://www.w3.org/1999/xlink">
<g id="graph1" class="graph" transform="scale(1 1) rotate(0) translate(4 90)">
<title>de.tu_clausthal.in.mec.ui.COSMViewer.getCurrentClickableLayer</title>
<!-- Node1 -->
<g id="node1" class="node"><title>Node1</title>
<polygon fill="#bfbfbf" stroke="black" points="0.5,-26 0.5,-60 179.5,-60 179.5,-26 0.5,-26"/>
<text text-anchor="start" x="8.5" y="-47.9" font-family="Helvetica,sans-Serif" font-size="9.00">de.tu_clausthal.in.mec.ui.</text>
<text text-anchor="middle" x="90" y="-34.9" font-family="Helvetica,sans-Serif" font-size="9.00">COSMViewer.getCurrentClickableLayer</text>
</g>
<!-- Node2 -->
<g id="node3" class="node"><title>Node2</title>
<a xlink:href="../../da/d82/a00091.htm#aa3e31b3535cbad52677fa089a2455fbf" target="_top" xlink:title="de.tu_clausthal.in.mec.ui.\lCOSMMouseListener.mouseClicked">
<polygon fill="none" stroke="black" points="216.5,-52 216.5,-86 381.5,-86 381.5,-52 216.5,-52"/>
<text text-anchor="start" x="224.5" y="-73.9" font-family="Helvetica,sans-Serif" font-size="9.00">de.tu_clausthal.in.mec.ui.</text>
<text text-anchor="middle" x="299" y="-60.9" font-family="Helvetica,sans-Serif" font-size="9.00">COSMMouseListener.mouseClicked</text>
</a>
</g>
<!-- Node1&#45;&gt;Node2 -->
<g id="edge2" class="edge"><title>Node1&#45;&gt;Node2</title>
<path fill="none" stroke="midnightblue" d="M189.59,-55.3892C198.518,-56.4998 207.494,-57.6164 216.256,-58.7065"/>
<polygon fill="midnightblue" stroke="midnightblue" points="189.9,-51.9008 179.544,-54.1395 189.036,-58.8473 189.9,-51.9008"/>
</g>
<!-- Node3 -->
<g id="node5" class="node"><title>Node3</title>
<a xlink:href="../../da/d82/a00091.htm#a91b49f9d896b364884b41e346814cc0c" target="_top" xlink:title="de.tu_clausthal.in.mec.ui.\lCOSMMouseListener.mouseMoved">
<polygon fill="none" stroke="black" points="218,-0 218,-34 380,-34 380,-0 218,-0"/>
<text text-anchor="start" x="226" y="-21.9" font-family="Helvetica,sans-Serif" font-size="9.00">de.tu_clausthal.in.mec.ui.</text>
<text text-anchor="middle" x="299" y="-8.9" font-family="Helvetica,sans-Serif" font-size="9.00">COSMMouseListener.mouseMoved</text>
</a>
</g>
<!-- Node1&#45;&gt;Node3 -->
<g id="edge4" class="edge"><title>Node1&#45;&gt;Node3</title>
<path fill="none" stroke="midnightblue" d="M189.747,-30.5913C199.182,-29.4176 208.668,-28.2375 217.898,-27.0893"/>
<polygon fill="midnightblue" stroke="midnightblue" points="189.036,-27.1527 179.544,-31.8605 189.9,-34.0992 189.036,-27.1527"/>
</g>
</g>
</svg>
