<?xml version="1.0" encoding="UTF-8" standalone="no"?>
<!DOCTYPE svg PUBLIC "-//W3C//DTD SVG 1.1//EN"
 "http://www.w3.org/Graphics/SVG/1.1/DTD/svg11.dtd">
<!-- Generated by graphviz version 2.26.3 (20100126.1600)
 -->
<!-- Title: de.tu_clausthal.in.mec.object.ISingleLayer Pages: 1 -->
<svg width="442pt" height="520pt"
 viewBox="0.00 0.00 442.00 520.00" xmlns="http://www.w3.org/2000/svg" xmlns:xlink="http://www.w3.org/1999/xlink">
<g id="graph1" class="graph" transform="scale(1 1) rotate(0) translate(4 516)">
<title>de.tu_clausthal.in.mec.object.ISingleLayer</title>
<!-- Node1 -->
<g id="node1" class="node"><title>Node1</title>
<polygon fill="#bfbfbf" stroke="black" points="140.5,-0.5 140.5,-219.5 277.5,-219.5 277.5,-0.5 140.5,-0.5"/>
<text text-anchor="start" x="148.5" y="-207.4" font-family="Helvetica,sans-Serif" font-size="9.00">de.tu_clausthal.in.mec.object.</text>
<text text-anchor="middle" x="209" y="-194.4" font-family="Helvetica,sans-Serif" font-size="9.00">ISingleLayer</text>
<polyline fill="none" stroke="black" points="140.5,-185.5 277.5,-185.5 "/>
<text text-anchor="start" x="148.5" y="-173.4" font-family="Helvetica,sans-Serif" font-size="9.00"># m_active</text>
<text text-anchor="start" x="148.5" y="-160.4" font-family="Helvetica,sans-Serif" font-size="9.00"># m_visible</text>
<polyline fill="none" stroke="black" points="140.5,-151.5 277.5,-151.5 "/>
<text text-anchor="start" x="148.5" y="-139.4" font-family="Helvetica,sans-Serif" font-size="9.00">+ getCalculationIndex()</text>
<text text-anchor="start" x="148.5" y="-126.4" font-family="Helvetica,sans-Serif" font-size="9.00">+ isActive()</text>
<text text-anchor="start" x="148.5" y="-113.4" font-family="Helvetica,sans-Serif" font-size="9.00">+ isVisible()</text>
<text text-anchor="start" x="148.5" y="-100.4" font-family="Helvetica,sans-Serif" font-size="9.00">+ onSimulationReset()</text>
<text text-anchor="start" x="148.5" y="-87.4" font-family="Helvetica,sans-Serif" font-size="9.00">+ onSimulationStart()</text>
<text text-anchor="start" x="148.5" y="-74.4" font-family="Helvetica,sans-Serif" font-size="9.00">+ onSimulationStop()</text>
<text text-anchor="start" x="148.5" y="-61.4" font-family="Helvetica,sans-Serif" font-size="9.00">+ paint()</text>
<text text-anchor="start" x="148.5" y="-48.4" font-family="Helvetica,sans-Serif" font-size="9.00">+ release()</text>
<text text-anchor="start" x="148.5" y="-35.4" font-family="Helvetica,sans-Serif" font-size="9.00">+ setActive()</text>
<text text-anchor="start" x="148.5" y="-22.4" font-family="Helvetica,sans-Serif" font-size="9.00">+ setVisible()</text>
<text text-anchor="start" x="148.5" y="-9.4" font-family="Helvetica,sans-Serif" font-size="9.00">+ step()</text>
</g>
<!-- Node2 -->
<g id="node2" class="node"><title>Node2</title>
<a xlink:href="../../dc/d57/a00194.htm" target="_top" xlink:title="defines a viewable layer ">
<polygon fill="none" stroke="black" points="0,-282.5 0,-371.5 120,-371.5 120,-282.5 0,-282.5"/>
<text text-anchor="start" x="8" y="-359.4" font-family="Helvetica,sans-Serif" font-size="9.00">de.tu_clausthal.in.mec.ui.</text>
<text text-anchor="middle" x="60" y="-346.4" font-family="Helvetica,sans-Serif" font-size="9.00">IViewableLayer</text>
<polyline fill="none" stroke="black" points="0,-337.5 120,-337.5 "/>
<text text-anchor="middle" x="60" y="-325.4" font-family="Helvetica,sans-Serif" font-size="9.00"> </text>
<polyline fill="none" stroke="black" points="0,-316.5 120,-316.5 "/>
<text text-anchor="start" x="8" y="-304.4" font-family="Helvetica,sans-Serif" font-size="9.00">+ isVisible()</text>
<text text-anchor="start" x="8" y="-291.4" font-family="Helvetica,sans-Serif" font-size="9.00">+ setVisible()</text>
</a>
</g>
<!-- Node2&#45;&gt;Node1 -->
<g id="edge2" class="edge"><title>Node2&#45;&gt;Node1</title>
<path fill="none" stroke="midnightblue" d="M96.4205,-273.958C109.667,-254.666 125.111,-232.175 140.237,-210.145"/>
<polygon fill="none" stroke="midnightblue" points="93.4674,-272.076 90.6922,-282.301 99.238,-276.038 93.4674,-272.076"/>
</g>
<!-- Node3 -->
<g id="node4" class="node"><title>Node3</title>
<a xlink:href="../../de/db1/a00197.htm" target="_top" xlink:title="interface of void&#45;step method ">
<polygon fill="none" stroke="black" points="137.5,-289 137.5,-365 280.5,-365 280.5,-289 137.5,-289"/>
<text text-anchor="start" x="145.5" y="-352.9" font-family="Helvetica,sans-Serif" font-size="9.00">de.tu_clausthal.in.mec.runtime.</text>
<text text-anchor="middle" x="209" y="-339.9" font-family="Helvetica,sans-Serif" font-size="9.00">IVoidSteppable</text>
<polyline fill="none" stroke="black" points="137.5,-331 280.5,-331 "/>
<text text-anchor="middle" x="209" y="-318.9" font-family="Helvetica,sans-Serif" font-size="9.00"> </text>
<polyline fill="none" stroke="black" points="137.5,-310 280.5,-310 "/>
<text text-anchor="start" x="145.5" y="-297.9" font-family="Helvetica,sans-Serif" font-size="9.00">+ step()</text>
</a>
</g>
<!-- Node3&#45;&gt;Node1 -->
<g id="edge4" class="edge"><title>Node3&#45;&gt;Node1</title>
<path fill="none" stroke="midnightblue" d="M209,-278.224C209,-260.726 209,-240.217 209,-219.652"/>
<polygon fill="none" stroke="midnightblue" points="205.5,-278.704 209,-288.704 212.5,-278.704 205.5,-278.704"/>
</g>
<!-- Node4 -->
<g id="node6" class="node"><title>Node4</title>
<a xlink:href="../../da/d15/a00188.htm" target="_top" xlink:title="interface for all objects which are triggered by the simulation worker ">
<polygon fill="none" stroke="black" points="215.5,-435 215.5,-511 358.5,-511 358.5,-435 215.5,-435"/>
<text text-anchor="start" x="223.5" y="-498.9" font-family="Helvetica,sans-Serif" font-size="9.00">de.tu_clausthal.in.mec.runtime.</text>
<text text-anchor="middle" x="287" y="-485.9" font-family="Helvetica,sans-Serif" font-size="9.00">ISteppable</text>
<polyline fill="none" stroke="black" points="215.5,-477 358.5,-477 "/>
<text text-anchor="middle" x="287" y="-464.9" font-family="Helvetica,sans-Serif" font-size="9.00"> </text>
<polyline fill="none" stroke="black" points="215.5,-456 358.5,-456 "/>
<text text-anchor="start" x="223.5" y="-443.9" font-family="Helvetica,sans-Serif" font-size="9.00">+ release()</text>
</a>
</g>
<!-- Node4&#45;&gt;Node3 -->
<g id="edge6" class="edge"><title>Node4&#45;&gt;Node3</title>
<path fill="none" stroke="midnightblue" d="M261.663,-425.574C251.2,-405.989 239.235,-383.593 229.357,-365.104"/>
<polygon fill="none" stroke="midnightblue" points="258.707,-427.469 266.506,-434.64 264.881,-424.171 258.707,-427.469"/>
</g>
<!-- Node5 -->
<g id="node8" class="node"><title>Node5</title>
<a xlink:href="../../dd/da7/a00168.htm" target="_top" xlink:title="interface of the layer ">
<polygon fill="none" stroke="black" points="297.5,-256.5 297.5,-397.5 434.5,-397.5 434.5,-256.5 297.5,-256.5"/>
<text text-anchor="start" x="305.5" y="-385.4" font-family="Helvetica,sans-Serif" font-size="9.00">de.tu_clausthal.in.mec.object.</text>
<text text-anchor="middle" x="366" y="-372.4" font-family="Helvetica,sans-Serif" font-size="9.00">ILayer</text>
<polyline fill="none" stroke="black" points="297.5,-363.5 434.5,-363.5 "/>
<text text-anchor="middle" x="366" y="-351.4" font-family="Helvetica,sans-Serif" font-size="9.00"> </text>
<polyline fill="none" stroke="black" points="297.5,-342.5 434.5,-342.5 "/>
<text text-anchor="start" x="305.5" y="-330.4" font-family="Helvetica,sans-Serif" font-size="9.00">+ getCalculationIndex()</text>
<text text-anchor="start" x="305.5" y="-317.4" font-family="Helvetica,sans-Serif" font-size="9.00">+ isActive()</text>
<text text-anchor="start" x="305.5" y="-304.4" font-family="Helvetica,sans-Serif" font-size="9.00">+ onSimulationReset()</text>
<text text-anchor="start" x="305.5" y="-291.4" font-family="Helvetica,sans-Serif" font-size="9.00">+ onSimulationStart()</text>
<text text-anchor="start" x="305.5" y="-278.4" font-family="Helvetica,sans-Serif" font-size="9.00">+ onSimulationStop()</text>
<text text-anchor="start" x="305.5" y="-265.4" font-family="Helvetica,sans-Serif" font-size="9.00">+ setActive()</text>
</a>
</g>
<!-- Node4&#45;&gt;Node5 -->
<g id="edge10" class="edge"><title>Node4&#45;&gt;Node5</title>
<path fill="none" stroke="midnightblue" d="M312.521,-425.835C317.408,-416.803 322.622,-407.166 327.807,-397.584"/>
<polygon fill="none" stroke="midnightblue" points="309.437,-424.18 307.756,-434.64 315.594,-427.511 309.437,-424.18"/>
</g>
<!-- Node5&#45;&gt;Node1 -->
<g id="edge8" class="edge"><title>Node5&#45;&gt;Node1</title>
<path fill="none" stroke="midnightblue" d="M308.88,-248.051C298.698,-233.978 287.997,-219.187 277.536,-204.727"/>
<polygon fill="none" stroke="midnightblue" points="306.112,-250.196 314.81,-256.246 311.783,-246.093 306.112,-250.196"/>
</g>
</g>
</svg>
