<?xml version="1.0" encoding="UTF-8" standalone="no"?>
<!DOCTYPE svg PUBLIC "-//W3C//DTD SVG 1.1//EN"
 "http://www.w3.org/Graphics/SVG/1.1/DTD/svg11.dtd">
<!-- Generated by graphviz version 2.26.3 (20100126.1600)
 -->
<!-- Title: de.tu_clausthal.in.mec.ui.web.CMarkdownRenderer.render Pages: 1 -->
<svg width="324pt" height="94pt"
 viewBox="0.00 0.00 324.00 94.00" xmlns="http://www.w3.org/2000/svg" xmlns:xlink="http://www.w3.org/1999/xlink">
<g id="graph1" class="graph" transform="scale(1 1) rotate(0) translate(4 90)">
<title>de.tu_clausthal.in.mec.ui.web.CMarkdownRenderer.render</title>
<!-- Node1 -->
<g id="node1" class="node"><title>Node1</title>
<polygon fill="#bfbfbf" stroke="black" points="0,-26 0,-60 140,-60 140,-26 0,-26"/>
<text text-anchor="start" x="8" y="-47.9" font-family="Helvetica,sans-Serif" font-size="9.00">de.tu_clausthal.in.mec.ui.web.</text>
<text text-anchor="middle" x="70" y="-34.9" font-family="Helvetica,sans-Serif" font-size="9.00">CMarkdownRenderer.render</text>
</g>
<!-- Node2 -->
<g id="node3" class="node"><title>Node2</title>
<a xlink:href="../../db/df8/a00076.htm#ad6f2ae1eb8a7ca80cce4ae2e00de6822" target="_top" xlink:title="returns a URI with base URI ">
<polygon fill="none" stroke="black" points="176,-52 176,-86 316,-86 316,-52 176,-52"/>
<text text-anchor="start" x="184" y="-73.9" font-family="Helvetica,sans-Serif" font-size="9.00">de.tu_clausthal.in.mec.ui.web.</text>
<text text-anchor="middle" x="246" y="-60.9" font-family="Helvetica,sans-Serif" font-size="9.00">CMarkdownRenderer.getURL</text>
</a>
</g>
<!-- Node1&#45;&gt;Node2 -->
<g id="edge2" class="edge"><title>Node1&#45;&gt;Node2</title>
<path fill="none" stroke="midnightblue" d="M140.066,-53.3506C148.54,-54.6025 157.247,-55.8887 165.852,-57.16"/>
<polygon fill="midnightblue" stroke="midnightblue" points="165.484,-60.6435 175.888,-58.6425 166.507,-53.7186 165.484,-60.6435"/>
</g>
<!-- Node3 -->
<g id="node5" class="node"><title>Node3</title>
<a xlink:href="../../db/df8/a00076.htm#a0d0c2b5de068d7bf5d441f5d80b2da66" target="_top" xlink:title="checks if a string is an URL ">
<polygon fill="none" stroke="black" points="176,-0 176,-34 316,-34 316,-0 176,-0"/>
<text text-anchor="start" x="184" y="-21.9" font-family="Helvetica,sans-Serif" font-size="9.00">de.tu_clausthal.in.mec.ui.web.</text>
<text text-anchor="middle" x="246" y="-8.9" font-family="Helvetica,sans-Serif" font-size="9.00">CMarkdownRenderer.isURL</text>
</a>
</g>
<!-- Node1&#45;&gt;Node3 -->
<g id="edge4" class="edge"><title>Node1&#45;&gt;Node3</title>
<path fill="none" stroke="midnightblue" d="M140.066,-32.6494C148.54,-31.3975 157.247,-30.1113 165.852,-28.84"/>
<polygon fill="midnightblue" stroke="midnightblue" points="166.507,-32.2814 175.888,-27.3575 165.484,-25.3565 166.507,-32.2814"/>
</g>
</g>
</svg>
