<?xml version="1.0" encoding="UTF-8" standalone="no"?>
<!DOCTYPE svg PUBLIC "-//W3C//DTD SVG 1.1//EN"
 "http://www.w3.org/Graphics/SVG/1.1/DTD/svg11.dtd">
<!-- Generated by graphviz version 2.26.3 (20100126.1600)
 -->
<!-- Title: de.tu_clausthal.in.mec.ui.web.CMarkdownRenderer.render Pages: 1 -->
<svg width="372pt" height="94pt"
 viewBox="0.00 0.00 372.00 94.00" xmlns="http://www.w3.org/2000/svg" xmlns:xlink="http://www.w3.org/1999/xlink">
<g id="graph1" class="graph" transform="scale(1 1) rotate(0) translate(4 90)">
<title>de.tu_clausthal.in.mec.ui.web.CMarkdownRenderer.render</title>
<!-- Node1 -->
<g id="node1" class="node"><title>Node1</title>
<polygon fill="#bfbfbf" stroke="black" points="0,-26 0,-60 140,-60 140,-26 0,-26"/>
<text text-anchor="start" x="8" y="-47.9" font-family="Helvetica,sans-Serif" font-size="9.00">de.tu_clausthal.in.mec.ui.web.</text>
<text text-anchor="middle" x="70" y="-34.9" font-family="Helvetica,sans-Serif" font-size="9.00">CMarkdownRenderer.render</text>
</g>
<!-- Node2 -->
<g id="node3" class="node"><title>Node2</title>
<a xlink:href="../../db/d3a/a00040.htm#a5fc1c2b2396e46e44cbc25c907f2c452" target="_top" xlink:title="singleton get instance method ">
<polygon fill="none" stroke="black" points="176,-52 176,-86 364,-86 364,-52 176,-52"/>
<text text-anchor="start" x="184" y="-73.9" font-family="Helvetica,sans-Serif" font-size="9.00">de.tu_clausthal.in.mec.CConfiguration.get</text>
<text text-anchor="middle" x="270" y="-60.9" font-family="Helvetica,sans-Serif" font-size="9.00">Instance</text>
</a>
</g>
<!-- Node1&#45;&gt;Node2 -->
<g id="edge2" class="edge"><title>Node1&#45;&gt;Node2</title>
<path fill="none" stroke="midnightblue" d="M140.231,-52.1301C148.483,-53.2028 157.032,-54.3142 165.625,-55.4312"/>
<polygon fill="midnightblue" stroke="midnightblue" points="165.348,-58.9246 175.716,-56.7431 166.251,-51.983 165.348,-58.9246"/>
</g>
<!-- Node3 -->
<g id="node5" class="node"><title>Node3</title>
<a xlink:href="../../db/df8/a00076.htm#a90684e8ebbd7183dc85ac8797207cfcd" target="_top" xlink:title="create Wikipedia link ">
<polygon fill="none" stroke="black" points="181,-0 181,-34 359,-34 359,-0 181,-0"/>
<text text-anchor="start" x="189" y="-21.9" font-family="Helvetica,sans-Serif" font-size="9.00">de.tu_clausthal.in.mec.ui.web.</text>
<text text-anchor="middle" x="270" y="-8.9" font-family="Helvetica,sans-Serif" font-size="9.00">CMarkdownRenderer.getWikipediaLink</text>
</a>
</g>
<!-- Node1&#45;&gt;Node3 -->
<g id="edge4" class="edge"><title>Node1&#45;&gt;Node3</title>
<path fill="none" stroke="midnightblue" d="M140.231,-33.8699C150.211,-32.5726 160.626,-31.2187 171.026,-29.8667"/>
<polygon fill="midnightblue" stroke="midnightblue" points="171.512,-33.333 180.977,-28.5729 170.61,-26.3914 171.512,-33.333"/>
</g>
</g>
</svg>
