<?xml version="1.0" encoding="UTF-8" standalone="no"?>
<!DOCTYPE svg PUBLIC "-//W3C//DTD SVG 1.1//EN"
 "http://www.w3.org/Graphics/SVG/1.1/DTD/svg11.dtd">
<!-- Generated by graphviz version 2.26.3 (20100126.1600)
 -->
<!-- Title: de.tu_clausthal.in.mec.object.waypoint.generator.CTimeDistribution Pages: 1 -->
<svg width="364pt" height="496pt"
 viewBox="0.00 0.00 364.00 496.00" xmlns="http://www.w3.org/2000/svg" xmlns:xlink="http://www.w3.org/1999/xlink">
<g id="graph1" class="graph" transform="scale(1 1) rotate(0) translate(4 492)">
<title>de.tu_clausthal.in.mec.object.waypoint.generator.CTimeDistribution</title>
<!-- Node1 -->
<g id="node1" class="node"><title>Node1</title>
<polygon fill="#bfbfbf" stroke="black" points="44,-1 44,-129 262,-129 262,-1 44,-1"/>
<text text-anchor="start" x="52" y="-116.9" font-family="Helvetica,sans-Serif" font-size="9.00">de.tu_clausthal.in.mec.object.waypoint.generator.</text>
<text text-anchor="middle" x="153" y="-103.9" font-family="Helvetica,sans-Serif" font-size="9.00">CTimeDistribution</text>
<polyline fill="none" stroke="black" points="44,-95 262,-95 "/>
<text text-anchor="start" x="52" y="-82.9" font-family="Helvetica,sans-Serif" font-size="9.00">&#45; m_count</text>
<text text-anchor="start" x="52" y="-69.9" font-family="Helvetica,sans-Serif" font-size="9.00">&#45; m_distribution</text>
<text text-anchor="start" x="52" y="-56.9" font-family="Helvetica,sans-Serif" font-size="9.00">&#45; m_inspect</text>
<polyline fill="none" stroke="black" points="44,-48 262,-48 "/>
<text text-anchor="start" x="52" y="-35.9" font-family="Helvetica,sans-Serif" font-size="9.00">+ CTimeDistribution()</text>
<text text-anchor="start" x="52" y="-22.9" font-family="Helvetica,sans-Serif" font-size="9.00">+ getCount()</text>
<text text-anchor="start" x="52" y="-9.9" font-family="Helvetica,sans-Serif" font-size="9.00">+ inspect()</text>
</g>
<!-- Node2 -->
<g id="node2" class="node"><title>Node2</title>
<a xlink:href="../../dc/de6/a00167.htm" target="_top" xlink:title="global default implementation to get information about a simulation object ">
<polygon fill="none" stroke="black" points="0,-167 0,-243 120,-243 120,-167 0,-167"/>
<text text-anchor="start" x="8" y="-230.9" font-family="Helvetica,sans-Serif" font-size="9.00">de.tu_clausthal.in.mec.ui.</text>
<text text-anchor="middle" x="60" y="-217.9" font-family="Helvetica,sans-Serif" font-size="9.00">IInspectorDefault</text>
<polyline fill="none" stroke="black" points="0,-209 120,-209 "/>
<text text-anchor="start" x="8" y="-196.9" font-family="Helvetica,sans-Serif" font-size="9.00">&#45; m_inspect</text>
<polyline fill="none" stroke="black" points="0,-188 120,-188 "/>
<text text-anchor="start" x="8" y="-175.9" font-family="Helvetica,sans-Serif" font-size="9.00">+ inspect()</text>
</a>
</g>
<!-- Node2&#45;&gt;Node1 -->
<g id="edge2" class="edge"><title>Node2&#45;&gt;Node1</title>
<path fill="none" stroke="midnightblue" d="M91.006,-158.324C97.2414,-148.938 103.897,-138.919 110.446,-129.059"/>
<polygon fill="none" stroke="midnightblue" points="88.0306,-156.478 85.4127,-166.744 93.8613,-160.351 88.0306,-156.478"/>
</g>
<!-- Node3 -->
<g id="node4" class="node"><title>Node3</title>
<a xlink:href="../../dd/df4/a00193.htm" target="_top" xlink:title="class to handle UI events with encapsulate the default lister structures ">
<polygon fill="none" stroke="black" points="0,-281 0,-487 120,-487 120,-281 0,-281"/>
<text text-anchor="start" x="8" y="-474.9" font-family="Helvetica,sans-Serif" font-size="9.00">de.tu_clausthal.in.mec.ui.</text>
<text text-anchor="middle" x="60" y="-461.9" font-family="Helvetica,sans-Serif" font-size="9.00">IUIListener</text>
<polyline fill="none" stroke="black" points="0,-453 120,-453 "/>
<text text-anchor="start" x="8" y="-440.9" font-family="Helvetica,sans-Serif" font-size="9.00"># c_maxzoom</text>
<text text-anchor="start" x="8" y="-427.9" font-family="Helvetica,sans-Serif" font-size="9.00"># c_miniconsize</text>
<polyline fill="none" stroke="black" points="0,-419 120,-419 "/>
<text text-anchor="start" x="8" y="-406.9" font-family="Helvetica,sans-Serif" font-size="9.00">+ IUIListener()</text>
<text text-anchor="start" x="8" y="-393.9" font-family="Helvetica,sans-Serif" font-size="9.00">+ mouseClicked()</text>
<text text-anchor="start" x="8" y="-380.9" font-family="Helvetica,sans-Serif" font-size="9.00">+ mouseEntered()</text>
<text text-anchor="start" x="8" y="-367.9" font-family="Helvetica,sans-Serif" font-size="9.00">+ mouseExited()</text>
<text text-anchor="start" x="8" y="-354.9" font-family="Helvetica,sans-Serif" font-size="9.00">+ mousePressed()</text>
<text text-anchor="start" x="8" y="-341.9" font-family="Helvetica,sans-Serif" font-size="9.00">+ mouseReleased()</text>
<text text-anchor="start" x="8" y="-328.9" font-family="Helvetica,sans-Serif" font-size="9.00">+ onClick()</text>
<text text-anchor="start" x="8" y="-315.9" font-family="Helvetica,sans-Serif" font-size="9.00">+ release()</text>
<text text-anchor="start" x="8" y="-302.9" font-family="Helvetica,sans-Serif" font-size="9.00"># iconscale()</text>
<text text-anchor="start" x="8" y="-289.9" font-family="Helvetica,sans-Serif" font-size="9.00"># iconsize()</text>
</a>
</g>
<!-- Node3&#45;&gt;Node2 -->
<g id="edge4" class="edge"><title>Node3&#45;&gt;Node2</title>
<path fill="none" stroke="midnightblue" d="M60,-270.677C60,-260.975 60,-251.676 60,-243.283"/>
<polygon fill="none" stroke="midnightblue" points="56.5001,-270.912 60,-280.912 63.5001,-270.912 56.5001,-270.912"/>
</g>
<!-- Node4 -->
<g id="node6" class="node"><title>Node4</title>
<a xlink:href="../../d9/d38/a00166.htm" target="_top" xlink:title="global interface to read information about a simulation object ">
<polygon fill="none" stroke="black" points="162,-346 162,-422 282,-422 282,-346 162,-346"/>
<text text-anchor="start" x="170" y="-409.9" font-family="Helvetica,sans-Serif" font-size="9.00">de.tu_clausthal.in.mec.ui.</text>
<text text-anchor="middle" x="222" y="-396.9" font-family="Helvetica,sans-Serif" font-size="9.00">IInspector</text>
<polyline fill="none" stroke="black" points="162,-388 282,-388 "/>
<text text-anchor="middle" x="222" y="-375.9" font-family="Helvetica,sans-Serif" font-size="9.00"> </text>
<polyline fill="none" stroke="black" points="162,-367 282,-367 "/>
<text text-anchor="start" x="170" y="-354.9" font-family="Helvetica,sans-Serif" font-size="9.00">+ inspect()</text>
</a>
</g>
<!-- Node4&#45;&gt;Node2 -->
<g id="edge6" class="edge"><title>Node4&#45;&gt;Node2</title>
<path fill="none" stroke="midnightblue" d="M181.339,-338.249C165.114,-320.067 146.229,-298.995 129,-280 118.064,-267.943 106.077,-254.866 95.2066,-243.059"/>
<polygon fill="none" stroke="midnightblue" points="178.849,-340.715 188.117,-345.85 184.073,-336.057 178.849,-340.715"/>
</g>
<!-- Node5 -->
<g id="node8" class="node"><title>Node5</title>
<a xlink:href="../../db/ddf/a00164.htm" target="_top" xlink:title="distribution interface to define the amount of objects that should be generated ">
<polygon fill="none" stroke="black" points="138,-167 138,-243 356,-243 356,-167 138,-167"/>
<text text-anchor="start" x="146" y="-230.9" font-family="Helvetica,sans-Serif" font-size="9.00">de.tu_clausthal.in.mec.object.waypoint.generator.</text>
<text text-anchor="middle" x="247" y="-217.9" font-family="Helvetica,sans-Serif" font-size="9.00">IGenerator</text>
<polyline fill="none" stroke="black" points="138,-209 356,-209 "/>
<text text-anchor="middle" x="247" y="-196.9" font-family="Helvetica,sans-Serif" font-size="9.00"> </text>
<polyline fill="none" stroke="black" points="138,-188 356,-188 "/>
<text text-anchor="start" x="146" y="-175.9" font-family="Helvetica,sans-Serif" font-size="9.00">+ getCount()</text>
</a>
</g>
<!-- Node4&#45;&gt;Node5 -->
<g id="edge10" class="edge"><title>Node4&#45;&gt;Node5</title>
<path fill="none" stroke="midnightblue" d="M228.753,-335.647C232.816,-306.556 237.915,-270.051 241.689,-243.029"/>
<polygon fill="none" stroke="midnightblue" points="225.28,-335.212 227.363,-345.6 232.213,-336.18 225.28,-335.212"/>
</g>
<!-- Node5&#45;&gt;Node1 -->
<g id="edge8" class="edge"><title>Node5&#45;&gt;Node1</title>
<path fill="none" stroke="midnightblue" d="M215.661,-158.324C209.358,-148.938 202.631,-138.919 196.011,-129.059"/>
<polygon fill="none" stroke="midnightblue" points="212.834,-160.393 221.314,-166.744 218.645,-156.491 212.834,-160.393"/>
</g>
</g>
</svg>
