<?xml version="1.0" encoding="UTF-8" standalone="no"?>
<!DOCTYPE svg PUBLIC "-//W3C//DTD SVG 1.1//EN"
 "http://www.w3.org/Graphics/SVG/1.1/DTD/svg11.dtd">
<!-- Generated by graphviz version 2.26.3 (20100126.1600)
 -->
<!-- Title: de.tu_clausthal.in.mec.object.car.graph.CGraphHopper.getGraphLocation Pages: 1 -->
<svg width="556pt" height="42pt"
 viewBox="0.00 0.00 556.00 42.00" xmlns="http://www.w3.org/2000/svg" xmlns:xlink="http://www.w3.org/1999/xlink">
<g id="graph1" class="graph" transform="scale(1 1) rotate(0) translate(4 38)">
<title>de.tu_clausthal.in.mec.object.car.graph.CGraphHopper.getGraphLocation</title>
<!-- Node1 -->
<g id="node1" class="node"><title>Node1</title>
<polygon fill="#bfbfbf" stroke="black" points="0.5,-0 0.5,-34 179.5,-34 179.5,-0 0.5,-0"/>
<text text-anchor="start" x="8.5" y="-21.9" font-family="Helvetica,sans-Serif" font-size="9.00">de.tu_clausthal.in.mec.object.car.graph.</text>
<text text-anchor="middle" x="90" y="-8.9" font-family="Helvetica,sans-Serif" font-size="9.00">CGraphHopper.getGraphLocation</text>
</g>
<!-- Node2 -->
<g id="node3" class="node"><title>Node2</title>
<a xlink:href="../../d1/dc6/a00037.htm#a5787f1e254c47dda5783aff04de599fd" target="_top" xlink:title="returns the hash of a string ">
<polygon fill="none" stroke="black" points="216,-0 216,-34 364,-34 364,-0 216,-0"/>
<text text-anchor="start" x="224" y="-21.9" font-family="Helvetica,sans-Serif" font-size="9.00">de.tu_clausthal.in.mec.common.</text>
<text text-anchor="middle" x="290" y="-8.9" font-family="Helvetica,sans-Serif" font-size="9.00">CCommon.getHash</text>
</a>
</g>
<!-- Node1&#45;&gt;Node2 -->
<g id="edge2" class="edge"><title>Node1&#45;&gt;Node2</title>
<path fill="none" stroke="midnightblue" d="M179.762,-17C188.42,-17 197.182,-17 205.783,-17"/>
<polygon fill="midnightblue" stroke="midnightblue" points="205.792,-20.5001 215.792,-17 205.792,-13.5001 205.792,-20.5001"/>
</g>
<!-- Node3 -->
<g id="node5" class="node"><title>Node3</title>
<a xlink:href="../../d1/dc6/a00037.htm#a7fac266bb9fa6b3a8d739a88a41dade8" target="_top" xlink:title="returns a string with hexadecimal bytes ">
<polygon fill="none" stroke="black" points="400,-0 400,-34 548,-34 548,-0 400,-0"/>
<text text-anchor="start" x="408" y="-21.9" font-family="Helvetica,sans-Serif" font-size="9.00">de.tu_clausthal.in.mec.common.</text>
<text text-anchor="middle" x="474" y="-8.9" font-family="Helvetica,sans-Serif" font-size="9.00">CCommon.getBytes2Hex</text>
</a>
</g>
<!-- Node2&#45;&gt;Node3 -->
<g id="edge4" class="edge"><title>Node2&#45;&gt;Node3</title>
<path fill="none" stroke="midnightblue" d="M364.044,-17C372.514,-17 381.195,-17 389.784,-17"/>
<polygon fill="midnightblue" stroke="midnightblue" points="389.808,-20.5001 399.808,-17 389.807,-13.5001 389.808,-20.5001"/>
</g>
</g>
</svg>
