<?xml version="1.0" encoding="UTF-8" standalone="no"?>
<!DOCTYPE svg PUBLIC "-//W3C//DTD SVG 1.1//EN"
 "http://www.w3.org/Graphics/SVG/1.1/DTD/svg11.dtd">
<!-- Generated by graphviz version 2.26.3 (20100126.1600)
 -->
<!-- Title: de.tu_clausthal.in.mec.object.car.graph.CGraphHopper.getRoutes Pages: 1 -->
<svg width="392pt" height="82pt"
 viewBox="0.00 0.00 392.00 82.00" xmlns="http://www.w3.org/2000/svg" xmlns:xlink="http://www.w3.org/1999/xlink">
<g id="graph1" class="graph" transform="scale(1 1) rotate(0) translate(4 78)">
<title>de.tu_clausthal.in.mec.object.car.graph.CGraphHopper.getRoutes</title>
<!-- Node1 -->
<g id="node1" class="node"><title>Node1</title>
<polygon fill="#bfbfbf" stroke="black" points="0.5,-23 0.5,-57 179.5,-57 179.5,-23 0.5,-23"/>
<text text-anchor="start" x="8.5" y="-44.9" font-family="Helvetica,sans-Serif" font-size="9.00">de.tu_clausthal.in.mec.object.car.graph.</text>
<text text-anchor="middle" x="90" y="-31.9" font-family="Helvetica,sans-Serif" font-size="9.00">CGraphHopper.getRoutes</text>
</g>
<!-- Node2 -->
<g id="node3" class="node"><title>Node2</title>
<a xlink:href="../../d0/d89/a00071.htm#a942b81f8e08f0e1702c8e358b1639663" target="_top" xlink:title="adds a error message ">
<polygon fill="none" stroke="black" points="216,-52.5 216,-73.5 384,-73.5 384,-52.5 216,-52.5"/>
<text text-anchor="middle" x="300" y="-61.4" font-family="Helvetica,sans-Serif" font-size="9.00">de.tu_clausthal.in.mec.CLogger.error</text>
</a>
</g>
<!-- Node1&#45;&gt;Node2 -->
<g id="edge2" class="edge"><title>Node1&#45;&gt;Node2</title>
<path fill="none" stroke="midnightblue" d="M179.668,-49.8208C188.322,-50.7686 197.117,-51.7319 205.813,-52.6843"/>
<polygon fill="midnightblue" stroke="midnightblue" points="205.639,-56.186 215.96,-53.7956 206.401,-49.2276 205.639,-56.186"/>
</g>
<!-- Node3 -->
<g id="node5" class="node"><title>Node3</title>
<a xlink:href="../../d1/dc6/a00037.htm#ae523069a1b523b0e6a0c643049b1d745" target="_top" xlink:title="returns a default string of the resource file ">
<polygon fill="none" stroke="black" points="226,-0 226,-34 374,-34 374,-0 226,-0"/>
<text text-anchor="start" x="234" y="-21.9" font-family="Helvetica,sans-Serif" font-size="9.00">de.tu_clausthal.in.mec.common.</text>
<text text-anchor="middle" x="300" y="-8.9" font-family="Helvetica,sans-Serif" font-size="9.00">CCommon.getResourceString</text>
</a>
</g>
<!-- Node1&#45;&gt;Node3 -->
<g id="edge4" class="edge"><title>Node1&#45;&gt;Node3</title>
<path fill="none" stroke="midnightblue" d="M179.668,-30.1792C191.567,-28.876 203.734,-27.5434 215.54,-26.2503"/>
<polygon fill="midnightblue" stroke="midnightblue" points="216.248,-29.6939 225.807,-25.1259 215.486,-22.7355 216.248,-29.6939"/>
</g>
</g>
</svg>
