<?xml version="1.0" encoding="UTF-8" standalone="no"?>
<!DOCTYPE svg PUBLIC "-//W3C//DTD SVG 1.1//EN"
 "http://www.w3.org/Graphics/SVG/1.1/DTD/svg11.dtd">
<!-- Generated by graphviz version 2.26.3 (20100126.1600)
 -->
<!-- Title: de.tu_clausthal.in.mec.object.car.graph.CGraphHopper.deleteGraph Pages: 1 -->
<svg width="772pt" height="42pt"
 viewBox="0.00 0.00 772.00 42.00" xmlns="http://www.w3.org/2000/svg" xmlns:xlink="http://www.w3.org/1999/xlink">
<g id="graph1" class="graph" transform="scale(1 1) rotate(0) translate(4 38)">
<title>de.tu_clausthal.in.mec.object.car.graph.CGraphHopper.deleteGraph</title>
<!-- Node1 -->
<g id="node1" class="node"><title>Node1</title>
<polygon fill="#bfbfbf" stroke="black" points="0.5,-0 0.5,-34 179.5,-34 179.5,-0 0.5,-0"/>
<text text-anchor="start" x="8.5" y="-21.9" font-family="Helvetica,sans-Serif" font-size="9.00">de.tu_clausthal.in.mec.object.car.graph.</text>
<text text-anchor="middle" x="90" y="-8.9" font-family="Helvetica,sans-Serif" font-size="9.00">CGraphHopper.deleteGraph</text>
</g>
<!-- Node2 -->
<g id="node3" class="node"><title>Node2</title>
<a xlink:href="../../dc/dee/a00053.htm#a7e7939418c529551a915e16806f3035c" target="_top" xlink:title="returns the full path of a graph location ">
<polygon fill="none" stroke="black" points="216.5,-0 216.5,-34 395.5,-34 395.5,-0 216.5,-0"/>
<text text-anchor="start" x="224.5" y="-21.9" font-family="Helvetica,sans-Serif" font-size="9.00">de.tu_clausthal.in.mec.object.car.graph.</text>
<text text-anchor="middle" x="306" y="-8.9" font-family="Helvetica,sans-Serif" font-size="9.00">CGraphHopper.getGraphLocation</text>
</a>
</g>
<!-- Node1&#45;&gt;Node2 -->
<g id="edge2" class="edge"><title>Node1&#45;&gt;Node2</title>
<path fill="none" stroke="midnightblue" d="M179.727,-17C188.391,-17 197.217,-17 205.973,-17"/>
<polygon fill="midnightblue" stroke="midnightblue" points="206.205,-20.5001 216.205,-17 206.205,-13.5001 206.205,-20.5001"/>
</g>
<!-- Node3 -->
<g id="node5" class="node"><title>Node3</title>
<a xlink:href="../../d1/dc6/a00037.htm#a5787f1e254c47dda5783aff04de599fd" target="_top" xlink:title="returns the hash of a string ">
<polygon fill="none" stroke="black" points="432,-0 432,-34 580,-34 580,-0 432,-0"/>
<text text-anchor="start" x="440" y="-21.9" font-family="Helvetica,sans-Serif" font-size="9.00">de.tu_clausthal.in.mec.common.</text>
<text text-anchor="middle" x="506" y="-8.9" font-family="Helvetica,sans-Serif" font-size="9.00">CCommon.getHash</text>
</a>
</g>
<!-- Node2&#45;&gt;Node3 -->
<g id="edge4" class="edge"><title>Node2&#45;&gt;Node3</title>
<path fill="none" stroke="midnightblue" d="M395.762,-17C404.42,-17 413.182,-17 421.783,-17"/>
<polygon fill="midnightblue" stroke="midnightblue" points="421.792,-20.5001 431.792,-17 421.792,-13.5001 421.792,-20.5001"/>
</g>
<!-- Node4 -->
<g id="node7" class="node"><title>Node4</title>
<a xlink:href="../../d1/dc6/a00037.htm#a7fac266bb9fa6b3a8d739a88a41dade8" target="_top" xlink:title="returns a string with hexadecimal bytes ">
<polygon fill="none" stroke="black" points="616,-0 616,-34 764,-34 764,-0 616,-0"/>
<text text-anchor="start" x="624" y="-21.9" font-family="Helvetica,sans-Serif" font-size="9.00">de.tu_clausthal.in.mec.common.</text>
<text text-anchor="middle" x="690" y="-8.9" font-family="Helvetica,sans-Serif" font-size="9.00">CCommon.getBytes2Hex</text>
</a>
</g>
<!-- Node3&#45;&gt;Node4 -->
<g id="edge6" class="edge"><title>Node3&#45;&gt;Node4</title>
<path fill="none" stroke="midnightblue" d="M580.044,-17C588.514,-17 597.195,-17 605.784,-17"/>
<polygon fill="midnightblue" stroke="midnightblue" points="605.808,-20.5001 615.808,-17 605.807,-13.5001 605.808,-20.5001"/>
</g>
</g>
</svg>
