<?xml version="1.0" encoding="UTF-8" standalone="no"?>
<!DOCTYPE svg PUBLIC "-//W3C//DTD SVG 1.1//EN"
 "http://www.w3.org/Graphics/SVG/1.1/DTD/svg11.dtd">
<!-- Generated by graphviz version 2.26.3 (20100126.1600)
 -->
<!-- Title: de.tu_clausthal.in.mec.object.car.graph.CGraphHopper.CGraphHopper Pages: 1 -->
<svg width="780pt" height="146pt"
 viewBox="0.00 0.00 780.00 146.00" xmlns="http://www.w3.org/2000/svg" xmlns:xlink="http://www.w3.org/1999/xlink">
<g id="graph1" class="graph" transform="scale(1 1) rotate(0) translate(4 142)">
<title>de.tu_clausthal.in.mec.object.car.graph.CGraphHopper.CGraphHopper</title>
<!-- Node1 -->
<g id="node1" class="node"><title>Node1</title>
<polygon fill="#bfbfbf" stroke="black" points="0.5,-52 0.5,-86 179.5,-86 179.5,-52 0.5,-52"/>
<text text-anchor="start" x="8.5" y="-73.9" font-family="Helvetica,sans-Serif" font-size="9.00">de.tu_clausthal.in.mec.object.car.graph.</text>
<text text-anchor="middle" x="90" y="-60.9" font-family="Helvetica,sans-Serif" font-size="9.00">CGraphHopper.CGraphHopper</text>
</g>
<!-- Node2 -->
<g id="node3" class="node"><title>Node2</title>
<a xlink:href="../../dc/dee/a00053.htm#a27dc64f80edc1b17714a363cdd79e62b" target="_top" xlink:title="gets the current graph with its download URL from the configuration ">
<polygon fill="none" stroke="black" points="220.5,-104 220.5,-138 399.5,-138 399.5,-104 220.5,-104"/>
<text text-anchor="start" x="228.5" y="-125.9" font-family="Helvetica,sans-Serif" font-size="9.00">de.tu_clausthal.in.mec.object.car.graph.</text>
<text text-anchor="middle" x="310" y="-112.9" font-family="Helvetica,sans-Serif" font-size="9.00">CGraphHopper.getCurrentGraph</text>
</a>
</g>
<!-- Node1&#45;&gt;Node2 -->
<g id="edge2" class="edge"><title>Node1&#45;&gt;Node2</title>
<path fill="none" stroke="midnightblue" d="M162.036,-86.0267C183.119,-91.0098 206.321,-96.4942 227.975,-101.612"/>
<polygon fill="midnightblue" stroke="midnightblue" points="227.265,-105.041 237.802,-103.935 228.875,-98.2285 227.265,-105.041"/>
</g>
<!-- Node3 -->
<g id="node5" class="node"><title>Node3</title>
<a xlink:href="../../dc/dee/a00053.htm#a7e7939418c529551a915e16806f3035c" target="_top" xlink:title="returns the full path of a graph location ">
<polygon fill="none" stroke="black" points="220.5,-52 220.5,-86 399.5,-86 399.5,-52 220.5,-52"/>
<text text-anchor="start" x="228.5" y="-73.9" font-family="Helvetica,sans-Serif" font-size="9.00">de.tu_clausthal.in.mec.object.car.graph.</text>
<text text-anchor="middle" x="310" y="-60.9" font-family="Helvetica,sans-Serif" font-size="9.00">CGraphHopper.getGraphLocation</text>
</a>
</g>
<!-- Node1&#45;&gt;Node3 -->
<g id="edge4" class="edge"><title>Node1&#45;&gt;Node3</title>
<path fill="none" stroke="midnightblue" d="M179.8,-69C189.869,-69 200.172,-69 210.356,-69"/>
<polygon fill="midnightblue" stroke="midnightblue" points="210.487,-72.5001 220.487,-69 210.487,-65.5001 210.487,-72.5001"/>
</g>
<!-- Node6 -->
<g id="node11" class="node"><title>Node6</title>
<a xlink:href="../../db/d3a/a00040.htm#a5fc1c2b2396e46e44cbc25c907f2c452" target="_top" xlink:title="singleton get instance method ">
<polygon fill="none" stroke="black" points="216,-0 216,-34 404,-34 404,-0 216,-0"/>
<text text-anchor="start" x="224" y="-21.9" font-family="Helvetica,sans-Serif" font-size="9.00">de.tu_clausthal.in.mec.CConfiguration.get</text>
<text text-anchor="middle" x="310" y="-8.9" font-family="Helvetica,sans-Serif" font-size="9.00">Instance</text>
</a>
</g>
<!-- Node1&#45;&gt;Node6 -->
<g id="edge10" class="edge"><title>Node1&#45;&gt;Node6</title>
<path fill="none" stroke="midnightblue" d="M162.036,-51.9733C183.119,-46.9902 206.321,-41.5058 227.975,-36.3877"/>
<polygon fill="midnightblue" stroke="midnightblue" points="228.875,-39.7715 237.802,-34.065 227.265,-32.9592 228.875,-39.7715"/>
</g>
<!-- Node4 -->
<g id="node7" class="node"><title>Node4</title>
<a xlink:href="../../d1/dc6/a00037.htm#a5787f1e254c47dda5783aff04de599fd" target="_top" xlink:title="returns the hash of a string ">
<polygon fill="none" stroke="black" points="440,-52 440,-86 588,-86 588,-52 440,-52"/>
<text text-anchor="start" x="448" y="-73.9" font-family="Helvetica,sans-Serif" font-size="9.00">de.tu_clausthal.in.mec.common.</text>
<text text-anchor="middle" x="514" y="-60.9" font-family="Helvetica,sans-Serif" font-size="9.00">CCommon.getHash</text>
</a>
</g>
<!-- Node3&#45;&gt;Node4 -->
<g id="edge6" class="edge"><title>Node3&#45;&gt;Node4</title>
<path fill="none" stroke="midnightblue" d="M399.774,-69C409.691,-69 419.765,-69 429.613,-69"/>
<polygon fill="midnightblue" stroke="midnightblue" points="429.777,-72.5001 439.777,-69 429.777,-65.5001 429.777,-72.5001"/>
</g>
<!-- Node5 -->
<g id="node9" class="node"><title>Node5</title>
<a xlink:href="../../d1/dc6/a00037.htm#a7fac266bb9fa6b3a8d739a88a41dade8" target="_top" xlink:title="returns a string with hexadecimal bytes ">
<polygon fill="none" stroke="black" points="624,-52 624,-86 772,-86 772,-52 624,-52"/>
<text text-anchor="start" x="632" y="-73.9" font-family="Helvetica,sans-Serif" font-size="9.00">de.tu_clausthal.in.mec.common.</text>
<text text-anchor="middle" x="698" y="-60.9" font-family="Helvetica,sans-Serif" font-size="9.00">CCommon.getBytes2Hex</text>
</a>
</g>
<!-- Node4&#45;&gt;Node5 -->
<g id="edge8" class="edge"><title>Node4&#45;&gt;Node5</title>
<path fill="none" stroke="midnightblue" d="M588.044,-69C596.514,-69 605.195,-69 613.784,-69"/>
<polygon fill="midnightblue" stroke="midnightblue" points="613.808,-72.5001 623.808,-69 613.807,-65.5001 613.808,-72.5001"/>
</g>
</g>
</svg>
