<?xml version="1.0" encoding="UTF-8" standalone="no"?>
<!DOCTYPE svg PUBLIC "-//W3C//DTD SVG 1.1//EN"
 "http://www.w3.org/Graphics/SVG/1.1/DTD/svg11.dtd">
<!-- Generated by graphviz version 2.26.3 (20100126.1600)
 -->
<!-- Title: de.tu_clausthal.in.mec.object.mas.jason.CAgent&lt; T &gt;.CJasonArchitecture.broadcast Pages: 1 -->
<svg width="570pt" height="94pt"
 viewBox="0.00 0.00 570.00 94.00" xmlns="http://www.w3.org/2000/svg" xmlns:xlink="http://www.w3.org/1999/xlink">
<g id="graph1" class="graph" transform="scale(1 1) rotate(0) translate(4 90)">
<title>de.tu_clausthal.in.mec.object.mas.jason.CAgent&lt; T &gt;.CJasonArchitecture.broadcast</title>
<!-- Node1 -->
<g id="node1" class="node"><title>Node1</title>
<polygon fill="#bfbfbf" stroke="black" points="0.5,-26 0.5,-60 193.5,-60 193.5,-26 0.5,-26"/>
<text text-anchor="start" x="8.5" y="-47.9" font-family="Helvetica,sans-Serif" font-size="9.00">de.tu_clausthal.in.mec.object.mas.jason.</text>
<text text-anchor="middle" x="97" y="-34.9" font-family="Helvetica,sans-Serif" font-size="9.00">CAgent&lt; T &gt;.CJasonArchitecture.broadcast</text>
</g>
<!-- Node2 -->
<g id="node3" class="node"><title>Node2</title>
<a xlink:href="../../dc/d54/a00094.htm#aa2754dd522271a7eef34bf54f63c26d2" target="_top" xlink:title="remove the suffix from the path ">
<polygon fill="none" stroke="black" points="230,-52 230,-86 378,-86 378,-52 230,-52"/>
<text text-anchor="start" x="238" y="-73.9" font-family="Helvetica,sans-Serif" font-size="9.00">de.tu_clausthal.in.mec.common.</text>
<text text-anchor="middle" x="304" y="-60.9" font-family="Helvetica,sans-Serif" font-size="9.00">CPath.removeSuffix</text>
</a>
</g>
<!-- Node1&#45;&gt;Node2 -->
<g id="edge2" class="edge"><title>Node1&#45;&gt;Node2</title>
<path fill="none" stroke="midnightblue" d="M193.531,-55.1246C202.318,-56.2284 211.174,-57.3406 219.841,-58.4293"/>
<polygon fill="midnightblue" stroke="midnightblue" points="219.556,-61.921 229.915,-59.6946 220.429,-54.9755 219.556,-61.921"/>
</g>
<!-- Node4 -->
<g id="node7" class="node"><title>Node4</title>
<a xlink:href="../../dc/d54/a00094.htm#a0b3aaaf4c6a7a0db70c11bc25ce949a4" target="_top" xlink:title="returns the number of path elements ">
<polygon fill="none" stroke="black" points="230,-0 230,-34 378,-34 378,-0 230,-0"/>
<text text-anchor="start" x="238" y="-21.9" font-family="Helvetica,sans-Serif" font-size="9.00">de.tu_clausthal.in.mec.common.</text>
<text text-anchor="middle" x="304" y="-8.9" font-family="Helvetica,sans-Serif" font-size="9.00">CPath.size</text>
</a>
</g>
<!-- Node1&#45;&gt;Node4 -->
<g id="edge6" class="edge"><title>Node1&#45;&gt;Node4</title>
<path fill="none" stroke="midnightblue" d="M193.531,-30.8754C202.318,-29.7716 211.174,-28.6594 219.841,-27.5707"/>
<polygon fill="midnightblue" stroke="midnightblue" points="220.429,-31.0245 229.915,-26.3054 219.556,-24.079 220.429,-31.0245"/>
</g>
<!-- Node3 -->
<g id="node5" class="node"><title>Node3</title>
<a xlink:href="../../dc/d54/a00094.htm#a4aa59b201e56cd0f80d5ab081b57517c" target="_top" xlink:title="check if the path is empty ">
<polygon fill="none" stroke="black" points="414,-52 414,-86 562,-86 562,-52 414,-52"/>
<text text-anchor="start" x="422" y="-73.9" font-family="Helvetica,sans-Serif" font-size="9.00">de.tu_clausthal.in.mec.common.</text>
<text text-anchor="middle" x="488" y="-60.9" font-family="Helvetica,sans-Serif" font-size="9.00">CPath.isEmpty</text>
</a>
</g>
<!-- Node2&#45;&gt;Node3 -->
<g id="edge4" class="edge"><title>Node2&#45;&gt;Node3</title>
<path fill="none" stroke="midnightblue" d="M378.044,-69C386.514,-69 395.195,-69 403.784,-69"/>
<polygon fill="midnightblue" stroke="midnightblue" points="403.808,-72.5001 413.808,-69 403.807,-65.5001 403.808,-72.5001"/>
</g>
</g>
</svg>
