<?xml version="1.0" encoding="UTF-8" standalone="no"?>
<!DOCTYPE svg PUBLIC "-//W3C//DTD SVG 1.1//EN"
 "http://www.w3.org/Graphics/SVG/1.1/DTD/svg11.dtd">
<!-- Generated by graphviz version 2.26.3 (20100126.1600)
 -->
<!-- Title: de.tu_clausthal.in.mec.object.mas.generic.implementation.CTermSet Pages: 1 -->
<svg width="367pt" height="344pt"
 viewBox="0.00 0.00 367.00 344.00" xmlns="http://www.w3.org/2000/svg" xmlns:xlink="http://www.w3.org/1999/xlink">
<g id="graph1" class="graph" transform="scale(1 1) rotate(0) translate(4 340)">
<title>de.tu_clausthal.in.mec.object.mas.generic.implementation.CTermSet</title>
<!-- Node1 -->
<g id="node1" class="node"><title>Node1</title>
<polygon fill="#bfbfbf" stroke="black" points="-0.5,-1 -0.5,-103 254.5,-103 254.5,-1 -0.5,-1"/>
<text text-anchor="start" x="7.5" y="-90.9" font-family="Helvetica,sans-Serif" font-size="9.00">de.tu_clausthal.in.mec.object.mas.generic.implementation.</text>
<text text-anchor="middle" x="127" y="-77.9" font-family="Helvetica,sans-Serif" font-size="9.00">CTermSet</text>
<polyline fill="none" stroke="black" points="-0.5,-69 254.5,-69 "/>
<text text-anchor="middle" x="127" y="-56.9" font-family="Helvetica,sans-Serif" font-size="9.00"> </text>
<polyline fill="none" stroke="black" points="-0.5,-48 254.5,-48 "/>
<text text-anchor="start" x="7.5" y="-35.9" font-family="Helvetica,sans-Serif" font-size="9.00">+ CTermSet()</text>
<text text-anchor="start" x="7.5" y="-22.9" font-family="Helvetica,sans-Serif" font-size="9.00">+ CTermSet()</text>
<text text-anchor="start" x="7.5" y="-9.9" font-family="Helvetica,sans-Serif" font-size="9.00">+ instanceOf()</text>
</g>
<!-- Node1&#45;&gt;Node1 -->
<g id="edge6" class="edge"><title>Node1&#45;&gt;Node1</title>
<path fill="none" stroke="#404040" d="M254.735,-62.1442C265.379,-59.9615 272,-56.5801 272,-52 272,-49.4953 270.02,-47.349 266.484,-45.5613"/>
<polygon fill="none" stroke="#404040" points="266.18,-45.4653 259.254,-47.4753 254.735,-41.8558 261.661,-39.8458 266.18,-45.4653"/>
<text text-anchor="middle" x="315.5" y="-50.4" font-family="Helvetica,sans-Serif" font-size="9.00"> +EMPTY_TERMSET</text>
</g>
<!-- Node2 -->
<g id="node2" class="node"><title>Node2</title>
<a xlink:href="../../dd/da2/a00192.htm" target="_top" xlink:title="interface for term collection ">
<polygon fill="none" stroke="black" points="32,-143 32,-219 222,-219 222,-143 32,-143"/>
<text text-anchor="start" x="40" y="-206.9" font-family="Helvetica,sans-Serif" font-size="9.00">de.tu_clausthal.in.mec.object.mas.generic.</text>
<text text-anchor="middle" x="127" y="-193.9" font-family="Helvetica,sans-Serif" font-size="9.00">ITermCollection</text>
<polyline fill="none" stroke="black" points="32,-185 222,-185 "/>
<text text-anchor="middle" x="127" y="-172.9" font-family="Helvetica,sans-Serif" font-size="9.00"> </text>
<polyline fill="none" stroke="black" points="32,-164 222,-164 "/>
<text text-anchor="middle" x="127" y="-151.9" font-family="Helvetica,sans-Serif" font-size="9.00"> </text>
</a>
</g>
<!-- Node2&#45;&gt;Node1 -->
<g id="edge2" class="edge"><title>Node2&#45;&gt;Node1</title>
<path fill="none" stroke="midnightblue" d="M127,-132.749C127,-123.079 127,-112.887 127,-103.123"/>
<polygon fill="none" stroke="midnightblue" points="123.5,-132.993 127,-142.993 130.5,-132.993 123.5,-132.993"/>
</g>
<!-- Node3 -->
<g id="node4" class="node"><title>Node3</title>
<a xlink:href="../../d9/dd0/a00191.htm" target="_top" xlink:title="term interface ">
<polygon fill="none" stroke="black" points="32,-259 32,-335 222,-335 222,-259 32,-259"/>
<text text-anchor="start" x="40" y="-322.9" font-family="Helvetica,sans-Serif" font-size="9.00">de.tu_clausthal.in.mec.object.mas.generic.</text>
<text text-anchor="middle" x="127" y="-309.9" font-family="Helvetica,sans-Serif" font-size="9.00">ITerm</text>
<polyline fill="none" stroke="black" points="32,-301 222,-301 "/>
<text text-anchor="middle" x="127" y="-288.9" font-family="Helvetica,sans-Serif" font-size="9.00"> </text>
<polyline fill="none" stroke="black" points="32,-280 222,-280 "/>
<text text-anchor="start" x="40" y="-267.9" font-family="Helvetica,sans-Serif" font-size="9.00">+ instanceOf()</text>
</a>
</g>
<!-- Node3&#45;&gt;Node2 -->
<g id="edge4" class="edge"><title>Node3&#45;&gt;Node2</title>
<path fill="none" stroke="midnightblue" d="M127,-248.661C127,-238.853 127,-228.666 127,-219.264"/>
<polygon fill="none" stroke="midnightblue" points="123.5,-248.696 127,-258.696 130.5,-248.696 123.5,-248.696"/>
</g>
</g>
</svg>
