<?xml version="1.0" encoding="UTF-8" standalone="no"?>
<!DOCTYPE svg PUBLIC "-//W3C//DTD SVG 1.1//EN"
 "http://www.w3.org/Graphics/SVG/1.1/DTD/svg11.dtd">
<!-- Generated by graphviz version 2.26.3 (20100126.1600)
 -->
<!-- Title: de.tu_clausthal.in.mec.object.mas.jason.IEnvironment&lt; T &gt; Pages: 1 -->
<svg width="348pt" height="460pt"
 viewBox="0.00 0.00 348.00 460.00" xmlns="http://www.w3.org/2000/svg" xmlns:xlink="http://www.w3.org/1999/xlink">
<g id="graph1" class="graph" transform="scale(1 1) rotate(0) translate(4 456)">
<title>de.tu_clausthal.in.mec.object.mas.jason.IEnvironment&lt; T &gt;</title>
<!-- Node1 -->
<g id="node1" class="node"><title>Node1</title>
<polygon fill="#bfbfbf" stroke="black" points="89,-0.5 89,-167.5 271,-167.5 271,-0.5 89,-0.5"/>
<text text-anchor="start" x="97" y="-155.4" font-family="Helvetica,sans-Serif" font-size="9.00">de.tu_clausthal.in.mec.object.mas.jason.</text>
<text text-anchor="middle" x="180" y="-142.4" font-family="Helvetica,sans-Serif" font-size="9.00">IEnvironment&lt; T &gt;</text>
<polyline fill="none" stroke="black" points="89,-133.5 271,-133.5 "/>
<text text-anchor="start" x="97" y="-121.4" font-family="Helvetica,sans-Serif" font-size="9.00">+ INTERNALACTION</text>
<text text-anchor="start" x="97" y="-108.4" font-family="Helvetica,sans-Serif" font-size="9.00">&#45; c_filesuffix</text>
<polyline fill="none" stroke="black" points="89,-99.5 271,-99.5 "/>
<text text-anchor="start" x="97" y="-87.4" font-family="Helvetica,sans-Serif" font-size="9.00">+ onSimulationReset()</text>
<text text-anchor="start" x="97" y="-74.4" font-family="Helvetica,sans-Serif" font-size="9.00">+ release()</text>
<text text-anchor="start" x="97" y="-61.4" font-family="Helvetica,sans-Serif" font-size="9.00">+ step()</text>
<text text-anchor="start" x="97" y="-48.4" font-family="Helvetica,sans-Serif" font-size="9.00">+ checkAgentFileSyntax()</text>
<text text-anchor="start" x="97" y="-35.4" font-family="Helvetica,sans-Serif" font-size="9.00">+ createAgentFile()</text>
<text text-anchor="start" x="97" y="-22.4" font-family="Helvetica,sans-Serif" font-size="9.00">+ getAgentFile()</text>
<text text-anchor="start" x="97" y="-9.4" font-family="Helvetica,sans-Serif" font-size="9.00">+ getAgentFiles()</text>
</g>
<!-- Node2 -->
<g id="node2" class="node"><title>Node2</title>
<a xlink:href="../../da/d45/a00011.htm" target="_top" xlink:title="Jason agent template factory. ">
<polygon fill="none" stroke="black" points="0,-290.5 0,-379.5 182,-379.5 182,-290.5 0,-290.5"/>
<text text-anchor="start" x="8" y="-367.4" font-family="Helvetica,sans-Serif" font-size="9.00">de.tu_clausthal.in.mec.object.mas.jason.</text>
<text text-anchor="middle" x="91" y="-354.4" font-family="Helvetica,sans-Serif" font-size="9.00">CAgentTemplateFactory</text>
<polyline fill="none" stroke="black" points="0,-345.5 182,-345.5 "/>
<text text-anchor="middle" x="91" y="-333.4" font-family="Helvetica,sans-Serif" font-size="9.00"> </text>
<polyline fill="none" stroke="black" points="0,-324.5 182,-324.5 "/>
<text text-anchor="start" x="8" y="-312.4" font-family="Helvetica,sans-Serif" font-size="9.00"># clone()</text>
<text text-anchor="start" x="8" y="-299.4" font-family="Helvetica,sans-Serif" font-size="9.00"># create()</text>
</a>
</g>
<!-- Node2&#45;&gt;Node1 -->
<g id="edge2" class="edge"><title>Node2&#45;&gt;Node1</title>
<path fill="none" stroke="#404040" d="M95.2397,-290.202C99.0972,-260.02 106.217,-219.718 119,-186 119.9,-183.626 120.854,-181.245 121.856,-178.862"/>
<polygon fill="none" stroke="#404040" points="121.941,-178.672 120.752,-171.559 126.859,-167.725 128.049,-174.838 121.941,-178.672"/>
<text text-anchor="middle" x="183.5" y="-191.4" font-family="Helvetica,sans-Serif" font-size="9.00"> +AGENTTEMPLATEFACTORY</text>
</g>
<!-- Node3 -->
<g id="node4" class="node"><title>Node3</title>
<a xlink:href="../../d3/d52/a00023.htm" target="_top" xlink:title="create a plain browser component to show any URL ">
<polygon fill="none" stroke="black" points="200,-219 200,-451 340,-451 340,-219 200,-219"/>
<text text-anchor="start" x="208" y="-438.9" font-family="Helvetica,sans-Serif" font-size="9.00">de.tu_clausthal.in.mec.ui.web.</text>
<text text-anchor="middle" x="270" y="-425.9" font-family="Helvetica,sans-Serif" font-size="9.00">CBrowser</text>
<polyline fill="none" stroke="black" points="200,-417 340,-417 "/>
<text text-anchor="start" x="208" y="-404.9" font-family="Helvetica,sans-Serif" font-size="9.00">&#45; m_webview</text>
<text text-anchor="start" x="208" y="-391.9" font-family="Helvetica,sans-Serif" font-size="9.00">&#45; c_http</text>
<text text-anchor="start" x="208" y="-378.9" font-family="Helvetica,sans-Serif" font-size="9.00">&#45; c_https</text>
<polyline fill="none" stroke="black" points="200,-370 340,-370 "/>
<text text-anchor="start" x="208" y="-357.9" font-family="Helvetica,sans-Serif" font-size="9.00">+ CBrowser()</text>
<text text-anchor="start" x="208" y="-344.9" font-family="Helvetica,sans-Serif" font-size="9.00">+ CBrowser()</text>
<text text-anchor="start" x="208" y="-331.9" font-family="Helvetica,sans-Serif" font-size="9.00">+ CBrowser()</text>
<text text-anchor="start" x="208" y="-318.9" font-family="Helvetica,sans-Serif" font-size="9.00">+ back()</text>
<text text-anchor="start" x="208" y="-305.9" font-family="Helvetica,sans-Serif" font-size="9.00">+ forward()</text>
<text text-anchor="start" x="208" y="-292.9" font-family="Helvetica,sans-Serif" font-size="9.00">+ getURL()</text>
<text text-anchor="start" x="208" y="-279.9" font-family="Helvetica,sans-Serif" font-size="9.00">+ load()</text>
<text text-anchor="start" x="208" y="-266.9" font-family="Helvetica,sans-Serif" font-size="9.00">+ reload()</text>
<text text-anchor="start" x="208" y="-253.9" font-family="Helvetica,sans-Serif" font-size="9.00">&#45; setBackForward()</text>
<text text-anchor="start" x="208" y="-240.9" font-family="Helvetica,sans-Serif" font-size="9.00">&#45; setMenuBar()</text>
<text text-anchor="start" x="208" y="-227.9" font-family="Helvetica,sans-Serif" font-size="9.00">&#45; setURLMenu()</text>
</a>
</g>
<!-- Node3&#45;&gt;Node1 -->
<g id="edge4" class="edge"><title>Node3&#45;&gt;Node1</title>
<path fill="none" stroke="#404040" d="M258.039,-218.993C255.34,-207.666 252.038,-196.494 248,-186 247.038,-183.498 246.005,-180.996 244.912,-178.499"/>
<polygon fill="none" stroke="#404040" points="244.89,-178.453 238.709,-174.74 239.76,-167.605 245.941,-171.319 244.89,-178.453"/>
<text text-anchor="middle" x="290" y="-191.4" font-family="Helvetica,sans-Serif" font-size="9.00"> &#45;m_mindinspector</text>
</g>
</g>
</svg>
