<?xml version="1.0" encoding="UTF-8" standalone="no"?>
<!DOCTYPE svg PUBLIC "-//W3C//DTD SVG 1.1//EN"
 "http://www.w3.org/Graphics/SVG/1.1/DTD/svg11.dtd">
<!-- Generated by graphviz version 2.26.3 (20100126.1600)
 -->
<!-- Title: de.tu_clausthal.in.mec.object.mas.jason.IEnvironment&lt; T &gt; Pages: 1 -->
<!--zoomable 460 -->
<svg id="main" version="1.1" xmlns="http://www.w3.org/2000/svg" xmlns:xlink="http://www.w3.org/1999/xlink" xml:space="preserve" onload="init(evt)">
<style type="text/css"><![CDATA[
.edge:hover path { stroke: red; }
.edge:hover polygon { stroke: red; fill: red; }
]]></style>
<script type="text/javascript"><![CDATA[
var edges = document.getElementsByTagName('g');
if (edges && edges.length) {
  for (var i=0;i<edges.length;i++) {
    if (edges[i].id.substr(0,4)=='edge') {
      edges[i].setAttribute('class','edge');
    }
  }
}
]]></script>
        <defs>
                <circle id="rim" cx="0" cy="0" r="7"/>
                <circle id="rim2" cx="0" cy="0" r="3.5"/>
                <g id="zoomPlus">
                        <use xlink:href="#rim" fill="#404040">
                                <set attributeName="fill" to="#808080" begin="zoomplus.mouseover" end="zoomplus.mouseout"/>
                        </use>
                        <path d="M-4,0h8M0,-4v8" fill="none" stroke="white" stroke-width="1.5" pointer-events="none"/>
                </g>
                <g id="zoomMin">
                        <use xlink:href="#rim" fill="#404040">
                                <set attributeName="fill" to="#808080" begin="zoomminus.mouseover" end="zoomminus.mouseout"/>
                        </use>
                        <path d="M-4,0h8" fill="none" stroke="white" stroke-width="1.5" pointer-events="none"/>
                </g>
                <g id="dirArrow">
                        <path fill="none" stroke="white" stroke-width="1.5" d="M0,-3.0v7 M-2.5,-0.5L0,-3.0L2.5,-0.5"/>
                </g>
               <g id="resetDef">
                       <use xlink:href="#rim2" fill="#404040">
                               <set attributeName="fill" to="#808080" begin="reset.mouseover" end="reset.mouseout"/>
                       </use>
               </g>
        </defs>

<script type="text/javascript">
var viewWidth = 348;
var viewHeight = 460;
var sectionId = 'dynsection-0';
</script>
<script xlink:href="../../svgpan.js"/>
<svg id="graph" class="graph">
<g id="viewport">
<title>de.tu_clausthal.in.mec.object.mas.jason.IEnvironment&lt; T &gt;</title>
<!-- Node1 -->
<g id="node1" class="node"><title>Node1</title>
<polygon fill="#bfbfbf" stroke="black" points="89,-0.5 89,-167.5 271,-167.5 271,-0.5 89,-0.5"/>
<text text-anchor="start" x="97" y="-155.4" font-family="Helvetica,sans-Serif" font-size="9.00">de.tu_clausthal.in.mec.object.mas.jason.</text>
<text text-anchor="middle" x="180" y="-142.4" font-family="Helvetica,sans-Serif" font-size="9.00">IEnvironment&lt; T &gt;</text>
<polyline fill="none" stroke="black" points="89,-133.5 271,-133.5 "/>
<text text-anchor="start" x="97" y="-121.4" font-family="Helvetica,sans-Serif" font-size="9.00">+ INTERNALACTION</text>
<text text-anchor="start" x="97" y="-108.4" font-family="Helvetica,sans-Serif" font-size="9.00">&#45; c_filesuffix</text>
<polyline fill="none" stroke="black" points="89,-99.5 271,-99.5 "/>
<text text-anchor="start" x="97" y="-87.4" font-family="Helvetica,sans-Serif" font-size="9.00">+ onSimulationReset()</text>
<text text-anchor="start" x="97" y="-74.4" font-family="Helvetica,sans-Serif" font-size="9.00">+ release()</text>
<text text-anchor="start" x="97" y="-61.4" font-family="Helvetica,sans-Serif" font-size="9.00">+ step()</text>
<text text-anchor="start" x="97" y="-48.4" font-family="Helvetica,sans-Serif" font-size="9.00">+ checkAgentFileSyntax()</text>
<text text-anchor="start" x="97" y="-35.4" font-family="Helvetica,sans-Serif" font-size="9.00">+ createAgentFile()</text>
<text text-anchor="start" x="97" y="-22.4" font-family="Helvetica,sans-Serif" font-size="9.00">+ getAgentFile()</text>
<text text-anchor="start" x="97" y="-9.4" font-family="Helvetica,sans-Serif" font-size="9.00">+ getAgentFiles()</text>
</g>
<!-- Node2 -->
<g id="node2" class="node"><title>Node2</title>
<a xlink:href="../../da/d45/a00011.htm" target="_top" xlink:title="Jason agent template factory. ">
<polygon fill="none" stroke="black" points="0,-290.5 0,-379.5 182,-379.5 182,-290.5 0,-290.5"/>
<text text-anchor="start" x="8" y="-367.4" font-family="Helvetica,sans-Serif" font-size="9.00">de.tu_clausthal.in.mec.object.mas.jason.</text>
<text text-anchor="middle" x="91" y="-354.4" font-family="Helvetica,sans-Serif" font-size="9.00">CAgentTemplateFactory</text>
<polyline fill="none" stroke="black" points="0,-345.5 182,-345.5 "/>
<text text-anchor="middle" x="91" y="-333.4" font-family="Helvetica,sans-Serif" font-size="9.00"> </text>
<polyline fill="none" stroke="black" points="0,-324.5 182,-324.5 "/>
<text text-anchor="start" x="8" y="-312.4" font-family="Helvetica,sans-Serif" font-size="9.00"># clone()</text>
<text text-anchor="start" x="8" y="-299.4" font-family="Helvetica,sans-Serif" font-size="9.00"># create()</text>
</a>
</g>
<!-- Node2&#45;&gt;Node1 -->
<g id="edge2" class="edge"><title>Node2&#45;&gt;Node1</title>
<path fill="none" stroke="#404040" d="M95.2397,-290.202C99.0972,-260.02 106.217,-219.718 119,-186 119.9,-183.626 120.854,-181.245 121.856,-178.862"/>
<polygon fill="none" stroke="#404040" points="121.941,-178.672 120.752,-171.559 126.859,-167.725 128.049,-174.838 121.941,-178.672"/>
<text text-anchor="middle" x="183.5" y="-191.4" font-family="Helvetica,sans-Serif" font-size="9.00"> +AGENTTEMPLATEFACTORY</text>
</g>
<!-- Node3 -->
<g id="node4" class="node"><title>Node3</title>
<a xlink:href="../../d3/d52/a00023.htm" target="_top" xlink:title="create a plain browser component to show any URL ">
<polygon fill="none" stroke="black" points="200,-219 200,-451 340,-451 340,-219 200,-219"/>
<text text-anchor="start" x="208" y="-438.9" font-family="Helvetica,sans-Serif" font-size="9.00">de.tu_clausthal.in.mec.ui.web.</text>
<text text-anchor="middle" x="270" y="-425.9" font-family="Helvetica,sans-Serif" font-size="9.00">CBrowser</text>
<polyline fill="none" stroke="black" points="200,-417 340,-417 "/>
<text text-anchor="start" x="208" y="-404.9" font-family="Helvetica,sans-Serif" font-size="9.00">&#45; m_webview</text>
<text text-anchor="start" x="208" y="-391.9" font-family="Helvetica,sans-Serif" font-size="9.00">&#45; c_http</text>
<text text-anchor="start" x="208" y="-378.9" font-family="Helvetica,sans-Serif" font-size="9.00">&#45; c_https</text>
<polyline fill="none" stroke="black" points="200,-370 340,-370 "/>
<text text-anchor="start" x="208" y="-357.9" font-family="Helvetica,sans-Serif" font-size="9.00">+ CBrowser()</text>
<text text-anchor="start" x="208" y="-344.9" font-family="Helvetica,sans-Serif" font-size="9.00">+ CBrowser()</text>
<text text-anchor="start" x="208" y="-331.9" font-family="Helvetica,sans-Serif" font-size="9.00">+ CBrowser()</text>
<text text-anchor="start" x="208" y="-318.9" font-family="Helvetica,sans-Serif" font-size="9.00">+ back()</text>
<text text-anchor="start" x="208" y="-305.9" font-family="Helvetica,sans-Serif" font-size="9.00">+ forward()</text>
<text text-anchor="start" x="208" y="-292.9" font-family="Helvetica,sans-Serif" font-size="9.00">+ getURL()</text>
<text text-anchor="start" x="208" y="-279.9" font-family="Helvetica,sans-Serif" font-size="9.00">+ load()</text>
<text text-anchor="start" x="208" y="-266.9" font-family="Helvetica,sans-Serif" font-size="9.00">+ reload()</text>
<text text-anchor="start" x="208" y="-253.9" font-family="Helvetica,sans-Serif" font-size="9.00">&#45; setBackForward()</text>
<text text-anchor="start" x="208" y="-240.9" font-family="Helvetica,sans-Serif" font-size="9.00">&#45; setMenuBar()</text>
<text text-anchor="start" x="208" y="-227.9" font-family="Helvetica,sans-Serif" font-size="9.00">&#45; setURLMenu()</text>
</a>
</g>
<!-- Node3&#45;&gt;Node1 -->
<g id="edge4" class="edge"><title>Node3&#45;&gt;Node1</title>
<path fill="none" stroke="#404040" d="M258.039,-218.993C255.34,-207.666 252.038,-196.494 248,-186 247.038,-183.498 246.005,-180.996 244.912,-178.499"/>
<polygon fill="none" stroke="#404040" points="244.89,-178.453 238.709,-174.74 239.76,-167.605 245.941,-171.319 244.89,-178.453"/>
<text text-anchor="middle" x="290" y="-191.4" font-family="Helvetica,sans-Serif" font-size="9.00"> &#45;m_mindinspector</text>
</g>
</g>
</svg>
        <g id="navigator" transform="translate(0 0)" fill="#404254">
                <rect fill="#f2f5e9" fill-opacity="0.5" stroke="#606060" stroke-width=".5" x="0" y="0" width="60" height="60"/>
                <use id="zoomplus" xlink:href="#zoomPlus" x="17" y="9" onmousedown="handleZoom(evt,'in')"/>
                <use id="zoomminus" xlink:href="#zoomMin" x="42" y="9" onmousedown="handleZoom(evt,'out')"/>
                <use id="reset" xlink:href="#resetDef" x="30" y="36" onmousedown="handleReset()"/>
                <g id="arrowUp" xlink:href="#dirArrow" transform="translate(30 24)" onmousedown="handlePan(0,-1)">
                  <use xlink:href="#rim" fill="#404040">
                        <set attributeName="fill" to="#808080" begin="arrowUp.mouseover" end="arrowUp.mouseout"/>
                  </use>
                  <path fill="none" stroke="white" stroke-width="1.5" d="M0,-3.0v7 M-2.5,-0.5L0,-3.0L2.5,-0.5"/>
                </g>
                <g id="arrowRight" xlink:href="#dirArrow" transform="rotate(90) translate(36 -43)" onmousedown="handlePan(1,0)">
                  <use xlink:href="#rim" fill="#404040">
                        <set attributeName="fill" to="#808080" begin="arrowRight.mouseover" end="arrowRight.mouseout"/>
                  </use>
                  <path fill="none" stroke="white" stroke-width="1.5" d="M0,-3.0v7 M-2.5,-0.5L0,-3.0L2.5,-0.5"/>
                </g>
                <g id="arrowDown" xlink:href="#dirArrow" transform="rotate(180) translate(-30 -48)" onmousedown="handlePan(0,1)">
                  <use xlink:href="#rim" fill="#404040">
                        <set attributeName="fill" to="#808080" begin="arrowDown.mouseover" end="arrowDown.mouseout"/>
                  </use>
                  <path fill="none" stroke="white" stroke-width="1.5" d="M0,-3.0v7 M-2.5,-0.5L0,-3.0L2.5,-0.5"/>
                </g>
                <g id="arrowLeft" xlink:href="#dirArrow" transform="rotate(270) translate(-36 17)" onmousedown="handlePan(-1,0)">
                  <use xlink:href="#rim" fill="#404040">
                        <set attributeName="fill" to="#808080" begin="arrowLeft.mouseover" end="arrowLeft.mouseout"/>
                  </use>
                  <path fill="none" stroke="white" stroke-width="1.5" d="M0,-3.0v7 M-2.5,-0.5L0,-3.0L2.5,-0.5"/>
                </g>
        </g>
        <svg viewBox="0 0 15 15" width="100%" height="30px" preserveAspectRatio="xMaxYMin meet">
         <g id="arrow_out" transform="scale(0.3 0.3)">
          <a xlink:href="a00690_org.svg" target="_base">
           <rect id="button" ry="5" rx="5" y="6" x="6" height="38" width="38"
                fill="#f2f5e9" fill-opacity="0.5" stroke="#606060" stroke-width="1.0"/>
           <path id="arrow"
             d="M 11.500037,31.436501 C 11.940474,20.09759 22.043105,11.32322 32.158766,21.979434 L 37.068811,17.246167 C 37.068811,17.246167 37.088388,32 37.088388,32 L 22.160133,31.978069 C 22.160133,31.978069 26.997745,27.140456 26.997745,27.140456 C 18.528582,18.264221 13.291696,25.230495 11.500037,31.436501 z"
             style="fill:#404040;"/>
          </a>
         </g>
        </svg>
</svg>
