<?xml version="1.0" encoding="UTF-8" standalone="no"?>
<!DOCTYPE svg PUBLIC "-//W3C//DTD SVG 1.1//EN"
 "http://www.w3.org/Graphics/SVG/1.1/DTD/svg11.dtd">
<!-- Generated by graphviz version 2.26.3 (20100126.1600)
 -->
<!-- Title: de.tu_clausthal.in.mec.runtime.message.CMessageSystem.pushMessage Pages: 1 -->
<svg width="420pt" height="94pt"
 viewBox="0.00 0.00 420.00 94.00" xmlns="http://www.w3.org/2000/svg" xmlns:xlink="http://www.w3.org/1999/xlink">
<g id="graph1" class="graph" transform="scale(1 1) rotate(0) translate(4 90)">
<title>de.tu_clausthal.in.mec.runtime.message.CMessageSystem.pushMessage</title>
<!-- Node1 -->
<g id="node1" class="node"><title>Node1</title>
<polygon fill="#bfbfbf" stroke="black" points="0.5,-26 0.5,-60 183.5,-60 183.5,-26 0.5,-26"/>
<text text-anchor="start" x="8.5" y="-47.9" font-family="Helvetica,sans-Serif" font-size="9.00">de.tu_clausthal.in.mec.runtime.message.</text>
<text text-anchor="middle" x="92" y="-34.9" font-family="Helvetica,sans-Serif" font-size="9.00">CMessageSystem.pushMessage</text>
</g>
<!-- Node2 -->
<g id="node3" class="node"><title>Node2</title>
<a xlink:href="../../d4/d63/a00082.htm#af5321e518be2dab42d253e6539787b0a" target="_top" xlink:title="increments the message flow ">
<polygon fill="none" stroke="black" points="220.5,-52 220.5,-86 411.5,-86 411.5,-52 220.5,-52"/>
<text text-anchor="start" x="228.5" y="-73.9" font-family="Helvetica,sans-Serif" font-size="9.00">de.tu_clausthal.in.mec.runtime.message.</text>
<text text-anchor="middle" x="316" y="-60.9" font-family="Helvetica,sans-Serif" font-size="9.00">CMessageSystem.incrementMessageFlow</text>
</a>
</g>
<!-- Node1&#45;&gt;Node2 -->
<g id="edge2" class="edge"><title>Node1&#45;&gt;Node2</title>
<path fill="none" stroke="midnightblue" d="M183.756,-53.6502C192.534,-54.6691 201.484,-55.708 210.38,-56.7406"/>
<polygon fill="midnightblue" stroke="midnightblue" points="210.053,-60.226 220.39,-57.9024 210.86,-53.2726 210.053,-60.226"/>
</g>
<!-- Node3 -->
<g id="node5" class="node"><title>Node3</title>
<a xlink:href="../../dc/d54/a00094.htm#a4aa59b201e56cd0f80d5ab081b57517c" target="_top" xlink:title="check if the path is empty ">
<polygon fill="none" stroke="black" points="242,-0 242,-34 390,-34 390,-0 242,-0"/>
<text text-anchor="start" x="250" y="-21.9" font-family="Helvetica,sans-Serif" font-size="9.00">de.tu_clausthal.in.mec.common.</text>
<text text-anchor="middle" x="316" y="-8.9" font-family="Helvetica,sans-Serif" font-size="9.00">CPath.isEmpty</text>
</a>
</g>
<!-- Node1&#45;&gt;Node3 -->
<g id="edge4" class="edge"><title>Node1&#45;&gt;Node3</title>
<path fill="none" stroke="midnightblue" d="M183.756,-32.3498C199.614,-30.5091 216.031,-28.6035 231.68,-26.7871"/>
<polygon fill="midnightblue" stroke="midnightblue" points="232.309,-30.2377 241.839,-25.608 231.502,-23.2844 232.309,-30.2377"/>
</g>
</g>
</svg>
