<?xml version="1.0" encoding="UTF-8" standalone="no"?>
<!DOCTYPE svg PUBLIC "-//W3C//DTD SVG 1.1//EN"
 "http://www.w3.org/Graphics/SVG/1.1/DTD/svg11.dtd">
<!-- Generated by graphviz version 2.26.3 (20100126.1600)
 -->
<!-- Title: de.tu_clausthal.in.mec.object.waypoint.point.IWayPointBase&lt; T, P extends IFactory&lt; T &gt;, N extends IGenerator &gt; Pages: 1 -->
<svg width="413pt" height="768pt"
 viewBox="0.00 0.00 413.00 768.00" xmlns="http://www.w3.org/2000/svg" xmlns:xlink="http://www.w3.org/1999/xlink">
<g id="graph1" class="graph" transform="scale(1 1) rotate(0) translate(4 764)">
<title>de.tu_clausthal.in.mec.object.waypoint.point.IWayPointBase&lt; T, P extends IFactory&lt; T &gt;, N extends IGenerator &gt;</title>
<!-- Node1 -->
<g id="node1" class="node"><title>Node1</title>
<polygon fill="#bfbfbf" stroke="black" points="117.5,-0.5 117.5,-349.5 316.5,-349.5 316.5,-0.5 117.5,-0.5"/>
<text text-anchor="start" x="125.5" y="-337.4" font-family="Helvetica,sans-Serif" font-size="9.00">de.tu_clausthal.in.mec.object.waypoint.point.</text>
<text text-anchor="start" x="125.5" y="-324.4" font-family="Helvetica,sans-Serif" font-size="9.00">IWayPointBase&lt; T, P extends IFactory</text>
<text text-anchor="middle" x="217" y="-311.4" font-family="Helvetica,sans-Serif" font-size="9.00">&lt; T &gt;, N extends IGenerator &gt;</text>
<polyline fill="none" stroke="black" points="117.5,-302.5 316.5,-302.5 "/>
<text text-anchor="start" x="125.5" y="-290.4" font-family="Helvetica,sans-Serif" font-size="9.00"># m_factory</text>
<text text-anchor="start" x="125.5" y="-277.4" font-family="Helvetica,sans-Serif" font-size="9.00"># m_generator</text>
<text text-anchor="start" x="125.5" y="-264.4" font-family="Helvetica,sans-Serif" font-size="9.00"># m_visible</text>
<text text-anchor="start" x="125.5" y="-251.4" font-family="Helvetica,sans-Serif" font-size="9.00">&#45; m_color</text>
<text text-anchor="start" x="125.5" y="-238.4" font-family="Helvetica,sans-Serif" font-size="9.00">&#45; m_initializeimage</text>
<text text-anchor="start" x="125.5" y="-225.4" font-family="Helvetica,sans-Serif" font-size="9.00">&#45; m_inspect</text>
<text text-anchor="start" x="125.5" y="-212.4" font-family="Helvetica,sans-Serif" font-size="9.00">&#45; m_lastZoom</text>
<text text-anchor="start" x="125.5" y="-199.4" font-family="Helvetica,sans-Serif" font-size="9.00">&#45; m_name</text>
<text text-anchor="start" x="125.5" y="-186.4" font-family="Helvetica,sans-Serif" font-size="9.00">&#45; m_position</text>
<text text-anchor="start" x="125.5" y="-173.4" font-family="Helvetica,sans-Serif" font-size="9.00">&#45; m_scaledimage</text>
<polyline fill="none" stroke="black" points="117.5,-164.5 316.5,-164.5 "/>
<text text-anchor="start" x="125.5" y="-152.4" font-family="Helvetica,sans-Serif" font-size="9.00">+ IWayPointBase()</text>
<text text-anchor="start" x="125.5" y="-139.4" font-family="Helvetica,sans-Serif" font-size="9.00">+ IWayPointBase()</text>
<text text-anchor="start" x="125.5" y="-126.4" font-family="Helvetica,sans-Serif" font-size="9.00">+ getColor()</text>
<text text-anchor="start" x="125.5" y="-113.4" font-family="Helvetica,sans-Serif" font-size="9.00">+ getName()</text>
<text text-anchor="start" x="125.5" y="-100.4" font-family="Helvetica,sans-Serif" font-size="9.00">+ getPosition()</text>
<text text-anchor="start" x="125.5" y="-87.4" font-family="Helvetica,sans-Serif" font-size="9.00">+ getScaledImage()</text>
<text text-anchor="start" x="125.5" y="-74.4" font-family="Helvetica,sans-Serif" font-size="9.00">+ hasFactoryGenerator()</text>
<text text-anchor="start" x="125.5" y="-61.4" font-family="Helvetica,sans-Serif" font-size="9.00">+ inspect()</text>
<text text-anchor="start" x="125.5" y="-48.4" font-family="Helvetica,sans-Serif" font-size="9.00">+ onClick()</text>
<text text-anchor="start" x="125.5" y="-35.4" font-family="Helvetica,sans-Serif" font-size="9.00">+ paint()</text>
<text text-anchor="start" x="125.5" y="-22.4" font-family="Helvetica,sans-Serif" font-size="9.00">+ step()</text>
<text text-anchor="start" x="125.5" y="-9.4" font-family="Helvetica,sans-Serif" font-size="9.00">&#45; initializeImage()</text>
</g>
<!-- Node2 -->
<g id="node2" class="node"><title>Node2</title>
<a xlink:href="../../dc/de6/a00167.htm" target="_top" xlink:title="global default implementation to get information about a simulation object ">
<polygon fill="none" stroke="black" points="69,-413 69,-489 189,-489 189,-413 69,-413"/>
<text text-anchor="start" x="77" y="-476.9" font-family="Helvetica,sans-Serif" font-size="9.00">de.tu_clausthal.in.mec.ui.</text>
<text text-anchor="middle" x="129" y="-463.9" font-family="Helvetica,sans-Serif" font-size="9.00">IInspectorDefault</text>
<polyline fill="none" stroke="black" points="69,-455 189,-455 "/>
<text text-anchor="start" x="77" y="-442.9" font-family="Helvetica,sans-Serif" font-size="9.00">&#45; m_inspect</text>
<polyline fill="none" stroke="black" points="69,-434 189,-434 "/>
<text text-anchor="start" x="77" y="-421.9" font-family="Helvetica,sans-Serif" font-size="9.00">+ inspect()</text>
</a>
</g>
<!-- Node2&#45;&gt;Node1 -->
<g id="edge2" class="edge"><title>Node2&#45;&gt;Node1</title>
<path fill="none" stroke="midnightblue" d="M144.293,-403.036C149.286,-387.377 155.153,-368.973 161.354,-349.527"/>
<polygon fill="none" stroke="midnightblue" points="140.847,-402.322 141.144,-412.913 147.516,-404.449 140.847,-402.322"/>
</g>
<!-- Node3 -->
<g id="node4" class="node"><title>Node3</title>
<a xlink:href="../../dd/df4/a00193.htm" target="_top" xlink:title="class to handle UI events with encapsulate the default lister structures ">
<polygon fill="none" stroke="black" points="0,-553 0,-759 120,-759 120,-553 0,-553"/>
<text text-anchor="start" x="8" y="-746.9" font-family="Helvetica,sans-Serif" font-size="9.00">de.tu_clausthal.in.mec.ui.</text>
<text text-anchor="middle" x="60" y="-733.9" font-family="Helvetica,sans-Serif" font-size="9.00">IUIListener</text>
<polyline fill="none" stroke="black" points="0,-725 120,-725 "/>
<text text-anchor="start" x="8" y="-712.9" font-family="Helvetica,sans-Serif" font-size="9.00"># c_maxzoom</text>
<text text-anchor="start" x="8" y="-699.9" font-family="Helvetica,sans-Serif" font-size="9.00"># c_miniconsize</text>
<polyline fill="none" stroke="black" points="0,-691 120,-691 "/>
<text text-anchor="start" x="8" y="-678.9" font-family="Helvetica,sans-Serif" font-size="9.00">+ IUIListener()</text>
<text text-anchor="start" x="8" y="-665.9" font-family="Helvetica,sans-Serif" font-size="9.00">+ mouseClicked()</text>
<text text-anchor="start" x="8" y="-652.9" font-family="Helvetica,sans-Serif" font-size="9.00">+ mouseEntered()</text>
<text text-anchor="start" x="8" y="-639.9" font-family="Helvetica,sans-Serif" font-size="9.00">+ mouseExited()</text>
<text text-anchor="start" x="8" y="-626.9" font-family="Helvetica,sans-Serif" font-size="9.00">+ mousePressed()</text>
<text text-anchor="start" x="8" y="-613.9" font-family="Helvetica,sans-Serif" font-size="9.00">+ mouseReleased()</text>
<text text-anchor="start" x="8" y="-600.9" font-family="Helvetica,sans-Serif" font-size="9.00">+ onClick()</text>
<text text-anchor="start" x="8" y="-587.9" font-family="Helvetica,sans-Serif" font-size="9.00">+ release()</text>
<text text-anchor="start" x="8" y="-574.9" font-family="Helvetica,sans-Serif" font-size="9.00"># iconscale()</text>
<text text-anchor="start" x="8" y="-561.9" font-family="Helvetica,sans-Serif" font-size="9.00"># iconsize()</text>
</a>
</g>
<!-- Node3&#45;&gt;Node2 -->
<g id="edge4" class="edge"><title>Node3&#45;&gt;Node2</title>
<path fill="none" stroke="midnightblue" d="M97.9252,-543.324C104.472,-523.873 110.852,-504.917 116.111,-489.292"/>
<polygon fill="none" stroke="midnightblue" points="94.5751,-542.305 94.7021,-552.899 101.209,-544.538 94.5751,-542.305"/>
</g>
<!-- Node4 -->
<g id="node6" class="node"><title>Node4</title>
<a xlink:href="../../d9/d38/a00166.htm" target="_top" xlink:title="global interface to read information about a simulation object ">
<polygon fill="none" stroke="black" points="138,-618 138,-694 258,-694 258,-618 138,-618"/>
<text text-anchor="start" x="146" y="-681.9" font-family="Helvetica,sans-Serif" font-size="9.00">de.tu_clausthal.in.mec.ui.</text>
<text text-anchor="middle" x="198" y="-668.9" font-family="Helvetica,sans-Serif" font-size="9.00">IInspector</text>
<polyline fill="none" stroke="black" points="138,-660 258,-660 "/>
<text text-anchor="middle" x="198" y="-647.9" font-family="Helvetica,sans-Serif" font-size="9.00"> </text>
<polyline fill="none" stroke="black" points="138,-639 258,-639 "/>
<text text-anchor="start" x="146" y="-626.9" font-family="Helvetica,sans-Serif" font-size="9.00">+ inspect()</text>
</a>
</g>
<!-- Node4&#45;&gt;Node2 -->
<g id="edge6" class="edge"><title>Node4&#45;&gt;Node2</title>
<path fill="none" stroke="midnightblue" d="M181.868,-608.071C169.679,-571.858 153.173,-522.817 141.865,-489.222"/>
<polygon fill="none" stroke="midnightblue" points="178.676,-609.56 185.183,-617.922 185.31,-607.327 178.676,-609.56"/>
</g>
<!-- Node5 -->
<g id="node8" class="node"><title>Node5</title>
<a xlink:href="../../d7/da0/a00198.htm" target="_top" xlink:title="interface of a waypoint ">
<polygon fill="none" stroke="black" points="206.5,-387 206.5,-515 405.5,-515 405.5,-387 206.5,-387"/>
<text text-anchor="start" x="214.5" y="-502.9" font-family="Helvetica,sans-Serif" font-size="9.00">de.tu_clausthal.in.mec.object.waypoint.point.</text>
<text text-anchor="middle" x="306" y="-489.9" font-family="Helvetica,sans-Serif" font-size="9.00">IWayPoint&lt; T &gt;</text>
<polyline fill="none" stroke="black" points="206.5,-481 405.5,-481 "/>
<text text-anchor="middle" x="306" y="-468.9" font-family="Helvetica,sans-Serif" font-size="9.00"> </text>
<polyline fill="none" stroke="black" points="206.5,-460 405.5,-460 "/>
<text text-anchor="start" x="214.5" y="-447.9" font-family="Helvetica,sans-Serif" font-size="9.00">+ getColor()</text>
<text text-anchor="start" x="214.5" y="-434.9" font-family="Helvetica,sans-Serif" font-size="9.00">+ getName()</text>
<text text-anchor="start" x="214.5" y="-421.9" font-family="Helvetica,sans-Serif" font-size="9.00">+ getPath()</text>
<text text-anchor="start" x="214.5" y="-408.9" font-family="Helvetica,sans-Serif" font-size="9.00">+ getPosition()</text>
<text text-anchor="start" x="214.5" y="-395.9" font-family="Helvetica,sans-Serif" font-size="9.00">+ hasFactoryGenerator()</text>
</a>
</g>
<!-- Node5&#45;&gt;Node1 -->
<g id="edge8" class="edge"><title>Node5&#45;&gt;Node1</title>
<path fill="none" stroke="midnightblue" d="M282.214,-377.238C279.372,-368.425 276.386,-359.162 273.318,-349.648"/>
<polygon fill="none" stroke="midnightblue" points="278.958,-378.543 285.358,-386.986 285.62,-376.395 278.958,-378.543"/>
</g>
</g>
</svg>
