<?xml version="1.0" encoding="UTF-8" standalone="no"?>
<!DOCTYPE svg PUBLIC "-//W3C//DTD SVG 1.1//EN"
 "http://www.w3.org/Graphics/SVG/1.1/DTD/svg11.dtd">
<!-- Generated by graphviz version 2.26.3 (20100126.1600)
 -->
<!-- Title: de.tu_clausthal.in.mec.object.ISingleEvaluateLayer Pages: 1 -->
<svg width="304pt" height="468pt"
 viewBox="0.00 0.00 304.00 468.00" xmlns="http://www.w3.org/2000/svg" xmlns:xlink="http://www.w3.org/1999/xlink">
<g id="graph1" class="graph" transform="scale(1 1) rotate(0) translate(4 464)">
<title>de.tu_clausthal.in.mec.object.ISingleEvaluateLayer</title>
<!-- Node1 -->
<g id="node1" class="node"><title>Node1</title>
<polygon fill="#bfbfbf" stroke="black" points="77.5,-0.5 77.5,-167.5 214.5,-167.5 214.5,-0.5 77.5,-0.5"/>
<text text-anchor="start" x="85.5" y="-155.4" font-family="Helvetica,sans-Serif" font-size="9.00">de.tu_clausthal.in.mec.object.</text>
<text text-anchor="middle" x="146" y="-142.4" font-family="Helvetica,sans-Serif" font-size="9.00">ISingleEvaluateLayer</text>
<polyline fill="none" stroke="black" points="77.5,-133.5 214.5,-133.5 "/>
<text text-anchor="start" x="85.5" y="-121.4" font-family="Helvetica,sans-Serif" font-size="9.00"># m_active</text>
<polyline fill="none" stroke="black" points="77.5,-112.5 214.5,-112.5 "/>
<text text-anchor="start" x="85.5" y="-100.4" font-family="Helvetica,sans-Serif" font-size="9.00">+ getCalculationIndex()</text>
<text text-anchor="start" x="85.5" y="-87.4" font-family="Helvetica,sans-Serif" font-size="9.00">+ isActive()</text>
<text text-anchor="start" x="85.5" y="-74.4" font-family="Helvetica,sans-Serif" font-size="9.00">+ onSimulationReset()</text>
<text text-anchor="start" x="85.5" y="-61.4" font-family="Helvetica,sans-Serif" font-size="9.00">+ onSimulationStart()</text>
<text text-anchor="start" x="85.5" y="-48.4" font-family="Helvetica,sans-Serif" font-size="9.00">+ onSimulationStop()</text>
<text text-anchor="start" x="85.5" y="-35.4" font-family="Helvetica,sans-Serif" font-size="9.00">+ release()</text>
<text text-anchor="start" x="85.5" y="-22.4" font-family="Helvetica,sans-Serif" font-size="9.00">+ setActive()</text>
<text text-anchor="start" x="85.5" y="-9.4" font-family="Helvetica,sans-Serif" font-size="9.00">+ step()</text>
</g>
<!-- Node2 -->
<g id="node2" class="node"><title>Node2</title>
<a xlink:href="../../dd/da7/a00168.htm" target="_top" xlink:title="interface of the layer ">
<polygon fill="none" stroke="black" points="-0.5,-204.5 -0.5,-345.5 136.5,-345.5 136.5,-204.5 -0.5,-204.5"/>
<text text-anchor="start" x="7.5" y="-333.4" font-family="Helvetica,sans-Serif" font-size="9.00">de.tu_clausthal.in.mec.object.</text>
<text text-anchor="middle" x="68" y="-320.4" font-family="Helvetica,sans-Serif" font-size="9.00">ILayer</text>
<polyline fill="none" stroke="black" points="-0.5,-311.5 136.5,-311.5 "/>
<text text-anchor="middle" x="68" y="-299.4" font-family="Helvetica,sans-Serif" font-size="9.00"> </text>
<polyline fill="none" stroke="black" points="-0.5,-290.5 136.5,-290.5 "/>
<text text-anchor="start" x="7.5" y="-278.4" font-family="Helvetica,sans-Serif" font-size="9.00">+ getCalculationIndex()</text>
<text text-anchor="start" x="7.5" y="-265.4" font-family="Helvetica,sans-Serif" font-size="9.00">+ isActive()</text>
<text text-anchor="start" x="7.5" y="-252.4" font-family="Helvetica,sans-Serif" font-size="9.00">+ onSimulationReset()</text>
<text text-anchor="start" x="7.5" y="-239.4" font-family="Helvetica,sans-Serif" font-size="9.00">+ onSimulationStart()</text>
<text text-anchor="start" x="7.5" y="-226.4" font-family="Helvetica,sans-Serif" font-size="9.00">+ onSimulationStop()</text>
<text text-anchor="start" x="7.5" y="-213.4" font-family="Helvetica,sans-Serif" font-size="9.00">+ setActive()</text>
</a>
</g>
<!-- Node2&#45;&gt;Node1 -->
<g id="edge2" class="edge"><title>Node2&#45;&gt;Node1</title>
<path fill="none" stroke="midnightblue" d="M100.656,-195.035C104.367,-185.948 108.157,-176.668 111.886,-167.536"/>
<polygon fill="none" stroke="midnightblue" points="97.3632,-193.84 96.8227,-204.421 103.844,-196.487 97.3632,-193.84"/>
</g>
<!-- Node3 -->
<g id="node4" class="node"><title>Node3</title>
<a xlink:href="../../da/d15/a00188.htm" target="_top" xlink:title="interface for all objects which are triggered by the simulation worker ">
<polygon fill="none" stroke="black" points="74.5,-383 74.5,-459 217.5,-459 217.5,-383 74.5,-383"/>
<text text-anchor="start" x="82.5" y="-446.9" font-family="Helvetica,sans-Serif" font-size="9.00">de.tu_clausthal.in.mec.runtime.</text>
<text text-anchor="middle" x="146" y="-433.9" font-family="Helvetica,sans-Serif" font-size="9.00">ISteppable</text>
<polyline fill="none" stroke="black" points="74.5,-425 217.5,-425 "/>
<text text-anchor="middle" x="146" y="-412.9" font-family="Helvetica,sans-Serif" font-size="9.00"> </text>
<polyline fill="none" stroke="black" points="74.5,-404 217.5,-404 "/>
<text text-anchor="start" x="82.5" y="-391.9" font-family="Helvetica,sans-Serif" font-size="9.00">+ release()</text>
</a>
</g>
<!-- Node3&#45;&gt;Node2 -->
<g id="edge4" class="edge"><title>Node3&#45;&gt;Node2</title>
<path fill="none" stroke="midnightblue" d="M120.651,-373.553C115.87,-364.603 110.775,-355.066 105.709,-345.584"/>
<polygon fill="none" stroke="midnightblue" points="117.707,-375.469 125.506,-382.64 123.881,-372.171 117.707,-375.469"/>
</g>
<!-- Node4 -->
<g id="node6" class="node"><title>Node4</title>
<a xlink:href="../../de/db1/a00197.htm" target="_top" xlink:title="interface of void&#45;step method ">
<polygon fill="none" stroke="black" points="153.5,-237 153.5,-313 296.5,-313 296.5,-237 153.5,-237"/>
<text text-anchor="start" x="161.5" y="-300.9" font-family="Helvetica,sans-Serif" font-size="9.00">de.tu_clausthal.in.mec.runtime.</text>
<text text-anchor="middle" x="225" y="-287.9" font-family="Helvetica,sans-Serif" font-size="9.00">IVoidSteppable</text>
<polyline fill="none" stroke="black" points="153.5,-279 296.5,-279 "/>
<text text-anchor="middle" x="225" y="-266.9" font-family="Helvetica,sans-Serif" font-size="9.00"> </text>
<polyline fill="none" stroke="black" points="153.5,-258 296.5,-258 "/>
<text text-anchor="start" x="161.5" y="-245.9" font-family="Helvetica,sans-Serif" font-size="9.00">+ step()</text>
</a>
</g>
<!-- Node3&#45;&gt;Node4 -->
<g id="edge8" class="edge"><title>Node3&#45;&gt;Node4</title>
<path fill="none" stroke="midnightblue" d="M171.519,-373.839C182.15,-354.192 194.332,-331.677 204.382,-313.104"/>
<polygon fill="none" stroke="midnightblue" points="168.437,-372.18 166.756,-382.64 174.594,-375.511 168.437,-372.18"/>
</g>
<!-- Node4&#45;&gt;Node1 -->
<g id="edge6" class="edge"><title>Node4&#45;&gt;Node1</title>
<path fill="none" stroke="midnightblue" d="M205.191,-227.106C197.716,-209.035 188.977,-187.908 180.545,-167.52"/>
<polygon fill="none" stroke="midnightblue" points="202.147,-228.904 209.203,-236.807 208.615,-226.229 202.147,-228.904"/>
</g>
</g>
</svg>
