<?xml version="1.0" encoding="UTF-8" standalone="no"?>
<!DOCTYPE svg PUBLIC "-//W3C//DTD SVG 1.1//EN"
 "http://www.w3.org/Graphics/SVG/1.1/DTD/svg11.dtd">
<!-- Generated by graphviz version 2.26.3 (20100126.1600)
 -->
<!-- Title: de.tu_clausthal.in.mec.runtime.message.CNames.getGroup Pages: 1 -->
<svg width="632pt" height="42pt"
 viewBox="0.00 0.00 632.00 42.00" xmlns="http://www.w3.org/2000/svg" xmlns:xlink="http://www.w3.org/1999/xlink">
<g id="graph1" class="graph" transform="scale(1 1) rotate(0) translate(4 38)">
<title>de.tu_clausthal.in.mec.runtime.message.CNames.getGroup</title>
<!-- Node1 -->
<g id="node1" class="node"><title>Node1</title>
<polygon fill="#bfbfbf" stroke="black" points="0.5,-0 0.5,-34 183.5,-34 183.5,-0 0.5,-0"/>
<text text-anchor="start" x="8.5" y="-21.9" font-family="Helvetica,sans-Serif" font-size="9.00">de.tu_clausthal.in.mec.runtime.message.</text>
<text text-anchor="middle" x="92" y="-8.9" font-family="Helvetica,sans-Serif" font-size="9.00">CNames.getGroup</text>
</g>
<!-- Node2 -->
<g id="node3" class="node"><title>Node2</title>
<a xlink:href="../../db/dab/a00089.htm#a23fb488cfe18963e7a7ebb16ac0e9a93" target="_top" xlink:title="creates a full name ">
<polygon fill="none" stroke="black" points="220.5,-0 220.5,-34 403.5,-34 403.5,-0 220.5,-0"/>
<text text-anchor="start" x="228.5" y="-21.9" font-family="Helvetica,sans-Serif" font-size="9.00">de.tu_clausthal.in.mec.runtime.message.</text>
<text text-anchor="middle" x="312" y="-8.9" font-family="Helvetica,sans-Serif" font-size="9.00">CNames.getName</text>
</a>
</g>
<!-- Node1&#45;&gt;Node2 -->
<g id="edge2" class="edge"><title>Node1&#45;&gt;Node2</title>
<path fill="none" stroke="midnightblue" d="M193.725,-17C202.636,-17 211.62,-17 220.442,-17"/>
<polygon fill="midnightblue" stroke="midnightblue" points="193.707,-13.5001 183.707,-17 193.707,-20.5001 193.707,-13.5001"/>
</g>
<!-- Node3 -->
<g id="node5" class="node"><title>Node3</title>
<a xlink:href="../../db/dab/a00089.htm#a74fcd79fc5179d439afa01af8c4ae598" target="_top" xlink:title="creates a full name ">
<polygon fill="none" stroke="black" points="440.5,-0 440.5,-34 623.5,-34 623.5,-0 440.5,-0"/>
<text text-anchor="start" x="448.5" y="-21.9" font-family="Helvetica,sans-Serif" font-size="9.00">de.tu_clausthal.in.mec.runtime.message.</text>
<text text-anchor="middle" x="532" y="-8.9" font-family="Helvetica,sans-Serif" font-size="9.00">CNames.getName</text>
</a>
</g>
<!-- Node2&#45;&gt;Node3 -->
<g id="edge4" class="edge"><title>Node2&#45;&gt;Node3</title>
<path fill="none" stroke="midnightblue" d="M413.725,-17C422.636,-17 431.62,-17 440.442,-17"/>
<polygon fill="midnightblue" stroke="midnightblue" points="413.707,-13.5001 403.707,-17 413.707,-20.5001 413.707,-13.5001"/>
</g>
</g>
</svg>
