<?xml version="1.0" encoding="UTF-8" standalone="no"?>
<!DOCTYPE svg PUBLIC "-//W3C//DTD SVG 1.1//EN"
 "http://www.w3.org/Graphics/SVG/1.1/DTD/svg11.dtd">
<!-- Generated by graphviz version 2.26.3 (20100126.1600)
 -->
<!-- Title: de.tu_clausthal.in.mec.CMain.main Pages: 1 -->
<svg width="396pt" height="290pt"
 viewBox="0.00 0.00 396.00 290.00" xmlns="http://www.w3.org/2000/svg" xmlns:xlink="http://www.w3.org/1999/xlink">
<g id="graph1" class="graph" transform="scale(1 1) rotate(0) translate(4 286)">
<title>de.tu_clausthal.in.mec.CMain.main</title>
<!-- Node1 -->
<g id="node1" class="node"><title>Node1</title>
<polygon fill="#bfbfbf" stroke="black" points="0,-124.5 0,-145.5 160,-145.5 160,-124.5 0,-124.5"/>
<text text-anchor="middle" x="80" y="-133.4" font-family="Helvetica,sans-Serif" font-size="9.00">de.tu_clausthal.in.mec.CMain.main</text>
</g>
<!-- Node2 -->
<g id="node3" class="node"><title>Node2</title>
<a xlink:href="../../d7/d70/a00106.htm#a7d0ef6bcee9bcd42306a048fd126a7fd" target="_top" xlink:title="retruns singleton instance ">
<polygon fill="none" stroke="black" points="196.5,-248 196.5,-282 387.5,-282 387.5,-248 196.5,-248"/>
<text text-anchor="start" x="204.5" y="-269.9" font-family="Helvetica,sans-Serif" font-size="9.00">de.tu_clausthal.in.mec.runtime.benchmark.</text>
<text text-anchor="middle" x="292" y="-256.9" font-family="Helvetica,sans-Serif" font-size="9.00">CSummary.getInstance</text>
</a>
</g>
<!-- Node1&#45;&gt;Node2 -->
<g id="edge2" class="edge"><title>Node1&#45;&gt;Node2</title>
<path fill="none" stroke="midnightblue" d="M88.7259,-145.612C106.609,-166.658 149.656,-213.82 196,-239 199.305,-240.796 202.742,-242.474 206.265,-244.042"/>
<polygon fill="midnightblue" stroke="midnightblue" points="205.181,-247.38 215.761,-247.939 207.839,-240.904 205.181,-247.38"/>
</g>
<!-- Node3 -->
<g id="node5" class="node"><title>Node3</title>
<a xlink:href="../../db/d3a/a00040.htm#a5fc1c2b2396e46e44cbc25c907f2c452" target="_top" xlink:title="singleton get instance method ">
<polygon fill="none" stroke="black" points="198,-196 198,-230 386,-230 386,-196 198,-196"/>
<text text-anchor="start" x="206" y="-217.9" font-family="Helvetica,sans-Serif" font-size="9.00">de.tu_clausthal.in.mec.CConfiguration.get</text>
<text text-anchor="middle" x="292" y="-204.9" font-family="Helvetica,sans-Serif" font-size="9.00">Instance</text>
</a>
</g>
<!-- Node1&#45;&gt;Node3 -->
<g id="edge4" class="edge"><title>Node1&#45;&gt;Node3</title>
<path fill="none" stroke="midnightblue" d="M100.969,-145.605C123.894,-156.911 161.913,-174.829 196,-187 201.869,-189.096 207.992,-191.117 214.18,-193.044"/>
<polygon fill="midnightblue" stroke="midnightblue" points="213.345,-196.448 223.93,-195.991 215.37,-189.747 213.345,-196.448"/>
</g>
<!-- Node4 -->
<g id="node7" class="node"><title>Node4</title>
<a xlink:href="../../d1/dc6/a00037.htm#ae523069a1b523b0e6a0c643049b1d745" target="_top" xlink:title="returns a default string of the resource file ">
<polygon fill="none" stroke="black" points="218,-144 218,-178 366,-178 366,-144 218,-144"/>
<text text-anchor="start" x="226" y="-165.9" font-family="Helvetica,sans-Serif" font-size="9.00">de.tu_clausthal.in.mec.common.</text>
<text text-anchor="middle" x="292" y="-152.9" font-family="Helvetica,sans-Serif" font-size="9.00">CCommon.getResourceString</text>
</a>
</g>
<!-- Node1&#45;&gt;Node4 -->
<g id="edge6" class="edge"><title>Node1&#45;&gt;Node4</title>
<path fill="none" stroke="midnightblue" d="M160.148,-144.829C175.634,-146.729 191.904,-148.724 207.523,-150.64"/>
<polygon fill="midnightblue" stroke="midnightblue" points="207.326,-154.142 217.678,-151.885 208.179,-147.194 207.326,-154.142"/>
</g>
<!-- Node5 -->
<g id="node9" class="node"><title>Node5</title>
<a xlink:href="../../df/d6a/a00119.htm#a625b4c53d5550541c3df1ee28c79aa6d" target="_top" xlink:title="main&#45;wrapper method ">
<polygon fill="none" stroke="black" points="232,-92 232,-126 352,-126 352,-92 232,-92"/>
<text text-anchor="start" x="240" y="-113.9" font-family="Helvetica,sans-Serif" font-size="9.00">de.tu_clausthal.in.mec.ui.</text>
<text text-anchor="middle" x="292" y="-100.9" font-family="Helvetica,sans-Serif" font-size="9.00">CUI.main</text>
</a>
</g>
<!-- Node1&#45;&gt;Node5 -->
<g id="edge8" class="edge"><title>Node1&#45;&gt;Node5</title>
<path fill="none" stroke="midnightblue" d="M160.148,-125.171C180.418,-122.685 202.03,-120.034 221.769,-117.613"/>
<polygon fill="midnightblue" stroke="midnightblue" points="222.403,-121.062 231.903,-116.37 221.551,-114.114 222.403,-121.062"/>
</g>
<!-- Node6 -->
<g id="node11" class="node"><title>Node6</title>
<a xlink:href="../../d0/d89/a00071.htm#acfbe6168a314681421f740ef3545bddc" target="_top" xlink:title="adds a output message ">
<polygon fill="none" stroke="black" points="211.5,-52.5 211.5,-73.5 372.5,-73.5 372.5,-52.5 211.5,-52.5"/>
<text text-anchor="middle" x="292" y="-61.4" font-family="Helvetica,sans-Serif" font-size="9.00">de.tu_clausthal.in.mec.CLogger.out</text>
</a>
</g>
<!-- Node1&#45;&gt;Node6 -->
<g id="edge10" class="edge"><title>Node1&#45;&gt;Node6</title>
<path fill="none" stroke="midnightblue" d="M100.008,-124.426C122.721,-112.806 161.149,-94.2949 196,-83 204.237,-80.3306 212.99,-77.9324 221.729,-75.8031"/>
<polygon fill="midnightblue" stroke="midnightblue" points="222.616,-79.1902 231.562,-73.5131 221.028,-72.3727 222.616,-79.1902"/>
</g>
<!-- Node7 -->
<g id="node13" class="node"><title>Node7</title>
<a xlink:href="../../d1/dc6/a00037.htm#a935b928bad47cf1f12909a4dbddadfc9" target="_top" xlink:title="checkes the VM structures on startup ">
<polygon fill="none" stroke="black" points="218,-0 218,-34 366,-34 366,-0 218,-0"/>
<text text-anchor="start" x="226" y="-21.9" font-family="Helvetica,sans-Serif" font-size="9.00">de.tu_clausthal.in.mec.common.</text>
<text text-anchor="middle" x="292" y="-8.9" font-family="Helvetica,sans-Serif" font-size="9.00">CCommon.startupchecks</text>
</a>
</g>
<!-- Node1&#45;&gt;Node7 -->
<g id="edge12" class="edge"><title>Node1&#45;&gt;Node7</title>
<path fill="none" stroke="midnightblue" d="M90.1612,-124.498C109.172,-105.448 152.174,-65.1249 196,-43 200.01,-40.9756 204.197,-39.0941 208.482,-37.3474"/>
<polygon fill="midnightblue" stroke="midnightblue" points="209.887,-40.558 217.993,-33.7358 207.401,-34.014 209.887,-40.558"/>
</g>
</g>
</svg>
