<?xml version="1.0" encoding="UTF-8" standalone="no"?>
<!DOCTYPE svg PUBLIC "-//W3C//DTD SVG 1.1//EN"
 "http://www.w3.org/Graphics/SVG/1.1/DTD/svg11.dtd">
<!-- Generated by graphviz version 2.26.3 (20100126.1600)
 -->
<!-- Title: de.tu_clausthal.in.mec.runtime.IVoidSteppable Pages: 1 -->
<!--zoomable 1502 -->
<svg id="main" version="1.1" xmlns="http://www.w3.org/2000/svg" xmlns:xlink="http://www.w3.org/1999/xlink" xml:space="preserve" onload="init(evt)">
<style type="text/css"><![CDATA[
.edge:hover path { stroke: red; }
.edge:hover polygon { stroke: red; fill: red; }
]]></style>
<script type="text/javascript"><![CDATA[
var edges = document.getElementsByTagName('g');
if (edges && edges.length) {
  for (var i=0;i<edges.length;i++) {
    if (edges[i].id.substr(0,4)=='edge') {
      edges[i].setAttribute('class','edge');
    }
  }
}
]]></script>
        <defs>
                <circle id="rim" cx="0" cy="0" r="7"/>
                <circle id="rim2" cx="0" cy="0" r="3.5"/>
                <g id="zoomPlus">
                        <use xlink:href="#rim" fill="#404040">
                                <set attributeName="fill" to="#808080" begin="zoomplus.mouseover" end="zoomplus.mouseout"/>
                        </use>
                        <path d="M-4,0h8M0,-4v8" fill="none" stroke="white" stroke-width="1.5" pointer-events="none"/>
                </g>
                <g id="zoomMin">
                        <use xlink:href="#rim" fill="#404040">
                                <set attributeName="fill" to="#808080" begin="zoomminus.mouseover" end="zoomminus.mouseout"/>
                        </use>
                        <path d="M-4,0h8" fill="none" stroke="white" stroke-width="1.5" pointer-events="none"/>
                </g>
                <g id="dirArrow">
                        <path fill="none" stroke="white" stroke-width="1.5" d="M0,-3.0v7 M-2.5,-0.5L0,-3.0L2.5,-0.5"/>
                </g>
               <g id="resetDef">
                       <use xlink:href="#rim2" fill="#404040">
                               <set attributeName="fill" to="#808080" begin="reset.mouseover" end="reset.mouseout"/>
                       </use>
               </g>
        </defs>

<script type="text/javascript">
var viewWidth = 1902;
var viewHeight = 1502;
var sectionId = 'dynsection-0';
</script>
<script xlink:href="../../svgpan.js"/>
<svg id="graph" class="graph">
<g id="viewport">
<title>de.tu_clausthal.in.mec.runtime.IVoidSteppable</title>
<!-- Node1 -->
<g id="node1" class="node"><title>Node1</title>
<polygon fill="#bfbfbf" stroke="black" points="1144.5,-1303 1144.5,-1379 1287.5,-1379 1287.5,-1303 1144.5,-1303"/>
<text text-anchor="start" x="1152.5" y="-1366.9" font-family="Helvetica,sans-Serif" font-size="9.00">de.tu_clausthal.in.mec.runtime.</text>
<text text-anchor="middle" x="1216" y="-1353.9" font-family="Helvetica,sans-Serif" font-size="9.00">IVoidSteppable</text>
<polyline fill="none" stroke="black" points="1144.5,-1345 1287.5,-1345 "/>
<text text-anchor="middle" x="1216" y="-1332.9" font-family="Helvetica,sans-Serif" font-size="9.00"> </text>
<polyline fill="none" stroke="black" points="1144.5,-1324 1287.5,-1324 "/>
<text text-anchor="start" x="1152.5" y="-1311.9" font-family="Helvetica,sans-Serif" font-size="9.00">+ step()</text>
</g>
<!-- Node3 -->
<g id="node5" class="node"><title>Node3</title>
<a xlink:href="../../d6/db3/a00130.htm" target="_top" xlink:title="worker class to push data to the database * ">
<polygon fill="none" stroke="black" points="405.5,-1001 405.5,-1077 578.5,-1077 578.5,-1001 405.5,-1001"/>
<text text-anchor="start" x="413.5" y="-1064.9" font-family="Helvetica,sans-Serif" font-size="9.00">de.tu_clausthal.in.mec.object.analysis.</text>
<text text-anchor="middle" x="492" y="-1051.9" font-family="Helvetica,sans-Serif" font-size="9.00">IDatabase.CWorker</text>
<polyline fill="none" stroke="black" points="405.5,-1043 578.5,-1043 "/>
<text text-anchor="middle" x="492" y="-1030.9" font-family="Helvetica,sans-Serif" font-size="9.00"> </text>
<polyline fill="none" stroke="black" points="405.5,-1022 578.5,-1022 "/>
<text text-anchor="start" x="413.5" y="-1009.9" font-family="Helvetica,sans-Serif" font-size="9.00">+ release()</text>
</a>
</g>
<!-- Node1&#45;&gt;Node3 -->
<g id="edge4" class="edge"><title>Node1&#45;&gt;Node3</title>
<path fill="none" stroke="midnightblue" d="M1134.34,-1335.86C1008.21,-1326.8 772.815,-1305.16 699,-1266 615.37,-1221.63 548.197,-1129.66 514.864,-1077.43"/>
<polygon fill="none" stroke="midnightblue" points="1134.12,-1339.35 1144.35,-1336.57 1134.62,-1332.37 1134.12,-1339.35"/>
</g>
<!-- Node8 -->
<g id="node15" class="node"><title>Node8</title>
<a xlink:href="../../d3/d65/a00154.htm" target="_top" xlink:title="car interface for defining the car structure ">
<polygon fill="none" stroke="black" points="708,-942.5 708,-1135.5 878,-1135.5 878,-942.5 708,-942.5"/>
<text text-anchor="middle" x="793" y="-1123.4" font-family="Helvetica,sans-Serif" font-size="9.00">de.tu_clausthal.in.mec.object.car.ICar</text>
<polyline fill="none" stroke="black" points="708,-1114.5 878,-1114.5 "/>
<text text-anchor="middle" x="793" y="-1102.4" font-family="Helvetica,sans-Serif" font-size="9.00"> </text>
<polyline fill="none" stroke="black" points="708,-1093.5 878,-1093.5 "/>
<text text-anchor="start" x="716" y="-1081.4" font-family="Helvetica,sans-Serif" font-size="9.00">+ getAcceleration()</text>
<text text-anchor="start" x="716" y="-1068.4" font-family="Helvetica,sans-Serif" font-size="9.00">+ getCurrentSpeed()</text>
<text text-anchor="start" x="716" y="-1055.4" font-family="Helvetica,sans-Serif" font-size="9.00">+ getDeceleration()</text>
<text text-anchor="start" x="716" y="-1042.4" font-family="Helvetica,sans-Serif" font-size="9.00">+ getEdge()</text>
<text text-anchor="start" x="716" y="-1029.4" font-family="Helvetica,sans-Serif" font-size="9.00">+ getGeoposition()</text>
<text text-anchor="start" x="716" y="-1016.4" font-family="Helvetica,sans-Serif" font-size="9.00">+ getLingerProbability()</text>
<text text-anchor="start" x="716" y="-1003.4" font-family="Helvetica,sans-Serif" font-size="9.00">+ getMaximumSpeed()</text>
<text text-anchor="start" x="716" y="-990.4" font-family="Helvetica,sans-Serif" font-size="9.00">+ getPredecessor()</text>
<text text-anchor="start" x="716" y="-977.4" font-family="Helvetica,sans-Serif" font-size="9.00">+ getPredecessor()</text>
<text text-anchor="start" x="716" y="-964.4" font-family="Helvetica,sans-Serif" font-size="9.00">+ hasEndReached()</text>
<text text-anchor="start" x="716" y="-951.4" font-family="Helvetica,sans-Serif" font-size="9.00">+ setCurrentSpeed()</text>
</a>
</g>
<!-- Node1&#45;&gt;Node8 -->
<g id="edge14" class="edge"><title>Node1&#45;&gt;Node8</title>
<path fill="none" stroke="midnightblue" d="M1134.16,-1331.03C1049.26,-1319.2 923.831,-1297.1 887,-1266 848.052,-1233.12 824.983,-1181.47 811.456,-1135.74"/>
<polygon fill="none" stroke="midnightblue" points="1133.92,-1334.53 1144.3,-1332.42 1134.87,-1327.6 1133.92,-1334.53"/>
</g>
<!-- Node11 -->
<g id="node21" class="node"><title>Node11</title>
<a xlink:href="../../d8/df1/a00174.htm" target="_top" xlink:title="layer for any calculation multiple elements without visibility ">
<polygon fill="none" stroke="black" points="895.5,-858 895.5,-1220 1040.5,-1220 1040.5,-858 895.5,-858"/>
<text text-anchor="start" x="903.5" y="-1207.9" font-family="Helvetica,sans-Serif" font-size="9.00">de.tu_clausthal.in.mec.object.</text>
<text text-anchor="start" x="903.5" y="-1194.9" font-family="Helvetica,sans-Serif" font-size="9.00">IMultiEvaluateLayer&lt; T extends</text>
<text text-anchor="middle" x="968" y="-1181.9" font-family="Helvetica,sans-Serif" font-size="9.00"> ISteppable &gt;</text>
<polyline fill="none" stroke="black" points="895.5,-1173 1040.5,-1173 "/>
<text text-anchor="start" x="903.5" y="-1160.9" font-family="Helvetica,sans-Serif" font-size="9.00"># m_active</text>
<text text-anchor="start" x="903.5" y="-1147.9" font-family="Helvetica,sans-Serif" font-size="9.00"># m_data</text>
<polyline fill="none" stroke="black" points="895.5,-1139 1040.5,-1139 "/>
<text text-anchor="start" x="903.5" y="-1126.9" font-family="Helvetica,sans-Serif" font-size="9.00">+ add()</text>
<text text-anchor="start" x="903.5" y="-1113.9" font-family="Helvetica,sans-Serif" font-size="9.00">+ addAll()</text>
<text text-anchor="start" x="903.5" y="-1100.9" font-family="Helvetica,sans-Serif" font-size="9.00">+ clear()</text>
<text text-anchor="start" x="903.5" y="-1087.9" font-family="Helvetica,sans-Serif" font-size="9.00">+ contains()</text>
<text text-anchor="start" x="903.5" y="-1074.9" font-family="Helvetica,sans-Serif" font-size="9.00">+ containsAll()</text>
<text text-anchor="start" x="903.5" y="-1061.9" font-family="Helvetica,sans-Serif" font-size="9.00">+ getCalculationIndex()</text>
<text text-anchor="start" x="903.5" y="-1048.9" font-family="Helvetica,sans-Serif" font-size="9.00">+ isActive()</text>
<text text-anchor="start" x="903.5" y="-1035.9" font-family="Helvetica,sans-Serif" font-size="9.00">+ isEmpty()</text>
<text text-anchor="start" x="903.5" y="-1022.9" font-family="Helvetica,sans-Serif" font-size="9.00">+ iterator()</text>
<text text-anchor="start" x="903.5" y="-1009.9" font-family="Helvetica,sans-Serif" font-size="9.00">+ onSimulationReset()</text>
<text text-anchor="start" x="903.5" y="-996.9" font-family="Helvetica,sans-Serif" font-size="9.00">+ onSimulationStart()</text>
<text text-anchor="start" x="903.5" y="-983.9" font-family="Helvetica,sans-Serif" font-size="9.00">+ onSimulationStop()</text>
<text text-anchor="start" x="903.5" y="-970.9" font-family="Helvetica,sans-Serif" font-size="9.00">+ release()</text>
<text text-anchor="start" x="903.5" y="-957.9" font-family="Helvetica,sans-Serif" font-size="9.00">+ remove()</text>
<text text-anchor="start" x="903.5" y="-944.9" font-family="Helvetica,sans-Serif" font-size="9.00">+ removeAll()</text>
<text text-anchor="start" x="903.5" y="-931.9" font-family="Helvetica,sans-Serif" font-size="9.00">+ retainAll()</text>
<text text-anchor="start" x="903.5" y="-918.9" font-family="Helvetica,sans-Serif" font-size="9.00">+ setActive()</text>
<text text-anchor="start" x="903.5" y="-905.9" font-family="Helvetica,sans-Serif" font-size="9.00">+ size()</text>
<text text-anchor="start" x="903.5" y="-892.9" font-family="Helvetica,sans-Serif" font-size="9.00">+ step()</text>
<text text-anchor="start" x="903.5" y="-879.9" font-family="Helvetica,sans-Serif" font-size="9.00">+ toArray()</text>
<text text-anchor="start" x="903.5" y="-866.9" font-family="Helvetica,sans-Serif" font-size="9.00">+ toArray()</text>
</a>
</g>
<!-- Node1&#45;&gt;Node11 -->
<g id="edge20" class="edge"><title>Node1&#45;&gt;Node11</title>
<path fill="none" stroke="midnightblue" d="M1134.75,-1319.43C1104.43,-1307.87 1071.86,-1290.75 1049,-1266 1036.44,-1252.4 1025.8,-1236.72 1016.79,-1220.08"/>
<polygon fill="none" stroke="midnightblue" points="1133.9,-1322.84 1144.5,-1322.99 1136.31,-1316.27 1133.9,-1322.84"/>
</g>
<!-- Node12 -->
<g id="node23" class="node"><title>Node12</title>
<a xlink:href="../../de/d45/a00175.htm" target="_top" xlink:title="multilayer to create a collection for elements ">
<polygon fill="none" stroke="black" points="1057.5,-812.5 1057.5,-1265.5 1212.5,-1265.5 1212.5,-812.5 1057.5,-812.5"/>
<text text-anchor="start" x="1065.5" y="-1253.4" font-family="Helvetica,sans-Serif" font-size="9.00">de.tu_clausthal.in.mec.object.</text>
<text text-anchor="start" x="1065.5" y="-1240.4" font-family="Helvetica,sans-Serif" font-size="9.00">IMultiLayer&lt; T extends ISteppable</text>
<text text-anchor="middle" x="1135" y="-1227.4" font-family="Helvetica,sans-Serif" font-size="9.00"> &amp;Painter &gt;</text>
<polyline fill="none" stroke="black" points="1057.5,-1218.5 1212.5,-1218.5 "/>
<text text-anchor="start" x="1065.5" y="-1206.4" font-family="Helvetica,sans-Serif" font-size="9.00"># m_active</text>
<text text-anchor="start" x="1065.5" y="-1193.4" font-family="Helvetica,sans-Serif" font-size="9.00"># m_data</text>
<text text-anchor="start" x="1065.5" y="-1180.4" font-family="Helvetica,sans-Serif" font-size="9.00"># m_visible</text>
<polyline fill="none" stroke="black" points="1057.5,-1171.5 1212.5,-1171.5 "/>
<text text-anchor="start" x="1065.5" y="-1159.4" font-family="Helvetica,sans-Serif" font-size="9.00">+ add()</text>
<text text-anchor="start" x="1065.5" y="-1146.4" font-family="Helvetica,sans-Serif" font-size="9.00">+ addAll()</text>
<text text-anchor="start" x="1065.5" y="-1133.4" font-family="Helvetica,sans-Serif" font-size="9.00">+ afterStepObject()</text>
<text text-anchor="start" x="1065.5" y="-1120.4" font-family="Helvetica,sans-Serif" font-size="9.00">+ beforeStepObject()</text>
<text text-anchor="start" x="1065.5" y="-1107.4" font-family="Helvetica,sans-Serif" font-size="9.00">+ clear()</text>
<text text-anchor="start" x="1065.5" y="-1094.4" font-family="Helvetica,sans-Serif" font-size="9.00">+ contains()</text>
<text text-anchor="start" x="1065.5" y="-1081.4" font-family="Helvetica,sans-Serif" font-size="9.00">+ containsAll()</text>
<text text-anchor="start" x="1065.5" y="-1068.4" font-family="Helvetica,sans-Serif" font-size="9.00">+ getCalculationIndex()</text>
<text text-anchor="start" x="1065.5" y="-1055.4" font-family="Helvetica,sans-Serif" font-size="9.00">+ isActive()</text>
<text text-anchor="start" x="1065.5" y="-1042.4" font-family="Helvetica,sans-Serif" font-size="9.00">+ isEmpty()</text>
<text text-anchor="start" x="1065.5" y="-1029.4" font-family="Helvetica,sans-Serif" font-size="9.00">+ isVisible()</text>
<text text-anchor="start" x="1065.5" y="-1016.4" font-family="Helvetica,sans-Serif" font-size="9.00">+ iterator()</text>
<text text-anchor="start" x="1065.5" y="-1003.4" font-family="Helvetica,sans-Serif" font-size="9.00">+ onSimulationReset()</text>
<text text-anchor="start" x="1065.5" y="-990.4" font-family="Helvetica,sans-Serif" font-size="9.00">+ onSimulationStart()</text>
<text text-anchor="start" x="1065.5" y="-977.4" font-family="Helvetica,sans-Serif" font-size="9.00">+ onSimulationStop()</text>
<text text-anchor="start" x="1065.5" y="-964.4" font-family="Helvetica,sans-Serif" font-size="9.00">+ paint()</text>
<text text-anchor="start" x="1065.5" y="-951.4" font-family="Helvetica,sans-Serif" font-size="9.00">+ release()</text>
<text text-anchor="start" x="1065.5" y="-938.4" font-family="Helvetica,sans-Serif" font-size="9.00">+ remove()</text>
<text text-anchor="start" x="1065.5" y="-925.4" font-family="Helvetica,sans-Serif" font-size="9.00">+ removeAll()</text>
<text text-anchor="start" x="1065.5" y="-912.4" font-family="Helvetica,sans-Serif" font-size="9.00">+ retainAll()</text>
<text text-anchor="start" x="1065.5" y="-899.4" font-family="Helvetica,sans-Serif" font-size="9.00">+ setActive()</text>
<text text-anchor="start" x="1065.5" y="-886.4" font-family="Helvetica,sans-Serif" font-size="9.00">+ setVisible()</text>
<text text-anchor="start" x="1065.5" y="-873.4" font-family="Helvetica,sans-Serif" font-size="9.00">+ size()</text>
<text text-anchor="start" x="1065.5" y="-860.4" font-family="Helvetica,sans-Serif" font-size="9.00">+ step()</text>
<text text-anchor="start" x="1065.5" y="-847.4" font-family="Helvetica,sans-Serif" font-size="9.00">+ toArray()</text>
<text text-anchor="start" x="1065.5" y="-834.4" font-family="Helvetica,sans-Serif" font-size="9.00">+ toArray()</text>
<text text-anchor="start" x="1065.5" y="-821.4" font-family="Helvetica,sans-Serif" font-size="9.00"># repaint()</text>
</a>
</g>
<!-- Node1&#45;&gt;Node12 -->
<g id="edge22" class="edge"><title>Node1&#45;&gt;Node12</title>
<path fill="none" stroke="midnightblue" d="M1203.12,-1292.96C1200.87,-1284.59 1198.41,-1275.42 1195.8,-1265.68"/>
<polygon fill="none" stroke="midnightblue" points="1199.77,-1294 1205.74,-1302.75 1206.53,-1292.19 1199.77,-1294"/>
</g>
<!-- Node13 -->
<g id="node25" class="node"><title>Node13</title>
<a xlink:href="../../d8/d00/a00186.htm" target="_top" xlink:title="layer for any calculation atomic task without visibility ">
<polygon fill="none" stroke="black" points="1229.5,-955.5 1229.5,-1122.5 1366.5,-1122.5 1366.5,-955.5 1229.5,-955.5"/>
<text text-anchor="start" x="1237.5" y="-1110.4" font-family="Helvetica,sans-Serif" font-size="9.00">de.tu_clausthal.in.mec.object.</text>
<text text-anchor="middle" x="1298" y="-1097.4" font-family="Helvetica,sans-Serif" font-size="9.00">ISingleEvaluateLayer</text>
<polyline fill="none" stroke="black" points="1229.5,-1088.5 1366.5,-1088.5 "/>
<text text-anchor="start" x="1237.5" y="-1076.4" font-family="Helvetica,sans-Serif" font-size="9.00"># m_active</text>
<polyline fill="none" stroke="black" points="1229.5,-1067.5 1366.5,-1067.5 "/>
<text text-anchor="start" x="1237.5" y="-1055.4" font-family="Helvetica,sans-Serif" font-size="9.00">+ getCalculationIndex()</text>
<text text-anchor="start" x="1237.5" y="-1042.4" font-family="Helvetica,sans-Serif" font-size="9.00">+ isActive()</text>
<text text-anchor="start" x="1237.5" y="-1029.4" font-family="Helvetica,sans-Serif" font-size="9.00">+ onSimulationReset()</text>
<text text-anchor="start" x="1237.5" y="-1016.4" font-family="Helvetica,sans-Serif" font-size="9.00">+ onSimulationStart()</text>
<text text-anchor="start" x="1237.5" y="-1003.4" font-family="Helvetica,sans-Serif" font-size="9.00">+ onSimulationStop()</text>
<text text-anchor="start" x="1237.5" y="-990.4" font-family="Helvetica,sans-Serif" font-size="9.00">+ release()</text>
<text text-anchor="start" x="1237.5" y="-977.4" font-family="Helvetica,sans-Serif" font-size="9.00">+ setActive()</text>
<text text-anchor="start" x="1237.5" y="-964.4" font-family="Helvetica,sans-Serif" font-size="9.00">+ step()</text>
</a>
</g>
<!-- Node1&#45;&gt;Node13 -->
<g id="edge24" class="edge"><title>Node1&#45;&gt;Node13</title>
<path fill="none" stroke="midnightblue" d="M1229.01,-1293.09C1241.43,-1247.34 1260.41,-1177.43 1275.33,-1122.51"/>
<polygon fill="none" stroke="midnightblue" points="1225.63,-1292.18 1226.39,-1302.75 1232.38,-1294.02 1225.63,-1292.18"/>
</g>
<!-- Node15 -->
<g id="node29" class="node"><title>Node15</title>
<a xlink:href="../../d6/daa/a00187.htm" target="_top" xlink:title="single layer to create a single information structure ">
<polygon fill="none" stroke="black" points="1383.5,-929.5 1383.5,-1148.5 1520.5,-1148.5 1520.5,-929.5 1383.5,-929.5"/>
<text text-anchor="start" x="1391.5" y="-1136.4" font-family="Helvetica,sans-Serif" font-size="9.00">de.tu_clausthal.in.mec.object.</text>
<text text-anchor="middle" x="1452" y="-1123.4" font-family="Helvetica,sans-Serif" font-size="9.00">ISingleLayer</text>
<polyline fill="none" stroke="black" points="1383.5,-1114.5 1520.5,-1114.5 "/>
<text text-anchor="start" x="1391.5" y="-1102.4" font-family="Helvetica,sans-Serif" font-size="9.00"># m_active</text>
<text text-anchor="start" x="1391.5" y="-1089.4" font-family="Helvetica,sans-Serif" font-size="9.00"># m_visible</text>
<polyline fill="none" stroke="black" points="1383.5,-1080.5 1520.5,-1080.5 "/>
<text text-anchor="start" x="1391.5" y="-1068.4" font-family="Helvetica,sans-Serif" font-size="9.00">+ getCalculationIndex()</text>
<text text-anchor="start" x="1391.5" y="-1055.4" font-family="Helvetica,sans-Serif" font-size="9.00">+ isActive()</text>
<text text-anchor="start" x="1391.5" y="-1042.4" font-family="Helvetica,sans-Serif" font-size="9.00">+ isVisible()</text>
<text text-anchor="start" x="1391.5" y="-1029.4" font-family="Helvetica,sans-Serif" font-size="9.00">+ onSimulationReset()</text>
<text text-anchor="start" x="1391.5" y="-1016.4" font-family="Helvetica,sans-Serif" font-size="9.00">+ onSimulationStart()</text>
<text text-anchor="start" x="1391.5" y="-1003.4" font-family="Helvetica,sans-Serif" font-size="9.00">+ onSimulationStop()</text>
<text text-anchor="start" x="1391.5" y="-990.4" font-family="Helvetica,sans-Serif" font-size="9.00">+ paint()</text>
<text text-anchor="start" x="1391.5" y="-977.4" font-family="Helvetica,sans-Serif" font-size="9.00">+ release()</text>
<text text-anchor="start" x="1391.5" y="-964.4" font-family="Helvetica,sans-Serif" font-size="9.00">+ setActive()</text>
<text text-anchor="start" x="1391.5" y="-951.4" font-family="Helvetica,sans-Serif" font-size="9.00">+ setVisible()</text>
<text text-anchor="start" x="1391.5" y="-938.4" font-family="Helvetica,sans-Serif" font-size="9.00">+ step()</text>
</a>
</g>
<!-- Node1&#45;&gt;Node15 -->
<g id="edge28" class="edge"><title>Node1&#45;&gt;Node15</title>
<path fill="none" stroke="midnightblue" d="M1296.91,-1317.44C1324.84,-1305.84 1354.28,-1289.22 1375,-1266 1404.09,-1233.4 1422.27,-1189.35 1433.6,-1148.73"/>
<polygon fill="none" stroke="midnightblue" points="1295.51,-1314.23 1287.51,-1321.18 1298.1,-1320.73 1295.51,-1314.23"/>
</g>
<!-- Node16 -->
<g id="node31" class="node"><title>Node16</title>
<a xlink:href="../../d7/ded/a00196.htm" target="_top" xlink:title="interface of an agent with void&#45;steppable interface ">
<polygon fill="none" stroke="black" points="1537.5,-1001 1537.5,-1077 1694.5,-1077 1694.5,-1001 1537.5,-1001"/>
<text text-anchor="start" x="1545.5" y="-1064.9" font-family="Helvetica,sans-Serif" font-size="9.00">de.tu_clausthal.in.mec.object.mas.</text>
<text text-anchor="middle" x="1616" y="-1051.9" font-family="Helvetica,sans-Serif" font-size="9.00">IVoidAgent&lt; T &gt;</text>
<polyline fill="none" stroke="black" points="1537.5,-1043 1694.5,-1043 "/>
<text text-anchor="middle" x="1616" y="-1030.9" font-family="Helvetica,sans-Serif" font-size="9.00"> </text>
<polyline fill="none" stroke="black" points="1537.5,-1022 1694.5,-1022 "/>
<text text-anchor="middle" x="1616" y="-1009.9" font-family="Helvetica,sans-Serif" font-size="9.00"> </text>
</a>
</g>
<!-- Node1&#45;&gt;Node16 -->
<g id="edge30" class="edge"><title>Node1&#45;&gt;Node16</title>
<path fill="none" stroke="midnightblue" d="M1297.75,-1330.18C1378.57,-1317.97 1494.96,-1295.86 1529,-1266 1584.85,-1217.02 1605.02,-1128.1 1612.18,-1077.3"/>
<polygon fill="none" stroke="midnightblue" points="1296.96,-1326.76 1287.58,-1331.69 1297.98,-1333.68 1296.96,-1326.76"/>
</g>
<!-- Node17 -->
<g id="node33" class="node"><title>Node17</title>
<a xlink:href="../../d4/d63/a00082.htm" target="_top" xlink:title="message handler class ">
<polygon fill="none" stroke="black" points="1711.5,-929.5 1711.5,-1148.5 1894.5,-1148.5 1894.5,-929.5 1711.5,-929.5"/>
<text text-anchor="start" x="1719.5" y="-1136.4" font-family="Helvetica,sans-Serif" font-size="9.00">de.tu_clausthal.in.mec.runtime.message.</text>
<text text-anchor="middle" x="1803" y="-1123.4" font-family="Helvetica,sans-Serif" font-size="9.00">CMessageSystem</text>
<polyline fill="none" stroke="black" points="1711.5,-1114.5 1894.5,-1114.5 "/>
<text text-anchor="start" x="1719.5" y="-1102.4" font-family="Helvetica,sans-Serif" font-size="9.00">&#45; m_communicator</text>
<text text-anchor="start" x="1719.5" y="-1089.4" font-family="Helvetica,sans-Serif" font-size="9.00">&#45; m_listener</text>
<text text-anchor="start" x="1719.5" y="-1076.4" font-family="Helvetica,sans-Serif" font-size="9.00">&#45; m_messageflow</text>
<text text-anchor="start" x="1719.5" y="-1063.4" font-family="Helvetica,sans-Serif" font-size="9.00">&#45; m_root</text>
<polyline fill="none" stroke="black" points="1711.5,-1054.5 1894.5,-1054.5 "/>
<text text-anchor="start" x="1719.5" y="-1042.4" font-family="Helvetica,sans-Serif" font-size="9.00">+ addActionListener()</text>
<text text-anchor="start" x="1719.5" y="-1029.4" font-family="Helvetica,sans-Serif" font-size="9.00">+ pushMessage()</text>
<text text-anchor="start" x="1719.5" y="-1016.4" font-family="Helvetica,sans-Serif" font-size="9.00">+ register()</text>
<text text-anchor="start" x="1719.5" y="-1003.4" font-family="Helvetica,sans-Serif" font-size="9.00">+ release()</text>
<text text-anchor="start" x="1719.5" y="-990.4" font-family="Helvetica,sans-Serif" font-size="9.00">+ removeListener()</text>
<text text-anchor="start" x="1719.5" y="-977.4" font-family="Helvetica,sans-Serif" font-size="9.00">+ step()</text>
<text text-anchor="start" x="1719.5" y="-964.4" font-family="Helvetica,sans-Serif" font-size="9.00">+ unregister()</text>
<text text-anchor="start" x="1719.5" y="-951.4" font-family="Helvetica,sans-Serif" font-size="9.00">&#45; incrementMessageFlow()</text>
<text text-anchor="start" x="1719.5" y="-938.4" font-family="Helvetica,sans-Serif" font-size="9.00">&#45; web_dynamic_flow()</text>
</a>
</g>
<!-- Node1&#45;&gt;Node17 -->
<g id="edge32" class="edge"><title>Node1&#45;&gt;Node17</title>
<path fill="none" stroke="midnightblue" d="M1297.83,-1337.76C1419.65,-1331.42 1641.02,-1313.54 1703,-1266 1740.42,-1237.3 1764.12,-1191.62 1779,-1148.74"/>
<polygon fill="none" stroke="midnightblue" points="1297.61,-1334.27 1287.8,-1338.27 1297.96,-1341.26 1297.61,-1334.27"/>
</g>
<!-- Node2 -->
<g id="node2" class="node"><title>Node2</title>
<a xlink:href="../../da/d15/a00188.htm" target="_top" xlink:title="interface for all objects which are triggered by the simulation worker ">
<polygon fill="none" stroke="black" points="1144.5,-1417 1144.5,-1493 1287.5,-1493 1287.5,-1417 1144.5,-1417"/>
<text text-anchor="start" x="1152.5" y="-1480.9" font-family="Helvetica,sans-Serif" font-size="9.00">de.tu_clausthal.in.mec.runtime.</text>
<text text-anchor="middle" x="1216" y="-1467.9" font-family="Helvetica,sans-Serif" font-size="9.00">ISteppable</text>
<polyline fill="none" stroke="black" points="1144.5,-1459 1287.5,-1459 "/>
<text text-anchor="middle" x="1216" y="-1446.9" font-family="Helvetica,sans-Serif" font-size="9.00"> </text>
<polyline fill="none" stroke="black" points="1144.5,-1438 1287.5,-1438 "/>
<text text-anchor="start" x="1152.5" y="-1425.9" font-family="Helvetica,sans-Serif" font-size="9.00">+ release()</text>
</a>
</g>
<!-- Node2&#45;&gt;Node1 -->
<g id="edge2" class="edge"><title>Node2&#45;&gt;Node1</title>
<path fill="none" stroke="midnightblue" d="M1216,-1406.62C1216,-1397.52 1216,-1388.12 1216,-1379.37"/>
<polygon fill="none" stroke="midnightblue" points="1212.5,-1406.72 1216,-1416.72 1219.5,-1406.72 1212.5,-1406.72"/>
</g>
<!-- Node4 -->
<g id="node7" class="node"><title>Node4</title>
<a xlink:href="../../d0/dc0/a00033.htm" target="_top" xlink:title="worker to get beliefs of the agents ">
<polygon fill="none" stroke="black" points="-0.5,-484.5 -0.5,-573.5 172.5,-573.5 172.5,-484.5 -0.5,-484.5"/>
<text text-anchor="start" x="7.5" y="-561.4" font-family="Helvetica,sans-Serif" font-size="9.00">de.tu_clausthal.in.mec.object.analysis.</text>
<text text-anchor="middle" x="86" y="-548.4" font-family="Helvetica,sans-Serif" font-size="9.00">CEvaluationStore.CCollectorAgent</text>
<polyline fill="none" stroke="black" points="-0.5,-539.5 172.5,-539.5 "/>
<text text-anchor="start" x="7.5" y="-527.4" font-family="Helvetica,sans-Serif" font-size="9.00">&#45; m_statement</text>
<polyline fill="none" stroke="black" points="-0.5,-518.5 172.5,-518.5 "/>
<text text-anchor="start" x="7.5" y="-506.4" font-family="Helvetica,sans-Serif" font-size="9.00">+ CCollectorAgent()</text>
<text text-anchor="start" x="7.5" y="-493.4" font-family="Helvetica,sans-Serif" font-size="9.00">+ step()</text>
</a>
</g>
<!-- Node3&#45;&gt;Node4 -->
<g id="edge6" class="edge"><title>Node3&#45;&gt;Node4</title>
<path fill="none" stroke="midnightblue" d="M421.761,-995.029C352.162,-948.282 246.713,-868.436 181,-776 136.145,-712.903 109.18,-625.859 95.9876,-573.728"/>
<polygon fill="none" stroke="midnightblue" points="420.226,-998.212 430.489,-1000.84 424.107,-992.386 420.226,-998.212"/>
</g>
<!-- Node5 -->
<g id="node9" class="node"><title>Node5</title>
<a xlink:href="../../db/df3/a00034.htm" target="_top" xlink:title="worker to get beliefs of the agents ">
<polygon fill="none" stroke="black" points="189.5,-484.5 189.5,-573.5 362.5,-573.5 362.5,-484.5 189.5,-484.5"/>
<text text-anchor="start" x="197.5" y="-561.4" font-family="Helvetica,sans-Serif" font-size="9.00">de.tu_clausthal.in.mec.object.analysis.</text>
<text text-anchor="middle" x="276" y="-548.4" font-family="Helvetica,sans-Serif" font-size="9.00">CEvaluationStore.CCollectorBelief</text>
<polyline fill="none" stroke="black" points="189.5,-539.5 362.5,-539.5 "/>
<text text-anchor="start" x="197.5" y="-527.4" font-family="Helvetica,sans-Serif" font-size="9.00">&#45; m_statement</text>
<polyline fill="none" stroke="black" points="189.5,-518.5 362.5,-518.5 "/>
<text text-anchor="start" x="197.5" y="-506.4" font-family="Helvetica,sans-Serif" font-size="9.00">+ CCollectorBelief()</text>
<text text-anchor="start" x="197.5" y="-493.4" font-family="Helvetica,sans-Serif" font-size="9.00">+ step()</text>
</a>
</g>
<!-- Node3&#45;&gt;Node5 -->
<g id="edge8" class="edge"><title>Node3&#45;&gt;Node5</title>
<path fill="none" stroke="midnightblue" d="M469.045,-991.529C443.991,-939.172 403.157,-852.232 371,-776 341.446,-705.94 310.4,-623.234 292.143,-573.514"/>
<polygon fill="none" stroke="midnightblue" points="465.903,-993.071 473.382,-1000.58 472.215,-990.045 465.903,-993.071"/>
</g>
<!-- Node6 -->
<g id="node11" class="node"><title>Node6</title>
<a xlink:href="../../d4/d8c/a00035.htm" target="_top" xlink:title="worker to get data for fundamental diagram ">
<polygon fill="none" stroke="black" points="380,-484.5 380,-573.5 604,-573.5 604,-484.5 380,-484.5"/>
<text text-anchor="start" x="388" y="-561.4" font-family="Helvetica,sans-Serif" font-size="9.00">de.tu_clausthal.in.mec.object.analysis.</text>
<text text-anchor="middle" x="492" y="-548.4" font-family="Helvetica,sans-Serif" font-size="9.00">CEvaluationStore.CCollectorFundamentalDiagram</text>
<polyline fill="none" stroke="black" points="380,-539.5 604,-539.5 "/>
<text text-anchor="start" x="388" y="-527.4" font-family="Helvetica,sans-Serif" font-size="9.00">&#45; m_statement</text>
<polyline fill="none" stroke="black" points="380,-518.5 604,-518.5 "/>
<text text-anchor="start" x="388" y="-506.4" font-family="Helvetica,sans-Serif" font-size="9.00">+ CCollectorFundamentalDiagram()</text>
<text text-anchor="start" x="388" y="-493.4" font-family="Helvetica,sans-Serif" font-size="9.00">+ step()</text>
</a>
</g>
<!-- Node3&#45;&gt;Node6 -->
<g id="edge10" class="edge"><title>Node3&#45;&gt;Node6</title>
<path fill="none" stroke="midnightblue" d="M492,-990.376C492,-891.598 492,-668.775 492,-573.534"/>
<polygon fill="none" stroke="midnightblue" points="488.5,-990.667 492,-1000.67 495.5,-990.667 488.5,-990.667"/>
</g>
<!-- Node7 -->
<g id="node13" class="node"><title>Node7</title>
<a xlink:href="../../de/d8c/a00036.htm" target="_top" xlink:title="worker to collect inconsistency via reflection ">
<polygon fill="none" stroke="black" points="622,-478 622,-580 812,-580 812,-478 622,-478"/>
<text text-anchor="start" x="630" y="-567.9" font-family="Helvetica,sans-Serif" font-size="9.00">de.tu_clausthal.in.mec.object.analysis.</text>
<text text-anchor="middle" x="717" y="-554.9" font-family="Helvetica,sans-Serif" font-size="9.00">CEvaluationStore.CCollectorInconsistency</text>
<polyline fill="none" stroke="black" points="622,-546 812,-546 "/>
<text text-anchor="start" x="630" y="-533.9" font-family="Helvetica,sans-Serif" font-size="9.00">&#45; m_access</text>
<text text-anchor="start" x="630" y="-520.9" font-family="Helvetica,sans-Serif" font-size="9.00">&#45; m_statement</text>
<polyline fill="none" stroke="black" points="622,-512 812,-512 "/>
<text text-anchor="start" x="630" y="-499.9" font-family="Helvetica,sans-Serif" font-size="9.00">+ CCollectorInconsistency()</text>
<text text-anchor="start" x="630" y="-486.9" font-family="Helvetica,sans-Serif" font-size="9.00">+ step()</text>
</a>
</g>
<!-- Node3&#45;&gt;Node7 -->
<g id="edge12" class="edge"><title>Node3&#45;&gt;Node7</title>
<path fill="none" stroke="midnightblue" d="M514.288,-991.783C538.927,-939.305 579.556,-851.935 613,-776 642.631,-708.722 675.302,-630.403 695.973,-580.299"/>
<polygon fill="none" stroke="midnightblue" points="511.113,-990.309 510.028,-1000.85 517.449,-993.287 511.113,-990.309"/>
</g>
<!-- Node9 -->
<g id="node17" class="node"><title>Node9</title>
<a xlink:href="../../d5/df9/a00044.htm" target="_top" xlink:title="class for a default car * ">
<polygon fill="none" stroke="black" points="830,-283 830,-775 982,-775 982,-283 830,-283"/>
<text text-anchor="start" x="838" y="-762.9" font-family="Helvetica,sans-Serif" font-size="9.00">de.tu_clausthal.in.mec.object.car.</text>
<text text-anchor="middle" x="906" y="-749.9" font-family="Helvetica,sans-Serif" font-size="9.00">CDefaultCar</text>
<polyline fill="none" stroke="black" points="830,-741 982,-741 "/>
<text text-anchor="start" x="838" y="-728.9" font-family="Helvetica,sans-Serif" font-size="9.00"># m_layer</text>
<text text-anchor="start" x="838" y="-715.9" font-family="Helvetica,sans-Serif" font-size="9.00"># m_maxspeed</text>
<text text-anchor="start" x="838" y="-702.9" font-family="Helvetica,sans-Serif" font-size="9.00"># m_route</text>
<text text-anchor="start" x="838" y="-689.9" font-family="Helvetica,sans-Serif" font-size="9.00"># m_routeindex</text>
<text text-anchor="start" x="838" y="-676.9" font-family="Helvetica,sans-Serif" font-size="9.00"># m_speed</text>
<text text-anchor="start" x="838" y="-663.9" font-family="Helvetica,sans-Serif" font-size="9.00">&#45; m_acceleration</text>
<text text-anchor="start" x="838" y="-650.9" font-family="Helvetica,sans-Serif" font-size="9.00">&#45; m_deceleration</text>
<text text-anchor="start" x="838" y="-637.9" font-family="Helvetica,sans-Serif" font-size="9.00">&#45; m_endreached</text>
<text text-anchor="start" x="838" y="-624.9" font-family="Helvetica,sans-Serif" font-size="9.00">&#45; m_inspect</text>
<text text-anchor="start" x="838" y="-611.9" font-family="Helvetica,sans-Serif" font-size="9.00">&#45; m_lingerprobability</text>
<polyline fill="none" stroke="black" points="830,-603 982,-603 "/>
<text text-anchor="start" x="838" y="-590.9" font-family="Helvetica,sans-Serif" font-size="9.00">+ CDefaultCar()</text>
<text text-anchor="start" x="838" y="-577.9" font-family="Helvetica,sans-Serif" font-size="9.00">+ getAcceleration()</text>
<text text-anchor="start" x="838" y="-564.9" font-family="Helvetica,sans-Serif" font-size="9.00">+ getCurrentSpeed()</text>
<text text-anchor="start" x="838" y="-551.9" font-family="Helvetica,sans-Serif" font-size="9.00">+ getDeceleration()</text>
<text text-anchor="start" x="838" y="-538.9" font-family="Helvetica,sans-Serif" font-size="9.00">+ getEdge()</text>
<text text-anchor="start" x="838" y="-525.9" font-family="Helvetica,sans-Serif" font-size="9.00">+ getGeoposition()</text>
<text text-anchor="start" x="838" y="-512.9" font-family="Helvetica,sans-Serif" font-size="9.00">+ getLingerProbability()</text>
<text text-anchor="start" x="838" y="-499.9" font-family="Helvetica,sans-Serif" font-size="9.00">+ getMaximumSpeed()</text>
<text text-anchor="start" x="838" y="-486.9" font-family="Helvetica,sans-Serif" font-size="9.00">+ getPredecessor()</text>
<text text-anchor="start" x="838" y="-473.9" font-family="Helvetica,sans-Serif" font-size="9.00">+ getPredecessor()</text>
<text text-anchor="start" x="838" y="-460.9" font-family="Helvetica,sans-Serif" font-size="9.00">+ hasEndReached()</text>
<text text-anchor="start" x="838" y="-447.9" font-family="Helvetica,sans-Serif" font-size="9.00">+ inspect()</text>
<text text-anchor="start" x="838" y="-434.9" font-family="Helvetica,sans-Serif" font-size="9.00">+ onClick()</text>
<text text-anchor="start" x="838" y="-421.9" font-family="Helvetica,sans-Serif" font-size="9.00">+ paint()</text>
<text text-anchor="start" x="838" y="-408.9" font-family="Helvetica,sans-Serif" font-size="9.00">+ release()</text>
<text text-anchor="start" x="838" y="-395.9" font-family="Helvetica,sans-Serif" font-size="9.00">+ setCurrentSpeed()</text>
<text text-anchor="start" x="838" y="-382.9" font-family="Helvetica,sans-Serif" font-size="9.00">+ step()</text>
<text text-anchor="start" x="838" y="-369.9" font-family="Helvetica,sans-Serif" font-size="9.00"># getCurrentPosition()</text>
<text text-anchor="start" x="838" y="-356.9" font-family="Helvetica,sans-Serif" font-size="9.00">&#45; getCurrentCarsOnEdge()</text>
<text text-anchor="start" x="838" y="-343.9" font-family="Helvetica,sans-Serif" font-size="9.00">&#45; getCurrentEdgeMaxSpeed()</text>
<text text-anchor="start" x="838" y="-330.9" font-family="Helvetica,sans-Serif" font-size="9.00">&#45; getEdge()</text>
<text text-anchor="start" x="838" y="-317.9" font-family="Helvetica,sans-Serif" font-size="9.00">&#45; getRouteLine()</text>
<text text-anchor="start" x="838" y="-304.9" font-family="Helvetica,sans-Serif" font-size="9.00">&#45; reroute()</text>
<text text-anchor="start" x="838" y="-291.9" font-family="Helvetica,sans-Serif" font-size="9.00">&#45; reroute()</text>
</a>
</g>
<!-- Node8&#45;&gt;Node9 -->
<g id="edge16" class="edge"><title>Node8&#45;&gt;Node9</title>
<path fill="none" stroke="midnightblue" d="M816.596,-932.504C826.796,-886.467 839.193,-830.519 851.465,-775.129"/>
<polygon fill="none" stroke="midnightblue" points="813.133,-931.953 814.387,-942.473 819.968,-933.467 813.133,-931.953"/>
</g>
<!-- Node10 -->
<g id="node19" class="node"><title>Node10</title>
<a xlink:href="../../dc/de2/a00024.htm" target="_top" xlink:title="agent car ">
<polygon fill="none" stroke="black" points="830,-0.5 830,-245.5 982,-245.5 982,-0.5 830,-0.5"/>
<text text-anchor="start" x="838" y="-233.4" font-family="Helvetica,sans-Serif" font-size="9.00">de.tu_clausthal.in.mec.object.car.</text>
<text text-anchor="middle" x="906" y="-220.4" font-family="Helvetica,sans-Serif" font-size="9.00">CCarJasonAgent</text>
<polyline fill="none" stroke="black" points="830,-211.5 982,-211.5 "/>
<text text-anchor="start" x="838" y="-199.4" font-family="Helvetica,sans-Serif" font-size="9.00">&#45; m_agentlayer</text>
<text text-anchor="start" x="838" y="-186.4" font-family="Helvetica,sans-Serif" font-size="9.00">&#45; m_agents</text>
<text text-anchor="start" x="838" y="-173.4" font-family="Helvetica,sans-Serif" font-size="9.00">&#45; m_inspect</text>
<text text-anchor="start" x="838" y="-160.4" font-family="Helvetica,sans-Serif" font-size="9.00">&#45; m_objectpath</text>
<text text-anchor="start" x="838" y="-147.4" font-family="Helvetica,sans-Serif" font-size="9.00">&#45; m_seenpredecessors</text>
<text text-anchor="start" x="838" y="-134.4" font-family="Helvetica,sans-Serif" font-size="9.00">&#45; m_trafficbeliefbase</text>
<polyline fill="none" stroke="black" points="830,-125.5 982,-125.5 "/>
<text text-anchor="start" x="838" y="-113.4" font-family="Helvetica,sans-Serif" font-size="9.00">+ CCarJasonAgent()</text>
<text text-anchor="start" x="838" y="-100.4" font-family="Helvetica,sans-Serif" font-size="9.00">+ CCarJasonAgent()</text>
<text text-anchor="start" x="838" y="-87.4" font-family="Helvetica,sans-Serif" font-size="9.00">+ getReceiverPath()</text>
<text text-anchor="start" x="838" y="-74.4" font-family="Helvetica,sans-Serif" font-size="9.00">+ inspect()</text>
<text text-anchor="start" x="838" y="-61.4" font-family="Helvetica,sans-Serif" font-size="9.00">+ receiveMessage()</text>
<text text-anchor="start" x="838" y="-48.4" font-family="Helvetica,sans-Serif" font-size="9.00">+ release()</text>
<text text-anchor="start" x="838" y="-35.4" font-family="Helvetica,sans-Serif" font-size="9.00">+ step()</text>
<text text-anchor="start" x="838" y="-22.4" font-family="Helvetica,sans-Serif" font-size="9.00">&#45; bind()</text>
<text text-anchor="start" x="838" y="-9.4" font-family="Helvetica,sans-Serif" font-size="9.00">&#45; getPredecessorWithName()</text>
</a>
</g>
<!-- Node9&#45;&gt;Node10 -->
<g id="edge18" class="edge"><title>Node9&#45;&gt;Node10</title>
<path fill="none" stroke="midnightblue" d="M906,-272.848C906,-263.656 906,-254.621 906,-245.825"/>
<polygon fill="none" stroke="midnightblue" points="902.5,-272.879 906,-282.879 909.5,-272.879 902.5,-272.879"/>
</g>
<!-- Node14 -->
<g id="node27" class="node"><title>Node14</title>
<a xlink:href="../../d7/df7/a00058.htm" target="_top" xlink:title="layer with inconsistence data ">
<polygon fill="none" stroke="black" points="1190.5,-361 1190.5,-697 1405.5,-697 1405.5,-361 1190.5,-361"/>
<text text-anchor="start" x="1198.5" y="-684.9" font-family="Helvetica,sans-Serif" font-size="9.00">de.tu_clausthal.in.mec.object.mas.inconsistency.</text>
<text text-anchor="middle" x="1298" y="-671.9" font-family="Helvetica,sans-Serif" font-size="9.00">CInconsistencyLayer&lt; T extends IAgent &gt;</text>
<polyline fill="none" stroke="black" points="1190.5,-663 1405.5,-663 "/>
<text text-anchor="start" x="1198.5" y="-650.9" font-family="Helvetica,sans-Serif" font-size="9.00">&#45; m_algorithm</text>
<text text-anchor="start" x="1198.5" y="-637.9" font-family="Helvetica,sans-Serif" font-size="9.00">&#45; m_data</text>
<text text-anchor="start" x="1198.5" y="-624.9" font-family="Helvetica,sans-Serif" font-size="9.00">&#45; m_epsilon</text>
<text text-anchor="start" x="1198.5" y="-611.9" font-family="Helvetica,sans-Serif" font-size="9.00">&#45; m_iteration</text>
<text text-anchor="start" x="1198.5" y="-598.9" font-family="Helvetica,sans-Serif" font-size="9.00">&#45; m_metric</text>
<text text-anchor="start" x="1198.5" y="-585.9" font-family="Helvetica,sans-Serif" font-size="9.00">&#45; m_name</text>
<text text-anchor="start" x="1198.5" y="-572.9" font-family="Helvetica,sans-Serif" font-size="9.00">&#45; m_updatestep</text>
<text text-anchor="start" x="1198.5" y="-559.9" font-family="Helvetica,sans-Serif" font-size="9.00">&#45; c_algebra</text>
<polyline fill="none" stroke="black" points="1190.5,-551 1405.5,-551 "/>
<text text-anchor="start" x="1198.5" y="-538.9" font-family="Helvetica,sans-Serif" font-size="9.00">+ CInconsistencyLayer()</text>
<text text-anchor="start" x="1198.5" y="-525.9" font-family="Helvetica,sans-Serif" font-size="9.00">+ CInconsistencyLayer()</text>
<text text-anchor="start" x="1198.5" y="-512.9" font-family="Helvetica,sans-Serif" font-size="9.00">+ add()</text>
<text text-anchor="start" x="1198.5" y="-499.9" font-family="Helvetica,sans-Serif" font-size="9.00">+ getCalculationIndex()</text>
<text text-anchor="start" x="1198.5" y="-486.9" font-family="Helvetica,sans-Serif" font-size="9.00">+ getInconsistencyValue()</text>
<text text-anchor="start" x="1198.5" y="-473.9" font-family="Helvetica,sans-Serif" font-size="9.00">+ getMetric()</text>
<text text-anchor="start" x="1198.5" y="-460.9" font-family="Helvetica,sans-Serif" font-size="9.00">+ remove()</text>
<text text-anchor="start" x="1198.5" y="-447.9" font-family="Helvetica,sans-Serif" font-size="9.00">+ setMetric()</text>
<text text-anchor="start" x="1198.5" y="-434.9" font-family="Helvetica,sans-Serif" font-size="9.00">+ step()</text>
<text text-anchor="start" x="1198.5" y="-421.9" font-family="Helvetica,sans-Serif" font-size="9.00">+ toString()</text>
<text text-anchor="start" x="1198.5" y="-408.9" font-family="Helvetica,sans-Serif" font-size="9.00">&#45; getMetricValue()</text>
<text text-anchor="start" x="1198.5" y="-395.9" font-family="Helvetica,sans-Serif" font-size="9.00">&#45; getStationaryDistribution()</text>
<text text-anchor="start" x="1198.5" y="-382.9" font-family="Helvetica,sans-Serif" font-size="9.00">&#45; getLargestEigenvector()</text>
<text text-anchor="start" x="1198.5" y="-369.9" font-family="Helvetica,sans-Serif" font-size="9.00">&#45; getLargestEigenvector()</text>
</a>
</g>
<!-- Node13&#45;&gt;Node14 -->
<g id="edge26" class="edge"><title>Node13&#45;&gt;Node14</title>
<path fill="none" stroke="midnightblue" d="M1298,-945.324C1298,-875.973 1298,-779.61 1298,-697.057"/>
<polygon fill="none" stroke="midnightblue" points="1294.5,-945.355 1298,-955.355 1301.5,-945.355 1294.5,-945.355"/>
</g>
</g>
</svg>
        <g id="navigator" transform="translate(0 0)" fill="#404254">
                <rect fill="#f2f5e9" fill-opacity="0.5" stroke="#606060" stroke-width=".5" x="0" y="0" width="60" height="60"/>
                <use id="zoomplus" xlink:href="#zoomPlus" x="17" y="9" onmousedown="handleZoom(evt,'in')"/>
                <use id="zoomminus" xlink:href="#zoomMin" x="42" y="9" onmousedown="handleZoom(evt,'out')"/>
                <use id="reset" xlink:href="#resetDef" x="30" y="36" onmousedown="handleReset()"/>
                <g id="arrowUp" xlink:href="#dirArrow" transform="translate(30 24)" onmousedown="handlePan(0,-1)">
                  <use xlink:href="#rim" fill="#404040">
                        <set attributeName="fill" to="#808080" begin="arrowUp.mouseover" end="arrowUp.mouseout"/>
                  </use>
                  <path fill="none" stroke="white" stroke-width="1.5" d="M0,-3.0v7 M-2.5,-0.5L0,-3.0L2.5,-0.5"/>
                </g>
                <g id="arrowRight" xlink:href="#dirArrow" transform="rotate(90) translate(36 -43)" onmousedown="handlePan(1,0)">
                  <use xlink:href="#rim" fill="#404040">
                        <set attributeName="fill" to="#808080" begin="arrowRight.mouseover" end="arrowRight.mouseout"/>
                  </use>
                  <path fill="none" stroke="white" stroke-width="1.5" d="M0,-3.0v7 M-2.5,-0.5L0,-3.0L2.5,-0.5"/>
                </g>
                <g id="arrowDown" xlink:href="#dirArrow" transform="rotate(180) translate(-30 -48)" onmousedown="handlePan(0,1)">
                  <use xlink:href="#rim" fill="#404040">
                        <set attributeName="fill" to="#808080" begin="arrowDown.mouseover" end="arrowDown.mouseout"/>
                  </use>
                  <path fill="none" stroke="white" stroke-width="1.5" d="M0,-3.0v7 M-2.5,-0.5L0,-3.0L2.5,-0.5"/>
                </g>
                <g id="arrowLeft" xlink:href="#dirArrow" transform="rotate(270) translate(-36 17)" onmousedown="handlePan(-1,0)">
                  <use xlink:href="#rim" fill="#404040">
                        <set attributeName="fill" to="#808080" begin="arrowLeft.mouseover" end="arrowLeft.mouseout"/>
                  </use>
                  <path fill="none" stroke="white" stroke-width="1.5" d="M0,-3.0v7 M-2.5,-0.5L0,-3.0L2.5,-0.5"/>
                </g>
        </g>
        <svg viewBox="0 0 15 15" width="100%" height="30px" preserveAspectRatio="xMaxYMin meet">
         <g id="arrow_out" transform="scale(0.3 0.3)">
          <a xlink:href="a00776_org.svg" target="_base">
           <rect id="button" ry="5" rx="5" y="6" x="6" height="38" width="38"
                fill="#f2f5e9" fill-opacity="0.5" stroke="#606060" stroke-width="1.0"/>
           <path id="arrow"
             d="M 11.500037,31.436501 C 11.940474,20.09759 22.043105,11.32322 32.158766,21.979434 L 37.068811,17.246167 C 37.068811,17.246167 37.088388,32 37.088388,32 L 22.160133,31.978069 C 22.160133,31.978069 26.997745,27.140456 26.997745,27.140456 C 18.528582,18.264221 13.291696,25.230495 11.500037,31.436501 z"
             style="fill:#404040;"/>
          </a>
         </g>
        </svg>
</svg>
