<?xml version="1.0" encoding="UTF-8" standalone="no"?>
<!DOCTYPE svg PUBLIC "-//W3C//DTD SVG 1.1//EN"
 "http://www.w3.org/Graphics/SVG/1.1/DTD/svg11.dtd">
<!-- Generated by graphviz version 2.26.3 (20100126.1600)
 -->
<!-- Title: mas Pages: 1 -->
<svg width="344pt" height="113pt"
 viewBox="0.00 0.00 344.00 113.00" xmlns="http://www.w3.org/2000/svg" xmlns:xlink="http://www.w3.org/1999/xlink">
<g id="graph1" class="graph" transform="scale(1 1) rotate(0) translate(4 109)">
<title>mas</title>
<g id="graph2" class="cluster"><title>clusterdir_3682bace6c36f7f0d786b6bb0aa60e1b</title>
<a xlink:href="dir_3682bace6c36f7f0d786b6bb0aa60e1b.htm" target="_top" xlink:title="object">
<polygon fill="#ddddee" stroke="black" points="8,-8 8,-97 328,-97 328,-8 8,-8"/>
<text text-anchor="middle" x="168" y="-84.9" font-family="Helvetica,sans-Serif" font-size="9.00">object</text>
</a>
</g>
<g id="graph3" class="cluster"><title>clusterdir_9ce4f8879c83737678fc430184e9e43a</title>
<a xlink:href="dir_9ce4f8879c83737678fc430184e9e43a.htm" target="_top">
<polygon fill="#eeeeff" stroke="black" points="16,-16 16,-68 320,-68 320,-16 16,-16"/>
</a>
</g>
<!-- dir_9ce4f8879c83737678fc430184e9e43a -->
<g id="node3" class="node"><title>dir_9ce4f8879c83737678fc430184e9e43a</title>
<text text-anchor="middle" x="285" y="-40.4" font-family="Helvetica,sans-Serif" font-size="9.00">mas</text>
</g>
<!-- dir_039a4ff14eddfe845381d71b3f6c8ac0 -->
<g id="node4" class="node"><title>dir_039a4ff14eddfe845381d71b3f6c8ac0</title>
<a xlink:href="dir_039a4ff14eddfe845381d71b3f6c8ac0.htm" target="_top" xlink:title="generic">
<polygon fill="white" stroke="red" points="240,-60 186,-60 186,-24 240,-24 240,-60"/>
<text text-anchor="middle" x="213" y="-40.4" font-family="Helvetica,sans-Serif" font-size="9.00">generic</text>
</a>
</g>
<!-- dir_6616271f149c55563845d1b3a868866b -->
<g id="node5" class="node"><title>dir_6616271f149c55563845d1b3a868866b</title>
<a xlink:href="dir_6616271f149c55563845d1b3a868866b.htm" target="_top" xlink:title="inconsistency">
<polygon fill="white" stroke="black" points="168,-60 96,-60 96,-24 168,-24 168,-60"/>
<text text-anchor="middle" x="132" y="-40.4" font-family="Helvetica,sans-Serif" font-size="9.00">inconsistency</text>
</a>
</g>
<!-- dir_e8ebdb0c202e1a46e6fe76f9639ab4b5 -->
<g id="node6" class="node"><title>dir_e8ebdb0c202e1a46e6fe76f9639ab4b5</title>
<a xlink:href="dir_e8ebdb0c202e1a46e6fe76f9639ab4b5.htm" target="_top" xlink:title="jason">
<polygon fill="white" stroke="red" points="78,-60 24,-60 24,-24 78,-24 78,-60"/>
<text text-anchor="middle" x="51" y="-40.4" font-family="Helvetica,sans-Serif" font-size="9.00">jason</text>
</a>
</g>
</g>
</svg>
