<?xml version="1.0" encoding="UTF-8" standalone="no"?>
<!DOCTYPE svg PUBLIC "-//W3C//DTD SVG 1.1//EN"
 "http://www.w3.org/Graphics/SVG/1.1/DTD/svg11.dtd">
<!-- Generated by graphviz version 2.26.3 (20100126.1600)
 -->
<!-- Title: runtime Pages: 1 -->
<svg width="334pt" height="113pt"
 viewBox="0.00 0.00 334.00 113.00" xmlns="http://www.w3.org/2000/svg" xmlns:xlink="http://www.w3.org/1999/xlink">
<g id="graph1" class="graph" transform="scale(1 1) rotate(0) translate(4 109)">
<title>runtime</title>
<g id="graph2" class="cluster"><title>clusterdir_8d8b1d03e3610417aa00e8f74c101c80</title>
<a xlink:href="dir_8d8b1d03e3610417aa00e8f74c101c80.htm" target="_top" xlink:title="mec">
<polygon fill="#ddddee" stroke="black" points="8,-8 8,-97 318,-97 318,-8 8,-8"/>
<text text-anchor="middle" x="163" y="-84.9" font-family="Helvetica,sans-Serif" font-size="9.00">mec</text>
</a>
</g>
<g id="graph3" class="cluster"><title>clusterdir_ff63a61a7443e6f6544a5a90bf3df32b</title>
<a xlink:href="dir_ff63a61a7443e6f6544a5a90bf3df32b.htm" target="_top">
<polygon fill="#eeeeff" stroke="black" points="16,-16 16,-68 310,-68 310,-16 16,-16"/>
</a>
</g>
<!-- dir_ff63a61a7443e6f6544a5a90bf3df32b -->
<g id="node3" class="node"><title>dir_ff63a61a7443e6f6544a5a90bf3df32b</title>
<text text-anchor="middle" x="275" y="-40.4" font-family="Helvetica,sans-Serif" font-size="9.00">runtime</text>
</g>
<!-- dir_646fe4339af3df636bebd02b8cbb53cc -->
<g id="node4" class="node"><title>dir_646fe4339af3df636bebd02b8cbb53cc</title>
<a xlink:href="dir_646fe4339af3df636bebd02b8cbb53cc.htm" target="_top" xlink:title="benchmark">
<polygon fill="white" stroke="black" points="230,-60 168,-60 168,-24 230,-24 230,-60"/>
<text text-anchor="middle" x="199" y="-40.4" font-family="Helvetica,sans-Serif" font-size="9.00">benchmark</text>
</a>
</g>
<!-- dir_0d6dfa31425f2e3b277d5b2be1a41975 -->
<g id="node5" class="node"><title>dir_0d6dfa31425f2e3b277d5b2be1a41975</title>
<a xlink:href="dir_0d6dfa31425f2e3b277d5b2be1a41975.htm" target="_top" xlink:title="core">
<polygon fill="white" stroke="black" points="150,-60 96,-60 96,-24 150,-24 150,-60"/>
<text text-anchor="middle" x="123" y="-40.4" font-family="Helvetica,sans-Serif" font-size="9.00">core</text>
</a>
</g>
<!-- dir_36e4d8ffb452e9c19852aad82c041fb6 -->
<g id="node6" class="node"><title>dir_36e4d8ffb452e9c19852aad82c041fb6</title>
<a xlink:href="dir_36e4d8ffb452e9c19852aad82c041fb6.htm" target="_top" xlink:title="message">
<polygon fill="white" stroke="black" points="78,-60 24,-60 24,-24 78,-24 78,-60"/>
<text text-anchor="middle" x="51" y="-40.4" font-family="Helvetica,sans-Serif" font-size="9.00">message</text>
</a>
</g>
</g>
</svg>
