<?xml version="1.0" encoding="UTF-8" standalone="no"?>
<!DOCTYPE svg PUBLIC "-//W3C//DTD SVG 1.1//EN"
 "http://www.w3.org/Graphics/SVG/1.1/DTD/svg11.dtd">
<!-- Generated by graphviz version 2.26.3 (20100126.1600)
 -->
<!-- Title: mec Pages: 1 -->
<svg width="398pt" height="113pt"
 viewBox="0.00 0.00 398.00 113.00" xmlns="http://www.w3.org/2000/svg" xmlns:xlink="http://www.w3.org/1999/xlink">
<g id="graph1" class="graph" transform="scale(1 1) rotate(0) translate(4 109)">
<title>mec</title>
<g id="graph2" class="cluster"><title>clusterdir_d5020d8050913c88fd7e370a66f1f0da</title>
<a xlink:href="dir_d5020d8050913c88fd7e370a66f1f0da.htm" target="_top" xlink:title="in">
<polygon fill="#ddddee" stroke="black" points="8,-8 8,-97 382,-97 382,-8 8,-8"/>
<text text-anchor="middle" x="195" y="-84.9" font-family="Helvetica,sans-Serif" font-size="9.00">in</text>
</a>
</g>
<g id="graph3" class="cluster"><title>clusterdir_8d8b1d03e3610417aa00e8f74c101c80</title>
<a xlink:href="dir_8d8b1d03e3610417aa00e8f74c101c80.htm" target="_top">
<polygon fill="#eeeeff" stroke="black" points="16,-16 16,-68 374,-68 374,-16 16,-16"/>
</a>
</g>
<!-- dir_8d8b1d03e3610417aa00e8f74c101c80 -->
<g id="node3" class="node"><title>dir_8d8b1d03e3610417aa00e8f74c101c80</title>
<text text-anchor="middle" x="339" y="-40.4" font-family="Helvetica,sans-Serif" font-size="9.00">mec</text>
</g>
<!-- dir_915aff1c0d8523224c3341e23262226a -->
<g id="node4" class="node"><title>dir_915aff1c0d8523224c3341e23262226a</title>
<a xlink:href="dir_915aff1c0d8523224c3341e23262226a.htm" target="_top" xlink:title="common">
<polygon fill="white" stroke="black" points="294,-60 240,-60 240,-24 294,-24 294,-60"/>
<text text-anchor="middle" x="267" y="-40.4" font-family="Helvetica,sans-Serif" font-size="9.00">common</text>
</a>
</g>
<!-- dir_3682bace6c36f7f0d786b6bb0aa60e1b -->
<g id="node5" class="node"><title>dir_3682bace6c36f7f0d786b6bb0aa60e1b</title>
<a xlink:href="dir_3682bace6c36f7f0d786b6bb0aa60e1b.htm" target="_top" xlink:title="object">
<polygon fill="white" stroke="red" points="222,-60 168,-60 168,-24 222,-24 222,-60"/>
<text text-anchor="middle" x="195" y="-40.4" font-family="Helvetica,sans-Serif" font-size="9.00">object</text>
</a>
</g>
<!-- dir_ff63a61a7443e6f6544a5a90bf3df32b -->
<g id="node6" class="node"><title>dir_ff63a61a7443e6f6544a5a90bf3df32b</title>
<a xlink:href="dir_ff63a61a7443e6f6544a5a90bf3df32b.htm" target="_top" xlink:title="runtime">
<polygon fill="white" stroke="red" points="150,-60 96,-60 96,-24 150,-24 150,-60"/>
<text text-anchor="middle" x="123" y="-40.4" font-family="Helvetica,sans-Serif" font-size="9.00">runtime</text>
</a>
</g>
<!-- dir_863cf226ee61ed66798091511e60d835 -->
<g id="node7" class="node"><title>dir_863cf226ee61ed66798091511e60d835</title>
<a xlink:href="dir_863cf226ee61ed66798091511e60d835.htm" target="_top" xlink:title="ui">
<polygon fill="white" stroke="red" points="78,-60 24,-60 24,-24 78,-24 78,-60"/>
<text text-anchor="middle" x="51" y="-40.4" font-family="Helvetica,sans-Serif" font-size="9.00">ui</text>
</a>
</g>
</g>
</svg>
