<?xml version="1.0" encoding="UTF-8" standalone="no"?>
<!DOCTYPE svg PUBLIC "-//W3C//DTD SVG 1.1//EN"
 "http://www.w3.org/Graphics/SVG/1.1/DTD/svg11.dtd">
<!-- Generated by graphviz version 2.26.3 (20100126.1600)
 -->
<!-- Title: object Pages: 1 -->
<svg width="470pt" height="113pt"
 viewBox="0.00 0.00 470.00 113.00" xmlns="http://www.w3.org/2000/svg" xmlns:xlink="http://www.w3.org/1999/xlink">
<g id="graph1" class="graph" transform="scale(1 1) rotate(0) translate(4 109)">
<title>object</title>
<g id="graph2" class="cluster"><title>clusterdir_8d8b1d03e3610417aa00e8f74c101c80</title>
<a xlink:href="dir_8d8b1d03e3610417aa00e8f74c101c80.htm" target="_top" xlink:title="mec">
<polygon fill="#ddddee" stroke="black" points="8,-8 8,-97 454,-97 454,-8 8,-8"/>
<text text-anchor="middle" x="231" y="-84.9" font-family="Helvetica,sans-Serif" font-size="9.00">mec</text>
</a>
</g>
<g id="graph3" class="cluster"><title>clusterdir_3682bace6c36f7f0d786b6bb0aa60e1b</title>
<a xlink:href="dir_3682bace6c36f7f0d786b6bb0aa60e1b.htm" target="_top">
<polygon fill="#eeeeff" stroke="black" points="16,-16 16,-68 446,-68 446,-16 16,-16"/>
</a>
</g>
<!-- dir_3682bace6c36f7f0d786b6bb0aa60e1b -->
<g id="node3" class="node"><title>dir_3682bace6c36f7f0d786b6bb0aa60e1b</title>
<text text-anchor="middle" x="411" y="-40.4" font-family="Helvetica,sans-Serif" font-size="9.00">object</text>
</g>
<!-- dir_957ad195edda1dbb3032249809beef3b -->
<g id="node4" class="node"><title>dir_957ad195edda1dbb3032249809beef3b</title>
<a xlink:href="dir_957ad195edda1dbb3032249809beef3b.htm" target="_top" xlink:title="analysis">
<polygon fill="white" stroke="black" points="366,-60 312,-60 312,-24 366,-24 366,-60"/>
<text text-anchor="middle" x="339" y="-40.4" font-family="Helvetica,sans-Serif" font-size="9.00">analysis</text>
</a>
</g>
<!-- dir_73b4a2754b870262b789ce92f81d416b -->
<g id="node5" class="node"><title>dir_73b4a2754b870262b789ce92f81d416b</title>
<a xlink:href="dir_73b4a2754b870262b789ce92f81d416b.htm" target="_top" xlink:title="car">
<polygon fill="white" stroke="red" points="294,-60 240,-60 240,-24 294,-24 294,-60"/>
<text text-anchor="middle" x="267" y="-40.4" font-family="Helvetica,sans-Serif" font-size="9.00">car</text>
</a>
</g>
<!-- dir_9ce4f8879c83737678fc430184e9e43a -->
<g id="node6" class="node"><title>dir_9ce4f8879c83737678fc430184e9e43a</title>
<a xlink:href="dir_9ce4f8879c83737678fc430184e9e43a.htm" target="_top" xlink:title="mas">
<polygon fill="white" stroke="red" points="222,-60 168,-60 168,-24 222,-24 222,-60"/>
<text text-anchor="middle" x="195" y="-40.4" font-family="Helvetica,sans-Serif" font-size="9.00">mas</text>
</a>
</g>
<!-- dir_38ed9646ef6ccae8cc3aa6aba36a50e7 -->
<g id="node7" class="node"><title>dir_38ed9646ef6ccae8cc3aa6aba36a50e7</title>
<a xlink:href="dir_38ed9646ef6ccae8cc3aa6aba36a50e7.htm" target="_top" xlink:title="waypoint">
<polygon fill="white" stroke="red" points="150,-60 96,-60 96,-24 150,-24 150,-60"/>
<text text-anchor="middle" x="123" y="-40.4" font-family="Helvetica,sans-Serif" font-size="9.00">waypoint</text>
</a>
</g>
<!-- dir_bfff03821d56a567199704f812f34696 -->
<g id="node8" class="node"><title>dir_bfff03821d56a567199704f812f34696</title>
<a xlink:href="dir_bfff03821d56a567199704f812f34696.htm" target="_top" xlink:title="world">
<polygon fill="white" stroke="black" points="78,-60 24,-60 24,-24 78,-24 78,-60"/>
<text text-anchor="middle" x="51" y="-40.4" font-family="Helvetica,sans-Serif" font-size="9.00">world</text>
</a>
</g>
</g>
</svg>
