<?xml version="1.0" encoding="UTF-8" standalone="no"?>
<!DOCTYPE svg PUBLIC "-//W3C//DTD SVG 1.1//EN"
 "http://www.w3.org/Graphics/SVG/1.1/DTD/svg11.dtd">
<!-- Generated by graphviz version 2.26.3 (20100126.1600)
 -->
<!-- Title: Graph Legend Pages: 1 -->
<svg width="486pt" height="174pt"
 viewBox="0.00 0.00 486.00 174.00" xmlns="http://www.w3.org/2000/svg" xmlns:xlink="http://www.w3.org/1999/xlink">
<g id="graph1" class="graph" transform="scale(1 1) rotate(0) translate(4 170)">
<title>Graph Legend</title>
<!-- Node9 -->
<g id="node1" class="node"><title>Node9</title>
<polygon fill="#bfbfbf" stroke="black" points="278,-21.5 226,-21.5 226,-0.5 278,-0.5 278,-21.5"/>
<text text-anchor="middle" x="252" y="-9.4" font-family="Helvetica,sans-Serif" font-size="9.00">Inherited</text>
</g>
<!-- Node10 -->
<g id="node2" class="node"><title>Node10</title>
<a xlink:href="$classPublicBase.htm" xlink:title="PublicBase">
<polygon fill="none" stroke="black" points="62,-93.5 2.4869e-14,-93.5 0,-72.5 62,-72.5 62,-93.5"/>
<text text-anchor="middle" x="31" y="-81.4" font-family="Helvetica,sans-Serif" font-size="9.00">PublicBase</text>
</a>
</g>
<!-- Node10&#45;&gt;Node9 -->
<g id="edge2" class="edge"><title>Node10&#45;&gt;Node9</title>
<path fill="none" stroke="midnightblue" d="M71.9265,-69.6665C116.888,-55.0185 187.755,-31.9305 225.794,-19.5376"/>
<polygon fill="midnightblue" stroke="midnightblue" points="70.6191,-66.4113 62.1952,-72.8369 72.7875,-73.067 70.6191,-66.4113"/>
</g>
<!-- Node11 -->
<g id="node4" class="node"><title>Node11</title>
<a xlink:href="$classTruncated.htm" xlink:title="Truncated">
<polygon fill="none" stroke="red" points="60,-165.5 2,-165.5 2,-144.5 60,-144.5 60,-165.5"/>
<text text-anchor="middle" x="31" y="-153.4" font-family="Helvetica,sans-Serif" font-size="9.00">Truncated</text>
</a>
</g>
<!-- Node11&#45;&gt;Node10 -->
<g id="edge4" class="edge"><title>Node11&#45;&gt;Node10</title>
<path fill="none" stroke="midnightblue" d="M31,-134.235C31,-120.969 31,-104.319 31,-93.6674"/>
<polygon fill="midnightblue" stroke="midnightblue" points="27.5001,-134.376 31,-144.376 34.5001,-134.376 27.5001,-134.376"/>
</g>
<!-- Node13 -->
<g id="node6" class="node"><title>Node13</title>
<a xlink:href="$classProtectedBase.htm" xlink:title="ProtectedBase">
<polygon fill="none" stroke="black" points="156,-93.5 80,-93.5 80,-72.5 156,-72.5 156,-93.5"/>
<text text-anchor="middle" x="118" y="-81.4" font-family="Helvetica,sans-Serif" font-size="9.00">ProtectedBase</text>
</a>
</g>
<!-- Node13&#45;&gt;Node9 -->
<g id="edge6" class="edge"><title>Node13&#45;&gt;Node9</title>
<path fill="none" stroke="darkgreen" d="M146.695,-67.5817C172.44,-53.7486 209.548,-33.81 232.147,-21.6674"/>
<polygon fill="darkgreen" stroke="darkgreen" points="144.924,-64.5598 137.772,-72.3762 148.238,-70.7261 144.924,-64.5598"/>
</g>
<!-- Node14 -->
<g id="node8" class="node"><title>Node14</title>
<a xlink:href="$classPrivateBase.htm" xlink:title="PrivateBase">
<polygon fill="none" stroke="black" points="240,-93.5 174,-93.5 174,-72.5 240,-72.5 240,-93.5"/>
<text text-anchor="middle" x="207" y="-81.4" font-family="Helvetica,sans-Serif" font-size="9.00">PrivateBase</text>
</a>
</g>
<!-- Node14&#45;&gt;Node9 -->
<g id="edge8" class="edge"><title>Node14&#45;&gt;Node9</title>
<path fill="none" stroke="#8b1a1a" d="M218.994,-63.8099C227.431,-50.3106 238.409,-32.7449 245.333,-21.6674"/>
<polygon fill="#8b1a1a" stroke="#8b1a1a" points="215.972,-62.0411 213.64,-72.3762 221.908,-65.7512 215.972,-62.0411"/>
</g>
<!-- Node15 -->
<g id="node10" class="node"><title>Node15</title>
<polygon fill="none" stroke="#bfbfbf" points="338,-93.5 258,-93.5 258,-72.5 338,-72.5 338,-93.5"/>
<text text-anchor="middle" x="298" y="-81.4" font-family="Helvetica,sans-Serif" font-size="9.00">Undocumented</text>
</g>
<!-- Node15&#45;&gt;Node9 -->
<g id="edge10" class="edge"><title>Node15&#45;&gt;Node9</title>
<path fill="none" stroke="midnightblue" d="M285.74,-63.8099C277.115,-50.3106 265.893,-32.7449 258.815,-21.6674"/>
<polygon fill="midnightblue" stroke="midnightblue" points="282.879,-65.8336 291.213,-72.3762 288.778,-62.0648 282.879,-65.8336"/>
</g>
<!-- Node16 -->
<g id="node12" class="node"><title>Node16</title>
<a xlink:href="$classTempl.htm" xlink:title="Templ&lt; int &gt;">
<polygon fill="none" stroke="black" points="422,-93.5 356,-93.5 356,-72.5 422,-72.5 422,-93.5"/>
<text text-anchor="middle" x="389" y="-81.4" font-family="Helvetica,sans-Serif" font-size="9.00">Templ&lt; int &gt;</text>
</a>
</g>
<!-- Node16&#45;&gt;Node9 -->
<g id="edge12" class="edge"><title>Node16&#45;&gt;Node9</title>
<path fill="none" stroke="midnightblue" d="M359.662,-67.5817C333.341,-53.7486 295.402,-33.81 272.298,-21.6674"/>
<polygon fill="midnightblue" stroke="midnightblue" points="358.305,-70.8222 368.785,-72.3762 361.561,-64.6258 358.305,-70.8222"/>
</g>
<!-- Node17 -->
<g id="node14" class="node"><title>Node17</title>
<a xlink:href="$classTempl.htm" xlink:title="Templ&lt; T &gt;">
<polygon fill="none" stroke="black" points="420,-165.5 358,-165.5 358,-144.5 420,-144.5 420,-165.5"/>
<text text-anchor="middle" x="389" y="-153.4" font-family="Helvetica,sans-Serif" font-size="9.00">Templ&lt; T &gt;</text>
</a>
</g>
<!-- Node17&#45;&gt;Node16 -->
<g id="edge14" class="edge"><title>Node17&#45;&gt;Node16</title>
<path fill="none" stroke="orange" stroke-dasharray="5,2" d="M389,-134.235C389,-120.969 389,-104.319 389,-93.6674"/>
<polygon fill="orange" stroke="orange" points="385.5,-134.376 389,-144.376 392.5,-134.376 385.5,-134.376"/>
<text text-anchor="middle" x="401.5" y="-117.4" font-family="Helvetica,sans-Serif" font-size="9.00">&lt; int &gt;</text>
</g>
<!-- Node18 -->
<g id="node16" class="node"><title>Node18</title>
<a xlink:href="$classUsed.htm" xlink:title="Used">
<polygon fill="none" stroke="black" points="478,-93.5 440,-93.5 440,-72.5 478,-72.5 478,-93.5"/>
<text text-anchor="middle" x="459" y="-81.4" font-family="Helvetica,sans-Serif" font-size="9.00">Used</text>
</a>
</g>
<!-- Node18&#45;&gt;Node9 -->
<g id="edge16" class="edge"><title>Node18&#45;&gt;Node9</title>
<path fill="none" stroke="#9a32cd" stroke-dasharray="5,2" d="M430.207,-71.8076C370.647,-50.0917 311.439,-30.3981 278.219,-19.5167"/>
<polygon fill="#9a32cd" stroke="#9a32cd" points="429.171,-75.1557 439.765,-75.3092 431.579,-68.5828 429.171,-75.1557"/>
<text text-anchor="middle" x="405.5" y="-45.4" font-family="Helvetica,sans-Serif" font-size="9.00">m_usedClass</text>
</g>
</g>
</svg>
