<?xml version="1.0" encoding="UTF-8" standalone="no"?>
<!DOCTYPE svg PUBLIC "-//W3C//DTD SVG 1.1//EN"
 "http://www.w3.org/Graphics/SVG/1.1/DTD/svg11.dtd">
<!-- Generated by graphviz version 2.26.3 (20100126.1600)
 -->
<!-- Title: Graphical Class Hierarchy Pages: 1 -->
<svg width="280pt" height="70pt"
 viewBox="0.00 0.00 280.00 70.00" xmlns="http://www.w3.org/2000/svg" xmlns:xlink="http://www.w3.org/1999/xlink">
<g id="graph1" class="graph" transform="scale(1 1) rotate(0) translate(4 66)">
<title>Graphical Class Hierarchy</title>
<!-- Node1 -->
<g id="node1" class="node"><title>Node1</title>
<polygon fill="none" stroke="#bfbfbf" points="0.5,-40.5 0.5,-61.5 95.5,-61.5 95.5,-40.5 0.5,-40.5"/>
<text text-anchor="middle" x="48" y="-49.4" font-family="Helvetica,sans-Serif" font-size="9.00">IWebSocketFactory</text>
</g>
<!-- Node2 -->
<g id="node3" class="node"><title>Node2</title>
<a xlink:href="da/d74/a00099.htm" target="_top" xlink:title="class of the HTTP server * ">
<polygon fill="none" stroke="black" points="132,-14 132,-48 272,-48 272,-14 132,-14"/>
<text text-anchor="start" x="140" y="-35.9" font-family="Helvetica,sans-Serif" font-size="9.00">de.tu_clausthal.in.mec.ui.web.</text>
<text text-anchor="middle" x="202" y="-22.9" font-family="Helvetica,sans-Serif" font-size="9.00">CServer</text>
</a>
</g>
<!-- Node1&#45;&gt;Node2 -->
<g id="edge2" class="edge"><title>Node1&#45;&gt;Node2</title>
<path fill="none" stroke="midnightblue" d="M105.98,-43.4701C114.415,-42.3747 123.174,-41.2372 131.818,-40.1146"/>
<polygon fill="midnightblue" stroke="midnightblue" points="105.348,-40.0227 95.8824,-44.7815 106.25,-46.9644 105.348,-40.0227"/>
</g>
<!-- Node3 -->
<g id="node4" class="node"><title>Node3</title>
<polygon fill="none" stroke="#bfbfbf" points="13.5,-0.5 13.5,-21.5 82.5,-21.5 82.5,-0.5 13.5,-0.5"/>
<text text-anchor="middle" x="48" y="-9.4" font-family="Helvetica,sans-Serif" font-size="9.00">NanoHTTPD</text>
</g>
<!-- Node3&#45;&gt;Node2 -->
<g id="edge4" class="edge"><title>Node3&#45;&gt;Node2</title>
<path fill="none" stroke="midnightblue" d="M92.5539,-16.7862C104.873,-18.3861 118.549,-20.1622 131.942,-21.9015"/>
<polygon fill="midnightblue" stroke="midnightblue" points="92.9281,-13.3055 82.5606,-15.4884 92.0265,-20.2472 92.9281,-13.3055"/>
</g>
</g>
</svg>
