<?xml version="1.0" encoding="UTF-8" standalone="no"?>
<!DOCTYPE svg PUBLIC "-//W3C//DTD SVG 1.1//EN"
 "http://www.w3.org/Graphics/SVG/1.1/DTD/svg11.dtd">
<!-- Generated by graphviz version 2.26.3 (20100126.1600)
 -->
<!-- Title: Graphical Class Hierarchy Pages: 1 -->
<svg width="526pt" height="42pt"
 viewBox="0.00 0.00 526.00 42.00" xmlns="http://www.w3.org/2000/svg" xmlns:xlink="http://www.w3.org/1999/xlink">
<g id="graph1" class="graph" transform="scale(1 1) rotate(0) translate(4 38)">
<title>Graphical Class Hierarchy</title>
<!-- Node1 -->
<g id="node1" class="node"><title>Node1</title>
<polygon fill="none" stroke="#bfbfbf" points="0,-6.5 0,-27.5 98,-27.5 98,-6.5 0,-6.5"/>
<text text-anchor="middle" x="49" y="-15.4" font-family="Helvetica,sans-Serif" font-size="9.00">IMultiEvaluateLayer</text>
</g>
<!-- Node2 -->
<g id="node3" class="node"><title>Node2</title>
<a xlink:href="d1/db7/a00157.htm" target="_top" xlink:title="class for writing data into a database ">
<polygon fill="none" stroke="black" points="134.5,-0 134.5,-34 307.5,-34 307.5,-0 134.5,-0"/>
<text text-anchor="start" x="142.5" y="-21.9" font-family="Helvetica,sans-Serif" font-size="9.00">de.tu_clausthal.in.mec.object.analysis.</text>
<text text-anchor="middle" x="221" y="-8.9" font-family="Helvetica,sans-Serif" font-size="9.00">IDatabase</text>
</a>
</g>
<!-- Node1&#45;&gt;Node2 -->
<g id="edge2" class="edge"><title>Node1&#45;&gt;Node2</title>
<path fill="none" stroke="midnightblue" d="M108.339,-17C116.753,-17 125.544,-17 134.345,-17"/>
<polygon fill="midnightblue" stroke="midnightblue" points="108.288,-13.5001 98.2883,-17 108.288,-20.5001 108.288,-13.5001"/>
</g>
<!-- Node3 -->
<g id="node5" class="node"><title>Node3</title>
<a xlink:href="d4/dca/a00048.htm" target="_top" xlink:title="statistic evaluation access ">
<polygon fill="none" stroke="black" points="344.5,-0 344.5,-34 517.5,-34 517.5,-0 344.5,-0"/>
<text text-anchor="start" x="352.5" y="-21.9" font-family="Helvetica,sans-Serif" font-size="9.00">de.tu_clausthal.in.mec.object.analysis.</text>
<text text-anchor="middle" x="431" y="-8.9" font-family="Helvetica,sans-Serif" font-size="9.00">CEvaluationStore</text>
</a>
</g>
<!-- Node2&#45;&gt;Node3 -->
<g id="edge4" class="edge"><title>Node2&#45;&gt;Node3</title>
<path fill="none" stroke="midnightblue" d="M317.892,-17C326.679,-17 335.542,-17 344.233,-17"/>
<polygon fill="midnightblue" stroke="midnightblue" points="317.627,-13.5001 307.627,-17 317.627,-20.5001 317.627,-13.5001"/>
</g>
</g>
</svg>
