<?xml version="1.0" encoding="UTF-8" standalone="no"?>
<!DOCTYPE svg PUBLIC "-//W3C//DTD SVG 1.1//EN"
 "http://www.w3.org/Graphics/SVG/1.1/DTD/svg11.dtd">
<!-- Generated by graphviz version 2.26.3 (20100126.1600)
 -->
<!-- Title: Graphical Class Hierarchy Pages: 1 -->
<svg width="370pt" height="94pt"
 viewBox="0.00 0.00 370.00 94.00" xmlns="http://www.w3.org/2000/svg" xmlns:xlink="http://www.w3.org/1999/xlink">
<g id="graph1" class="graph" transform="scale(1 1) rotate(0) translate(4 90)">
<title>Graphical Class Hierarchy</title>
<!-- Node1 -->
<g id="node1" class="node"><title>Node1</title>
<polygon fill="none" stroke="#bfbfbf" points="0.5,-32.5 0.5,-53.5 69.5,-53.5 69.5,-32.5 0.5,-32.5"/>
<text text-anchor="middle" x="35" y="-41.4" font-family="Helvetica,sans-Serif" font-size="9.00">IDefaultAtom</text>
</g>
<!-- Node2 -->
<g id="node3" class="node"><title>Node2</title>
<a xlink:href="d9/dec/a00090.htm" target="_top" xlink:title="numeric atom class for agent literals ">
<polygon fill="none" stroke="black" points="106.5,-52 106.5,-86 361.5,-86 361.5,-52 106.5,-52"/>
<text text-anchor="start" x="114.5" y="-73.9" font-family="Helvetica,sans-Serif" font-size="9.00">de.tu_clausthal.in.mec.object.mas.generic.implementation.</text>
<text text-anchor="middle" x="234" y="-60.9" font-family="Helvetica,sans-Serif" font-size="9.00">CNumberAtom</text>
</a>
</g>
<!-- Node1&#45;&gt;Node2 -->
<g id="edge2" class="edge"><title>Node1&#45;&gt;Node2</title>
<path fill="none" stroke="midnightblue" d="M79.7327,-48.8445C88.015,-49.9266 97.0327,-51.1048 106.413,-52.3304"/>
<polygon fill="midnightblue" stroke="midnightblue" points="80.0323,-45.354 69.6632,-47.5289 79.1254,-52.295 80.0323,-45.354"/>
</g>
<!-- Node3 -->
<g id="node5" class="node"><title>Node3</title>
<a xlink:href="d5/d1e/a00103.htm" target="_top" xlink:title="string atom class for agent literals ">
<polygon fill="none" stroke="black" points="106.5,-0 106.5,-34 361.5,-34 361.5,-0 106.5,-0"/>
<text text-anchor="start" x="114.5" y="-21.9" font-family="Helvetica,sans-Serif" font-size="9.00">de.tu_clausthal.in.mec.object.mas.generic.implementation.</text>
<text text-anchor="middle" x="234" y="-8.9" font-family="Helvetica,sans-Serif" font-size="9.00">CStringAtom</text>
</a>
</g>
<!-- Node1&#45;&gt;Node3 -->
<g id="edge4" class="edge"><title>Node1&#45;&gt;Node3</title>
<path fill="none" stroke="midnightblue" d="M79.7327,-37.1555C88.015,-36.0734 97.0327,-34.8952 106.413,-33.6696"/>
<polygon fill="midnightblue" stroke="midnightblue" points="79.1254,-33.705 69.6632,-38.4711 80.0323,-40.646 79.1254,-33.705"/>
</g>
</g>
</svg>
