<?xml version="1.0" encoding="UTF-8" standalone="no"?>
<!DOCTYPE svg PUBLIC "-//W3C//DTD SVG 1.1//EN"
 "http://www.w3.org/Graphics/SVG/1.1/DTD/svg11.dtd">
<!-- Generated by graphviz version 2.26.3 (20100126.1600)
 -->
<!-- Title: Graphical Class Hierarchy Pages: 1 -->
<svg width="1228pt" height="160pt"
 viewBox="0.00 0.00 1228.00 160.00" xmlns="http://www.w3.org/2000/svg" xmlns:xlink="http://www.w3.org/1999/xlink">
<g id="graph1" class="graph" transform="scale(1 1) rotate(0) translate(4 156)">
<title>Graphical Class Hierarchy</title>
<!-- Node1 -->
<g id="node1" class="node"><title>Node1</title>
<polygon fill="none" stroke="#bfbfbf" points="0.5,-65.5 0.5,-86.5 51.5,-86.5 51.5,-65.5 0.5,-65.5"/>
<text text-anchor="middle" x="26" y="-74.4" font-family="Helvetica,sans-Serif" font-size="9.00">IStorage</text>
</g>
<!-- Node2 -->
<g id="node3" class="node"><title>Node2</title>
<a xlink:href="d4/d51/a00017.htm" target="_top" xlink:title="non&#45;thread&#45;safe storage of the data ">
<polygon fill="none" stroke="black" points="88.5,-59 88.5,-93 343.5,-93 343.5,-59 88.5,-59"/>
<text text-anchor="start" x="96.5" y="-80.9" font-family="Helvetica,sans-Serif" font-size="9.00">de.tu_clausthal.in.mec.object.mas.generic.implementation.</text>
<text text-anchor="middle" x="216" y="-67.9" font-family="Helvetica,sans-Serif" font-size="9.00">CBeliefStorage&lt; N, M &gt;</text>
</a>
</g>
<!-- Node1&#45;&gt;Node2 -->
<g id="edge2" class="edge"><title>Node1&#45;&gt;Node2</title>
<path fill="none" stroke="midnightblue" d="M61.6999,-76C69.8153,-76 78.8928,-76 88.4722,-76"/>
<polygon fill="midnightblue" stroke="midnightblue" points="61.6243,-72.5001 51.6242,-76 61.6242,-79.5001 61.6243,-72.5001"/>
</g>
<!-- Node3 -->
<g id="node5" class="node"><title>Node3</title>
<a xlink:href="dd/d1b/a00015.htm" target="_top" xlink:title="storage of a beliefbase for storing masks only ">
<polygon fill="none" stroke="black" points="380.5,-118 380.5,-152 635.5,-152 635.5,-118 380.5,-118"/>
<text text-anchor="start" x="388.5" y="-139.9" font-family="Helvetica,sans-Serif" font-size="9.00">de.tu_clausthal.in.mec.object.mas.generic.implementation.</text>
<text text-anchor="middle" x="508" y="-126.9" font-family="Helvetica,sans-Serif" font-size="9.00">CBeliefMaskStorage&lt; N, M &gt;</text>
</a>
</g>
<!-- Node2&#45;&gt;Node3 -->
<g id="edge4" class="edge"><title>Node2&#45;&gt;Node3</title>
<path fill="none" stroke="midnightblue" d="M310.594,-95.1132C347.021,-102.473 388.342,-110.822 423.731,-117.973"/>
<polygon fill="midnightblue" stroke="midnightblue" points="310.954,-91.6152 300.458,-93.0652 309.567,-98.4765 310.954,-91.6152"/>
</g>
<!-- Node4 -->
<g id="node7" class="node"><title>Node4</title>
<a xlink:href="d1/d2b/a00018.htm" target="_top" xlink:title="thread&#45;safe storage e.g. ">
<polygon fill="none" stroke="black" points="380.5,-52.5 380.5,-99.5 635.5,-99.5 635.5,-52.5 380.5,-52.5"/>
<text text-anchor="start" x="388.5" y="-87.4" font-family="Helvetica,sans-Serif" font-size="9.00">de.tu_clausthal.in.mec.object.mas.generic.implementation.</text>
<text text-anchor="start" x="388.5" y="-74.4" font-family="Helvetica,sans-Serif" font-size="9.00">CBeliefSynchronizedStorage&lt; N, M extends</text>
<text text-anchor="middle" x="508" y="-61.4" font-family="Helvetica,sans-Serif" font-size="9.00"> Iterable&lt; N &gt; &gt;</text>
</a>
</g>
<!-- Node2&#45;&gt;Node4 -->
<g id="edge6" class="edge"><title>Node2&#45;&gt;Node4</title>
<path fill="none" stroke="midnightblue" d="M353.913,-76C362.677,-76 371.479,-76 380.194,-76"/>
<polygon fill="midnightblue" stroke="midnightblue" points="353.651,-72.5001 343.651,-76 353.651,-79.5001 353.651,-72.5001"/>
</g>
<!-- Node5 -->
<g id="node9" class="node"><title>Node5</title>
<a xlink:href="d9/d2e/a00056.htm" target="_top" xlink:title="immutable belief storage ">
<polygon fill="none" stroke="black" points="380.5,-0 380.5,-34 635.5,-34 635.5,-0 380.5,-0"/>
<text text-anchor="start" x="388.5" y="-21.9" font-family="Helvetica,sans-Serif" font-size="9.00">de.tu_clausthal.in.mec.object.mas.generic.implementation.</text>
<text text-anchor="middle" x="508" y="-8.9" font-family="Helvetica,sans-Serif" font-size="9.00">CImmutableBeliefStorage&lt; N, M &gt;</text>
</a>
</g>
<!-- Node2&#45;&gt;Node5 -->
<g id="edge8" class="edge"><title>Node2&#45;&gt;Node5</title>
<path fill="none" stroke="midnightblue" d="M310.594,-56.8868C347.021,-49.5266 388.342,-41.1775 423.731,-34.0269"/>
<polygon fill="midnightblue" stroke="midnightblue" points="309.567,-53.5235 300.458,-58.9348 310.954,-60.3848 309.567,-53.5235"/>
</g>
<!-- Node6 -->
<g id="node11" class="node"><title>Node6</title>
<a xlink:href="d5/de9/a00176.htm" target="_top" xlink:title="class to update an immutable belief storage ">
<polygon fill="none" stroke="black" points="672.5,-0 672.5,-34 927.5,-34 927.5,-0 672.5,-0"/>
<text text-anchor="start" x="680.5" y="-21.9" font-family="Helvetica,sans-Serif" font-size="9.00">de.tu_clausthal.in.mec.object.mas.generic.implementation.</text>
<text text-anchor="middle" x="800" y="-8.9" font-family="Helvetica,sans-Serif" font-size="9.00">IOneTimeStorage&lt; N, M &gt;</text>
</a>
</g>
<!-- Node5&#45;&gt;Node6 -->
<g id="edge10" class="edge"><title>Node5&#45;&gt;Node6</title>
<path fill="none" stroke="midnightblue" d="M645.913,-17C654.677,-17 663.479,-17 672.194,-17"/>
<polygon fill="midnightblue" stroke="midnightblue" points="645.651,-13.5001 635.651,-17 645.651,-20.5001 645.651,-13.5001"/>
</g>
<!-- Node7 -->
<g id="node13" class="node"><title>Node7</title>
<a xlink:href="da/d01/a00153.htm" target="_top" xlink:title="binding belief storage ">
<polygon fill="none" stroke="black" points="964.5,-0 964.5,-34 1219.5,-34 1219.5,-0 964.5,-0"/>
<text text-anchor="start" x="972.5" y="-21.9" font-family="Helvetica,sans-Serif" font-size="9.00">de.tu_clausthal.in.mec.object.mas.generic.implementation.</text>
<text text-anchor="middle" x="1092" y="-8.9" font-family="Helvetica,sans-Serif" font-size="9.00">IBindStorage&lt; N, M &gt;</text>
</a>
</g>
<!-- Node6&#45;&gt;Node7 -->
<g id="edge12" class="edge"><title>Node6&#45;&gt;Node7</title>
<path fill="none" stroke="midnightblue" d="M937.913,-17C946.677,-17 955.479,-17 964.194,-17"/>
<polygon fill="midnightblue" stroke="midnightblue" points="937.651,-13.5001 927.651,-17 937.651,-20.5001 937.651,-13.5001"/>
</g>
</g>
</svg>
