<?xml version="1.0" encoding="UTF-8" standalone="no"?>
<!DOCTYPE svg PUBLIC "-//W3C//DTD SVG 1.1//EN"
 "http://www.w3.org/Graphics/SVG/1.1/DTD/svg11.dtd">
<!-- Generated by graphviz version 2.26.3 (20100126.1600)
 -->
<!-- Title: Graphical Class Hierarchy Pages: 1 -->
<svg width="368pt" height="94pt"
 viewBox="0.00 0.00 368.00 94.00" xmlns="http://www.w3.org/2000/svg" xmlns:xlink="http://www.w3.org/1999/xlink">
<g id="graph1" class="graph" transform="scale(1 1) rotate(0) translate(4 90)">
<title>Graphical Class Hierarchy</title>
<!-- Node1 -->
<g id="node1" class="node"><title>Node1</title>
<polygon fill="none" stroke="#bfbfbf" points="0,-32.5 0,-53.5 68,-53.5 68,-32.5 0,-32.5"/>
<text text-anchor="middle" x="34" y="-41.4" font-family="Helvetica,sans-Serif" font-size="9.00">IWorldAction</text>
</g>
<!-- Node2 -->
<g id="node3" class="node"><title>Node2</title>
<a xlink:href="d1/d0d/a00171.htm" target="_top" xlink:title="action to call a method from an agent on any object ">
<polygon fill="none" stroke="black" points="104.5,-52 104.5,-86 359.5,-86 359.5,-52 104.5,-52"/>
<text text-anchor="start" x="112.5" y="-73.9" font-family="Helvetica,sans-Serif" font-size="9.00">de.tu_clausthal.in.mec.object.mas.generic.implementation.</text>
<text text-anchor="middle" x="232" y="-60.9" font-family="Helvetica,sans-Serif" font-size="9.00">IMethodBind&lt; N, M &gt;</text>
</a>
</g>
<!-- Node1&#45;&gt;Node2 -->
<g id="edge2" class="edge"><title>Node1&#45;&gt;Node2</title>
<path fill="none" stroke="midnightblue" d="M78.2071,-48.805C86.2761,-49.8645 95.0541,-51.0172 104.191,-52.2169"/>
<polygon fill="midnightblue" stroke="midnightblue" points="78.408,-45.3014 68.0374,-47.4696 77.4966,-52.2418 78.408,-45.3014"/>
</g>
<!-- Node3 -->
<g id="node5" class="node"><title>Node3</title>
<a xlink:href="db/dd9/a00179.htm" target="_top" xlink:title="action to set a property value of an object from an agent ">
<polygon fill="none" stroke="black" points="104.5,-0 104.5,-34 359.5,-34 359.5,-0 104.5,-0"/>
<text text-anchor="start" x="112.5" y="-21.9" font-family="Helvetica,sans-Serif" font-size="9.00">de.tu_clausthal.in.mec.object.mas.generic.implementation.</text>
<text text-anchor="middle" x="232" y="-8.9" font-family="Helvetica,sans-Serif" font-size="9.00">IPropertyBind&lt; N, M &gt;</text>
</a>
</g>
<!-- Node1&#45;&gt;Node3 -->
<g id="edge4" class="edge"><title>Node1&#45;&gt;Node3</title>
<path fill="none" stroke="midnightblue" d="M78.2071,-37.195C86.2761,-36.1355 95.0541,-34.9828 104.191,-33.7831"/>
<polygon fill="midnightblue" stroke="midnightblue" points="77.4966,-33.7582 68.0374,-38.5304 78.408,-40.6986 77.4966,-33.7582"/>
</g>
</g>
</svg>
