<?xml version="1.0" encoding="UTF-8" standalone="no"?>
<!DOCTYPE svg PUBLIC "-//W3C//DTD SVG 1.1//EN"
 "http://www.w3.org/Graphics/SVG/1.1/DTD/svg11.dtd">
<!-- Generated by graphviz version 2.26.3 (20100126.1600)
 -->
<!-- Title: Graphical Class Hierarchy Pages: 1 -->
<svg width="266pt" height="94pt"
 viewBox="0.00 0.00 266.00 94.00" xmlns="http://www.w3.org/2000/svg" xmlns:xlink="http://www.w3.org/1999/xlink">
<g id="graph1" class="graph" transform="scale(1 1) rotate(0) translate(4 90)">
<title>Graphical Class Hierarchy</title>
<!-- Node1 -->
<g id="node1" class="node"><title>Node1</title>
<polygon fill="none" stroke="#bfbfbf" points="3.5,-58.5 3.5,-79.5 54.5,-79.5 54.5,-58.5 3.5,-58.5"/>
<text text-anchor="middle" x="29" y="-67.4" font-family="Helvetica,sans-Serif" font-size="9.00">Callable</text>
</g>
<!-- Node2 -->
<g id="node3" class="node"><title>Node2</title>
<a xlink:href="de/df3/a00185.htm" target="_top" xlink:title="runnable class to define objects which is callable and runable for thread&#45;pool ">
<polygon fill="none" stroke="black" points="94,-52 94,-86 258,-86 258,-52 94,-52"/>
<text text-anchor="start" x="102" y="-73.9" font-family="Helvetica,sans-Serif" font-size="9.00">de.tu_clausthal.in.mec.runtime.core.</text>
<text text-anchor="middle" x="176" y="-60.9" font-family="Helvetica,sans-Serif" font-size="9.00">IRunnable&lt; T &gt;</text>
</a>
</g>
<!-- Node1&#45;&gt;Node2 -->
<g id="edge2" class="edge"><title>Node1&#45;&gt;Node2</title>
<path fill="none" stroke="midnightblue" d="M64.6183,-69C73.5951,-69 83.6093,-69 93.8507,-69"/>
<polygon fill="midnightblue" stroke="midnightblue" points="64.6055,-65.5001 54.6054,-69 64.6054,-72.5001 64.6055,-65.5001"/>
</g>
<!-- Node3 -->
<g id="node4" class="node"><title>Node3</title>
<polygon fill="none" stroke="#bfbfbf" points="0.5,-12.5 0.5,-33.5 57.5,-33.5 57.5,-12.5 0.5,-12.5"/>
<text text-anchor="middle" x="29" y="-21.4" font-family="Helvetica,sans-Serif" font-size="9.00">Runnable</text>
</g>
<!-- Node3&#45;&gt;Node2 -->
<g id="edge6" class="edge"><title>Node3&#45;&gt;Node2</title>
<path fill="none" stroke="midnightblue" d="M67.5204,-35.054C84.0083,-40.2135 103.559,-46.3313 121.49,-51.9425"/>
<polygon fill="midnightblue" stroke="midnightblue" points="68.281,-31.6247 57.692,-31.9785 66.1904,-38.3053 68.281,-31.6247"/>
</g>
<!-- Node4 -->
<g id="node6" class="node"><title>Node4</title>
<a xlink:href="db/db6/a00074.htm" target="_top" xlink:title="main simulation thread ">
<polygon fill="none" stroke="black" points="94,-0 94,-34 258,-34 258,-0 94,-0"/>
<text text-anchor="start" x="102" y="-21.9" font-family="Helvetica,sans-Serif" font-size="9.00">de.tu_clausthal.in.mec.runtime.core.</text>
<text text-anchor="middle" x="176" y="-8.9" font-family="Helvetica,sans-Serif" font-size="9.00">CMainLoop</text>
</a>
</g>
<!-- Node3&#45;&gt;Node4 -->
<g id="edge4" class="edge"><title>Node3&#45;&gt;Node4</title>
<path fill="none" stroke="midnightblue" d="M67.9059,-21.412C76.0312,-21.0804 84.8872,-20.7189 93.9185,-20.3503"/>
<polygon fill="midnightblue" stroke="midnightblue" points="67.541,-17.9239 57.692,-21.8289 67.8265,-24.9181 67.541,-17.9239"/>
</g>
</g>
</svg>
