<?xml version="1.0" encoding="UTF-8" standalone="no"?>
<!DOCTYPE svg PUBLIC "-//W3C//DTD SVG 1.1//EN"
 "http://www.w3.org/Graphics/SVG/1.1/DTD/svg11.dtd">
<!-- Generated by graphviz version 2.26.3 (20100126.1600)
 -->
<!-- Title: Graphical Class Hierarchy Pages: 1 -->
<svg width="556pt" height="146pt"
 viewBox="0.00 0.00 556.00 146.00" xmlns="http://www.w3.org/2000/svg" xmlns:xlink="http://www.w3.org/1999/xlink">
<g id="graph1" class="graph" transform="scale(1 1) rotate(0) translate(4 142)">
<title>Graphical Class Hierarchy</title>
<!-- Node1 -->
<g id="node1" class="node"><title>Node1</title>
<polygon fill="none" stroke="#bfbfbf" points="0,-58.5 0,-79.5 44,-79.5 44,-58.5 0,-58.5"/>
<text text-anchor="middle" x="22" y="-67.4" font-family="Helvetica,sans-Serif" font-size="9.00">IMetric</text>
</g>
<!-- Node2 -->
<g id="node3" class="node"><title>Node2</title>
<a xlink:href="de/db9/a00159.htm" target="_top" xlink:title="default metric with an optional set of path values ">
<polygon fill="none" stroke="black" points="80.5,-52 80.5,-86 295.5,-86 295.5,-52 80.5,-52"/>
<text text-anchor="start" x="88.5" y="-73.9" font-family="Helvetica,sans-Serif" font-size="9.00">de.tu_clausthal.in.mec.object.mas.inconsistency.</text>
<text text-anchor="middle" x="188" y="-60.9" font-family="Helvetica,sans-Serif" font-size="9.00">IDefaultMetric&lt; T &gt;</text>
</a>
</g>
<!-- Node1&#45;&gt;Node2 -->
<g id="edge2" class="edge"><title>Node1&#45;&gt;Node2</title>
<path fill="none" stroke="midnightblue" d="M54.1021,-69C61.9664,-69 70.8238,-69 80.1416,-69"/>
<polygon fill="midnightblue" stroke="midnightblue" points="54.0436,-65.5001 44.0435,-69 54.0435,-72.5001 54.0436,-65.5001"/>
</g>
<!-- Node3 -->
<g id="node5" class="node"><title>Node3</title>
<a xlink:href="d3/dea/a00046.htm" target="_top" xlink:title="generic discrete metric ">
<polygon fill="none" stroke="black" points="332.5,-104 332.5,-138 547.5,-138 547.5,-104 332.5,-104"/>
<text text-anchor="start" x="340.5" y="-125.9" font-family="Helvetica,sans-Serif" font-size="9.00">de.tu_clausthal.in.mec.object.mas.inconsistency.</text>
<text text-anchor="middle" x="440" y="-112.9" font-family="Helvetica,sans-Serif" font-size="9.00">CDiscreteMetric&lt; T &gt;</text>
</a>
</g>
<!-- Node2&#45;&gt;Node3 -->
<g id="edge4" class="edge"><title>Node2&#45;&gt;Node3</title>
<path fill="none" stroke="midnightblue" d="M280.427,-88.0722C305.601,-93.2669 332.704,-98.8595 357.3,-103.935"/>
<polygon fill="midnightblue" stroke="midnightblue" points="281.015,-84.62 270.514,-86.0267 279.601,-91.4755 281.015,-84.62"/>
</g>
<!-- Node4 -->
<g id="node7" class="node"><title>Node4</title>
<a xlink:href="d1/dd6/a00108.htm" target="_top" xlink:title="metric on collections returns the size of symmetric difference ">
<polygon fill="none" stroke="black" points="332,-52 332,-86 548,-86 548,-52 332,-52"/>
<text text-anchor="start" x="340" y="-73.9" font-family="Helvetica,sans-Serif" font-size="9.00">de.tu_clausthal.in.mec.object.mas.inconsistency.</text>
<text text-anchor="middle" x="440" y="-60.9" font-family="Helvetica,sans-Serif" font-size="9.00">CSymmetricDifferenceMetric&lt; T extends IAgent &gt;</text>
</a>
</g>
<!-- Node2&#45;&gt;Node4 -->
<g id="edge6" class="edge"><title>Node2&#45;&gt;Node4</title>
<path fill="none" stroke="midnightblue" d="M305.804,-69C314.525,-69 323.298,-69 331.956,-69"/>
<polygon fill="midnightblue" stroke="midnightblue" points="305.602,-65.5001 295.602,-69 305.602,-72.5001 305.602,-65.5001"/>
</g>
<!-- Node5 -->
<g id="node9" class="node"><title>Node5</title>
<a xlink:href="d9/d47/a00129.htm" target="_top" xlink:title="Metric implementation for agents. ">
<polygon fill="none" stroke="black" points="332.5,-0 332.5,-34 547.5,-34 547.5,-0 332.5,-0"/>
<text text-anchor="start" x="340.5" y="-21.9" font-family="Helvetica,sans-Serif" font-size="9.00">de.tu_clausthal.in.mec.object.mas.inconsistency.</text>
<text text-anchor="middle" x="440" y="-8.9" font-family="Helvetica,sans-Serif" font-size="9.00">CWeightedDifferenceMetric&lt; T extends IAgent &gt;</text>
</a>
</g>
<!-- Node2&#45;&gt;Node5 -->
<g id="edge8" class="edge"><title>Node2&#45;&gt;Node5</title>
<path fill="none" stroke="midnightblue" d="M280.427,-49.9278C305.601,-44.7331 332.704,-39.1405 357.3,-34.065"/>
<polygon fill="midnightblue" stroke="midnightblue" points="279.601,-46.5245 270.514,-51.9733 281.015,-53.38 279.601,-46.5245"/>
</g>
</g>
</svg>
