<?xml version="1.0" encoding="UTF-8" standalone="no"?>
<!DOCTYPE svg PUBLIC "-//W3C//DTD SVG 1.1//EN"
 "http://www.w3.org/Graphics/SVG/1.1/DTD/svg11.dtd">
<!-- Generated by graphviz version 2.26.3 (20100126.1600)
 -->
<!-- Title: Graphical Class Hierarchy Pages: 1 -->
<svg width="312pt" height="94pt"
 viewBox="0.00 0.00 312.00 94.00" xmlns="http://www.w3.org/2000/svg" xmlns:xlink="http://www.w3.org/1999/xlink">
<g id="graph1" class="graph" transform="scale(1 1) rotate(0) translate(4 90)">
<title>Graphical Class Hierarchy</title>
<!-- Node1 -->
<g id="node1" class="node"><title>Node1</title>
<polygon fill="none" stroke="#bfbfbf" points="0.5,-58.5 0.5,-79.5 61.5,-79.5 61.5,-58.5 0.5,-58.5"/>
<text text-anchor="middle" x="31" y="-67.4" font-family="Helvetica,sans-Serif" font-size="9.00">BeliefBase</text>
</g>
<!-- Node2 -->
<g id="node3" class="node"><title>Node2</title>
<a xlink:href="d9/d4b/a00117.htm" target="_top" xlink:title="beliefbase which wraps all Jason structures ">
<polygon fill="none" stroke="black" points="98,-52 98,-86 304,-86 304,-52 98,-52"/>
<text text-anchor="start" x="106" y="-73.9" font-family="Helvetica,sans-Serif" font-size="9.00">de.tu_clausthal.in.mec.object.mas.jason.belief.</text>
<text text-anchor="middle" x="201" y="-60.9" font-family="Helvetica,sans-Serif" font-size="9.00">CTreeBeliefBase</text>
</a>
</g>
<!-- Node1&#45;&gt;Node2 -->
<g id="edge2" class="edge"><title>Node1&#45;&gt;Node2</title>
<path fill="none" stroke="midnightblue" d="M71.8995,-69C79.94,-69 88.7087,-69 97.7673,-69"/>
<polygon fill="midnightblue" stroke="midnightblue" points="71.7858,-65.5001 61.7857,-69 71.7857,-72.5001 71.7858,-65.5001"/>
</g>
<!-- Node3 -->
<g id="node4" class="node"><title>Node3</title>
<polygon fill="none" stroke="#bfbfbf" points="1,-12.5 1,-33.5 61,-33.5 61,-12.5 1,-12.5"/>
<text text-anchor="middle" x="31" y="-21.4" font-family="Helvetica,sans-Serif" font-size="9.00">IGenerator</text>
</g>
<!-- Node3&#45;&gt;Node2 -->
<g id="edge6" class="edge"><title>Node3&#45;&gt;Node2</title>
<path fill="none" stroke="midnightblue" d="M71.0121,-35.2489C79.8782,-37.8778 89.2415,-40.5885 98,-43 108.935,-46.0109 120.561,-49.0756 131.914,-51.9946"/>
<polygon fill="midnightblue" stroke="midnightblue" points="71.8557,-31.848 61.2721,-32.3358 69.8498,-38.5545 71.8557,-31.848"/>
</g>
<!-- Node4 -->
<g id="node6" class="node"><title>Node4</title>
<a xlink:href="df/d5f/a00064.htm" target="_top" xlink:title="de.tu_clausthal.in.mec.object.mas.generic.\lTest_BeliefBase.CJasonBeliefBaseGenerator">
<polygon fill="none" stroke="black" points="99.5,-0 99.5,-34 302.5,-34 302.5,-0 99.5,-0"/>
<text text-anchor="start" x="107.5" y="-21.9" font-family="Helvetica,sans-Serif" font-size="9.00">de.tu_clausthal.in.mec.object.mas.generic.</text>
<text text-anchor="middle" x="201" y="-8.9" font-family="Helvetica,sans-Serif" font-size="9.00">Test_BeliefBase.CJasonBeliefBaseGenerator</text>
</a>
</g>
<!-- Node3&#45;&gt;Node4 -->
<g id="edge4" class="edge"><title>Node3&#45;&gt;Node4</title>
<path fill="none" stroke="midnightblue" d="M71.0977,-21.5848C79.7607,-21.279 89.2965,-20.9425 99.1469,-20.5948"/>
<polygon fill="midnightblue" stroke="midnightblue" points="70.8716,-18.0905 61.0013,-21.9411 71.1185,-25.0861 70.8716,-18.0905"/>
</g>
</g>
</svg>
