<?xml version="1.0" encoding="UTF-8" standalone="no"?>
<!DOCTYPE svg PUBLIC "-//W3C//DTD SVG 1.1//EN"
 "http://www.w3.org/Graphics/SVG/1.1/DTD/svg11.dtd">
<!-- Generated by graphviz version 2.26.3 (20100126.1600)
 -->
<!-- Title: Graphical Class Hierarchy Pages: 1 -->
<svg width="342pt" height="146pt"
 viewBox="0.00 0.00 342.00 146.00" xmlns="http://www.w3.org/2000/svg" xmlns:xlink="http://www.w3.org/1999/xlink">
<g id="graph1" class="graph" transform="scale(1 1) rotate(0) translate(4 142)">
<title>Graphical Class Hierarchy</title>
<!-- Node1 -->
<g id="node1" class="node"><title>Node1</title>
<polygon fill="none" stroke="#bfbfbf" points="27,-58.5 27,-79.5 89,-79.5 89,-58.5 27,-58.5"/>
<text text-anchor="middle" x="58" y="-67.4" font-family="Helvetica,sans-Serif" font-size="9.00">IMultiLayer</text>
</g>
<!-- Node2 -->
<g id="node3" class="node"><title>Node2</title>
<a xlink:href="d6/d5b/a00026.htm" target="_top" xlink:title="defines the layer for cars ">
<polygon fill="none" stroke="black" points="167,-104 167,-138 319,-138 319,-104 167,-104"/>
<text text-anchor="start" x="175" y="-125.9" font-family="Helvetica,sans-Serif" font-size="9.00">de.tu_clausthal.in.mec.object.car.</text>
<text text-anchor="middle" x="243" y="-112.9" font-family="Helvetica,sans-Serif" font-size="9.00">CCarLayer</text>
</a>
</g>
<!-- Node1&#45;&gt;Node2 -->
<g id="edge2" class="edge"><title>Node1&#45;&gt;Node2</title>
<path fill="none" stroke="midnightblue" d="M99.0541,-80.5395C123.492,-87.4084 154.954,-96.2518 182.228,-103.918"/>
<polygon fill="midnightblue" stroke="midnightblue" points="99.9568,-77.1577 89.3827,-77.8211 98.0626,-83.8965 99.9568,-77.1577"/>
</g>
<!-- Node3 -->
<g id="node5" class="node"><title>Node3</title>
<a xlink:href="d6/d7d/a00161.htm" target="_top" xlink:title="class of the Jason environment &#45; the task of this class is the communication with outside data (IO wi...">
<polygon fill="none" stroke="black" points="152,-52 152,-86 334,-86 334,-52 152,-52"/>
<text text-anchor="start" x="160" y="-73.9" font-family="Helvetica,sans-Serif" font-size="9.00">de.tu_clausthal.in.mec.object.mas.jason.</text>
<text text-anchor="middle" x="243" y="-60.9" font-family="Helvetica,sans-Serif" font-size="9.00">IEnvironment&lt; T &gt;</text>
</a>
</g>
<!-- Node1&#45;&gt;Node3 -->
<g id="edge4" class="edge"><title>Node1&#45;&gt;Node3</title>
<path fill="none" stroke="midnightblue" d="M99.6356,-69C115.133,-69 133.396,-69 151.601,-69"/>
<polygon fill="midnightblue" stroke="midnightblue" points="99.3828,-65.5001 89.3827,-69 99.3827,-72.5001 99.3828,-65.5001"/>
</g>
<!-- Node4 -->
<g id="node7" class="node"><title>Node4</title>
<a xlink:href="d5/d16/a00029.htm" target="_top" xlink:title="layer with all sources ">
<polygon fill="none" stroke="black" points="155,-0 155,-34 331,-34 331,-0 155,-0"/>
<text text-anchor="start" x="163" y="-21.9" font-family="Helvetica,sans-Serif" font-size="9.00">de.tu_clausthal.in.mec.object.waypoint.</text>
<text text-anchor="middle" x="243" y="-8.9" font-family="Helvetica,sans-Serif" font-size="9.00">CCarWayPointLayer</text>
</a>
</g>
<!-- Node1&#45;&gt;Node4 -->
<g id="edge6" class="edge"><title>Node1&#45;&gt;Node4</title>
<path fill="none" stroke="midnightblue" d="M99.0541,-57.4605C123.492,-50.5916 154.954,-41.7482 182.228,-34.0819"/>
<polygon fill="midnightblue" stroke="midnightblue" points="98.0626,-54.1035 89.3827,-60.1789 99.9568,-60.8423 98.0626,-54.1035"/>
</g>
<!-- Node5 -->
<g id="node8" class="node"><title>Node5</title>
<polygon fill="none" stroke="#bfbfbf" points="0.5,-110.5 0.5,-131.5 115.5,-131.5 115.5,-110.5 0.5,-110.5"/>
<text text-anchor="middle" x="58" y="-119.4" font-family="Helvetica,sans-Serif" font-size="9.00">IReturnSteppableTarget</text>
</g>
<!-- Node5&#45;&gt;Node2 -->
<g id="edge8" class="edge"><title>Node5&#45;&gt;Node2</title>
<path fill="none" stroke="midnightblue" d="M125.598,-121C138.995,-121 153.145,-121 166.804,-121"/>
<polygon fill="midnightblue" stroke="midnightblue" points="125.521,-117.5 115.521,-121 125.521,-124.5 125.521,-117.5"/>
</g>
</g>
</svg>
