<?xml version="1.0" encoding="UTF-8" standalone="no"?>
<!DOCTYPE svg PUBLIC "-//W3C//DTD SVG 1.1//EN"
 "http://www.w3.org/Graphics/SVG/1.1/DTD/svg11.dtd">
<!-- Generated by graphviz version 2.26.3 (20100126.1600)
 -->
<!-- Title: Graphical Class Hierarchy Pages: 1 -->
<svg width="340pt" height="94pt"
 viewBox="0.00 0.00 340.00 94.00" xmlns="http://www.w3.org/2000/svg" xmlns:xlink="http://www.w3.org/1999/xlink">
<g id="graph1" class="graph" transform="scale(1 1) rotate(0) translate(4 90)">
<title>Graphical Class Hierarchy</title>
<!-- Node1 -->
<g id="node1" class="node"><title>Node1</title>
<polygon fill="none" stroke="#bfbfbf" points="0.5,-32.5 0.5,-53.5 89.5,-53.5 89.5,-32.5 0.5,-32.5"/>
<text text-anchor="middle" x="45" y="-41.4" font-family="Helvetica,sans-Serif" font-size="9.00">IOneTimeStorage</text>
</g>
<!-- Node2 -->
<g id="node3" class="node"><title>Node2</title>
<a xlink:href="d4/d3e/a00116.htm" target="_top" xlink:title="private class for definined a belief storage to use &quot;traffic content information&quot; ...">
<polygon fill="none" stroke="black" points="152.5,-52 152.5,-86 305.5,-86 305.5,-52 152.5,-52"/>
<text text-anchor="start" x="160.5" y="-73.9" font-family="Helvetica,sans-Serif" font-size="9.00">de.tu_clausthal.in.mec.object.car.</text>
<text text-anchor="middle" x="229" y="-60.9" font-family="Helvetica,sans-Serif" font-size="9.00">CCarJasonAgent.CTrafficStorage</text>
</a>
</g>
<!-- Node1&#45;&gt;Node2 -->
<g id="edge2" class="edge"><title>Node1&#45;&gt;Node2</title>
<path fill="none" stroke="midnightblue" d="M99.5474,-50.7078C116.06,-53.041 134.513,-55.6486 152.196,-58.1472"/>
<polygon fill="midnightblue" stroke="midnightblue" points="99.9326,-47.2275 89.5413,-49.2939 98.9532,-54.1587 99.9326,-47.2275"/>
</g>
<!-- Node3 -->
<g id="node5" class="node"><title>Node3</title>
<a xlink:href="d8/d53/a00081.htm" target="_top" xlink:title="beliefbase structure for message beliefs ">
<polygon fill="none" stroke="black" points="126,-0 126,-34 332,-34 332,-0 126,-0"/>
<text text-anchor="start" x="134" y="-21.9" font-family="Helvetica,sans-Serif" font-size="9.00">de.tu_clausthal.in.mec.object.mas.jason.belief.</text>
<text text-anchor="middle" x="229" y="-8.9" font-family="Helvetica,sans-Serif" font-size="9.00">CMessageStorage</text>
</a>
</g>
<!-- Node1&#45;&gt;Node3 -->
<g id="edge4" class="edge"><title>Node1&#45;&gt;Node3</title>
<path fill="none" stroke="midnightblue" d="M99.5236,-35.2956C107.932,-34.1074 116.844,-32.8481 125.902,-31.5682"/>
<polygon fill="midnightblue" stroke="midnightblue" points="98.9532,-31.8413 89.5413,-36.7061 99.9326,-38.7725 98.9532,-31.8413"/>
</g>
</g>
</svg>
