<?xml version="1.0" encoding="UTF-8" standalone="no"?>
<!DOCTYPE svg PUBLIC "-//W3C//DTD SVG 1.1//EN"
 "http://www.w3.org/Graphics/SVG/1.1/DTD/svg11.dtd">
<!-- Generated by graphviz version 2.26.3 (20100126.1600)
 -->
<!-- Title: Graphical Class Hierarchy Pages: 1 -->
<svg width="268pt" height="94pt"
 viewBox="0.00 0.00 268.00 94.00" xmlns="http://www.w3.org/2000/svg" xmlns:xlink="http://www.w3.org/1999/xlink">
<g id="graph1" class="graph" transform="scale(1 1) rotate(0) translate(4 90)">
<title>Graphical Class Hierarchy</title>
<!-- Node1 -->
<g id="node1" class="node"><title>Node1</title>
<polygon fill="none" stroke="#bfbfbf" points="0.5,-32.5 0.5,-53.5 59.5,-53.5 59.5,-32.5 0.5,-32.5"/>
<text text-anchor="middle" x="30" y="-41.4" font-family="Helvetica,sans-Serif" font-size="9.00">IRunnable</text>
</g>
<!-- Node2 -->
<g id="node3" class="node"><title>Node2</title>
<a xlink:href="d1/d44/a00098.htm" target="_top" xlink:title="wrapper class to process a return&#45;steppable item ">
<polygon fill="none" stroke="black" points="96,-52 96,-86 260,-86 260,-52 96,-52"/>
<text text-anchor="start" x="104" y="-73.9" font-family="Helvetica,sans-Serif" font-size="9.00">de.tu_clausthal.in.mec.runtime.core.</text>
<text text-anchor="middle" x="178" y="-60.9" font-family="Helvetica,sans-Serif" font-size="9.00">CReturnSteppable</text>
</a>
</g>
<!-- Node1&#45;&gt;Node2 -->
<g id="edge2" class="edge"><title>Node1&#45;&gt;Node2</title>
<path fill="none" stroke="midnightblue" d="M69.5316,-49.9447C77.7157,-51.3825 86.624,-52.9475 95.7011,-54.5421"/>
<polygon fill="midnightblue" stroke="midnightblue" points="70.0491,-46.4821 59.5943,-48.199 68.8379,-53.3766 70.0491,-46.4821"/>
</g>
<!-- Node3 -->
<g id="node5" class="node"><title>Node3</title>
<a xlink:href="d7/d12/a00126.htm" target="_top" xlink:title="wrapper class to process a void&#45;steppable item ">
<polygon fill="none" stroke="black" points="96,-0 96,-34 260,-34 260,-0 96,-0"/>
<text text-anchor="start" x="104" y="-21.9" font-family="Helvetica,sans-Serif" font-size="9.00">de.tu_clausthal.in.mec.runtime.core.</text>
<text text-anchor="middle" x="178" y="-8.9" font-family="Helvetica,sans-Serif" font-size="9.00">CVoidSteppable</text>
</a>
</g>
<!-- Node1&#45;&gt;Node3 -->
<g id="edge4" class="edge"><title>Node1&#45;&gt;Node3</title>
<path fill="none" stroke="midnightblue" d="M69.5316,-36.0553C77.7157,-34.6175 86.624,-33.0525 95.7011,-31.4579"/>
<polygon fill="midnightblue" stroke="midnightblue" points="68.8379,-32.6234 59.5943,-37.801 70.0491,-39.5179 68.8379,-32.6234"/>
</g>
</g>
</svg>
