<?xml version="1.0" encoding="UTF-8" standalone="no"?>
<!DOCTYPE svg PUBLIC "-//W3C//DTD SVG 1.1//EN"
 "http://www.w3.org/Graphics/SVG/1.1/DTD/svg11.dtd">
<!-- Generated by graphviz version 2.26.3 (20100126.1600)
 -->
<!-- Title: Graphical Class Hierarchy Pages: 1 -->
<svg width="288pt" height="70pt"
 viewBox="0.00 0.00 288.00 70.00" xmlns="http://www.w3.org/2000/svg" xmlns:xlink="http://www.w3.org/1999/xlink">
<g id="graph1" class="graph" transform="scale(1 1) rotate(0) translate(4 66)">
<title>Graphical Class Hierarchy</title>
<!-- Node1 -->
<g id="node1" class="node"><title>Node1</title>
<polygon fill="none" stroke="#bfbfbf" points="0,-40.5 0,-61.5 62,-61.5 62,-40.5 0,-40.5"/>
<text text-anchor="middle" x="31" y="-49.4" font-family="Helvetica,sans-Serif" font-size="9.00">IVoidAgent</text>
</g>
<!-- Node2 -->
<g id="node3" class="node"><title>Node2</title>
<a xlink:href="de/d5e/a00007.htm" target="_top" xlink:title="class of a Jason agent architecture ">
<polygon fill="none" stroke="black" points="98,-14 98,-48 280,-48 280,-14 98,-14"/>
<text text-anchor="start" x="106" y="-35.9" font-family="Helvetica,sans-Serif" font-size="9.00">de.tu_clausthal.in.mec.object.mas.jason.</text>
<text text-anchor="middle" x="189" y="-22.9" font-family="Helvetica,sans-Serif" font-size="9.00">CAgent&lt; T &gt;</text>
</a>
</g>
<!-- Node1&#45;&gt;Node2 -->
<g id="edge2" class="edge"><title>Node1&#45;&gt;Node2</title>
<path fill="none" stroke="midnightblue" d="M72.2993,-45.7722C80.2942,-44.7602 88.9621,-43.663 97.8398,-42.5393"/>
<polygon fill="midnightblue" stroke="midnightblue" points="71.697,-42.3205 62.2157,-47.0486 72.5761,-49.265 71.697,-42.3205"/>
</g>
<!-- Node3 -->
<g id="node4" class="node"><title>Node3</title>
<polygon fill="none" stroke="#bfbfbf" points="12,-0.5 12,-21.5 50,-21.5 50,-0.5 12,-0.5"/>
<text text-anchor="middle" x="31" y="-9.4" font-family="Helvetica,sans-Serif" font-size="9.00">ITask</text>
</g>
<!-- Node3&#45;&gt;Node2 -->
<g id="edge4" class="edge"><title>Node3&#45;&gt;Node2</title>
<path fill="none" stroke="midnightblue" d="M60.1881,-14.6947C71.0912,-16.0748 84.1325,-17.7256 97.669,-19.4391"/>
<polygon fill="midnightblue" stroke="midnightblue" points="60.4189,-11.1961 50.0585,-13.4125 59.5398,-18.1406 60.4189,-11.1961"/>
</g>
</g>
</svg>
