<?xml version="1.0" encoding="UTF-8" standalone="no"?>
<!DOCTYPE svg PUBLIC "-//W3C//DTD SVG 1.1//EN"
 "http://www.w3.org/Graphics/SVG/1.1/DTD/svg11.dtd">
<!-- Generated by graphviz version 2.26.3 (20100126.1600)
 -->
<!-- Title: Graphical Class Hierarchy Pages: 1 -->
<svg width="416pt" height="42pt"
 viewBox="0.00 0.00 416.00 42.00" xmlns="http://www.w3.org/2000/svg" xmlns:xlink="http://www.w3.org/1999/xlink">
<g id="graph1" class="graph" transform="scale(1 1) rotate(0) translate(4 38)">
<title>Graphical Class Hierarchy</title>
<!-- Node1 -->
<g id="node1" class="node"><title>Node1</title>
<polygon fill="none" stroke="#bfbfbf" points="0,-6.5 0,-27.5 56,-27.5 56,-6.5 0,-6.5"/>
<text text-anchor="middle" x="28" y="-15.4" font-family="Helvetica,sans-Serif" font-size="9.00">GridPane</text>
</g>
<!-- Node2 -->
<g id="node3" class="node"><title>Node2</title>
<a xlink:href="d3/d52/a00023.htm" target="_top" xlink:title="create a plain browser component to show any URL ">
<polygon fill="none" stroke="black" points="92,-0 92,-34 232,-34 232,-0 92,-0"/>
<text text-anchor="start" x="100" y="-21.9" font-family="Helvetica,sans-Serif" font-size="9.00">de.tu_clausthal.in.mec.ui.web.</text>
<text text-anchor="middle" x="162" y="-8.9" font-family="Helvetica,sans-Serif" font-size="9.00">CBrowser</text>
</a>
</g>
<!-- Node1&#45;&gt;Node2 -->
<g id="edge2" class="edge"><title>Node1&#45;&gt;Node2</title>
<path fill="none" stroke="midnightblue" d="M66.2722,-17C74.3583,-17 83.1332,-17 91.9784,-17"/>
<polygon fill="midnightblue" stroke="midnightblue" points="66.0908,-13.5001 56.0908,-17 66.0908,-20.5001 66.0908,-13.5001"/>
</g>
<!-- Node3 -->
<g id="node5" class="node"><title>Node3</title>
<a xlink:href="d5/deb/a00132.htm" target="_top" xlink:title="main workspace of the web&#45;menu structure (browser &amp; server structure) ">
<polygon fill="none" stroke="black" points="268,-0 268,-34 408,-34 408,-0 268,-0"/>
<text text-anchor="start" x="276" y="-21.9" font-family="Helvetica,sans-Serif" font-size="9.00">de.tu_clausthal.in.mec.ui.web.</text>
<text text-anchor="middle" x="338" y="-8.9" font-family="Helvetica,sans-Serif" font-size="9.00">CWorkspace</text>
</a>
</g>
<!-- Node2&#45;&gt;Node3 -->
<g id="edge4" class="edge"><title>Node2&#45;&gt;Node3</title>
<path fill="none" stroke="midnightblue" d="M242.101,-17C250.706,-17 259.412,-17 267.888,-17"/>
<polygon fill="midnightblue" stroke="midnightblue" points="242.066,-13.5001 232.066,-17 242.066,-20.5001 242.066,-13.5001"/>
</g>
</g>
</svg>
