<?xml version="1.0" encoding="UTF-8" standalone="no"?>
<!DOCTYPE svg PUBLIC "-//W3C//DTD SVG 1.1//EN"
 "http://www.w3.org/Graphics/SVG/1.1/DTD/svg11.dtd">
<!-- Generated by graphviz version 2.26.3 (20100126.1600)
 -->
<!-- Title: Graphical Class Hierarchy Pages: 1 -->
<svg width="356pt" height="198pt"
 viewBox="0.00 0.00 356.00 198.00" xmlns="http://www.w3.org/2000/svg" xmlns:xlink="http://www.w3.org/1999/xlink">
<g id="graph1" class="graph" transform="scale(1 1) rotate(0) translate(4 194)">
<title>Graphical Class Hierarchy</title>
<!-- Node1 -->
<g id="node1" class="node"><title>Node1</title>
<polygon fill="none" stroke="#bfbfbf" points="0,-84.5 0,-105.5 102,-105.5 102,-84.5 0,-84.5"/>
<text text-anchor="middle" x="51" y="-93.4" font-family="Helvetica,sans-Serif" font-size="9.00">DefaultInternalAction</text>
</g>
<!-- Node2 -->
<g id="node3" class="node"><title>Node2</title>
<a xlink:href="d7/d7a/a00016.htm" target="_top" xlink:title="internal action for deleting beliefs directly, based on their functor without event generation ...">
<polygon fill="none" stroke="black" points="138.5,-156 138.5,-190 347.5,-190 347.5,-156 138.5,-156"/>
<text text-anchor="start" x="146.5" y="-177.9" font-family="Helvetica,sans-Serif" font-size="9.00">de.tu_clausthal.in.mec.object.mas.jason.action.</text>
<text text-anchor="middle" x="243" y="-164.9" font-family="Helvetica,sans-Serif" font-size="9.00">CBeliefRemove</text>
</a>
</g>
<!-- Node1&#45;&gt;Node2 -->
<g id="edge2" class="edge"><title>Node1&#45;&gt;Node2</title>
<path fill="none" stroke="midnightblue" d="M74.3473,-111.56C91.3165,-122.932 115.211,-137.613 138,-147 146.074,-150.326 154.68,-153.301 163.357,-155.944"/>
<polygon fill="midnightblue" stroke="midnightblue" points="75.9141,-108.391 65.6835,-105.637 71.9635,-114.17 75.9141,-108.391"/>
</g>
<!-- Node3 -->
<g id="node5" class="node"><title>Node3</title>
<a xlink:href="df/d03/a00062.htm" target="_top" xlink:title="empty action to overwrite default behaviour ">
<polygon fill="none" stroke="black" points="138.5,-104 138.5,-138 347.5,-138 347.5,-104 138.5,-104"/>
<text text-anchor="start" x="146.5" y="-125.9" font-family="Helvetica,sans-Serif" font-size="9.00">de.tu_clausthal.in.mec.object.mas.jason.action.</text>
<text text-anchor="middle" x="243" y="-112.9" font-family="Helvetica,sans-Serif" font-size="9.00">CInternalEmpty</text>
</a>
</g>
<!-- Node1&#45;&gt;Node3 -->
<g id="edge4" class="edge"><title>Node1&#45;&gt;Node3</title>
<path fill="none" stroke="midnightblue" d="M112.173,-103.284C120.532,-104.416 129.298,-105.603 138.165,-106.804"/>
<polygon fill="midnightblue" stroke="midnightblue" points="112.58,-99.807 102.2,-101.933 111.64,-106.744 112.58,-99.807"/>
</g>
<!-- Node4 -->
<g id="node7" class="node"><title>Node4</title>
<a xlink:href="d4/d31/a00069.htm" target="_top" xlink:title="converts a Jason term into a Jason number term ">
<polygon fill="none" stroke="black" points="138.5,-52 138.5,-86 347.5,-86 347.5,-52 138.5,-52"/>
<text text-anchor="start" x="146.5" y="-73.9" font-family="Helvetica,sans-Serif" font-size="9.00">de.tu_clausthal.in.mec.object.mas.jason.action.</text>
<text text-anchor="middle" x="243" y="-60.9" font-family="Helvetica,sans-Serif" font-size="9.00">CLiteral2Number</text>
</a>
</g>
<!-- Node1&#45;&gt;Node4 -->
<g id="edge6" class="edge"><title>Node1&#45;&gt;Node4</title>
<path fill="none" stroke="midnightblue" d="M112.173,-86.7161C120.532,-85.5842 129.298,-84.3971 138.165,-83.1963"/>
<polygon fill="midnightblue" stroke="midnightblue" points="111.64,-83.2563 102.2,-88.0666 112.58,-90.193 111.64,-83.2563"/>
</g>
<!-- Node5 -->
<g id="node9" class="node"><title>Node5</title>
<a xlink:href="d9/df8/a00096.htm" target="_top" xlink:title="internal action to use a complex random generator ">
<polygon fill="none" stroke="black" points="138.5,-0 138.5,-34 347.5,-34 347.5,-0 138.5,-0"/>
<text text-anchor="start" x="146.5" y="-21.9" font-family="Helvetica,sans-Serif" font-size="9.00">de.tu_clausthal.in.mec.object.mas.jason.action.</text>
<text text-anchor="middle" x="243" y="-8.9" font-family="Helvetica,sans-Serif" font-size="9.00">CRandom</text>
</a>
</g>
<!-- Node1&#45;&gt;Node5 -->
<g id="edge8" class="edge"><title>Node1&#45;&gt;Node5</title>
<path fill="none" stroke="midnightblue" d="M74.3473,-78.4402C91.3165,-67.0679 115.211,-52.3868 138,-43 146.074,-39.6741 154.68,-36.6986 163.357,-34.0559"/>
<polygon fill="midnightblue" stroke="midnightblue" points="71.9635,-75.83 65.6835,-84.3631 75.9141,-81.6088 71.9635,-75.83"/>
</g>
</g>
</svg>
