<?xml version="1.0" encoding="UTF-8" standalone="no"?>
<!DOCTYPE svg PUBLIC "-//W3C//DTD SVG 1.1//EN"
 "http://www.w3.org/Graphics/SVG/1.1/DTD/svg11.dtd">
<!-- Generated by graphviz version 2.26.3 (20100126.1600)
 -->
<!-- Title: Graphical Class Hierarchy Pages: 1 -->
<svg width="424pt" height="94pt"
 viewBox="0.00 0.00 424.00 94.00" xmlns="http://www.w3.org/2000/svg" xmlns:xlink="http://www.w3.org/1999/xlink">
<g id="graph1" class="graph" transform="scale(1 1) rotate(0) translate(4 90)">
<title>Graphical Class Hierarchy</title>
<!-- Node1 -->
<g id="node1" class="node"><title>Node1</title>
<a xlink:href="d9/d7d/a00150.htm" target="_top" xlink:title="interface for equal method names on masks and beliefbases ">
<polygon fill="none" stroke="black" points="0,-26 0,-60 190,-60 190,-26 0,-26"/>
<text text-anchor="start" x="8" y="-47.9" font-family="Helvetica,sans-Serif" font-size="9.00">de.tu_clausthal.in.mec.object.mas.generic.</text>
<text text-anchor="middle" x="95" y="-34.9" font-family="Helvetica,sans-Serif" font-size="9.00">IBeliefBaseAction&lt; T &gt;</text>
</a>
</g>
<!-- Node2 -->
<g id="node3" class="node"><title>Node2</title>
<a xlink:href="da/d1e/a00149.htm" target="_top" xlink:title="de.tu_clausthal.in.mec.object.mas.generic.\lIBeliefBase\&lt; T \&gt;">
<polygon fill="none" stroke="black" points="226,-52 226,-86 416,-86 416,-52 226,-52"/>
<text text-anchor="start" x="234" y="-73.9" font-family="Helvetica,sans-Serif" font-size="9.00">de.tu_clausthal.in.mec.object.mas.generic.</text>
<text text-anchor="middle" x="321" y="-60.9" font-family="Helvetica,sans-Serif" font-size="9.00">IBeliefBase&lt; T &gt;</text>
</a>
</g>
<!-- Node1&#45;&gt;Node2 -->
<g id="edge2" class="edge"><title>Node1&#45;&gt;Node2</title>
<path fill="none" stroke="midnightblue" d="M200.216,-55.1044C208.79,-56.0909 217.425,-57.0843 225.921,-58.0617"/>
<polygon fill="midnightblue" stroke="midnightblue" points="200.524,-51.6169 190.189,-53.951 199.724,-58.571 200.524,-51.6169"/>
</g>
<!-- Node3 -->
<g id="node5" class="node"><title>Node3</title>
<a xlink:href="dd/db2/a00151.htm" target="_top" xlink:title="mask of the path ">
<polygon fill="none" stroke="black" points="226,-0 226,-34 416,-34 416,-0 226,-0"/>
<text text-anchor="start" x="234" y="-21.9" font-family="Helvetica,sans-Serif" font-size="9.00">de.tu_clausthal.in.mec.object.mas.generic.</text>
<text text-anchor="middle" x="321" y="-8.9" font-family="Helvetica,sans-Serif" font-size="9.00">IBeliefBaseMask&lt; T &gt;</text>
</a>
</g>
<!-- Node1&#45;&gt;Node3 -->
<g id="edge4" class="edge"><title>Node1&#45;&gt;Node3</title>
<path fill="none" stroke="midnightblue" d="M200.216,-30.8956C208.79,-29.9091 217.425,-28.9157 225.921,-27.9383"/>
<polygon fill="midnightblue" stroke="midnightblue" points="199.724,-27.429 190.189,-32.049 200.524,-34.3831 199.724,-27.429"/>
</g>
</g>
</svg>
