<?xml version="1.0" encoding="UTF-8" standalone="no"?>
<!DOCTYPE svg PUBLIC "-//W3C//DTD SVG 1.1//EN"
 "http://www.w3.org/Graphics/SVG/1.1/DTD/svg11.dtd">
<!-- Generated by graphviz version 2.26.3 (20100126.1600)
 -->
<!-- Title: Graphical Class Hierarchy Pages: 1 -->
<svg width="516pt" height="264pt"
 viewBox="0.00 0.00 516.00 264.00" xmlns="http://www.w3.org/2000/svg" xmlns:xlink="http://www.w3.org/1999/xlink">
<g id="graph1" class="graph" transform="scale(1 1) rotate(0) translate(4 260)">
<title>Graphical Class Hierarchy</title>
<!-- Node1 -->
<g id="node1" class="node"><title>Node1</title>
<polygon fill="none" stroke="#bfbfbf" points="6,-169.5 6,-190.5 62,-190.5 62,-169.5 6,-169.5"/>
<text text-anchor="middle" x="34" y="-178.4" font-family="Helvetica,sans-Serif" font-size="9.00">HashMap</text>
</g>
<!-- Node2 -->
<g id="node3" class="node"><title>Node2</title>
<a xlink:href="d1/d7c/a00003.htm" target="_top" xlink:title="class of an adjacence matrix ">
<polygon fill="none" stroke="black" points="140,-222 140,-256 288,-256 288,-222 140,-222"/>
<text text-anchor="start" x="148" y="-243.9" font-family="Helvetica,sans-Serif" font-size="9.00">de.tu_clausthal.in.mec.common.</text>
<text text-anchor="middle" x="214" y="-230.9" font-family="Helvetica,sans-Serif" font-size="9.00">CAdjacencyMatrix&lt; T, N &gt;</text>
</a>
</g>
<!-- Node1&#45;&gt;Node2 -->
<g id="edge2" class="edge"><title>Node1&#45;&gt;Node2</title>
<path fill="none" stroke="midnightblue" d="M62.4617,-195.07C74.9556,-201.25 89.9518,-208.089 104,-213 115.392,-216.983 127.659,-220.552 139.723,-223.678"/>
<polygon fill="midnightblue" stroke="midnightblue" points="63.956,-191.904 53.4524,-190.516 60.7981,-198.151 63.956,-191.904"/>
</g>
<!-- Node3 -->
<g id="node5" class="node"><title>Node3</title>
<a xlink:href="db/ddf/a00088.htm" target="_top" xlink:title="named&#45;base hashmap for Json serialization ">
<polygon fill="none" stroke="black" points="140,-104 140,-138 288,-138 288,-104 140,-104"/>
<text text-anchor="start" x="148" y="-125.9" font-family="Helvetica,sans-Serif" font-size="9.00">de.tu_clausthal.in.mec.common.</text>
<text text-anchor="middle" x="214" y="-112.9" font-family="Helvetica,sans-Serif" font-size="9.00">CNameHashMap</text>
</a>
</g>
<!-- Node1&#45;&gt;Node3 -->
<g id="edge4" class="edge"><title>Node1&#45;&gt;Node3</title>
<path fill="none" stroke="midnightblue" d="M62.4617,-164.93C74.9556,-158.75 89.9518,-151.911 104,-147 115.392,-143.017 127.659,-139.448 139.723,-136.322"/>
<polygon fill="midnightblue" stroke="midnightblue" points="60.7981,-161.849 53.4524,-169.484 63.956,-168.096 60.7981,-161.849"/>
</g>
<!-- Node5 -->
<g id="node9" class="node"><title>Node5</title>
<a xlink:href="d9/da5/a00075.htm" target="_top" xlink:title="generic class to create a markov chain this class also provides a relative and absolute weighting ...">
<polygon fill="none" stroke="black" points="104,-156.5 104,-203.5 324,-203.5 324,-156.5 104,-156.5"/>
<text text-anchor="start" x="112" y="-191.4" font-family="Helvetica,sans-Serif" font-size="9.00">de.tu_clausthal.in.mec.object.waypoint.point.</text>
<text text-anchor="start" x="112" y="-178.4" font-family="Helvetica,sans-Serif" font-size="9.00">IPathWayPoint&lt; T, P extends IFactory</text>
<text text-anchor="middle" x="214" y="-165.4" font-family="Helvetica,sans-Serif" font-size="9.00">&lt; T &gt;, N extends IGenerator &gt;.CMakrovChain&lt; T &gt;</text>
</a>
</g>
<!-- Node1&#45;&gt;Node5 -->
<g id="edge8" class="edge"><title>Node1&#45;&gt;Node5</title>
<path fill="none" stroke="midnightblue" d="M72.3515,-180C81.8836,-180 92.584,-180 103.721,-180"/>
<polygon fill="midnightblue" stroke="midnightblue" points="72.125,-176.5 62.125,-180 72.125,-183.5 72.125,-176.5"/>
</g>
<!-- Node4 -->
<g id="node7" class="node"><title>Node4</title>
<a xlink:href="d4/d6d/a00055.htm" target="_top" xlink:title="immutable map ">
<polygon fill="none" stroke="black" points="360,-104 360,-138 508,-138 508,-104 360,-104"/>
<text text-anchor="start" x="368" y="-125.9" font-family="Helvetica,sans-Serif" font-size="9.00">de.tu_clausthal.in.mec.common.</text>
<text text-anchor="middle" x="434" y="-112.9" font-family="Helvetica,sans-Serif" font-size="9.00">CNameHashMap.CImmutable</text>
</a>
</g>
<!-- Node3&#45;&gt;Node4 -->
<g id="edge6" class="edge"><title>Node3&#45;&gt;Node4</title>
<path fill="none" stroke="midnightblue" d="M298.315,-121C318.557,-121 340.028,-121 359.773,-121"/>
<polygon fill="midnightblue" stroke="midnightblue" points="298.175,-117.5 288.175,-121 298.175,-124.5 298.175,-117.5"/>
</g>
<!-- Node6 -->
<g id="node10" class="node"><title>Node6</title>
<polygon fill="none" stroke="#bfbfbf" points="0,-35.5 0,-56.5 68,-56.5 68,-35.5 0,-35.5"/>
<text text-anchor="middle" x="34" y="-44.4" font-family="Helvetica,sans-Serif" font-size="9.00">Comparable</text>
</g>
<!-- Node7 -->
<g id="node12" class="node"><title>Node7</title>
<a xlink:href="dc/d54/a00094.htm" target="_top" xlink:title="class to create a path structure ">
<polygon fill="none" stroke="black" points="140,-52 140,-86 288,-86 288,-52 140,-52"/>
<text text-anchor="start" x="148" y="-73.9" font-family="Helvetica,sans-Serif" font-size="9.00">de.tu_clausthal.in.mec.common.</text>
<text text-anchor="middle" x="214" y="-60.9" font-family="Helvetica,sans-Serif" font-size="9.00">CPath</text>
</a>
</g>
<!-- Node6&#45;&gt;Node7 -->
<g id="edge10" class="edge"><title>Node6&#45;&gt;Node7</title>
<path fill="none" stroke="midnightblue" d="M78.2217,-51.6505C96.8294,-54.0282 118.995,-56.8605 139.966,-59.5401"/>
<polygon fill="midnightblue" stroke="midnightblue" points="78.6433,-48.176 68.2803,-50.3803 77.756,-55.1196 78.6433,-48.176"/>
</g>
<!-- Node8 -->
<g id="node14" class="node"><title>Node8</title>
<a xlink:href="d6/d2d/a00047.htm" target="_top" xlink:title="class for defining the cell sampling structure of an edge with the object information ...">
<polygon fill="none" stroke="black" points="124.5,-0 124.5,-34 303.5,-34 303.5,-0 124.5,-0"/>
<text text-anchor="start" x="132.5" y="-21.9" font-family="Helvetica,sans-Serif" font-size="9.00">de.tu_clausthal.in.mec.object.car.graph.</text>
<text text-anchor="middle" x="214" y="-8.9" font-family="Helvetica,sans-Serif" font-size="9.00">CEdge&lt; N, T &gt;</text>
</a>
</g>
<!-- Node6&#45;&gt;Node8 -->
<g id="edge12" class="edge"><title>Node6&#45;&gt;Node8</title>
<path fill="none" stroke="midnightblue" d="M78.5545,-38.8218C92.5394,-36.5687 108.509,-33.9958 124.459,-31.426"/>
<polygon fill="midnightblue" stroke="midnightblue" points="77.5963,-35.4309 68.2803,-40.4771 78.7097,-42.3418 77.5963,-35.4309"/>
</g>
<!-- Node9 -->
<g id="node15" class="node"><title>Node9</title>
<polygon fill="none" stroke="#bfbfbf" points="10.5,-81.5 10.5,-102.5 57.5,-102.5 57.5,-81.5 10.5,-81.5"/>
<text text-anchor="middle" x="34" y="-90.4" font-family="Helvetica,sans-Serif" font-size="9.00">Iterable</text>
</g>
<!-- Node9&#45;&gt;Node3 -->
<g id="edge14" class="edge"><title>Node9&#45;&gt;Node3</title>
<path fill="none" stroke="midnightblue" d="M67.5433,-97.4042C87.8968,-100.683 114.712,-105.004 139.829,-109.05"/>
<polygon fill="midnightblue" stroke="midnightblue" points="67.9613,-93.9265 57.5319,-95.7912 66.8478,-100.837 67.9613,-93.9265"/>
</g>
<!-- Node9&#45;&gt;Node7 -->
<g id="edge16" class="edge"><title>Node9&#45;&gt;Node7</title>
<path fill="none" stroke="midnightblue" d="M67.5433,-87.7139C87.8968,-85.1132 114.712,-81.6868 139.829,-78.4774"/>
<polygon fill="midnightblue" stroke="midnightblue" points="67.0076,-84.2538 57.5319,-88.9932 67.8949,-91.1974 67.0076,-84.2538"/>
</g>
</g>
</svg>
