<?xml version="1.0" encoding="UTF-8" standalone="no"?>
<!DOCTYPE svg PUBLIC "-//W3C//DTD SVG 1.1//EN"
 "http://www.w3.org/Graphics/SVG/1.1/DTD/svg11.dtd">
<!-- Generated by graphviz version 2.26.3 (20100126.1600)
 -->
<!-- Title: Graphical Class Hierarchy Pages: 1 -->
<svg width="680pt" height="42pt"
 viewBox="0.00 0.00 680.00 42.00" xmlns="http://www.w3.org/2000/svg" xmlns:xlink="http://www.w3.org/1999/xlink">
<g id="graph1" class="graph" transform="scale(1 1) rotate(0) translate(4 38)">
<title>Graphical Class Hierarchy</title>
<!-- Node1 -->
<g id="node1" class="node"><title>Node1</title>
<a xlink:href="de/d38/a00160.htm" target="_top" xlink:title="drive interface for driving models ">
<polygon fill="none" stroke="black" points="0,-0 0,-34 200,-34 200,-0 0,-0"/>
<text text-anchor="start" x="8" y="-21.9" font-family="Helvetica,sans-Serif" font-size="9.00">de.tu_clausthal.in.mec.object.car.drivemodel.</text>
<text text-anchor="middle" x="100" y="-8.9" font-family="Helvetica,sans-Serif" font-size="9.00">IDriveModel</text>
</a>
</g>
<!-- Node2 -->
<g id="node3" class="node"><title>Node2</title>
<a xlink:href="d1/d1e/a00087.htm" target="_top" xlink:title="class of the Nagel&#45;Schreckenberg drive model ">
<polygon fill="none" stroke="black" points="236,-0 236,-34 436,-34 436,-0 236,-0"/>
<text text-anchor="start" x="244" y="-21.9" font-family="Helvetica,sans-Serif" font-size="9.00">de.tu_clausthal.in.mec.object.car.drivemodel.</text>
<text text-anchor="middle" x="336" y="-8.9" font-family="Helvetica,sans-Serif" font-size="9.00">CNagelSchreckenberg</text>
</a>
</g>
<!-- Node1&#45;&gt;Node2 -->
<g id="edge2" class="edge"><title>Node1&#45;&gt;Node2</title>
<path fill="none" stroke="midnightblue" d="M210.096,-17C218.656,-17 227.27,-17 235.76,-17"/>
<polygon fill="midnightblue" stroke="midnightblue" points="210.085,-13.5001 200.085,-17 210.085,-20.5001 210.085,-13.5001"/>
</g>
<!-- Node3 -->
<g id="node5" class="node"><title>Node3</title>
<a xlink:href="d7/dec/a00010.htm" target="_top" xlink:title="class of the Nagel&#45;Schreckenberg drive model which uses full control of agent cars ...">
<polygon fill="none" stroke="black" points="472,-0 472,-34 672,-34 672,-0 472,-0"/>
<text text-anchor="start" x="480" y="-21.9" font-family="Helvetica,sans-Serif" font-size="9.00">de.tu_clausthal.in.mec.object.car.drivemodel.</text>
<text text-anchor="middle" x="572" y="-8.9" font-family="Helvetica,sans-Serif" font-size="9.00">CAgentNagelSchreckenberg</text>
</a>
</g>
<!-- Node2&#45;&gt;Node3 -->
<g id="edge4" class="edge"><title>Node2&#45;&gt;Node3</title>
<path fill="none" stroke="midnightblue" d="M446.096,-17C454.656,-17 463.27,-17 471.76,-17"/>
<polygon fill="midnightblue" stroke="midnightblue" points="446.085,-13.5001 436.085,-17 446.085,-20.5001 446.085,-13.5001"/>
</g>
</g>
</svg>
