<?xml version="1.0" encoding="UTF-8" standalone="no"?>
<!DOCTYPE svg PUBLIC "-//W3C//DTD SVG 1.1//EN"
 "http://www.w3.org/Graphics/SVG/1.1/DTD/svg11.dtd">
<!-- Generated by graphviz version 2.26.3 (20100126.1600)
 -->
<!-- Title: Graphical Class Hierarchy Pages: 1 -->
<svg width="266pt" height="302pt"
 viewBox="0.00 0.00 266.00 302.00" xmlns="http://www.w3.org/2000/svg" xmlns:xlink="http://www.w3.org/1999/xlink">
<g id="graph1" class="graph" transform="scale(1 1) rotate(0) translate(4 298)">
<title>Graphical Class Hierarchy</title>
<!-- Node1 -->
<g id="node1" class="node"><title>Node1</title>
<polygon fill="none" stroke="#bfbfbf" points="0.5,-136.5 0.5,-157.5 45.5,-157.5 45.5,-136.5 0.5,-136.5"/>
<text text-anchor="middle" x="23" y="-145.4" font-family="Helvetica,sans-Serif" font-size="9.00">ICheck</text>
</g>
<!-- Node2 -->
<g id="node3" class="node"><title>Node2</title>
<a xlink:href="df/d61/a00031.htm" target="_top" xlink:title="class type check ">
<polygon fill="none" stroke="black" points="82.5,-260 82.5,-294 257.5,-294 257.5,-260 82.5,-260"/>
<text text-anchor="start" x="90.5" y="-281.9" font-family="Helvetica,sans-Serif" font-size="9.00">de.tu_clausthal.in.mec.CConfiguration.</text>
<text text-anchor="middle" x="170" y="-268.9" font-family="Helvetica,sans-Serif" font-size="9.00">CClassType</text>
</a>
</g>
<!-- Node1&#45;&gt;Node2 -->
<g id="edge2" class="edge"><title>Node1&#45;&gt;Node2</title>
<path fill="none" stroke="midnightblue" d="M29.276,-167.27C37.5921,-190.804 54.5076,-229.173 82,-251 86.2421,-254.368 90.9096,-257.3 95.8147,-259.852"/>
<polygon fill="midnightblue" stroke="midnightblue" points="32.5391,-165.991 26.0532,-157.613 25.8992,-168.207 32.5391,-165.991"/>
</g>
<!-- Node3 -->
<g id="node5" class="node"><title>Node3</title>
<a xlink:href="dc/d87/a00032.htm" target="_top" xlink:title="collection empty check ">
<polygon fill="none" stroke="black" points="82.5,-208 82.5,-242 257.5,-242 257.5,-208 82.5,-208"/>
<text text-anchor="start" x="90.5" y="-229.9" font-family="Helvetica,sans-Serif" font-size="9.00">de.tu_clausthal.in.mec.CConfiguration.</text>
<text text-anchor="middle" x="170" y="-216.9" font-family="Helvetica,sans-Serif" font-size="9.00">CCollectionNotEmpty</text>
</a>
</g>
<!-- Node1&#45;&gt;Node3 -->
<g id="edge4" class="edge"><title>Node1&#45;&gt;Node3</title>
<path fill="none" stroke="midnightblue" d="M39.6214,-165.25C50.6691,-176.405 66.037,-190.179 82,-199 87.9956,-202.313 94.4598,-205.247 101.066,-207.835"/>
<polygon fill="midnightblue" stroke="midnightblue" points="41.8365,-162.502 32.3937,-157.697 36.7792,-167.342 41.8365,-162.502"/>
</g>
<!-- Node4 -->
<g id="node7" class="node"><title>Node4</title>
<a xlink:href="d1/dea/a00054.htm" target="_top" xlink:title="numeric greater check ">
<polygon fill="none" stroke="black" points="82.5,-156 82.5,-190 257.5,-190 257.5,-156 82.5,-156"/>
<text text-anchor="start" x="90.5" y="-177.9" font-family="Helvetica,sans-Serif" font-size="9.00">de.tu_clausthal.in.mec.CConfiguration.</text>
<text text-anchor="middle" x="170" y="-164.9" font-family="Helvetica,sans-Serif" font-size="9.00">CGreater</text>
</a>
</g>
<!-- Node1&#45;&gt;Node4 -->
<g id="edge6" class="edge"><title>Node1&#45;&gt;Node4</title>
<path fill="none" stroke="midnightblue" d="M55.7432,-152.791C63.894,-154.233 73.0227,-155.848 82.4727,-157.519"/>
<polygon fill="midnightblue" stroke="midnightblue" points="56.1034,-149.301 45.6466,-151.006 54.8841,-156.194 56.1034,-149.301"/>
</g>
<!-- Node5 -->
<g id="node9" class="node"><title>Node5</title>
<a xlink:href="d9/d73/a00060.htm" target="_top" xlink:title="numeric in range check ">
<polygon fill="none" stroke="black" points="82.5,-104 82.5,-138 257.5,-138 257.5,-104 82.5,-104"/>
<text text-anchor="start" x="90.5" y="-125.9" font-family="Helvetica,sans-Serif" font-size="9.00">de.tu_clausthal.in.mec.CConfiguration.</text>
<text text-anchor="middle" x="170" y="-112.9" font-family="Helvetica,sans-Serif" font-size="9.00">CInRange</text>
</a>
</g>
<!-- Node1&#45;&gt;Node5 -->
<g id="edge8" class="edge"><title>Node1&#45;&gt;Node5</title>
<path fill="none" stroke="midnightblue" d="M55.7432,-141.209C63.894,-139.767 73.0227,-138.152 82.4727,-136.481"/>
<polygon fill="midnightblue" stroke="midnightblue" points="54.8841,-137.806 45.6466,-142.994 56.1034,-144.699 54.8841,-137.806"/>
</g>
<!-- Node6 -->
<g id="node11" class="node"><title>Node6</title>
<a xlink:href="d0/dc2/a00104.htm" target="_top" xlink:title="string not&#45;allowed char check ">
<polygon fill="none" stroke="black" points="82.5,-52 82.5,-86 257.5,-86 257.5,-52 82.5,-52"/>
<text text-anchor="start" x="90.5" y="-73.9" font-family="Helvetica,sans-Serif" font-size="9.00">de.tu_clausthal.in.mec.CConfiguration.</text>
<text text-anchor="middle" x="170" y="-60.9" font-family="Helvetica,sans-Serif" font-size="9.00">CStringNotContains</text>
</a>
</g>
<!-- Node1&#45;&gt;Node6 -->
<g id="edge10" class="edge"><title>Node1&#45;&gt;Node6</title>
<path fill="none" stroke="midnightblue" d="M39.6214,-128.75C50.6691,-117.595 66.037,-103.821 82,-95 87.9956,-91.6867 94.4598,-88.753 101.066,-86.1647"/>
<polygon fill="midnightblue" stroke="midnightblue" points="36.7792,-126.658 32.3937,-136.303 41.8365,-131.498 36.7792,-126.658"/>
</g>
<!-- Node7 -->
<g id="node13" class="node"><title>Node7</title>
<a xlink:href="d3/d32/a00105.htm" target="_top" xlink:title="string empty check ">
<polygon fill="none" stroke="black" points="82.5,-0 82.5,-34 257.5,-34 257.5,-0 82.5,-0"/>
<text text-anchor="start" x="90.5" y="-21.9" font-family="Helvetica,sans-Serif" font-size="9.00">de.tu_clausthal.in.mec.CConfiguration.</text>
<text text-anchor="middle" x="170" y="-8.9" font-family="Helvetica,sans-Serif" font-size="9.00">CStringNotEmpty</text>
</a>
</g>
<!-- Node1&#45;&gt;Node7 -->
<g id="edge12" class="edge"><title>Node1&#45;&gt;Node7</title>
<path fill="none" stroke="midnightblue" d="M29.276,-126.73C37.5921,-103.196 54.5076,-64.8267 82,-43 86.2421,-39.6321 90.9096,-36.7003 95.8147,-34.1479"/>
<polygon fill="midnightblue" stroke="midnightblue" points="25.8992,-125.793 26.0532,-136.387 32.5391,-128.009 25.8992,-125.793"/>
</g>
</g>
</svg>
