<?xml version="1.0" encoding="UTF-8" standalone="no"?>
<!DOCTYPE svg PUBLIC "-//W3C//DTD SVG 1.1//EN"
 "http://www.w3.org/Graphics/SVG/1.1/DTD/svg11.dtd">
<!-- Generated by graphviz version 2.26.3 (20100126.1600)
 -->
<!-- Title: Graphical Class Hierarchy Pages: 1 -->
<svg width="324pt" height="198pt"
 viewBox="0.00 0.00 324.00 198.00" xmlns="http://www.w3.org/2000/svg" xmlns:xlink="http://www.w3.org/1999/xlink">
<g id="graph1" class="graph" transform="scale(1 1) rotate(0) translate(4 194)">
<title>Graphical Class Hierarchy</title>
<!-- Node1 -->
<g id="node1" class="node"><title>Node1</title>
<a xlink:href="d3/d2a/a00195.htm" target="_top" xlink:title="interface of locations ">
<polygon fill="none" stroke="black" points="0,-78 0,-112 140,-112 140,-78 0,-78"/>
<text text-anchor="start" x="8" y="-99.9" font-family="Helvetica,sans-Serif" font-size="9.00">de.tu_clausthal.in.mec.ui.web.</text>
<text text-anchor="middle" x="70" y="-86.9" font-family="Helvetica,sans-Serif" font-size="9.00">IVirtualLocation</text>
</a>
</g>
<!-- Node2 -->
<g id="node3" class="node"><title>Node2</title>
<a xlink:href="d8/dfa/a00121.htm" target="_top" xlink:title="definition of virtual directory locations ">
<polygon fill="none" stroke="black" points="176,-156 176,-190 316,-190 316,-156 176,-156"/>
<text text-anchor="start" x="184" y="-177.9" font-family="Helvetica,sans-Serif" font-size="9.00">de.tu_clausthal.in.mec.ui.web.</text>
<text text-anchor="middle" x="246" y="-164.9" font-family="Helvetica,sans-Serif" font-size="9.00">CVirtualDirectory</text>
</a>
</g>
<!-- Node1&#45;&gt;Node2 -->
<g id="edge2" class="edge"><title>Node1&#45;&gt;Node2</title>
<path fill="none" stroke="midnightblue" d="M111.693,-116.657C131.041,-126.395 154.475,-137.75 176,-147 183.027,-150.02 190.534,-153.029 197.925,-155.871"/>
<polygon fill="midnightblue" stroke="midnightblue" points="113.052,-113.422 102.549,-112.023 109.887,-119.666 113.052,-113.422"/>
</g>
<!-- Node3 -->
<g id="node5" class="node"><title>Node3</title>
<a xlink:href="df/dc8/a00122.htm" target="_top" xlink:title="class to call methods continuously with websockets ">
<polygon fill="none" stroke="black" points="176,-104 176,-138 316,-138 316,-104 176,-104"/>
<text text-anchor="start" x="184" y="-125.9" font-family="Helvetica,sans-Serif" font-size="9.00">de.tu_clausthal.in.mec.ui.web.</text>
<text text-anchor="middle" x="246" y="-112.9" font-family="Helvetica,sans-Serif" font-size="9.00">CVirtualDynamicMethod</text>
</a>
</g>
<!-- Node1&#45;&gt;Node3 -->
<g id="edge4" class="edge"><title>Node1&#45;&gt;Node3</title>
<path fill="none" stroke="midnightblue" d="M150.101,-106.833C158.706,-108.104 167.412,-109.39 175.888,-110.643"/>
<polygon fill="midnightblue" stroke="midnightblue" points="150.47,-103.35 140.066,-105.351 149.447,-110.275 150.47,-103.35"/>
</g>
<!-- Node4 -->
<g id="node7" class="node"><title>Node4</title>
<a xlink:href="de/d36/a00123.htm" target="_top" xlink:title="virtual file with full path ">
<polygon fill="none" stroke="black" points="176,-52 176,-86 316,-86 316,-52 176,-52"/>
<text text-anchor="start" x="184" y="-73.9" font-family="Helvetica,sans-Serif" font-size="9.00">de.tu_clausthal.in.mec.ui.web.</text>
<text text-anchor="middle" x="246" y="-60.9" font-family="Helvetica,sans-Serif" font-size="9.00">CVirtualFile</text>
</a>
</g>
<!-- Node1&#45;&gt;Node4 -->
<g id="edge6" class="edge"><title>Node1&#45;&gt;Node4</title>
<path fill="none" stroke="midnightblue" d="M150.101,-83.167C158.706,-81.8957 167.412,-80.6095 175.888,-79.3575"/>
<polygon fill="midnightblue" stroke="midnightblue" points="149.447,-79.7255 140.066,-84.6494 150.47,-86.6503 149.447,-79.7255"/>
</g>
<!-- Node5 -->
<g id="node9" class="node"><title>Node5</title>
<a xlink:href="dc/dfe/a00125.htm" target="_top" xlink:title="class to call object methods with an URL access ">
<polygon fill="none" stroke="black" points="176,-0 176,-34 316,-34 316,-0 176,-0"/>
<text text-anchor="start" x="184" y="-21.9" font-family="Helvetica,sans-Serif" font-size="9.00">de.tu_clausthal.in.mec.ui.web.</text>
<text text-anchor="middle" x="246" y="-8.9" font-family="Helvetica,sans-Serif" font-size="9.00">CVirtualStaticMethod</text>
</a>
</g>
<!-- Node1&#45;&gt;Node5 -->
<g id="edge8" class="edge"><title>Node1&#45;&gt;Node5</title>
<path fill="none" stroke="midnightblue" d="M111.693,-73.3428C131.041,-63.6054 154.475,-52.2496 176,-43 183.027,-39.9802 190.534,-36.9714 197.925,-34.1288"/>
<polygon fill="midnightblue" stroke="midnightblue" points="109.887,-70.3341 102.549,-77.9767 113.052,-76.5781 109.887,-70.3341"/>
</g>
</g>
</svg>
