<?xml version="1.0" encoding="UTF-8" standalone="no"?>
<!DOCTYPE svg PUBLIC "-//W3C//DTD SVG 1.1//EN"
 "http://www.w3.org/Graphics/SVG/1.1/DTD/svg11.dtd">
<!-- Generated by graphviz version 2.26.3 (20100126.1600)
 -->
<!-- Title: Graphical Class Hierarchy Pages: 1 -->
<svg width="324pt" height="122pt"
 viewBox="0.00 0.00 324.00 122.00" xmlns="http://www.w3.org/2000/svg" xmlns:xlink="http://www.w3.org/1999/xlink">
<g id="graph1" class="graph" transform="scale(1 1) rotate(0) translate(4 118)">
<title>Graphical Class Hierarchy</title>
<!-- Node1 -->
<g id="node1" class="node"><title>Node1</title>
<polygon fill="none" stroke="#bfbfbf" points="0.5,-46.5 0.5,-67.5 79.5,-67.5 79.5,-46.5 0.5,-46.5"/>
<text text-anchor="middle" x="40" y="-55.4" font-family="Helvetica,sans-Serif" font-size="9.00">IWayPointBase</text>
</g>
<!-- Node2 -->
<g id="node3" class="node"><title>Node2</title>
<a xlink:href="d9/d90/a00178.htm" target="_top" xlink:title="waypoint class to describe a route todo check if reflexive routes are a problem todo do not allow edi...">
<polygon fill="none" stroke="black" points="116.5,-66.5 116.5,-113.5 315.5,-113.5 315.5,-66.5 116.5,-66.5"/>
<text text-anchor="start" x="124.5" y="-101.4" font-family="Helvetica,sans-Serif" font-size="9.00">de.tu_clausthal.in.mec.object.waypoint.point.</text>
<text text-anchor="start" x="124.5" y="-88.4" font-family="Helvetica,sans-Serif" font-size="9.00">IPathWayPoint&lt; T, P extends IFactory</text>
<text text-anchor="middle" x="216" y="-75.4" font-family="Helvetica,sans-Serif" font-size="9.00">&lt; T &gt;, N extends IGenerator &gt;</text>
</a>
</g>
<!-- Node1&#45;&gt;Node2 -->
<g id="edge2" class="edge"><title>Node1&#45;&gt;Node2</title>
<path fill="none" stroke="midnightblue" d="M89.8626,-66.3492C98.2552,-67.9228 107.222,-69.604 116.358,-71.3172"/>
<polygon fill="midnightblue" stroke="midnightblue" points="90.4109,-62.8911 79.9371,-64.4882 89.1208,-69.7712 90.4109,-62.8911"/>
</g>
<!-- Node3 -->
<g id="node5" class="node"><title>Node3</title>
<a xlink:href="d0/d81/a00180.htm" target="_top" xlink:title="creates a waypoint with a random target ">
<polygon fill="none" stroke="black" points="116.5,-0.5 116.5,-47.5 315.5,-47.5 315.5,-0.5 116.5,-0.5"/>
<text text-anchor="start" x="124.5" y="-35.4" font-family="Helvetica,sans-Serif" font-size="9.00">de.tu_clausthal.in.mec.object.waypoint.point.</text>
<text text-anchor="start" x="124.5" y="-22.4" font-family="Helvetica,sans-Serif" font-size="9.00">IRandomWayPoint&lt; T, P extends IFactory</text>
<text text-anchor="middle" x="216" y="-9.4" font-family="Helvetica,sans-Serif" font-size="9.00">&lt; T &gt;, N extends IGenerator &gt;</text>
</a>
</g>
<!-- Node1&#45;&gt;Node3 -->
<g id="edge4" class="edge"><title>Node1&#45;&gt;Node3</title>
<path fill="none" stroke="midnightblue" d="M89.8626,-47.6508C98.2552,-46.0772 107.222,-44.396 116.358,-42.6828"/>
<polygon fill="midnightblue" stroke="midnightblue" points="89.1208,-44.2288 79.9371,-49.5118 90.4109,-51.1089 89.1208,-44.2288"/>
</g>
</g>
</svg>
