<?xml version="1.0" encoding="UTF-8" standalone="no"?>
<!DOCTYPE svg PUBLIC "-//W3C//DTD SVG 1.1//EN"
 "http://www.w3.org/Graphics/SVG/1.1/DTD/svg11.dtd">
<!-- Generated by graphviz version 2.26.3 (20100126.1600)
 -->
<!-- Title: de.tu_clausthal.in.mec.ui.web.CVirtualDirectory Pages: 1 -->
<svg width="315pt" height="678pt"
 viewBox="0.00 0.00 315.00 678.00" xmlns="http://www.w3.org/2000/svg" xmlns:xlink="http://www.w3.org/1999/xlink">
<g id="graph1" class="graph" transform="scale(1 1) rotate(0) translate(4 674)">
<title>de.tu_clausthal.in.mec.ui.web.CVirtualDirectory</title>
<!-- Node1 -->
<g id="node1" class="node"><title>Node1</title>
<polygon fill="#bfbfbf" stroke="black" points="47,-0.5 47,-219.5 187,-219.5 187,-0.5 47,-0.5"/>
<text text-anchor="start" x="55" y="-207.4" font-family="Helvetica,sans-Serif" font-size="9.00">de.tu_clausthal.in.mec.ui.web.</text>
<text text-anchor="middle" x="117" y="-194.4" font-family="Helvetica,sans-Serif" font-size="9.00">CVirtualDirectory</text>
<polyline fill="none" stroke="black" points="47,-185.5 187,-185.5 "/>
<text text-anchor="start" x="55" y="-173.4" font-family="Helvetica,sans-Serif" font-size="9.00">&#45; m_directory</text>
<text text-anchor="start" x="55" y="-160.4" font-family="Helvetica,sans-Serif" font-size="9.00">&#45; m_index</text>
<text text-anchor="start" x="55" y="-147.4" font-family="Helvetica,sans-Serif" font-size="9.00">&#45; m_uri</text>
<text text-anchor="start" x="55" y="-134.4" font-family="Helvetica,sans-Serif" font-size="9.00">&#45; c_allowchar</text>
<text text-anchor="start" x="55" y="-121.4" font-family="Helvetica,sans-Serif" font-size="9.00">&#45; c_seperator</text>
<polyline fill="none" stroke="black" points="47,-112.5 187,-112.5 "/>
<text text-anchor="start" x="55" y="-100.4" font-family="Helvetica,sans-Serif" font-size="9.00">+ CVirtualDirectory()</text>
<text text-anchor="start" x="55" y="-87.4" font-family="Helvetica,sans-Serif" font-size="9.00">+ CVirtualDirectory()</text>
<text text-anchor="start" x="55" y="-74.4" font-family="Helvetica,sans-Serif" font-size="9.00">+ CVirtualDirectory()</text>
<text text-anchor="start" x="55" y="-61.4" font-family="Helvetica,sans-Serif" font-size="9.00">+ equals()</text>
<text text-anchor="start" x="55" y="-48.4" font-family="Helvetica,sans-Serif" font-size="9.00">+ get()</text>
<text text-anchor="start" x="55" y="-35.4" font-family="Helvetica,sans-Serif" font-size="9.00">+ getMarkDownRenderer()</text>
<text text-anchor="start" x="55" y="-22.4" font-family="Helvetica,sans-Serif" font-size="9.00">+ hashCode()</text>
<text text-anchor="start" x="55" y="-9.4" font-family="Helvetica,sans-Serif" font-size="9.00">+ match()</text>
</g>
<!-- Node2 -->
<g id="node2" class="node"><title>Node2</title>
<a xlink:href="../../d3/d2a/a00195.htm" target="_top" xlink:title="interface of locations ">
<polygon fill="none" stroke="black" points="0,-349 0,-451 140,-451 140,-349 0,-349"/>
<text text-anchor="start" x="8" y="-438.9" font-family="Helvetica,sans-Serif" font-size="9.00">de.tu_clausthal.in.mec.ui.web.</text>
<text text-anchor="middle" x="70" y="-425.9" font-family="Helvetica,sans-Serif" font-size="9.00">IVirtualLocation</text>
<polyline fill="none" stroke="black" points="0,-417 140,-417 "/>
<text text-anchor="middle" x="70" y="-404.9" font-family="Helvetica,sans-Serif" font-size="9.00"> </text>
<polyline fill="none" stroke="black" points="0,-396 140,-396 "/>
<text text-anchor="start" x="8" y="-383.9" font-family="Helvetica,sans-Serif" font-size="9.00">+ get()</text>
<text text-anchor="start" x="8" y="-370.9" font-family="Helvetica,sans-Serif" font-size="9.00">+ getMarkDownRenderer()</text>
<text text-anchor="start" x="8" y="-357.9" font-family="Helvetica,sans-Serif" font-size="9.00">+ match()</text>
</a>
</g>
<!-- Node2&#45;&gt;Node1 -->
<g id="edge2" class="edge"><title>Node2&#45;&gt;Node1</title>
<path fill="none" stroke="midnightblue" d="M79.9074,-338.869C85.5165,-304.26 92.7002,-259.935 99.2491,-219.527"/>
<polygon fill="none" stroke="midnightblue" points="76.4394,-338.39 78.2945,-348.821 83.3493,-339.51 76.4394,-338.39"/>
</g>
<!-- Node3 -->
<g id="node4" class="node"><title>Node3</title>
<a xlink:href="../../db/df8/a00076.htm" target="_top" xlink:title="class of the link and layout markdown renderer ">
<polygon fill="none" stroke="black" points="158,-271 158,-529 298,-529 298,-271 158,-271"/>
<text text-anchor="start" x="166" y="-516.9" font-family="Helvetica,sans-Serif" font-size="9.00">de.tu_clausthal.in.mec.ui.web.</text>
<text text-anchor="middle" x="228" y="-503.9" font-family="Helvetica,sans-Serif" font-size="9.00">CMarkdownRenderer</text>
<polyline fill="none" stroke="black" points="158,-495 298,-495 "/>
<text text-anchor="start" x="166" y="-482.9" font-family="Helvetica,sans-Serif" font-size="9.00">&#45; m_baseuri</text>
<text text-anchor="start" x="166" y="-469.9" font-family="Helvetica,sans-Serif" font-size="9.00">&#45; m_cssuri</text>
<polyline fill="none" stroke="black" points="158,-461 298,-461 "/>
<text text-anchor="start" x="166" y="-448.9" font-family="Helvetica,sans-Serif" font-size="9.00">+ CMarkdownRenderer()</text>
<text text-anchor="start" x="166" y="-435.9" font-family="Helvetica,sans-Serif" font-size="9.00">+ CMarkdownRenderer()</text>
<text text-anchor="start" x="166" y="-422.9" font-family="Helvetica,sans-Serif" font-size="9.00">+ CMarkdownRenderer()</text>
<text text-anchor="start" x="166" y="-409.9" font-family="Helvetica,sans-Serif" font-size="9.00">+ CMarkdownRenderer()</text>
<text text-anchor="start" x="166" y="-396.9" font-family="Helvetica,sans-Serif" font-size="9.00">+ getHTML()</text>
<text text-anchor="start" x="166" y="-383.9" font-family="Helvetica,sans-Serif" font-size="9.00">+ getMimeType()</text>
<text text-anchor="start" x="166" y="-370.9" font-family="Helvetica,sans-Serif" font-size="9.00">+ render()</text>
<text text-anchor="start" x="166" y="-357.9" font-family="Helvetica,sans-Serif" font-size="9.00">+ render()</text>
<text text-anchor="start" x="166" y="-344.9" font-family="Helvetica,sans-Serif" font-size="9.00">+ render()</text>
<text text-anchor="start" x="166" y="-331.9" font-family="Helvetica,sans-Serif" font-size="9.00">&#45; getHTMLDocument()</text>
<text text-anchor="start" x="166" y="-318.9" font-family="Helvetica,sans-Serif" font-size="9.00">&#45; getHTMLFragment()</text>
<text text-anchor="start" x="166" y="-305.9" font-family="Helvetica,sans-Serif" font-size="9.00">&#45; getURL()</text>
<text text-anchor="start" x="166" y="-292.9" font-family="Helvetica,sans-Serif" font-size="9.00">&#45; getWikipediaLink()</text>
<text text-anchor="start" x="166" y="-279.9" font-family="Helvetica,sans-Serif" font-size="9.00">&#45; isURL()</text>
</a>
</g>
<!-- Node3&#45;&gt;Node1 -->
<g id="edge4" class="edge"><title>Node3&#45;&gt;Node1</title>
<path fill="none" stroke="#404040" d="M178.506,-270.69C173.453,-257.49 168.333,-244.113 163.316,-231.006"/>
<polygon fill="none" stroke="#404040" points="163.228,-230.775 157.347,-226.601 158.938,-219.568 164.819,-223.742 163.228,-230.775"/>
<text text-anchor="middle" x="199.5" y="-243.4" font-family="Helvetica,sans-Serif" font-size="9.00"> &#45;m_markdown</text>
</g>
<!-- Node4 -->
<g id="node6" class="node"><title>Node4</title>
<a xlink:href="../../db/df8/a00076.htm#d9/de6/a00404" target="_top" xlink:title="enum to define return type of the HTML document * ">
<polygon fill="none" stroke="black" points="149,-580.5 149,-669.5 307,-669.5 307,-580.5 149,-580.5"/>
<text text-anchor="start" x="157" y="-657.4" font-family="Helvetica,sans-Serif" font-size="9.00">de.tu_clausthal.in.mec.ui.web.</text>
<text text-anchor="middle" x="228" y="-644.4" font-family="Helvetica,sans-Serif" font-size="9.00">CMarkdownRenderer.EHTMLType</text>
<polyline fill="none" stroke="black" points="149,-635.5 307,-635.5 "/>
<text text-anchor="start" x="157" y="-623.4" font-family="Helvetica,sans-Serif" font-size="9.00">+ Document</text>
<text text-anchor="start" x="157" y="-610.4" font-family="Helvetica,sans-Serif" font-size="9.00">+ Fragment</text>
<polyline fill="none" stroke="black" points="149,-601.5 307,-601.5 "/>
<text text-anchor="middle" x="228" y="-589.4" font-family="Helvetica,sans-Serif" font-size="9.00"> </text>
</a>
</g>
<!-- Node4&#45;&gt;Node3 -->
<g id="edge6" class="edge"><title>Node4&#45;&gt;Node3</title>
<path fill="none" stroke="#404040" d="M228,-580.278C228,-568.582 228,-555.327 228,-541.441"/>
<polygon fill="none" stroke="#404040" points="228,-541.099 224,-535.099 228,-529.099 232,-535.099 228,-541.099"/>
<text text-anchor="middle" x="254.5" y="-553.4" font-family="Helvetica,sans-Serif" font-size="9.00"> &#45;m_htmltype</text>
</g>
</g>
</svg>
