<?xml version="1.0" encoding="UTF-8" standalone="no"?>
<!DOCTYPE svg PUBLIC "-//W3C//DTD SVG 1.1//EN"
 "http://www.w3.org/Graphics/SVG/1.1/DTD/svg11.dtd">
<!-- Generated by graphviz version 2.26.3 (20100126.1600)
 -->
<!-- Title: de.tu_clausthal.in.mec.object.car.CCarJasonAgent Pages: 1 -->
<svg width="556pt" height="1372pt"
 viewBox="0.00 0.00 556.00 1372.00" xmlns="http://www.w3.org/2000/svg" xmlns:xlink="http://www.w3.org/1999/xlink">
<g id="graph1" class="graph" transform="scale(1 1) rotate(0) translate(4 1368)">
<title>de.tu_clausthal.in.mec.object.car.CCarJasonAgent</title>
<!-- Node1 -->
<g id="node1" class="node"><title>Node1</title>
<polygon fill="#bfbfbf" stroke="black" points="288,-0.5 288,-245.5 440,-245.5 440,-0.5 288,-0.5"/>
<text text-anchor="start" x="296" y="-233.4" font-family="Helvetica,sans-Serif" font-size="9.00">de.tu_clausthal.in.mec.object.car.</text>
<text text-anchor="middle" x="364" y="-220.4" font-family="Helvetica,sans-Serif" font-size="9.00">CCarJasonAgent</text>
<polyline fill="none" stroke="black" points="288,-211.5 440,-211.5 "/>
<text text-anchor="start" x="296" y="-199.4" font-family="Helvetica,sans-Serif" font-size="9.00">&#45; m_agentlayer</text>
<text text-anchor="start" x="296" y="-186.4" font-family="Helvetica,sans-Serif" font-size="9.00">&#45; m_agents</text>
<text text-anchor="start" x="296" y="-173.4" font-family="Helvetica,sans-Serif" font-size="9.00">&#45; m_inspect</text>
<text text-anchor="start" x="296" y="-160.4" font-family="Helvetica,sans-Serif" font-size="9.00">&#45; m_objectpath</text>
<text text-anchor="start" x="296" y="-147.4" font-family="Helvetica,sans-Serif" font-size="9.00">&#45; m_seenpredecessors</text>
<text text-anchor="start" x="296" y="-134.4" font-family="Helvetica,sans-Serif" font-size="9.00">&#45; m_trafficbeliefbase</text>
<polyline fill="none" stroke="black" points="288,-125.5 440,-125.5 "/>
<text text-anchor="start" x="296" y="-113.4" font-family="Helvetica,sans-Serif" font-size="9.00">+ CCarJasonAgent()</text>
<text text-anchor="start" x="296" y="-100.4" font-family="Helvetica,sans-Serif" font-size="9.00">+ CCarJasonAgent()</text>
<text text-anchor="start" x="296" y="-87.4" font-family="Helvetica,sans-Serif" font-size="9.00">+ getReceiverPath()</text>
<text text-anchor="start" x="296" y="-74.4" font-family="Helvetica,sans-Serif" font-size="9.00">+ inspect()</text>
<text text-anchor="start" x="296" y="-61.4" font-family="Helvetica,sans-Serif" font-size="9.00">+ receiveMessage()</text>
<text text-anchor="start" x="296" y="-48.4" font-family="Helvetica,sans-Serif" font-size="9.00">+ release()</text>
<text text-anchor="start" x="296" y="-35.4" font-family="Helvetica,sans-Serif" font-size="9.00">+ step()</text>
<text text-anchor="start" x="296" y="-22.4" font-family="Helvetica,sans-Serif" font-size="9.00">&#45; bind()</text>
<text text-anchor="start" x="296" y="-9.4" font-family="Helvetica,sans-Serif" font-size="9.00">&#45; getPredecessorWithName()</text>
</g>
<!-- Node2 -->
<g id="node2" class="node"><title>Node2</title>
<a xlink:href="../../d5/df9/a00044.htm" target="_top" xlink:title="class for a default car * ">
<polygon fill="none" stroke="black" points="196,-283 196,-775 348,-775 348,-283 196,-283"/>
<text text-anchor="start" x="204" y="-762.9" font-family="Helvetica,sans-Serif" font-size="9.00">de.tu_clausthal.in.mec.object.car.</text>
<text text-anchor="middle" x="272" y="-749.9" font-family="Helvetica,sans-Serif" font-size="9.00">CDefaultCar</text>
<polyline fill="none" stroke="black" points="196,-741 348,-741 "/>
<text text-anchor="start" x="204" y="-728.9" font-family="Helvetica,sans-Serif" font-size="9.00"># m_layer</text>
<text text-anchor="start" x="204" y="-715.9" font-family="Helvetica,sans-Serif" font-size="9.00"># m_maxspeed</text>
<text text-anchor="start" x="204" y="-702.9" font-family="Helvetica,sans-Serif" font-size="9.00"># m_route</text>
<text text-anchor="start" x="204" y="-689.9" font-family="Helvetica,sans-Serif" font-size="9.00"># m_routeindex</text>
<text text-anchor="start" x="204" y="-676.9" font-family="Helvetica,sans-Serif" font-size="9.00"># m_speed</text>
<text text-anchor="start" x="204" y="-663.9" font-family="Helvetica,sans-Serif" font-size="9.00">&#45; m_acceleration</text>
<text text-anchor="start" x="204" y="-650.9" font-family="Helvetica,sans-Serif" font-size="9.00">&#45; m_deceleration</text>
<text text-anchor="start" x="204" y="-637.9" font-family="Helvetica,sans-Serif" font-size="9.00">&#45; m_endreached</text>
<text text-anchor="start" x="204" y="-624.9" font-family="Helvetica,sans-Serif" font-size="9.00">&#45; m_inspect</text>
<text text-anchor="start" x="204" y="-611.9" font-family="Helvetica,sans-Serif" font-size="9.00">&#45; m_lingerprobability</text>
<polyline fill="none" stroke="black" points="196,-603 348,-603 "/>
<text text-anchor="start" x="204" y="-590.9" font-family="Helvetica,sans-Serif" font-size="9.00">+ CDefaultCar()</text>
<text text-anchor="start" x="204" y="-577.9" font-family="Helvetica,sans-Serif" font-size="9.00">+ getAcceleration()</text>
<text text-anchor="start" x="204" y="-564.9" font-family="Helvetica,sans-Serif" font-size="9.00">+ getCurrentSpeed()</text>
<text text-anchor="start" x="204" y="-551.9" font-family="Helvetica,sans-Serif" font-size="9.00">+ getDeceleration()</text>
<text text-anchor="start" x="204" y="-538.9" font-family="Helvetica,sans-Serif" font-size="9.00">+ getEdge()</text>
<text text-anchor="start" x="204" y="-525.9" font-family="Helvetica,sans-Serif" font-size="9.00">+ getGeoposition()</text>
<text text-anchor="start" x="204" y="-512.9" font-family="Helvetica,sans-Serif" font-size="9.00">+ getLingerProbability()</text>
<text text-anchor="start" x="204" y="-499.9" font-family="Helvetica,sans-Serif" font-size="9.00">+ getMaximumSpeed()</text>
<text text-anchor="start" x="204" y="-486.9" font-family="Helvetica,sans-Serif" font-size="9.00">+ getPredecessor()</text>
<text text-anchor="start" x="204" y="-473.9" font-family="Helvetica,sans-Serif" font-size="9.00">+ getPredecessor()</text>
<text text-anchor="start" x="204" y="-460.9" font-family="Helvetica,sans-Serif" font-size="9.00">+ hasEndReached()</text>
<text text-anchor="start" x="204" y="-447.9" font-family="Helvetica,sans-Serif" font-size="9.00">+ inspect()</text>
<text text-anchor="start" x="204" y="-434.9" font-family="Helvetica,sans-Serif" font-size="9.00">+ onClick()</text>
<text text-anchor="start" x="204" y="-421.9" font-family="Helvetica,sans-Serif" font-size="9.00">+ paint()</text>
<text text-anchor="start" x="204" y="-408.9" font-family="Helvetica,sans-Serif" font-size="9.00">+ release()</text>
<text text-anchor="start" x="204" y="-395.9" font-family="Helvetica,sans-Serif" font-size="9.00">+ setCurrentSpeed()</text>
<text text-anchor="start" x="204" y="-382.9" font-family="Helvetica,sans-Serif" font-size="9.00">+ step()</text>
<text text-anchor="start" x="204" y="-369.9" font-family="Helvetica,sans-Serif" font-size="9.00"># getCurrentPosition()</text>
<text text-anchor="start" x="204" y="-356.9" font-family="Helvetica,sans-Serif" font-size="9.00">&#45; getCurrentCarsOnEdge()</text>
<text text-anchor="start" x="204" y="-343.9" font-family="Helvetica,sans-Serif" font-size="9.00">&#45; getCurrentEdgeMaxSpeed()</text>
<text text-anchor="start" x="204" y="-330.9" font-family="Helvetica,sans-Serif" font-size="9.00">&#45; getEdge()</text>
<text text-anchor="start" x="204" y="-317.9" font-family="Helvetica,sans-Serif" font-size="9.00">&#45; getRouteLine()</text>
<text text-anchor="start" x="204" y="-304.9" font-family="Helvetica,sans-Serif" font-size="9.00">&#45; reroute()</text>
<text text-anchor="start" x="204" y="-291.9" font-family="Helvetica,sans-Serif" font-size="9.00">&#45; reroute()</text>
</a>
</g>
<!-- Node2&#45;&gt;Node1 -->
<g id="edge2" class="edge"><title>Node2&#45;&gt;Node1</title>
<path fill="none" stroke="midnightblue" d="M330.044,-272.848C332.127,-263.656 334.175,-254.621 336.168,-245.825"/>
<polygon fill="none" stroke="midnightblue" points="326.568,-272.353 327.771,-282.879 333.395,-273.9 326.568,-272.353"/>
</g>
<!-- Node3 -->
<g id="node4" class="node"><title>Node3</title>
<a xlink:href="../../dc/de6/a00167.htm" target="_top" xlink:title="global default implementation to get information about a simulation object ">
<polygon fill="none" stroke="black" points="131,-871 131,-947 251,-947 251,-871 131,-871"/>
<text text-anchor="start" x="139" y="-934.9" font-family="Helvetica,sans-Serif" font-size="9.00">de.tu_clausthal.in.mec.ui.</text>
<text text-anchor="middle" x="191" y="-921.9" font-family="Helvetica,sans-Serif" font-size="9.00">IInspectorDefault</text>
<polyline fill="none" stroke="black" points="131,-913 251,-913 "/>
<text text-anchor="start" x="139" y="-900.9" font-family="Helvetica,sans-Serif" font-size="9.00">&#45; m_inspect</text>
<polyline fill="none" stroke="black" points="131,-892 251,-892 "/>
<text text-anchor="start" x="139" y="-879.9" font-family="Helvetica,sans-Serif" font-size="9.00">+ inspect()</text>
</a>
</g>
<!-- Node3&#45;&gt;Node2 -->
<g id="edge4" class="edge"><title>Node3&#45;&gt;Node2</title>
<path fill="none" stroke="midnightblue" d="M201.254,-860.897C206.237,-837.519 212.64,-807.478 219.554,-775.045"/>
<polygon fill="none" stroke="midnightblue" points="197.799,-860.314 199.137,-870.824 204.645,-861.774 197.799,-860.314"/>
</g>
<!-- Node4 -->
<g id="node6" class="node"><title>Node4</title>
<a xlink:href="../../dd/df4/a00193.htm" target="_top" xlink:title="class to handle UI events with encapsulate the default lister structures ">
<polygon fill="none" stroke="black" points="0,-1043 0,-1249 120,-1249 120,-1043 0,-1043"/>
<text text-anchor="start" x="8" y="-1236.9" font-family="Helvetica,sans-Serif" font-size="9.00">de.tu_clausthal.in.mec.ui.</text>
<text text-anchor="middle" x="60" y="-1223.9" font-family="Helvetica,sans-Serif" font-size="9.00">IUIListener</text>
<polyline fill="none" stroke="black" points="0,-1215 120,-1215 "/>
<text text-anchor="start" x="8" y="-1202.9" font-family="Helvetica,sans-Serif" font-size="9.00"># c_maxzoom</text>
<text text-anchor="start" x="8" y="-1189.9" font-family="Helvetica,sans-Serif" font-size="9.00"># c_miniconsize</text>
<polyline fill="none" stroke="black" points="0,-1181 120,-1181 "/>
<text text-anchor="start" x="8" y="-1168.9" font-family="Helvetica,sans-Serif" font-size="9.00">+ IUIListener()</text>
<text text-anchor="start" x="8" y="-1155.9" font-family="Helvetica,sans-Serif" font-size="9.00">+ mouseClicked()</text>
<text text-anchor="start" x="8" y="-1142.9" font-family="Helvetica,sans-Serif" font-size="9.00">+ mouseEntered()</text>
<text text-anchor="start" x="8" y="-1129.9" font-family="Helvetica,sans-Serif" font-size="9.00">+ mouseExited()</text>
<text text-anchor="start" x="8" y="-1116.9" font-family="Helvetica,sans-Serif" font-size="9.00">+ mousePressed()</text>
<text text-anchor="start" x="8" y="-1103.9" font-family="Helvetica,sans-Serif" font-size="9.00">+ mouseReleased()</text>
<text text-anchor="start" x="8" y="-1090.9" font-family="Helvetica,sans-Serif" font-size="9.00">+ onClick()</text>
<text text-anchor="start" x="8" y="-1077.9" font-family="Helvetica,sans-Serif" font-size="9.00">+ release()</text>
<text text-anchor="start" x="8" y="-1064.9" font-family="Helvetica,sans-Serif" font-size="9.00"># iconscale()</text>
<text text-anchor="start" x="8" y="-1051.9" font-family="Helvetica,sans-Serif" font-size="9.00"># iconsize()</text>
</a>
</g>
<!-- Node4&#45;&gt;Node3 -->
<g id="edge6" class="edge"><title>Node4&#45;&gt;Node3</title>
<path fill="none" stroke="midnightblue" d="M121.929,-1033.96C139.176,-1002.76 156.755,-970.955 169.862,-947.243"/>
<polygon fill="none" stroke="midnightblue" points="118.852,-1032.29 117.077,-1042.74 124.978,-1035.68 118.852,-1032.29"/>
</g>
<!-- Node5 -->
<g id="node8" class="node"><title>Node5</title>
<a xlink:href="../../d9/d38/a00166.htm" target="_top" xlink:title="global interface to read information about a simulation object ">
<polygon fill="none" stroke="black" points="138,-1108 138,-1184 258,-1184 258,-1108 138,-1108"/>
<text text-anchor="start" x="146" y="-1171.9" font-family="Helvetica,sans-Serif" font-size="9.00">de.tu_clausthal.in.mec.ui.</text>
<text text-anchor="middle" x="198" y="-1158.9" font-family="Helvetica,sans-Serif" font-size="9.00">IInspector</text>
<polyline fill="none" stroke="black" points="138,-1150 258,-1150 "/>
<text text-anchor="middle" x="198" y="-1137.9" font-family="Helvetica,sans-Serif" font-size="9.00"> </text>
<polyline fill="none" stroke="black" points="138,-1129 258,-1129 "/>
<text text-anchor="start" x="146" y="-1116.9" font-family="Helvetica,sans-Serif" font-size="9.00">+ inspect()</text>
</a>
</g>
<!-- Node5&#45;&gt;Node3 -->
<g id="edge8" class="edge"><title>Node5&#45;&gt;Node3</title>
<path fill="none" stroke="midnightblue" d="M196.572,-1097.66C195.261,-1053.26 193.343,-988.317 192.133,-947.377"/>
<polygon fill="none" stroke="midnightblue" points="193.082,-1098.03 196.875,-1107.92 200.078,-1097.82 193.082,-1098.03"/>
</g>
<!-- Node6 -->
<g id="node10" class="node"><title>Node6</title>
<a xlink:href="../../d3/d65/a00154.htm" target="_top" xlink:title="car interface for defining the car structure ">
<polygon fill="none" stroke="black" points="269,-812.5 269,-1005.5 439,-1005.5 439,-812.5 269,-812.5"/>
<text text-anchor="middle" x="354" y="-993.4" font-family="Helvetica,sans-Serif" font-size="9.00">de.tu_clausthal.in.mec.object.car.ICar</text>
<polyline fill="none" stroke="black" points="269,-984.5 439,-984.5 "/>
<text text-anchor="middle" x="354" y="-972.4" font-family="Helvetica,sans-Serif" font-size="9.00"> </text>
<polyline fill="none" stroke="black" points="269,-963.5 439,-963.5 "/>
<text text-anchor="start" x="277" y="-951.4" font-family="Helvetica,sans-Serif" font-size="9.00">+ getAcceleration()</text>
<text text-anchor="start" x="277" y="-938.4" font-family="Helvetica,sans-Serif" font-size="9.00">+ getCurrentSpeed()</text>
<text text-anchor="start" x="277" y="-925.4" font-family="Helvetica,sans-Serif" font-size="9.00">+ getDeceleration()</text>
<text text-anchor="start" x="277" y="-912.4" font-family="Helvetica,sans-Serif" font-size="9.00">+ getEdge()</text>
<text text-anchor="start" x="277" y="-899.4" font-family="Helvetica,sans-Serif" font-size="9.00">+ getGeoposition()</text>
<text text-anchor="start" x="277" y="-886.4" font-family="Helvetica,sans-Serif" font-size="9.00">+ getLingerProbability()</text>
<text text-anchor="start" x="277" y="-873.4" font-family="Helvetica,sans-Serif" font-size="9.00">+ getMaximumSpeed()</text>
<text text-anchor="start" x="277" y="-860.4" font-family="Helvetica,sans-Serif" font-size="9.00">+ getPredecessor()</text>
<text text-anchor="start" x="277" y="-847.4" font-family="Helvetica,sans-Serif" font-size="9.00">+ getPredecessor()</text>
<text text-anchor="start" x="277" y="-834.4" font-family="Helvetica,sans-Serif" font-size="9.00">+ hasEndReached()</text>
<text text-anchor="start" x="277" y="-821.4" font-family="Helvetica,sans-Serif" font-size="9.00">+ setCurrentSpeed()</text>
</a>
</g>
<!-- Node6&#45;&gt;Node2 -->
<g id="edge10" class="edge"><title>Node6&#45;&gt;Node2</title>
<path fill="none" stroke="midnightblue" d="M330.984,-802.34C329.088,-793.555 327.129,-784.474 325.127,-775.196"/>
<polygon fill="none" stroke="midnightblue" points="327.565,-803.09 333.096,-812.127 334.408,-801.613 327.565,-803.09"/>
</g>
<!-- Node7 -->
<g id="node12" class="node"><title>Node7</title>
<a xlink:href="../../de/db1/a00197.htm" target="_top" xlink:title="interface of void&#45;step method ">
<polygon fill="none" stroke="black" points="282.5,-1108 282.5,-1184 425.5,-1184 425.5,-1108 282.5,-1108"/>
<text text-anchor="start" x="290.5" y="-1171.9" font-family="Helvetica,sans-Serif" font-size="9.00">de.tu_clausthal.in.mec.runtime.</text>
<text text-anchor="middle" x="354" y="-1158.9" font-family="Helvetica,sans-Serif" font-size="9.00">IVoidSteppable</text>
<polyline fill="none" stroke="black" points="282.5,-1150 425.5,-1150 "/>
<text text-anchor="middle" x="354" y="-1137.9" font-family="Helvetica,sans-Serif" font-size="9.00"> </text>
<polyline fill="none" stroke="black" points="282.5,-1129 425.5,-1129 "/>
<text text-anchor="start" x="290.5" y="-1116.9" font-family="Helvetica,sans-Serif" font-size="9.00">+ step()</text>
</a>
</g>
<!-- Node7&#45;&gt;Node6 -->
<g id="edge12" class="edge"><title>Node7&#45;&gt;Node6</title>
<path fill="none" stroke="midnightblue" d="M354,-1097.76C354,-1071.2 354,-1037.28 354,-1005.53"/>
<polygon fill="none" stroke="midnightblue" points="350.5,-1097.92 354,-1107.92 357.5,-1097.92 350.5,-1097.92"/>
</g>
<!-- Node8 -->
<g id="node14" class="node"><title>Node8</title>
<a xlink:href="../../da/d15/a00188.htm" target="_top" xlink:title="interface for all objects which are triggered by the simulation worker ">
<polygon fill="none" stroke="black" points="282.5,-1287 282.5,-1363 425.5,-1363 425.5,-1287 282.5,-1287"/>
<text text-anchor="start" x="290.5" y="-1350.9" font-family="Helvetica,sans-Serif" font-size="9.00">de.tu_clausthal.in.mec.runtime.</text>
<text text-anchor="middle" x="354" y="-1337.9" font-family="Helvetica,sans-Serif" font-size="9.00">ISteppable</text>
<polyline fill="none" stroke="black" points="282.5,-1329 425.5,-1329 "/>
<text text-anchor="middle" x="354" y="-1316.9" font-family="Helvetica,sans-Serif" font-size="9.00"> </text>
<polyline fill="none" stroke="black" points="282.5,-1308 425.5,-1308 "/>
<text text-anchor="start" x="290.5" y="-1295.9" font-family="Helvetica,sans-Serif" font-size="9.00">+ release()</text>
</a>
</g>
<!-- Node8&#45;&gt;Node7 -->
<g id="edge14" class="edge"><title>Node8&#45;&gt;Node7</title>
<path fill="none" stroke="midnightblue" d="M354,-1276.27C354,-1247.24 354,-1210.93 354,-1184.03"/>
<polygon fill="none" stroke="midnightblue" points="350.5,-1276.6 354,-1286.6 357.5,-1276.6 350.5,-1276.6"/>
</g>
<!-- Node9 -->
<g id="node16" class="node"><title>Node9</title>
<a xlink:href="../../d8/d64/a00181.htm" target="_top" xlink:title="message receiver interface for defining an object which can handle the message of a participant objec...">
<polygon fill="none" stroke="black" points="365.5,-484.5 365.5,-573.5 548.5,-573.5 548.5,-484.5 365.5,-484.5"/>
<text text-anchor="start" x="373.5" y="-561.4" font-family="Helvetica,sans-Serif" font-size="9.00">de.tu_clausthal.in.mec.runtime.message.</text>
<text text-anchor="middle" x="457" y="-548.4" font-family="Helvetica,sans-Serif" font-size="9.00">IReceiver</text>
<polyline fill="none" stroke="black" points="365.5,-539.5 548.5,-539.5 "/>
<text text-anchor="middle" x="457" y="-527.4" font-family="Helvetica,sans-Serif" font-size="9.00"> </text>
<polyline fill="none" stroke="black" points="365.5,-518.5 548.5,-518.5 "/>
<text text-anchor="start" x="373.5" y="-506.4" font-family="Helvetica,sans-Serif" font-size="9.00">+ getReceiverPath()</text>
<text text-anchor="start" x="373.5" y="-493.4" font-family="Helvetica,sans-Serif" font-size="9.00">+ receiveMessage()</text>
</a>
</g>
<!-- Node9&#45;&gt;Node1 -->
<g id="edge16" class="edge"><title>Node9&#45;&gt;Node1</title>
<path fill="none" stroke="midnightblue" d="M444.47,-474.301C431.133,-416.075 409.59,-322.026 392.149,-245.887"/>
<polygon fill="none" stroke="midnightblue" points="441.137,-475.423 446.781,-484.39 447.96,-473.86 441.137,-475.423"/>
</g>
</g>
</svg>
