<?xml version="1.0" encoding="UTF-8" standalone="no"?>
<!DOCTYPE svg PUBLIC "-//W3C//DTD SVG 1.1//EN"
 "http://www.w3.org/Graphics/SVG/1.1/DTD/svg11.dtd">
<!-- Generated by graphviz version 2.26.3 (20100126.1600)
 -->
<!-- Title: de.tu_clausthal.in.mec.object.mas.generic.implementation.IBindStorage&lt; N, M &gt; Pages: 1 -->
<!--zoomable 806 -->
<svg id="main" version="1.1" xmlns="http://www.w3.org/2000/svg" xmlns:xlink="http://www.w3.org/1999/xlink" xml:space="preserve" onload="init(evt)">
<style type="text/css"><![CDATA[
.edge:hover path { stroke: red; }
.edge:hover polygon { stroke: red; fill: red; }
]]></style>
<script type="text/javascript"><![CDATA[
var edges = document.getElementsByTagName('g');
if (edges && edges.length) {
  for (var i=0;i<edges.length;i++) {
    if (edges[i].id.substr(0,4)=='edge') {
      edges[i].setAttribute('class','edge');
    }
  }
}
]]></script>
        <defs>
                <circle id="rim" cx="0" cy="0" r="7"/>
                <circle id="rim2" cx="0" cy="0" r="3.5"/>
                <g id="zoomPlus">
                        <use xlink:href="#rim" fill="#404040">
                                <set attributeName="fill" to="#808080" begin="zoomplus.mouseover" end="zoomplus.mouseout"/>
                        </use>
                        <path d="M-4,0h8M0,-4v8" fill="none" stroke="white" stroke-width="1.5" pointer-events="none"/>
                </g>
                <g id="zoomMin">
                        <use xlink:href="#rim" fill="#404040">
                                <set attributeName="fill" to="#808080" begin="zoomminus.mouseover" end="zoomminus.mouseout"/>
                        </use>
                        <path d="M-4,0h8" fill="none" stroke="white" stroke-width="1.5" pointer-events="none"/>
                </g>
                <g id="dirArrow">
                        <path fill="none" stroke="white" stroke-width="1.5" d="M0,-3.0v7 M-2.5,-0.5L0,-3.0L2.5,-0.5"/>
                </g>
               <g id="resetDef">
                       <use xlink:href="#rim2" fill="#404040">
                               <set attributeName="fill" to="#808080" begin="reset.mouseover" end="reset.mouseout"/>
                       </use>
               </g>
        </defs>

<script type="text/javascript">
var viewWidth = 436;
var viewHeight = 806;
var sectionId = 'dynsection-1';
</script>
<script xlink:href="../../svgpan.js"/>
<svg id="graph" class="graph">
<g id="viewport">
<title>de.tu_clausthal.in.mec.object.mas.generic.implementation.IBindStorage&lt; N, M &gt;</title>
<!-- Node1 -->
<g id="node1" class="node"><title>Node1</title>
<polygon fill="#bfbfbf" stroke="black" points="134.5,-0.5 134.5,-115.5 389.5,-115.5 389.5,-0.5 134.5,-0.5"/>
<text text-anchor="start" x="142.5" y="-103.4" font-family="Helvetica,sans-Serif" font-size="9.00">de.tu_clausthal.in.mec.object.mas.generic.implementation.</text>
<text text-anchor="middle" x="262" y="-90.4" font-family="Helvetica,sans-Serif" font-size="9.00">IBindStorage&lt; N, M &gt;</text>
<polyline fill="none" stroke="black" points="134.5,-81.5 389.5,-81.5 "/>
<text text-anchor="start" x="142.5" y="-69.4" font-family="Helvetica,sans-Serif" font-size="9.00"># m_bind</text>
<polyline fill="none" stroke="black" points="134.5,-60.5 389.5,-60.5 "/>
<text text-anchor="start" x="142.5" y="-48.4" font-family="Helvetica,sans-Serif" font-size="9.00">+ IBindStorage()</text>
<text text-anchor="start" x="142.5" y="-35.4" font-family="Helvetica,sans-Serif" font-size="9.00">+ IBindStorage()</text>
<text text-anchor="start" x="142.5" y="-22.4" font-family="Helvetica,sans-Serif" font-size="9.00">+ push()</text>
<text text-anchor="start" x="142.5" y="-9.4" font-family="Helvetica,sans-Serif" font-size="9.00">+ removeBinding()</text>
</g>
<!-- Node2 -->
<g id="node2" class="node"><title>Node2</title>
<a xlink:href="../../d5/de9/a00176.htm" target="_top" xlink:title="class to update an immutable belief storage ">
<polygon fill="none" stroke="black" points="-0.5,-166.5 -0.5,-255.5 254.5,-255.5 254.5,-166.5 -0.5,-166.5"/>
<text text-anchor="start" x="7.5" y="-243.4" font-family="Helvetica,sans-Serif" font-size="9.00">de.tu_clausthal.in.mec.object.mas.generic.implementation.</text>
<text text-anchor="middle" x="127" y="-230.4" font-family="Helvetica,sans-Serif" font-size="9.00">IOneTimeStorage&lt; N, M &gt;</text>
<polyline fill="none" stroke="black" points="-0.5,-221.5 254.5,-221.5 "/>
<text text-anchor="middle" x="127" y="-209.4" font-family="Helvetica,sans-Serif" font-size="9.00"> </text>
<polyline fill="none" stroke="black" points="-0.5,-200.5 254.5,-200.5 "/>
<text text-anchor="start" x="7.5" y="-188.4" font-family="Helvetica,sans-Serif" font-size="9.00">+ update()</text>
<text text-anchor="start" x="7.5" y="-175.4" font-family="Helvetica,sans-Serif" font-size="9.00"># updating()</text>
</a>
</g>
<!-- Node2&#45;&gt;Node1 -->
<g id="edge2" class="edge"><title>Node2&#45;&gt;Node1</title>
<path fill="none" stroke="midnightblue" d="M173.109,-158.743C185.383,-144.833 198.709,-129.73 211.218,-115.553"/>
<polygon fill="none" stroke="midnightblue" points="170.402,-156.521 166.41,-166.335 175.651,-161.152 170.402,-156.521"/>
</g>
<!-- Node3 -->
<g id="node4" class="node"><title>Node3</title>
<a xlink:href="../../d9/d2e/a00056.htm" target="_top" xlink:title="immutable belief storage ">
<polygon fill="none" stroke="black" points="-0.5,-294.5 -0.5,-435.5 254.5,-435.5 254.5,-294.5 -0.5,-294.5"/>
<text text-anchor="start" x="7.5" y="-423.4" font-family="Helvetica,sans-Serif" font-size="9.00">de.tu_clausthal.in.mec.object.mas.generic.implementation.</text>
<text text-anchor="middle" x="127" y="-410.4" font-family="Helvetica,sans-Serif" font-size="9.00">CImmutableBeliefStorage&lt; N, M &gt;</text>
<polyline fill="none" stroke="black" points="-0.5,-401.5 254.5,-401.5 "/>
<text text-anchor="middle" x="127" y="-389.4" font-family="Helvetica,sans-Serif" font-size="9.00"> </text>
<polyline fill="none" stroke="black" points="-0.5,-380.5 254.5,-380.5 "/>
<text text-anchor="start" x="7.5" y="-368.4" font-family="Helvetica,sans-Serif" font-size="9.00">+ addMultiElement()</text>
<text text-anchor="start" x="7.5" y="-355.4" font-family="Helvetica,sans-Serif" font-size="9.00">+ addSingleElement()</text>
<text text-anchor="start" x="7.5" y="-342.4" font-family="Helvetica,sans-Serif" font-size="9.00">+ clear()</text>
<text text-anchor="start" x="7.5" y="-329.4" font-family="Helvetica,sans-Serif" font-size="9.00">+ remove()</text>
<text text-anchor="start" x="7.5" y="-316.4" font-family="Helvetica,sans-Serif" font-size="9.00">+ removeMultiElement()</text>
<text text-anchor="start" x="7.5" y="-303.4" font-family="Helvetica,sans-Serif" font-size="9.00">+ removeSingleElement()</text>
</a>
</g>
<!-- Node3&#45;&gt;Node2 -->
<g id="edge4" class="edge"><title>Node3&#45;&gt;Node2</title>
<path fill="none" stroke="midnightblue" d="M127,-284.136C127,-274.376 127,-264.699 127,-255.734"/>
<polygon fill="none" stroke="midnightblue" points="123.5,-284.31 127,-294.31 130.5,-284.31 123.5,-284.31"/>
</g>
<!-- Node4 -->
<g id="node6" class="node"><title>Node4</title>
<a xlink:href="../../d4/d51/a00017.htm" target="_top" xlink:title="non&#45;thread&#45;safe storage of the data ">
<polygon fill="none" stroke="black" points="-0.5,-474.5 -0.5,-797.5 254.5,-797.5 254.5,-474.5 -0.5,-474.5"/>
<text text-anchor="start" x="7.5" y="-785.4" font-family="Helvetica,sans-Serif" font-size="9.00">de.tu_clausthal.in.mec.object.mas.generic.implementation.</text>
<text text-anchor="middle" x="127" y="-772.4" font-family="Helvetica,sans-Serif" font-size="9.00">CBeliefStorage&lt; N, M &gt;</text>
<polyline fill="none" stroke="black" points="-0.5,-763.5 254.5,-763.5 "/>
<text text-anchor="start" x="7.5" y="-751.4" font-family="Helvetica,sans-Serif" font-size="9.00"># m_multielements</text>
<text text-anchor="start" x="7.5" y="-738.4" font-family="Helvetica,sans-Serif" font-size="9.00"># m_singleelements</text>
<polyline fill="none" stroke="black" points="-0.5,-729.5 254.5,-729.5 "/>
<text text-anchor="start" x="7.5" y="-717.4" font-family="Helvetica,sans-Serif" font-size="9.00">+ addMultiElement()</text>
<text text-anchor="start" x="7.5" y="-704.4" font-family="Helvetica,sans-Serif" font-size="9.00">+ addSingleElement()</text>
<text text-anchor="start" x="7.5" y="-691.4" font-family="Helvetica,sans-Serif" font-size="9.00">+ clear()</text>
<text text-anchor="start" x="7.5" y="-678.4" font-family="Helvetica,sans-Serif" font-size="9.00">+ contains()</text>
<text text-anchor="start" x="7.5" y="-665.4" font-family="Helvetica,sans-Serif" font-size="9.00">+ containsMultiElement()</text>
<text text-anchor="start" x="7.5" y="-652.4" font-family="Helvetica,sans-Serif" font-size="9.00">+ containsSingleElement()</text>
<text text-anchor="start" x="7.5" y="-639.4" font-family="Helvetica,sans-Serif" font-size="9.00">+ getMultiElement()</text>
<text text-anchor="start" x="7.5" y="-626.4" font-family="Helvetica,sans-Serif" font-size="9.00">+ getSingleElement()</text>
<text text-anchor="start" x="7.5" y="-613.4" font-family="Helvetica,sans-Serif" font-size="9.00">+ isEmpty()</text>
<text text-anchor="start" x="7.5" y="-600.4" font-family="Helvetica,sans-Serif" font-size="9.00">+ iteratorMultiElement()</text>
<text text-anchor="start" x="7.5" y="-587.4" font-family="Helvetica,sans-Serif" font-size="9.00">+ iteratorSingleElement()</text>
<text text-anchor="start" x="7.5" y="-574.4" font-family="Helvetica,sans-Serif" font-size="9.00">+ remove()</text>
<text text-anchor="start" x="7.5" y="-561.4" font-family="Helvetica,sans-Serif" font-size="9.00">+ removeMultiElement()</text>
<text text-anchor="start" x="7.5" y="-548.4" font-family="Helvetica,sans-Serif" font-size="9.00">+ removeSingleElement()</text>
<text text-anchor="start" x="7.5" y="-535.4" font-family="Helvetica,sans-Serif" font-size="9.00">+ size()</text>
<text text-anchor="start" x="7.5" y="-522.4" font-family="Helvetica,sans-Serif" font-size="9.00">+ sizeMultiElement()</text>
<text text-anchor="start" x="7.5" y="-509.4" font-family="Helvetica,sans-Serif" font-size="9.00">+ sizeSingleElement()</text>
<text text-anchor="start" x="7.5" y="-496.4" font-family="Helvetica,sans-Serif" font-size="9.00">+ toString()</text>
<text text-anchor="start" x="7.5" y="-483.4" font-family="Helvetica,sans-Serif" font-size="9.00">+ update()</text>
</a>
</g>
<!-- Node4&#45;&gt;Node3 -->
<g id="edge6" class="edge"><title>Node4&#45;&gt;Node3</title>
<path fill="none" stroke="midnightblue" d="M127,-464.404C127,-454.448 127,-444.773 127,-435.615"/>
<polygon fill="none" stroke="midnightblue" points="123.5,-464.445 127,-474.445 130.5,-464.445 123.5,-464.445"/>
</g>
<!-- Node5 -->
<g id="node8" class="node"><title>Node5</title>
<a xlink:href="../../d2/dee/a00049.htm" target="_top" xlink:title="class to filter object fields * ">
<polygon fill="none" stroke="black" points="271.5,-173 271.5,-249 428.5,-249 428.5,-173 271.5,-173"/>
<text text-anchor="start" x="279.5" y="-236.9" font-family="Helvetica,sans-Serif" font-size="9.00">de.tu_clausthal.in.mec.object.mas.</text>
<text text-anchor="middle" x="350" y="-223.9" font-family="Helvetica,sans-Serif" font-size="9.00">CFieldFilter</text>
<polyline fill="none" stroke="black" points="271.5,-215 428.5,-215 "/>
<text text-anchor="middle" x="350" y="-202.9" font-family="Helvetica,sans-Serif" font-size="9.00"> </text>
<polyline fill="none" stroke="black" points="271.5,-194 428.5,-194 "/>
<text text-anchor="start" x="279.5" y="-181.9" font-family="Helvetica,sans-Serif" font-size="9.00">+ filter()</text>
</a>
</g>
<!-- Node5&#45;&gt;Node1 -->
<g id="edge8" class="edge"><title>Node5&#45;&gt;Node1</title>
<path fill="none" stroke="#404040" d="M328.021,-172.786C319.878,-158.628 310.378,-142.112 301.165,-126.094"/>
<polygon fill="none" stroke="#404040" points="301.153,-126.072 294.694,-122.865 295.17,-115.67 301.628,-118.877 301.153,-126.072"/>
<text text-anchor="middle" x="329.5" y="-139.4" font-family="Helvetica,sans-Serif" font-size="9.00"> #c_filter</text>
</g>
<!-- Node6 -->
<g id="node10" class="node"><title>Node6</title>
<a xlink:href="../../dd/dae/a00163.htm" target="_top" xlink:title="interface of field filtering ">
<polygon fill="none" stroke="black" points="276,-327 276,-403 424,-403 424,-327 276,-327"/>
<text text-anchor="start" x="284" y="-390.9" font-family="Helvetica,sans-Serif" font-size="9.00">de.tu_clausthal.in.mec.common.</text>
<text text-anchor="middle" x="350" y="-377.9" font-family="Helvetica,sans-Serif" font-size="9.00">CReflection.IFieldFilter</text>
<polyline fill="none" stroke="black" points="276,-369 424,-369 "/>
<text text-anchor="middle" x="350" y="-356.9" font-family="Helvetica,sans-Serif" font-size="9.00"> </text>
<polyline fill="none" stroke="black" points="276,-348 424,-348 "/>
<text text-anchor="start" x="284" y="-335.9" font-family="Helvetica,sans-Serif" font-size="9.00">+ filter()</text>
</a>
</g>
<!-- Node6&#45;&gt;Node5 -->
<g id="edge10" class="edge"><title>Node6&#45;&gt;Node5</title>
<path fill="none" stroke="midnightblue" d="M350,-316.875C350,-295.061 350,-269.632 350,-249.163"/>
<polygon fill="none" stroke="midnightblue" points="346.5,-316.933 350,-326.933 353.5,-316.933 346.5,-316.933"/>
</g>
</g>
</svg>
        <g id="navigator" transform="translate(0 0)" fill="#404254">
                <rect fill="#f2f5e9" fill-opacity="0.5" stroke="#606060" stroke-width=".5" x="0" y="0" width="60" height="60"/>
                <use id="zoomplus" xlink:href="#zoomPlus" x="17" y="9" onmousedown="handleZoom(evt,'in')"/>
                <use id="zoomminus" xlink:href="#zoomMin" x="42" y="9" onmousedown="handleZoom(evt,'out')"/>
                <use id="reset" xlink:href="#resetDef" x="30" y="36" onmousedown="handleReset()"/>
                <g id="arrowUp" xlink:href="#dirArrow" transform="translate(30 24)" onmousedown="handlePan(0,-1)">
                  <use xlink:href="#rim" fill="#404040">
                        <set attributeName="fill" to="#808080" begin="arrowUp.mouseover" end="arrowUp.mouseout"/>
                  </use>
                  <path fill="none" stroke="white" stroke-width="1.5" d="M0,-3.0v7 M-2.5,-0.5L0,-3.0L2.5,-0.5"/>
                </g>
                <g id="arrowRight" xlink:href="#dirArrow" transform="rotate(90) translate(36 -43)" onmousedown="handlePan(1,0)">
                  <use xlink:href="#rim" fill="#404040">
                        <set attributeName="fill" to="#808080" begin="arrowRight.mouseover" end="arrowRight.mouseout"/>
                  </use>
                  <path fill="none" stroke="white" stroke-width="1.5" d="M0,-3.0v7 M-2.5,-0.5L0,-3.0L2.5,-0.5"/>
                </g>
                <g id="arrowDown" xlink:href="#dirArrow" transform="rotate(180) translate(-30 -48)" onmousedown="handlePan(0,1)">
                  <use xlink:href="#rim" fill="#404040">
                        <set attributeName="fill" to="#808080" begin="arrowDown.mouseover" end="arrowDown.mouseout"/>
                  </use>
                  <path fill="none" stroke="white" stroke-width="1.5" d="M0,-3.0v7 M-2.5,-0.5L0,-3.0L2.5,-0.5"/>
                </g>
                <g id="arrowLeft" xlink:href="#dirArrow" transform="rotate(270) translate(-36 17)" onmousedown="handlePan(-1,0)">
                  <use xlink:href="#rim" fill="#404040">
                        <set attributeName="fill" to="#808080" begin="arrowLeft.mouseover" end="arrowLeft.mouseout"/>
                  </use>
                  <path fill="none" stroke="white" stroke-width="1.5" d="M0,-3.0v7 M-2.5,-0.5L0,-3.0L2.5,-0.5"/>
                </g>
        </g>
        <svg viewBox="0 0 15 15" width="100%" height="30px" preserveAspectRatio="xMaxYMin meet">
         <g id="arrow_out" transform="scale(0.3 0.3)">
          <a xlink:href="a00650_org.svg" target="_base">
           <rect id="button" ry="5" rx="5" y="6" x="6" height="38" width="38"
                fill="#f2f5e9" fill-opacity="0.5" stroke="#606060" stroke-width="1.0"/>
           <path id="arrow"
             d="M 11.500037,31.436501 C 11.940474,20.09759 22.043105,11.32322 32.158766,21.979434 L 37.068811,17.246167 C 37.068811,17.246167 37.088388,32 37.088388,32 L 22.160133,31.978069 C 22.160133,31.978069 26.997745,27.140456 26.997745,27.140456 C 18.528582,18.264221 13.291696,25.230495 11.500037,31.436501 z"
             style="fill:#404040;"/>
          </a>
         </g>
        </svg>
</svg>
