<?xml version="1.0" encoding="UTF-8" standalone="no"?>
<!DOCTYPE svg PUBLIC "-//W3C//DTD SVG 1.1//EN"
 "http://www.w3.org/Graphics/SVG/1.1/DTD/svg11.dtd">
<!-- Generated by graphviz version 2.26.3 (20100126.1600)
 -->
<!-- Title: de.tu_clausthal.in.mec.ui.web.IVirtualLocation Pages: 1 -->
<svg width="622pt" height="420pt"
 viewBox="0.00 0.00 622.00 420.00" xmlns="http://www.w3.org/2000/svg" xmlns:xlink="http://www.w3.org/1999/xlink">
<g id="graph1" class="graph" transform="scale(1 1) rotate(0) translate(4 416)">
<title>de.tu_clausthal.in.mec.ui.web.IVirtualLocation</title>
<!-- Node1 -->
<g id="node1" class="node"><title>Node1</title>
<polygon fill="#bfbfbf" stroke="black" points="237,-309 237,-411 377,-411 377,-309 237,-309"/>
<text text-anchor="start" x="245" y="-398.9" font-family="Helvetica,sans-Serif" font-size="9.00">de.tu_clausthal.in.mec.ui.web.</text>
<text text-anchor="middle" x="307" y="-385.9" font-family="Helvetica,sans-Serif" font-size="9.00">IVirtualLocation</text>
<polyline fill="none" stroke="black" points="237,-377 377,-377 "/>
<text text-anchor="middle" x="307" y="-364.9" font-family="Helvetica,sans-Serif" font-size="9.00"> </text>
<polyline fill="none" stroke="black" points="237,-356 377,-356 "/>
<text text-anchor="start" x="245" y="-343.9" font-family="Helvetica,sans-Serif" font-size="9.00">+ get()</text>
<text text-anchor="start" x="245" y="-330.9" font-family="Helvetica,sans-Serif" font-size="9.00">+ getMarkDownRenderer()</text>
<text text-anchor="start" x="245" y="-317.9" font-family="Helvetica,sans-Serif" font-size="9.00">+ match()</text>
</g>
<!-- Node2 -->
<g id="node3" class="node"><title>Node2</title>
<a xlink:href="../../d8/dfa/a00121.htm" target="_top" xlink:title="definition of virtual directory locations ">
<polygon fill="none" stroke="black" points="0,-20 0,-252 140,-252 140,-20 0,-20"/>
<text text-anchor="start" x="8" y="-239.9" font-family="Helvetica,sans-Serif" font-size="9.00">de.tu_clausthal.in.mec.ui.web.</text>
<text text-anchor="middle" x="70" y="-226.9" font-family="Helvetica,sans-Serif" font-size="9.00">CVirtualDirectory</text>
<polyline fill="none" stroke="black" points="0,-218 140,-218 "/>
<text text-anchor="start" x="8" y="-205.9" font-family="Helvetica,sans-Serif" font-size="9.00">&#45; m_directory</text>
<text text-anchor="start" x="8" y="-192.9" font-family="Helvetica,sans-Serif" font-size="9.00">&#45; m_index</text>
<text text-anchor="start" x="8" y="-179.9" font-family="Helvetica,sans-Serif" font-size="9.00">&#45; m_markdown</text>
<text text-anchor="start" x="8" y="-166.9" font-family="Helvetica,sans-Serif" font-size="9.00">&#45; m_uri</text>
<text text-anchor="start" x="8" y="-153.9" font-family="Helvetica,sans-Serif" font-size="9.00">&#45; c_allowchar</text>
<text text-anchor="start" x="8" y="-140.9" font-family="Helvetica,sans-Serif" font-size="9.00">&#45; c_seperator</text>
<polyline fill="none" stroke="black" points="0,-132 140,-132 "/>
<text text-anchor="start" x="8" y="-119.9" font-family="Helvetica,sans-Serif" font-size="9.00">+ CVirtualDirectory()</text>
<text text-anchor="start" x="8" y="-106.9" font-family="Helvetica,sans-Serif" font-size="9.00">+ CVirtualDirectory()</text>
<text text-anchor="start" x="8" y="-93.9" font-family="Helvetica,sans-Serif" font-size="9.00">+ CVirtualDirectory()</text>
<text text-anchor="start" x="8" y="-80.9" font-family="Helvetica,sans-Serif" font-size="9.00">+ equals()</text>
<text text-anchor="start" x="8" y="-67.9" font-family="Helvetica,sans-Serif" font-size="9.00">+ get()</text>
<text text-anchor="start" x="8" y="-54.9" font-family="Helvetica,sans-Serif" font-size="9.00">+ getMarkDownRenderer()</text>
<text text-anchor="start" x="8" y="-41.9" font-family="Helvetica,sans-Serif" font-size="9.00">+ hashCode()</text>
<text text-anchor="start" x="8" y="-28.9" font-family="Helvetica,sans-Serif" font-size="9.00">+ match()</text>
</a>
</g>
<!-- Node1&#45;&gt;Node2 -->
<g id="edge2" class="edge"><title>Node1&#45;&gt;Node2</title>
<path fill="none" stroke="midnightblue" d="M227.59,-326.376C200.513,-312.305 171.441,-294.039 149,-272 142.766,-265.878 136.856,-259.161 131.286,-252.094"/>
<polygon fill="none" stroke="midnightblue" points="226.182,-329.586 236.683,-330.986 229.347,-323.342 226.182,-329.586"/>
</g>
<!-- Node3 -->
<g id="node5" class="node"><title>Node3</title>
<a xlink:href="../../df/dc8/a00122.htm" target="_top" xlink:title="class to call methods continuously with websockets ">
<polygon fill="none" stroke="black" points="158,-33 158,-239 298,-239 298,-33 158,-33"/>
<text text-anchor="start" x="166" y="-226.9" font-family="Helvetica,sans-Serif" font-size="9.00">de.tu_clausthal.in.mec.ui.web.</text>
<text text-anchor="middle" x="228" y="-213.9" font-family="Helvetica,sans-Serif" font-size="9.00">CVirtualDynamicMethod</text>
<polyline fill="none" stroke="black" points="158,-205 298,-205 "/>
<text text-anchor="start" x="166" y="-192.9" font-family="Helvetica,sans-Serif" font-size="9.00">&#45; m_heartbeat</text>
<text text-anchor="start" x="166" y="-179.9" font-family="Helvetica,sans-Serif" font-size="9.00">&#45; m_method</text>
<text text-anchor="start" x="166" y="-166.9" font-family="Helvetica,sans-Serif" font-size="9.00">&#45; m_object</text>
<text text-anchor="start" x="166" y="-153.9" font-family="Helvetica,sans-Serif" font-size="9.00">&#45; m_uri</text>
<text text-anchor="start" x="166" y="-140.9" font-family="Helvetica,sans-Serif" font-size="9.00">&#45; c_seperator</text>
<text text-anchor="start" x="166" y="-127.9" font-family="Helvetica,sans-Serif" font-size="9.00">&#45; c_uriallowchars</text>
<polyline fill="none" stroke="black" points="158,-119 298,-119 "/>
<text text-anchor="start" x="166" y="-106.9" font-family="Helvetica,sans-Serif" font-size="9.00">+ CVirtualDynamicMethod()</text>
<text text-anchor="start" x="166" y="-93.9" font-family="Helvetica,sans-Serif" font-size="9.00">+ equals()</text>
<text text-anchor="start" x="166" y="-80.9" font-family="Helvetica,sans-Serif" font-size="9.00">+ get()</text>
<text text-anchor="start" x="166" y="-67.9" font-family="Helvetica,sans-Serif" font-size="9.00">+ getMarkDownRenderer()</text>
<text text-anchor="start" x="166" y="-54.9" font-family="Helvetica,sans-Serif" font-size="9.00">+ hashCode()</text>
<text text-anchor="start" x="166" y="-41.9" font-family="Helvetica,sans-Serif" font-size="9.00">+ match()</text>
</a>
</g>
<!-- Node1&#45;&gt;Node3 -->
<g id="edge4" class="edge"><title>Node1&#45;&gt;Node3</title>
<path fill="none" stroke="midnightblue" d="M285.621,-299.382C279.05,-280.749 271.624,-259.692 264.342,-239.045"/>
<polygon fill="none" stroke="midnightblue" points="282.348,-300.624 288.975,-308.891 288.95,-298.296 282.348,-300.624"/>
</g>
<!-- Node4 -->
<g id="node7" class="node"><title>Node4</title>
<a xlink:href="../../de/d36/a00123.htm" target="_top" xlink:title="virtual file with full path ">
<polygon fill="none" stroke="black" points="316,-46 316,-226 456,-226 456,-46 316,-46"/>
<text text-anchor="start" x="324" y="-213.9" font-family="Helvetica,sans-Serif" font-size="9.00">de.tu_clausthal.in.mec.ui.web.</text>
<text text-anchor="middle" x="386" y="-200.9" font-family="Helvetica,sans-Serif" font-size="9.00">CVirtualFile</text>
<polyline fill="none" stroke="black" points="316,-192 456,-192 "/>
<text text-anchor="start" x="324" y="-179.9" font-family="Helvetica,sans-Serif" font-size="9.00">&#45; m_file</text>
<text text-anchor="start" x="324" y="-166.9" font-family="Helvetica,sans-Serif" font-size="9.00">&#45; m_uri</text>
<text text-anchor="start" x="324" y="-153.9" font-family="Helvetica,sans-Serif" font-size="9.00">&#45; c_allowchar</text>
<text text-anchor="start" x="324" y="-140.9" font-family="Helvetica,sans-Serif" font-size="9.00">&#45; c_seperator</text>
<polyline fill="none" stroke="black" points="316,-132 456,-132 "/>
<text text-anchor="start" x="324" y="-119.9" font-family="Helvetica,sans-Serif" font-size="9.00">+ CVirtualFile()</text>
<text text-anchor="start" x="324" y="-106.9" font-family="Helvetica,sans-Serif" font-size="9.00">+ equals()</text>
<text text-anchor="start" x="324" y="-93.9" font-family="Helvetica,sans-Serif" font-size="9.00">+ get()</text>
<text text-anchor="start" x="324" y="-80.9" font-family="Helvetica,sans-Serif" font-size="9.00">+ getMarkDownRenderer()</text>
<text text-anchor="start" x="324" y="-67.9" font-family="Helvetica,sans-Serif" font-size="9.00">+ hashCode()</text>
<text text-anchor="start" x="324" y="-54.9" font-family="Helvetica,sans-Serif" font-size="9.00">+ match()</text>
</a>
</g>
<!-- Node1&#45;&gt;Node4 -->
<g id="edge6" class="edge"><title>Node1&#45;&gt;Node4</title>
<path fill="none" stroke="midnightblue" d="M328.357,-299.443C336.324,-276.854 345.548,-250.698 354.25,-226.024"/>
<polygon fill="none" stroke="midnightblue" points="325.05,-298.296 325.025,-308.891 331.652,-300.624 325.05,-298.296"/>
</g>
<!-- Node5 -->
<g id="node9" class="node"><title>Node5</title>
<a xlink:href="../../dc/dfe/a00125.htm" target="_top" xlink:title="class to call object methods with an URL access ">
<polygon fill="none" stroke="black" points="474,-0.5 474,-271.5 614,-271.5 614,-0.5 474,-0.5"/>
<text text-anchor="start" x="482" y="-259.4" font-family="Helvetica,sans-Serif" font-size="9.00">de.tu_clausthal.in.mec.ui.web.</text>
<text text-anchor="middle" x="544" y="-246.4" font-family="Helvetica,sans-Serif" font-size="9.00">CVirtualStaticMethod</text>
<polyline fill="none" stroke="black" points="474,-237.5 614,-237.5 "/>
<text text-anchor="start" x="482" y="-225.4" font-family="Helvetica,sans-Serif" font-size="9.00">&#45; m_arguments</text>
<text text-anchor="start" x="482" y="-212.4" font-family="Helvetica,sans-Serif" font-size="9.00">&#45; m_method</text>
<text text-anchor="start" x="482" y="-199.4" font-family="Helvetica,sans-Serif" font-size="9.00">&#45; m_methodreturntype</text>
<text text-anchor="start" x="482" y="-186.4" font-family="Helvetica,sans-Serif" font-size="9.00">&#45; m_object</text>
<text text-anchor="start" x="482" y="-173.4" font-family="Helvetica,sans-Serif" font-size="9.00">&#45; m_uri</text>
<text text-anchor="start" x="482" y="-160.4" font-family="Helvetica,sans-Serif" font-size="9.00">&#45; c_mimetype</text>
<text text-anchor="start" x="482" y="-147.4" font-family="Helvetica,sans-Serif" font-size="9.00">&#45; c_parser</text>
<text text-anchor="start" x="482" y="-134.4" font-family="Helvetica,sans-Serif" font-size="9.00">&#45; c_seperator</text>
<text text-anchor="start" x="482" y="-121.4" font-family="Helvetica,sans-Serif" font-size="9.00">&#45; c_uriallowchars</text>
<polyline fill="none" stroke="black" points="474,-112.5 614,-112.5 "/>
<text text-anchor="start" x="482" y="-100.4" font-family="Helvetica,sans-Serif" font-size="9.00">+ CVirtualStaticMethod()</text>
<text text-anchor="start" x="482" y="-87.4" font-family="Helvetica,sans-Serif" font-size="9.00">+ equals()</text>
<text text-anchor="start" x="482" y="-74.4" font-family="Helvetica,sans-Serif" font-size="9.00">+ get()</text>
<text text-anchor="start" x="482" y="-61.4" font-family="Helvetica,sans-Serif" font-size="9.00">+ getMarkDownRenderer()</text>
<text text-anchor="start" x="482" y="-48.4" font-family="Helvetica,sans-Serif" font-size="9.00">+ hashCode()</text>
<text text-anchor="start" x="482" y="-35.4" font-family="Helvetica,sans-Serif" font-size="9.00">+ match()</text>
<text text-anchor="start" x="482" y="-22.4" font-family="Helvetica,sans-Serif" font-size="9.00">&#45; convertMap()</text>
<text text-anchor="start" x="482" y="-9.4" font-family="Helvetica,sans-Serif" font-size="9.00">&#45; splitKeyValues()</text>
</a>
</g>
<!-- Node1&#45;&gt;Node5 -->
<g id="edge8" class="edge"><title>Node1&#45;&gt;Node5</title>
<path fill="none" stroke="midnightblue" d="M386.41,-326.376C413.487,-312.305 442.559,-294.039 465,-272 468.02,-269.034 470.963,-265.929 473.829,-262.713"/>
<polygon fill="none" stroke="midnightblue" points="384.653,-323.342 377.317,-330.986 387.818,-329.586 384.653,-323.342"/>
</g>
</g>
</svg>
