<?xml version="1.0" encoding="UTF-8" standalone="no"?>
<!DOCTYPE svg PUBLIC "-//W3C//DTD SVG 1.1//EN"
 "http://www.w3.org/Graphics/SVG/1.1/DTD/svg11.dtd">
<!-- Generated by graphviz version 2.26.3 (20100126.1600)
 -->
<!-- Title: de.tu_clausthal.in.mec.runtime.message.CParticipant Pages: 1 -->
<svg width="299pt" height="382pt"
 viewBox="0.00 0.00 299.00 382.00" xmlns="http://www.w3.org/2000/svg" xmlns:xlink="http://www.w3.org/1999/xlink">
<g id="graph1" class="graph" transform="scale(1 1) rotate(0) translate(4 378)">
<title>de.tu_clausthal.in.mec.runtime.message.CParticipant</title>
<!-- Node1 -->
<g id="node1" class="node"><title>Node1</title>
<polygon fill="#bfbfbf" stroke="black" points="-0.5,-1 -0.5,-129 182.5,-129 182.5,-1 -0.5,-1"/>
<text text-anchor="start" x="7.5" y="-116.9" font-family="Helvetica,sans-Serif" font-size="9.00">de.tu_clausthal.in.mec.runtime.message.</text>
<text text-anchor="middle" x="91" y="-103.9" font-family="Helvetica,sans-Serif" font-size="9.00">CParticipant</text>
<polyline fill="none" stroke="black" points="-0.5,-95 182.5,-95 "/>
<text text-anchor="middle" x="91" y="-82.9" font-family="Helvetica,sans-Serif" font-size="9.00"> </text>
<polyline fill="none" stroke="black" points="-0.5,-74 182.5,-74 "/>
<text text-anchor="start" x="7.5" y="-61.9" font-family="Helvetica,sans-Serif" font-size="9.00">+ CParticipant()</text>
<text text-anchor="start" x="7.5" y="-48.9" font-family="Helvetica,sans-Serif" font-size="9.00">+ getReceiverPath()</text>
<text text-anchor="start" x="7.5" y="-35.9" font-family="Helvetica,sans-Serif" font-size="9.00">+ receiveMessage()</text>
<text text-anchor="start" x="7.5" y="-22.9" font-family="Helvetica,sans-Serif" font-size="9.00">+ release()</text>
<text text-anchor="start" x="7.5" y="-9.9" font-family="Helvetica,sans-Serif" font-size="9.00">+ sendMessage()</text>
</g>
<!-- Node2 -->
<g id="node2" class="node"><title>Node2</title>
<a xlink:href="../../dd/d4c/a00177.htm" target="_top" xlink:title="interface of a participant of the event system ">
<polygon fill="none" stroke="black" points="108.5,-169 108.5,-245 291.5,-245 291.5,-169 108.5,-169"/>
<text text-anchor="start" x="116.5" y="-232.9" font-family="Helvetica,sans-Serif" font-size="9.00">de.tu_clausthal.in.mec.runtime.message.</text>
<text text-anchor="middle" x="200" y="-219.9" font-family="Helvetica,sans-Serif" font-size="9.00">IParticipant</text>
<polyline fill="none" stroke="black" points="108.5,-211 291.5,-211 "/>
<text text-anchor="middle" x="200" y="-198.9" font-family="Helvetica,sans-Serif" font-size="9.00"> </text>
<polyline fill="none" stroke="black" points="108.5,-190 291.5,-190 "/>
<text text-anchor="start" x="116.5" y="-177.9" font-family="Helvetica,sans-Serif" font-size="9.00">+ sendMessage()</text>
</a>
</g>
<!-- Node2&#45;&gt;Node1 -->
<g id="edge2" class="edge"><title>Node2&#45;&gt;Node1</title>
<path fill="none" stroke="midnightblue" d="M164.687,-160.995C156.898,-150.848 148.51,-139.921 140.282,-129.202"/>
<polygon fill="none" stroke="midnightblue" points="161.925,-163.145 170.79,-168.947 167.477,-158.883 161.925,-163.145"/>
</g>
<!-- Node3 -->
<g id="node4" class="node"><title>Node3</title>
<a xlink:href="../../d8/d64/a00181.htm" target="_top" xlink:title="message receiver interface for defining an object which can handle the message of a participant objec...">
<polygon fill="none" stroke="black" points="-0.5,-284.5 -0.5,-373.5 182.5,-373.5 182.5,-284.5 -0.5,-284.5"/>
<text text-anchor="start" x="7.5" y="-361.4" font-family="Helvetica,sans-Serif" font-size="9.00">de.tu_clausthal.in.mec.runtime.message.</text>
<text text-anchor="middle" x="91" y="-348.4" font-family="Helvetica,sans-Serif" font-size="9.00">IReceiver</text>
<polyline fill="none" stroke="black" points="-0.5,-339.5 182.5,-339.5 "/>
<text text-anchor="middle" x="91" y="-327.4" font-family="Helvetica,sans-Serif" font-size="9.00"> </text>
<polyline fill="none" stroke="black" points="-0.5,-318.5 182.5,-318.5 "/>
<text text-anchor="start" x="7.5" y="-306.4" font-family="Helvetica,sans-Serif" font-size="9.00">+ getReceiverPath()</text>
<text text-anchor="start" x="7.5" y="-293.4" font-family="Helvetica,sans-Serif" font-size="9.00">+ receiveMessage()</text>
</a>
</g>
<!-- Node3&#45;&gt;Node1 -->
<g id="edge6" class="edge"><title>Node3&#45;&gt;Node1</title>
<path fill="none" stroke="#404040" d="M68.3581,-284.381C63.2671,-272.238 58.6037,-258.876 56,-246 49.1287,-212.021 50.3476,-202.203 56,-168 57.4774,-159.06 59.6303,-149.854 62.1536,-140.795"/>
<polygon fill="none" stroke="#404040" points="62.239,-140.507 60.1146,-133.616 65.6586,-129.005 67.7829,-135.896 62.239,-140.507"/>
<text text-anchor="middle" x="78" y="-205.4" font-family="Helvetica,sans-Serif" font-size="9.00"> &#45;m_owner</text>
</g>
<!-- Node3&#45;&gt;Node2 -->
<g id="edge4" class="edge"><title>Node3&#45;&gt;Node2</title>
<path fill="none" stroke="midnightblue" d="M137.75,-276.674C147.163,-266.139 156.89,-255.252 165.778,-245.303"/>
<polygon fill="none" stroke="midnightblue" points="135.021,-274.475 130.969,-284.264 140.241,-279.139 135.021,-274.475"/>
</g>
</g>
</svg>
