<?xml version="1.0" encoding="UTF-8" standalone="no"?>
<!DOCTYPE svg PUBLIC "-//W3C//DTD SVG 1.1//EN"
 "http://www.w3.org/Graphics/SVG/1.1/DTD/svg11.dtd">
<!-- Generated by graphviz version 2.26.3 (20100126.1600)
 -->
<!-- Title: de.tu_clausthal.in.mec.object.mas.jason.CAgent&lt; T &gt; Pages: 1 -->
<!--zoomable 1742 -->
<svg id="main" version="1.1" xmlns="http://www.w3.org/2000/svg" xmlns:xlink="http://www.w3.org/1999/xlink" xml:space="preserve" onload="init(evt)">
<style type="text/css"><![CDATA[
.edge:hover path { stroke: red; }
.edge:hover polygon { stroke: red; fill: red; }
]]></style>
<script type="text/javascript"><![CDATA[
var edges = document.getElementsByTagName('g');
if (edges && edges.length) {
  for (var i=0;i<edges.length;i++) {
    if (edges[i].id.substr(0,4)=='edge') {
      edges[i].setAttribute('class','edge');
    }
  }
}
]]></script>
        <defs>
                <circle id="rim" cx="0" cy="0" r="7"/>
                <circle id="rim2" cx="0" cy="0" r="3.5"/>
                <g id="zoomPlus">
                        <use xlink:href="#rim" fill="#404040">
                                <set attributeName="fill" to="#808080" begin="zoomplus.mouseover" end="zoomplus.mouseout"/>
                        </use>
                        <path d="M-4,0h8M0,-4v8" fill="none" stroke="white" stroke-width="1.5" pointer-events="none"/>
                </g>
                <g id="zoomMin">
                        <use xlink:href="#rim" fill="#404040">
                                <set attributeName="fill" to="#808080" begin="zoomminus.mouseover" end="zoomminus.mouseout"/>
                        </use>
                        <path d="M-4,0h8" fill="none" stroke="white" stroke-width="1.5" pointer-events="none"/>
                </g>
                <g id="dirArrow">
                        <path fill="none" stroke="white" stroke-width="1.5" d="M0,-3.0v7 M-2.5,-0.5L0,-3.0L2.5,-0.5"/>
                </g>
               <g id="resetDef">
                       <use xlink:href="#rim2" fill="#404040">
                               <set attributeName="fill" to="#808080" begin="reset.mouseover" end="reset.mouseout"/>
                       </use>
               </g>
        </defs>

<script type="text/javascript">
var viewWidth = 962;
var viewHeight = 1742;
var sectionId = 'dynsection-0';
</script>
<script xlink:href="../../svgpan.js"/>
<svg id="graph" class="graph">
<g id="viewport">
<title>de.tu_clausthal.in.mec.object.mas.jason.CAgent&lt; T &gt;</title>
<!-- Node1 -->
<g id="node1" class="node"><title>Node1</title>
<polygon fill="#bfbfbf" stroke="black" points="353,-0.5 353,-375.5 535,-375.5 535,-0.5 353,-0.5"/>
<text text-anchor="start" x="361" y="-363.4" font-family="Helvetica,sans-Serif" font-size="9.00">de.tu_clausthal.in.mec.object.mas.jason.</text>
<text text-anchor="middle" x="444" y="-350.4" font-family="Helvetica,sans-Serif" font-size="9.00">CAgent&lt; T &gt;</text>
<polyline fill="none" stroke="black" points="353,-341.5 535,-341.5 "/>
<text text-anchor="start" x="361" y="-329.4" font-family="Helvetica,sans-Serif" font-size="9.00">&#45; m_action</text>
<text text-anchor="start" x="361" y="-316.4" font-family="Helvetica,sans-Serif" font-size="9.00">&#45; m_agent</text>
<text text-anchor="start" x="361" y="-303.4" font-family="Helvetica,sans-Serif" font-size="9.00">&#45; m_architecture</text>
<text text-anchor="start" x="361" y="-290.4" font-family="Helvetica,sans-Serif" font-size="9.00">&#45; m_cycle</text>
<text text-anchor="start" x="361" y="-277.4" font-family="Helvetica,sans-Serif" font-size="9.00">&#45; c_agentnameseparator</text>
<text text-anchor="start" x="361" y="-264.4" font-family="Helvetica,sans-Serif" font-size="9.00">&#45; c_bindname</text>
<polyline fill="none" stroke="black" points="353,-255.5 535,-255.5 "/>
<text text-anchor="start" x="361" y="-243.4" font-family="Helvetica,sans-Serif" font-size="9.00">+ CAgent()</text>
<text text-anchor="start" x="361" y="-230.4" font-family="Helvetica,sans-Serif" font-size="9.00">+ CAgent()</text>
<text text-anchor="start" x="361" y="-217.4" font-family="Helvetica,sans-Serif" font-size="9.00">+ CAgent()</text>
<text text-anchor="start" x="361" y="-204.4" font-family="Helvetica,sans-Serif" font-size="9.00">+ CAgent()</text>
<text text-anchor="start" x="361" y="-191.4" font-family="Helvetica,sans-Serif" font-size="9.00">+ addBeliefBase()</text>
<text text-anchor="start" x="361" y="-178.4" font-family="Helvetica,sans-Serif" font-size="9.00">+ bind()</text>
<text text-anchor="start" x="361" y="-165.4" font-family="Helvetica,sans-Serif" font-size="9.00">+ getActions()</text>
<text text-anchor="start" x="361" y="-152.4" font-family="Helvetica,sans-Serif" font-size="9.00">+ getBeliefBase()</text>
<text text-anchor="start" x="361" y="-139.4" font-family="Helvetica,sans-Serif" font-size="9.00">+ getCycle()</text>
<text text-anchor="start" x="361" y="-126.4" font-family="Helvetica,sans-Serif" font-size="9.00">+ getName()</text>
<text text-anchor="start" x="361" y="-113.4" font-family="Helvetica,sans-Serif" font-size="9.00">+ getReceiverPath()</text>
<text text-anchor="start" x="361" y="-100.4" font-family="Helvetica,sans-Serif" font-size="9.00">+ getSource()</text>
<text text-anchor="start" x="361" y="-87.4" font-family="Helvetica,sans-Serif" font-size="9.00">+ paint()</text>
<text text-anchor="start" x="361" y="-74.4" font-family="Helvetica,sans-Serif" font-size="9.00">+ performtemplate()</text>
<text text-anchor="start" x="361" y="-61.4" font-family="Helvetica,sans-Serif" font-size="9.00">+ receiveMessage()</text>
<text text-anchor="start" x="361" y="-48.4" font-family="Helvetica,sans-Serif" font-size="9.00">+ release()</text>
<text text-anchor="start" x="361" y="-35.4" font-family="Helvetica,sans-Serif" font-size="9.00">+ removeBeliefBase()</text>
<text text-anchor="start" x="361" y="-22.4" font-family="Helvetica,sans-Serif" font-size="9.00">+ step()</text>
<text text-anchor="start" x="361" y="-9.4" font-family="Helvetica,sans-Serif" font-size="9.00">+ unbind()</text>
</g>
<!-- Node2 -->
<g id="node2" class="node"><title>Node2</title>
<a xlink:href="../../d9/d77/a00095.htm" target="_top" xlink:title="action to synchronize bind&#45;object with agent value ">
<polygon fill="none" stroke="black" points="-0.5,-608.5 -0.5,-723.5 208.5,-723.5 208.5,-608.5 -0.5,-608.5"/>
<text text-anchor="start" x="7.5" y="-711.4" font-family="Helvetica,sans-Serif" font-size="9.00">de.tu_clausthal.in.mec.object.mas.jason.action.</text>
<text text-anchor="middle" x="104" y="-698.4" font-family="Helvetica,sans-Serif" font-size="9.00">CPropertyBind</text>
<polyline fill="none" stroke="black" points="-0.5,-689.5 208.5,-689.5 "/>
<text text-anchor="middle" x="104" y="-677.4" font-family="Helvetica,sans-Serif" font-size="9.00"> </text>
<polyline fill="none" stroke="black" points="-0.5,-668.5 208.5,-668.5 "/>
<text text-anchor="start" x="7.5" y="-656.4" font-family="Helvetica,sans-Serif" font-size="9.00">+ CPropertyBind()</text>
<text text-anchor="start" x="7.5" y="-643.4" font-family="Helvetica,sans-Serif" font-size="9.00">+ CPropertyBind()</text>
<text text-anchor="start" x="7.5" y="-630.4" font-family="Helvetica,sans-Serif" font-size="9.00">+ CPropertyBind()</text>
<text text-anchor="start" x="7.5" y="-617.4" font-family="Helvetica,sans-Serif" font-size="9.00">+ act()</text>
</a>
</g>
<!-- Node2&#45;&gt;Node1 -->
<g id="edge2" class="edge"><title>Node2&#45;&gt;Node1</title>
<path fill="none" stroke="#404040" d="M125.005,-608.439C144.793,-558.009 177.292,-483.93 217,-426 253.319,-373.015 301.554,-320.637 344.219,-278.564"/>
<polygon fill="none" stroke="#404040" points="344.376,-278.411 345.866,-271.356 352.952,-270.019 351.462,-277.074 344.376,-278.411"/>
<text text-anchor="middle" x="273" y="-399.4" font-family="Helvetica,sans-Serif" font-size="9.00"> &#45;m_propertybind</text>
</g>
<!-- Node3 -->
<g id="node4" class="node"><title>Node3</title>
<a xlink:href="../../d4/d7d/a00093.htm" target="_top" xlink:title="participant class for event messager ">
<polygon fill="none" stroke="black" points="225.5,-602 225.5,-730 408.5,-730 408.5,-602 225.5,-602"/>
<text text-anchor="start" x="233.5" y="-717.9" font-family="Helvetica,sans-Serif" font-size="9.00">de.tu_clausthal.in.mec.runtime.message.</text>
<text text-anchor="middle" x="317" y="-704.9" font-family="Helvetica,sans-Serif" font-size="9.00">CParticipant</text>
<polyline fill="none" stroke="black" points="225.5,-696 408.5,-696 "/>
<text text-anchor="middle" x="317" y="-683.9" font-family="Helvetica,sans-Serif" font-size="9.00"> </text>
<polyline fill="none" stroke="black" points="225.5,-675 408.5,-675 "/>
<text text-anchor="start" x="233.5" y="-662.9" font-family="Helvetica,sans-Serif" font-size="9.00">+ CParticipant()</text>
<text text-anchor="start" x="233.5" y="-649.9" font-family="Helvetica,sans-Serif" font-size="9.00">+ getReceiverPath()</text>
<text text-anchor="start" x="233.5" y="-636.9" font-family="Helvetica,sans-Serif" font-size="9.00">+ receiveMessage()</text>
<text text-anchor="start" x="233.5" y="-623.9" font-family="Helvetica,sans-Serif" font-size="9.00">+ release()</text>
<text text-anchor="start" x="233.5" y="-610.9" font-family="Helvetica,sans-Serif" font-size="9.00">+ sendMessage()</text>
</a>
</g>
<!-- Node3&#45;&gt;Node1 -->
<g id="edge4" class="edge"><title>Node3&#45;&gt;Node1</title>
<path fill="none" stroke="#404040" d="M326.286,-601.858C335.031,-546.315 349.672,-464.101 369,-394 369.6,-391.824 370.212,-389.639 370.836,-387.445"/>
<polygon fill="none" stroke="#404040" points="370.917,-387.167 368.757,-380.287 374.277,-375.647 376.437,-382.527 370.917,-387.167"/>
<text text-anchor="middle" x="399.5" y="-399.4" font-family="Helvetica,sans-Serif" font-size="9.00"> &#45;m_participant</text>
</g>
<!-- Node4 -->
<g id="node6" class="node"><title>Node4</title>
<a xlink:href="../../dd/d4c/a00177.htm" target="_top" xlink:title="interface of a participant of the event system ">
<polygon fill="none" stroke="black" points="225.5,-1256 225.5,-1332 408.5,-1332 408.5,-1256 225.5,-1256"/>
<text text-anchor="start" x="233.5" y="-1319.9" font-family="Helvetica,sans-Serif" font-size="9.00">de.tu_clausthal.in.mec.runtime.message.</text>
<text text-anchor="middle" x="317" y="-1306.9" font-family="Helvetica,sans-Serif" font-size="9.00">IParticipant</text>
<polyline fill="none" stroke="black" points="225.5,-1298 408.5,-1298 "/>
<text text-anchor="middle" x="317" y="-1285.9" font-family="Helvetica,sans-Serif" font-size="9.00"> </text>
<polyline fill="none" stroke="black" points="225.5,-1277 408.5,-1277 "/>
<text text-anchor="start" x="233.5" y="-1264.9" font-family="Helvetica,sans-Serif" font-size="9.00">+ sendMessage()</text>
</a>
</g>
<!-- Node4&#45;&gt;Node3 -->
<g id="edge6" class="edge"><title>Node4&#45;&gt;Node3</title>
<path fill="none" stroke="midnightblue" d="M317,-1245.33C317,-1133.12 317,-856.274 317,-730.289"/>
<polygon fill="none" stroke="midnightblue" points="313.5,-1245.66 317,-1255.66 320.5,-1245.66 313.5,-1245.66"/>
</g>
<!-- Node5 -->
<g id="node8" class="node"><title>Node5</title>
<a xlink:href="../../d8/d64/a00181.htm" target="_top" xlink:title="message receiver interface for defining an object which can handle the message of a participant objec...">
<polygon fill="none" stroke="black" points="116.5,-1644.5 116.5,-1733.5 299.5,-1733.5 299.5,-1644.5 116.5,-1644.5"/>
<text text-anchor="start" x="124.5" y="-1721.4" font-family="Helvetica,sans-Serif" font-size="9.00">de.tu_clausthal.in.mec.runtime.message.</text>
<text text-anchor="middle" x="208" y="-1708.4" font-family="Helvetica,sans-Serif" font-size="9.00">IReceiver</text>
<polyline fill="none" stroke="black" points="116.5,-1699.5 299.5,-1699.5 "/>
<text text-anchor="middle" x="208" y="-1687.4" font-family="Helvetica,sans-Serif" font-size="9.00"> </text>
<polyline fill="none" stroke="black" points="116.5,-1678.5 299.5,-1678.5 "/>
<text text-anchor="start" x="124.5" y="-1666.4" font-family="Helvetica,sans-Serif" font-size="9.00">+ getReceiverPath()</text>
<text text-anchor="start" x="124.5" y="-1653.4" font-family="Helvetica,sans-Serif" font-size="9.00">+ receiveMessage()</text>
</a>
</g>
<!-- Node5&#45;&gt;Node3 -->
<g id="edge10" class="edge"><title>Node5&#45;&gt;Node3</title>
<path fill="none" stroke="#404040" d="M185.358,-1644.38C180.267,-1632.24 175.604,-1618.88 173,-1606 118.03,-1334.17 101.061,-1249.84 173,-982 183.124,-944.306 199.68,-940.977 217,-906 243.704,-852.074 269.714,-789.228 288.511,-741.377"/>
<polygon fill="none" stroke="#404040" points="288.522,-741.347 286.98,-734.302 292.889,-730.169 294.432,-737.214 288.522,-741.347"/>
<text text-anchor="middle" x="195" y="-1292.4" font-family="Helvetica,sans-Serif" font-size="9.00"> &#45;m_owner</text>
</g>
<!-- Node5&#45;&gt;Node4 -->
<g id="edge8" class="edge"><title>Node5&#45;&gt;Node4</title>
<path fill="none" stroke="midnightblue" d="M223.058,-1634.43C245.461,-1553.25 287.01,-1402.68 306.453,-1332.22"/>
<polygon fill="none" stroke="midnightblue" points="219.578,-1633.89 220.292,-1644.46 226.326,-1635.75 219.578,-1633.89"/>
</g>
<!-- Node6 -->
<g id="node11" class="node"><title>Node6</title>
<a xlink:href="../../dc/d54/a00094.htm" target="_top" xlink:title="class to create a path structure ">
<polygon fill="none" stroke="black" points="426,-983 426,-1605 574,-1605 574,-983 426,-983"/>
<text text-anchor="start" x="434" y="-1592.9" font-family="Helvetica,sans-Serif" font-size="9.00">de.tu_clausthal.in.mec.common.</text>
<text text-anchor="middle" x="500" y="-1579.9" font-family="Helvetica,sans-Serif" font-size="9.00">CPath</text>
<polyline fill="none" stroke="black" points="426,-1571 574,-1571 "/>
<text text-anchor="start" x="434" y="-1558.9" font-family="Helvetica,sans-Serif" font-size="9.00">+ DEFAULTSEPERATOR</text>
<text text-anchor="start" x="434" y="-1545.9" font-family="Helvetica,sans-Serif" font-size="9.00">&#45; m_path</text>
<text text-anchor="start" x="434" y="-1532.9" font-family="Helvetica,sans-Serif" font-size="9.00">&#45; m_separator</text>
<polyline fill="none" stroke="black" points="426,-1524 574,-1524 "/>
<text text-anchor="start" x="434" y="-1511.9" font-family="Helvetica,sans-Serif" font-size="9.00">+ CPath()</text>
<text text-anchor="start" x="434" y="-1498.9" font-family="Helvetica,sans-Serif" font-size="9.00">+ CPath()</text>
<text text-anchor="start" x="434" y="-1485.9" font-family="Helvetica,sans-Serif" font-size="9.00">+ CPath()</text>
<text text-anchor="start" x="434" y="-1472.9" font-family="Helvetica,sans-Serif" font-size="9.00">+ CPath()</text>
<text text-anchor="start" x="434" y="-1459.9" font-family="Helvetica,sans-Serif" font-size="9.00">+ append()</text>
<text text-anchor="start" x="434" y="-1446.9" font-family="Helvetica,sans-Serif" font-size="9.00">+ append()</text>
<text text-anchor="start" x="434" y="-1433.9" font-family="Helvetica,sans-Serif" font-size="9.00">+ compareTo()</text>
<text text-anchor="start" x="434" y="-1420.9" font-family="Helvetica,sans-Serif" font-size="9.00">+ endsWith()</text>
<text text-anchor="start" x="434" y="-1407.9" font-family="Helvetica,sans-Serif" font-size="9.00">+ equals()</text>
<text text-anchor="start" x="434" y="-1394.9" font-family="Helvetica,sans-Serif" font-size="9.00">+ get()</text>
<text text-anchor="start" x="434" y="-1381.9" font-family="Helvetica,sans-Serif" font-size="9.00">+ getPath()</text>
<text text-anchor="start" x="434" y="-1368.9" font-family="Helvetica,sans-Serif" font-size="9.00">+ getPath()</text>
<text text-anchor="start" x="434" y="-1355.9" font-family="Helvetica,sans-Serif" font-size="9.00">+ getSeparator()</text>
<text text-anchor="start" x="434" y="-1342.9" font-family="Helvetica,sans-Serif" font-size="9.00">+ getSubPath()</text>
<text text-anchor="start" x="434" y="-1329.9" font-family="Helvetica,sans-Serif" font-size="9.00">+ getSubPath()</text>
<text text-anchor="start" x="434" y="-1316.9" font-family="Helvetica,sans-Serif" font-size="9.00">+ getSuffix()</text>
<text text-anchor="start" x="434" y="-1303.9" font-family="Helvetica,sans-Serif" font-size="9.00">+ hashCode()</text>
<text text-anchor="start" x="434" y="-1290.9" font-family="Helvetica,sans-Serif" font-size="9.00">+ isEmpty()</text>
<text text-anchor="start" x="434" y="-1277.9" font-family="Helvetica,sans-Serif" font-size="9.00">+ iterator()</text>
<text text-anchor="start" x="434" y="-1264.9" font-family="Helvetica,sans-Serif" font-size="9.00">+ normalize()</text>
<text text-anchor="start" x="434" y="-1251.9" font-family="Helvetica,sans-Serif" font-size="9.00">+ parallelStream()</text>
<text text-anchor="start" x="434" y="-1238.9" font-family="Helvetica,sans-Serif" font-size="9.00">+ pushback()</text>
<text text-anchor="start" x="434" y="-1225.9" font-family="Helvetica,sans-Serif" font-size="9.00">+ pushback()</text>
<text text-anchor="start" x="434" y="-1212.9" font-family="Helvetica,sans-Serif" font-size="9.00">+ pushfront()</text>
<text text-anchor="start" x="434" y="-1199.9" font-family="Helvetica,sans-Serif" font-size="9.00">+ pushfront()</text>
<text text-anchor="start" x="434" y="-1186.9" font-family="Helvetica,sans-Serif" font-size="9.00">+ remove()</text>
<text text-anchor="start" x="434" y="-1173.9" font-family="Helvetica,sans-Serif" font-size="9.00">+ remove()</text>
<text text-anchor="start" x="434" y="-1160.9" font-family="Helvetica,sans-Serif" font-size="9.00">+ removeSuffix()</text>
<text text-anchor="start" x="434" y="-1147.9" font-family="Helvetica,sans-Serif" font-size="9.00">+ reverse()</text>
<text text-anchor="start" x="434" y="-1134.9" font-family="Helvetica,sans-Serif" font-size="9.00">+ setSeparator()</text>
<text text-anchor="start" x="434" y="-1121.9" font-family="Helvetica,sans-Serif" font-size="9.00">+ size()</text>
<text text-anchor="start" x="434" y="-1108.9" font-family="Helvetica,sans-Serif" font-size="9.00">+ startsWith()</text>
<text text-anchor="start" x="434" y="-1095.9" font-family="Helvetica,sans-Serif" font-size="9.00">+ startsWith()</text>
<text text-anchor="start" x="434" y="-1082.9" font-family="Helvetica,sans-Serif" font-size="9.00">+ stream()</text>
<text text-anchor="start" x="434" y="-1069.9" font-family="Helvetica,sans-Serif" font-size="9.00">+ toLower()</text>
<text text-anchor="start" x="434" y="-1056.9" font-family="Helvetica,sans-Serif" font-size="9.00">+ toString()</text>
<text text-anchor="start" x="434" y="-1043.9" font-family="Helvetica,sans-Serif" font-size="9.00">+ toUpper()</text>
<text text-anchor="start" x="434" y="-1030.9" font-family="Helvetica,sans-Serif" font-size="9.00">+ createPath()</text>
<text text-anchor="start" x="434" y="-1017.9" font-family="Helvetica,sans-Serif" font-size="9.00">+ createSplitPath()</text>
<text text-anchor="start" x="434" y="-1004.9" font-family="Helvetica,sans-Serif" font-size="9.00">+ from()</text>
<text text-anchor="start" x="434" y="-991.9" font-family="Helvetica,sans-Serif" font-size="9.00">&#45; initialize()</text>
</a>
</g>
<!-- Node6&#45;&gt;Node1 -->
<g id="edge12" class="edge"><title>Node6&#45;&gt;Node1</title>
<path fill="none" stroke="#404040" d="M459.327,-982.97C456.838,-956.964 454.669,-931.05 453,-906 441.35,-731.176 439.779,-531.895 440.732,-387.707"/>
<polygon fill="none" stroke="#404040" points="440.732,-387.678 436.775,-381.65 440.818,-375.679 444.775,-381.707 440.732,-387.678"/>
<text text-anchor="middle" x="483" y="-664.4" font-family="Helvetica,sans-Serif" font-size="9.00"> &#45;m_namepath</text>
</g>
<!-- Node6&#45;&gt;Node6 -->
<g id="edge14" class="edge"><title>Node6&#45;&gt;Node6</title>
<path fill="none" stroke="#404040" d="M574.36,-1349.53C584.916,-1340.55 592,-1322.04 592,-1294 592,-1273.63 588.261,-1258.29 582.167,-1247.98"/>
<polygon fill="none" stroke="#404040" points="581.977,-1247.75 575.078,-1245.65 574.36,-1238.47 581.259,-1240.57 581.977,-1247.75"/>
<text text-anchor="middle" x="611.5" y="-1292.4" font-family="Helvetica,sans-Serif" font-size="9.00"> +EMPTY</text>
</g>
<!-- Node7 -->
<g id="node14" class="node"><title>Node7</title>
<a xlink:href="../../d9/d4b/a00117.htm" target="_top" xlink:title="beliefbase which wraps all Jason structures ">
<polygon fill="none" stroke="black" points="522,-426.5 522,-905.5 728,-905.5 728,-426.5 522,-426.5"/>
<text text-anchor="start" x="530" y="-893.4" font-family="Helvetica,sans-Serif" font-size="9.00">de.tu_clausthal.in.mec.object.mas.jason.belief.</text>
<text text-anchor="middle" x="625" y="-880.4" font-family="Helvetica,sans-Serif" font-size="9.00">CTreeBeliefBase</text>
<polyline fill="none" stroke="black" points="522,-871.5 728,-871.5 "/>
<text text-anchor="start" x="530" y="-859.4" font-family="Helvetica,sans-Serif" font-size="9.00">&#45; c_agentbeliefseparator</text>
<text text-anchor="start" x="530" y="-846.4" font-family="Helvetica,sans-Serif" font-size="9.00">&#45; c_beliefbindprefixreplace</text>
<polyline fill="none" stroke="black" points="522,-837.5 728,-837.5 "/>
<text text-anchor="start" x="530" y="-825.4" font-family="Helvetica,sans-Serif" font-size="9.00">+ CTreeBeliefBase()</text>
<text text-anchor="start" x="530" y="-812.4" font-family="Helvetica,sans-Serif" font-size="9.00">+ abolish()</text>
<text text-anchor="start" x="530" y="-799.4" font-family="Helvetica,sans-Serif" font-size="9.00">+ add()</text>
<text text-anchor="start" x="530" y="-786.4" font-family="Helvetica,sans-Serif" font-size="9.00">+ add()</text>
<text text-anchor="start" x="530" y="-773.4" font-family="Helvetica,sans-Serif" font-size="9.00">+ add()</text>
<text text-anchor="start" x="530" y="-760.4" font-family="Helvetica,sans-Serif" font-size="9.00">+ bind()</text>
<text text-anchor="start" x="530" y="-747.4" font-family="Helvetica,sans-Serif" font-size="9.00">+ clear()</text>
<text text-anchor="start" x="530" y="-734.4" font-family="Helvetica,sans-Serif" font-size="9.00">+ clone()</text>
<text text-anchor="start" x="530" y="-721.4" font-family="Helvetica,sans-Serif" font-size="9.00">+ contains()</text>
<text text-anchor="start" x="530" y="-708.4" font-family="Helvetica,sans-Serif" font-size="9.00">+ createBeliefbase()</text>
<text text-anchor="start" x="530" y="-695.4" font-family="Helvetica,sans-Serif" font-size="9.00">+ generateTreeStructure()</text>
<text text-anchor="start" x="530" y="-682.4" font-family="Helvetica,sans-Serif" font-size="9.00">+ getAll()</text>
<text text-anchor="start" x="530" y="-669.4" font-family="Helvetica,sans-Serif" font-size="9.00">+ getAsDOM()</text>
<text text-anchor="start" x="530" y="-656.4" font-family="Helvetica,sans-Serif" font-size="9.00">+ getCandidateBeliefs()</text>
<text text-anchor="start" x="530" y="-643.4" font-family="Helvetica,sans-Serif" font-size="9.00">+ getCandidateBeliefs()</text>
<text text-anchor="start" x="530" y="-630.4" font-family="Helvetica,sans-Serif" font-size="9.00">+ getPercepts()</text>
<text text-anchor="start" x="530" y="-617.4" font-family="Helvetica,sans-Serif" font-size="9.00">+ getRelevant()</text>
<text text-anchor="start" x="530" y="-604.4" font-family="Helvetica,sans-Serif" font-size="9.00">+ getRootMask()</text>
<text text-anchor="start" x="530" y="-591.4" font-family="Helvetica,sans-Serif" font-size="9.00">+ init()</text>
<text text-anchor="start" x="530" y="-578.4" font-family="Helvetica,sans-Serif" font-size="9.00">+ iterator()</text>
<text text-anchor="start" x="530" y="-565.4" font-family="Helvetica,sans-Serif" font-size="9.00">+ remove()</text>
<text text-anchor="start" x="530" y="-552.4" font-family="Helvetica,sans-Serif" font-size="9.00">+ remove()</text>
<text text-anchor="start" x="530" y="-539.4" font-family="Helvetica,sans-Serif" font-size="9.00">+ setMessageBeliefbase()</text>
<text text-anchor="start" x="530" y="-526.4" font-family="Helvetica,sans-Serif" font-size="9.00">+ setMessages()</text>
<text text-anchor="start" x="530" y="-513.4" font-family="Helvetica,sans-Serif" font-size="9.00">+ size()</text>
<text text-anchor="start" x="530" y="-500.4" font-family="Helvetica,sans-Serif" font-size="9.00">+ stop()</text>
<text text-anchor="start" x="530" y="-487.4" font-family="Helvetica,sans-Serif" font-size="9.00">+ unbind()</text>
<text text-anchor="start" x="530" y="-474.4" font-family="Helvetica,sans-Serif" font-size="9.00">+ update()</text>
<text text-anchor="start" x="530" y="-461.4" font-family="Helvetica,sans-Serif" font-size="9.00">&#45; createPathLiteral()</text>
<text text-anchor="start" x="530" y="-448.4" font-family="Helvetica,sans-Serif" font-size="9.00">&#45; getLiteralIterator()</text>
<text text-anchor="start" x="530" y="-435.4" font-family="Helvetica,sans-Serif" font-size="9.00">&#45; splitLiteralPath()</text>
</a>
</g>
<!-- Node6&#45;&gt;Node7 -->
<g id="edge18" class="edge"><title>Node6&#45;&gt;Node7</title>
<path fill="none" stroke="#404040" d="M561.951,-982.76C566.302,-960.9 570.656,-939.022 574.93,-917.551"/>
<polygon fill="none" stroke="#404040" points="574.953,-917.436 572.201,-910.77 577.296,-905.667 580.047,-912.332 574.953,-917.436"/>
<text text-anchor="middle" x="617" y="-955.4" font-family="Helvetica,sans-Serif" font-size="9.00"> &#45;c_beliefbasebind</text>
<text text-anchor="middle" x="617" y="-942.4" font-family="Helvetica,sans-Serif" font-size="9.00">&#45;c_beliefbasemessage</text>
<text text-anchor="middle" x="617" y="-929.4" font-family="Helvetica,sans-Serif" font-size="9.00">&#45;c_beliefbaseroot</text>
</g>
<!-- Node7&#45;&gt;Node1 -->
<g id="edge16" class="edge"><title>Node7&#45;&gt;Node1</title>
<path fill="none" stroke="#404040" d="M534.235,-426.3C529.255,-413.148 524.276,-399.998 519.358,-387.011"/>
<polygon fill="none" stroke="#404040" points="519.303,-386.866 513.437,-382.672 515.054,-375.644 520.919,-379.839 519.303,-386.866"/>
<text text-anchor="middle" x="554.5" y="-399.4" font-family="Helvetica,sans-Serif" font-size="9.00"> &#45;m_beliefbase</text>
</g>
<!-- Node8 -->
<g id="node17" class="node"><title>Node8</title>
<a xlink:href="../../d1/d09/a00077.htm" target="_top" xlink:title="beliefbase mask that represent the Jason beliefbase ">
<polygon fill="none" stroke="black" points="649,-1243 649,-1345 855,-1345 855,-1243 649,-1243"/>
<text text-anchor="start" x="657" y="-1332.9" font-family="Helvetica,sans-Serif" font-size="9.00">de.tu_clausthal.in.mec.object.mas.jason.belief.</text>
<text text-anchor="middle" x="752" y="-1319.9" font-family="Helvetica,sans-Serif" font-size="9.00">CMask</text>
<polyline fill="none" stroke="black" points="649,-1311 855,-1311 "/>
<text text-anchor="start" x="657" y="-1298.9" font-family="Helvetica,sans-Serif" font-size="9.00">&#45; m_separator</text>
<polyline fill="none" stroke="black" points="649,-1290 855,-1290 "/>
<text text-anchor="start" x="657" y="-1277.9" font-family="Helvetica,sans-Serif" font-size="9.00">+ CMask()</text>
<text text-anchor="start" x="657" y="-1264.9" font-family="Helvetica,sans-Serif" font-size="9.00">+ CMask()</text>
<text text-anchor="start" x="657" y="-1251.9" font-family="Helvetica,sans-Serif" font-size="9.00">+ clone()</text>
</a>
</g>
<!-- Node8&#45;&gt;Node7 -->
<g id="edge20" class="edge"><title>Node8&#45;&gt;Node7</title>
<path fill="none" stroke="#404040" d="M741.661,-1242.87C727.294,-1171.83 700.3,-1038.35 675.895,-917.668"/>
<polygon fill="none" stroke="#404040" points="675.844,-917.419 670.734,-912.331 673.466,-905.657 678.576,-910.745 675.844,-917.419"/>
<text text-anchor="middle" x="705" y="-942.4" font-family="Helvetica,sans-Serif" font-size="9.00"> &#45;m_mask</text>
</g>
<!-- Node9 -->
<g id="node19" class="node"><title>Node9</title>
<a xlink:href="../../df/d5d/a00084.htm" target="_top" xlink:title="action to invoke any method on an object ">
<polygon fill="none" stroke="black" points="745.5,-589 745.5,-743 954.5,-743 954.5,-589 745.5,-589"/>
<text text-anchor="start" x="753.5" y="-730.9" font-family="Helvetica,sans-Serif" font-size="9.00">de.tu_clausthal.in.mec.object.mas.jason.action.</text>
<text text-anchor="middle" x="850" y="-717.9" font-family="Helvetica,sans-Serif" font-size="9.00">CMethodBind</text>
<polyline fill="none" stroke="black" points="745.5,-709 954.5,-709 "/>
<text text-anchor="start" x="753.5" y="-696.9" font-family="Helvetica,sans-Serif" font-size="9.00">&#45; c_returnannotation</text>
<polyline fill="none" stroke="black" points="745.5,-688 954.5,-688 "/>
<text text-anchor="start" x="753.5" y="-675.9" font-family="Helvetica,sans-Serif" font-size="9.00">+ CMethodBind()</text>
<text text-anchor="start" x="753.5" y="-662.9" font-family="Helvetica,sans-Serif" font-size="9.00">+ CMethodBind()</text>
<text text-anchor="start" x="753.5" y="-649.9" font-family="Helvetica,sans-Serif" font-size="9.00">+ act()</text>
<text text-anchor="start" x="753.5" y="-636.9" font-family="Helvetica,sans-Serif" font-size="9.00">&#45; convertTermListToClassArray()</text>
<text text-anchor="start" x="753.5" y="-623.9" font-family="Helvetica,sans-Serif" font-size="9.00">&#45; convertTermListToClassArray()</text>
<text text-anchor="start" x="753.5" y="-610.9" font-family="Helvetica,sans-Serif" font-size="9.00">&#45; convertTermToClass()</text>
<text text-anchor="start" x="753.5" y="-597.9" font-family="Helvetica,sans-Serif" font-size="9.00">&#45; decodeMethodSignature()</text>
</a>
</g>
<!-- Node9&#45;&gt;Node1 -->
<g id="edge22" class="edge"><title>Node9&#45;&gt;Node1</title>
<path fill="none" stroke="#404040" d="M823.927,-588.917C804.768,-539.253 775.402,-475.042 737,-426 683.417,-357.572 606.72,-296.171 545.236,-252.879"/>
<polygon fill="none" stroke="#404040" points="544.958,-252.685 537.748,-252.532 535.116,-245.819 542.326,-245.971 544.958,-252.685"/>
<text text-anchor="middle" x="751.5" y="-399.4" font-family="Helvetica,sans-Serif" font-size="9.00"> &#45;m_methodbind</text>
</g>
</g>
</svg>
        <g id="navigator" transform="translate(0 0)" fill="#404254">
                <rect fill="#f2f5e9" fill-opacity="0.5" stroke="#606060" stroke-width=".5" x="0" y="0" width="60" height="60"/>
                <use id="zoomplus" xlink:href="#zoomPlus" x="17" y="9" onmousedown="handleZoom(evt,'in')"/>
                <use id="zoomminus" xlink:href="#zoomMin" x="42" y="9" onmousedown="handleZoom(evt,'out')"/>
                <use id="reset" xlink:href="#resetDef" x="30" y="36" onmousedown="handleReset()"/>
                <g id="arrowUp" xlink:href="#dirArrow" transform="translate(30 24)" onmousedown="handlePan(0,-1)">
                  <use xlink:href="#rim" fill="#404040">
                        <set attributeName="fill" to="#808080" begin="arrowUp.mouseover" end="arrowUp.mouseout"/>
                  </use>
                  <path fill="none" stroke="white" stroke-width="1.5" d="M0,-3.0v7 M-2.5,-0.5L0,-3.0L2.5,-0.5"/>
                </g>
                <g id="arrowRight" xlink:href="#dirArrow" transform="rotate(90) translate(36 -43)" onmousedown="handlePan(1,0)">
                  <use xlink:href="#rim" fill="#404040">
                        <set attributeName="fill" to="#808080" begin="arrowRight.mouseover" end="arrowRight.mouseout"/>
                  </use>
                  <path fill="none" stroke="white" stroke-width="1.5" d="M0,-3.0v7 M-2.5,-0.5L0,-3.0L2.5,-0.5"/>
                </g>
                <g id="arrowDown" xlink:href="#dirArrow" transform="rotate(180) translate(-30 -48)" onmousedown="handlePan(0,1)">
                  <use xlink:href="#rim" fill="#404040">
                        <set attributeName="fill" to="#808080" begin="arrowDown.mouseover" end="arrowDown.mouseout"/>
                  </use>
                  <path fill="none" stroke="white" stroke-width="1.5" d="M0,-3.0v7 M-2.5,-0.5L0,-3.0L2.5,-0.5"/>
                </g>
                <g id="arrowLeft" xlink:href="#dirArrow" transform="rotate(270) translate(-36 17)" onmousedown="handlePan(-1,0)">
                  <use xlink:href="#rim" fill="#404040">
                        <set attributeName="fill" to="#808080" begin="arrowLeft.mouseover" end="arrowLeft.mouseout"/>
                  </use>
                  <path fill="none" stroke="white" stroke-width="1.5" d="M0,-3.0v7 M-2.5,-0.5L0,-3.0L2.5,-0.5"/>
                </g>
        </g>
        <svg viewBox="0 0 15 15" width="100%" height="30px" preserveAspectRatio="xMaxYMin meet">
         <g id="arrow_out" transform="scale(0.3 0.3)">
          <a xlink:href="a00678_org.svg" target="_base">
           <rect id="button" ry="5" rx="5" y="6" x="6" height="38" width="38"
                fill="#f2f5e9" fill-opacity="0.5" stroke="#606060" stroke-width="1.0"/>
           <path id="arrow"
             d="M 11.500037,31.436501 C 11.940474,20.09759 22.043105,11.32322 32.158766,21.979434 L 37.068811,17.246167 C 37.068811,17.246167 37.088388,32 37.088388,32 L 22.160133,31.978069 C 22.160133,31.978069 26.997745,27.140456 26.997745,27.140456 C 18.528582,18.264221 13.291696,25.230495 11.500037,31.436501 z"
             style="fill:#404040;"/>
          </a>
         </g>
        </svg>
</svg>
