<?xml version="1.0" encoding="UTF-8" standalone="no"?>
<!DOCTYPE svg PUBLIC "-//W3C//DTD SVG 1.1//EN"
 "http://www.w3.org/Graphics/SVG/1.1/DTD/svg11.dtd">
<!-- Generated by graphviz version 2.26.3 (20100126.1600)
 -->
<!-- Title: de.tu_clausthal.in.mec.ui.CUI.add Pages: 1 -->
<svg width="284pt" height="42pt"
 viewBox="0.00 0.00 284.00 42.00" xmlns="http://www.w3.org/2000/svg" xmlns:xlink="http://www.w3.org/1999/xlink">
<g id="graph1" class="graph" transform="scale(1 1) rotate(0) translate(4 38)">
<title>de.tu_clausthal.in.mec.ui.CUI.add</title>
<!-- Node1 -->
<g id="node1" class="node"><title>Node1</title>
<polygon fill="#bfbfbf" stroke="black" points="0,-0 0,-34 120,-34 120,-0 0,-0"/>
<text text-anchor="start" x="8" y="-21.9" font-family="Helvetica,sans-Serif" font-size="9.00">de.tu_clausthal.in.mec.ui.</text>
<text text-anchor="middle" x="60" y="-8.9" font-family="Helvetica,sans-Serif" font-size="9.00">CUI.add</text>
</g>
<!-- Node2 -->
<g id="node3" class="node"><title>Node2</title>
<a xlink:href="../../df/d6a/a00119.htm#ad2e1136604bf94baedc7a784d9f2a4ef" target="_top" xlink:title="creates a new tab &#45; adds the tab to the global tab pane ">
<polygon fill="none" stroke="black" points="156,-0 156,-34 276,-34 276,-0 156,-0"/>
<text text-anchor="start" x="164" y="-21.9" font-family="Helvetica,sans-Serif" font-size="9.00">de.tu_clausthal.in.mec.ui.</text>
<text text-anchor="middle" x="216" y="-8.9" font-family="Helvetica,sans-Serif" font-size="9.00">CUI.createTab</text>
</a>
</g>
<!-- Node1&#45;&gt;Node2 -->
<g id="edge2" class="edge"><title>Node1&#45;&gt;Node2</title>
<path fill="none" stroke="midnightblue" d="M130.538,-10.2775C138.99,-10.215 147.56,-10.259 155.847,-10.4096"/>
<polygon fill="midnightblue" stroke="midnightblue" points="130.269,-6.78056 120.314,-10.4067 130.357,-13.78 130.269,-6.78056"/>
</g>
<!-- Node2&#45;&gt;Node1 -->
<g id="edge4" class="edge"><title>Node2&#45;&gt;Node1</title>
<path fill="none" stroke="midnightblue" d="M145.626,-23.7212C137.175,-23.7852 128.604,-23.7425 120.314,-23.5933"/>
<polygon fill="midnightblue" stroke="midnightblue" points="145.892,-27.2182 155.847,-23.5904 145.803,-20.2188 145.892,-27.2182"/>
</g>
</g>
</svg>
