<?xml version="1.0" encoding="UTF-8" standalone="no"?>
<!DOCTYPE svg PUBLIC "-//W3C//DTD SVG 1.1//EN"
 "http://www.w3.org/Graphics/SVG/1.1/DTD/svg11.dtd">
<!-- Generated by graphviz version 2.26.3 (20100126.1600)
 -->
<!-- Title: de.tu_clausthal.in.mec.ui.CUI.add Pages: 1 -->
<svg width="284pt" height="42pt"
 viewBox="0.00 0.00 284.00 42.00" xmlns="http://www.w3.org/2000/svg" xmlns:xlink="http://www.w3.org/1999/xlink">
<g id="graph1" class="graph" transform="scale(1 1) rotate(0) translate(4 38)">
<title>de.tu_clausthal.in.mec.ui.CUI.add</title>
<!-- Node1 -->
<g id="node1" class="node"><title>Node1</title>
<polygon fill="#bfbfbf" stroke="black" points="0,-0 0,-34 120,-34 120,-0 0,-0"/>
<text text-anchor="start" x="8" y="-21.9" font-family="Helvetica,sans-Serif" font-size="9.00">de.tu_clausthal.in.mec.ui.</text>
<text text-anchor="middle" x="60" y="-8.9" font-family="Helvetica,sans-Serif" font-size="9.00">CUI.add</text>
</g>
<!-- Node2 -->
<g id="node3" class="node"><title>Node2</title>
<a xlink:href="../../df/d6a/a00119.htm#ad2e1136604bf94baedc7a784d9f2a4ef" target="_top" xlink:title="creates a new tab &#45; adds the tab to the global tab pane ">
<polygon fill="none" stroke="black" points="156,-0 156,-34 276,-34 276,-0 156,-0"/>
<text text-anchor="start" x="164" y="-21.9" font-family="Helvetica,sans-Serif" font-size="9.00">de.tu_clausthal.in.mec.ui.</text>
<text text-anchor="middle" x="216" y="-8.9" font-family="Helvetica,sans-Serif" font-size="9.00">CUI.createTab</text>
</a>
</g>
<!-- Node1&#45;&gt;Node2 -->
<g id="edge2" class="edge"><title>Node1&#45;&gt;Node2</title>
<path fill="none" stroke="midnightblue" d="M120.314,-10.4067C128.604,-10.2575 137.175,-10.2148 145.626,-10.2788"/>
<polygon fill="midnightblue" stroke="midnightblue" points="145.803,-13.7812 155.847,-10.4096 145.892,-6.78179 145.803,-13.7812"/>
</g>
<!-- Node2&#45;&gt;Node1 -->
<g id="edge4" class="edge"><title>Node2&#45;&gt;Node1</title>
<path fill="none" stroke="midnightblue" d="M155.847,-23.5904C147.56,-23.741 138.99,-23.785 130.538,-23.7225"/>
<polygon fill="midnightblue" stroke="midnightblue" points="130.357,-20.22 120.314,-23.5933 130.269,-27.2194 130.357,-20.22"/>
</g>
</g>
</svg>
