<?xml version="1.0" encoding="UTF-8" standalone="no"?>
<!DOCTYPE svg PUBLIC "-//W3C//DTD SVG 1.1//EN"
 "http://www.w3.org/Graphics/SVG/1.1/DTD/svg11.dtd">
<!-- Generated by graphviz version 2.26.3 (20100126.1600)
 -->
<!-- Title: de.tu_clausthal.in.mec.ui.CAgentEnvironment Pages: 1 -->
<svg width="164pt" height="318pt"
 viewBox="0.00 0.00 164.00 318.00" xmlns="http://www.w3.org/2000/svg" xmlns:xlink="http://www.w3.org/1999/xlink">
<g id="graph1" class="graph" transform="scale(1 1) rotate(0) translate(4 314)">
<title>de.tu_clausthal.in.mec.ui.CAgentEnvironment</title>
<!-- Node1 -->
<g id="node1" class="node"><title>Node1</title>
<polygon fill="#bfbfbf" stroke="black" points="18,-1 18,-181 138,-181 138,-1 18,-1"/>
<text text-anchor="start" x="26" y="-168.9" font-family="Helvetica,sans-Serif" font-size="9.00">de.tu_clausthal.in.mec.ui.</text>
<text text-anchor="middle" x="78" y="-155.9" font-family="Helvetica,sans-Serif" font-size="9.00">CAgentEnvironment</text>
<polyline fill="none" stroke="black" points="18,-147 138,-147 "/>
<text text-anchor="start" x="26" y="-134.9" font-family="Helvetica,sans-Serif" font-size="9.00">&#45; m_baseuri</text>
<polyline fill="none" stroke="black" points="18,-126 138,-126 "/>
<text text-anchor="start" x="26" y="-113.9" font-family="Helvetica,sans-Serif" font-size="9.00">+ CAgentEnvironment()</text>
<text text-anchor="start" x="26" y="-100.9" font-family="Helvetica,sans-Serif" font-size="9.00">&#45; getAgentName()</text>
<text text-anchor="start" x="26" y="-87.9" font-family="Helvetica,sans-Serif" font-size="9.00">&#45; web_static_check()</text>
<text text-anchor="start" x="26" y="-74.9" font-family="Helvetica,sans-Serif" font-size="9.00">&#45; web_static_create()</text>
<text text-anchor="start" x="26" y="-61.9" font-family="Helvetica,sans-Serif" font-size="9.00">&#45; web_static_list()</text>
<text text-anchor="start" x="26" y="-48.9" font-family="Helvetica,sans-Serif" font-size="9.00">&#45; web_static_read()</text>
<text text-anchor="start" x="26" y="-35.9" font-family="Helvetica,sans-Serif" font-size="9.00">&#45; web_static_remove()</text>
<text text-anchor="start" x="26" y="-22.9" font-family="Helvetica,sans-Serif" font-size="9.00">&#45; web_static_write()</text>
<text text-anchor="start" x="26" y="-9.9" font-family="Helvetica,sans-Serif" font-size="9.00">&#45; web_uribase()</text>
</g>
<!-- Node2 -->
<g id="node2" class="node"><title>Node2</title>
<a xlink:href="../../de/d76/a00134.htm#d7/d00/a00401" target="_top" xlink:title="enum type of MAS languages ">
<polygon fill="none" stroke="black" points="-0.5,-233 -0.5,-309 156.5,-309 156.5,-233 -0.5,-233"/>
<text text-anchor="start" x="7.5" y="-296.9" font-family="Helvetica,sans-Serif" font-size="9.00">de.tu_clausthal.in.mec.object.mas.</text>
<text text-anchor="middle" x="78" y="-283.9" font-family="Helvetica,sans-Serif" font-size="9.00">EAgentLanguages</text>
<polyline fill="none" stroke="black" points="-0.5,-275 156.5,-275 "/>
<text text-anchor="start" x="7.5" y="-262.9" font-family="Helvetica,sans-Serif" font-size="9.00">+ Jason</text>
<polyline fill="none" stroke="black" points="-0.5,-254 156.5,-254 "/>
<text text-anchor="middle" x="78" y="-241.9" font-family="Helvetica,sans-Serif" font-size="9.00"> </text>
</a>
</g>
<!-- Node2&#45;&gt;Node1 -->
<g id="edge2" class="edge"><title>Node2&#45;&gt;Node1</title>
<path fill="none" stroke="#404040" d="M78,-232.827C78,-221.094 78,-207.578 78,-193.649"/>
<polygon fill="none" stroke="#404040" points="78.0001,-193.338 74,-187.338 78,-181.338 82,-187.338 78.0001,-193.338"/>
<text text-anchor="middle" x="96" y="-205.4" font-family="Helvetica,sans-Serif" font-size="9.00"> &#45;m_type</text>
</g>
</g>
</svg>
