<?xml version="1.0" encoding="UTF-8" standalone="no"?>
<!DOCTYPE svg PUBLIC "-//W3C//DTD SVG 1.1//EN"
 "http://www.w3.org/Graphics/SVG/1.1/DTD/svg11.dtd">
<!-- Generated by graphviz version 2.26.3 (20100126.1600)
 -->
<!-- Title: de.tu_clausthal.in.mec.object.mas.generic.implementation.IMethodBind&lt; N, M &gt; Pages: 1 -->
<svg width="262pt" height="394pt"
 viewBox="0.00 0.00 262.00 394.00" xmlns="http://www.w3.org/2000/svg" xmlns:xlink="http://www.w3.org/1999/xlink">
<g id="graph1" class="graph" transform="scale(1 1) rotate(0) translate(4 390)">
<title>de.tu_clausthal.in.mec.object.mas.generic.implementation.IMethodBind&lt; N, M &gt;</title>
<!-- Node1 -->
<g id="node1" class="node"><title>Node1</title>
<polygon fill="#bfbfbf" stroke="black" points="-0.5,-0.5 -0.5,-141.5 254.5,-141.5 254.5,-0.5 -0.5,-0.5"/>
<text text-anchor="start" x="7.5" y="-129.4" font-family="Helvetica,sans-Serif" font-size="9.00">de.tu_clausthal.in.mec.object.mas.generic.implementation.</text>
<text text-anchor="middle" x="127" y="-116.4" font-family="Helvetica,sans-Serif" font-size="9.00">IMethodBind&lt; N, M &gt;</text>
<polyline fill="none" stroke="black" points="-0.5,-107.5 254.5,-107.5 "/>
<text text-anchor="start" x="7.5" y="-95.4" font-family="Helvetica,sans-Serif" font-size="9.00"># m_bind</text>
<polyline fill="none" stroke="black" points="-0.5,-86.5 254.5,-86.5 "/>
<text text-anchor="start" x="7.5" y="-74.4" font-family="Helvetica,sans-Serif" font-size="9.00">+ IMethodBind()</text>
<text text-anchor="start" x="7.5" y="-61.4" font-family="Helvetica,sans-Serif" font-size="9.00">+ IMethodBind()</text>
<text text-anchor="start" x="7.5" y="-48.4" font-family="Helvetica,sans-Serif" font-size="9.00">+ getName()</text>
<text text-anchor="start" x="7.5" y="-35.4" font-family="Helvetica,sans-Serif" font-size="9.00">+ push()</text>
<text text-anchor="start" x="7.5" y="-22.4" font-family="Helvetica,sans-Serif" font-size="9.00">+ remove()</text>
<text text-anchor="start" x="7.5" y="-9.4" font-family="Helvetica,sans-Serif" font-size="9.00"># invokeMethod()</text>
</g>
<!-- Node2 -->
<g id="node2" class="node"><title>Node2</title>
<a xlink:href="../../da/d2a/a00086.htm" target="_top" xlink:title="class to filter methods * ">
<polygon fill="none" stroke="black" points="48.5,-193 48.5,-269 205.5,-269 205.5,-193 48.5,-193"/>
<text text-anchor="start" x="56.5" y="-256.9" font-family="Helvetica,sans-Serif" font-size="9.00">de.tu_clausthal.in.mec.object.mas.</text>
<text text-anchor="middle" x="127" y="-243.9" font-family="Helvetica,sans-Serif" font-size="9.00">CMethodFilter</text>
<polyline fill="none" stroke="black" points="48.5,-235 205.5,-235 "/>
<text text-anchor="middle" x="127" y="-222.9" font-family="Helvetica,sans-Serif" font-size="9.00"> </text>
<polyline fill="none" stroke="black" points="48.5,-214 205.5,-214 "/>
<text text-anchor="start" x="56.5" y="-201.9" font-family="Helvetica,sans-Serif" font-size="9.00">+ filter()</text>
</a>
</g>
<!-- Node2&#45;&gt;Node1 -->
<g id="edge2" class="edge"><title>Node2&#45;&gt;Node1</title>
<path fill="none" stroke="#404040" d="M127,-192.676C127,-180.926 127,-167.512 127,-153.984"/>
<polygon fill="none" stroke="#404040" points="127,-153.573 123,-147.573 127,-141.573 131,-147.573 127,-153.573"/>
<text text-anchor="middle" x="143.5" y="-165.4" font-family="Helvetica,sans-Serif" font-size="9.00"> &#45;c_filter</text>
</g>
<!-- Node3 -->
<g id="node4" class="node"><title>Node3</title>
<a xlink:href="../../d6/dfb/a00172.htm" target="_top" xlink:title="interface of method filtering ">
<polygon fill="none" stroke="black" points="53,-309 53,-385 201,-385 201,-309 53,-309"/>
<text text-anchor="start" x="61" y="-372.9" font-family="Helvetica,sans-Serif" font-size="9.00">de.tu_clausthal.in.mec.common.</text>
<text text-anchor="middle" x="127" y="-359.9" font-family="Helvetica,sans-Serif" font-size="9.00">CReflection.IMethodFilter</text>
<polyline fill="none" stroke="black" points="53,-351 201,-351 "/>
<text text-anchor="middle" x="127" y="-338.9" font-family="Helvetica,sans-Serif" font-size="9.00"> </text>
<polyline fill="none" stroke="black" points="53,-330 201,-330 "/>
<text text-anchor="start" x="61" y="-317.9" font-family="Helvetica,sans-Serif" font-size="9.00">+ filter()</text>
</a>
</g>
<!-- Node3&#45;&gt;Node2 -->
<g id="edge4" class="edge"><title>Node3&#45;&gt;Node2</title>
<path fill="none" stroke="midnightblue" d="M127,-298.661C127,-288.853 127,-278.666 127,-269.264"/>
<polygon fill="none" stroke="midnightblue" points="123.5,-298.696 127,-308.696 130.5,-298.696 123.5,-298.696"/>
</g>
</g>
</svg>
