<?xml version="1.0" encoding="UTF-8" standalone="no"?>
<!DOCTYPE svg PUBLIC "-//W3C//DTD SVG 1.1//EN"
 "http://www.w3.org/Graphics/SVG/1.1/DTD/svg11.dtd">
<!-- Generated by graphviz version 2.26.3 (20100126.1600)
 -->
<!-- Title: de.tu_clausthal.in.mec.object.mas.jason.belief.CTreeBeliefBase.splitLiteralPath Pages: 1 -->
<svg width="582pt" height="132pt"
 viewBox="0.00 0.00 582.00 132.00" xmlns="http://www.w3.org/2000/svg" xmlns:xlink="http://www.w3.org/1999/xlink">
<g id="graph1" class="graph" transform="scale(1 1) rotate(0) translate(4 128)">
<title>de.tu_clausthal.in.mec.object.mas.jason.belief.CTreeBeliefBase.splitLiteralPath</title>
<!-- Node1 -->
<g id="node1" class="node"><title>Node1</title>
<polygon fill="#bfbfbf" stroke="black" points="0,-45 0,-79 206,-79 206,-45 0,-45"/>
<text text-anchor="start" x="8" y="-66.9" font-family="Helvetica,sans-Serif" font-size="9.00">de.tu_clausthal.in.mec.object.mas.jason.belief.</text>
<text text-anchor="middle" x="103" y="-53.9" font-family="Helvetica,sans-Serif" font-size="9.00">CTreeBeliefBase.splitLiteralPath</text>
</g>
<!-- Node2 -->
<g id="node3" class="node"><title>Node2</title>
<a xlink:href="../../dc/d54/a00094.htm#ab6eb1665074e9365b8972c89d78aa546" target="_top" xlink:title="removes an element ">
<polygon fill="none" stroke="black" points="242,-90 242,-124 390,-124 390,-90 242,-90"/>
<text text-anchor="start" x="250" y="-111.9" font-family="Helvetica,sans-Serif" font-size="9.00">de.tu_clausthal.in.mec.common.</text>
<text text-anchor="middle" x="316" y="-98.9" font-family="Helvetica,sans-Serif" font-size="9.00">CPath.remove</text>
</a>
</g>
<!-- Node1&#45;&gt;Node2 -->
<g id="edge2" class="edge"><title>Node1&#45;&gt;Node2</title>
<path fill="none" stroke="midnightblue" d="M183.526,-79.0126C199.331,-82.3516 215.948,-85.8623 231.868,-89.2256"/>
<polygon fill="midnightblue" stroke="midnightblue" points="231.168,-92.655 241.676,-91.2977 232.615,-85.8062 231.168,-92.655"/>
</g>
<!-- Node3 -->
<g id="node5" class="node"><title>Node3</title>
<a xlink:href="../../dc/d54/a00094.htm#a0b3aaaf4c6a7a0db70c11bc25ce949a4" target="_top" xlink:title="returns the number of path elements ">
<polygon fill="none" stroke="black" points="426,-22 426,-56 574,-56 574,-22 426,-22"/>
<text text-anchor="start" x="434" y="-43.9" font-family="Helvetica,sans-Serif" font-size="9.00">de.tu_clausthal.in.mec.common.</text>
<text text-anchor="middle" x="500" y="-30.9" font-family="Helvetica,sans-Serif" font-size="9.00">CPath.size</text>
</a>
</g>
<!-- Node1&#45;&gt;Node3 -->
<g id="edge4" class="edge"><title>Node1&#45;&gt;Node3</title>
<path fill="none" stroke="midnightblue" d="M206.012,-56.032C271.301,-52.2496 354.682,-47.4189 415.959,-43.8689"/>
<polygon fill="midnightblue" stroke="midnightblue" points="416.199,-47.3609 425.98,-43.2883 415.794,-40.3726 416.199,-47.3609"/>
</g>
<!-- Node4 -->
<g id="node7" class="node"><title>Node4</title>
<a xlink:href="../../dc/d54/a00094.htm#acd573437f8aba9e5a1a92a0723a09f3f" target="_top" xlink:title="check of a path starts with another path ">
<polygon fill="none" stroke="black" points="242,-0 242,-34 390,-34 390,-0 242,-0"/>
<text text-anchor="start" x="250" y="-21.9" font-family="Helvetica,sans-Serif" font-size="9.00">de.tu_clausthal.in.mec.common.</text>
<text text-anchor="middle" x="316" y="-8.9" font-family="Helvetica,sans-Serif" font-size="9.00">CPath.startsWith</text>
</a>
</g>
<!-- Node1&#45;&gt;Node4 -->
<g id="edge6" class="edge"><title>Node1&#45;&gt;Node4</title>
<path fill="none" stroke="midnightblue" d="M183.526,-44.9874C199.331,-41.6484 215.948,-38.1377 231.868,-34.7744"/>
<polygon fill="midnightblue" stroke="midnightblue" points="232.615,-38.1938 241.676,-32.7023 231.168,-31.345 232.615,-38.1938"/>
</g>
<!-- Node4&#45;&gt;Node3 -->
<g id="edge8" class="edge"><title>Node4&#45;&gt;Node3</title>
<path fill="none" stroke="midnightblue" d="M390.044,-25.8531C398.514,-26.8658 407.195,-27.9037 415.784,-28.9307"/>
<polygon fill="midnightblue" stroke="midnightblue" points="415.463,-32.4171 425.808,-30.1292 416.294,-25.4666 415.463,-32.4171"/>
</g>
</g>
</svg>
