<?xml version="1.0" encoding="UTF-8" standalone="no"?>
<!DOCTYPE svg PUBLIC "-//W3C//DTD SVG 1.1//EN"
 "http://www.w3.org/Graphics/SVG/1.1/DTD/svg11.dtd">
<!-- Generated by graphviz version 2.26.3 (20100126.1600)
 -->
<!-- Title: de.tu_clausthal.in.mec.object.waypoint.generator.IGenerator Pages: 1 -->
<svg width="698pt" height="378pt"
 viewBox="0.00 0.00 698.00 378.00" xmlns="http://www.w3.org/2000/svg" xmlns:xlink="http://www.w3.org/1999/xlink">
<g id="graph1" class="graph" transform="scale(1 1) rotate(0) translate(4 374)">
<title>de.tu_clausthal.in.mec.object.waypoint.generator.IGenerator</title>
<!-- Node1 -->
<g id="node1" class="node"><title>Node1</title>
<polygon fill="#bfbfbf" stroke="black" points="236,-179 236,-255 454,-255 454,-179 236,-179"/>
<text text-anchor="start" x="244" y="-242.9" font-family="Helvetica,sans-Serif" font-size="9.00">de.tu_clausthal.in.mec.object.waypoint.generator.</text>
<text text-anchor="middle" x="345" y="-229.9" font-family="Helvetica,sans-Serif" font-size="9.00">IGenerator</text>
<polyline fill="none" stroke="black" points="236,-221 454,-221 "/>
<text text-anchor="middle" x="345" y="-208.9" font-family="Helvetica,sans-Serif" font-size="9.00"> </text>
<polyline fill="none" stroke="black" points="236,-200 454,-200 "/>
<text text-anchor="start" x="244" y="-187.9" font-family="Helvetica,sans-Serif" font-size="9.00">+ getCount()</text>
</g>
<!-- Node3 -->
<g id="node5" class="node"><title>Node3</title>
<a xlink:href="../../d5/db6/a00042.htm" target="_top" xlink:title="generates a fixed number of cars ">
<polygon fill="none" stroke="black" points="0,-0.5 0,-141.5 218,-141.5 218,-0.5 0,-0.5"/>
<text text-anchor="start" x="8" y="-129.4" font-family="Helvetica,sans-Serif" font-size="9.00">de.tu_clausthal.in.mec.object.waypoint.generator.</text>
<text text-anchor="middle" x="109" y="-116.4" font-family="Helvetica,sans-Serif" font-size="9.00">CConstant</text>
<polyline fill="none" stroke="black" points="0,-107.5 218,-107.5 "/>
<text text-anchor="start" x="8" y="-95.4" font-family="Helvetica,sans-Serif" font-size="9.00">&#45; m_endstep</text>
<text text-anchor="start" x="8" y="-82.4" font-family="Helvetica,sans-Serif" font-size="9.00">&#45; m_inspect</text>
<text text-anchor="start" x="8" y="-69.4" font-family="Helvetica,sans-Serif" font-size="9.00">&#45; m_startstep</text>
<text text-anchor="start" x="8" y="-56.4" font-family="Helvetica,sans-Serif" font-size="9.00">&#45; m_stepobjects</text>
<polyline fill="none" stroke="black" points="0,-47.5 218,-47.5 "/>
<text text-anchor="start" x="8" y="-35.4" font-family="Helvetica,sans-Serif" font-size="9.00">+ CConstant()</text>
<text text-anchor="start" x="8" y="-22.4" font-family="Helvetica,sans-Serif" font-size="9.00">+ getCount()</text>
<text text-anchor="start" x="8" y="-9.4" font-family="Helvetica,sans-Serif" font-size="9.00">+ inspect()</text>
</a>
</g>
<!-- Node1&#45;&gt;Node3 -->
<g id="edge4" class="edge"><title>Node1&#45;&gt;Node3</title>
<path fill="none" stroke="midnightblue" d="M274.733,-173.53C256.975,-162.544 237.482,-150.485 218.298,-138.617"/>
<polygon fill="none" stroke="midnightblue" points="272.956,-176.546 283.302,-178.831 276.639,-170.593 272.956,-176.546"/>
</g>
<!-- Node4 -->
<g id="node7" class="node"><title>Node4</title>
<a xlink:href="../../dd/d6d/a00111.htm" target="_top" xlink:title="generator of a static number of objects with a time&#45;exponential function ">
<polygon fill="none" stroke="black" points="236,-7 236,-135 454,-135 454,-7 236,-7"/>
<text text-anchor="start" x="244" y="-122.9" font-family="Helvetica,sans-Serif" font-size="9.00">de.tu_clausthal.in.mec.object.waypoint.generator.</text>
<text text-anchor="middle" x="345" y="-109.9" font-family="Helvetica,sans-Serif" font-size="9.00">CTimeDistribution</text>
<polyline fill="none" stroke="black" points="236,-101 454,-101 "/>
<text text-anchor="start" x="244" y="-88.9" font-family="Helvetica,sans-Serif" font-size="9.00">&#45; m_count</text>
<text text-anchor="start" x="244" y="-75.9" font-family="Helvetica,sans-Serif" font-size="9.00">&#45; m_distribution</text>
<text text-anchor="start" x="244" y="-62.9" font-family="Helvetica,sans-Serif" font-size="9.00">&#45; m_inspect</text>
<polyline fill="none" stroke="black" points="236,-54 454,-54 "/>
<text text-anchor="start" x="244" y="-41.9" font-family="Helvetica,sans-Serif" font-size="9.00">+ CTimeDistribution()</text>
<text text-anchor="start" x="244" y="-28.9" font-family="Helvetica,sans-Serif" font-size="9.00">+ getCount()</text>
<text text-anchor="start" x="244" y="-15.9" font-family="Helvetica,sans-Serif" font-size="9.00">+ inspect()</text>
</a>
</g>
<!-- Node1&#45;&gt;Node4 -->
<g id="edge6" class="edge"><title>Node1&#45;&gt;Node4</title>
<path fill="none" stroke="midnightblue" d="M345,-168.623C345,-157.88 345,-146.332 345,-135.071"/>
<polygon fill="none" stroke="midnightblue" points="341.5,-168.64 345,-178.64 348.5,-168.64 341.5,-168.64"/>
</g>
<!-- Node5 -->
<g id="node9" class="node"><title>Node5</title>
<a xlink:href="../../db/d57/a00112.htm" target="_top" xlink:title="profile generator to define a fixed histogram on the time steps ">
<polygon fill="none" stroke="black" points="472,-13.5 472,-128.5 690,-128.5 690,-13.5 472,-13.5"/>
<text text-anchor="start" x="480" y="-116.4" font-family="Helvetica,sans-Serif" font-size="9.00">de.tu_clausthal.in.mec.object.waypoint.generator.</text>
<text text-anchor="middle" x="581" y="-103.4" font-family="Helvetica,sans-Serif" font-size="9.00">CTimeProfile</text>
<polyline fill="none" stroke="black" points="472,-94.5 690,-94.5 "/>
<text text-anchor="start" x="480" y="-82.4" font-family="Helvetica,sans-Serif" font-size="9.00">~ m_histogram</text>
<text text-anchor="start" x="480" y="-69.4" font-family="Helvetica,sans-Serif" font-size="9.00">&#45; m_inspect</text>
<polyline fill="none" stroke="black" points="472,-60.5 690,-60.5 "/>
<text text-anchor="start" x="480" y="-48.4" font-family="Helvetica,sans-Serif" font-size="9.00">+ CTimeProfile()</text>
<text text-anchor="start" x="480" y="-35.4" font-family="Helvetica,sans-Serif" font-size="9.00">+ getCount()</text>
<text text-anchor="start" x="480" y="-22.4" font-family="Helvetica,sans-Serif" font-size="9.00">+ inspect()</text>
</a>
</g>
<!-- Node1&#45;&gt;Node5 -->
<g id="edge8" class="edge"><title>Node1&#45;&gt;Node5</title>
<path fill="none" stroke="midnightblue" d="M415.256,-173.537C437.97,-159.485 463.524,-143.676 487.64,-128.757"/>
<polygon fill="none" stroke="midnightblue" points="413.361,-170.593 406.698,-178.831 417.044,-176.546 413.361,-170.593"/>
</g>
<!-- Node2 -->
<g id="node2" class="node"><title>Node2</title>
<a xlink:href="../../d9/d38/a00166.htm" target="_top" xlink:title="global interface to read information about a simulation object ">
<polygon fill="none" stroke="black" points="285,-293 285,-369 405,-369 405,-293 285,-293"/>
<text text-anchor="start" x="293" y="-356.9" font-family="Helvetica,sans-Serif" font-size="9.00">de.tu_clausthal.in.mec.ui.</text>
<text text-anchor="middle" x="345" y="-343.9" font-family="Helvetica,sans-Serif" font-size="9.00">IInspector</text>
<polyline fill="none" stroke="black" points="285,-335 405,-335 "/>
<text text-anchor="middle" x="345" y="-322.9" font-family="Helvetica,sans-Serif" font-size="9.00"> </text>
<polyline fill="none" stroke="black" points="285,-314 405,-314 "/>
<text text-anchor="start" x="293" y="-301.9" font-family="Helvetica,sans-Serif" font-size="9.00">+ inspect()</text>
</a>
</g>
<!-- Node2&#45;&gt;Node1 -->
<g id="edge2" class="edge"><title>Node2&#45;&gt;Node1</title>
<path fill="none" stroke="midnightblue" d="M345,-282.623C345,-273.52 345,-264.117 345,-255.371"/>
<polygon fill="none" stroke="midnightblue" points="341.5,-282.722 345,-292.723 348.5,-282.723 341.5,-282.722"/>
</g>
</g>
</svg>
