<?xml version="1.0" encoding="UTF-8" standalone="no"?>
<!DOCTYPE svg PUBLIC "-//W3C//DTD SVG 1.1//EN"
 "http://www.w3.org/Graphics/SVG/1.1/DTD/svg11.dtd">
<!-- Generated by graphviz version 2.26.3 (20100126.1600)
 -->
<!-- Title: de.tu_clausthal.in.mec.object.mas.jason.belief.CLiteral.clone Pages: 1 -->
<svg width="640pt" height="94pt"
 viewBox="0.00 0.00 640.00 94.00" xmlns="http://www.w3.org/2000/svg" xmlns:xlink="http://www.w3.org/1999/xlink">
<g id="graph1" class="graph" transform="scale(1 1) rotate(0) translate(4 90)">
<title>de.tu_clausthal.in.mec.object.mas.jason.belief.CLiteral.clone</title>
<!-- Node1 -->
<g id="node1" class="node"><title>Node1</title>
<polygon fill="#bfbfbf" stroke="black" points="0,-26 0,-60 206,-60 206,-26 0,-26"/>
<text text-anchor="start" x="8" y="-47.9" font-family="Helvetica,sans-Serif" font-size="9.00">de.tu_clausthal.in.mec.object.mas.jason.belief.</text>
<text text-anchor="middle" x="103" y="-34.9" font-family="Helvetica,sans-Serif" font-size="9.00">CLiteral.clone</text>
</g>
<!-- Node2 -->
<g id="node3" class="node"><title>Node2</title>
<a xlink:href="../../dc/d54/a00094.htm#ac1cc82a2cecb8966047c4fab26b0e696" target="_top" xlink:title="appends a path at the current and returns a new object ">
<polygon fill="none" stroke="black" points="271,-52 271,-86 419,-86 419,-52 271,-52"/>
<text text-anchor="start" x="279" y="-73.9" font-family="Helvetica,sans-Serif" font-size="9.00">de.tu_clausthal.in.mec.common.</text>
<text text-anchor="middle" x="345" y="-60.9" font-family="Helvetica,sans-Serif" font-size="9.00">CPath.append</text>
</a>
</g>
<!-- Node1&#45;&gt;Node2 -->
<g id="edge2" class="edge"><title>Node1&#45;&gt;Node2</title>
<path fill="none" stroke="midnightblue" d="M206.332,-54.1018C224.481,-56.0516 243.172,-58.0598 260.724,-59.9455"/>
<polygon fill="midnightblue" stroke="midnightblue" points="260.597,-63.452 270.914,-61.0403 261.345,-56.492 260.597,-63.452"/>
</g>
<!-- Node4 -->
<g id="node7" class="node"><title>Node4</title>
<a xlink:href="../../da/d24/a00068.htm#aeac98199f6ddbb9171461a4d8307fc99" target="_top" xlink:title="ctor for Jason literals ">
<polygon fill="none" stroke="black" points="242,-0 242,-34 448,-34 448,-0 242,-0"/>
<text text-anchor="start" x="250" y="-21.9" font-family="Helvetica,sans-Serif" font-size="9.00">de.tu_clausthal.in.mec.object.mas.jason.belief.</text>
<text text-anchor="middle" x="345" y="-8.9" font-family="Helvetica,sans-Serif" font-size="9.00">CLiteral.CLiteral</text>
</a>
</g>
<!-- Node1&#45;&gt;Node4 -->
<g id="edge6" class="edge"><title>Node1&#45;&gt;Node4</title>
<path fill="none" stroke="midnightblue" d="M206.332,-31.8982C214.643,-31.0053 223.068,-30.1002 231.445,-29.2001"/>
<polygon fill="midnightblue" stroke="midnightblue" points="232.06,-32.6543 241.628,-28.106 231.312,-25.6944 232.06,-32.6543"/>
</g>
<!-- Node3 -->
<g id="node5" class="node"><title>Node3</title>
<a xlink:href="../../dc/d54/a00094.htm#acc1851e52b605a9cab13d2b85c2acb68" target="_top" xlink:title="copy&#45;ctor with arguments ">
<polygon fill="none" stroke="black" points="484,-52 484,-86 632,-86 632,-52 484,-52"/>
<text text-anchor="start" x="492" y="-73.9" font-family="Helvetica,sans-Serif" font-size="9.00">de.tu_clausthal.in.mec.common.</text>
<text text-anchor="middle" x="558" y="-60.9" font-family="Helvetica,sans-Serif" font-size="9.00">CPath.CPath</text>
</a>
</g>
<!-- Node2&#45;&gt;Node3 -->
<g id="edge4" class="edge"><title>Node2&#45;&gt;Node3</title>
<path fill="none" stroke="midnightblue" d="M419.198,-69C436.743,-69 455.58,-69 473.542,-69"/>
<polygon fill="midnightblue" stroke="midnightblue" points="473.707,-72.5001 483.707,-69 473.707,-65.5001 473.707,-72.5001"/>
</g>
</g>
</svg>
