<?xml version="1.0" encoding="UTF-8" standalone="no"?>
<!DOCTYPE svg PUBLIC "-//W3C//DTD SVG 1.1//EN"
 "http://www.w3.org/Graphics/SVG/1.1/DTD/svg11.dtd">
<!-- Generated by graphviz version 2.26.3 (20100126.1600)
 -->
<!-- Title: de.tu_clausthal.in.mec.object.mas.jason.belief.CLiteral.addAdditionals Pages: 1 -->
<svg width="650pt" height="42pt"
 viewBox="0.00 0.00 650.00 42.00" xmlns="http://www.w3.org/2000/svg" xmlns:xlink="http://www.w3.org/1999/xlink">
<g id="graph1" class="graph" transform="scale(1 1) rotate(0) translate(4 38)">
<title>de.tu_clausthal.in.mec.object.mas.jason.belief.CLiteral.addAdditionals</title>
<!-- Node1 -->
<g id="node1" class="node"><title>Node1</title>
<polygon fill="#bfbfbf" stroke="black" points="0,-0 0,-34 206,-34 206,-0 0,-0"/>
<text text-anchor="start" x="8" y="-21.9" font-family="Helvetica,sans-Serif" font-size="9.00">de.tu_clausthal.in.mec.object.mas.jason.belief.</text>
<text text-anchor="middle" x="103" y="-8.9" font-family="Helvetica,sans-Serif" font-size="9.00">CLiteral.addAdditionals</text>
</g>
<!-- Node2 -->
<g id="node3" class="node"><title>Node2</title>
<a xlink:href="../../d8/d41/a00038.htm#a8d2b8fac3c0497ef857ec75bb1978e22" target="_top" xlink:title="converts an atom into a string atom ">
<polygon fill="none" stroke="black" points="242,-0 242,-34 424,-34 424,-0 242,-0"/>
<text text-anchor="start" x="250" y="-21.9" font-family="Helvetica,sans-Serif" font-size="9.00">de.tu_clausthal.in.mec.object.mas.jason.</text>
<text text-anchor="middle" x="333" y="-8.9" font-family="Helvetica,sans-Serif" font-size="9.00">CCommon.convertGeneric</text>
</a>
</g>
<!-- Node1&#45;&gt;Node2 -->
<g id="edge2" class="edge"><title>Node1&#45;&gt;Node2</title>
<path fill="none" stroke="midnightblue" d="M206.226,-17C214.632,-17 223.122,-17 231.514,-17"/>
<polygon fill="midnightblue" stroke="midnightblue" points="231.691,-20.5001 241.691,-17 231.691,-13.5001 231.691,-20.5001"/>
</g>
<!-- Node3 -->
<g id="node5" class="node"><title>Node3</title>
<a xlink:href="../../d8/d41/a00038.htm#a344161224ff36771399a98389761469f" target="_top" xlink:title="Jason creates quoted string, so we need to clean the string to create corrected Java strings...">
<polygon fill="none" stroke="black" points="460,-0 460,-34 642,-34 642,-0 460,-0"/>
<text text-anchor="start" x="468" y="-21.9" font-family="Helvetica,sans-Serif" font-size="9.00">de.tu_clausthal.in.mec.object.mas.jason.</text>
<text text-anchor="middle" x="551" y="-8.9" font-family="Helvetica,sans-Serif" font-size="9.00">CCommon.clearString</text>
</a>
</g>
<!-- Node2&#45;&gt;Node3 -->
<g id="edge4" class="edge"><title>Node2&#45;&gt;Node3</title>
<path fill="none" stroke="midnightblue" d="M424.188,-17C432.566,-17 441.088,-17 449.55,-17"/>
<polygon fill="midnightblue" stroke="midnightblue" points="449.826,-20.5001 459.826,-17 449.826,-13.5001 449.826,-20.5001"/>
</g>
</g>
</svg>
