<?xml version="1.0" encoding="UTF-8" standalone="no"?>
<!DOCTYPE svg PUBLIC "-//W3C//DTD SVG 1.1//EN"
 "http://www.w3.org/Graphics/SVG/1.1/DTD/svg11.dtd">
<!-- Generated by graphviz version 2.26.3 (20100126.1600)
 -->
<!-- Title: de.tu_clausthal.in.mec.runtime.message.IParticipant Pages: 1 -->
<svg width="190pt" height="212pt"
 viewBox="0.00 0.00 190.00 212.00" xmlns="http://www.w3.org/2000/svg" xmlns:xlink="http://www.w3.org/1999/xlink">
<g id="graph1" class="graph" transform="scale(1 1) rotate(0) translate(4 208)">
<title>de.tu_clausthal.in.mec.runtime.message.IParticipant</title>
<!-- Node1 -->
<g id="node1" class="node"><title>Node1</title>
<polygon fill="#bfbfbf" stroke="black" points="-0.5,-1 -0.5,-77 182.5,-77 182.5,-1 -0.5,-1"/>
<text text-anchor="start" x="7.5" y="-64.9" font-family="Helvetica,sans-Serif" font-size="9.00">de.tu_clausthal.in.mec.runtime.message.</text>
<text text-anchor="middle" x="91" y="-51.9" font-family="Helvetica,sans-Serif" font-size="9.00">IParticipant</text>
<polyline fill="none" stroke="black" points="-0.5,-43 182.5,-43 "/>
<text text-anchor="middle" x="91" y="-30.9" font-family="Helvetica,sans-Serif" font-size="9.00"> </text>
<polyline fill="none" stroke="black" points="-0.5,-22 182.5,-22 "/>
<text text-anchor="start" x="7.5" y="-9.9" font-family="Helvetica,sans-Serif" font-size="9.00">+ sendMessage()</text>
</g>
<!-- Node2 -->
<g id="node2" class="node"><title>Node2</title>
<a xlink:href="../../d8/d64/a00181.htm" target="_top" xlink:title="message receiver interface for defining an object which can handle the message of a participant objec...">
<polygon fill="none" stroke="black" points="-0.5,-114.5 -0.5,-203.5 182.5,-203.5 182.5,-114.5 -0.5,-114.5"/>
<text text-anchor="start" x="7.5" y="-191.4" font-family="Helvetica,sans-Serif" font-size="9.00">de.tu_clausthal.in.mec.runtime.message.</text>
<text text-anchor="middle" x="91" y="-178.4" font-family="Helvetica,sans-Serif" font-size="9.00">IReceiver</text>
<polyline fill="none" stroke="black" points="-0.5,-169.5 182.5,-169.5 "/>
<text text-anchor="middle" x="91" y="-157.4" font-family="Helvetica,sans-Serif" font-size="9.00"> </text>
<polyline fill="none" stroke="black" points="-0.5,-148.5 182.5,-148.5 "/>
<text text-anchor="start" x="7.5" y="-136.4" font-family="Helvetica,sans-Serif" font-size="9.00">+ getReceiverPath()</text>
<text text-anchor="start" x="7.5" y="-123.4" font-family="Helvetica,sans-Serif" font-size="9.00">+ receiveMessage()</text>
</a>
</g>
<!-- Node2&#45;&gt;Node1 -->
<g id="edge2" class="edge"><title>Node2&#45;&gt;Node1</title>
<path fill="none" stroke="midnightblue" d="M91,-104.099C91,-94.9492 91,-85.6398 91,-77.0306"/>
<polygon fill="none" stroke="midnightblue" points="87.5001,-104.316 91,-114.316 94.5001,-104.316 87.5001,-104.316"/>
</g>
</g>
</svg>
