<?xml version="1.0" encoding="utf-8"?>
<!-- Generator: Adobe Illustrator 15.0.2, SVG Export Plug-In . SVG Version: 6.00 Build 0)  -->
<!DOCTYPE svg PUBLIC "-//W3C//DTD SVG 1.1//EN" "http://www.w3.org/Graphics/SVG/1.1/DTD/svg11.dtd">
<svg version="1.1" xmlns="http://www.w3.org/2000/svg" xmlns:xlink="http://www.w3.org/1999/xlink" x="0px" y="0px"
	 width="510.236px" height="141.732px" viewBox="0 0 510.236 141.732" enable-background="new 0 0 510.236 141.732"
	 xml:space="preserve">
<g id="Background">
</g>
<g id="Guides">
</g>
<g id="Foreground">
	<g>
		<g>
			<rect x="118.323" y="89.432" fill="#9C9E9F" width="12.409" height="12.408"/>
		</g>
		<polygon fill="#007D40" points="130.733,84.9 130.733,34.093 62.984,34.093 62.984,101.842 113.796,101.842 113.796,84.904 		"/>
		<path fill="#FFFFFF" d="M80.022,55.955c0.394-0.112,0.45,0.194,0.967,0.102c0.541-0.096,0.761-0.286,0.761-0.286
			s-0.411,0.66-0.845,0.699c-0.341,0.031-0.522-0.128-0.818-0.134c-0.348-0.006-0.623,0.082-0.623,0.082
			S79.626,56.069,80.022,55.955z"/>
		<path fill="#FFFFFF" d="M113.674,56.029c-0.394-0.113-0.45,0.194-0.967,0.102c-0.541-0.096-0.76-0.285-0.76-0.285
			s0.41,0.659,0.845,0.699c0.341,0.031,0.522-0.128,0.818-0.134c0.348-0.007,0.623,0.082,0.623,0.082S114.071,56.143,113.674,56.029
			z"/>
		<path fill="#FFFFFF" d="M91.014,80.662c1.246,1.005,3.366,1.809,5.946,1.809c2.592,0,4.988-0.81,6.231-1.822
			c-1.344-0.383-3.655-0.736-6.254-0.799C94.555,79.793,92.327,80.258,91.014,80.662z"/>
		<path fill="#FFFFFF" d="M86.76,54.942l-0.038,20.481c-0.814-0.41-1.972-0.64-2.46-0.773c-0.036-0.185-0.545-1.39-0.507-1.534
			c0.036-0.146,0.435-0.985,0.108-2.299c-0.295-1.184-2.286-2.841-3.732-3.55l-0.13,0.068c0.32-0.545,0.494-1.254,0.75-1.118
			c0.506,0.267,1.368,1.37,1.606,1.29c0.237-0.079,0.083-0.506,0.401-0.427l0.546,0.95c0.498,0.343,0.873,0.827,1.007,0.898
			c0.13,0.071,0.405,0.21,0.74,0.225c0.334,0.015,0.455-0.33,0.455-0.33s-0.396,0.009-0.65-0.157
			c-0.218-0.144-0.363-0.549-0.063-0.537c0.451,0.019,0.843,0.405,1.377-0.026c0.283-0.231,0.275-0.429,0.275-0.429
			s-0.414,0.136-0.717,0.122c-0.303-0.012-0.706-0.29-0.542-0.523c0.177-0.252,0.779-0.02,1.114-0.354
			c0.379-0.377,0.239-0.702,0.239-0.702s-0.071,0.194-0.606,0.287c-0.535,0.093-0.601-0.068-0.843-0.223
			c-0.215-0.134-0.46-0.417-0.46-0.417s0.057-0.292,0.245-0.464c0.189-0.173,0.627-0.129,0.627-0.129s-0.32-0.35-0.553-0.361
			c-0.232-0.009-0.508-0.054-0.993,0.391c-0.231,0.211-0.405,0.41-0.522,0.56l-1.017-1.055c0,0-0.894-0.572-0.72-0.834
			c0.445-0.666,0.849-1.417,1.015-1.998c0.105-0.368-0.35-1.526-0.828-2.159c0.449-0.489,1.47-1.609,1.594-1.854
			c0.104-0.208,0.304-0.742,1.287-1.883l0.655-0.6c0.354-0.563,0.868-0.999,0.941-1.15c0.069-0.145,0.212-0.454,0.212-0.824
			s-0.386-0.486-0.386-0.486s0.029,0.438-0.141,0.723c-0.147,0.248-0.586,0.425-0.586,0.095c0-0.497,0.405-0.946-0.097-1.513
			c-0.266-0.3-0.482-0.282-0.482-0.282s0.168,0.449,0.168,0.783c0,0.333-0.285,0.79-0.55,0.621c-0.286-0.182-0.06-0.854-0.443-1.208
			c-0.433-0.399-0.781-0.23-0.781-0.23s0.216,0.069,0.344,0.652c0.128,0.584-0.046,0.666-0.204,0.94
			c-0.14,0.242-0.439,0.524-0.439,0.524s-0.324-0.05-0.522-0.248c-0.199-0.199-0.171-0.684-0.171-0.684s-0.37,0.37-0.37,0.626
			c0,0.255-0.036,0.562,0.476,1.073c0.245,0.245,0.471,0.425,0.641,0.548l-2.431,2.731c-0.131,0.022-0.547,0.079-0.811,0.013
			c-0.318-0.079-0.896-0.491-0.341-0.491c0.554,0,0.829-0.617,0.8-0.737c-0.056-0.236-0.782-0.401-1.1-0.481
			c-0.316-0.078-0.24-1.453-0.124-1.569c0.118-0.118,1.56,0.48,1.605,0.371c0.062-0.145,0.376-0.81,0.05-0.992
			c-0.078-0.043-0.162-0.072-0.086-0.238c0.08-0.171,0.064-0.368,0.018-0.414c-0.161-0.16-0.931-0.557-1.168-0.636
			c-0.239-0.08-0.692-0.385-1.362-0.658l0.272-0.004c0,0,0.116-0.209,0.147-0.289c0.059-0.149,0.121-0.275-0.005-0.4
			c-0.125-0.126-0.359-0.216-0.622-0.216c-0.367,0-0.426,0.571-0.627,0.924c-0.486,0.121-0.577,0.151-0.577,0.151
			s-0.445-0.361-0.767-0.511c-0.465-0.213-1.106,0.209-1.152,0.682c-0.06,0.622,0.789,0.427,0.512,1.384
			c-0.069,0.24-0.939,1.577-0.711,1.577c0.903,0,1.333,1,1.295,1.563c-0.091,1.308-1.753,3.175-1.299,2.963
			c0.433-0.201,2.013-0.041,1.696,0.515c-0.316,0.555-1.968,3.66-1.573,3.263c0.286-0.287,1.128-0.341,0.987,0.123
			c-0.764,2.493-1.194,3.522-2.065,5.186c-1.188,0.159-2.285-1.493-1.221-3.088c0.138-0.517,1.477-2.633,1.557-3.899
			c0.078-1.269-0.595-2.994-0.595-2.994c0.872-0.633,0.223-3.808-1.929-4.821c-0.04,0.123,0.519,0.493,0.198,1.211
			c-0.164,0.478-0.625,1.279-0.395,2.227c0.261,1.523,1.359,1.161,1.526,1.583c1.63,4.044-1.869,6.059-1.79,8.594
			c0.08,2.538,2.854,2.617,2.854,2.617c0.265,0.354,0.263,0.357,0.263,0.357c0.386,0.511,0.81,1.093,0.848,1.253
			c0.073,0.293-0.555,1.666-0.467,2.174c0.062,0.356,1.605,2.066,1.968,2.577c0.301,0.563-0.393,1.819,0.694,2.793
			c0.065-0.545,0.333-1.266,0.384-1.328c0.817-0.051,1.23,0.522,1.773,1.943c0.675-0.685,0.591-1.744,0.252-2.296
			c0.586,0.061,0.905,0.23,1.896,0.826c0.134-1.26-1.215-1.939-1.215-1.939s0.882-0.049,1.315-0.018
			c-0.038-0.146-0.472-0.474-0.836-0.656c-0.362-0.184-2.141,0-2.141,0l-1.088-2.009c0,0,1.088-1.277,1.197-1.789
			c0.11-0.512-0.544-1.714-0.145-1.897c0.399-0.182,1.593,0.186,2.142,0.766c0.575,0.609-0.586,2.312,0.361,2.445
			c1.561,0.219,2.578,3.031,2.578,3.031s-0.074,0.619-0.11,0.767c-0.036,0.146,0.726,1.276,0.726,1.276l0.726-1.459
			c0.131-0.265,1.073-0.352,1.804-0.525l-0.006,3.75c0,0,1.079-0.504,2.831-1.011V54.942H86.76z M78.217,54.102
			c-0.242,0-0.437-0.191-0.437-0.425c0-0.236,0.195-0.427,0.437-0.427s0.438,0.191,0.438,0.427
			C78.654,53.911,78.458,54.102,78.217,54.102z"/>
		<path fill="#FFFFFF" d="M120.967,59.541c0.167-0.422,1.266-0.06,1.526-1.584c0.23-0.947-0.23-1.748-0.395-2.225
			c-0.321-0.718,0.237-1.088,0.197-1.211c-2.151,1.014-2.8,4.188-1.929,4.822c0,0-0.673,1.724-0.594,2.993
			c0.08,1.267,1.419,3.382,1.557,3.9c1.063,1.595-0.033,3.247-1.221,3.088c-0.872-1.664-1.301-2.692-2.065-5.186
			c-0.142-0.463,0.701-0.41,0.986-0.124c0.396,0.397-1.256-2.707-1.572-3.262c-0.317-0.555,1.263-0.715,1.696-0.514
			c0.454,0.211-1.208-1.656-1.299-2.964c-0.04-0.562,0.392-1.563,1.294-1.563c0.228,0-0.642-1.337-0.712-1.577
			c-0.277-0.957,0.572-0.762,0.513-1.384c-0.046-0.473-0.687-0.895-1.153-0.682c-0.321,0.149-0.767,0.511-0.767,0.511
			s-0.091-0.03-0.577-0.151c-0.201-0.354-0.259-0.924-0.626-0.924c-0.263,0-0.497,0.091-0.622,0.216
			c-0.126,0.125-0.064,0.251-0.005,0.401c0.032,0.079,0.146,0.289,0.146,0.289l0.272,0.004c-0.67,0.273-1.123,0.578-1.362,0.658
			c-0.237,0.079-1.008,0.476-1.168,0.636c-0.046,0.045-0.062,0.242,0.018,0.413c0.076,0.167-0.009,0.196-0.086,0.239
			c-0.326,0.182-0.012,0.846,0.049,0.991c0.046,0.109,1.487-0.488,1.605-0.371c0.115,0.117,0.192,1.492-0.125,1.57
			c-0.317,0.08-1.044,0.245-1.1,0.48c-0.029,0.12,0.246,0.737,0.8,0.737c0.556,0-0.023,0.412-0.341,0.491
			c-0.264,0.066-0.68,0.009-0.811-0.013l-2.431-2.732c0.17-0.124,0.396-0.304,0.641-0.549c0.512-0.511,0.476-0.817,0.476-1.072
			c0-0.257-0.37-0.626-0.37-0.626s0.027,0.485-0.171,0.684c-0.199,0.198-0.523,0.248-0.523,0.248s-0.299-0.283-0.438-0.524
			c-0.158-0.274-0.332-0.356-0.204-0.94c0.127-0.583,0.344-0.652,0.344-0.652s-0.349-0.169-0.781,0.229
			c-0.384,0.353-0.158,1.026-0.444,1.208c-0.265,0.168-0.55-0.287-0.55-0.621c0-0.334,0.168-0.783,0.168-0.783
			s-0.217-0.017-0.483,0.283c-0.501,0.567-0.096,1.016-0.096,1.513c0,0.33-0.439,0.153-0.586-0.095
			c-0.171-0.286-0.141-0.724-0.141-0.724s-0.386,0.117-0.386,0.486c0,0.37,0.143,0.68,0.212,0.824
			c0.072,0.151,0.587,0.587,0.94,1.15l0.655,0.6c0.983,1.141,1.182,1.674,1.287,1.882c0.124,0.246,1.145,1.366,1.594,1.855
			c-0.478,0.633-0.934,1.79-0.828,2.159c0.166,0.581,0.571,1.332,1.015,1.998c0.174,0.262-0.719,0.834-0.719,0.834l-1.018,1.056
			c-0.117-0.15-0.291-0.349-0.523-0.561c-0.485-0.444-0.761-0.4-0.993-0.391c-0.233,0.01-0.553,0.361-0.553,0.361
			s0.438-0.044,0.627,0.129c0.188,0.172,0.245,0.464,0.245,0.464s-0.244,0.283-0.459,0.417c-0.242,0.155-0.309,0.316-0.843,0.223
			c-0.535-0.092-0.606-0.287-0.606-0.287s-0.14,0.324,0.239,0.702c0.335,0.334,0.937,0.102,1.113,0.354
			c0.164,0.233-0.239,0.51-0.542,0.522c-0.303,0.015-0.717-0.121-0.717-0.121s-0.007,0.197,0.276,0.429
			c0.533,0.431,0.925,0.045,1.376,0.026c0.3-0.013,0.156,0.393-0.063,0.537c-0.254,0.166-0.651,0.157-0.651,0.157
			s0.121,0.344,0.455,0.33c0.336-0.014,0.61-0.153,0.741-0.225c0.134-0.072,0.509-0.556,1.007-0.899l0.546-0.95
			c0.318-0.08,0.165,0.348,0.402,0.427c0.238,0.08,1.101-1.023,1.606-1.291c0.255-0.135,0.43,0.574,0.75,1.118l-0.13-0.068
			c-1.446,0.708-3.438,2.366-3.732,3.549c-0.326,1.314,0.072,2.153,0.108,2.3c0.038,0.145-0.471,1.35-0.507,1.534
			c-0.489,0.134-1.646,0.364-2.46,0.773l-0.037-20.481h-2.784v24.769c1.752,0.507,2.831,1.01,2.831,1.01l-0.007-3.749
			c0.731,0.174,1.673,0.262,1.804,0.525l0.726,1.459c0,0,0.762-1.131,0.726-1.275c-0.035-0.148-0.109-0.768-0.109-0.768
			s1.017-2.813,2.578-3.031c0.948-0.133-0.213-1.836,0.362-2.444c0.548-0.58,1.742-0.947,2.142-0.766
			c0.399,0.182-0.254,1.386-0.145,1.896c0.108,0.512,1.196,1.789,1.196,1.789l-1.088,2.009c0,0-1.779-0.184-2.142,0
			c-0.363,0.183-0.797,0.511-0.835,0.656c0.433-0.031,1.314,0.018,1.314,0.018s-1.349,0.68-1.215,1.939
			c0.992-0.595,1.311-0.765,1.897-0.826c-0.339,0.552-0.423,1.611,0.251,2.295c0.543-1.42,0.956-1.992,1.773-1.942
			c0.051,0.063,0.318,0.784,0.384,1.328c1.086-0.974,0.393-2.229,0.694-2.794c0.362-0.51,1.906-2.22,1.968-2.575
			c0.088-0.509-0.541-1.882-0.467-2.175c0.038-0.16,0.462-0.742,0.848-1.253c0,0-0.002-0.004,0.263-0.358
			c0,0,2.774-0.079,2.854-2.617C122.836,65.599,119.337,63.585,120.967,59.541z M115.48,54.176c-0.242,0-0.438-0.191-0.438-0.425
			c0-0.237,0.196-0.428,0.438-0.428s0.437,0.191,0.437,0.428C115.917,53.985,115.722,54.176,115.48,54.176z"/>
		<path fill="#FFFFFF" d="M108.026,42.537l-1.659,1.659L108,45.83l-4.866,4.865l0.005-1.866h-3.731v5.998h-5.085v-5.998H90.62v1.71
			l-4.728-4.268l2.046-2.045l-1.661-1.661l-5.327,5.327l1.66,1.661l2.123-2.122l5.886,5.425l-0.015,2.085v24.485
			c1.764-0.433,3.999-0.794,6.428-0.737c2.363,0.059,4.458,0.405,6.101,0.792V54.887l0-1.874l6.024-6.025l2.536,2.535l0.184-1.66
			l0.173-1.303L108.026,42.537z M96.913,76.984c0,0-2.535-1.046-2.881-4.148c-0.422-3.766,0.975-3.773,1.748-5.792
			c0.792-2.068-0.998-4.063-0.998-4.063s2.507,0.298,3.317,2.804c0.625,1.929-0.602,2.41-0.679,4.096
			c-0.054,1.235,1.495,1.819,1.624,3.349C99.246,75.578,96.913,76.984,96.913,76.984z"/>
		<g>
			<path fill="#9C9E9F" d="M156.058,95.865c0,4.453-0.192,4.214,4.118,4.74v1.245h-12.882v-1.245c4.31-0.526,4.119-0.287,4.119-4.74
				V69.278h-4.31c-4.167,0-5.125,2.633-6.705,5.794h-1.197l1.292-7.327h26.483l1.293,7.327h-1.197
				c-1.58-3.161-2.538-5.794-6.705-5.794h-4.31V95.865z"/>
			<path fill="#9C9E9F" d="M178.331,87.842c0,6.704,1.82,11.828,8.955,11.828c6.561,0,10.009-4.405,10.009-12.066V74.291
				c0-1.006-0.191-1.82-0.287-2.586c-0.24-1.724-1.868-2.395-4.119-2.635v-1.245h11.302v1.245c-2.299,0.24-3.879,0.911-4.119,2.635
				c-0.096,0.766-0.287,1.58-0.287,2.586v13.504c0,10.295-6.561,14.126-12.739,14.126c-10.201,0-13.361-5.172-13.361-13.839v-14.27
				c0-4.454,0.191-4.214-4.119-4.742v-1.245h12.883v1.245c-4.311,0.528-4.119,0.289-4.119,4.742V87.842z"/>
			<path fill="#9C9E9F" d="M253.369,93.26l-1.438,5.986c0,1.053-0.861,1.244-2.202,1.676c-1.819,0.622-5.172,1.436-9.338,1.436
				c-9.817,0-18.677-4.691-18.677-17.525c0-7.375,6.273-17.144,19.155-17.144c4.646,0,6.849,0.862,9.195,1.629
				c1.342,0.431,1.867,1.101,1.867,1.867v6.177h-1.244c-0.144-3.83-2.586-7.997-10.201-7.997c-8.956,0-13.265,6.464-13.313,15.084
				c-0.048,9.528,4.31,16.232,14.079,16.232c6.37,0,9.339-3.639,10.871-7.422H253.369z"/>
			<path fill="#9C9E9F" d="M264.479,66.683v29.114c0,4.311-0.239,4.167,3.832,4.742v1.244h-11.974v-1.244
				c4.072-0.575,3.833-0.432,3.833-4.742V71.376c0-1.294-0.577-2.107-1.82-2.107h-2.013v-1.245c2.873-0.096,5.939-0.671,8.046-1.437
				L264.479,66.683z"/>
			<path fill="#9C9E9F" d="M286.223,102.357c-0.719-0.861-1.102-2.346-1.102-3.782l-3.737,2.49c-1.1,0.718-2.44,1.292-3.926,1.292
				c-3.161,0-5.795-2.777-5.795-6.273c0-4.549,2.683-5.984,8.286-8.188l5.172-2.012c0-4.166-1.102-6.943-4.072-6.943
				c-2.921,0-3.927,2.634-5.075,4.358c-0.144,0.239-0.336,0.239-0.622,0.191l-1.63-0.383c-0.286-0.097-0.431-0.288-0.383-0.624
				l0.719-2.537c0.288-0.91,0.814-1.293,1.39-1.484c2.202-0.862,3.83-1.197,5.937-1.197c5.604,0,8.047,2.49,8.047,7.71v10.63
				c0,2.443,0.144,4.502,3.353,3.256l0.287,1.342L286.223,102.357z M285.121,87.705c-4.216,1.58-9.147,2.729-9.147,7.613
				c0,2.252,1.484,4.07,3.687,4.07c2.491,0,5.461-1.629,5.461-7.949V87.705z"/>
			<path fill="#9C9E9F" d="M315.291,102.357c-0.719-0.813-1.102-2.298-1.102-3.687l-4.214,2.442
				c-2.012,1.148-3.065,1.244-4.454,1.244c-5.508,0-6.992-3.975-6.992-9.338V82.533c0-2.203-1.484-2.012-3.832-2.012v-1.244
				c2.586-0.096,5.795-0.672,8.047-2.012l0.096,0.096V92.59c0,3.591,0.575,6.943,4.789,6.943c4.454,0,6.561-2.395,6.561-9.482
				v-7.518c0-2.203-1.485-2.012-3.831-2.012v-1.244c2.634-0.096,5.842-0.672,8.045-2.012l0.096,0.096v18.244
				c0,2.443,0.144,4.502,3.352,3.256l0.288,1.342L315.291,102.357z"/>
			<path fill="#9C9E9F" d="M325.875,95.701h1.243c-0.046,3.354,2.443,4.98,5.222,4.98c2.777,0,4.405-2.106,4.405-4.118
				c0-3.112-2.489-4.214-5.363-6.272c-3.879-2.826-5.459-3.592-5.459-6.752c0-4.023,3.735-6.273,7.662-6.273
				c1.532,0,3.448,0.096,5.65,0.814v4.787h-1.245c-0.144-1.627-1.58-3.926-4.311-3.926c-2.01,0-3.688,1.197-3.688,3.064
				c0,2.299,2.443,3.544,5.939,6.034c4.501,3.16,5.076,4.933,5.076,7.135c0,4.98-4.502,7.183-8.668,7.183
				c-2.634,0-4.693-0.43-6.465-1.292V95.701z"/>
			<path fill="#9C9E9F" d="M359.637,80.234l-1.963,0.958h-5.315v12.594c0,1.868,0.096,5.698,3.255,5.698
				c1.294,0,2.539-0.096,3.688-0.574l0.335,1.245l-5.556,2.202c-3.352,0-6.033-1.005-6.033-7.565v-13.6h-3.832v-2.203h3.832v-5.028
				c0.862-0.909,1.819-1.771,3.017-2.681h1.294v7.709h7.278V80.234z"/>
			<path fill="#9C9E9F" d="M370.173,66.683v14.796c2.06-2.393,5.507-4.213,9.673-4.213c5.843,0,6.992,3.496,6.992,8.477v10.055
				c0,4.311-0.24,4.167,3.832,4.742v1.244h-11.974v-1.244c4.071-0.575,3.832-0.432,3.832-4.742v-8.811
				c0-3.018-0.192-7.23-5.268-7.23c-6.13,0-7.088,5.268-7.088,10.199v5.842c0,4.311-0.239,4.167,3.831,4.742v1.244H362.03v-1.244
				c4.071-0.575,3.832-0.432,3.832-4.742V71.376c0-1.294-0.575-2.107-1.82-2.107h-2.012v-1.245c2.874-0.096,5.94-0.671,8.047-1.437
				L370.173,66.683z"/>
			<path fill="#9C9E9F" d="M408.58,102.357c-0.719-0.861-1.103-2.346-1.103-3.782l-3.734,2.49c-1.103,0.718-2.442,1.292-3.927,1.292
				c-3.161,0-5.795-2.777-5.795-6.273c0-4.549,2.683-5.984,8.285-8.188l5.171-2.012c0-4.166-1.102-6.943-4.07-6.943
				c-2.92,0-3.926,2.634-5.076,4.358c-0.143,0.239-0.335,0.239-0.622,0.191l-1.628-0.383c-0.287-0.097-0.432-0.288-0.383-0.624
				l0.718-2.537c0.288-0.91,0.813-1.293,1.389-1.484c2.203-0.862,3.831-1.197,5.938-1.197c5.603,0,8.046,2.49,8.046,7.71v10.63
				c0,2.443,0.144,4.502,3.352,3.256l0.288,1.342L408.58,102.357z M407.478,87.705c-4.214,1.58-9.146,2.729-9.146,7.613
				c0,2.252,1.485,4.07,3.688,4.07c2.49,0,5.459-1.629,5.459-7.949V87.705z"/>
			<path fill="#9C9E9F" d="M426.06,66.683v29.114c0,4.311-0.24,4.167,3.831,4.742v1.244h-11.973v-1.244
				c4.071-0.575,3.831-0.432,3.831-4.742V71.376c0-1.294-0.574-2.107-1.819-2.107h-2.012v-1.245
				c2.873-0.096,5.938-0.671,8.045-1.437L426.06,66.683z"/>
		</g>
	</g>
</g>
</svg>
