<?xml version="1.0" encoding="UTF-8" standalone="no"?>
<!DOCTYPE svg PUBLIC "-//W3C//DTD SVG 1.1//EN"
 "http://www.w3.org/Graphics/SVG/1.1/DTD/svg11.dtd">
<!-- Generated by graphviz version 2.26.3 (20100126.1600)
 -->
<!-- Title: de.tu_clausthal.in.mec.object.waypoint.factory.CDefaultCarFactory Pages: 1 -->
<svg width="393pt" height="1080pt"
 viewBox="0.00 0.00 393.00 1080.00" xmlns="http://www.w3.org/2000/svg" xmlns:xlink="http://www.w3.org/1999/xlink">
<g id="graph1" class="graph" transform="scale(1 1) rotate(0) translate(4 1076)">
<title>de.tu_clausthal.in.mec.object.waypoint.factory.CDefaultCarFactory</title>
<!-- Node1 -->
<g id="node1" class="node"><title>Node1</title>
<polygon fill="#bfbfbf" stroke="black" points="151,-0.5 151,-167.5 357,-167.5 357,-0.5 151,-0.5"/>
<text text-anchor="start" x="159" y="-155.4" font-family="Helvetica,sans-Serif" font-size="9.00">de.tu_clausthal.in.mec.object.waypoint.factory.</text>
<text text-anchor="middle" x="254" y="-142.4" font-family="Helvetica,sans-Serif" font-size="9.00">CDefaultCarFactory</text>
<polyline fill="none" stroke="black" points="151,-133.5 357,-133.5 "/>
<text text-anchor="start" x="159" y="-121.4" font-family="Helvetica,sans-Serif" font-size="9.00"># m_acceleration</text>
<text text-anchor="start" x="159" y="-108.4" font-family="Helvetica,sans-Serif" font-size="9.00"># m_deceleration</text>
<text text-anchor="start" x="159" y="-95.4" font-family="Helvetica,sans-Serif" font-size="9.00"># m_lingerdistribution</text>
<text text-anchor="start" x="159" y="-82.4" font-family="Helvetica,sans-Serif" font-size="9.00"># m_maxspeed</text>
<text text-anchor="start" x="159" y="-69.4" font-family="Helvetica,sans-Serif" font-size="9.00"># m_speedfactor</text>
<text text-anchor="start" x="159" y="-56.4" font-family="Helvetica,sans-Serif" font-size="9.00">&#45; m_inspect</text>
<polyline fill="none" stroke="black" points="151,-47.5 357,-47.5 "/>
<text text-anchor="start" x="159" y="-35.4" font-family="Helvetica,sans-Serif" font-size="9.00">+ CDefaultCarFactory()</text>
<text text-anchor="start" x="159" y="-22.4" font-family="Helvetica,sans-Serif" font-size="9.00">+ inspect()</text>
<text text-anchor="start" x="159" y="-9.4" font-family="Helvetica,sans-Serif" font-size="9.00"># getCar()</text>
</g>
<!-- Node2 -->
<g id="node2" class="node"><title>Node2</title>
<a xlink:href="../../d3/df8/a00155.htm" target="_top" xlink:title="class to create an car factory object ">
<polygon fill="none" stroke="black" points="151,-207 151,-335 357,-335 357,-207 151,-207"/>
<text text-anchor="start" x="159" y="-322.9" font-family="Helvetica,sans-Serif" font-size="9.00">de.tu_clausthal.in.mec.object.waypoint.factory.</text>
<text text-anchor="middle" x="254" y="-309.9" font-family="Helvetica,sans-Serif" font-size="9.00">ICarFactory</text>
<polyline fill="none" stroke="black" points="151,-301 357,-301 "/>
<text text-anchor="middle" x="254" y="-288.9" font-family="Helvetica,sans-Serif" font-size="9.00"> </text>
<polyline fill="none" stroke="black" points="151,-280 357,-280 "/>
<text text-anchor="start" x="159" y="-267.9" font-family="Helvetica,sans-Serif" font-size="9.00">+ generate()</text>
<text text-anchor="start" x="159" y="-254.9" font-family="Helvetica,sans-Serif" font-size="9.00"># ICarFactory()</text>
<text text-anchor="start" x="159" y="-241.9" font-family="Helvetica,sans-Serif" font-size="9.00"># ICarFactory()</text>
<text text-anchor="start" x="159" y="-228.9" font-family="Helvetica,sans-Serif" font-size="9.00"># generateRouteCells()</text>
<text text-anchor="start" x="159" y="-215.9" font-family="Helvetica,sans-Serif" font-size="9.00"># getCar()</text>
</a>
</g>
<!-- Node2&#45;&gt;Node1 -->
<g id="edge2" class="edge"><title>Node2&#45;&gt;Node1</title>
<path fill="none" stroke="midnightblue" d="M254,-196.646C254,-187.071 254,-177.216 254,-167.506"/>
<polygon fill="none" stroke="midnightblue" points="250.5,-196.907 254,-206.907 257.5,-196.907 250.5,-196.907"/>
</g>
<!-- Node3 -->
<g id="node4" class="node"><title>Node3</title>
<a xlink:href="../../dc/de6/a00167.htm" target="_top" xlink:title="global default implementation to get information about a simulation object ">
<polygon fill="none" stroke="black" points="69,-574 69,-650 189,-650 189,-574 69,-574"/>
<text text-anchor="start" x="77" y="-637.9" font-family="Helvetica,sans-Serif" font-size="9.00">de.tu_clausthal.in.mec.ui.</text>
<text text-anchor="middle" x="129" y="-624.9" font-family="Helvetica,sans-Serif" font-size="9.00">IInspectorDefault</text>
<polyline fill="none" stroke="black" points="69,-616 189,-616 "/>
<text text-anchor="start" x="77" y="-603.9" font-family="Helvetica,sans-Serif" font-size="9.00">&#45; m_inspect</text>
<polyline fill="none" stroke="black" points="69,-595 189,-595 "/>
<text text-anchor="start" x="77" y="-582.9" font-family="Helvetica,sans-Serif" font-size="9.00">+ inspect()</text>
</a>
</g>
<!-- Node3&#45;&gt;Node2 -->
<g id="edge4" class="edge"><title>Node3&#45;&gt;Node2</title>
<path fill="none" stroke="midnightblue" d="M142.95,-563.915C155.992,-520.218 176.62,-454.187 198,-398 205.884,-377.28 215.334,-355.051 224.206,-335.072"/>
<polygon fill="none" stroke="midnightblue" points="139.534,-563.122 140.043,-573.705 146.245,-565.115 139.534,-563.122"/>
</g>
<!-- Node4 -->
<g id="node6" class="node"><title>Node4</title>
<a xlink:href="../../dd/df4/a00193.htm" target="_top" xlink:title="class to handle UI events with encapsulate the default lister structures ">
<polygon fill="none" stroke="black" points="0,-865 0,-1071 120,-1071 120,-865 0,-865"/>
<text text-anchor="start" x="8" y="-1058.9" font-family="Helvetica,sans-Serif" font-size="9.00">de.tu_clausthal.in.mec.ui.</text>
<text text-anchor="middle" x="60" y="-1045.9" font-family="Helvetica,sans-Serif" font-size="9.00">IUIListener</text>
<polyline fill="none" stroke="black" points="0,-1037 120,-1037 "/>
<text text-anchor="start" x="8" y="-1024.9" font-family="Helvetica,sans-Serif" font-size="9.00"># c_maxzoom</text>
<text text-anchor="start" x="8" y="-1011.9" font-family="Helvetica,sans-Serif" font-size="9.00"># c_miniconsize</text>
<polyline fill="none" stroke="black" points="0,-1003 120,-1003 "/>
<text text-anchor="start" x="8" y="-990.9" font-family="Helvetica,sans-Serif" font-size="9.00">+ IUIListener()</text>
<text text-anchor="start" x="8" y="-977.9" font-family="Helvetica,sans-Serif" font-size="9.00">+ mouseClicked()</text>
<text text-anchor="start" x="8" y="-964.9" font-family="Helvetica,sans-Serif" font-size="9.00">+ mouseEntered()</text>
<text text-anchor="start" x="8" y="-951.9" font-family="Helvetica,sans-Serif" font-size="9.00">+ mouseExited()</text>
<text text-anchor="start" x="8" y="-938.9" font-family="Helvetica,sans-Serif" font-size="9.00">+ mousePressed()</text>
<text text-anchor="start" x="8" y="-925.9" font-family="Helvetica,sans-Serif" font-size="9.00">+ mouseReleased()</text>
<text text-anchor="start" x="8" y="-912.9" font-family="Helvetica,sans-Serif" font-size="9.00">+ onClick()</text>
<text text-anchor="start" x="8" y="-899.9" font-family="Helvetica,sans-Serif" font-size="9.00">+ release()</text>
<text text-anchor="start" x="8" y="-886.9" font-family="Helvetica,sans-Serif" font-size="9.00"># iconscale()</text>
<text text-anchor="start" x="8" y="-873.9" font-family="Helvetica,sans-Serif" font-size="9.00"># iconsize()</text>
</a>
</g>
<!-- Node4&#45;&gt;Node3 -->
<g id="edge6" class="edge"><title>Node4&#45;&gt;Node3</title>
<path fill="none" stroke="midnightblue" d="M82.0328,-854.323C95.6245,-784.198 112.199,-698.684 121.582,-650.271"/>
<polygon fill="none" stroke="midnightblue" points="78.5172,-854.069 80.0503,-864.552 85.3893,-855.401 78.5172,-854.069"/>
</g>
<!-- Node5 -->
<g id="node8" class="node"><title>Node5</title>
<a xlink:href="../../d9/d38/a00166.htm" target="_top" xlink:title="global interface to read information about a simulation object ">
<polygon fill="none" stroke="black" points="138,-930 138,-1006 258,-1006 258,-930 138,-930"/>
<text text-anchor="start" x="146" y="-993.9" font-family="Helvetica,sans-Serif" font-size="9.00">de.tu_clausthal.in.mec.ui.</text>
<text text-anchor="middle" x="198" y="-980.9" font-family="Helvetica,sans-Serif" font-size="9.00">IInspector</text>
<polyline fill="none" stroke="black" points="138,-972 258,-972 "/>
<text text-anchor="middle" x="198" y="-959.9" font-family="Helvetica,sans-Serif" font-size="9.00"> </text>
<polyline fill="none" stroke="black" points="138,-951 258,-951 "/>
<text text-anchor="start" x="146" y="-938.9" font-family="Helvetica,sans-Serif" font-size="9.00">+ inspect()</text>
</a>
</g>
<!-- Node5&#45;&gt;Node3 -->
<g id="edge8" class="edge"><title>Node5&#45;&gt;Node3</title>
<path fill="none" stroke="midnightblue" d="M188.658,-919.803C174.787,-848.233 149.024,-715.312 136.383,-650.093"/>
<polygon fill="none" stroke="midnightblue" points="185.277,-920.75 190.616,-929.902 192.149,-919.418 185.277,-920.75"/>
</g>
<!-- Node6 -->
<g id="node10" class="node"><title>Node6</title>
<a xlink:href="../../dc/dee/a00053.htm" target="_top" xlink:title="class for create a graph structure of OSM data, the class downloads the data and creates edges and ve...">
<polygon fill="none" stroke="black" points="206.5,-398.5 206.5,-825.5 385.5,-825.5 385.5,-398.5 206.5,-398.5"/>
<text text-anchor="start" x="214.5" y="-813.4" font-family="Helvetica,sans-Serif" font-size="9.00">de.tu_clausthal.in.mec.object.car.graph.</text>
<text text-anchor="middle" x="296" y="-800.4" font-family="Helvetica,sans-Serif" font-size="9.00">CGraphHopper</text>
<polyline fill="none" stroke="black" points="206.5,-791.5 385.5,-791.5 "/>
<text text-anchor="start" x="214.5" y="-779.4" font-family="Helvetica,sans-Serif" font-size="9.00">&#45; m_cellsize</text>
<text text-anchor="start" x="214.5" y="-766.4" font-family="Helvetica,sans-Serif" font-size="9.00">&#45; m_edgecell</text>
<text text-anchor="start" x="214.5" y="-753.4" font-family="Helvetica,sans-Serif" font-size="9.00">&#45; m_edgelister</text>
<text text-anchor="start" x="214.5" y="-740.4" font-family="Helvetica,sans-Serif" font-size="9.00">&#45; m_weights</text>
<text text-anchor="start" x="214.5" y="-727.4" font-family="Helvetica,sans-Serif" font-size="9.00">&#45; c_defaultflagencoding</text>
<polyline fill="none" stroke="black" points="206.5,-718.5 385.5,-718.5 "/>
<text text-anchor="start" x="214.5" y="-706.4" font-family="Helvetica,sans-Serif" font-size="9.00">+ CGraphHopper()</text>
<text text-anchor="start" x="214.5" y="-693.4" font-family="Helvetica,sans-Serif" font-size="9.00">+ CGraphHopper()</text>
<text text-anchor="start" x="214.5" y="-680.4" font-family="Helvetica,sans-Serif" font-size="9.00">+ addEdgeListener()</text>
<text text-anchor="start" x="214.5" y="-667.4" font-family="Helvetica,sans-Serif" font-size="9.00">+ clear()</text>
<text text-anchor="start" x="214.5" y="-654.4" font-family="Helvetica,sans-Serif" font-size="9.00">+ createWeighting()</text>
<text text-anchor="start" x="214.5" y="-641.4" font-family="Helvetica,sans-Serif" font-size="9.00">+ existWeight()</text>
<text text-anchor="start" x="214.5" y="-628.4" font-family="Helvetica,sans-Serif" font-size="9.00">+ getClosestEdge()</text>
<text text-anchor="start" x="214.5" y="-615.4" font-family="Helvetica,sans-Serif" font-size="9.00">+ getClosestNode()</text>
<text text-anchor="start" x="214.5" y="-602.4" font-family="Helvetica,sans-Serif" font-size="9.00">+ getEdge()</text>
<text text-anchor="start" x="214.5" y="-589.4" font-family="Helvetica,sans-Serif" font-size="9.00">+ getEdgeCollection()</text>
<text text-anchor="start" x="214.5" y="-576.4" font-family="Helvetica,sans-Serif" font-size="9.00">+ getEdgeIterator()</text>
<text text-anchor="start" x="214.5" y="-563.4" font-family="Helvetica,sans-Serif" font-size="9.00">+ getEdgeSpeed()</text>
<text text-anchor="start" x="214.5" y="-550.4" font-family="Helvetica,sans-Serif" font-size="9.00">+ getNumberOfObjects()</text>
<text text-anchor="start" x="214.5" y="-537.4" font-family="Helvetica,sans-Serif" font-size="9.00">+ getRouteCells()</text>
<text text-anchor="start" x="214.5" y="-524.4" font-family="Helvetica,sans-Serif" font-size="9.00">+ getRoutes()</text>
<text text-anchor="start" x="214.5" y="-511.4" font-family="Helvetica,sans-Serif" font-size="9.00">+ getRoutes()</text>
<text text-anchor="start" x="214.5" y="-498.4" font-family="Helvetica,sans-Serif" font-size="9.00">+ getRoutes()</text>
<text text-anchor="start" x="214.5" y="-485.4" font-family="Helvetica,sans-Serif" font-size="9.00">+ getRoutes()</text>
<text text-anchor="start" x="214.5" y="-472.4" font-family="Helvetica,sans-Serif" font-size="9.00">+ getWeight()</text>
<text text-anchor="start" x="214.5" y="-459.4" font-family="Helvetica,sans-Serif" font-size="9.00">+ deleteGraph()</text>
<text text-anchor="start" x="214.5" y="-446.4" font-family="Helvetica,sans-Serif" font-size="9.00">&#45; downloadGraphAndLoad()</text>
<text text-anchor="start" x="214.5" y="-433.4" font-family="Helvetica,sans-Serif" font-size="9.00">&#45; downloadOSMData()</text>
<text text-anchor="start" x="214.5" y="-420.4" font-family="Helvetica,sans-Serif" font-size="9.00">&#45; getCurrentGraph()</text>
<text text-anchor="start" x="214.5" y="-407.4" font-family="Helvetica,sans-Serif" font-size="9.00">&#45; getGraphLocation()</text>
</a>
</g>
<!-- Node6&#45;&gt;Node2 -->
<g id="edge10" class="edge"><title>Node6&#45;&gt;Node2</title>
<path fill="none" stroke="#404040" d="M269.699,-398.461C267.481,-380.456 265.348,-363.137 263.407,-347.38"/>
<polygon fill="none" stroke="#404040" points="263.361,-347.004 258.658,-341.538 261.894,-335.094 266.598,-340.56 263.361,-347.004"/>
<text text-anchor="middle" x="289" y="-371.9" font-family="Helvetica,sans-Serif" font-size="9.00"> &#45;m_graph</text>
<text text-anchor="middle" x="289" y="-358.9" font-family="Helvetica,sans-Serif" font-size="9.00">#m_weight</text>
</g>
</g>
</svg>
