<?xml version="1.0" encoding="UTF-8" standalone="no"?>
<!DOCTYPE svg PUBLIC "-//W3C//DTD SVG 1.1//EN"
 "http://www.w3.org/Graphics/SVG/1.1/DTD/svg11.dtd">
<!-- Generated by graphviz version 2.26.3 (20100126.1600)
 -->
<!-- Title: de.tu_clausthal.in.mec.object.mas.IReturnAgent&lt; T &gt; Pages: 1 -->
<svg width="190pt" height="430pt"
 viewBox="0.00 0.00 190.00 430.00" xmlns="http://www.w3.org/2000/svg" xmlns:xlink="http://www.w3.org/1999/xlink">
<g id="graph1" class="graph" transform="scale(1 1) rotate(0) translate(4 426)">
<title>de.tu_clausthal.in.mec.object.mas.IReturnAgent&lt; T &gt;</title>
<!-- Node1 -->
<g id="node1" class="node"><title>Node1</title>
<polygon fill="#bfbfbf" stroke="black" points="12.5,-1 12.5,-77 169.5,-77 169.5,-1 12.5,-1"/>
<text text-anchor="start" x="20.5" y="-64.9" font-family="Helvetica,sans-Serif" font-size="9.00">de.tu_clausthal.in.mec.object.mas.</text>
<text text-anchor="middle" x="91" y="-51.9" font-family="Helvetica,sans-Serif" font-size="9.00">IReturnAgent&lt; T &gt;</text>
<polyline fill="none" stroke="black" points="12.5,-43 169.5,-43 "/>
<text text-anchor="middle" x="91" y="-30.9" font-family="Helvetica,sans-Serif" font-size="9.00"> </text>
<polyline fill="none" stroke="black" points="12.5,-22 169.5,-22 "/>
<text text-anchor="middle" x="91" y="-9.9" font-family="Helvetica,sans-Serif" font-size="9.00"> </text>
</g>
<!-- Node2 -->
<g id="node2" class="node"><title>Node2</title>
<a xlink:href="../../d9/db6/a00146.htm" target="_top" xlink:title="interface of an agent ">
<polygon fill="none" stroke="black" points="12.5,-115 12.5,-295 169.5,-295 169.5,-115 12.5,-115"/>
<text text-anchor="start" x="20.5" y="-282.9" font-family="Helvetica,sans-Serif" font-size="9.00">de.tu_clausthal.in.mec.object.mas.</text>
<text text-anchor="middle" x="91" y="-269.9" font-family="Helvetica,sans-Serif" font-size="9.00">IAgent&lt; T &gt;</text>
<polyline fill="none" stroke="black" points="12.5,-261 169.5,-261 "/>
<text text-anchor="middle" x="91" y="-248.9" font-family="Helvetica,sans-Serif" font-size="9.00"> </text>
<polyline fill="none" stroke="black" points="12.5,-240 169.5,-240 "/>
<text text-anchor="start" x="20.5" y="-227.9" font-family="Helvetica,sans-Serif" font-size="9.00">+ addBeliefBase()</text>
<text text-anchor="start" x="20.5" y="-214.9" font-family="Helvetica,sans-Serif" font-size="9.00">+ bind()</text>
<text text-anchor="start" x="20.5" y="-201.9" font-family="Helvetica,sans-Serif" font-size="9.00">+ getBeliefBase()</text>
<text text-anchor="start" x="20.5" y="-188.9" font-family="Helvetica,sans-Serif" font-size="9.00">+ getCycle()</text>
<text text-anchor="start" x="20.5" y="-175.9" font-family="Helvetica,sans-Serif" font-size="9.00">+ getName()</text>
<text text-anchor="start" x="20.5" y="-162.9" font-family="Helvetica,sans-Serif" font-size="9.00">+ getSource()</text>
<text text-anchor="start" x="20.5" y="-149.9" font-family="Helvetica,sans-Serif" font-size="9.00">+ release()</text>
<text text-anchor="start" x="20.5" y="-136.9" font-family="Helvetica,sans-Serif" font-size="9.00">+ removeBeliefBase()</text>
<text text-anchor="start" x="20.5" y="-123.9" font-family="Helvetica,sans-Serif" font-size="9.00">+ unbind()</text>
</a>
</g>
<!-- Node2&#45;&gt;Node1 -->
<g id="edge2" class="edge"><title>Node2&#45;&gt;Node1</title>
<path fill="none" stroke="midnightblue" d="M91,-104.553C91,-94.8946 91,-85.5667 91,-77.1244"/>
<polygon fill="none" stroke="midnightblue" points="87.5001,-104.713 91,-114.713 94.5001,-104.713 87.5001,-104.713"/>
</g>
<!-- Node3 -->
<g id="node4" class="node"><title>Node3</title>
<a xlink:href="../../d8/d64/a00181.htm" target="_top" xlink:title="message receiver interface for defining an object which can handle the message of a participant objec...">
<polygon fill="none" stroke="black" points="-0.5,-332.5 -0.5,-421.5 182.5,-421.5 182.5,-332.5 -0.5,-332.5"/>
<text text-anchor="start" x="7.5" y="-409.4" font-family="Helvetica,sans-Serif" font-size="9.00">de.tu_clausthal.in.mec.runtime.message.</text>
<text text-anchor="middle" x="91" y="-396.4" font-family="Helvetica,sans-Serif" font-size="9.00">IReceiver</text>
<polyline fill="none" stroke="black" points="-0.5,-387.5 182.5,-387.5 "/>
<text text-anchor="middle" x="91" y="-375.4" font-family="Helvetica,sans-Serif" font-size="9.00"> </text>
<polyline fill="none" stroke="black" points="-0.5,-366.5 182.5,-366.5 "/>
<text text-anchor="start" x="7.5" y="-354.4" font-family="Helvetica,sans-Serif" font-size="9.00">+ getReceiverPath()</text>
<text text-anchor="start" x="7.5" y="-341.4" font-family="Helvetica,sans-Serif" font-size="9.00">+ receiveMessage()</text>
</a>
</g>
<!-- Node3&#45;&gt;Node2 -->
<g id="edge4" class="edge"><title>Node3&#45;&gt;Node2</title>
<path fill="none" stroke="midnightblue" d="M91,-322.039C91,-313.444 91,-304.372 91,-295.235"/>
<polygon fill="none" stroke="midnightblue" points="87.5001,-322.258 91,-332.258 94.5001,-322.258 87.5001,-322.258"/>
</g>
</g>
</svg>
