<?xml version="1.0" encoding="UTF-8" standalone="no"?>
<!DOCTYPE svg PUBLIC "-//W3C//DTD SVG 1.1//EN"
 "http://www.w3.org/Graphics/SVG/1.1/DTD/svg11.dtd">
<!-- Generated by graphviz version 2.26.3 (20100126.1600)
 -->
<!-- Title: de.tu_clausthal.in.mec.ui.web.CVirtualDynamicMethod Pages: 1 -->
<svg width="148pt" height="356pt"
 viewBox="0.00 0.00 148.00 356.00" xmlns="http://www.w3.org/2000/svg" xmlns:xlink="http://www.w3.org/1999/xlink">
<g id="graph1" class="graph" transform="scale(1 1) rotate(0) translate(4 352)">
<title>de.tu_clausthal.in.mec.ui.web.CVirtualDynamicMethod</title>
<!-- Node1 -->
<g id="node1" class="node"><title>Node1</title>
<polygon fill="#bfbfbf" stroke="black" points="0,-1 0,-207 140,-207 140,-1 0,-1"/>
<text text-anchor="start" x="8" y="-194.9" font-family="Helvetica,sans-Serif" font-size="9.00">de.tu_clausthal.in.mec.ui.web.</text>
<text text-anchor="middle" x="70" y="-181.9" font-family="Helvetica,sans-Serif" font-size="9.00">CVirtualDynamicMethod</text>
<polyline fill="none" stroke="black" points="0,-173 140,-173 "/>
<text text-anchor="start" x="8" y="-160.9" font-family="Helvetica,sans-Serif" font-size="9.00">&#45; m_heartbeat</text>
<text text-anchor="start" x="8" y="-147.9" font-family="Helvetica,sans-Serif" font-size="9.00">&#45; m_method</text>
<text text-anchor="start" x="8" y="-134.9" font-family="Helvetica,sans-Serif" font-size="9.00">&#45; m_object</text>
<text text-anchor="start" x="8" y="-121.9" font-family="Helvetica,sans-Serif" font-size="9.00">&#45; m_uri</text>
<text text-anchor="start" x="8" y="-108.9" font-family="Helvetica,sans-Serif" font-size="9.00">&#45; c_seperator</text>
<text text-anchor="start" x="8" y="-95.9" font-family="Helvetica,sans-Serif" font-size="9.00">&#45; c_uriallowchars</text>
<polyline fill="none" stroke="black" points="0,-87 140,-87 "/>
<text text-anchor="start" x="8" y="-74.9" font-family="Helvetica,sans-Serif" font-size="9.00">+ CVirtualDynamicMethod()</text>
<text text-anchor="start" x="8" y="-61.9" font-family="Helvetica,sans-Serif" font-size="9.00">+ equals()</text>
<text text-anchor="start" x="8" y="-48.9" font-family="Helvetica,sans-Serif" font-size="9.00">+ get()</text>
<text text-anchor="start" x="8" y="-35.9" font-family="Helvetica,sans-Serif" font-size="9.00">+ getMarkDownRenderer()</text>
<text text-anchor="start" x="8" y="-22.9" font-family="Helvetica,sans-Serif" font-size="9.00">+ hashCode()</text>
<text text-anchor="start" x="8" y="-9.9" font-family="Helvetica,sans-Serif" font-size="9.00">+ match()</text>
</g>
<!-- Node2 -->
<g id="node2" class="node"><title>Node2</title>
<a xlink:href="../../d3/d2a/a00195.htm" target="_top" xlink:title="interface of locations ">
<polygon fill="none" stroke="black" points="0,-245 0,-347 140,-347 140,-245 0,-245"/>
<text text-anchor="start" x="8" y="-334.9" font-family="Helvetica,sans-Serif" font-size="9.00">de.tu_clausthal.in.mec.ui.web.</text>
<text text-anchor="middle" x="70" y="-321.9" font-family="Helvetica,sans-Serif" font-size="9.00">IVirtualLocation</text>
<polyline fill="none" stroke="black" points="0,-313 140,-313 "/>
<text text-anchor="middle" x="70" y="-300.9" font-family="Helvetica,sans-Serif" font-size="9.00"> </text>
<polyline fill="none" stroke="black" points="0,-292 140,-292 "/>
<text text-anchor="start" x="8" y="-279.9" font-family="Helvetica,sans-Serif" font-size="9.00">+ get()</text>
<text text-anchor="start" x="8" y="-266.9" font-family="Helvetica,sans-Serif" font-size="9.00">+ getMarkDownRenderer()</text>
<text text-anchor="start" x="8" y="-253.9" font-family="Helvetica,sans-Serif" font-size="9.00">+ match()</text>
</a>
</g>
<!-- Node2&#45;&gt;Node1 -->
<g id="edge2" class="edge"><title>Node2&#45;&gt;Node1</title>
<path fill="none" stroke="midnightblue" d="M70,-234.709C70,-225.92 70,-216.683 70,-207.352"/>
<polygon fill="none" stroke="midnightblue" points="66.5001,-234.8 70,-244.8 73.5001,-234.8 66.5001,-234.8"/>
</g>
</g>
</svg>
