<?xml version="1.0" encoding="UTF-8" standalone="no"?>
<!DOCTYPE svg PUBLIC "-//W3C//DTD SVG 1.1//EN"
 "http://www.w3.org/Graphics/SVG/1.1/DTD/svg11.dtd">
<!-- Generated by graphviz version 2.26.3 (20100126.1600)
 -->
<!-- Title: de.tu_clausthal.in.mec.ui.web.CVirtualFile Pages: 1 -->
<svg width="148pt" height="330pt"
 viewBox="0.00 0.00 148.00 330.00" xmlns="http://www.w3.org/2000/svg" xmlns:xlink="http://www.w3.org/1999/xlink">
<g id="graph1" class="graph" transform="scale(1 1) rotate(0) translate(4 326)">
<title>de.tu_clausthal.in.mec.ui.web.CVirtualFile</title>
<!-- Node1 -->
<g id="node1" class="node"><title>Node1</title>
<polygon fill="#bfbfbf" stroke="black" points="0,-1 0,-181 140,-181 140,-1 0,-1"/>
<text text-anchor="start" x="8" y="-168.9" font-family="Helvetica,sans-Serif" font-size="9.00">de.tu_clausthal.in.mec.ui.web.</text>
<text text-anchor="middle" x="70" y="-155.9" font-family="Helvetica,sans-Serif" font-size="9.00">CVirtualFile</text>
<polyline fill="none" stroke="black" points="0,-147 140,-147 "/>
<text text-anchor="start" x="8" y="-134.9" font-family="Helvetica,sans-Serif" font-size="9.00">&#45; m_file</text>
<text text-anchor="start" x="8" y="-121.9" font-family="Helvetica,sans-Serif" font-size="9.00">&#45; m_uri</text>
<text text-anchor="start" x="8" y="-108.9" font-family="Helvetica,sans-Serif" font-size="9.00">&#45; c_allowchar</text>
<text text-anchor="start" x="8" y="-95.9" font-family="Helvetica,sans-Serif" font-size="9.00">&#45; c_seperator</text>
<polyline fill="none" stroke="black" points="0,-87 140,-87 "/>
<text text-anchor="start" x="8" y="-74.9" font-family="Helvetica,sans-Serif" font-size="9.00">+ CVirtualFile()</text>
<text text-anchor="start" x="8" y="-61.9" font-family="Helvetica,sans-Serif" font-size="9.00">+ equals()</text>
<text text-anchor="start" x="8" y="-48.9" font-family="Helvetica,sans-Serif" font-size="9.00">+ get()</text>
<text text-anchor="start" x="8" y="-35.9" font-family="Helvetica,sans-Serif" font-size="9.00">+ getMarkDownRenderer()</text>
<text text-anchor="start" x="8" y="-22.9" font-family="Helvetica,sans-Serif" font-size="9.00">+ hashCode()</text>
<text text-anchor="start" x="8" y="-9.9" font-family="Helvetica,sans-Serif" font-size="9.00">+ match()</text>
</g>
<!-- Node2 -->
<g id="node2" class="node"><title>Node2</title>
<a xlink:href="../../d3/d2a/a00195.htm" target="_top" xlink:title="interface of locations ">
<polygon fill="none" stroke="black" points="0,-219 0,-321 140,-321 140,-219 0,-219"/>
<text text-anchor="start" x="8" y="-308.9" font-family="Helvetica,sans-Serif" font-size="9.00">de.tu_clausthal.in.mec.ui.web.</text>
<text text-anchor="middle" x="70" y="-295.9" font-family="Helvetica,sans-Serif" font-size="9.00">IVirtualLocation</text>
<polyline fill="none" stroke="black" points="0,-287 140,-287 "/>
<text text-anchor="middle" x="70" y="-274.9" font-family="Helvetica,sans-Serif" font-size="9.00"> </text>
<polyline fill="none" stroke="black" points="0,-266 140,-266 "/>
<text text-anchor="start" x="8" y="-253.9" font-family="Helvetica,sans-Serif" font-size="9.00">+ get()</text>
<text text-anchor="start" x="8" y="-240.9" font-family="Helvetica,sans-Serif" font-size="9.00">+ getMarkDownRenderer()</text>
<text text-anchor="start" x="8" y="-227.9" font-family="Helvetica,sans-Serif" font-size="9.00">+ match()</text>
</a>
</g>
<!-- Node2&#45;&gt;Node1 -->
<g id="edge2" class="edge"><title>Node2&#45;&gt;Node1</title>
<path fill="none" stroke="midnightblue" d="M70,-208.535C70,-199.691 70,-190.442 70,-181.182"/>
<polygon fill="none" stroke="midnightblue" points="66.5001,-208.706 70,-218.706 73.5001,-208.706 66.5001,-208.706"/>
</g>
</g>
</svg>
