<?xml version="1.0" encoding="UTF-8" standalone="no"?>
<!DOCTYPE svg PUBLIC "-//W3C//DTD SVG 1.1//EN"
 "http://www.w3.org/Graphics/SVG/1.1/DTD/svg11.dtd">
<!-- Generated by graphviz version 2.26.3 (20100126.1600)
 -->
<!-- Title: de.tu_clausthal.in.mec.ui.IUIListener Pages: 1 -->
<!--zoomable 1308 -->
<svg id="main" version="1.1" xmlns="http://www.w3.org/2000/svg" xmlns:xlink="http://www.w3.org/1999/xlink" xml:space="preserve" onload="init(evt)">
<style type="text/css"><![CDATA[
.edge:hover path { stroke: red; }
.edge:hover polygon { stroke: red; fill: red; }
]]></style>
<script type="text/javascript"><![CDATA[
var edges = document.getElementsByTagName('g');
if (edges && edges.length) {
  for (var i=0;i<edges.length;i++) {
    if (edges[i].id.substr(0,4)=='edge') {
      edges[i].setAttribute('class','edge');
    }
  }
}
]]></script>
        <defs>
                <circle id="rim" cx="0" cy="0" r="7"/>
                <circle id="rim2" cx="0" cy="0" r="3.5"/>
                <g id="zoomPlus">
                        <use xlink:href="#rim" fill="#404040">
                                <set attributeName="fill" to="#808080" begin="zoomplus.mouseover" end="zoomplus.mouseout"/>
                        </use>
                        <path d="M-4,0h8M0,-4v8" fill="none" stroke="white" stroke-width="1.5" pointer-events="none"/>
                </g>
                <g id="zoomMin">
                        <use xlink:href="#rim" fill="#404040">
                                <set attributeName="fill" to="#808080" begin="zoomminus.mouseover" end="zoomminus.mouseout"/>
                        </use>
                        <path d="M-4,0h8" fill="none" stroke="white" stroke-width="1.5" pointer-events="none"/>
                </g>
                <g id="dirArrow">
                        <path fill="none" stroke="white" stroke-width="1.5" d="M0,-3.0v7 M-2.5,-0.5L0,-3.0L2.5,-0.5"/>
                </g>
               <g id="resetDef">
                       <use xlink:href="#rim2" fill="#404040">
                               <set attributeName="fill" to="#808080" begin="reset.mouseover" end="reset.mouseout"/>
                       </use>
               </g>
        </defs>

<script type="text/javascript">
var viewWidth = 1308;
var viewHeight = 1308;
var sectionId = 'dynsection-0';
</script>
<script xlink:href="../../svgpan.js"/>
<svg id="graph" class="graph">
<g id="viewport">
<title>de.tu_clausthal.in.mec.ui.IUIListener</title>
<!-- Node1 -->
<g id="node1" class="node"><title>Node1</title>
<polygon fill="#bfbfbf" stroke="black" points="561,-1093 561,-1299 681,-1299 681,-1093 561,-1093"/>
<text text-anchor="start" x="569" y="-1286.9" font-family="Helvetica,sans-Serif" font-size="9.00">de.tu_clausthal.in.mec.ui.</text>
<text text-anchor="middle" x="621" y="-1273.9" font-family="Helvetica,sans-Serif" font-size="9.00">IUIListener</text>
<polyline fill="none" stroke="black" points="561,-1265 681,-1265 "/>
<text text-anchor="start" x="569" y="-1252.9" font-family="Helvetica,sans-Serif" font-size="9.00"># c_maxzoom</text>
<text text-anchor="start" x="569" y="-1239.9" font-family="Helvetica,sans-Serif" font-size="9.00"># c_miniconsize</text>
<polyline fill="none" stroke="black" points="561,-1231 681,-1231 "/>
<text text-anchor="start" x="569" y="-1218.9" font-family="Helvetica,sans-Serif" font-size="9.00">+ IUIListener()</text>
<text text-anchor="start" x="569" y="-1205.9" font-family="Helvetica,sans-Serif" font-size="9.00">+ mouseClicked()</text>
<text text-anchor="start" x="569" y="-1192.9" font-family="Helvetica,sans-Serif" font-size="9.00">+ mouseEntered()</text>
<text text-anchor="start" x="569" y="-1179.9" font-family="Helvetica,sans-Serif" font-size="9.00">+ mouseExited()</text>
<text text-anchor="start" x="569" y="-1166.9" font-family="Helvetica,sans-Serif" font-size="9.00">+ mousePressed()</text>
<text text-anchor="start" x="569" y="-1153.9" font-family="Helvetica,sans-Serif" font-size="9.00">+ mouseReleased()</text>
<text text-anchor="start" x="569" y="-1140.9" font-family="Helvetica,sans-Serif" font-size="9.00">+ onClick()</text>
<text text-anchor="start" x="569" y="-1127.9" font-family="Helvetica,sans-Serif" font-size="9.00">+ release()</text>
<text text-anchor="start" x="569" y="-1114.9" font-family="Helvetica,sans-Serif" font-size="9.00"># iconscale()</text>
<text text-anchor="start" x="569" y="-1101.9" font-family="Helvetica,sans-Serif" font-size="9.00"># iconsize()</text>
</g>
<!-- Node2 -->
<g id="node3" class="node"><title>Node2</title>
<a xlink:href="../../dc/de6/a00167.htm" target="_top" xlink:title="global default implementation to get information about a simulation object ">
<polygon fill="none" stroke="black" points="561,-979 561,-1055 681,-1055 681,-979 561,-979"/>
<text text-anchor="start" x="569" y="-1042.9" font-family="Helvetica,sans-Serif" font-size="9.00">de.tu_clausthal.in.mec.ui.</text>
<text text-anchor="middle" x="621" y="-1029.9" font-family="Helvetica,sans-Serif" font-size="9.00">IInspectorDefault</text>
<polyline fill="none" stroke="black" points="561,-1021 681,-1021 "/>
<text text-anchor="start" x="569" y="-1008.9" font-family="Helvetica,sans-Serif" font-size="9.00">&#45; m_inspect</text>
<polyline fill="none" stroke="black" points="561,-1000 681,-1000 "/>
<text text-anchor="start" x="569" y="-987.9" font-family="Helvetica,sans-Serif" font-size="9.00">+ inspect()</text>
</a>
</g>
<!-- Node1&#45;&gt;Node2 -->
<g id="edge2" class="edge"><title>Node1&#45;&gt;Node2</title>
<path fill="none" stroke="midnightblue" d="M621,-1082.68C621,-1072.98 621,-1063.68 621,-1055.28"/>
<polygon fill="none" stroke="midnightblue" points="617.5,-1082.91 621,-1092.91 624.5,-1082.91 617.5,-1082.91"/>
</g>
<!-- Node3 -->
<g id="node5" class="node"><title>Node3</title>
<a xlink:href="../../d5/df9/a00044.htm" target="_top" xlink:title="class for a default car * ">
<polygon fill="none" stroke="black" points="0,-449 0,-941 152,-941 152,-449 0,-449"/>
<text text-anchor="start" x="8" y="-928.9" font-family="Helvetica,sans-Serif" font-size="9.00">de.tu_clausthal.in.mec.object.car.</text>
<text text-anchor="middle" x="76" y="-915.9" font-family="Helvetica,sans-Serif" font-size="9.00">CDefaultCar</text>
<polyline fill="none" stroke="black" points="0,-907 152,-907 "/>
<text text-anchor="start" x="8" y="-894.9" font-family="Helvetica,sans-Serif" font-size="9.00"># m_layer</text>
<text text-anchor="start" x="8" y="-881.9" font-family="Helvetica,sans-Serif" font-size="9.00"># m_maxspeed</text>
<text text-anchor="start" x="8" y="-868.9" font-family="Helvetica,sans-Serif" font-size="9.00"># m_route</text>
<text text-anchor="start" x="8" y="-855.9" font-family="Helvetica,sans-Serif" font-size="9.00"># m_routeindex</text>
<text text-anchor="start" x="8" y="-842.9" font-family="Helvetica,sans-Serif" font-size="9.00"># m_speed</text>
<text text-anchor="start" x="8" y="-829.9" font-family="Helvetica,sans-Serif" font-size="9.00">&#45; m_acceleration</text>
<text text-anchor="start" x="8" y="-816.9" font-family="Helvetica,sans-Serif" font-size="9.00">&#45; m_deceleration</text>
<text text-anchor="start" x="8" y="-803.9" font-family="Helvetica,sans-Serif" font-size="9.00">&#45; m_endreached</text>
<text text-anchor="start" x="8" y="-790.9" font-family="Helvetica,sans-Serif" font-size="9.00">&#45; m_inspect</text>
<text text-anchor="start" x="8" y="-777.9" font-family="Helvetica,sans-Serif" font-size="9.00">&#45; m_lingerprobability</text>
<polyline fill="none" stroke="black" points="0,-769 152,-769 "/>
<text text-anchor="start" x="8" y="-756.9" font-family="Helvetica,sans-Serif" font-size="9.00">+ CDefaultCar()</text>
<text text-anchor="start" x="8" y="-743.9" font-family="Helvetica,sans-Serif" font-size="9.00">+ getAcceleration()</text>
<text text-anchor="start" x="8" y="-730.9" font-family="Helvetica,sans-Serif" font-size="9.00">+ getCurrentSpeed()</text>
<text text-anchor="start" x="8" y="-717.9" font-family="Helvetica,sans-Serif" font-size="9.00">+ getDeceleration()</text>
<text text-anchor="start" x="8" y="-704.9" font-family="Helvetica,sans-Serif" font-size="9.00">+ getEdge()</text>
<text text-anchor="start" x="8" y="-691.9" font-family="Helvetica,sans-Serif" font-size="9.00">+ getGeoposition()</text>
<text text-anchor="start" x="8" y="-678.9" font-family="Helvetica,sans-Serif" font-size="9.00">+ getLingerProbability()</text>
<text text-anchor="start" x="8" y="-665.9" font-family="Helvetica,sans-Serif" font-size="9.00">+ getMaximumSpeed()</text>
<text text-anchor="start" x="8" y="-652.9" font-family="Helvetica,sans-Serif" font-size="9.00">+ getPredecessor()</text>
<text text-anchor="start" x="8" y="-639.9" font-family="Helvetica,sans-Serif" font-size="9.00">+ getPredecessor()</text>
<text text-anchor="start" x="8" y="-626.9" font-family="Helvetica,sans-Serif" font-size="9.00">+ hasEndReached()</text>
<text text-anchor="start" x="8" y="-613.9" font-family="Helvetica,sans-Serif" font-size="9.00">+ inspect()</text>
<text text-anchor="start" x="8" y="-600.9" font-family="Helvetica,sans-Serif" font-size="9.00">+ onClick()</text>
<text text-anchor="start" x="8" y="-587.9" font-family="Helvetica,sans-Serif" font-size="9.00">+ paint()</text>
<text text-anchor="start" x="8" y="-574.9" font-family="Helvetica,sans-Serif" font-size="9.00">+ release()</text>
<text text-anchor="start" x="8" y="-561.9" font-family="Helvetica,sans-Serif" font-size="9.00">+ setCurrentSpeed()</text>
<text text-anchor="start" x="8" y="-548.9" font-family="Helvetica,sans-Serif" font-size="9.00">+ step()</text>
<text text-anchor="start" x="8" y="-535.9" font-family="Helvetica,sans-Serif" font-size="9.00"># getCurrentPosition()</text>
<text text-anchor="start" x="8" y="-522.9" font-family="Helvetica,sans-Serif" font-size="9.00">&#45; getCurrentCarsOnEdge()</text>
<text text-anchor="start" x="8" y="-509.9" font-family="Helvetica,sans-Serif" font-size="9.00">&#45; getCurrentEdgeMaxSpeed()</text>
<text text-anchor="start" x="8" y="-496.9" font-family="Helvetica,sans-Serif" font-size="9.00">&#45; getEdge()</text>
<text text-anchor="start" x="8" y="-483.9" font-family="Helvetica,sans-Serif" font-size="9.00">&#45; getRouteLine()</text>
<text text-anchor="start" x="8" y="-470.9" font-family="Helvetica,sans-Serif" font-size="9.00">&#45; reroute()</text>
<text text-anchor="start" x="8" y="-457.9" font-family="Helvetica,sans-Serif" font-size="9.00">&#45; reroute()</text>
</a>
</g>
<!-- Node2&#45;&gt;Node3 -->
<g id="edge4" class="edge"><title>Node2&#45;&gt;Node3</title>
<path fill="none" stroke="midnightblue" d="M550.668,-1014.18C436.735,-1008.24 218.723,-990.668 161,-942 158.053,-939.515 155.208,-936.923 152.461,-934.234"/>
<polygon fill="none" stroke="midnightblue" points="550.528,-1017.68 560.692,-1014.69 550.882,-1010.69 550.528,-1017.68"/>
</g>
<!-- Node5 -->
<g id="node9" class="node"><title>Node5</title>
<a xlink:href="../../d3/df8/a00155.htm" target="_top" xlink:title="class to create an car factory object ">
<polygon fill="none" stroke="black" points="170,-624.5 170,-765.5 376,-765.5 376,-624.5 170,-624.5"/>
<text text-anchor="start" x="178" y="-753.4" font-family="Helvetica,sans-Serif" font-size="9.00">de.tu_clausthal.in.mec.object.waypoint.factory.</text>
<text text-anchor="middle" x="273" y="-740.4" font-family="Helvetica,sans-Serif" font-size="9.00">ICarFactory</text>
<polyline fill="none" stroke="black" points="170,-731.5 376,-731.5 "/>
<text text-anchor="start" x="178" y="-719.4" font-family="Helvetica,sans-Serif" font-size="9.00"># m_weight</text>
<text text-anchor="start" x="178" y="-706.4" font-family="Helvetica,sans-Serif" font-size="9.00">&#45; m_graph</text>
<polyline fill="none" stroke="black" points="170,-697.5 376,-697.5 "/>
<text text-anchor="start" x="178" y="-685.4" font-family="Helvetica,sans-Serif" font-size="9.00">+ generate()</text>
<text text-anchor="start" x="178" y="-672.4" font-family="Helvetica,sans-Serif" font-size="9.00"># ICarFactory()</text>
<text text-anchor="start" x="178" y="-659.4" font-family="Helvetica,sans-Serif" font-size="9.00"># ICarFactory()</text>
<text text-anchor="start" x="178" y="-646.4" font-family="Helvetica,sans-Serif" font-size="9.00"># generateRouteCells()</text>
<text text-anchor="start" x="178" y="-633.4" font-family="Helvetica,sans-Serif" font-size="9.00"># getCar()</text>
</a>
</g>
<!-- Node2&#45;&gt;Node5 -->
<g id="edge8" class="edge"><title>Node2&#45;&gt;Node5</title>
<path fill="none" stroke="midnightblue" d="M550.73,-1009.96C499.406,-1001.5 431.025,-982.89 385,-942 333.081,-895.873 303.81,-820.903 288.324,-765.639"/>
<polygon fill="none" stroke="midnightblue" points="550.336,-1013.45 560.755,-1011.53 551.413,-1006.53 550.336,-1013.45"/>
</g>
<!-- Node8 -->
<g id="node15" class="node"><title>Node8</title>
<a xlink:href="../../d5/db6/a00042.htm" target="_top" xlink:title="generates a fixed number of cars ">
<polygon fill="none" stroke="black" points="394,-624.5 394,-765.5 612,-765.5 612,-624.5 394,-624.5"/>
<text text-anchor="start" x="402" y="-753.4" font-family="Helvetica,sans-Serif" font-size="9.00">de.tu_clausthal.in.mec.object.waypoint.generator.</text>
<text text-anchor="middle" x="503" y="-740.4" font-family="Helvetica,sans-Serif" font-size="9.00">CConstant</text>
<polyline fill="none" stroke="black" points="394,-731.5 612,-731.5 "/>
<text text-anchor="start" x="402" y="-719.4" font-family="Helvetica,sans-Serif" font-size="9.00">&#45; m_endstep</text>
<text text-anchor="start" x="402" y="-706.4" font-family="Helvetica,sans-Serif" font-size="9.00">&#45; m_inspect</text>
<text text-anchor="start" x="402" y="-693.4" font-family="Helvetica,sans-Serif" font-size="9.00">&#45; m_startstep</text>
<text text-anchor="start" x="402" y="-680.4" font-family="Helvetica,sans-Serif" font-size="9.00">&#45; m_stepobjects</text>
<polyline fill="none" stroke="black" points="394,-671.5 612,-671.5 "/>
<text text-anchor="start" x="402" y="-659.4" font-family="Helvetica,sans-Serif" font-size="9.00">+ CConstant()</text>
<text text-anchor="start" x="402" y="-646.4" font-family="Helvetica,sans-Serif" font-size="9.00">+ getCount()</text>
<text text-anchor="start" x="402" y="-633.4" font-family="Helvetica,sans-Serif" font-size="9.00">+ inspect()</text>
</a>
</g>
<!-- Node2&#45;&gt;Node8 -->
<g id="edge14" class="edge"><title>Node2&#45;&gt;Node8</title>
<path fill="none" stroke="midnightblue" d="M603.47,-969.163C583.753,-915.361 551.539,-827.455 528.916,-765.719"/>
<polygon fill="none" stroke="midnightblue" points="600.273,-970.613 607,-978.798 606.846,-968.204 600.273,-970.613"/>
</g>
<!-- Node9 -->
<g id="node17" class="node"><title>Node9</title>
<a xlink:href="../../dd/d6d/a00111.htm" target="_top" xlink:title="generator of a static number of objects with a time&#45;exponential function ">
<polygon fill="none" stroke="black" points="630,-631 630,-759 848,-759 848,-631 630,-631"/>
<text text-anchor="start" x="638" y="-746.9" font-family="Helvetica,sans-Serif" font-size="9.00">de.tu_clausthal.in.mec.object.waypoint.generator.</text>
<text text-anchor="middle" x="739" y="-733.9" font-family="Helvetica,sans-Serif" font-size="9.00">CTimeDistribution</text>
<polyline fill="none" stroke="black" points="630,-725 848,-725 "/>
<text text-anchor="start" x="638" y="-712.9" font-family="Helvetica,sans-Serif" font-size="9.00">&#45; m_count</text>
<text text-anchor="start" x="638" y="-699.9" font-family="Helvetica,sans-Serif" font-size="9.00">&#45; m_distribution</text>
<text text-anchor="start" x="638" y="-686.9" font-family="Helvetica,sans-Serif" font-size="9.00">&#45; m_inspect</text>
<polyline fill="none" stroke="black" points="630,-678 848,-678 "/>
<text text-anchor="start" x="638" y="-665.9" font-family="Helvetica,sans-Serif" font-size="9.00">+ CTimeDistribution()</text>
<text text-anchor="start" x="638" y="-652.9" font-family="Helvetica,sans-Serif" font-size="9.00">+ getCount()</text>
<text text-anchor="start" x="638" y="-639.9" font-family="Helvetica,sans-Serif" font-size="9.00">+ inspect()</text>
</a>
</g>
<!-- Node2&#45;&gt;Node9 -->
<g id="edge16" class="edge"><title>Node2&#45;&gt;Node9</title>
<path fill="none" stroke="midnightblue" d="M638.526,-969.173C658.941,-913.465 692.76,-821.181 715.454,-759.252"/>
<polygon fill="none" stroke="midnightblue" points="635.154,-968.204 635,-978.798 641.727,-970.613 635.154,-968.204"/>
</g>
<!-- Node10 -->
<g id="node19" class="node"><title>Node10</title>
<a xlink:href="../../db/d57/a00112.htm" target="_top" xlink:title="profile generator to define a fixed histogram on the time steps ">
<polygon fill="none" stroke="black" points="866,-637.5 866,-752.5 1084,-752.5 1084,-637.5 866,-637.5"/>
<text text-anchor="start" x="874" y="-740.4" font-family="Helvetica,sans-Serif" font-size="9.00">de.tu_clausthal.in.mec.object.waypoint.generator.</text>
<text text-anchor="middle" x="975" y="-727.4" font-family="Helvetica,sans-Serif" font-size="9.00">CTimeProfile</text>
<polyline fill="none" stroke="black" points="866,-718.5 1084,-718.5 "/>
<text text-anchor="start" x="874" y="-706.4" font-family="Helvetica,sans-Serif" font-size="9.00">~ m_histogram</text>
<text text-anchor="start" x="874" y="-693.4" font-family="Helvetica,sans-Serif" font-size="9.00">&#45; m_inspect</text>
<polyline fill="none" stroke="black" points="866,-684.5 1084,-684.5 "/>
<text text-anchor="start" x="874" y="-672.4" font-family="Helvetica,sans-Serif" font-size="9.00">+ CTimeProfile()</text>
<text text-anchor="start" x="874" y="-659.4" font-family="Helvetica,sans-Serif" font-size="9.00">+ getCount()</text>
<text text-anchor="start" x="874" y="-646.4" font-family="Helvetica,sans-Serif" font-size="9.00">+ inspect()</text>
</a>
</g>
<!-- Node2&#45;&gt;Node10 -->
<g id="edge18" class="edge"><title>Node2&#45;&gt;Node10</title>
<path fill="none" stroke="midnightblue" d="M691.034,-1009.7C742.237,-1001.1 810.57,-982.429 857,-942 914.167,-892.223 945.904,-808.59 961.709,-752.612"/>
<polygon fill="none" stroke="midnightblue" points="690.36,-1006.26 681.033,-1011.29 691.459,-1013.17 690.36,-1006.26"/>
</g>
<!-- Node11 -->
<g id="node21" class="node"><title>Node11</title>
<a xlink:href="../../d8/d72/a00199.htm" target="_top" xlink:title="abstract class for a waypoint ">
<polygon fill="none" stroke="black" points="1101.5,-520.5 1101.5,-869.5 1300.5,-869.5 1300.5,-520.5 1101.5,-520.5"/>
<text text-anchor="start" x="1109.5" y="-857.4" font-family="Helvetica,sans-Serif" font-size="9.00">de.tu_clausthal.in.mec.object.waypoint.point.</text>
<text text-anchor="start" x="1109.5" y="-844.4" font-family="Helvetica,sans-Serif" font-size="9.00">IWayPointBase&lt; T, P extends IFactory</text>
<text text-anchor="middle" x="1201" y="-831.4" font-family="Helvetica,sans-Serif" font-size="9.00">&lt; T &gt;, N extends IGenerator &gt;</text>
<polyline fill="none" stroke="black" points="1101.5,-822.5 1300.5,-822.5 "/>
<text text-anchor="start" x="1109.5" y="-810.4" font-family="Helvetica,sans-Serif" font-size="9.00"># m_factory</text>
<text text-anchor="start" x="1109.5" y="-797.4" font-family="Helvetica,sans-Serif" font-size="9.00"># m_generator</text>
<text text-anchor="start" x="1109.5" y="-784.4" font-family="Helvetica,sans-Serif" font-size="9.00"># m_visible</text>
<text text-anchor="start" x="1109.5" y="-771.4" font-family="Helvetica,sans-Serif" font-size="9.00">&#45; m_color</text>
<text text-anchor="start" x="1109.5" y="-758.4" font-family="Helvetica,sans-Serif" font-size="9.00">&#45; m_initializeimage</text>
<text text-anchor="start" x="1109.5" y="-745.4" font-family="Helvetica,sans-Serif" font-size="9.00">&#45; m_inspect</text>
<text text-anchor="start" x="1109.5" y="-732.4" font-family="Helvetica,sans-Serif" font-size="9.00">&#45; m_lastZoom</text>
<text text-anchor="start" x="1109.5" y="-719.4" font-family="Helvetica,sans-Serif" font-size="9.00">&#45; m_name</text>
<text text-anchor="start" x="1109.5" y="-706.4" font-family="Helvetica,sans-Serif" font-size="9.00">&#45; m_position</text>
<text text-anchor="start" x="1109.5" y="-693.4" font-family="Helvetica,sans-Serif" font-size="9.00">&#45; m_scaledimage</text>
<polyline fill="none" stroke="black" points="1101.5,-684.5 1300.5,-684.5 "/>
<text text-anchor="start" x="1109.5" y="-672.4" font-family="Helvetica,sans-Serif" font-size="9.00">+ IWayPointBase()</text>
<text text-anchor="start" x="1109.5" y="-659.4" font-family="Helvetica,sans-Serif" font-size="9.00">+ IWayPointBase()</text>
<text text-anchor="start" x="1109.5" y="-646.4" font-family="Helvetica,sans-Serif" font-size="9.00">+ getColor()</text>
<text text-anchor="start" x="1109.5" y="-633.4" font-family="Helvetica,sans-Serif" font-size="9.00">+ getName()</text>
<text text-anchor="start" x="1109.5" y="-620.4" font-family="Helvetica,sans-Serif" font-size="9.00">+ getPosition()</text>
<text text-anchor="start" x="1109.5" y="-607.4" font-family="Helvetica,sans-Serif" font-size="9.00">+ getScaledImage()</text>
<text text-anchor="start" x="1109.5" y="-594.4" font-family="Helvetica,sans-Serif" font-size="9.00">+ hasFactoryGenerator()</text>
<text text-anchor="start" x="1109.5" y="-581.4" font-family="Helvetica,sans-Serif" font-size="9.00">+ inspect()</text>
<text text-anchor="start" x="1109.5" y="-568.4" font-family="Helvetica,sans-Serif" font-size="9.00">+ onClick()</text>
<text text-anchor="start" x="1109.5" y="-555.4" font-family="Helvetica,sans-Serif" font-size="9.00">+ paint()</text>
<text text-anchor="start" x="1109.5" y="-542.4" font-family="Helvetica,sans-Serif" font-size="9.00">+ step()</text>
<text text-anchor="start" x="1109.5" y="-529.4" font-family="Helvetica,sans-Serif" font-size="9.00">&#45; initializeImage()</text>
</a>
</g>
<!-- Node2&#45;&gt;Node11 -->
<g id="edge20" class="edge"><title>Node2&#45;&gt;Node11</title>
<path fill="none" stroke="midnightblue" d="M691.365,-1013.97C807.234,-1007.66 1031.51,-989.536 1093,-942 1117.53,-923.036 1136.6,-897.346 1151.39,-869.68"/>
<polygon fill="none" stroke="midnightblue" points="690.978,-1010.48 681.177,-1014.51 691.348,-1017.47 690.978,-1010.48"/>
</g>
<!-- Node4 -->
<g id="node7" class="node"><title>Node4</title>
<a xlink:href="../../dc/de2/a00024.htm" target="_top" xlink:title="agent car ">
<polygon fill="none" stroke="black" points="0,-166.5 0,-411.5 152,-411.5 152,-166.5 0,-166.5"/>
<text text-anchor="start" x="8" y="-399.4" font-family="Helvetica,sans-Serif" font-size="9.00">de.tu_clausthal.in.mec.object.car.</text>
<text text-anchor="middle" x="76" y="-386.4" font-family="Helvetica,sans-Serif" font-size="9.00">CCarJasonAgent</text>
<polyline fill="none" stroke="black" points="0,-377.5 152,-377.5 "/>
<text text-anchor="start" x="8" y="-365.4" font-family="Helvetica,sans-Serif" font-size="9.00">&#45; m_agentlayer</text>
<text text-anchor="start" x="8" y="-352.4" font-family="Helvetica,sans-Serif" font-size="9.00">&#45; m_agents</text>
<text text-anchor="start" x="8" y="-339.4" font-family="Helvetica,sans-Serif" font-size="9.00">&#45; m_inspect</text>
<text text-anchor="start" x="8" y="-326.4" font-family="Helvetica,sans-Serif" font-size="9.00">&#45; m_objectpath</text>
<text text-anchor="start" x="8" y="-313.4" font-family="Helvetica,sans-Serif" font-size="9.00">&#45; m_seenpredecessors</text>
<text text-anchor="start" x="8" y="-300.4" font-family="Helvetica,sans-Serif" font-size="9.00">&#45; m_trafficbeliefbase</text>
<polyline fill="none" stroke="black" points="0,-291.5 152,-291.5 "/>
<text text-anchor="start" x="8" y="-279.4" font-family="Helvetica,sans-Serif" font-size="9.00">+ CCarJasonAgent()</text>
<text text-anchor="start" x="8" y="-266.4" font-family="Helvetica,sans-Serif" font-size="9.00">+ CCarJasonAgent()</text>
<text text-anchor="start" x="8" y="-253.4" font-family="Helvetica,sans-Serif" font-size="9.00">+ getReceiverPath()</text>
<text text-anchor="start" x="8" y="-240.4" font-family="Helvetica,sans-Serif" font-size="9.00">+ inspect()</text>
<text text-anchor="start" x="8" y="-227.4" font-family="Helvetica,sans-Serif" font-size="9.00">+ receiveMessage()</text>
<text text-anchor="start" x="8" y="-214.4" font-family="Helvetica,sans-Serif" font-size="9.00">+ release()</text>
<text text-anchor="start" x="8" y="-201.4" font-family="Helvetica,sans-Serif" font-size="9.00">+ step()</text>
<text text-anchor="start" x="8" y="-188.4" font-family="Helvetica,sans-Serif" font-size="9.00">&#45; bind()</text>
<text text-anchor="start" x="8" y="-175.4" font-family="Helvetica,sans-Serif" font-size="9.00">&#45; getPredecessorWithName()</text>
</a>
</g>
<!-- Node3&#45;&gt;Node4 -->
<g id="edge6" class="edge"><title>Node3&#45;&gt;Node4</title>
<path fill="none" stroke="midnightblue" d="M76,-438.848C76,-429.656 76,-420.621 76,-411.825"/>
<polygon fill="none" stroke="midnightblue" points="72.5001,-438.879 76,-448.879 79.5001,-438.879 72.5001,-438.879"/>
</g>
<!-- Node6 -->
<g id="node11" class="node"><title>Node6</title>
<a xlink:href="../../d6/d97/a00045.htm" target="_top" xlink:title="class for generating cars with a distribution of the attributes ">
<polygon fill="none" stroke="black" points="170,-205.5 170,-372.5 376,-372.5 376,-205.5 170,-205.5"/>
<text text-anchor="start" x="178" y="-360.4" font-family="Helvetica,sans-Serif" font-size="9.00">de.tu_clausthal.in.mec.object.waypoint.factory.</text>
<text text-anchor="middle" x="273" y="-347.4" font-family="Helvetica,sans-Serif" font-size="9.00">CDefaultCarFactory</text>
<polyline fill="none" stroke="black" points="170,-338.5 376,-338.5 "/>
<text text-anchor="start" x="178" y="-326.4" font-family="Helvetica,sans-Serif" font-size="9.00"># m_acceleration</text>
<text text-anchor="start" x="178" y="-313.4" font-family="Helvetica,sans-Serif" font-size="9.00"># m_deceleration</text>
<text text-anchor="start" x="178" y="-300.4" font-family="Helvetica,sans-Serif" font-size="9.00"># m_lingerdistribution</text>
<text text-anchor="start" x="178" y="-287.4" font-family="Helvetica,sans-Serif" font-size="9.00"># m_maxspeed</text>
<text text-anchor="start" x="178" y="-274.4" font-family="Helvetica,sans-Serif" font-size="9.00"># m_speedfactor</text>
<text text-anchor="start" x="178" y="-261.4" font-family="Helvetica,sans-Serif" font-size="9.00">&#45; m_inspect</text>
<polyline fill="none" stroke="black" points="170,-252.5 376,-252.5 "/>
<text text-anchor="start" x="178" y="-240.4" font-family="Helvetica,sans-Serif" font-size="9.00">+ CDefaultCarFactory()</text>
<text text-anchor="start" x="178" y="-227.4" font-family="Helvetica,sans-Serif" font-size="9.00">+ inspect()</text>
<text text-anchor="start" x="178" y="-214.4" font-family="Helvetica,sans-Serif" font-size="9.00"># getCar()</text>
</a>
</g>
<!-- Node5&#45;&gt;Node6 -->
<g id="edge10" class="edge"><title>Node5&#45;&gt;Node6</title>
<path fill="none" stroke="midnightblue" d="M273,-614.186C273,-544.2 273,-443.36 273,-372.577"/>
<polygon fill="none" stroke="midnightblue" points="269.5,-614.28 273,-624.28 276.5,-614.28 269.5,-614.28"/>
</g>
<!-- Node7 -->
<g id="node13" class="node"><title>Node7</title>
<a xlink:href="../../d4/dee/a00008.htm" target="_top" xlink:title="class to generate Jason cars with a distribution of the attributes ">
<polygon fill="none" stroke="black" points="170,-1 170,-129 376,-129 376,-1 170,-1"/>
<text text-anchor="start" x="178" y="-116.9" font-family="Helvetica,sans-Serif" font-size="9.00">de.tu_clausthal.in.mec.object.waypoint.factory.</text>
<text text-anchor="middle" x="273" y="-103.9" font-family="Helvetica,sans-Serif" font-size="9.00">CAgentCarFactory</text>
<polyline fill="none" stroke="black" points="170,-95 376,-95 "/>
<text text-anchor="start" x="178" y="-82.9" font-family="Helvetica,sans-Serif" font-size="9.00">&#45; m_agent</text>
<text text-anchor="start" x="178" y="-69.9" font-family="Helvetica,sans-Serif" font-size="9.00">&#45; m_agenttype</text>
<text text-anchor="start" x="178" y="-56.9" font-family="Helvetica,sans-Serif" font-size="9.00">&#45; m_inspect</text>
<polyline fill="none" stroke="black" points="170,-48 376,-48 "/>
<text text-anchor="start" x="178" y="-35.9" font-family="Helvetica,sans-Serif" font-size="9.00">+ CAgentCarFactory()</text>
<text text-anchor="start" x="178" y="-22.9" font-family="Helvetica,sans-Serif" font-size="9.00">+ inspect()</text>
<text text-anchor="start" x="178" y="-9.9" font-family="Helvetica,sans-Serif" font-size="9.00"># getCar()</text>
</a>
</g>
<!-- Node6&#45;&gt;Node7 -->
<g id="edge12" class="edge"><title>Node6&#45;&gt;Node7</title>
<path fill="none" stroke="midnightblue" d="M273,-195.126C273,-172.864 273,-149.621 273,-129.041"/>
<polygon fill="none" stroke="midnightblue" points="269.5,-195.272 273,-205.272 276.5,-195.272 269.5,-195.272"/>
</g>
</g>
</svg>
        <g id="navigator" transform="translate(0 0)" fill="#404254">
                <rect fill="#f2f5e9" fill-opacity="0.5" stroke="#606060" stroke-width=".5" x="0" y="0" width="60" height="60"/>
                <use id="zoomplus" xlink:href="#zoomPlus" x="17" y="9" onmousedown="handleZoom(evt,'in')"/>
                <use id="zoomminus" xlink:href="#zoomMin" x="42" y="9" onmousedown="handleZoom(evt,'out')"/>
                <use id="reset" xlink:href="#resetDef" x="30" y="36" onmousedown="handleReset()"/>
                <g id="arrowUp" xlink:href="#dirArrow" transform="translate(30 24)" onmousedown="handlePan(0,-1)">
                  <use xlink:href="#rim" fill="#404040">
                        <set attributeName="fill" to="#808080" begin="arrowUp.mouseover" end="arrowUp.mouseout"/>
                  </use>
                  <path fill="none" stroke="white" stroke-width="1.5" d="M0,-3.0v7 M-2.5,-0.5L0,-3.0L2.5,-0.5"/>
                </g>
                <g id="arrowRight" xlink:href="#dirArrow" transform="rotate(90) translate(36 -43)" onmousedown="handlePan(1,0)">
                  <use xlink:href="#rim" fill="#404040">
                        <set attributeName="fill" to="#808080" begin="arrowRight.mouseover" end="arrowRight.mouseout"/>
                  </use>
                  <path fill="none" stroke="white" stroke-width="1.5" d="M0,-3.0v7 M-2.5,-0.5L0,-3.0L2.5,-0.5"/>
                </g>
                <g id="arrowDown" xlink:href="#dirArrow" transform="rotate(180) translate(-30 -48)" onmousedown="handlePan(0,1)">
                  <use xlink:href="#rim" fill="#404040">
                        <set attributeName="fill" to="#808080" begin="arrowDown.mouseover" end="arrowDown.mouseout"/>
                  </use>
                  <path fill="none" stroke="white" stroke-width="1.5" d="M0,-3.0v7 M-2.5,-0.5L0,-3.0L2.5,-0.5"/>
                </g>
                <g id="arrowLeft" xlink:href="#dirArrow" transform="rotate(270) translate(-36 17)" onmousedown="handlePan(-1,0)">
                  <use xlink:href="#rim" fill="#404040">
                        <set attributeName="fill" to="#808080" begin="arrowLeft.mouseover" end="arrowLeft.mouseout"/>
                  </use>
                  <path fill="none" stroke="white" stroke-width="1.5" d="M0,-3.0v7 M-2.5,-0.5L0,-3.0L2.5,-0.5"/>
                </g>
        </g>
        <svg viewBox="0 0 15 15" width="100%" height="30px" preserveAspectRatio="xMaxYMin meet">
         <g id="arrow_out" transform="scale(0.3 0.3)">
          <a xlink:href="a00857_org.svg" target="_base">
           <rect id="button" ry="5" rx="5" y="6" x="6" height="38" width="38"
                fill="#f2f5e9" fill-opacity="0.5" stroke="#606060" stroke-width="1.0"/>
           <path id="arrow"
             d="M 11.500037,31.436501 C 11.940474,20.09759 22.043105,11.32322 32.158766,21.979434 L 37.068811,17.246167 C 37.068811,17.246167 37.088388,32 37.088388,32 L 22.160133,31.978069 C 22.160133,31.978069 26.997745,27.140456 26.997745,27.140456 C 18.528582,18.264221 13.291696,25.230495 11.500037,31.436501 z"
             style="fill:#404040;"/>
          </a>
         </g>
        </svg>
</svg>
