<?xml version="1.0" encoding="UTF-8" standalone="no"?>
<!DOCTYPE svg PUBLIC "-//W3C//DTD SVG 1.1//EN"
 "http://www.w3.org/Graphics/SVG/1.1/DTD/svg11.dtd">
<!-- Generated by graphviz version 2.26.3 (20100126.1600)
 -->
<!-- Title: de.tu_clausthal.in.mec.ui.IInspector Pages: 1 -->
<svg width="1308pt" height="1178pt"
 viewBox="0.00 0.00 1308.00 1178.00" xmlns="http://www.w3.org/2000/svg" xmlns:xlink="http://www.w3.org/1999/xlink">
<g id="graph1" class="graph" transform="scale(1 1) rotate(0) translate(4 1174)">
<title>de.tu_clausthal.in.mec.ui.IInspector</title>
<!-- Node1 -->
<g id="node1" class="node"><title>Node1</title>
<polygon fill="#bfbfbf" stroke="black" points="310,-1093 310,-1169 430,-1169 430,-1093 310,-1093"/>
<text text-anchor="start" x="318" y="-1156.9" font-family="Helvetica,sans-Serif" font-size="9.00">de.tu_clausthal.in.mec.ui.</text>
<text text-anchor="middle" x="370" y="-1143.9" font-family="Helvetica,sans-Serif" font-size="9.00">IInspector</text>
<polyline fill="none" stroke="black" points="310,-1135 430,-1135 "/>
<text text-anchor="middle" x="370" y="-1122.9" font-family="Helvetica,sans-Serif" font-size="9.00"> </text>
<polyline fill="none" stroke="black" points="310,-1114 430,-1114 "/>
<text text-anchor="start" x="318" y="-1101.9" font-family="Helvetica,sans-Serif" font-size="9.00">+ inspect()</text>
</g>
<!-- Node2 -->
<g id="node3" class="node"><title>Node2</title>
<a xlink:href="../../db/d44/a00162.htm" target="_top" xlink:title="interface which defines the generic structure of every factory (for sources) ">
<polygon fill="none" stroke="black" points="37,-979 37,-1055 243,-1055 243,-979 37,-979"/>
<text text-anchor="start" x="45" y="-1042.9" font-family="Helvetica,sans-Serif" font-size="9.00">de.tu_clausthal.in.mec.object.waypoint.factory.</text>
<text text-anchor="middle" x="140" y="-1029.9" font-family="Helvetica,sans-Serif" font-size="9.00">IFactory&lt; T &gt;</text>
<polyline fill="none" stroke="black" points="37,-1021 243,-1021 "/>
<text text-anchor="middle" x="140" y="-1008.9" font-family="Helvetica,sans-Serif" font-size="9.00"> </text>
<polyline fill="none" stroke="black" points="37,-1000 243,-1000 "/>
<text text-anchor="start" x="45" y="-987.9" font-family="Helvetica,sans-Serif" font-size="9.00">+ generate()</text>
</a>
</g>
<!-- Node1&#45;&gt;Node2 -->
<g id="edge2" class="edge"><title>Node1&#45;&gt;Node2</title>
<path fill="none" stroke="midnightblue" d="M300.674,-1096.64C274.186,-1083.51 243.839,-1068.47 216.703,-1055.02"/>
<polygon fill="none" stroke="midnightblue" points="299.356,-1099.89 309.871,-1101.2 302.465,-1093.62 299.356,-1099.89"/>
</g>
<!-- Node3 -->
<g id="node5" class="node"><title>Node3</title>
<a xlink:href="../../db/ddf/a00164.htm" target="_top" xlink:title="distribution interface to define the amount of objects that should be generated ">
<polygon fill="none" stroke="black" points="261,-979 261,-1055 479,-1055 479,-979 261,-979"/>
<text text-anchor="start" x="269" y="-1042.9" font-family="Helvetica,sans-Serif" font-size="9.00">de.tu_clausthal.in.mec.object.waypoint.generator.</text>
<text text-anchor="middle" x="370" y="-1029.9" font-family="Helvetica,sans-Serif" font-size="9.00">IGenerator</text>
<polyline fill="none" stroke="black" points="261,-1021 479,-1021 "/>
<text text-anchor="middle" x="370" y="-1008.9" font-family="Helvetica,sans-Serif" font-size="9.00"> </text>
<polyline fill="none" stroke="black" points="261,-1000 479,-1000 "/>
<text text-anchor="start" x="269" y="-987.9" font-family="Helvetica,sans-Serif" font-size="9.00">+ getCount()</text>
</a>
</g>
<!-- Node1&#45;&gt;Node3 -->
<g id="edge4" class="edge"><title>Node1&#45;&gt;Node3</title>
<path fill="none" stroke="midnightblue" d="M370,-1082.62C370,-1073.52 370,-1064.12 370,-1055.37"/>
<polygon fill="none" stroke="midnightblue" points="366.5,-1082.72 370,-1092.72 373.5,-1082.72 366.5,-1082.72"/>
</g>
<!-- Node7 -->
<g id="node13" class="node"><title>Node7</title>
<a xlink:href="../../dc/de6/a00167.htm" target="_top" xlink:title="global default implementation to get information about a simulation object ">
<polygon fill="none" stroke="black" points="521,-979 521,-1055 641,-1055 641,-979 521,-979"/>
<text text-anchor="start" x="529" y="-1042.9" font-family="Helvetica,sans-Serif" font-size="9.00">de.tu_clausthal.in.mec.ui.</text>
<text text-anchor="middle" x="581" y="-1029.9" font-family="Helvetica,sans-Serif" font-size="9.00">IInspectorDefault</text>
<polyline fill="none" stroke="black" points="521,-1021 641,-1021 "/>
<text text-anchor="start" x="529" y="-1008.9" font-family="Helvetica,sans-Serif" font-size="9.00">&#45; m_inspect</text>
<polyline fill="none" stroke="black" points="521,-1000 641,-1000 "/>
<text text-anchor="start" x="529" y="-987.9" font-family="Helvetica,sans-Serif" font-size="9.00">+ inspect()</text>
</a>
</g>
<!-- Node1&#45;&gt;Node7 -->
<g id="edge12" class="edge"><title>Node1&#45;&gt;Node7</title>
<path fill="none" stroke="midnightblue" d="M438.985,-1093.73C465.37,-1079.47 495.23,-1063.34 520.738,-1049.56"/>
<polygon fill="none" stroke="midnightblue" points="437.316,-1090.65 430.182,-1098.48 440.643,-1096.81 437.316,-1090.65"/>
</g>
<!-- Node4 -->
<g id="node7" class="node"><title>Node4</title>
<a xlink:href="../../d5/db6/a00042.htm" target="_top" xlink:title="generates a fixed number of cars ">
<polygon fill="none" stroke="black" points="0,-624.5 0,-765.5 218,-765.5 218,-624.5 0,-624.5"/>
<text text-anchor="start" x="8" y="-753.4" font-family="Helvetica,sans-Serif" font-size="9.00">de.tu_clausthal.in.mec.object.waypoint.generator.</text>
<text text-anchor="middle" x="109" y="-740.4" font-family="Helvetica,sans-Serif" font-size="9.00">CConstant</text>
<polyline fill="none" stroke="black" points="0,-731.5 218,-731.5 "/>
<text text-anchor="start" x="8" y="-719.4" font-family="Helvetica,sans-Serif" font-size="9.00">&#45; m_endstep</text>
<text text-anchor="start" x="8" y="-706.4" font-family="Helvetica,sans-Serif" font-size="9.00">&#45; m_inspect</text>
<text text-anchor="start" x="8" y="-693.4" font-family="Helvetica,sans-Serif" font-size="9.00">&#45; m_startstep</text>
<text text-anchor="start" x="8" y="-680.4" font-family="Helvetica,sans-Serif" font-size="9.00">&#45; m_stepobjects</text>
<polyline fill="none" stroke="black" points="0,-671.5 218,-671.5 "/>
<text text-anchor="start" x="8" y="-659.4" font-family="Helvetica,sans-Serif" font-size="9.00">+ CConstant()</text>
<text text-anchor="start" x="8" y="-646.4" font-family="Helvetica,sans-Serif" font-size="9.00">+ getCount()</text>
<text text-anchor="start" x="8" y="-633.4" font-family="Helvetica,sans-Serif" font-size="9.00">+ inspect()</text>
</a>
</g>
<!-- Node3&#45;&gt;Node4 -->
<g id="edge6" class="edge"><title>Node3&#45;&gt;Node4</title>
<path fill="none" stroke="midnightblue" d="M267.542,-973.816C252.812,-964.735 238.706,-954.152 227,-942 179.11,-892.286 147.577,-819.471 129.256,-765.773"/>
<polygon fill="none" stroke="midnightblue" points="265.887,-976.903 276.274,-978.99 269.455,-970.881 265.887,-976.903"/>
</g>
<!-- Node5 -->
<g id="node9" class="node"><title>Node5</title>
<a xlink:href="../../dd/d6d/a00111.htm" target="_top" xlink:title="generator of a static number of objects with a time&#45;exponential function ">
<polygon fill="none" stroke="black" points="236,-631 236,-759 454,-759 454,-631 236,-631"/>
<text text-anchor="start" x="244" y="-746.9" font-family="Helvetica,sans-Serif" font-size="9.00">de.tu_clausthal.in.mec.object.waypoint.generator.</text>
<text text-anchor="middle" x="345" y="-733.9" font-family="Helvetica,sans-Serif" font-size="9.00">CTimeDistribution</text>
<polyline fill="none" stroke="black" points="236,-725 454,-725 "/>
<text text-anchor="start" x="244" y="-712.9" font-family="Helvetica,sans-Serif" font-size="9.00">&#45; m_count</text>
<text text-anchor="start" x="244" y="-699.9" font-family="Helvetica,sans-Serif" font-size="9.00">&#45; m_distribution</text>
<text text-anchor="start" x="244" y="-686.9" font-family="Helvetica,sans-Serif" font-size="9.00">&#45; m_inspect</text>
<polyline fill="none" stroke="black" points="236,-678 454,-678 "/>
<text text-anchor="start" x="244" y="-665.9" font-family="Helvetica,sans-Serif" font-size="9.00">+ CTimeDistribution()</text>
<text text-anchor="start" x="244" y="-652.9" font-family="Helvetica,sans-Serif" font-size="9.00">+ getCount()</text>
<text text-anchor="start" x="244" y="-639.9" font-family="Helvetica,sans-Serif" font-size="9.00">+ inspect()</text>
</a>
</g>
<!-- Node3&#45;&gt;Node5 -->
<g id="edge8" class="edge"><title>Node3&#45;&gt;Node5</title>
<path fill="none" stroke="midnightblue" d="M366.26,-968.827C361.932,-913.083 354.787,-821.052 349.989,-759.252"/>
<polygon fill="none" stroke="midnightblue" points="362.77,-969.099 367.034,-978.798 369.749,-968.557 362.77,-969.099"/>
</g>
<!-- Node6 -->
<g id="node11" class="node"><title>Node6</title>
<a xlink:href="../../db/d57/a00112.htm" target="_top" xlink:title="profile generator to define a fixed histogram on the time steps ">
<polygon fill="none" stroke="black" points="472,-637.5 472,-752.5 690,-752.5 690,-637.5 472,-637.5"/>
<text text-anchor="start" x="480" y="-740.4" font-family="Helvetica,sans-Serif" font-size="9.00">de.tu_clausthal.in.mec.object.waypoint.generator.</text>
<text text-anchor="middle" x="581" y="-727.4" font-family="Helvetica,sans-Serif" font-size="9.00">CTimeProfile</text>
<polyline fill="none" stroke="black" points="472,-718.5 690,-718.5 "/>
<text text-anchor="start" x="480" y="-706.4" font-family="Helvetica,sans-Serif" font-size="9.00">~ m_histogram</text>
<text text-anchor="start" x="480" y="-693.4" font-family="Helvetica,sans-Serif" font-size="9.00">&#45; m_inspect</text>
<polyline fill="none" stroke="black" points="472,-684.5 690,-684.5 "/>
<text text-anchor="start" x="480" y="-672.4" font-family="Helvetica,sans-Serif" font-size="9.00">+ CTimeProfile()</text>
<text text-anchor="start" x="480" y="-659.4" font-family="Helvetica,sans-Serif" font-size="9.00">+ getCount()</text>
<text text-anchor="start" x="480" y="-646.4" font-family="Helvetica,sans-Serif" font-size="9.00">+ inspect()</text>
</a>
</g>
<!-- Node3&#45;&gt;Node6 -->
<g id="edge10" class="edge"><title>Node3&#45;&gt;Node6</title>
<path fill="none" stroke="midnightblue" d="M433.622,-972.126C444.222,-962.922 454.513,-952.737 463,-942 508.827,-884.025 542.519,-805.347 561.91,-752.508"/>
<polygon fill="none" stroke="midnightblue" points="431.268,-969.532 425.869,-978.648 435.775,-974.888 431.268,-969.532"/>
</g>
<!-- Node7&#45;&gt;Node4 -->
<g id="edge24" class="edge"><title>Node7&#45;&gt;Node4</title>
<path fill="none" stroke="midnightblue" d="M511.355,-985.522C503.574,-982.689 495.684,-980.102 488,-978 375.053,-947.097 321.543,-1011.09 227,-942 169.541,-900.009 138.927,-822.626 123.413,-765.625"/>
<polygon fill="none" stroke="midnightblue" points="510.178,-988.819 520.77,-989.084 512.655,-982.272 510.178,-988.819"/>
</g>
<!-- Node7&#45;&gt;Node5 -->
<g id="edge26" class="edge"><title>Node7&#45;&gt;Node5</title>
<path fill="none" stroke="midnightblue" d="M512.282,-982.35C494.68,-971.194 476.836,-957.612 463,-942 415.641,-888.56 383.226,-812.766 364.527,-759.266"/>
<polygon fill="none" stroke="midnightblue" points="510.531,-985.382 520.885,-987.629 514.192,-979.416 510.531,-985.382"/>
</g>
<!-- Node7&#45;&gt;Node6 -->
<g id="edge28" class="edge"><title>Node7&#45;&gt;Node6</title>
<path fill="none" stroke="midnightblue" d="M581,-968.474C581,-910.685 581,-814.263 581,-752.707"/>
<polygon fill="none" stroke="midnightblue" points="577.5,-968.798 581,-978.798 584.5,-968.798 577.5,-968.798"/>
</g>
<!-- Node8 -->
<g id="node15" class="node"><title>Node8</title>
<a xlink:href="../../d5/df9/a00044.htm" target="_top" xlink:title="class for a default car * ">
<polygon fill="none" stroke="black" points="708,-449 708,-941 860,-941 860,-449 708,-449"/>
<text text-anchor="start" x="716" y="-928.9" font-family="Helvetica,sans-Serif" font-size="9.00">de.tu_clausthal.in.mec.object.car.</text>
<text text-anchor="middle" x="784" y="-915.9" font-family="Helvetica,sans-Serif" font-size="9.00">CDefaultCar</text>
<polyline fill="none" stroke="black" points="708,-907 860,-907 "/>
<text text-anchor="start" x="716" y="-894.9" font-family="Helvetica,sans-Serif" font-size="9.00"># m_layer</text>
<text text-anchor="start" x="716" y="-881.9" font-family="Helvetica,sans-Serif" font-size="9.00"># m_maxspeed</text>
<text text-anchor="start" x="716" y="-868.9" font-family="Helvetica,sans-Serif" font-size="9.00"># m_route</text>
<text text-anchor="start" x="716" y="-855.9" font-family="Helvetica,sans-Serif" font-size="9.00"># m_routeindex</text>
<text text-anchor="start" x="716" y="-842.9" font-family="Helvetica,sans-Serif" font-size="9.00"># m_speed</text>
<text text-anchor="start" x="716" y="-829.9" font-family="Helvetica,sans-Serif" font-size="9.00">&#45; m_acceleration</text>
<text text-anchor="start" x="716" y="-816.9" font-family="Helvetica,sans-Serif" font-size="9.00">&#45; m_deceleration</text>
<text text-anchor="start" x="716" y="-803.9" font-family="Helvetica,sans-Serif" font-size="9.00">&#45; m_endreached</text>
<text text-anchor="start" x="716" y="-790.9" font-family="Helvetica,sans-Serif" font-size="9.00">&#45; m_inspect</text>
<text text-anchor="start" x="716" y="-777.9" font-family="Helvetica,sans-Serif" font-size="9.00">&#45; m_lingerprobability</text>
<polyline fill="none" stroke="black" points="708,-769 860,-769 "/>
<text text-anchor="start" x="716" y="-756.9" font-family="Helvetica,sans-Serif" font-size="9.00">+ CDefaultCar()</text>
<text text-anchor="start" x="716" y="-743.9" font-family="Helvetica,sans-Serif" font-size="9.00">+ getAcceleration()</text>
<text text-anchor="start" x="716" y="-730.9" font-family="Helvetica,sans-Serif" font-size="9.00">+ getCurrentSpeed()</text>
<text text-anchor="start" x="716" y="-717.9" font-family="Helvetica,sans-Serif" font-size="9.00">+ getDeceleration()</text>
<text text-anchor="start" x="716" y="-704.9" font-family="Helvetica,sans-Serif" font-size="9.00">+ getEdge()</text>
<text text-anchor="start" x="716" y="-691.9" font-family="Helvetica,sans-Serif" font-size="9.00">+ getGeoposition()</text>
<text text-anchor="start" x="716" y="-678.9" font-family="Helvetica,sans-Serif" font-size="9.00">+ getLingerProbability()</text>
<text text-anchor="start" x="716" y="-665.9" font-family="Helvetica,sans-Serif" font-size="9.00">+ getMaximumSpeed()</text>
<text text-anchor="start" x="716" y="-652.9" font-family="Helvetica,sans-Serif" font-size="9.00">+ getPredecessor()</text>
<text text-anchor="start" x="716" y="-639.9" font-family="Helvetica,sans-Serif" font-size="9.00">+ getPredecessor()</text>
<text text-anchor="start" x="716" y="-626.9" font-family="Helvetica,sans-Serif" font-size="9.00">+ hasEndReached()</text>
<text text-anchor="start" x="716" y="-613.9" font-family="Helvetica,sans-Serif" font-size="9.00">+ inspect()</text>
<text text-anchor="start" x="716" y="-600.9" font-family="Helvetica,sans-Serif" font-size="9.00">+ onClick()</text>
<text text-anchor="start" x="716" y="-587.9" font-family="Helvetica,sans-Serif" font-size="9.00">+ paint()</text>
<text text-anchor="start" x="716" y="-574.9" font-family="Helvetica,sans-Serif" font-size="9.00">+ release()</text>
<text text-anchor="start" x="716" y="-561.9" font-family="Helvetica,sans-Serif" font-size="9.00">+ setCurrentSpeed()</text>
<text text-anchor="start" x="716" y="-548.9" font-family="Helvetica,sans-Serif" font-size="9.00">+ step()</text>
<text text-anchor="start" x="716" y="-535.9" font-family="Helvetica,sans-Serif" font-size="9.00"># getCurrentPosition()</text>
<text text-anchor="start" x="716" y="-522.9" font-family="Helvetica,sans-Serif" font-size="9.00">&#45; getCurrentCarsOnEdge()</text>
<text text-anchor="start" x="716" y="-509.9" font-family="Helvetica,sans-Serif" font-size="9.00">&#45; getCurrentEdgeMaxSpeed()</text>
<text text-anchor="start" x="716" y="-496.9" font-family="Helvetica,sans-Serif" font-size="9.00">&#45; getEdge()</text>
<text text-anchor="start" x="716" y="-483.9" font-family="Helvetica,sans-Serif" font-size="9.00">&#45; getRouteLine()</text>
<text text-anchor="start" x="716" y="-470.9" font-family="Helvetica,sans-Serif" font-size="9.00">&#45; reroute()</text>
<text text-anchor="start" x="716" y="-457.9" font-family="Helvetica,sans-Serif" font-size="9.00">&#45; reroute()</text>
</a>
</g>
<!-- Node7&#45;&gt;Node8 -->
<g id="edge14" class="edge"><title>Node7&#45;&gt;Node8</title>
<path fill="none" stroke="midnightblue" d="M649.872,-984.028C667.831,-972.762 685.82,-958.704 699,-942 702.09,-938.084 705.072,-934.048 707.948,-929.91"/>
<polygon fill="none" stroke="midnightblue" points="647.833,-981.17 641.079,-989.333 651.449,-987.163 647.833,-981.17"/>
</g>
<!-- Node10 -->
<g id="node19" class="node"><title>Node10</title>
<a xlink:href="../../d3/df8/a00155.htm" target="_top" xlink:title="class to create an car factory object ">
<polygon fill="none" stroke="black" points="878,-624.5 878,-765.5 1084,-765.5 1084,-624.5 878,-624.5"/>
<text text-anchor="start" x="886" y="-753.4" font-family="Helvetica,sans-Serif" font-size="9.00">de.tu_clausthal.in.mec.object.waypoint.factory.</text>
<text text-anchor="middle" x="981" y="-740.4" font-family="Helvetica,sans-Serif" font-size="9.00">ICarFactory</text>
<polyline fill="none" stroke="black" points="878,-731.5 1084,-731.5 "/>
<text text-anchor="start" x="886" y="-719.4" font-family="Helvetica,sans-Serif" font-size="9.00"># m_weight</text>
<text text-anchor="start" x="886" y="-706.4" font-family="Helvetica,sans-Serif" font-size="9.00">&#45; m_graph</text>
<polyline fill="none" stroke="black" points="878,-697.5 1084,-697.5 "/>
<text text-anchor="start" x="886" y="-685.4" font-family="Helvetica,sans-Serif" font-size="9.00">+ generate()</text>
<text text-anchor="start" x="886" y="-672.4" font-family="Helvetica,sans-Serif" font-size="9.00"># ICarFactory()</text>
<text text-anchor="start" x="886" y="-659.4" font-family="Helvetica,sans-Serif" font-size="9.00"># ICarFactory()</text>
<text text-anchor="start" x="886" y="-646.4" font-family="Helvetica,sans-Serif" font-size="9.00"># generateRouteCells()</text>
<text text-anchor="start" x="886" y="-633.4" font-family="Helvetica,sans-Serif" font-size="9.00"># getCar()</text>
</a>
</g>
<!-- Node7&#45;&gt;Node10 -->
<g id="edge18" class="edge"><title>Node7&#45;&gt;Node10</title>
<path fill="none" stroke="midnightblue" d="M651.312,-1005.83C725.554,-992.809 836.304,-969.535 869,-942 922.392,-897.036 951.505,-821.316 966.554,-765.541"/>
<polygon fill="none" stroke="midnightblue" points="650.348,-1002.44 641.091,-1007.59 651.541,-1009.34 650.348,-1002.44"/>
</g>
<!-- Node13 -->
<g id="node28" class="node"><title>Node13</title>
<a xlink:href="../../d8/d72/a00199.htm" target="_top" xlink:title="abstract class for a waypoint ">
<polygon fill="none" stroke="black" points="1101.5,-520.5 1101.5,-869.5 1300.5,-869.5 1300.5,-520.5 1101.5,-520.5"/>
<text text-anchor="start" x="1109.5" y="-857.4" font-family="Helvetica,sans-Serif" font-size="9.00">de.tu_clausthal.in.mec.object.waypoint.point.</text>
<text text-anchor="start" x="1109.5" y="-844.4" font-family="Helvetica,sans-Serif" font-size="9.00">IWayPointBase&lt; T, P extends IFactory</text>
<text text-anchor="middle" x="1201" y="-831.4" font-family="Helvetica,sans-Serif" font-size="9.00">&lt; T &gt;, N extends IGenerator &gt;</text>
<polyline fill="none" stroke="black" points="1101.5,-822.5 1300.5,-822.5 "/>
<text text-anchor="start" x="1109.5" y="-810.4" font-family="Helvetica,sans-Serif" font-size="9.00"># m_factory</text>
<text text-anchor="start" x="1109.5" y="-797.4" font-family="Helvetica,sans-Serif" font-size="9.00"># m_generator</text>
<text text-anchor="start" x="1109.5" y="-784.4" font-family="Helvetica,sans-Serif" font-size="9.00"># m_visible</text>
<text text-anchor="start" x="1109.5" y="-771.4" font-family="Helvetica,sans-Serif" font-size="9.00">&#45; m_color</text>
<text text-anchor="start" x="1109.5" y="-758.4" font-family="Helvetica,sans-Serif" font-size="9.00">&#45; m_initializeimage</text>
<text text-anchor="start" x="1109.5" y="-745.4" font-family="Helvetica,sans-Serif" font-size="9.00">&#45; m_inspect</text>
<text text-anchor="start" x="1109.5" y="-732.4" font-family="Helvetica,sans-Serif" font-size="9.00">&#45; m_lastZoom</text>
<text text-anchor="start" x="1109.5" y="-719.4" font-family="Helvetica,sans-Serif" font-size="9.00">&#45; m_name</text>
<text text-anchor="start" x="1109.5" y="-706.4" font-family="Helvetica,sans-Serif" font-size="9.00">&#45; m_position</text>
<text text-anchor="start" x="1109.5" y="-693.4" font-family="Helvetica,sans-Serif" font-size="9.00">&#45; m_scaledimage</text>
<polyline fill="none" stroke="black" points="1101.5,-684.5 1300.5,-684.5 "/>
<text text-anchor="start" x="1109.5" y="-672.4" font-family="Helvetica,sans-Serif" font-size="9.00">+ IWayPointBase()</text>
<text text-anchor="start" x="1109.5" y="-659.4" font-family="Helvetica,sans-Serif" font-size="9.00">+ IWayPointBase()</text>
<text text-anchor="start" x="1109.5" y="-646.4" font-family="Helvetica,sans-Serif" font-size="9.00">+ getColor()</text>
<text text-anchor="start" x="1109.5" y="-633.4" font-family="Helvetica,sans-Serif" font-size="9.00">+ getName()</text>
<text text-anchor="start" x="1109.5" y="-620.4" font-family="Helvetica,sans-Serif" font-size="9.00">+ getPosition()</text>
<text text-anchor="start" x="1109.5" y="-607.4" font-family="Helvetica,sans-Serif" font-size="9.00">+ getScaledImage()</text>
<text text-anchor="start" x="1109.5" y="-594.4" font-family="Helvetica,sans-Serif" font-size="9.00">+ hasFactoryGenerator()</text>
<text text-anchor="start" x="1109.5" y="-581.4" font-family="Helvetica,sans-Serif" font-size="9.00">+ inspect()</text>
<text text-anchor="start" x="1109.5" y="-568.4" font-family="Helvetica,sans-Serif" font-size="9.00">+ onClick()</text>
<text text-anchor="start" x="1109.5" y="-555.4" font-family="Helvetica,sans-Serif" font-size="9.00">+ paint()</text>
<text text-anchor="start" x="1109.5" y="-542.4" font-family="Helvetica,sans-Serif" font-size="9.00">+ step()</text>
<text text-anchor="start" x="1109.5" y="-529.4" font-family="Helvetica,sans-Serif" font-size="9.00">&#45; initializeImage()</text>
</a>
</g>
<!-- Node7&#45;&gt;Node13 -->
<g id="edge30" class="edge"><title>Node7&#45;&gt;Node13</title>
<path fill="none" stroke="midnightblue" d="M651.243,-1014.97C774.947,-1010.08 1025.02,-993.896 1093,-942 1117.74,-923.114 1136.91,-897.373 1151.74,-869.613"/>
<polygon fill="none" stroke="midnightblue" points="650.976,-1011.48 641.117,-1015.36 651.243,-1018.48 650.976,-1011.48"/>
</g>
<!-- Node9 -->
<g id="node17" class="node"><title>Node9</title>
<a xlink:href="../../dc/de2/a00024.htm" target="_top" xlink:title="agent car ">
<polygon fill="none" stroke="black" points="708,-166.5 708,-411.5 860,-411.5 860,-166.5 708,-166.5"/>
<text text-anchor="start" x="716" y="-399.4" font-family="Helvetica,sans-Serif" font-size="9.00">de.tu_clausthal.in.mec.object.car.</text>
<text text-anchor="middle" x="784" y="-386.4" font-family="Helvetica,sans-Serif" font-size="9.00">CCarJasonAgent</text>
<polyline fill="none" stroke="black" points="708,-377.5 860,-377.5 "/>
<text text-anchor="start" x="716" y="-365.4" font-family="Helvetica,sans-Serif" font-size="9.00">&#45; m_agentlayer</text>
<text text-anchor="start" x="716" y="-352.4" font-family="Helvetica,sans-Serif" font-size="9.00">&#45; m_agents</text>
<text text-anchor="start" x="716" y="-339.4" font-family="Helvetica,sans-Serif" font-size="9.00">&#45; m_inspect</text>
<text text-anchor="start" x="716" y="-326.4" font-family="Helvetica,sans-Serif" font-size="9.00">&#45; m_objectpath</text>
<text text-anchor="start" x="716" y="-313.4" font-family="Helvetica,sans-Serif" font-size="9.00">&#45; m_seenpredecessors</text>
<text text-anchor="start" x="716" y="-300.4" font-family="Helvetica,sans-Serif" font-size="9.00">&#45; m_trafficbeliefbase</text>
<polyline fill="none" stroke="black" points="708,-291.5 860,-291.5 "/>
<text text-anchor="start" x="716" y="-279.4" font-family="Helvetica,sans-Serif" font-size="9.00">+ CCarJasonAgent()</text>
<text text-anchor="start" x="716" y="-266.4" font-family="Helvetica,sans-Serif" font-size="9.00">+ CCarJasonAgent()</text>
<text text-anchor="start" x="716" y="-253.4" font-family="Helvetica,sans-Serif" font-size="9.00">+ getReceiverPath()</text>
<text text-anchor="start" x="716" y="-240.4" font-family="Helvetica,sans-Serif" font-size="9.00">+ inspect()</text>
<text text-anchor="start" x="716" y="-227.4" font-family="Helvetica,sans-Serif" font-size="9.00">+ receiveMessage()</text>
<text text-anchor="start" x="716" y="-214.4" font-family="Helvetica,sans-Serif" font-size="9.00">+ release()</text>
<text text-anchor="start" x="716" y="-201.4" font-family="Helvetica,sans-Serif" font-size="9.00">+ step()</text>
<text text-anchor="start" x="716" y="-188.4" font-family="Helvetica,sans-Serif" font-size="9.00">&#45; bind()</text>
<text text-anchor="start" x="716" y="-175.4" font-family="Helvetica,sans-Serif" font-size="9.00">&#45; getPredecessorWithName()</text>
</a>
</g>
<!-- Node8&#45;&gt;Node9 -->
<g id="edge16" class="edge"><title>Node8&#45;&gt;Node9</title>
<path fill="none" stroke="midnightblue" d="M784,-438.848C784,-429.656 784,-420.621 784,-411.825"/>
<polygon fill="none" stroke="midnightblue" points="780.5,-438.879 784,-448.879 787.5,-438.879 780.5,-438.879"/>
</g>
<!-- Node11 -->
<g id="node21" class="node"><title>Node11</title>
<a xlink:href="../../d6/d97/a00045.htm" target="_top" xlink:title="class for generating cars with a distribution of the attributes ">
<polygon fill="none" stroke="black" points="878,-205.5 878,-372.5 1084,-372.5 1084,-205.5 878,-205.5"/>
<text text-anchor="start" x="886" y="-360.4" font-family="Helvetica,sans-Serif" font-size="9.00">de.tu_clausthal.in.mec.object.waypoint.factory.</text>
<text text-anchor="middle" x="981" y="-347.4" font-family="Helvetica,sans-Serif" font-size="9.00">CDefaultCarFactory</text>
<polyline fill="none" stroke="black" points="878,-338.5 1084,-338.5 "/>
<text text-anchor="start" x="886" y="-326.4" font-family="Helvetica,sans-Serif" font-size="9.00"># m_acceleration</text>
<text text-anchor="start" x="886" y="-313.4" font-family="Helvetica,sans-Serif" font-size="9.00"># m_deceleration</text>
<text text-anchor="start" x="886" y="-300.4" font-family="Helvetica,sans-Serif" font-size="9.00"># m_lingerdistribution</text>
<text text-anchor="start" x="886" y="-287.4" font-family="Helvetica,sans-Serif" font-size="9.00"># m_maxspeed</text>
<text text-anchor="start" x="886" y="-274.4" font-family="Helvetica,sans-Serif" font-size="9.00"># m_speedfactor</text>
<text text-anchor="start" x="886" y="-261.4" font-family="Helvetica,sans-Serif" font-size="9.00">&#45; m_inspect</text>
<polyline fill="none" stroke="black" points="878,-252.5 1084,-252.5 "/>
<text text-anchor="start" x="886" y="-240.4" font-family="Helvetica,sans-Serif" font-size="9.00">+ CDefaultCarFactory()</text>
<text text-anchor="start" x="886" y="-227.4" font-family="Helvetica,sans-Serif" font-size="9.00">+ inspect()</text>
<text text-anchor="start" x="886" y="-214.4" font-family="Helvetica,sans-Serif" font-size="9.00"># getCar()</text>
</a>
</g>
<!-- Node10&#45;&gt;Node11 -->
<g id="edge20" class="edge"><title>Node10&#45;&gt;Node11</title>
<path fill="none" stroke="midnightblue" d="M981,-614.186C981,-544.2 981,-443.36 981,-372.577"/>
<polygon fill="none" stroke="midnightblue" points="977.5,-614.28 981,-624.28 984.5,-614.28 977.5,-614.28"/>
</g>
<!-- Node12 -->
<g id="node23" class="node"><title>Node12</title>
<a xlink:href="../../d4/dee/a00008.htm" target="_top" xlink:title="class to generate Jason cars with a distribution of the attributes ">
<polygon fill="none" stroke="black" points="878,-1 878,-129 1084,-129 1084,-1 878,-1"/>
<text text-anchor="start" x="886" y="-116.9" font-family="Helvetica,sans-Serif" font-size="9.00">de.tu_clausthal.in.mec.object.waypoint.factory.</text>
<text text-anchor="middle" x="981" y="-103.9" font-family="Helvetica,sans-Serif" font-size="9.00">CAgentCarFactory</text>
<polyline fill="none" stroke="black" points="878,-95 1084,-95 "/>
<text text-anchor="start" x="886" y="-82.9" font-family="Helvetica,sans-Serif" font-size="9.00">&#45; m_agent</text>
<text text-anchor="start" x="886" y="-69.9" font-family="Helvetica,sans-Serif" font-size="9.00">&#45; m_agenttype</text>
<text text-anchor="start" x="886" y="-56.9" font-family="Helvetica,sans-Serif" font-size="9.00">&#45; m_inspect</text>
<polyline fill="none" stroke="black" points="878,-48 1084,-48 "/>
<text text-anchor="start" x="886" y="-35.9" font-family="Helvetica,sans-Serif" font-size="9.00">+ CAgentCarFactory()</text>
<text text-anchor="start" x="886" y="-22.9" font-family="Helvetica,sans-Serif" font-size="9.00">+ inspect()</text>
<text text-anchor="start" x="886" y="-9.9" font-family="Helvetica,sans-Serif" font-size="9.00"># getCar()</text>
</a>
</g>
<!-- Node11&#45;&gt;Node12 -->
<g id="edge22" class="edge"><title>Node11&#45;&gt;Node12</title>
<path fill="none" stroke="midnightblue" d="M981,-195.126C981,-172.864 981,-149.621 981,-129.041"/>
<polygon fill="none" stroke="midnightblue" points="977.5,-195.272 981,-205.272 984.5,-195.272 977.5,-195.272"/>
</g>
</g>
</svg>
