<?xml version="1.0" encoding="UTF-8" standalone="no"?>
<!DOCTYPE svg PUBLIC "-//W3C//DTD SVG 1.1//EN"
 "http://www.w3.org/Graphics/SVG/1.1/DTD/svg11.dtd">
<!-- Generated by graphviz version 2.26.3 (20100126.1600)
 -->
<!-- Title: de.tu_clausthal.in.mec.object.analysis.CEvaluationStore.CCollectorFundamentalDiagram Pages: 1 -->
<svg width="232pt" height="440pt"
 viewBox="0.00 0.00 232.00 440.00" xmlns="http://www.w3.org/2000/svg" xmlns:xlink="http://www.w3.org/1999/xlink">
<g id="graph1" class="graph" transform="scale(1 1) rotate(0) translate(4 436)">
<title>de.tu_clausthal.in.mec.object.analysis.CEvaluationStore.CCollectorFundamentalDiagram</title>
<!-- Node1 -->
<g id="node1" class="node"><title>Node1</title>
<polygon fill="#bfbfbf" stroke="black" points="0,-0.5 0,-89.5 224,-89.5 224,-0.5 0,-0.5"/>
<text text-anchor="start" x="8" y="-77.4" font-family="Helvetica,sans-Serif" font-size="9.00">de.tu_clausthal.in.mec.object.analysis.</text>
<text text-anchor="middle" x="112" y="-64.4" font-family="Helvetica,sans-Serif" font-size="9.00">CEvaluationStore.CCollectorFundamentalDiagram</text>
<polyline fill="none" stroke="black" points="0,-55.5 224,-55.5 "/>
<text text-anchor="start" x="8" y="-43.4" font-family="Helvetica,sans-Serif" font-size="9.00">&#45; m_statement</text>
<polyline fill="none" stroke="black" points="0,-34.5 224,-34.5 "/>
<text text-anchor="start" x="8" y="-22.4" font-family="Helvetica,sans-Serif" font-size="9.00">+ CCollectorFundamentalDiagram()</text>
<text text-anchor="start" x="8" y="-9.4" font-family="Helvetica,sans-Serif" font-size="9.00">+ step()</text>
</g>
<!-- Node2 -->
<g id="node2" class="node"><title>Node2</title>
<a xlink:href="../../d6/db3/a00130.htm" target="_top" xlink:title="worker class to push data to the database * ">
<polygon fill="none" stroke="black" points="25.5,-127 25.5,-203 198.5,-203 198.5,-127 25.5,-127"/>
<text text-anchor="start" x="33.5" y="-190.9" font-family="Helvetica,sans-Serif" font-size="9.00">de.tu_clausthal.in.mec.object.analysis.</text>
<text text-anchor="middle" x="112" y="-177.9" font-family="Helvetica,sans-Serif" font-size="9.00">IDatabase.CWorker</text>
<polyline fill="none" stroke="black" points="25.5,-169 198.5,-169 "/>
<text text-anchor="middle" x="112" y="-156.9" font-family="Helvetica,sans-Serif" font-size="9.00"> </text>
<polyline fill="none" stroke="black" points="25.5,-148 198.5,-148 "/>
<text text-anchor="start" x="33.5" y="-135.9" font-family="Helvetica,sans-Serif" font-size="9.00">+ release()</text>
</a>
</g>
<!-- Node2&#45;&gt;Node1 -->
<g id="edge2" class="edge"><title>Node2&#45;&gt;Node1</title>
<path fill="none" stroke="midnightblue" d="M112,-116.489C112,-107.611 112,-98.3852 112,-89.6276"/>
<polygon fill="none" stroke="midnightblue" points="108.5,-116.701 112,-126.701 115.5,-116.701 108.5,-116.701"/>
</g>
<!-- Node3 -->
<g id="node4" class="node"><title>Node3</title>
<a xlink:href="../../de/db1/a00197.htm" target="_top" xlink:title="interface of void&#45;step method ">
<polygon fill="none" stroke="black" points="40.5,-241 40.5,-317 183.5,-317 183.5,-241 40.5,-241"/>
<text text-anchor="start" x="48.5" y="-304.9" font-family="Helvetica,sans-Serif" font-size="9.00">de.tu_clausthal.in.mec.runtime.</text>
<text text-anchor="middle" x="112" y="-291.9" font-family="Helvetica,sans-Serif" font-size="9.00">IVoidSteppable</text>
<polyline fill="none" stroke="black" points="40.5,-283 183.5,-283 "/>
<text text-anchor="middle" x="112" y="-270.9" font-family="Helvetica,sans-Serif" font-size="9.00"> </text>
<polyline fill="none" stroke="black" points="40.5,-262 183.5,-262 "/>
<text text-anchor="start" x="48.5" y="-249.9" font-family="Helvetica,sans-Serif" font-size="9.00">+ step()</text>
</a>
</g>
<!-- Node3&#45;&gt;Node2 -->
<g id="edge4" class="edge"><title>Node3&#45;&gt;Node2</title>
<path fill="none" stroke="midnightblue" d="M112,-230.623C112,-221.52 112,-212.117 112,-203.371"/>
<polygon fill="none" stroke="midnightblue" points="108.5,-230.722 112,-240.723 115.5,-230.723 108.5,-230.722"/>
</g>
<!-- Node4 -->
<g id="node6" class="node"><title>Node4</title>
<a xlink:href="../../da/d15/a00188.htm" target="_top" xlink:title="interface for all objects which are triggered by the simulation worker ">
<polygon fill="none" stroke="black" points="40.5,-355 40.5,-431 183.5,-431 183.5,-355 40.5,-355"/>
<text text-anchor="start" x="48.5" y="-418.9" font-family="Helvetica,sans-Serif" font-size="9.00">de.tu_clausthal.in.mec.runtime.</text>
<text text-anchor="middle" x="112" y="-405.9" font-family="Helvetica,sans-Serif" font-size="9.00">ISteppable</text>
<polyline fill="none" stroke="black" points="40.5,-397 183.5,-397 "/>
<text text-anchor="middle" x="112" y="-384.9" font-family="Helvetica,sans-Serif" font-size="9.00"> </text>
<polyline fill="none" stroke="black" points="40.5,-376 183.5,-376 "/>
<text text-anchor="start" x="48.5" y="-363.9" font-family="Helvetica,sans-Serif" font-size="9.00">+ release()</text>
</a>
</g>
<!-- Node4&#45;&gt;Node3 -->
<g id="edge6" class="edge"><title>Node4&#45;&gt;Node3</title>
<path fill="none" stroke="midnightblue" d="M112,-344.623C112,-335.52 112,-326.117 112,-317.371"/>
<polygon fill="none" stroke="midnightblue" points="108.5,-344.722 112,-354.723 115.5,-344.723 108.5,-344.722"/>
</g>
</g>
</svg>
