<?xml version="1.0" encoding="UTF-8" standalone="no"?>
<!DOCTYPE svg PUBLIC "-//W3C//DTD SVG 1.1//EN"
 "http://www.w3.org/Graphics/SVG/1.1/DTD/svg11.dtd">
<!-- Generated by graphviz version 2.26.3 (20100126.1600)
 -->
<!-- Title: de.tu_clausthal.in.mec.object.waypoint.factory.CAgentCarFactory Pages: 1 -->
<!--zoomable 1246 -->
<svg id="main" version="1.1" xmlns="http://www.w3.org/2000/svg" xmlns:xlink="http://www.w3.org/1999/xlink" xml:space="preserve" onload="init(evt)">
<style type="text/css"><![CDATA[
.edge:hover path { stroke: red; }
.edge:hover polygon { stroke: red; fill: red; }
]]></style>
<script type="text/javascript"><![CDATA[
var edges = document.getElementsByTagName('g');
if (edges && edges.length) {
  for (var i=0;i<edges.length;i++) {
    if (edges[i].id.substr(0,4)=='edge') {
      edges[i].setAttribute('class','edge');
    }
  }
}
]]></script>
        <defs>
                <circle id="rim" cx="0" cy="0" r="7"/>
                <circle id="rim2" cx="0" cy="0" r="3.5"/>
                <g id="zoomPlus">
                        <use xlink:href="#rim" fill="#404040">
                                <set attributeName="fill" to="#808080" begin="zoomplus.mouseover" end="zoomplus.mouseout"/>
                        </use>
                        <path d="M-4,0h8M0,-4v8" fill="none" stroke="white" stroke-width="1.5" pointer-events="none"/>
                </g>
                <g id="zoomMin">
                        <use xlink:href="#rim" fill="#404040">
                                <set attributeName="fill" to="#808080" begin="zoomminus.mouseover" end="zoomminus.mouseout"/>
                        </use>
                        <path d="M-4,0h8" fill="none" stroke="white" stroke-width="1.5" pointer-events="none"/>
                </g>
                <g id="dirArrow">
                        <path fill="none" stroke="white" stroke-width="1.5" d="M0,-3.0v7 M-2.5,-0.5L0,-3.0L2.5,-0.5"/>
                </g>
               <g id="resetDef">
                       <use xlink:href="#rim2" fill="#404040">
                               <set attributeName="fill" to="#808080" begin="reset.mouseover" end="reset.mouseout"/>
                       </use>
               </g>
        </defs>

<script type="text/javascript">
var viewWidth = 539;
var viewHeight = 1246;
var sectionId = 'dynsection-1';
</script>
<script xlink:href="../../svgpan.js"/>
<svg id="graph" class="graph">
<g id="viewport">
<title>de.tu_clausthal.in.mec.object.waypoint.factory.CAgentCarFactory</title>
<!-- Node1 -->
<g id="node1" class="node"><title>Node1</title>
<polygon fill="#bfbfbf" stroke="black" points="300,-0.5 300,-115.5 506,-115.5 506,-0.5 300,-0.5"/>
<text text-anchor="start" x="308" y="-103.4" font-family="Helvetica,sans-Serif" font-size="9.00">de.tu_clausthal.in.mec.object.waypoint.factory.</text>
<text text-anchor="middle" x="403" y="-90.4" font-family="Helvetica,sans-Serif" font-size="9.00">CAgentCarFactory</text>
<polyline fill="none" stroke="black" points="300,-81.5 506,-81.5 "/>
<text text-anchor="start" x="308" y="-69.4" font-family="Helvetica,sans-Serif" font-size="9.00">&#45; m_agent</text>
<text text-anchor="start" x="308" y="-56.4" font-family="Helvetica,sans-Serif" font-size="9.00">&#45; m_inspect</text>
<polyline fill="none" stroke="black" points="300,-47.5 506,-47.5 "/>
<text text-anchor="start" x="308" y="-35.4" font-family="Helvetica,sans-Serif" font-size="9.00">+ CAgentCarFactory()</text>
<text text-anchor="start" x="308" y="-22.4" font-family="Helvetica,sans-Serif" font-size="9.00">+ inspect()</text>
<text text-anchor="start" x="308" y="-9.4" font-family="Helvetica,sans-Serif" font-size="9.00"># getCar()</text>
</g>
<!-- Node2 -->
<g id="node2" class="node"><title>Node2</title>
<a xlink:href="../../d6/d97/a00045.htm" target="_top" xlink:title="class for generating cars with a distribution of the attributes ">
<polygon fill="none" stroke="black" points="151,-166.5 151,-333.5 357,-333.5 357,-166.5 151,-166.5"/>
<text text-anchor="start" x="159" y="-321.4" font-family="Helvetica,sans-Serif" font-size="9.00">de.tu_clausthal.in.mec.object.waypoint.factory.</text>
<text text-anchor="middle" x="254" y="-308.4" font-family="Helvetica,sans-Serif" font-size="9.00">CDefaultCarFactory</text>
<polyline fill="none" stroke="black" points="151,-299.5 357,-299.5 "/>
<text text-anchor="start" x="159" y="-287.4" font-family="Helvetica,sans-Serif" font-size="9.00"># m_acceleration</text>
<text text-anchor="start" x="159" y="-274.4" font-family="Helvetica,sans-Serif" font-size="9.00"># m_deceleration</text>
<text text-anchor="start" x="159" y="-261.4" font-family="Helvetica,sans-Serif" font-size="9.00"># m_lingerdistribution</text>
<text text-anchor="start" x="159" y="-248.4" font-family="Helvetica,sans-Serif" font-size="9.00"># m_maxspeed</text>
<text text-anchor="start" x="159" y="-235.4" font-family="Helvetica,sans-Serif" font-size="9.00"># m_speedfactor</text>
<text text-anchor="start" x="159" y="-222.4" font-family="Helvetica,sans-Serif" font-size="9.00">&#45; m_inspect</text>
<polyline fill="none" stroke="black" points="151,-213.5 357,-213.5 "/>
<text text-anchor="start" x="159" y="-201.4" font-family="Helvetica,sans-Serif" font-size="9.00">+ CDefaultCarFactory()</text>
<text text-anchor="start" x="159" y="-188.4" font-family="Helvetica,sans-Serif" font-size="9.00">+ inspect()</text>
<text text-anchor="start" x="159" y="-175.4" font-family="Helvetica,sans-Serif" font-size="9.00"># getCar()</text>
</a>
</g>
<!-- Node2&#45;&gt;Node1 -->
<g id="edge2" class="edge"><title>Node2&#45;&gt;Node1</title>
<path fill="none" stroke="midnightblue" d="M325.156,-158.309C336.412,-143.805 347.77,-129.169 358.199,-115.73"/>
<polygon fill="none" stroke="midnightblue" points="322.286,-156.299 318.92,-166.345 327.816,-160.59 322.286,-156.299"/>
</g>
<!-- Node3 -->
<g id="node4" class="node"><title>Node3</title>
<a xlink:href="../../d3/df8/a00155.htm" target="_top" xlink:title="class to create an car factory object ">
<polygon fill="none" stroke="black" points="151,-373 151,-501 357,-501 357,-373 151,-373"/>
<text text-anchor="start" x="159" y="-488.9" font-family="Helvetica,sans-Serif" font-size="9.00">de.tu_clausthal.in.mec.object.waypoint.factory.</text>
<text text-anchor="middle" x="254" y="-475.9" font-family="Helvetica,sans-Serif" font-size="9.00">ICarFactory</text>
<polyline fill="none" stroke="black" points="151,-467 357,-467 "/>
<text text-anchor="middle" x="254" y="-454.9" font-family="Helvetica,sans-Serif" font-size="9.00"> </text>
<polyline fill="none" stroke="black" points="151,-446 357,-446 "/>
<text text-anchor="start" x="159" y="-433.9" font-family="Helvetica,sans-Serif" font-size="9.00">+ generate()</text>
<text text-anchor="start" x="159" y="-420.9" font-family="Helvetica,sans-Serif" font-size="9.00"># ICarFactory()</text>
<text text-anchor="start" x="159" y="-407.9" font-family="Helvetica,sans-Serif" font-size="9.00"># ICarFactory()</text>
<text text-anchor="start" x="159" y="-394.9" font-family="Helvetica,sans-Serif" font-size="9.00"># generateRouteCells()</text>
<text text-anchor="start" x="159" y="-381.9" font-family="Helvetica,sans-Serif" font-size="9.00"># getCar()</text>
</a>
</g>
<!-- Node3&#45;&gt;Node2 -->
<g id="edge4" class="edge"><title>Node3&#45;&gt;Node2</title>
<path fill="none" stroke="midnightblue" d="M254,-362.646C254,-353.071 254,-343.216 254,-333.506"/>
<polygon fill="none" stroke="midnightblue" points="250.5,-362.907 254,-372.907 257.5,-362.907 250.5,-362.907"/>
</g>
<!-- Node4 -->
<g id="node6" class="node"><title>Node4</title>
<a xlink:href="../../dc/de6/a00167.htm" target="_top" xlink:title="global default implementation to get information about a simulation object ">
<polygon fill="none" stroke="black" points="69,-740 69,-816 189,-816 189,-740 69,-740"/>
<text text-anchor="start" x="77" y="-803.9" font-family="Helvetica,sans-Serif" font-size="9.00">de.tu_clausthal.in.mec.ui.</text>
<text text-anchor="middle" x="129" y="-790.9" font-family="Helvetica,sans-Serif" font-size="9.00">IInspectorDefault</text>
<polyline fill="none" stroke="black" points="69,-782 189,-782 "/>
<text text-anchor="start" x="77" y="-769.9" font-family="Helvetica,sans-Serif" font-size="9.00">&#45; m_inspect</text>
<polyline fill="none" stroke="black" points="69,-761 189,-761 "/>
<text text-anchor="start" x="77" y="-748.9" font-family="Helvetica,sans-Serif" font-size="9.00">+ inspect()</text>
</a>
</g>
<!-- Node4&#45;&gt;Node3 -->
<g id="edge6" class="edge"><title>Node4&#45;&gt;Node3</title>
<path fill="none" stroke="midnightblue" d="M142.95,-729.915C155.992,-686.218 176.62,-620.187 198,-564 205.884,-543.28 215.334,-521.051 224.206,-501.072"/>
<polygon fill="none" stroke="midnightblue" points="139.534,-729.122 140.043,-739.705 146.245,-731.115 139.534,-729.122"/>
</g>
<!-- Node5 -->
<g id="node8" class="node"><title>Node5</title>
<a xlink:href="../../dd/df4/a00193.htm" target="_top" xlink:title="class to handle UI events with encapsulate the default lister structures ">
<polygon fill="none" stroke="black" points="0,-1031 0,-1237 120,-1237 120,-1031 0,-1031"/>
<text text-anchor="start" x="8" y="-1224.9" font-family="Helvetica,sans-Serif" font-size="9.00">de.tu_clausthal.in.mec.ui.</text>
<text text-anchor="middle" x="60" y="-1211.9" font-family="Helvetica,sans-Serif" font-size="9.00">IUIListener</text>
<polyline fill="none" stroke="black" points="0,-1203 120,-1203 "/>
<text text-anchor="start" x="8" y="-1190.9" font-family="Helvetica,sans-Serif" font-size="9.00"># c_maxzoom</text>
<text text-anchor="start" x="8" y="-1177.9" font-family="Helvetica,sans-Serif" font-size="9.00"># c_miniconsize</text>
<polyline fill="none" stroke="black" points="0,-1169 120,-1169 "/>
<text text-anchor="start" x="8" y="-1156.9" font-family="Helvetica,sans-Serif" font-size="9.00">+ IUIListener()</text>
<text text-anchor="start" x="8" y="-1143.9" font-family="Helvetica,sans-Serif" font-size="9.00">+ mouseClicked()</text>
<text text-anchor="start" x="8" y="-1130.9" font-family="Helvetica,sans-Serif" font-size="9.00">+ mouseEntered()</text>
<text text-anchor="start" x="8" y="-1117.9" font-family="Helvetica,sans-Serif" font-size="9.00">+ mouseExited()</text>
<text text-anchor="start" x="8" y="-1104.9" font-family="Helvetica,sans-Serif" font-size="9.00">+ mousePressed()</text>
<text text-anchor="start" x="8" y="-1091.9" font-family="Helvetica,sans-Serif" font-size="9.00">+ mouseReleased()</text>
<text text-anchor="start" x="8" y="-1078.9" font-family="Helvetica,sans-Serif" font-size="9.00">+ onClick()</text>
<text text-anchor="start" x="8" y="-1065.9" font-family="Helvetica,sans-Serif" font-size="9.00">+ release()</text>
<text text-anchor="start" x="8" y="-1052.9" font-family="Helvetica,sans-Serif" font-size="9.00"># iconscale()</text>
<text text-anchor="start" x="8" y="-1039.9" font-family="Helvetica,sans-Serif" font-size="9.00"># iconsize()</text>
</a>
</g>
<!-- Node5&#45;&gt;Node4 -->
<g id="edge8" class="edge"><title>Node5&#45;&gt;Node4</title>
<path fill="none" stroke="midnightblue" d="M82.0328,-1020.32C95.6245,-950.198 112.199,-864.684 121.582,-816.271"/>
<polygon fill="none" stroke="midnightblue" points="78.5172,-1020.07 80.0503,-1030.55 85.3893,-1021.4 78.5172,-1020.07"/>
</g>
<!-- Node6 -->
<g id="node10" class="node"><title>Node6</title>
<a xlink:href="../../d9/d38/a00166.htm" target="_top" xlink:title="global interface to read information about a simulation object ">
<polygon fill="none" stroke="black" points="138,-1096 138,-1172 258,-1172 258,-1096 138,-1096"/>
<text text-anchor="start" x="146" y="-1159.9" font-family="Helvetica,sans-Serif" font-size="9.00">de.tu_clausthal.in.mec.ui.</text>
<text text-anchor="middle" x="198" y="-1146.9" font-family="Helvetica,sans-Serif" font-size="9.00">IInspector</text>
<polyline fill="none" stroke="black" points="138,-1138 258,-1138 "/>
<text text-anchor="middle" x="198" y="-1125.9" font-family="Helvetica,sans-Serif" font-size="9.00"> </text>
<polyline fill="none" stroke="black" points="138,-1117 258,-1117 "/>
<text text-anchor="start" x="146" y="-1104.9" font-family="Helvetica,sans-Serif" font-size="9.00">+ inspect()</text>
</a>
</g>
<!-- Node6&#45;&gt;Node4 -->
<g id="edge10" class="edge"><title>Node6&#45;&gt;Node4</title>
<path fill="none" stroke="midnightblue" d="M188.658,-1085.8C174.787,-1014.23 149.024,-881.312 136.383,-816.093"/>
<polygon fill="none" stroke="midnightblue" points="185.277,-1086.75 190.616,-1095.9 192.149,-1085.42 185.277,-1086.75"/>
</g>
<!-- Node7 -->
<g id="node12" class="node"><title>Node7</title>
<a xlink:href="../../dc/dee/a00053.htm" target="_top" xlink:title="class for create a graph structure of OSM data, the class downloads the data and creates edges and ve...">
<polygon fill="none" stroke="black" points="206.5,-564.5 206.5,-991.5 385.5,-991.5 385.5,-564.5 206.5,-564.5"/>
<text text-anchor="start" x="214.5" y="-979.4" font-family="Helvetica,sans-Serif" font-size="9.00">de.tu_clausthal.in.mec.object.car.graph.</text>
<text text-anchor="middle" x="296" y="-966.4" font-family="Helvetica,sans-Serif" font-size="9.00">CGraphHopper</text>
<polyline fill="none" stroke="black" points="206.5,-957.5 385.5,-957.5 "/>
<text text-anchor="start" x="214.5" y="-945.4" font-family="Helvetica,sans-Serif" font-size="9.00">&#45; m_cellsize</text>
<text text-anchor="start" x="214.5" y="-932.4" font-family="Helvetica,sans-Serif" font-size="9.00">&#45; m_edgecell</text>
<text text-anchor="start" x="214.5" y="-919.4" font-family="Helvetica,sans-Serif" font-size="9.00">&#45; m_edgelister</text>
<text text-anchor="start" x="214.5" y="-906.4" font-family="Helvetica,sans-Serif" font-size="9.00">&#45; m_weights</text>
<text text-anchor="start" x="214.5" y="-893.4" font-family="Helvetica,sans-Serif" font-size="9.00">&#45; c_defaultflagencoding</text>
<polyline fill="none" stroke="black" points="206.5,-884.5 385.5,-884.5 "/>
<text text-anchor="start" x="214.5" y="-872.4" font-family="Helvetica,sans-Serif" font-size="9.00">+ CGraphHopper()</text>
<text text-anchor="start" x="214.5" y="-859.4" font-family="Helvetica,sans-Serif" font-size="9.00">+ CGraphHopper()</text>
<text text-anchor="start" x="214.5" y="-846.4" font-family="Helvetica,sans-Serif" font-size="9.00">+ addEdgeListener()</text>
<text text-anchor="start" x="214.5" y="-833.4" font-family="Helvetica,sans-Serif" font-size="9.00">+ clear()</text>
<text text-anchor="start" x="214.5" y="-820.4" font-family="Helvetica,sans-Serif" font-size="9.00">+ createWeighting()</text>
<text text-anchor="start" x="214.5" y="-807.4" font-family="Helvetica,sans-Serif" font-size="9.00">+ existWeight()</text>
<text text-anchor="start" x="214.5" y="-794.4" font-family="Helvetica,sans-Serif" font-size="9.00">+ getClosestEdge()</text>
<text text-anchor="start" x="214.5" y="-781.4" font-family="Helvetica,sans-Serif" font-size="9.00">+ getClosestNode()</text>
<text text-anchor="start" x="214.5" y="-768.4" font-family="Helvetica,sans-Serif" font-size="9.00">+ getEdge()</text>
<text text-anchor="start" x="214.5" y="-755.4" font-family="Helvetica,sans-Serif" font-size="9.00">+ getEdgeCollection()</text>
<text text-anchor="start" x="214.5" y="-742.4" font-family="Helvetica,sans-Serif" font-size="9.00">+ getEdgeIterator()</text>
<text text-anchor="start" x="214.5" y="-729.4" font-family="Helvetica,sans-Serif" font-size="9.00">+ getEdgeSpeed()</text>
<text text-anchor="start" x="214.5" y="-716.4" font-family="Helvetica,sans-Serif" font-size="9.00">+ getNumberOfObjects()</text>
<text text-anchor="start" x="214.5" y="-703.4" font-family="Helvetica,sans-Serif" font-size="9.00">+ getRouteCells()</text>
<text text-anchor="start" x="214.5" y="-690.4" font-family="Helvetica,sans-Serif" font-size="9.00">+ getRoutes()</text>
<text text-anchor="start" x="214.5" y="-677.4" font-family="Helvetica,sans-Serif" font-size="9.00">+ getRoutes()</text>
<text text-anchor="start" x="214.5" y="-664.4" font-family="Helvetica,sans-Serif" font-size="9.00">+ getRoutes()</text>
<text text-anchor="start" x="214.5" y="-651.4" font-family="Helvetica,sans-Serif" font-size="9.00">+ getRoutes()</text>
<text text-anchor="start" x="214.5" y="-638.4" font-family="Helvetica,sans-Serif" font-size="9.00">+ getWeight()</text>
<text text-anchor="start" x="214.5" y="-625.4" font-family="Helvetica,sans-Serif" font-size="9.00">+ deleteGraph()</text>
<text text-anchor="start" x="214.5" y="-612.4" font-family="Helvetica,sans-Serif" font-size="9.00">&#45; downloadGraphAndLoad()</text>
<text text-anchor="start" x="214.5" y="-599.4" font-family="Helvetica,sans-Serif" font-size="9.00">&#45; downloadOSMData()</text>
<text text-anchor="start" x="214.5" y="-586.4" font-family="Helvetica,sans-Serif" font-size="9.00">&#45; getCurrentGraph()</text>
<text text-anchor="start" x="214.5" y="-573.4" font-family="Helvetica,sans-Serif" font-size="9.00">&#45; getGraphLocation()</text>
</a>
</g>
<!-- Node7&#45;&gt;Node3 -->
<g id="edge12" class="edge"><title>Node7&#45;&gt;Node3</title>
<path fill="none" stroke="#404040" d="M269.699,-564.461C267.481,-546.456 265.348,-529.137 263.407,-513.38"/>
<polygon fill="none" stroke="#404040" points="263.361,-513.004 258.658,-507.538 261.894,-501.094 266.598,-506.56 263.361,-513.004"/>
<text text-anchor="middle" x="290" y="-537.9" font-family="Helvetica,sans-Serif" font-size="9.00"> &#45;m_graph</text>
<text text-anchor="middle" x="290" y="-524.9" font-family="Helvetica,sans-Serif" font-size="9.00">#m_weight</text>
</g>
<!-- Node8 -->
<g id="node14" class="node"><title>Node8</title>
<a xlink:href="../../de/d76/a00134.htm#d7/d00/a00401" target="_top" xlink:title="enum type of MAS languages ">
<polygon fill="none" stroke="black" points="374.5,-212 374.5,-288 531.5,-288 531.5,-212 374.5,-212"/>
<text text-anchor="start" x="382.5" y="-275.9" font-family="Helvetica,sans-Serif" font-size="9.00">de.tu_clausthal.in.mec.object.mas.</text>
<text text-anchor="middle" x="453" y="-262.9" font-family="Helvetica,sans-Serif" font-size="9.00">EAgentLanguages</text>
<polyline fill="none" stroke="black" points="374.5,-254 531.5,-254 "/>
<text text-anchor="start" x="382.5" y="-241.9" font-family="Helvetica,sans-Serif" font-size="9.00">+ Jason</text>
<polyline fill="none" stroke="black" points="374.5,-233 531.5,-233 "/>
<text text-anchor="middle" x="453" y="-220.9" font-family="Helvetica,sans-Serif" font-size="9.00"> </text>
</a>
</g>
<!-- Node8&#45;&gt;Node1 -->
<g id="edge14" class="edge"><title>Node8&#45;&gt;Node1</title>
<path fill="none" stroke="#404040" d="M443.002,-211.607C436.743,-187.573 428.493,-155.894 421.112,-127.551"/>
<polygon fill="none" stroke="#404040" points="421.035,-127.253 415.652,-122.454 418.01,-115.64 423.393,-120.438 421.035,-127.253"/>
<text text-anchor="middle" x="454.5" y="-139.4" font-family="Helvetica,sans-Serif" font-size="9.00"> &#45;m_agenttype</text>
</g>
</g>
</svg>
        <g id="navigator" transform="translate(0 0)" fill="#404254">
                <rect fill="#f2f5e9" fill-opacity="0.5" stroke="#606060" stroke-width=".5" x="0" y="0" width="60" height="60"/>
                <use id="zoomplus" xlink:href="#zoomPlus" x="17" y="9" onmousedown="handleZoom(evt,'in')"/>
                <use id="zoomminus" xlink:href="#zoomMin" x="42" y="9" onmousedown="handleZoom(evt,'out')"/>
                <use id="reset" xlink:href="#resetDef" x="30" y="36" onmousedown="handleReset()"/>
                <g id="arrowUp" xlink:href="#dirArrow" transform="translate(30 24)" onmousedown="handlePan(0,-1)">
                  <use xlink:href="#rim" fill="#404040">
                        <set attributeName="fill" to="#808080" begin="arrowUp.mouseover" end="arrowUp.mouseout"/>
                  </use>
                  <path fill="none" stroke="white" stroke-width="1.5" d="M0,-3.0v7 M-2.5,-0.5L0,-3.0L2.5,-0.5"/>
                </g>
                <g id="arrowRight" xlink:href="#dirArrow" transform="rotate(90) translate(36 -43)" onmousedown="handlePan(1,0)">
                  <use xlink:href="#rim" fill="#404040">
                        <set attributeName="fill" to="#808080" begin="arrowRight.mouseover" end="arrowRight.mouseout"/>
                  </use>
                  <path fill="none" stroke="white" stroke-width="1.5" d="M0,-3.0v7 M-2.5,-0.5L0,-3.0L2.5,-0.5"/>
                </g>
                <g id="arrowDown" xlink:href="#dirArrow" transform="rotate(180) translate(-30 -48)" onmousedown="handlePan(0,1)">
                  <use xlink:href="#rim" fill="#404040">
                        <set attributeName="fill" to="#808080" begin="arrowDown.mouseover" end="arrowDown.mouseout"/>
                  </use>
                  <path fill="none" stroke="white" stroke-width="1.5" d="M0,-3.0v7 M-2.5,-0.5L0,-3.0L2.5,-0.5"/>
                </g>
                <g id="arrowLeft" xlink:href="#dirArrow" transform="rotate(270) translate(-36 17)" onmousedown="handlePan(-1,0)">
                  <use xlink:href="#rim" fill="#404040">
                        <set attributeName="fill" to="#808080" begin="arrowLeft.mouseover" end="arrowLeft.mouseout"/>
                  </use>
                  <path fill="none" stroke="white" stroke-width="1.5" d="M0,-3.0v7 M-2.5,-0.5L0,-3.0L2.5,-0.5"/>
                </g>
        </g>
        <svg viewBox="0 0 15 15" width="100%" height="30px" preserveAspectRatio="xMaxYMin meet">
         <g id="arrow_out" transform="scale(0.3 0.3)">
          <a xlink:href="a00723_org.svg" target="_base">
           <rect id="button" ry="5" rx="5" y="6" x="6" height="38" width="38"
                fill="#f2f5e9" fill-opacity="0.5" stroke="#606060" stroke-width="1.0"/>
           <path id="arrow"
             d="M 11.500037,31.436501 C 11.940474,20.09759 22.043105,11.32322 32.158766,21.979434 L 37.068811,17.246167 C 37.068811,17.246167 37.088388,32 37.088388,32 L 22.160133,31.978069 C 22.160133,31.978069 26.997745,27.140456 26.997745,27.140456 C 18.528582,18.264221 13.291696,25.230495 11.500037,31.436501 z"
             style="fill:#404040;"/>
          </a>
         </g>
        </svg>
</svg>
