<?xml version="1.0" encoding="UTF-8" standalone="no"?>
<!DOCTYPE svg PUBLIC "-//W3C//DTD SVG 1.1//EN"
 "http://www.w3.org/Graphics/SVG/1.1/DTD/svg11.dtd">
<!-- Generated by graphviz version 2.26.3 (20100126.1600)
 -->
<!-- Title: de.tu_clausthal.in.mec.object.mas.IVoidAgent&lt; T &gt; Pages: 1 -->
<svg width="350pt" height="430pt"
 viewBox="0.00 0.00 350.00 430.00" xmlns="http://www.w3.org/2000/svg" xmlns:xlink="http://www.w3.org/1999/xlink">
<g id="graph1" class="graph" transform="scale(1 1) rotate(0) translate(4 426)">
<title>de.tu_clausthal.in.mec.object.mas.IVoidAgent&lt; T &gt;</title>
<!-- Node1 -->
<g id="node1" class="node"><title>Node1</title>
<polygon fill="#bfbfbf" stroke="black" points="101.5,-1 101.5,-77 258.5,-77 258.5,-1 101.5,-1"/>
<text text-anchor="start" x="109.5" y="-64.9" font-family="Helvetica,sans-Serif" font-size="9.00">de.tu_clausthal.in.mec.object.mas.</text>
<text text-anchor="middle" x="180" y="-51.9" font-family="Helvetica,sans-Serif" font-size="9.00">IVoidAgent&lt; T &gt;</text>
<polyline fill="none" stroke="black" points="101.5,-43 258.5,-43 "/>
<text text-anchor="middle" x="180" y="-30.9" font-family="Helvetica,sans-Serif" font-size="9.00"> </text>
<polyline fill="none" stroke="black" points="101.5,-22 258.5,-22 "/>
<text text-anchor="middle" x="180" y="-9.9" font-family="Helvetica,sans-Serif" font-size="9.00"> </text>
</g>
<!-- Node2 -->
<g id="node2" class="node"><title>Node2</title>
<a xlink:href="../../d9/db6/a00146.htm" target="_top" xlink:title="interface of an agent ">
<polygon fill="none" stroke="black" points="15.5,-115 15.5,-295 172.5,-295 172.5,-115 15.5,-115"/>
<text text-anchor="start" x="23.5" y="-282.9" font-family="Helvetica,sans-Serif" font-size="9.00">de.tu_clausthal.in.mec.object.mas.</text>
<text text-anchor="middle" x="94" y="-269.9" font-family="Helvetica,sans-Serif" font-size="9.00">IAgent&lt; T &gt;</text>
<polyline fill="none" stroke="black" points="15.5,-261 172.5,-261 "/>
<text text-anchor="middle" x="94" y="-248.9" font-family="Helvetica,sans-Serif" font-size="9.00"> </text>
<polyline fill="none" stroke="black" points="15.5,-240 172.5,-240 "/>
<text text-anchor="start" x="23.5" y="-227.9" font-family="Helvetica,sans-Serif" font-size="9.00">+ addBeliefBase()</text>
<text text-anchor="start" x="23.5" y="-214.9" font-family="Helvetica,sans-Serif" font-size="9.00">+ bind()</text>
<text text-anchor="start" x="23.5" y="-201.9" font-family="Helvetica,sans-Serif" font-size="9.00">+ getBeliefBase()</text>
<text text-anchor="start" x="23.5" y="-188.9" font-family="Helvetica,sans-Serif" font-size="9.00">+ getCycle()</text>
<text text-anchor="start" x="23.5" y="-175.9" font-family="Helvetica,sans-Serif" font-size="9.00">+ getName()</text>
<text text-anchor="start" x="23.5" y="-162.9" font-family="Helvetica,sans-Serif" font-size="9.00">+ getSource()</text>
<text text-anchor="start" x="23.5" y="-149.9" font-family="Helvetica,sans-Serif" font-size="9.00">+ release()</text>
<text text-anchor="start" x="23.5" y="-136.9" font-family="Helvetica,sans-Serif" font-size="9.00">+ removeBeliefBase()</text>
<text text-anchor="start" x="23.5" y="-123.9" font-family="Helvetica,sans-Serif" font-size="9.00">+ unbind()</text>
</a>
</g>
<!-- Node2&#45;&gt;Node1 -->
<g id="edge2" class="edge"><title>Node2&#45;&gt;Node1</title>
<path fill="none" stroke="midnightblue" d="M145.406,-105.774C150.635,-95.6816 155.691,-85.9221 160.249,-77.1244"/>
<polygon fill="none" stroke="midnightblue" points="142.267,-104.224 140.775,-114.713 148.483,-107.444 142.267,-104.224"/>
</g>
<!-- Node3 -->
<g id="node4" class="node"><title>Node3</title>
<a xlink:href="../../d8/d64/a00181.htm" target="_top" xlink:title="message receiver interface for defining an object which can handle the message of a participant objec...">
<polygon fill="none" stroke="black" points="-0.5,-332.5 -0.5,-421.5 182.5,-421.5 182.5,-332.5 -0.5,-332.5"/>
<text text-anchor="start" x="7.5" y="-409.4" font-family="Helvetica,sans-Serif" font-size="9.00">de.tu_clausthal.in.mec.runtime.message.</text>
<text text-anchor="middle" x="91" y="-396.4" font-family="Helvetica,sans-Serif" font-size="9.00">IReceiver</text>
<polyline fill="none" stroke="black" points="-0.5,-387.5 182.5,-387.5 "/>
<text text-anchor="middle" x="91" y="-375.4" font-family="Helvetica,sans-Serif" font-size="9.00"> </text>
<polyline fill="none" stroke="black" points="-0.5,-366.5 182.5,-366.5 "/>
<text text-anchor="start" x="7.5" y="-354.4" font-family="Helvetica,sans-Serif" font-size="9.00">+ getReceiverPath()</text>
<text text-anchor="start" x="7.5" y="-341.4" font-family="Helvetica,sans-Serif" font-size="9.00">+ receiveMessage()</text>
</a>
</g>
<!-- Node3&#45;&gt;Node2 -->
<g id="edge4" class="edge"><title>Node3&#45;&gt;Node2</title>
<path fill="none" stroke="midnightblue" d="M91.9586,-322.039C92.1085,-313.444 92.2668,-304.372 92.4261,-295.235"/>
<polygon fill="none" stroke="midnightblue" points="88.4554,-322.198 91.7804,-332.258 95.4543,-322.321 88.4554,-322.198"/>
</g>
<!-- Node4 -->
<g id="node6" class="node"><title>Node4</title>
<a xlink:href="../../de/db1/a00197.htm" target="_top" xlink:title="interface of void&#45;step method ">
<polygon fill="none" stroke="black" points="195.5,-167 195.5,-243 338.5,-243 338.5,-167 195.5,-167"/>
<text text-anchor="start" x="203.5" y="-230.9" font-family="Helvetica,sans-Serif" font-size="9.00">de.tu_clausthal.in.mec.runtime.</text>
<text text-anchor="middle" x="267" y="-217.9" font-family="Helvetica,sans-Serif" font-size="9.00">IVoidSteppable</text>
<polyline fill="none" stroke="black" points="195.5,-209 338.5,-209 "/>
<text text-anchor="middle" x="267" y="-196.9" font-family="Helvetica,sans-Serif" font-size="9.00"> </text>
<polyline fill="none" stroke="black" points="195.5,-188 338.5,-188 "/>
<text text-anchor="start" x="203.5" y="-175.9" font-family="Helvetica,sans-Serif" font-size="9.00">+ step()</text>
</a>
</g>
<!-- Node4&#45;&gt;Node1 -->
<g id="edge6" class="edge"><title>Node4&#45;&gt;Node1</title>
<path fill="none" stroke="midnightblue" d="M242.258,-157.791C228.884,-132.272 212.584,-101.171 200.017,-77.1936"/>
<polygon fill="none" stroke="midnightblue" points="239.298,-159.684 247.04,-166.916 245.498,-156.434 239.298,-159.684"/>
</g>
<!-- Node5 -->
<g id="node8" class="node"><title>Node5</title>
<a xlink:href="../../da/d15/a00188.htm" target="_top" xlink:title="interface for all objects which are triggered by the simulation worker ">
<polygon fill="none" stroke="black" points="199.5,-339 199.5,-415 342.5,-415 342.5,-339 199.5,-339"/>
<text text-anchor="start" x="207.5" y="-402.9" font-family="Helvetica,sans-Serif" font-size="9.00">de.tu_clausthal.in.mec.runtime.</text>
<text text-anchor="middle" x="271" y="-389.9" font-family="Helvetica,sans-Serif" font-size="9.00">ISteppable</text>
<polyline fill="none" stroke="black" points="199.5,-381 342.5,-381 "/>
<text text-anchor="middle" x="271" y="-368.9" font-family="Helvetica,sans-Serif" font-size="9.00"> </text>
<polyline fill="none" stroke="black" points="199.5,-360 342.5,-360 "/>
<text text-anchor="start" x="207.5" y="-347.9" font-family="Helvetica,sans-Serif" font-size="9.00">+ release()</text>
</a>
</g>
<!-- Node5&#45;&gt;Node4 -->
<g id="edge8" class="edge"><title>Node5&#45;&gt;Node4</title>
<path fill="none" stroke="midnightblue" d="M269.878,-328.775C269.248,-301.67 268.472,-268.317 267.885,-243.066"/>
<polygon fill="none" stroke="midnightblue" points="266.381,-328.912 270.112,-338.828 273.379,-328.749 266.381,-328.912"/>
</g>
</g>
</svg>
