<?xml version="1.0" encoding="UTF-8" standalone="no"?>
<!DOCTYPE svg PUBLIC "-//W3C//DTD SVG 1.1//EN"
 "http://www.w3.org/Graphics/SVG/1.1/DTD/svg11.dtd">
<!-- Generated by graphviz version 2.26.3 (20100126.1600)
 -->
<!-- Title: de.tu_clausthal.in.mec.ui.COSMViewer Pages: 1 -->
<svg width="296pt" height="382pt"
 viewBox="0.00 0.00 296.00 382.00" xmlns="http://www.w3.org/2000/svg" xmlns:xlink="http://www.w3.org/1999/xlink">
<g id="graph1" class="graph" transform="scale(1 1) rotate(0) translate(4 378)">
<title>de.tu_clausthal.in.mec.ui.COSMViewer</title>
<!-- Node1 -->
<g id="node1" class="node"><title>Node1</title>
<polygon fill="#bfbfbf" stroke="black" points="65,-0.5 65,-193.5 215,-193.5 215,-0.5 65,-0.5"/>
<text text-anchor="start" x="73" y="-181.4" font-family="Helvetica,sans-Serif" font-size="9.00">de.tu_clausthal.in.mec.ui.</text>
<text text-anchor="middle" x="140" y="-168.4" font-family="Helvetica,sans-Serif" font-size="9.00">COSMViewer</text>
<polyline fill="none" stroke="black" points="65,-159.5 215,-159.5 "/>
<text text-anchor="start" x="73" y="-147.4" font-family="Helvetica,sans-Serif" font-size="9.00">&#45; m_painter</text>
<polyline fill="none" stroke="black" points="65,-138.5 215,-138.5 "/>
<text text-anchor="start" x="73" y="-126.4" font-family="Helvetica,sans-Serif" font-size="9.00">+ COSMViewer()</text>
<text text-anchor="start" x="73" y="-113.4" font-family="Helvetica,sans-Serif" font-size="9.00">+ getCompoundPainter()</text>
<text text-anchor="start" x="73" y="-100.4" font-family="Helvetica,sans-Serif" font-size="9.00">+ getCurrentClickableLayer()</text>
<text text-anchor="start" x="73" y="-87.4" font-family="Helvetica,sans-Serif" font-size="9.00">+ getViewpointGeoPosition()</text>
<text text-anchor="start" x="73" y="-74.4" font-family="Helvetica,sans-Serif" font-size="9.00">+ paintFadeLine()</text>
<text text-anchor="start" x="73" y="-61.4" font-family="Helvetica,sans-Serif" font-size="9.00">+ resetConfiguration()</text>
<text text-anchor="start" x="73" y="-48.4" font-family="Helvetica,sans-Serif" font-size="9.00">+ setConfiguration()</text>
<text text-anchor="start" x="73" y="-35.4" font-family="Helvetica,sans-Serif" font-size="9.00">&#45; web_static_listClickable</text>
<text text-anchor="start" x="73" y="-22.4" font-family="Helvetica,sans-Serif" font-size="9.00">Layer()</text>
<text text-anchor="start" x="73" y="-9.4" font-family="Helvetica,sans-Serif" font-size="9.00">&#45; web_static_setClickableLayer()</text>
</g>
<!-- Node2 -->
<g id="node2" class="node"><title>Node2</title>
<a xlink:href="../../dc/ddf/a00067.htm" target="_top" xlink:title="routing painter class ">
<polygon fill="none" stroke="black" points="0,-245 0,-373 128,-373 128,-245 0,-245"/>
<text text-anchor="start" x="8" y="-360.9" font-family="Helvetica,sans-Serif" font-size="9.00">de.tu_clausthal.in.mec.ui.</text>
<text text-anchor="middle" x="64" y="-347.9" font-family="Helvetica,sans-Serif" font-size="9.00">COSMViewer.CLinePainter</text>
<polyline fill="none" stroke="black" points="0,-339 128,-339 "/>
<text text-anchor="start" x="8" y="-326.9" font-family="Helvetica,sans-Serif" font-size="9.00">&#45; m_alpha</text>
<text text-anchor="start" x="8" y="-313.9" font-family="Helvetica,sans-Serif" font-size="9.00">&#45; m_line</text>
<text text-anchor="start" x="8" y="-300.9" font-family="Helvetica,sans-Serif" font-size="9.00">&#45; m_timer</text>
<polyline fill="none" stroke="black" points="0,-292 128,-292 "/>
<text text-anchor="start" x="8" y="-279.9" font-family="Helvetica,sans-Serif" font-size="9.00">+ actionPerformed()</text>
<text text-anchor="start" x="8" y="-266.9" font-family="Helvetica,sans-Serif" font-size="9.00">+ paint()</text>
<text text-anchor="start" x="8" y="-253.9" font-family="Helvetica,sans-Serif" font-size="9.00">+ setLine()</text>
</a>
</g>
<!-- Node2&#45;&gt;Node1 -->
<g id="edge2" class="edge"><title>Node2&#45;&gt;Node1</title>
<path fill="none" stroke="#404040" d="M87.0088,-244.818C91.5142,-232.25 96.3544,-218.748 101.212,-205.198"/>
<polygon fill="none" stroke="#404040" points="101.24,-205.121 99.4991,-198.123 105.289,-193.825 107.03,-200.823 101.24,-205.121"/>
<text text-anchor="middle" x="129" y="-217.4" font-family="Helvetica,sans-Serif" font-size="9.00"> &#45;m_linepainter</text>
</g>
<!-- Node3 -->
<g id="node4" class="node"><title>Node3</title>
<a xlink:href="../../d5/d5b/a00135.htm" target="_top" xlink:title="enum clickable layer ">
<polygon fill="none" stroke="black" points="146,-251.5 146,-366.5 288,-366.5 288,-251.5 146,-251.5"/>
<text text-anchor="start" x="154" y="-354.4" font-family="Helvetica,sans-Serif" font-size="9.00">de.tu_clausthal.in.mec.ui.</text>
<text text-anchor="middle" x="217" y="-341.4" font-family="Helvetica,sans-Serif" font-size="9.00">COSMViewer.EClickableLayer</text>
<polyline fill="none" stroke="black" points="146,-332.5 288,-332.5 "/>
<text text-anchor="start" x="154" y="-320.4" font-family="Helvetica,sans-Serif" font-size="9.00">+ ForbiddenEdge</text>
<text text-anchor="start" x="154" y="-307.4" font-family="Helvetica,sans-Serif" font-size="9.00">+ Source</text>
<text text-anchor="start" x="154" y="-294.4" font-family="Helvetica,sans-Serif" font-size="9.00">&#45; m_stringvalue</text>
<polyline fill="none" stroke="black" points="146,-285.5 288,-285.5 "/>
<text text-anchor="start" x="154" y="-273.4" font-family="Helvetica,sans-Serif" font-size="9.00">+ EClickableLayer()</text>
<text text-anchor="start" x="154" y="-260.4" font-family="Helvetica,sans-Serif" font-size="9.00">+ toString()</text>
</a>
</g>
<!-- Node3&#45;&gt;Node1 -->
<g id="edge4" class="edge"><title>Node3&#45;&gt;Node1</title>
<path fill="none" stroke="#404040" d="M196.061,-251.35C190.865,-237.044 185.126,-221.242 179.361,-205.369"/>
<polygon fill="none" stroke="#404040" points="179.262,-205.098 173.454,-200.824 175.166,-193.819 180.974,-198.093 179.262,-205.098"/>
<text text-anchor="middle" x="222.5" y="-217.4" font-family="Helvetica,sans-Serif" font-size="9.00"> &#45;m_clickablelayer</text>
</g>
</g>
</svg>
