<?xml version="1.0" encoding="UTF-8" standalone="no"?>
<!DOCTYPE svg PUBLIC "-//W3C//DTD SVG 1.1//EN"
 "http://www.w3.org/Graphics/SVG/1.1/DTD/svg11.dtd">
<!-- Generated by graphviz version 2.26.3 (20100126.1600)
 -->
<!-- Title: de.tu_clausthal.in.mec.object.car.ICar Pages: 1 -->
<svg width="178pt" height="430pt"
 viewBox="0.00 0.00 178.00 430.00" xmlns="http://www.w3.org/2000/svg" xmlns:xlink="http://www.w3.org/1999/xlink">
<g id="graph1" class="graph" transform="scale(1 1) rotate(0) translate(4 426)">
<title>de.tu_clausthal.in.mec.object.car.ICar</title>
<!-- Node1 -->
<g id="node1" class="node"><title>Node1</title>
<polygon fill="#bfbfbf" stroke="black" points="0,-0.5 0,-193.5 170,-193.5 170,-0.5 0,-0.5"/>
<text text-anchor="middle" x="85" y="-181.4" font-family="Helvetica,sans-Serif" font-size="9.00">de.tu_clausthal.in.mec.object.car.ICar</text>
<polyline fill="none" stroke="black" points="0,-172.5 170,-172.5 "/>
<text text-anchor="middle" x="85" y="-160.4" font-family="Helvetica,sans-Serif" font-size="9.00"> </text>
<polyline fill="none" stroke="black" points="0,-151.5 170,-151.5 "/>
<text text-anchor="start" x="8" y="-139.4" font-family="Helvetica,sans-Serif" font-size="9.00">+ getAcceleration()</text>
<text text-anchor="start" x="8" y="-126.4" font-family="Helvetica,sans-Serif" font-size="9.00">+ getCurrentSpeed()</text>
<text text-anchor="start" x="8" y="-113.4" font-family="Helvetica,sans-Serif" font-size="9.00">+ getDeceleration()</text>
<text text-anchor="start" x="8" y="-100.4" font-family="Helvetica,sans-Serif" font-size="9.00">+ getEdge()</text>
<text text-anchor="start" x="8" y="-87.4" font-family="Helvetica,sans-Serif" font-size="9.00">+ getGeoposition()</text>
<text text-anchor="start" x="8" y="-74.4" font-family="Helvetica,sans-Serif" font-size="9.00">+ getLingerProbability()</text>
<text text-anchor="start" x="8" y="-61.4" font-family="Helvetica,sans-Serif" font-size="9.00">+ getMaximumSpeed()</text>
<text text-anchor="start" x="8" y="-48.4" font-family="Helvetica,sans-Serif" font-size="9.00">+ getPredecessor()</text>
<text text-anchor="start" x="8" y="-35.4" font-family="Helvetica,sans-Serif" font-size="9.00">+ getPredecessor()</text>
<text text-anchor="start" x="8" y="-22.4" font-family="Helvetica,sans-Serif" font-size="9.00">+ hasEndReached()</text>
<text text-anchor="start" x="8" y="-9.4" font-family="Helvetica,sans-Serif" font-size="9.00">+ setCurrentSpeed()</text>
</g>
<!-- Node2 -->
<g id="node2" class="node"><title>Node2</title>
<a xlink:href="../../de/db1/a00197.htm" target="_top" xlink:title="interface of void&#45;step method ">
<polygon fill="none" stroke="black" points="13.5,-231 13.5,-307 156.5,-307 156.5,-231 13.5,-231"/>
<text text-anchor="start" x="21.5" y="-294.9" font-family="Helvetica,sans-Serif" font-size="9.00">de.tu_clausthal.in.mec.runtime.</text>
<text text-anchor="middle" x="85" y="-281.9" font-family="Helvetica,sans-Serif" font-size="9.00">IVoidSteppable</text>
<polyline fill="none" stroke="black" points="13.5,-273 156.5,-273 "/>
<text text-anchor="middle" x="85" y="-260.9" font-family="Helvetica,sans-Serif" font-size="9.00"> </text>
<polyline fill="none" stroke="black" points="13.5,-252 156.5,-252 "/>
<text text-anchor="start" x="21.5" y="-239.9" font-family="Helvetica,sans-Serif" font-size="9.00">+ step()</text>
</a>
</g>
<!-- Node2&#45;&gt;Node1 -->
<g id="edge2" class="edge"><title>Node2&#45;&gt;Node1</title>
<path fill="none" stroke="midnightblue" d="M85,-220.763C85,-212.235 85,-203.09 85,-193.773"/>
<polygon fill="none" stroke="midnightblue" points="81.5001,-220.828 85,-230.828 88.5001,-220.828 81.5001,-220.828"/>
</g>
<!-- Node3 -->
<g id="node4" class="node"><title>Node3</title>
<a xlink:href="../../da/d15/a00188.htm" target="_top" xlink:title="interface for all objects which are triggered by the simulation worker ">
<polygon fill="none" stroke="black" points="13.5,-345 13.5,-421 156.5,-421 156.5,-345 13.5,-345"/>
<text text-anchor="start" x="21.5" y="-408.9" font-family="Helvetica,sans-Serif" font-size="9.00">de.tu_clausthal.in.mec.runtime.</text>
<text text-anchor="middle" x="85" y="-395.9" font-family="Helvetica,sans-Serif" font-size="9.00">ISteppable</text>
<polyline fill="none" stroke="black" points="13.5,-387 156.5,-387 "/>
<text text-anchor="middle" x="85" y="-374.9" font-family="Helvetica,sans-Serif" font-size="9.00"> </text>
<polyline fill="none" stroke="black" points="13.5,-366 156.5,-366 "/>
<text text-anchor="start" x="21.5" y="-353.9" font-family="Helvetica,sans-Serif" font-size="9.00">+ release()</text>
</a>
</g>
<!-- Node3&#45;&gt;Node2 -->
<g id="edge4" class="edge"><title>Node3&#45;&gt;Node2</title>
<path fill="none" stroke="midnightblue" d="M85,-334.623C85,-325.52 85,-316.117 85,-307.371"/>
<polygon fill="none" stroke="midnightblue" points="81.5001,-334.722 85,-344.723 88.5001,-334.723 81.5001,-334.722"/>
</g>
</g>
</svg>
