<?xml version="1.0" encoding="UTF-8" standalone="no"?>
<!DOCTYPE svg PUBLIC "-//W3C//DTD SVG 1.1//EN"
 "http://www.w3.org/Graphics/SVG/1.1/DTD/svg11.dtd">
<!-- Generated by graphviz version 2.26.3 (20100126.1600)
 -->
<!-- Title: de.tu_clausthal.in.mec.ui.CConsole.CConsole Pages: 1 -->
<svg width="284pt" height="94pt"
 viewBox="0.00 0.00 284.00 94.00" xmlns="http://www.w3.org/2000/svg" xmlns:xlink="http://www.w3.org/1999/xlink">
<g id="graph1" class="graph" transform="scale(1 1) rotate(0) translate(4 90)">
<title>de.tu_clausthal.in.mec.ui.CConsole.CConsole</title>
<!-- Node1 -->
<g id="node1" class="node"><title>Node1</title>
<polygon fill="#bfbfbf" stroke="black" points="0,-26 0,-60 120,-60 120,-26 0,-26"/>
<text text-anchor="start" x="8" y="-47.9" font-family="Helvetica,sans-Serif" font-size="9.00">de.tu_clausthal.in.mec.ui.</text>
<text text-anchor="middle" x="60" y="-34.9" font-family="Helvetica,sans-Serif" font-size="9.00">CConsole.CConsole</text>
</g>
<!-- Node2 -->
<g id="node3" class="node"><title>Node2</title>
<a xlink:href="../../dd/d32/a00041.htm#aa39a9f73f5d37b8ada07216ddd5f8c58" target="_top" xlink:title="factor method to set error stream ">
<polygon fill="none" stroke="black" points="156,-52 156,-86 276,-86 276,-52 156,-52"/>
<text text-anchor="start" x="164" y="-73.9" font-family="Helvetica,sans-Serif" font-size="9.00">de.tu_clausthal.in.mec.ui.</text>
<text text-anchor="middle" x="216" y="-60.9" font-family="Helvetica,sans-Serif" font-size="9.00">CConsole.getError</text>
</a>
</g>
<!-- Node1&#45;&gt;Node2 -->
<g id="edge2" class="edge"><title>Node1&#45;&gt;Node2</title>
<path fill="none" stroke="midnightblue" d="M130.259,-54.7099C138.802,-56.1336 147.469,-57.5782 155.847,-58.9745"/>
<polygon fill="midnightblue" stroke="midnightblue" points="130.753,-51.244 120.314,-53.0523 129.602,-58.1487 130.753,-51.244"/>
</g>
<!-- Node3 -->
<g id="node5" class="node"><title>Node3</title>
<a xlink:href="../../dd/d32/a00041.htm#aee2c2bd81050c7f4a05d19a11cc91ab9" target="_top" xlink:title="factor method to set output stream ">
<polygon fill="none" stroke="black" points="156,-0 156,-34 276,-34 276,-0 156,-0"/>
<text text-anchor="start" x="164" y="-21.9" font-family="Helvetica,sans-Serif" font-size="9.00">de.tu_clausthal.in.mec.ui.</text>
<text text-anchor="middle" x="216" y="-8.9" font-family="Helvetica,sans-Serif" font-size="9.00">CConsole.getOutput</text>
</a>
</g>
<!-- Node1&#45;&gt;Node3 -->
<g id="edge4" class="edge"><title>Node1&#45;&gt;Node3</title>
<path fill="none" stroke="midnightblue" d="M130.259,-31.2901C138.802,-29.8664 147.469,-28.4218 155.847,-27.0255"/>
<polygon fill="midnightblue" stroke="midnightblue" points="129.602,-27.8513 120.314,-32.9477 130.753,-34.756 129.602,-27.8513"/>
</g>
</g>
</svg>
