<?xml version="1.0" encoding="UTF-8" standalone="no"?>
<!DOCTYPE svg PUBLIC "-//W3C//DTD SVG 1.1//EN"
 "http://www.w3.org/Graphics/SVG/1.1/DTD/svg11.dtd">
<!-- Generated by graphviz version 2.26.3 (20100126.1600)
 -->
<!-- Title: de.tu_clausthal.in.mec.Test_CLanguageLabels.MyMethodVisitor.checkLabel Pages: 1 -->
<svg width="642pt" height="94pt"
 viewBox="0.00 0.00 642.00 94.00" xmlns="http://www.w3.org/2000/svg" xmlns:xlink="http://www.w3.org/1999/xlink">
<g id="graph1" class="graph" transform="scale(1 1) rotate(0) translate(4 90)">
<title>de.tu_clausthal.in.mec.Test_CLanguageLabels.MyMethodVisitor.checkLabel</title>
<!-- Node1 -->
<g id="node1" class="node"><title>Node1</title>
<polygon fill="#bfbfbf" stroke="black" points="0,-26 0,-60 218,-60 218,-26 0,-26"/>
<text text-anchor="start" x="8" y="-47.9" font-family="Helvetica,sans-Serif" font-size="9.00">de.tu_clausthal.in.mec.Test</text>
<text text-anchor="middle" x="109" y="-34.9" font-family="Helvetica,sans-Serif" font-size="9.00">_CLanguageLabels.MyMethodVisitor.checkLabel</text>
</g>
<!-- Node2 -->
<g id="node3" class="node"><title>Node2</title>
<a xlink:href="../../db/d3a/a00040.htm#a5fc1c2b2396e46e44cbc25c907f2c452" target="_top" xlink:title="singleton get instance method ">
<polygon fill="none" stroke="black" points="254,-52 254,-86 442,-86 442,-52 254,-52"/>
<text text-anchor="start" x="262" y="-73.9" font-family="Helvetica,sans-Serif" font-size="9.00">de.tu_clausthal.in.mec.CConfiguration.get</text>
<text text-anchor="middle" x="348" y="-60.9" font-family="Helvetica,sans-Serif" font-size="9.00">Instance</text>
</a>
</g>
<!-- Node1&#45;&gt;Node2 -->
<g id="edge2" class="edge"><title>Node1&#45;&gt;Node2</title>
<path fill="none" stroke="midnightblue" d="M218.009,-54.8587C226.592,-55.7925 235.248,-56.7341 243.798,-57.6642"/>
<polygon fill="midnightblue" stroke="midnightblue" points="243.456,-61.1475 253.775,-58.7496 244.213,-54.1886 243.456,-61.1475"/>
</g>
<!-- Node3 -->
<g id="node5" class="node"><title>Node3</title>
<a xlink:href="../../d1/dc6/a00037.htm#a5d4d844a730250f9b8db17ecf7106568" target="_top" xlink:title="returns the label of a class and string to get access to the resource ">
<polygon fill="none" stroke="black" points="266.5,-0 266.5,-34 429.5,-34 429.5,-0 266.5,-0"/>
<text text-anchor="start" x="274.5" y="-21.9" font-family="Helvetica,sans-Serif" font-size="9.00">de.tu_clausthal.in.mec.common.</text>
<text text-anchor="middle" x="348" y="-8.9" font-family="Helvetica,sans-Serif" font-size="9.00">CCommon.getResourceStringLabel</text>
</a>
</g>
<!-- Node1&#45;&gt;Node3 -->
<g id="edge4" class="edge"><title>Node1&#45;&gt;Node3</title>
<path fill="none" stroke="midnightblue" d="M218.009,-31.1413C230.832,-29.7463 243.817,-28.3337 256.368,-26.9683"/>
<polygon fill="midnightblue" stroke="midnightblue" points="256.767,-30.4457 266.33,-25.8847 256.01,-23.4868 256.767,-30.4457"/>
</g>
<!-- Node4 -->
<g id="node7" class="node"><title>Node4</title>
<a xlink:href="../../d1/dc6/a00037.htm#a7dcb26e8cdde436192ef19f0538f0c9d" target="_top" xlink:title="remove from a string the system package name ">
<polygon fill="none" stroke="black" points="478.5,-0 478.5,-34 633.5,-34 633.5,-0 478.5,-0"/>
<text text-anchor="start" x="486.5" y="-21.9" font-family="Helvetica,sans-Serif" font-size="9.00">de.tu_clausthal.in.mec.common.</text>
<text text-anchor="middle" x="556" y="-8.9" font-family="Helvetica,sans-Serif" font-size="9.00">CCommon.removePackageName</text>
</a>
</g>
<!-- Node3&#45;&gt;Node4 -->
<g id="edge6" class="edge"><title>Node3&#45;&gt;Node4</title>
<path fill="none" stroke="midnightblue" d="M429.61,-17C442.273,-17 455.4,-17 468.193,-17"/>
<polygon fill="midnightblue" stroke="midnightblue" points="468.365,-20.5001 478.365,-17 468.365,-13.5001 468.365,-20.5001"/>
</g>
</g>
</svg>
