<?xml version="1.0" encoding="UTF-8" standalone="no"?>
<!DOCTYPE svg PUBLIC "-//W3C//DTD SVG 1.1//EN"
 "http://www.w3.org/Graphics/SVG/1.1/DTD/svg11.dtd">
<!-- Generated by graphviz version 2.26.3 (20100126.1600)
 -->
<!-- Title: de.tu_clausthal.in.mec.object.ILayer Pages: 1 -->
<svg width="150pt" height="264pt"
 viewBox="0.00 0.00 150.00 264.00" xmlns="http://www.w3.org/2000/svg" xmlns:xlink="http://www.w3.org/1999/xlink">
<g id="graph1" class="graph" transform="scale(1 1) rotate(0) translate(4 260)">
<title>de.tu_clausthal.in.mec.object.ILayer</title>
<!-- Node1 -->
<g id="node1" class="node"><title>Node1</title>
<polygon fill="#bfbfbf" stroke="black" points="2.5,-0.5 2.5,-141.5 139.5,-141.5 139.5,-0.5 2.5,-0.5"/>
<text text-anchor="start" x="10.5" y="-129.4" font-family="Helvetica,sans-Serif" font-size="9.00">de.tu_clausthal.in.mec.object.</text>
<text text-anchor="middle" x="71" y="-116.4" font-family="Helvetica,sans-Serif" font-size="9.00">ILayer</text>
<polyline fill="none" stroke="black" points="2.5,-107.5 139.5,-107.5 "/>
<text text-anchor="middle" x="71" y="-95.4" font-family="Helvetica,sans-Serif" font-size="9.00"> </text>
<polyline fill="none" stroke="black" points="2.5,-86.5 139.5,-86.5 "/>
<text text-anchor="start" x="10.5" y="-74.4" font-family="Helvetica,sans-Serif" font-size="9.00">+ getCalculationIndex()</text>
<text text-anchor="start" x="10.5" y="-61.4" font-family="Helvetica,sans-Serif" font-size="9.00">+ isActive()</text>
<text text-anchor="start" x="10.5" y="-48.4" font-family="Helvetica,sans-Serif" font-size="9.00">+ onSimulationReset()</text>
<text text-anchor="start" x="10.5" y="-35.4" font-family="Helvetica,sans-Serif" font-size="9.00">+ onSimulationStart()</text>
<text text-anchor="start" x="10.5" y="-22.4" font-family="Helvetica,sans-Serif" font-size="9.00">+ onSimulationStop()</text>
<text text-anchor="start" x="10.5" y="-9.4" font-family="Helvetica,sans-Serif" font-size="9.00">+ setActive()</text>
</g>
<!-- Node2 -->
<g id="node2" class="node"><title>Node2</title>
<a xlink:href="../../da/d15/a00188.htm" target="_top" xlink:title="interface for all objects which are triggered by the simulation worker ">
<polygon fill="none" stroke="black" points="-0.5,-179 -0.5,-255 142.5,-255 142.5,-179 -0.5,-179"/>
<text text-anchor="start" x="7.5" y="-242.9" font-family="Helvetica,sans-Serif" font-size="9.00">de.tu_clausthal.in.mec.runtime.</text>
<text text-anchor="middle" x="71" y="-229.9" font-family="Helvetica,sans-Serif" font-size="9.00">ISteppable</text>
<polyline fill="none" stroke="black" points="-0.5,-221 142.5,-221 "/>
<text text-anchor="middle" x="71" y="-208.9" font-family="Helvetica,sans-Serif" font-size="9.00"> </text>
<polyline fill="none" stroke="black" points="-0.5,-200 142.5,-200 "/>
<text text-anchor="start" x="7.5" y="-187.9" font-family="Helvetica,sans-Serif" font-size="9.00">+ release()</text>
</a>
</g>
<!-- Node2&#45;&gt;Node1 -->
<g id="edge2" class="edge"><title>Node2&#45;&gt;Node1</title>
<path fill="none" stroke="midnightblue" d="M71,-168.419C71,-159.8 71,-150.667 71,-141.584"/>
<polygon fill="none" stroke="midnightblue" points="67.5001,-168.64 71,-178.64 74.5001,-168.64 67.5001,-168.64"/>
</g>
</g>
</svg>
