<?xml version="1.0" encoding="UTF-8" standalone="no"?>
<!DOCTYPE svg PUBLIC "-//W3C//DTD SVG 1.1//EN"
 "http://www.w3.org/Graphics/SVG/1.1/DTD/svg11.dtd">
<!-- Generated by graphviz version 2.26.3 (20100126.1600)
 -->
<!-- Title: de.tu_clausthal.in.mec.object.mas.generic.implementation.IPropertyBind&lt; N, M &gt; Pages: 1 -->
<svg width="262pt" height="408pt"
 viewBox="0.00 0.00 262.00 408.00" xmlns="http://www.w3.org/2000/svg" xmlns:xlink="http://www.w3.org/1999/xlink">
<g id="graph1" class="graph" transform="scale(1 1) rotate(0) translate(4 404)">
<title>de.tu_clausthal.in.mec.object.mas.generic.implementation.IPropertyBind&lt; N, M &gt;</title>
<!-- Node1 -->
<g id="node1" class="node"><title>Node1</title>
<polygon fill="#bfbfbf" stroke="black" points="-0.5,-1 -0.5,-155 254.5,-155 254.5,-1 -0.5,-1"/>
<text text-anchor="start" x="7.5" y="-142.9" font-family="Helvetica,sans-Serif" font-size="9.00">de.tu_clausthal.in.mec.object.mas.generic.implementation.</text>
<text text-anchor="middle" x="127" y="-129.9" font-family="Helvetica,sans-Serif" font-size="9.00">IPropertyBind&lt; N, M &gt;</text>
<polyline fill="none" stroke="black" points="-0.5,-121 254.5,-121 "/>
<text text-anchor="start" x="7.5" y="-108.9" font-family="Helvetica,sans-Serif" font-size="9.00"># m_bind</text>
<polyline fill="none" stroke="black" points="-0.5,-100 254.5,-100 "/>
<text text-anchor="start" x="7.5" y="-87.9" font-family="Helvetica,sans-Serif" font-size="9.00">+ IPropertyBind()</text>
<text text-anchor="start" x="7.5" y="-74.9" font-family="Helvetica,sans-Serif" font-size="9.00">+ IPropertyBind()</text>
<text text-anchor="start" x="7.5" y="-61.9" font-family="Helvetica,sans-Serif" font-size="9.00">+ IPropertyBind()</text>
<text text-anchor="start" x="7.5" y="-48.9" font-family="Helvetica,sans-Serif" font-size="9.00">+ getName()</text>
<text text-anchor="start" x="7.5" y="-35.9" font-family="Helvetica,sans-Serif" font-size="9.00">+ push()</text>
<text text-anchor="start" x="7.5" y="-22.9" font-family="Helvetica,sans-Serif" font-size="9.00">+ push()</text>
<text text-anchor="start" x="7.5" y="-9.9" font-family="Helvetica,sans-Serif" font-size="9.00">+ remove()</text>
</g>
<!-- Node2 -->
<g id="node2" class="node"><title>Node2</title>
<a xlink:href="../../d2/dee/a00049.htm" target="_top" xlink:title="class to filter object fields * ">
<polygon fill="none" stroke="black" points="48.5,-207 48.5,-283 205.5,-283 205.5,-207 48.5,-207"/>
<text text-anchor="start" x="56.5" y="-270.9" font-family="Helvetica,sans-Serif" font-size="9.00">de.tu_clausthal.in.mec.object.mas.</text>
<text text-anchor="middle" x="127" y="-257.9" font-family="Helvetica,sans-Serif" font-size="9.00">CFieldFilter</text>
<polyline fill="none" stroke="black" points="48.5,-249 205.5,-249 "/>
<text text-anchor="middle" x="127" y="-236.9" font-family="Helvetica,sans-Serif" font-size="9.00"> </text>
<polyline fill="none" stroke="black" points="48.5,-228 205.5,-228 "/>
<text text-anchor="start" x="56.5" y="-215.9" font-family="Helvetica,sans-Serif" font-size="9.00">+ filter()</text>
</a>
</g>
<!-- Node2&#45;&gt;Node1 -->
<g id="edge2" class="edge"><title>Node2&#45;&gt;Node1</title>
<path fill="none" stroke="#404040" d="M127,-206.687C127,-194.845 127,-181.267 127,-167.471"/>
<polygon fill="none" stroke="#404040" points="127,-167.329 123,-161.329 127,-155.329 131,-161.329 127,-167.329"/>
<text text-anchor="middle" x="143.5" y="-179.4" font-family="Helvetica,sans-Serif" font-size="9.00"> &#45;c_filter</text>
</g>
<!-- Node3 -->
<g id="node4" class="node"><title>Node3</title>
<a xlink:href="../../dd/dae/a00163.htm" target="_top" xlink:title="interface of field filtering ">
<polygon fill="none" stroke="black" points="53,-323 53,-399 201,-399 201,-323 53,-323"/>
<text text-anchor="start" x="61" y="-386.9" font-family="Helvetica,sans-Serif" font-size="9.00">de.tu_clausthal.in.mec.common.</text>
<text text-anchor="middle" x="127" y="-373.9" font-family="Helvetica,sans-Serif" font-size="9.00">CReflection.IFieldFilter</text>
<polyline fill="none" stroke="black" points="53,-365 201,-365 "/>
<text text-anchor="middle" x="127" y="-352.9" font-family="Helvetica,sans-Serif" font-size="9.00"> </text>
<polyline fill="none" stroke="black" points="53,-344 201,-344 "/>
<text text-anchor="start" x="61" y="-331.9" font-family="Helvetica,sans-Serif" font-size="9.00">+ filter()</text>
</a>
</g>
<!-- Node3&#45;&gt;Node2 -->
<g id="edge4" class="edge"><title>Node3&#45;&gt;Node2</title>
<path fill="none" stroke="midnightblue" d="M127,-312.661C127,-302.853 127,-292.666 127,-283.264"/>
<polygon fill="none" stroke="midnightblue" points="123.5,-312.696 127,-322.696 130.5,-312.696 123.5,-312.696"/>
</g>
</g>
</svg>
