<?xml version="1.0" encoding="UTF-8" standalone="no"?>
<!DOCTYPE svg PUBLIC "-//W3C//DTD SVG 1.1//EN"
 "http://www.w3.org/Graphics/SVG/1.1/DTD/svg11.dtd">
<!-- Generated by graphviz version 2.26.3 (20100126.1600)
 -->
<!-- Title: de.tu_clausthal.in.mec.object.mas.generic.implementation.CMask&lt; T &gt;.add Pages: 1 -->
<svg width="490pt" height="146pt"
 viewBox="0.00 0.00 490.00 146.00" xmlns="http://www.w3.org/2000/svg" xmlns:xlink="http://www.w3.org/1999/xlink">
<g id="graph1" class="graph" transform="scale(1 1) rotate(0) translate(4 142)">
<title>de.tu_clausthal.in.mec.object.mas.generic.implementation.CMask&lt; T &gt;.add</title>
<!-- Node1 -->
<g id="node1" class="node"><title>Node1</title>
<polygon fill="#bfbfbf" stroke="black" points="0.5,-52 0.5,-86 255.5,-86 255.5,-52 0.5,-52"/>
<text text-anchor="start" x="8.5" y="-73.9" font-family="Helvetica,sans-Serif" font-size="9.00">de.tu_clausthal.in.mec.object.mas.generic.implementation.</text>
<text text-anchor="middle" x="128" y="-60.9" font-family="Helvetica,sans-Serif" font-size="9.00">CMask&lt; T &gt;.add</text>
</g>
<!-- Node2 -->
<g id="node3" class="node"><title>Node2</title>
<a xlink:href="../../dd/db2/a00151.htm#a84bfdd2875f0803e2c237c0ec43b5a31" target="_top" xlink:title="returns only the element name ">
<polygon fill="none" stroke="black" points="292,-104 292,-138 482,-138 482,-104 292,-104"/>
<text text-anchor="start" x="300" y="-125.9" font-family="Helvetica,sans-Serif" font-size="9.00">de.tu_clausthal.in.mec.object.mas.generic.</text>
<text text-anchor="middle" x="387" y="-112.9" font-family="Helvetica,sans-Serif" font-size="9.00">IBeliefBaseMask&lt; T &gt;.getName</text>
</a>
</g>
<!-- Node1&#45;&gt;Node2 -->
<g id="edge2" class="edge"><title>Node1&#45;&gt;Node2</title>
<path fill="none" stroke="midnightblue" d="M212.806,-86.0267C238.185,-91.1221 266.174,-96.7414 292.154,-101.958"/>
<polygon fill="midnightblue" stroke="midnightblue" points="291.51,-105.398 302.003,-103.935 292.888,-98.535 291.51,-105.398"/>
</g>
<!-- Node3 -->
<g id="node5" class="node"><title>Node3</title>
<a xlink:href="../../d1/dc6/a00037.htm#ae523069a1b523b0e6a0c643049b1d745" target="_top" xlink:title="returns a default string of the resource file ">
<polygon fill="none" stroke="black" points="313,-52 313,-86 461,-86 461,-52 313,-52"/>
<text text-anchor="start" x="321" y="-73.9" font-family="Helvetica,sans-Serif" font-size="9.00">de.tu_clausthal.in.mec.common.</text>
<text text-anchor="middle" x="387" y="-60.9" font-family="Helvetica,sans-Serif" font-size="9.00">CCommon.getResourceString</text>
</a>
</g>
<!-- Node1&#45;&gt;Node3 -->
<g id="edge4" class="edge"><title>Node1&#45;&gt;Node3</title>
<path fill="none" stroke="midnightblue" d="M255.603,-69C271.58,-69 287.595,-69 302.676,-69"/>
<polygon fill="midnightblue" stroke="midnightblue" points="302.956,-72.5001 312.956,-69 302.956,-65.5001 302.956,-72.5001"/>
</g>
<!-- Node4 -->
<g id="node7" class="node"><title>Node4</title>
<a xlink:href="../../d9/d7d/a00150.htm#a18260b1df5469dbce09b73665825d7ab" target="_top" xlink:title="returns the storage of the beliefbase ">
<polygon fill="none" stroke="black" points="292,-0 292,-34 482,-34 482,-0 292,-0"/>
<text text-anchor="start" x="300" y="-21.9" font-family="Helvetica,sans-Serif" font-size="9.00">de.tu_clausthal.in.mec.object.mas.generic.</text>
<text text-anchor="middle" x="387" y="-8.9" font-family="Helvetica,sans-Serif" font-size="9.00">IBeliefBaseAction&lt; T &gt;.getStorage</text>
</a>
</g>
<!-- Node1&#45;&gt;Node4 -->
<g id="edge6" class="edge"><title>Node1&#45;&gt;Node4</title>
<path fill="none" stroke="midnightblue" d="M212.806,-51.9733C238.185,-46.8779 266.174,-41.2586 292.154,-36.0424"/>
<polygon fill="midnightblue" stroke="midnightblue" points="292.888,-39.465 302.003,-34.065 291.51,-32.602 292.888,-39.465"/>
</g>
</g>
</svg>
