<?xml version="1.0" encoding="UTF-8" standalone="no"?>
<!DOCTYPE svg PUBLIC "-//W3C//DTD SVG 1.1//EN"
 "http://www.w3.org/Graphics/SVG/1.1/DTD/svg11.dtd">
<!-- Generated by graphviz version 2.26.3 (20100126.1600)
 -->
<!-- Title: de.tu_clausthal.in.mec.object.mas.generic.implementation.CMask&lt; T &gt;.containsMask Pages: 1 -->
<svg width="490pt" height="198pt"
 viewBox="0.00 0.00 490.00 198.00" xmlns="http://www.w3.org/2000/svg" xmlns:xlink="http://www.w3.org/1999/xlink">
<g id="graph1" class="graph" transform="scale(1 1) rotate(0) translate(4 194)">
<title>de.tu_clausthal.in.mec.object.mas.generic.implementation.CMask&lt; T &gt;.containsMask</title>
<!-- Node1 -->
<g id="node1" class="node"><title>Node1</title>
<polygon fill="#bfbfbf" stroke="black" points="0.5,-78 0.5,-112 255.5,-112 255.5,-78 0.5,-78"/>
<text text-anchor="start" x="8.5" y="-99.9" font-family="Helvetica,sans-Serif" font-size="9.00">de.tu_clausthal.in.mec.object.mas.generic.implementation.</text>
<text text-anchor="middle" x="128" y="-86.9" font-family="Helvetica,sans-Serif" font-size="9.00">CMask&lt; T &gt;.containsMask</text>
</g>
<!-- Node2 -->
<g id="node3" class="node"><title>Node2</title>
<a xlink:href="../../d9/d7d/a00150.htm#a18260b1df5469dbce09b73665825d7ab" target="_top" xlink:title="returns the storage of the beliefbase ">
<polygon fill="none" stroke="black" points="292,-156 292,-190 482,-190 482,-156 292,-156"/>
<text text-anchor="start" x="300" y="-177.9" font-family="Helvetica,sans-Serif" font-size="9.00">de.tu_clausthal.in.mec.object.mas.generic.</text>
<text text-anchor="middle" x="387" y="-164.9" font-family="Helvetica,sans-Serif" font-size="9.00">IBeliefBaseAction&lt; T &gt;.getStorage</text>
</a>
</g>
<!-- Node1&#45;&gt;Node2 -->
<g id="edge2" class="edge"><title>Node1&#45;&gt;Node2</title>
<path fill="none" stroke="midnightblue" d="M179.909,-112.042C212.087,-122.461 254.33,-135.878 292,-147 298.934,-149.047 306.169,-151.128 313.416,-153.174"/>
<polygon fill="midnightblue" stroke="midnightblue" points="312.706,-156.61 323.28,-155.937 314.595,-149.869 312.706,-156.61"/>
</g>
<!-- Node3 -->
<g id="node5" class="node"><title>Node3</title>
<a xlink:href="../../dc/d54/a00094.htm#a811d1d4847114aedcbee692655fc99b1" target="_top" xlink:title="creates a path of the start index until the end ">
<polygon fill="none" stroke="black" points="313,-104 313,-138 461,-138 461,-104 313,-104"/>
<text text-anchor="start" x="321" y="-125.9" font-family="Helvetica,sans-Serif" font-size="9.00">de.tu_clausthal.in.mec.common.</text>
<text text-anchor="middle" x="387" y="-112.9" font-family="Helvetica,sans-Serif" font-size="9.00">CPath.getSubPath</text>
</a>
</g>
<!-- Node1&#45;&gt;Node3 -->
<g id="edge4" class="edge"><title>Node1&#45;&gt;Node3</title>
<path fill="none" stroke="midnightblue" d="M255.603,-107.81C271.58,-109.413 287.595,-111.021 302.676,-112.535"/>
<polygon fill="midnightblue" stroke="midnightblue" points="302.656,-116.051 312.956,-113.567 303.355,-109.086 302.656,-116.051"/>
</g>
<!-- Node4 -->
<g id="node7" class="node"><title>Node4</title>
<a xlink:href="../../dc/d54/a00094.htm#a4aa59b201e56cd0f80d5ab081b57517c" target="_top" xlink:title="check if the path is empty ">
<polygon fill="none" stroke="black" points="313,-52 313,-86 461,-86 461,-52 313,-52"/>
<text text-anchor="start" x="321" y="-73.9" font-family="Helvetica,sans-Serif" font-size="9.00">de.tu_clausthal.in.mec.common.</text>
<text text-anchor="middle" x="387" y="-60.9" font-family="Helvetica,sans-Serif" font-size="9.00">CPath.isEmpty</text>
</a>
</g>
<!-- Node1&#45;&gt;Node4 -->
<g id="edge6" class="edge"><title>Node1&#45;&gt;Node4</title>
<path fill="none" stroke="midnightblue" d="M255.603,-82.1904C271.58,-80.5866 287.595,-78.9788 302.676,-77.4649"/>
<polygon fill="midnightblue" stroke="midnightblue" points="303.355,-80.9144 312.956,-76.433 302.656,-73.9494 303.355,-80.9144"/>
</g>
<!-- Node5 -->
<g id="node9" class="node"><title>Node5</title>
<a xlink:href="../../dc/d54/a00094.htm#a0b3aaaf4c6a7a0db70c11bc25ce949a4" target="_top" xlink:title="returns the number of path elements ">
<polygon fill="none" stroke="black" points="313,-0 313,-34 461,-34 461,-0 313,-0"/>
<text text-anchor="start" x="321" y="-21.9" font-family="Helvetica,sans-Serif" font-size="9.00">de.tu_clausthal.in.mec.common.</text>
<text text-anchor="middle" x="387" y="-8.9" font-family="Helvetica,sans-Serif" font-size="9.00">CPath.size</text>
</a>
</g>
<!-- Node1&#45;&gt;Node5 -->
<g id="edge8" class="edge"><title>Node1&#45;&gt;Node5</title>
<path fill="none" stroke="midnightblue" d="M179.909,-77.9578C212.087,-67.5387 254.33,-54.1222 292,-43 298.934,-40.9527 306.169,-38.8725 313.416,-36.826"/>
<polygon fill="midnightblue" stroke="midnightblue" points="314.595,-40.1307 323.28,-34.0625 312.706,-33.3902 314.595,-40.1307"/>
</g>
</g>
</svg>
