<?xml version="1.0" encoding="UTF-8" standalone="no"?>
<!DOCTYPE svg PUBLIC "-//W3C//DTD SVG 1.1//EN"
 "http://www.w3.org/Graphics/SVG/1.1/DTD/svg11.dtd">
<!-- Generated by graphviz version 2.26.3 (20100126.1600)
 -->
<!-- Title: de.tu_clausthal.in.mec.object.mas.generic.implementation.CMask&lt; T &gt;.walk Pages: 1 -->
<svg width="448pt" height="198pt"
 viewBox="0.00 0.00 448.00 198.00" xmlns="http://www.w3.org/2000/svg" xmlns:xlink="http://www.w3.org/1999/xlink">
<g id="graph1" class="graph" transform="scale(1 1) rotate(0) translate(4 194)">
<title>de.tu_clausthal.in.mec.object.mas.generic.implementation.CMask&lt; T &gt;.walk</title>
<!-- Node1 -->
<g id="node1" class="node"><title>Node1</title>
<polygon fill="#bfbfbf" stroke="black" points="0.5,-78 0.5,-112 255.5,-112 255.5,-78 0.5,-78"/>
<text text-anchor="start" x="8.5" y="-99.9" font-family="Helvetica,sans-Serif" font-size="9.00">de.tu_clausthal.in.mec.object.mas.generic.implementation.</text>
<text text-anchor="middle" x="128" y="-86.9" font-family="Helvetica,sans-Serif" font-size="9.00">CMask&lt; T &gt;.walk</text>
</g>
<!-- Node2 -->
<g id="node3" class="node"><title>Node2</title>
<a xlink:href="../../dc/d54/a00094.htm#ae0d03c5ffc5689f0bbbc9575d1d0211d" target="_top" xlink:title="returns an part of the path ">
<polygon fill="none" stroke="black" points="292,-156 292,-190 440,-190 440,-156 292,-156"/>
<text text-anchor="start" x="300" y="-177.9" font-family="Helvetica,sans-Serif" font-size="9.00">de.tu_clausthal.in.mec.common.</text>
<text text-anchor="middle" x="366" y="-164.9" font-family="Helvetica,sans-Serif" font-size="9.00">CPath.get</text>
</a>
</g>
<!-- Node1&#45;&gt;Node2 -->
<g id="edge2" class="edge"><title>Node1&#45;&gt;Node2</title>
<path fill="none" stroke="midnightblue" d="M179.936,-112.021C216.502,-124.005 265.611,-140.1 304.195,-152.745"/>
<polygon fill="midnightblue" stroke="midnightblue" points="303.171,-156.092 313.764,-155.881 305.351,-149.44 303.171,-156.092"/>
</g>
<!-- Node3 -->
<g id="node5" class="node"><title>Node3</title>
<a xlink:href="../../d1/dc6/a00037.htm#ae523069a1b523b0e6a0c643049b1d745" target="_top" xlink:title="returns a default string of the resource file ">
<polygon fill="none" stroke="black" points="292,-104 292,-138 440,-138 440,-104 292,-104"/>
<text text-anchor="start" x="300" y="-125.9" font-family="Helvetica,sans-Serif" font-size="9.00">de.tu_clausthal.in.mec.common.</text>
<text text-anchor="middle" x="366" y="-112.9" font-family="Helvetica,sans-Serif" font-size="9.00">CCommon.getResourceString</text>
</a>
</g>
<!-- Node1&#45;&gt;Node3 -->
<g id="edge4" class="edge"><title>Node1&#45;&gt;Node3</title>
<path fill="none" stroke="midnightblue" d="M255.709,-108.951C264.489,-109.911 273.206,-110.863 281.667,-111.787"/>
<polygon fill="midnightblue" stroke="midnightblue" points="281.526,-115.293 291.847,-112.899 282.287,-108.334 281.526,-115.293"/>
</g>
<!-- Node4 -->
<g id="node7" class="node"><title>Node4</title>
<a xlink:href="../../dc/d54/a00094.htm#a811d1d4847114aedcbee692655fc99b1" target="_top" xlink:title="creates a path of the start index until the end ">
<polygon fill="none" stroke="black" points="292,-52 292,-86 440,-86 440,-52 292,-52"/>
<text text-anchor="start" x="300" y="-73.9" font-family="Helvetica,sans-Serif" font-size="9.00">de.tu_clausthal.in.mec.common.</text>
<text text-anchor="middle" x="366" y="-60.9" font-family="Helvetica,sans-Serif" font-size="9.00">CPath.getSubPath</text>
</a>
</g>
<!-- Node1&#45;&gt;Node4 -->
<g id="edge6" class="edge"><title>Node1&#45;&gt;Node4</title>
<path fill="none" stroke="midnightblue" d="M255.709,-81.0486C264.489,-80.0894 273.206,-79.1371 281.667,-78.2128"/>
<polygon fill="midnightblue" stroke="midnightblue" points="282.287,-81.6661 291.847,-77.1007 281.526,-74.7075 282.287,-81.6661"/>
</g>
<!-- Node5 -->
<g id="node9" class="node"><title>Node5</title>
<a xlink:href="../../dc/d54/a00094.htm#a4aa59b201e56cd0f80d5ab081b57517c" target="_top" xlink:title="check if the path is empty ">
<polygon fill="none" stroke="black" points="292,-0 292,-34 440,-34 440,-0 292,-0"/>
<text text-anchor="start" x="300" y="-21.9" font-family="Helvetica,sans-Serif" font-size="9.00">de.tu_clausthal.in.mec.common.</text>
<text text-anchor="middle" x="366" y="-8.9" font-family="Helvetica,sans-Serif" font-size="9.00">CPath.isEmpty</text>
</a>
</g>
<!-- Node1&#45;&gt;Node5 -->
<g id="edge8" class="edge"><title>Node1&#45;&gt;Node5</title>
<path fill="none" stroke="midnightblue" d="M179.936,-77.979C216.502,-65.9951 265.611,-49.9004 304.195,-37.2553"/>
<polygon fill="midnightblue" stroke="midnightblue" points="305.351,-40.5596 313.764,-34.1193 303.171,-33.9078 305.351,-40.5596"/>
</g>
</g>
</svg>
