<?xml version="1.0" encoding="UTF-8" standalone="no"?>
<!DOCTYPE svg PUBLIC "-//W3C//DTD SVG 1.1//EN"
 "http://www.w3.org/Graphics/SVG/1.1/DTD/svg11.dtd">
<!-- Generated by graphviz version 2.26.3 (20100126.1600)
 -->
<!-- Title: de.tu_clausthal.in.mec.object.mas.generic.implementation.CMask&lt; T &gt;.getMasks Pages: 1 -->
<svg width="490pt" height="94pt"
 viewBox="0.00 0.00 490.00 94.00" xmlns="http://www.w3.org/2000/svg" xmlns:xlink="http://www.w3.org/1999/xlink">
<g id="graph1" class="graph" transform="scale(1 1) rotate(0) translate(4 90)">
<title>de.tu_clausthal.in.mec.object.mas.generic.implementation.CMask&lt; T &gt;.getMasks</title>
<!-- Node1 -->
<g id="node1" class="node"><title>Node1</title>
<polygon fill="#bfbfbf" stroke="black" points="0.5,-26 0.5,-60 255.5,-60 255.5,-26 0.5,-26"/>
<text text-anchor="start" x="8.5" y="-47.9" font-family="Helvetica,sans-Serif" font-size="9.00">de.tu_clausthal.in.mec.object.mas.generic.implementation.</text>
<text text-anchor="middle" x="128" y="-34.9" font-family="Helvetica,sans-Serif" font-size="9.00">CMask&lt; T &gt;.getMasks</text>
</g>
<!-- Node2 -->
<g id="node3" class="node"><title>Node2</title>
<a xlink:href="../../dd/db2/a00151.htm#a7db2fe5d87ef69d469ba09d7cb01050f" target="_top" xlink:title="returns the full path ">
<polygon fill="none" stroke="black" points="292,-52 292,-86 482,-86 482,-52 292,-52"/>
<text text-anchor="start" x="300" y="-73.9" font-family="Helvetica,sans-Serif" font-size="9.00">de.tu_clausthal.in.mec.object.mas.generic.</text>
<text text-anchor="middle" x="387" y="-60.9" font-family="Helvetica,sans-Serif" font-size="9.00">IBeliefBaseMask&lt; T &gt;.getFQNPath</text>
</a>
</g>
<!-- Node1&#45;&gt;Node2 -->
<g id="edge2" class="edge"><title>Node1&#45;&gt;Node2</title>
<path fill="none" stroke="midnightblue" d="M255.603,-55.8096C264.322,-56.6848 273.052,-57.5612 281.635,-58.4229"/>
<polygon fill="midnightblue" stroke="midnightblue" points="281.335,-61.9102 291.635,-59.4267 282.034,-54.9452 281.335,-61.9102"/>
</g>
<!-- Node3 -->
<g id="node5" class="node"><title>Node3</title>
<a xlink:href="../../d9/d7d/a00150.htm#a18260b1df5469dbce09b73665825d7ab" target="_top" xlink:title="returns the storage of the beliefbase ">
<polygon fill="none" stroke="black" points="292,-0 292,-34 482,-34 482,-0 292,-0"/>
<text text-anchor="start" x="300" y="-21.9" font-family="Helvetica,sans-Serif" font-size="9.00">de.tu_clausthal.in.mec.object.mas.generic.</text>
<text text-anchor="middle" x="387" y="-8.9" font-family="Helvetica,sans-Serif" font-size="9.00">IBeliefBaseAction&lt; T &gt;.getStorage</text>
</a>
</g>
<!-- Node1&#45;&gt;Node3 -->
<g id="edge4" class="edge"><title>Node1&#45;&gt;Node3</title>
<path fill="none" stroke="midnightblue" d="M255.603,-30.1904C264.322,-29.3152 273.052,-28.4388 281.635,-27.5771"/>
<polygon fill="midnightblue" stroke="midnightblue" points="282.034,-31.0548 291.635,-26.5733 281.335,-24.0898 282.034,-31.0548"/>
</g>
</g>
</svg>
