<?xml version="1.0" encoding="UTF-8" standalone="no"?>
<!DOCTYPE svg PUBLIC "-//W3C//DTD SVG 1.1//EN"
 "http://www.w3.org/Graphics/SVG/1.1/DTD/svg11.dtd">
<!-- Generated by graphviz version 2.26.3 (20100126.1600)
 -->
<!-- Title: de.tu_clausthal.in.mec.common.CReflection.CMethodCache&lt; T &gt;.get Pages: 1 -->
<svg width="342pt" height="94pt"
 viewBox="0.00 0.00 342.00 94.00" xmlns="http://www.w3.org/2000/svg" xmlns:xlink="http://www.w3.org/1999/xlink">
<g id="graph1" class="graph" transform="scale(1 1) rotate(0) translate(4 90)">
<title>de.tu_clausthal.in.mec.common.CReflection.CMethodCache&lt; T &gt;.get</title>
<!-- Node1 -->
<g id="node1" class="node"><title>Node1</title>
<polygon fill="#bfbfbf" stroke="black" points="0,-19.5 0,-66.5 148,-66.5 148,-19.5 0,-19.5"/>
<text text-anchor="start" x="8" y="-54.4" font-family="Helvetica,sans-Serif" font-size="9.00">de.tu_clausthal.in.mec.common.</text>
<text text-anchor="start" x="8" y="-41.4" font-family="Helvetica,sans-Serif" font-size="9.00">CReflection.CMethodCache</text>
<text text-anchor="middle" x="74" y="-28.4" font-family="Helvetica,sans-Serif" font-size="9.00">&lt; T &gt;.get</text>
</g>
<!-- Node2 -->
<g id="node3" class="node"><title>Node2</title>
<a xlink:href="../../d2/d1f/a00083.htm#a8727d7a92942503144b3e7d6ae1c7155" target="_top" xlink:title="returns the method object ">
<polygon fill="none" stroke="black" points="184,-52 184,-86 334,-86 334,-52 184,-52"/>
<text text-anchor="start" x="192" y="-73.9" font-family="Helvetica,sans-Serif" font-size="9.00">de.tu_clausthal.in.mec.common.</text>
<text text-anchor="middle" x="259" y="-60.9" font-family="Helvetica,sans-Serif" font-size="9.00">CReflection.CMethod.getMethod</text>
</a>
</g>
<!-- Node1&#45;&gt;Node2 -->
<g id="edge2" class="edge"><title>Node1&#45;&gt;Node2</title>
<path fill="none" stroke="midnightblue" d="M148.181,-53.4254C156.634,-54.6134 165.3,-55.8314 173.881,-57.0373"/>
<polygon fill="midnightblue" stroke="midnightblue" points="173.507,-60.5191 183.897,-58.445 174.482,-53.5873 173.507,-60.5191"/>
</g>
<!-- Node3 -->
<g id="node5" class="node"><title>Node3</title>
<a xlink:href="../../d1/dc6/a00037.htm#ae523069a1b523b0e6a0c643049b1d745" target="_top" xlink:title="returns a default string of the resource file ">
<polygon fill="none" stroke="black" points="185,-0 185,-34 333,-34 333,-0 185,-0"/>
<text text-anchor="start" x="193" y="-21.9" font-family="Helvetica,sans-Serif" font-size="9.00">de.tu_clausthal.in.mec.common.</text>
<text text-anchor="middle" x="259" y="-8.9" font-family="Helvetica,sans-Serif" font-size="9.00">CCommon.getResourceString</text>
</a>
</g>
<!-- Node1&#45;&gt;Node3 -->
<g id="edge4" class="edge"><title>Node1&#45;&gt;Node3</title>
<path fill="none" stroke="midnightblue" d="M148.181,-32.5746C156.945,-31.3429 165.938,-30.079 174.828,-28.8296"/>
<polygon fill="midnightblue" stroke="midnightblue" points="175.387,-32.2855 184.803,-27.4277 174.413,-25.3536 175.387,-32.2855"/>
</g>
</g>
</svg>
