<?xml version="1.0" encoding="UTF-8" standalone="no"?>
<!DOCTYPE svg PUBLIC "-//W3C//DTD SVG 1.1//EN"
 "http://www.w3.org/Graphics/SVG/1.1/DTD/svg11.dtd">
<!-- Generated by graphviz version 2.26.3 (20100126.1600)
 -->
<!-- Title: de.tu_clausthal.in.mec.object.mas.generic.implementation.CTermSet Pages: 1 -->
<svg width="262pt" height="340pt"
 viewBox="0.00 0.00 262.00 340.00" xmlns="http://www.w3.org/2000/svg" xmlns:xlink="http://www.w3.org/1999/xlink">
<g id="graph1" class="graph" transform="scale(1 1) rotate(0) translate(4 336)">
<title>de.tu_clausthal.in.mec.object.mas.generic.implementation.CTermSet</title>
<!-- Node1 -->
<g id="node1" class="node"><title>Node1</title>
<polygon fill="#bfbfbf" stroke="black" points="-0.5,-1 -0.5,-103 254.5,-103 254.5,-1 -0.5,-1"/>
<text text-anchor="start" x="7.5" y="-90.9" font-family="Helvetica,sans-Serif" font-size="9.00">de.tu_clausthal.in.mec.object.mas.generic.implementation.</text>
<text text-anchor="middle" x="127" y="-77.9" font-family="Helvetica,sans-Serif" font-size="9.00">CTermSet</text>
<polyline fill="none" stroke="black" points="-0.5,-69 254.5,-69 "/>
<text text-anchor="start" x="7.5" y="-56.9" font-family="Helvetica,sans-Serif" font-size="9.00">+ EMPTY_TERMSET</text>
<polyline fill="none" stroke="black" points="-0.5,-48 254.5,-48 "/>
<text text-anchor="start" x="7.5" y="-35.9" font-family="Helvetica,sans-Serif" font-size="9.00">+ CTermSet()</text>
<text text-anchor="start" x="7.5" y="-22.9" font-family="Helvetica,sans-Serif" font-size="9.00">+ CTermSet()</text>
<text text-anchor="start" x="7.5" y="-9.9" font-family="Helvetica,sans-Serif" font-size="9.00">+ instanceOf()</text>
</g>
<!-- Node2 -->
<g id="node2" class="node"><title>Node2</title>
<a xlink:href="../../dd/da2/a00192.htm" target="_top" xlink:title="interface for term collection ">
<polygon fill="none" stroke="black" points="32,-141 32,-217 222,-217 222,-141 32,-141"/>
<text text-anchor="start" x="40" y="-204.9" font-family="Helvetica,sans-Serif" font-size="9.00">de.tu_clausthal.in.mec.object.mas.generic.</text>
<text text-anchor="middle" x="127" y="-191.9" font-family="Helvetica,sans-Serif" font-size="9.00">ITermCollection</text>
<polyline fill="none" stroke="black" points="32,-183 222,-183 "/>
<text text-anchor="middle" x="127" y="-170.9" font-family="Helvetica,sans-Serif" font-size="9.00"> </text>
<polyline fill="none" stroke="black" points="32,-162 222,-162 "/>
<text text-anchor="middle" x="127" y="-149.9" font-family="Helvetica,sans-Serif" font-size="9.00"> </text>
</a>
</g>
<!-- Node2&#45;&gt;Node1 -->
<g id="edge2" class="edge"><title>Node2&#45;&gt;Node1</title>
<path fill="none" stroke="midnightblue" d="M127,-130.621C127,-121.662 127,-112.276 127,-103.235"/>
<polygon fill="none" stroke="midnightblue" points="123.5,-130.896 127,-140.896 130.5,-130.896 123.5,-130.896"/>
</g>
<!-- Node3 -->
<g id="node4" class="node"><title>Node3</title>
<a xlink:href="../../d9/dd0/a00191.htm" target="_top" xlink:title="term interface ">
<polygon fill="none" stroke="black" points="32,-255 32,-331 222,-331 222,-255 32,-255"/>
<text text-anchor="start" x="40" y="-318.9" font-family="Helvetica,sans-Serif" font-size="9.00">de.tu_clausthal.in.mec.object.mas.generic.</text>
<text text-anchor="middle" x="127" y="-305.9" font-family="Helvetica,sans-Serif" font-size="9.00">ITerm</text>
<polyline fill="none" stroke="black" points="32,-297 222,-297 "/>
<text text-anchor="middle" x="127" y="-284.9" font-family="Helvetica,sans-Serif" font-size="9.00"> </text>
<polyline fill="none" stroke="black" points="32,-276 222,-276 "/>
<text text-anchor="start" x="40" y="-263.9" font-family="Helvetica,sans-Serif" font-size="9.00">+ instanceOf()</text>
</a>
</g>
<!-- Node3&#45;&gt;Node2 -->
<g id="edge4" class="edge"><title>Node3&#45;&gt;Node2</title>
<path fill="none" stroke="midnightblue" d="M127,-244.623C127,-235.52 127,-226.117 127,-217.371"/>
<polygon fill="none" stroke="midnightblue" points="123.5,-244.722 127,-254.723 130.5,-244.723 123.5,-244.722"/>
</g>
</g>
</svg>
