<?xml version="1.0" encoding="UTF-8" standalone="no"?>
<!DOCTYPE svg PUBLIC "-//W3C//DTD SVG 1.1//EN"
 "http://www.w3.org/Graphics/SVG/1.1/DTD/svg11.dtd">
<!-- Generated by graphviz version 2.26.3 (20100126.1600)
 -->
<!-- Title: de.tu_clausthal.in.mec.runtime.core.CMainLoop.createTask Pages: 1 -->
<svg width="372pt" height="94pt"
 viewBox="0.00 0.00 372.00 94.00" xmlns="http://www.w3.org/2000/svg" xmlns:xlink="http://www.w3.org/1999/xlink">
<g id="graph1" class="graph" transform="scale(1 1) rotate(0) translate(4 90)">
<title>de.tu_clausthal.in.mec.runtime.core.CMainLoop.createTask</title>
<!-- Node1 -->
<g id="node1" class="node"><title>Node1</title>
<polygon fill="#bfbfbf" stroke="black" points="0,-26 0,-60 164,-60 164,-26 0,-26"/>
<text text-anchor="start" x="8" y="-47.9" font-family="Helvetica,sans-Serif" font-size="9.00">de.tu_clausthal.in.mec.runtime.core.</text>
<text text-anchor="middle" x="82" y="-34.9" font-family="Helvetica,sans-Serif" font-size="9.00">CMainLoop.createTask</text>
</g>
<!-- Node2 -->
<g id="node3" class="node"><title>Node2</title>
<a xlink:href="../../db/db6/a00074.htm#aa97dc076ecdf3505e47cd0b3f274aac5" target="_top" xlink:title="invokes all defined data ">
<polygon fill="none" stroke="black" points="200,-52 200,-86 364,-86 364,-52 200,-52"/>
<text text-anchor="start" x="208" y="-73.9" font-family="Helvetica,sans-Serif" font-size="9.00">de.tu_clausthal.in.mec.runtime.core.</text>
<text text-anchor="middle" x="282" y="-60.9" font-family="Helvetica,sans-Serif" font-size="9.00">CMainLoop.invokeTasks</text>
</a>
</g>
<!-- Node1&#45;&gt;Node2 -->
<g id="edge2" class="edge"><title>Node1&#45;&gt;Node2</title>
<path fill="none" stroke="midnightblue" d="M174.187,-54.9844C182.726,-56.0944 191.342,-57.2144 199.783,-58.3117"/>
<polygon fill="midnightblue" stroke="midnightblue" points="174.581,-51.5062 164.213,-53.6878 173.679,-58.4478 174.581,-51.5062"/>
</g>
<!-- Node3 -->
<g id="node5" class="node"><title>Node3</title>
<a xlink:href="../../db/db6/a00074.htm#afe1412e8bdb9d3e7a31e72d972498d95" target="_top" xlink:title="process layer ">
<polygon fill="none" stroke="black" points="200,-0 200,-34 364,-34 364,-0 200,-0"/>
<text text-anchor="start" x="208" y="-21.9" font-family="Helvetica,sans-Serif" font-size="9.00">de.tu_clausthal.in.mec.runtime.core.</text>
<text text-anchor="middle" x="282" y="-8.9" font-family="Helvetica,sans-Serif" font-size="9.00">CMainLoop.processLayer</text>
</a>
</g>
<!-- Node1&#45;&gt;Node3 -->
<g id="edge4" class="edge"><title>Node1&#45;&gt;Node3</title>
<path fill="none" stroke="midnightblue" d="M174.187,-31.0156C182.726,-29.9056 191.342,-28.7856 199.783,-27.6883"/>
<polygon fill="midnightblue" stroke="midnightblue" points="173.679,-27.5522 164.213,-32.3122 174.581,-34.4938 173.679,-27.5522"/>
</g>
</g>
</svg>
