<?xml version="1.0" encoding="UTF-8" standalone="no"?>
<!DOCTYPE svg PUBLIC "-//W3C//DTD SVG 1.1//EN"
 "http://www.w3.org/Graphics/SVG/1.1/DTD/svg11.dtd">
<!-- Generated by graphviz version 2.26.3 (20100126.1600)
 -->
<!-- Title: de.tu_clausthal.in.mec.runtime.core.CMainLoop.invokeTasks Pages: 1 -->
<svg width="556pt" height="42pt"
 viewBox="0.00 0.00 556.00 42.00" xmlns="http://www.w3.org/2000/svg" xmlns:xlink="http://www.w3.org/1999/xlink">
<g id="graph1" class="graph" transform="scale(1 1) rotate(0) translate(4 38)">
<title>de.tu_clausthal.in.mec.runtime.core.CMainLoop.invokeTasks</title>
<!-- Node1 -->
<g id="node1" class="node"><title>Node1</title>
<polygon fill="#bfbfbf" stroke="black" points="0,-0 0,-34 164,-34 164,-0 0,-0"/>
<text text-anchor="start" x="8" y="-21.9" font-family="Helvetica,sans-Serif" font-size="9.00">de.tu_clausthal.in.mec.runtime.core.</text>
<text text-anchor="middle" x="82" y="-8.9" font-family="Helvetica,sans-Serif" font-size="9.00">CMainLoop.invokeTasks</text>
</g>
<!-- Node2 -->
<g id="node3" class="node"><title>Node2</title>
<a xlink:href="../../db/db6/a00074.htm#a877476c8b1ea09075ff2e122675ce77d" target="_top" xlink:title="returns a runnable object of the steppable input ">
<polygon fill="none" stroke="black" points="200,-0 200,-34 364,-34 364,-0 200,-0"/>
<text text-anchor="start" x="208" y="-21.9" font-family="Helvetica,sans-Serif" font-size="9.00">de.tu_clausthal.in.mec.runtime.core.</text>
<text text-anchor="middle" x="282" y="-8.9" font-family="Helvetica,sans-Serif" font-size="9.00">CMainLoop.createTask</text>
</a>
</g>
<!-- Node1&#45;&gt;Node2 -->
<g id="edge2" class="edge"><title>Node1&#45;&gt;Node2</title>
<path fill="none" stroke="midnightblue" d="M164.213,-17C172.562,-17 181.082,-17 189.53,-17"/>
<polygon fill="midnightblue" stroke="midnightblue" points="189.783,-20.5001 199.783,-17 189.783,-13.5001 189.783,-20.5001"/>
</g>
<!-- Node3 -->
<g id="node5" class="node"><title>Node3</title>
<a xlink:href="../../d1/dc6/a00037.htm#ae523069a1b523b0e6a0c643049b1d745" target="_top" xlink:title="returns a default string of the resource file ">
<polygon fill="none" stroke="black" points="400,-0 400,-34 548,-34 548,-0 400,-0"/>
<text text-anchor="start" x="408" y="-21.9" font-family="Helvetica,sans-Serif" font-size="9.00">de.tu_clausthal.in.mec.common.</text>
<text text-anchor="middle" x="474" y="-8.9" font-family="Helvetica,sans-Serif" font-size="9.00">CCommon.getResourceString</text>
</a>
</g>
<!-- Node2&#45;&gt;Node3 -->
<g id="edge4" class="edge"><title>Node2&#45;&gt;Node3</title>
<path fill="none" stroke="midnightblue" d="M364.261,-17C372.655,-17 381.191,-17 389.608,-17"/>
<polygon fill="midnightblue" stroke="midnightblue" points="389.796,-20.5001 399.796,-17 389.796,-13.5001 389.796,-20.5001"/>
</g>
</g>
</svg>
