<?xml version="1.0" encoding="UTF-8" standalone="no"?>
<!DOCTYPE svg PUBLIC "-//W3C//DTD SVG 1.1//EN"
 "http://www.w3.org/Graphics/SVG/1.1/DTD/svg11.dtd">
<!-- Generated by graphviz version 2.26.3 (20100126.1600)
 -->
<!-- Title: de.tu_clausthal.in.mec.runtime.core.CMainLoop.processLayer Pages: 1 -->
<svg width="556pt" height="94pt"
 viewBox="0.00 0.00 556.00 94.00" xmlns="http://www.w3.org/2000/svg" xmlns:xlink="http://www.w3.org/1999/xlink">
<g id="graph1" class="graph" transform="scale(1 1) rotate(0) translate(4 90)">
<title>de.tu_clausthal.in.mec.runtime.core.CMainLoop.processLayer</title>
<!-- Node1 -->
<g id="node1" class="node"><title>Node1</title>
<polygon fill="#bfbfbf" stroke="black" points="0,-26 0,-60 164,-60 164,-26 0,-26"/>
<text text-anchor="start" x="8" y="-47.9" font-family="Helvetica,sans-Serif" font-size="9.00">de.tu_clausthal.in.mec.runtime.core.</text>
<text text-anchor="middle" x="82" y="-34.9" font-family="Helvetica,sans-Serif" font-size="9.00">CMainLoop.processLayer</text>
</g>
<!-- Node2 -->
<g id="node3" class="node"><title>Node2</title>
<a xlink:href="../../db/db6/a00074.htm#a877476c8b1ea09075ff2e122675ce77d" target="_top" xlink:title="returns a runnable object of the steppable input ">
<polygon fill="none" stroke="black" points="200,-52 200,-86 364,-86 364,-52 200,-52"/>
<text text-anchor="start" x="208" y="-73.9" font-family="Helvetica,sans-Serif" font-size="9.00">de.tu_clausthal.in.mec.runtime.core.</text>
<text text-anchor="middle" x="282" y="-60.9" font-family="Helvetica,sans-Serif" font-size="9.00">CMainLoop.createTask</text>
</a>
</g>
<!-- Node1&#45;&gt;Node2 -->
<g id="edge2" class="edge"><title>Node1&#45;&gt;Node2</title>
<path fill="none" stroke="midnightblue" d="M164.213,-53.6878C172.654,-54.785 181.27,-55.9051 189.809,-57.0151"/>
<polygon fill="midnightblue" stroke="midnightblue" points="189.415,-60.4933 199.783,-58.3117 190.317,-53.5517 189.415,-60.4933"/>
</g>
<!-- Node4 -->
<g id="node7" class="node"><title>Node4</title>
<a xlink:href="../../d0/d61/a00100.htm#a2f84b4ec6605cc18ae204b812d7884ec" target="_top" xlink:title="returns the singelton instance ">
<polygon fill="none" stroke="black" points="210.5,-0 210.5,-34 353.5,-34 353.5,-0 210.5,-0"/>
<text text-anchor="start" x="218.5" y="-21.9" font-family="Helvetica,sans-Serif" font-size="9.00">de.tu_clausthal.in.mec.runtime.</text>
<text text-anchor="middle" x="282" y="-8.9" font-family="Helvetica,sans-Serif" font-size="9.00">CSimulation.getInstance</text>
</a>
</g>
<!-- Node1&#45;&gt;Node4 -->
<g id="edge6" class="edge"><title>Node1&#45;&gt;Node4</title>
<path fill="none" stroke="midnightblue" d="M164.213,-32.3122C176.166,-30.7584 188.468,-29.1591 200.409,-27.6069"/>
<polygon fill="midnightblue" stroke="midnightblue" points="200.872,-31.0762 210.337,-26.3162 199.969,-24.1346 200.872,-31.0762"/>
</g>
<!-- Node3 -->
<g id="node5" class="node"><title>Node3</title>
<a xlink:href="../../d1/dc6/a00037.htm#ae523069a1b523b0e6a0c643049b1d745" target="_top" xlink:title="returns a default string of the resource file ">
<polygon fill="none" stroke="black" points="400,-52 400,-86 548,-86 548,-52 400,-52"/>
<text text-anchor="start" x="408" y="-73.9" font-family="Helvetica,sans-Serif" font-size="9.00">de.tu_clausthal.in.mec.common.</text>
<text text-anchor="middle" x="474" y="-60.9" font-family="Helvetica,sans-Serif" font-size="9.00">CCommon.getResourceString</text>
</a>
</g>
<!-- Node2&#45;&gt;Node3 -->
<g id="edge4" class="edge"><title>Node2&#45;&gt;Node3</title>
<path fill="none" stroke="midnightblue" d="M364.261,-69C372.655,-69 381.191,-69 389.608,-69"/>
<polygon fill="midnightblue" stroke="midnightblue" points="389.796,-72.5001 399.796,-69 389.796,-65.5001 389.796,-72.5001"/>
</g>
</g>
</svg>
