<?xml version="1.0" encoding="UTF-8" standalone="no"?>
<!DOCTYPE svg PUBLIC "-//W3C//DTD SVG 1.1//EN"
 "http://www.w3.org/Graphics/SVG/1.1/DTD/svg11.dtd">
<!-- Generated by graphviz version 2.26.3 (20100126.1600)
 -->
<!-- Title: de.tu_clausthal.in.mec.object.mas.generic.implementation.CLiteral&lt; T &gt;.clone Pages: 1 -->
<svg width="632pt" height="42pt"
 viewBox="0.00 0.00 632.00 42.00" xmlns="http://www.w3.org/2000/svg" xmlns:xlink="http://www.w3.org/1999/xlink">
<g id="graph1" class="graph" transform="scale(1 1) rotate(0) translate(4 38)">
<title>de.tu_clausthal.in.mec.object.mas.generic.implementation.CLiteral&lt; T &gt;.clone</title>
<!-- Node1 -->
<g id="node1" class="node"><title>Node1</title>
<polygon fill="#bfbfbf" stroke="black" points="0.5,-0 0.5,-34 255.5,-34 255.5,-0 0.5,-0"/>
<text text-anchor="start" x="8.5" y="-21.9" font-family="Helvetica,sans-Serif" font-size="9.00">de.tu_clausthal.in.mec.object.mas.generic.implementation.</text>
<text text-anchor="middle" x="128" y="-8.9" font-family="Helvetica,sans-Serif" font-size="9.00">CLiteral&lt; T &gt;.clone</text>
</g>
<!-- Node2 -->
<g id="node3" class="node"><title>Node2</title>
<a xlink:href="../../dc/d54/a00094.htm#ac1cc82a2cecb8966047c4fab26b0e696" target="_top" xlink:title="appends a path at the current and returns a new object ">
<polygon fill="none" stroke="black" points="292,-0 292,-34 440,-34 440,-0 292,-0"/>
<text text-anchor="start" x="300" y="-21.9" font-family="Helvetica,sans-Serif" font-size="9.00">de.tu_clausthal.in.mec.common.</text>
<text text-anchor="middle" x="366" y="-8.9" font-family="Helvetica,sans-Serif" font-size="9.00">CPath.append</text>
</a>
</g>
<!-- Node1&#45;&gt;Node2 -->
<g id="edge2" class="edge"><title>Node1&#45;&gt;Node2</title>
<path fill="none" stroke="midnightblue" d="M255.709,-17C264.489,-17 273.206,-17 281.667,-17"/>
<polygon fill="midnightblue" stroke="midnightblue" points="281.847,-20.5001 291.847,-17 281.847,-13.5001 281.847,-20.5001"/>
</g>
<!-- Node3 -->
<g id="node5" class="node"><title>Node3</title>
<a xlink:href="../../dc/d54/a00094.htm#acc1851e52b605a9cab13d2b85c2acb68" target="_top" xlink:title="copy&#45;ctor with arguments ">
<polygon fill="none" stroke="black" points="476,-0 476,-34 624,-34 624,-0 476,-0"/>
<text text-anchor="start" x="484" y="-21.9" font-family="Helvetica,sans-Serif" font-size="9.00">de.tu_clausthal.in.mec.common.</text>
<text text-anchor="middle" x="550" y="-8.9" font-family="Helvetica,sans-Serif" font-size="9.00">CPath.CPath</text>
</a>
</g>
<!-- Node2&#45;&gt;Node3 -->
<g id="edge4" class="edge"><title>Node2&#45;&gt;Node3</title>
<path fill="none" stroke="midnightblue" d="M440.044,-17C448.514,-17 457.195,-17 465.784,-17"/>
<polygon fill="midnightblue" stroke="midnightblue" points="465.808,-20.5001 475.808,-17 465.807,-13.5001 465.808,-20.5001"/>
</g>
</g>
</svg>
