<?xml version="1.0" encoding="UTF-8" standalone="no"?>
<!DOCTYPE svg PUBLIC "-//W3C//DTD SVG 1.1//EN"
 "http://www.w3.org/Graphics/SVG/1.1/DTD/svg11.dtd">
<!-- Generated by graphviz version 2.26.3 (20100126.1600)
 -->
<!-- Title: de.tu_clausthal.in.mec.CBootstrap.onApplicationClose Pages: 1 -->
<svg width="402pt" height="94pt"
 viewBox="0.00 0.00 402.00 94.00" xmlns="http://www.w3.org/2000/svg" xmlns:xlink="http://www.w3.org/1999/xlink">
<g id="graph1" class="graph" transform="scale(1 1) rotate(0) translate(4 90)">
<title>de.tu_clausthal.in.mec.CBootstrap.onApplicationClose</title>
<!-- Node1 -->
<g id="node1" class="node"><title>Node1</title>
<polygon fill="#bfbfbf" stroke="black" points="0.5,-26 0.5,-60 169.5,-60 169.5,-26 0.5,-26"/>
<text text-anchor="start" x="8.5" y="-47.9" font-family="Helvetica,sans-Serif" font-size="9.00">de.tu_clausthal.in.mec.CBootstrap.on</text>
<text text-anchor="middle" x="85" y="-34.9" font-family="Helvetica,sans-Serif" font-size="9.00">ApplicationClose</text>
</g>
<!-- Node2 -->
<g id="node3" class="node"><title>Node2</title>
<a xlink:href="../../d0/d61/a00100.htm#a2f84b4ec6605cc18ae204b812d7884ec" target="_top" xlink:title="returns the singelton instance ">
<polygon fill="none" stroke="black" points="228.5,-52 228.5,-86 371.5,-86 371.5,-52 228.5,-52"/>
<text text-anchor="start" x="236.5" y="-73.9" font-family="Helvetica,sans-Serif" font-size="9.00">de.tu_clausthal.in.mec.runtime.</text>
<text text-anchor="middle" x="300" y="-60.9" font-family="Helvetica,sans-Serif" font-size="9.00">CSimulation.getInstance</text>
</a>
</g>
<!-- Node1&#45;&gt;Node2 -->
<g id="edge2" class="edge"><title>Node1&#45;&gt;Node2</title>
<path fill="none" stroke="midnightblue" d="M169.665,-53.2386C185.57,-55.162 202.175,-57.1699 217.997,-59.0833"/>
<polygon fill="midnightblue" stroke="midnightblue" points="217.918,-62.5993 228.266,-60.3252 218.759,-55.6499 217.918,-62.5993"/>
</g>
<!-- Node3 -->
<g id="node5" class="node"><title>Node3</title>
<a xlink:href="../../db/d3a/a00040.htm#a5fc1c2b2396e46e44cbc25c907f2c452" target="_top" xlink:title="singleton get instance method ">
<polygon fill="none" stroke="black" points="206,-0 206,-34 394,-34 394,-0 206,-0"/>
<text text-anchor="start" x="214" y="-21.9" font-family="Helvetica,sans-Serif" font-size="9.00">de.tu_clausthal.in.mec.CConfiguration.get</text>
<text text-anchor="middle" x="300" y="-8.9" font-family="Helvetica,sans-Serif" font-size="9.00">Instance</text>
</a>
</g>
<!-- Node1&#45;&gt;Node3 -->
<g id="edge4" class="edge"><title>Node1&#45;&gt;Node3</title>
<path fill="none" stroke="midnightblue" d="M169.665,-32.7614C178.196,-31.7298 186.927,-30.6739 195.631,-29.6213"/>
<polygon fill="midnightblue" stroke="midnightblue" points="196.316,-33.0642 205.823,-28.3888 195.475,-26.1148 196.316,-33.0642"/>
</g>
</g>
</svg>
