<?xml version="1.0" encoding="UTF-8" standalone="no"?>
<!DOCTYPE svg PUBLIC "-//W3C//DTD SVG 1.1//EN"
 "http://www.w3.org/Graphics/SVG/1.1/DTD/svg11.dtd">
<!-- Generated by graphviz version 2.26.3 (20100126.1600)
 -->
<!-- Title: de.tu_clausthal.in.mec.runtime.message.CMessage&lt; T &gt;.CMessage Pages: 1 -->
<svg width="376pt" height="94pt"
 viewBox="0.00 0.00 376.00 94.00" xmlns="http://www.w3.org/2000/svg" xmlns:xlink="http://www.w3.org/1999/xlink">
<g id="graph1" class="graph" transform="scale(1 1) rotate(0) translate(4 90)">
<title>de.tu_clausthal.in.mec.runtime.message.CMessage&lt; T &gt;.CMessage</title>
<!-- Node1 -->
<g id="node1" class="node"><title>Node1</title>
<polygon fill="#bfbfbf" stroke="black" points="0.5,-26 0.5,-60 183.5,-60 183.5,-26 0.5,-26"/>
<text text-anchor="start" x="8.5" y="-47.9" font-family="Helvetica,sans-Serif" font-size="9.00">de.tu_clausthal.in.mec.runtime.message.</text>
<text text-anchor="middle" x="92" y="-34.9" font-family="Helvetica,sans-Serif" font-size="9.00">CMessage&lt; T &gt;.CMessage</text>
</g>
<!-- Node2 -->
<g id="node3" class="node"><title>Node2</title>
<a xlink:href="../../d1/dc6/a00037.htm#ae523069a1b523b0e6a0c643049b1d745" target="_top" xlink:title="returns a default string of the resource file ">
<polygon fill="none" stroke="black" points="220,-52 220,-86 368,-86 368,-52 220,-52"/>
<text text-anchor="start" x="228" y="-73.9" font-family="Helvetica,sans-Serif" font-size="9.00">de.tu_clausthal.in.mec.common.</text>
<text text-anchor="middle" x="294" y="-60.9" font-family="Helvetica,sans-Serif" font-size="9.00">CCommon.getResourceString</text>
</a>
</g>
<!-- Node1&#45;&gt;Node2 -->
<g id="edge2" class="edge"><title>Node1&#45;&gt;Node2</title>
<path fill="none" stroke="midnightblue" d="M183.544,-54.7828C192.247,-55.9031 201.045,-57.0355 209.676,-58.1464"/>
<polygon fill="midnightblue" stroke="midnightblue" points="209.35,-61.6332 219.715,-59.4385 210.244,-54.6905 209.35,-61.6332"/>
</g>
<!-- Node3 -->
<g id="node5" class="node"><title>Node3</title>
<a xlink:href="../../dc/d54/a00094.htm#a4aa59b201e56cd0f80d5ab081b57517c" target="_top" xlink:title="check if the path is empty ">
<polygon fill="none" stroke="black" points="220,-0 220,-34 368,-34 368,-0 220,-0"/>
<text text-anchor="start" x="228" y="-21.9" font-family="Helvetica,sans-Serif" font-size="9.00">de.tu_clausthal.in.mec.common.</text>
<text text-anchor="middle" x="294" y="-8.9" font-family="Helvetica,sans-Serif" font-size="9.00">CPath.isEmpty</text>
</a>
</g>
<!-- Node1&#45;&gt;Node3 -->
<g id="edge4" class="edge"><title>Node1&#45;&gt;Node3</title>
<path fill="none" stroke="midnightblue" d="M183.544,-31.2172C192.247,-30.0969 201.045,-28.9645 209.676,-27.8536"/>
<polygon fill="midnightblue" stroke="midnightblue" points="210.244,-31.3095 219.715,-26.5615 209.35,-24.3668 210.244,-31.3095"/>
</g>
</g>
</svg>
