<?xml version="1.0" encoding="UTF-8" standalone="no"?>
<!DOCTYPE svg PUBLIC "-//W3C//DTD SVG 1.1//EN"
 "http://www.w3.org/Graphics/SVG/1.1/DTD/svg11.dtd">
<!-- Generated by graphviz version 2.26.3 (20100126.1600)
 -->
<!-- Title: de.tu_clausthal.in.mec.runtime.IVoidSteppable Pages: 1 -->
<svg width="150pt" height="200pt"
 viewBox="0.00 0.00 150.00 200.00" xmlns="http://www.w3.org/2000/svg" xmlns:xlink="http://www.w3.org/1999/xlink">
<g id="graph1" class="graph" transform="scale(1 1) rotate(0) translate(4 196)">
<title>de.tu_clausthal.in.mec.runtime.IVoidSteppable</title>
<!-- Node1 -->
<g id="node1" class="node"><title>Node1</title>
<polygon fill="#bfbfbf" stroke="black" points="-0.5,-1 -0.5,-77 142.5,-77 142.5,-1 -0.5,-1"/>
<text text-anchor="start" x="7.5" y="-64.9" font-family="Helvetica,sans-Serif" font-size="9.00">de.tu_clausthal.in.mec.runtime.</text>
<text text-anchor="middle" x="71" y="-51.9" font-family="Helvetica,sans-Serif" font-size="9.00">IVoidSteppable</text>
<polyline fill="none" stroke="black" points="-0.5,-43 142.5,-43 "/>
<text text-anchor="middle" x="71" y="-30.9" font-family="Helvetica,sans-Serif" font-size="9.00"> </text>
<polyline fill="none" stroke="black" points="-0.5,-22 142.5,-22 "/>
<text text-anchor="start" x="7.5" y="-9.9" font-family="Helvetica,sans-Serif" font-size="9.00">+ step()</text>
</g>
<!-- Node2 -->
<g id="node2" class="node"><title>Node2</title>
<a xlink:href="../../da/d15/a00188.htm" target="_top" xlink:title="interface for all objects which are triggered by the simulation worker ">
<polygon fill="none" stroke="black" points="-0.5,-115 -0.5,-191 142.5,-191 142.5,-115 -0.5,-115"/>
<text text-anchor="start" x="7.5" y="-178.9" font-family="Helvetica,sans-Serif" font-size="9.00">de.tu_clausthal.in.mec.runtime.</text>
<text text-anchor="middle" x="71" y="-165.9" font-family="Helvetica,sans-Serif" font-size="9.00">ISteppable</text>
<polyline fill="none" stroke="black" points="-0.5,-157 142.5,-157 "/>
<text text-anchor="middle" x="71" y="-144.9" font-family="Helvetica,sans-Serif" font-size="9.00"> </text>
<polyline fill="none" stroke="black" points="-0.5,-136 142.5,-136 "/>
<text text-anchor="start" x="7.5" y="-123.9" font-family="Helvetica,sans-Serif" font-size="9.00">+ release()</text>
</a>
</g>
<!-- Node2&#45;&gt;Node1 -->
<g id="edge2" class="edge"><title>Node2&#45;&gt;Node1</title>
<path fill="none" stroke="midnightblue" d="M71,-104.623C71,-95.5202 71,-86.1166 71,-77.3705"/>
<polygon fill="none" stroke="midnightblue" points="67.5001,-104.722 71,-114.723 74.5001,-104.723 67.5001,-104.722"/>
</g>
</g>
</svg>
