<?xml version="1.0" encoding="UTF-8" standalone="no"?>
<!DOCTYPE svg PUBLIC "-//W3C//DTD SVG 1.1//EN"
 "http://www.w3.org/Graphics/SVG/1.1/DTD/svg11.dtd">
<!-- Generated by graphviz version 2.26.3 (20100126.1600)
 -->
<!-- Title: de.tu_clausthal.in.mec.runtime.message.IReceiver Pages: 1 -->
<svg width="538pt" height="546pt"
 viewBox="0.00 0.00 538.00 546.00" xmlns="http://www.w3.org/2000/svg" xmlns:xlink="http://www.w3.org/1999/xlink">
<g id="graph1" class="graph" transform="scale(1 1) rotate(0) translate(4 542)">
<title>de.tu_clausthal.in.mec.runtime.message.IReceiver</title>
<!-- Node1 -->
<g id="node1" class="node"><title>Node1</title>
<polygon fill="#bfbfbf" stroke="black" points="160.5,-448.5 160.5,-537.5 343.5,-537.5 343.5,-448.5 160.5,-448.5"/>
<text text-anchor="start" x="168.5" y="-525.4" font-family="Helvetica,sans-Serif" font-size="9.00">de.tu_clausthal.in.mec.runtime.message.</text>
<text text-anchor="middle" x="252" y="-512.4" font-family="Helvetica,sans-Serif" font-size="9.00">IReceiver</text>
<polyline fill="none" stroke="black" points="160.5,-503.5 343.5,-503.5 "/>
<text text-anchor="middle" x="252" y="-491.4" font-family="Helvetica,sans-Serif" font-size="9.00"> </text>
<polyline fill="none" stroke="black" points="160.5,-482.5 343.5,-482.5 "/>
<text text-anchor="start" x="168.5" y="-470.4" font-family="Helvetica,sans-Serif" font-size="9.00">+ getReceiverPath()</text>
<text text-anchor="start" x="168.5" y="-457.4" font-family="Helvetica,sans-Serif" font-size="9.00">+ receiveMessage()</text>
</g>
<!-- Node2 -->
<g id="node3" class="node"><title>Node2</title>
<a xlink:href="../../dc/de2/a00024.htm" target="_top" xlink:title="agent car ">
<polygon fill="none" stroke="black" points="4,-166.5 4,-411.5 156,-411.5 156,-166.5 4,-166.5"/>
<text text-anchor="start" x="12" y="-399.4" font-family="Helvetica,sans-Serif" font-size="9.00">de.tu_clausthal.in.mec.object.car.</text>
<text text-anchor="middle" x="80" y="-386.4" font-family="Helvetica,sans-Serif" font-size="9.00">CCarJasonAgent</text>
<polyline fill="none" stroke="black" points="4,-377.5 156,-377.5 "/>
<text text-anchor="start" x="12" y="-365.4" font-family="Helvetica,sans-Serif" font-size="9.00">&#45; m_agentlayer</text>
<text text-anchor="start" x="12" y="-352.4" font-family="Helvetica,sans-Serif" font-size="9.00">&#45; m_agents</text>
<text text-anchor="start" x="12" y="-339.4" font-family="Helvetica,sans-Serif" font-size="9.00">&#45; m_inspect</text>
<text text-anchor="start" x="12" y="-326.4" font-family="Helvetica,sans-Serif" font-size="9.00">&#45; m_objectpath</text>
<text text-anchor="start" x="12" y="-313.4" font-family="Helvetica,sans-Serif" font-size="9.00">&#45; m_seenpredecessors</text>
<text text-anchor="start" x="12" y="-300.4" font-family="Helvetica,sans-Serif" font-size="9.00">&#45; m_trafficbeliefbase</text>
<polyline fill="none" stroke="black" points="4,-291.5 156,-291.5 "/>
<text text-anchor="start" x="12" y="-279.4" font-family="Helvetica,sans-Serif" font-size="9.00">+ CCarJasonAgent()</text>
<text text-anchor="start" x="12" y="-266.4" font-family="Helvetica,sans-Serif" font-size="9.00">+ CCarJasonAgent()</text>
<text text-anchor="start" x="12" y="-253.4" font-family="Helvetica,sans-Serif" font-size="9.00">+ getReceiverPath()</text>
<text text-anchor="start" x="12" y="-240.4" font-family="Helvetica,sans-Serif" font-size="9.00">+ inspect()</text>
<text text-anchor="start" x="12" y="-227.4" font-family="Helvetica,sans-Serif" font-size="9.00">+ receiveMessage()</text>
<text text-anchor="start" x="12" y="-214.4" font-family="Helvetica,sans-Serif" font-size="9.00">+ release()</text>
<text text-anchor="start" x="12" y="-201.4" font-family="Helvetica,sans-Serif" font-size="9.00">+ step()</text>
<text text-anchor="start" x="12" y="-188.4" font-family="Helvetica,sans-Serif" font-size="9.00">&#45; bind()</text>
<text text-anchor="start" x="12" y="-175.4" font-family="Helvetica,sans-Serif" font-size="9.00">&#45; getPredecessorWithName()</text>
</a>
</g>
<!-- Node1&#45;&gt;Node2 -->
<g id="edge2" class="edge"><title>Node1&#45;&gt;Node2</title>
<path fill="none" stroke="midnightblue" d="M193.056,-441.406C183.319,-431.971 173.604,-421.952 165,-412 162.029,-408.564 159.067,-405.023 156.127,-401.407"/>
<polygon fill="none" stroke="midnightblue" points="190.837,-444.126 200.489,-448.496 195.669,-439.061 190.837,-444.126"/>
</g>
<!-- Node3 -->
<g id="node5" class="node"><title>Node3</title>
<a xlink:href="../../d9/db6/a00146.htm" target="_top" xlink:title="interface of an agent ">
<polygon fill="none" stroke="black" points="173.5,-199 173.5,-379 330.5,-379 330.5,-199 173.5,-199"/>
<text text-anchor="start" x="181.5" y="-366.9" font-family="Helvetica,sans-Serif" font-size="9.00">de.tu_clausthal.in.mec.object.mas.</text>
<text text-anchor="middle" x="252" y="-353.9" font-family="Helvetica,sans-Serif" font-size="9.00">IAgent&lt; T &gt;</text>
<polyline fill="none" stroke="black" points="173.5,-345 330.5,-345 "/>
<text text-anchor="middle" x="252" y="-332.9" font-family="Helvetica,sans-Serif" font-size="9.00"> </text>
<polyline fill="none" stroke="black" points="173.5,-324 330.5,-324 "/>
<text text-anchor="start" x="181.5" y="-311.9" font-family="Helvetica,sans-Serif" font-size="9.00">+ addBeliefBase()</text>
<text text-anchor="start" x="181.5" y="-298.9" font-family="Helvetica,sans-Serif" font-size="9.00">+ bind()</text>
<text text-anchor="start" x="181.5" y="-285.9" font-family="Helvetica,sans-Serif" font-size="9.00">+ getBeliefBase()</text>
<text text-anchor="start" x="181.5" y="-272.9" font-family="Helvetica,sans-Serif" font-size="9.00">+ getCycle()</text>
<text text-anchor="start" x="181.5" y="-259.9" font-family="Helvetica,sans-Serif" font-size="9.00">+ getName()</text>
<text text-anchor="start" x="181.5" y="-246.9" font-family="Helvetica,sans-Serif" font-size="9.00">+ getSource()</text>
<text text-anchor="start" x="181.5" y="-233.9" font-family="Helvetica,sans-Serif" font-size="9.00">+ release()</text>
<text text-anchor="start" x="181.5" y="-220.9" font-family="Helvetica,sans-Serif" font-size="9.00">+ removeBeliefBase()</text>
<text text-anchor="start" x="181.5" y="-207.9" font-family="Helvetica,sans-Serif" font-size="9.00">+ unbind()</text>
</a>
</g>
<!-- Node1&#45;&gt;Node3 -->
<g id="edge4" class="edge"><title>Node1&#45;&gt;Node3</title>
<path fill="none" stroke="midnightblue" d="M252,-438.354C252,-420.114 252,-399.278 252,-379.075"/>
<polygon fill="none" stroke="midnightblue" points="248.5,-438.483 252,-448.483 255.5,-438.483 248.5,-438.483"/>
</g>
<!-- Node6 -->
<g id="node11" class="node"><title>Node6</title>
<a xlink:href="../../dd/d4c/a00177.htm" target="_top" xlink:title="interface of a participant of the event system ">
<polygon fill="none" stroke="black" points="347.5,-251 347.5,-327 530.5,-327 530.5,-251 347.5,-251"/>
<text text-anchor="start" x="355.5" y="-314.9" font-family="Helvetica,sans-Serif" font-size="9.00">de.tu_clausthal.in.mec.runtime.message.</text>
<text text-anchor="middle" x="439" y="-301.9" font-family="Helvetica,sans-Serif" font-size="9.00">IParticipant</text>
<polyline fill="none" stroke="black" points="347.5,-293 530.5,-293 "/>
<text text-anchor="middle" x="439" y="-280.9" font-family="Helvetica,sans-Serif" font-size="9.00"> </text>
<polyline fill="none" stroke="black" points="347.5,-272 530.5,-272 "/>
<text text-anchor="start" x="355.5" y="-259.9" font-family="Helvetica,sans-Serif" font-size="9.00">+ sendMessage()</text>
</a>
</g>
<!-- Node1&#45;&gt;Node6 -->
<g id="edge10" class="edge"><title>Node1&#45;&gt;Node6</title>
<path fill="none" stroke="midnightblue" d="M309.931,-441.177C319.861,-431.702 329.902,-421.73 339,-412 364.376,-384.862 390.797,-352.141 410.105,-327.272"/>
<polygon fill="none" stroke="midnightblue" points="307.243,-438.902 302.377,-448.313 312.05,-443.99 307.243,-438.902"/>
</g>
<!-- Node4 -->
<g id="node7" class="node"><title>Node4</title>
<a xlink:href="../../d7/d25/a00182.htm" target="_top" xlink:title="interface of an agent with return&#45;steppable interface ">
<polygon fill="none" stroke="black" points="-0.5,-27 -0.5,-103 156.5,-103 156.5,-27 -0.5,-27"/>
<text text-anchor="start" x="7.5" y="-90.9" font-family="Helvetica,sans-Serif" font-size="9.00">de.tu_clausthal.in.mec.object.mas.</text>
<text text-anchor="middle" x="78" y="-77.9" font-family="Helvetica,sans-Serif" font-size="9.00">IReturnAgent&lt; T &gt;</text>
<polyline fill="none" stroke="black" points="-0.5,-69 156.5,-69 "/>
<text text-anchor="middle" x="78" y="-56.9" font-family="Helvetica,sans-Serif" font-size="9.00"> </text>
<polyline fill="none" stroke="black" points="-0.5,-48 156.5,-48 "/>
<text text-anchor="middle" x="78" y="-35.9" font-family="Helvetica,sans-Serif" font-size="9.00"> </text>
</a>
</g>
<!-- Node3&#45;&gt;Node4 -->
<g id="edge6" class="edge"><title>Node3&#45;&gt;Node4</title>
<path fill="none" stroke="midnightblue" d="M183.811,-190.789C177.553,-182.329 171.225,-173.965 165,-166 148.327,-144.665 128.722,-121.735 112.347,-103.124"/>
<polygon fill="none" stroke="midnightblue" points="181.043,-192.933 189.784,-198.92 186.685,-188.789 181.043,-192.933"/>
</g>
<!-- Node5 -->
<g id="node9" class="node"><title>Node5</title>
<a xlink:href="../../d7/ded/a00196.htm" target="_top" xlink:title="interface of an agent with void&#45;steppable interface ">
<polygon fill="none" stroke="black" points="173.5,-27 173.5,-103 330.5,-103 330.5,-27 173.5,-27"/>
<text text-anchor="start" x="181.5" y="-90.9" font-family="Helvetica,sans-Serif" font-size="9.00">de.tu_clausthal.in.mec.object.mas.</text>
<text text-anchor="middle" x="252" y="-77.9" font-family="Helvetica,sans-Serif" font-size="9.00">IVoidAgent&lt; T &gt;</text>
<polyline fill="none" stroke="black" points="173.5,-69 330.5,-69 "/>
<text text-anchor="middle" x="252" y="-56.9" font-family="Helvetica,sans-Serif" font-size="9.00"> </text>
<polyline fill="none" stroke="black" points="173.5,-48 330.5,-48 "/>
<text text-anchor="middle" x="252" y="-35.9" font-family="Helvetica,sans-Serif" font-size="9.00"> </text>
</a>
</g>
<!-- Node3&#45;&gt;Node5 -->
<g id="edge8" class="edge"><title>Node3&#45;&gt;Node5</title>
<path fill="none" stroke="midnightblue" d="M252,-188.602C252,-158.189 252,-126.622 252,-103.002"/>
<polygon fill="none" stroke="midnightblue" points="248.5,-188.859 252,-198.859 255.5,-188.859 248.5,-188.859"/>
</g>
<!-- Node7 -->
<g id="node13" class="node"><title>Node7</title>
<a xlink:href="../../d4/d7d/a00093.htm" target="_top" xlink:title="participant class for event messager ">
<polygon fill="none" stroke="black" points="347.5,-1 347.5,-129 530.5,-129 530.5,-1 347.5,-1"/>
<text text-anchor="start" x="355.5" y="-116.9" font-family="Helvetica,sans-Serif" font-size="9.00">de.tu_clausthal.in.mec.runtime.message.</text>
<text text-anchor="middle" x="439" y="-103.9" font-family="Helvetica,sans-Serif" font-size="9.00">CParticipant</text>
<polyline fill="none" stroke="black" points="347.5,-95 530.5,-95 "/>
<text text-anchor="start" x="355.5" y="-82.9" font-family="Helvetica,sans-Serif" font-size="9.00">&#45; m_owner</text>
<polyline fill="none" stroke="black" points="347.5,-74 530.5,-74 "/>
<text text-anchor="start" x="355.5" y="-61.9" font-family="Helvetica,sans-Serif" font-size="9.00">+ CParticipant()</text>
<text text-anchor="start" x="355.5" y="-48.9" font-family="Helvetica,sans-Serif" font-size="9.00">+ getReceiverPath()</text>
<text text-anchor="start" x="355.5" y="-35.9" font-family="Helvetica,sans-Serif" font-size="9.00">+ receiveMessage()</text>
<text text-anchor="start" x="355.5" y="-22.9" font-family="Helvetica,sans-Serif" font-size="9.00">+ release()</text>
<text text-anchor="start" x="355.5" y="-9.9" font-family="Helvetica,sans-Serif" font-size="9.00">+ sendMessage()</text>
</a>
</g>
<!-- Node6&#45;&gt;Node7 -->
<g id="edge12" class="edge"><title>Node6&#45;&gt;Node7</title>
<path fill="none" stroke="midnightblue" d="M439,-240.587C439,-208.062 439,-164.839 439,-129.416"/>
<polygon fill="none" stroke="midnightblue" points="435.5,-240.748 439,-250.748 442.5,-240.748 435.5,-240.748"/>
</g>
</g>
</svg>
