<?xml version="1.0" encoding="UTF-8" standalone="no"?>
<!DOCTYPE svg PUBLIC "-//W3C//DTD SVG 1.1//EN"
 "http://www.w3.org/Graphics/SVG/1.1/DTD/svg11.dtd">
<!-- Generated by graphviz version 2.26.3 (20100126.1600)
 -->
<!-- Title: de.tu_clausthal.in.mec.object.car.CCarLayer.EDrivingModel Pages: 1 -->
<svg width="208pt" height="266pt"
 viewBox="0.00 0.00 208.00 266.00" xmlns="http://www.w3.org/2000/svg" xmlns:xlink="http://www.w3.org/1999/xlink">
<g id="graph1" class="graph" transform="scale(1 1) rotate(0) translate(4 262)">
<title>de.tu_clausthal.in.mec.object.car.CCarLayer.EDrivingModel</title>
<!-- Node1 -->
<g id="node1" class="node"><title>Node1</title>
<polygon fill="#bfbfbf" stroke="black" points="24,-1 24,-129 176,-129 176,-1 24,-1"/>
<text text-anchor="start" x="32" y="-116.9" font-family="Helvetica,sans-Serif" font-size="9.00">de.tu_clausthal.in.mec.object.car.</text>
<text text-anchor="middle" x="100" y="-103.9" font-family="Helvetica,sans-Serif" font-size="9.00">CCarLayer.EDrivingModel</text>
<polyline fill="none" stroke="black" points="24,-95 176,-95 "/>
<text text-anchor="start" x="32" y="-82.9" font-family="Helvetica,sans-Serif" font-size="9.00">+ AgentNagelSchreckenberg</text>
<text text-anchor="start" x="32" y="-69.9" font-family="Helvetica,sans-Serif" font-size="9.00">+ NagelSchreckenberg</text>
<text text-anchor="start" x="32" y="-56.9" font-family="Helvetica,sans-Serif" font-size="9.00">&#45; m_text</text>
<polyline fill="none" stroke="black" points="24,-48 176,-48 "/>
<text text-anchor="start" x="32" y="-35.9" font-family="Helvetica,sans-Serif" font-size="9.00">+ EDrivingModel()</text>
<text text-anchor="start" x="32" y="-22.9" font-family="Helvetica,sans-Serif" font-size="9.00">+ getModel()</text>
<text text-anchor="start" x="32" y="-9.9" font-family="Helvetica,sans-Serif" font-size="9.00">+ toString()</text>
</g>
<!-- Node2 -->
<g id="node2" class="node"><title>Node2</title>
<a xlink:href="../../de/d38/a00160.htm" target="_top" xlink:title="drive interface for driving models ">
<polygon fill="none" stroke="black" points="0,-181 0,-257 200,-257 200,-181 0,-181"/>
<text text-anchor="start" x="8" y="-244.9" font-family="Helvetica,sans-Serif" font-size="9.00">de.tu_clausthal.in.mec.object.car.drivemodel.</text>
<text text-anchor="middle" x="100" y="-231.9" font-family="Helvetica,sans-Serif" font-size="9.00">IDriveModel</text>
<polyline fill="none" stroke="black" points="0,-223 200,-223 "/>
<text text-anchor="middle" x="100" y="-210.9" font-family="Helvetica,sans-Serif" font-size="9.00"> </text>
<polyline fill="none" stroke="black" points="0,-202 200,-202 "/>
<text text-anchor="start" x="8" y="-189.9" font-family="Helvetica,sans-Serif" font-size="9.00">+ update()</text>
</a>
</g>
<!-- Node2&#45;&gt;Node1 -->
<g id="edge2" class="edge"><title>Node2&#45;&gt;Node1</title>
<path fill="none" stroke="#404040" d="M100,-180.933C100,-168.877 100,-155.093 100,-141.338"/>
<polygon fill="none" stroke="#404040" points="100,-141.301 96,-135.301 100,-129.301 104,-135.301 100,-141.301"/>
<text text-anchor="middle" x="122" y="-153.4" font-family="Helvetica,sans-Serif" font-size="9.00"> &#45;m_model</text>
</g>
</g>
</svg>
