<?xml version="1.0" encoding="UTF-8" standalone="no"?>
<!DOCTYPE svg PUBLIC "-//W3C//DTD SVG 1.1//EN"
 "http://www.w3.org/Graphics/SVG/1.1/DTD/svg11.dtd">
<!-- Generated by graphviz version 2.26.3 (20100126.1600)
 -->
<!-- Title: de.tu_clausthal.in.mec.object.car.CDefaultCar.inspect Pages: 1 -->
<svg width="536pt" height="42pt"
 viewBox="0.00 0.00 536.00 42.00" xmlns="http://www.w3.org/2000/svg" xmlns:xlink="http://www.w3.org/1999/xlink">
<g id="graph1" class="graph" transform="scale(1 1) rotate(0) translate(4 38)">
<title>de.tu_clausthal.in.mec.object.car.CDefaultCar.inspect</title>
<!-- Node1 -->
<g id="node1" class="node"><title>Node1</title>
<polygon fill="#bfbfbf" stroke="black" points="0,-0 0,-34 152,-34 152,-0 0,-0"/>
<text text-anchor="start" x="8" y="-21.9" font-family="Helvetica,sans-Serif" font-size="9.00">de.tu_clausthal.in.mec.object.car.</text>
<text text-anchor="middle" x="76" y="-8.9" font-family="Helvetica,sans-Serif" font-size="9.00">CDefaultCar.inspect</text>
</g>
<!-- Node2 -->
<g id="node3" class="node"><title>Node2</title>
<a xlink:href="../../d5/df9/a00044.htm#ac28853e03da992304cfd9a31451f97cc" target="_top" xlink:title="returns the current geo position of the car ">
<polygon fill="none" stroke="black" points="188,-0 188,-34 340,-34 340,-0 188,-0"/>
<text text-anchor="start" x="196" y="-21.9" font-family="Helvetica,sans-Serif" font-size="9.00">de.tu_clausthal.in.mec.object.car.</text>
<text text-anchor="middle" x="264" y="-8.9" font-family="Helvetica,sans-Serif" font-size="9.00">CDefaultCar.getGeoposition</text>
</a>
</g>
<!-- Node1&#45;&gt;Node2 -->
<g id="edge2" class="edge"><title>Node1&#45;&gt;Node2</title>
<path fill="none" stroke="midnightblue" d="M152.196,-17C160.517,-17 169.032,-17 177.466,-17"/>
<polygon fill="midnightblue" stroke="midnightblue" points="177.696,-20.5001 187.696,-17 177.696,-13.5001 177.696,-20.5001"/>
</g>
<!-- Node3 -->
<g id="node5" class="node"><title>Node3</title>
<a xlink:href="../../d5/df9/a00044.htm#ad0e4fa7d1813182f4ee65619933761ce" target="_top" xlink:title="get current edge object on the graph ">
<polygon fill="none" stroke="black" points="376,-0 376,-34 528,-34 528,-0 376,-0"/>
<text text-anchor="start" x="384" y="-21.9" font-family="Helvetica,sans-Serif" font-size="9.00">de.tu_clausthal.in.mec.object.car.</text>
<text text-anchor="middle" x="452" y="-8.9" font-family="Helvetica,sans-Serif" font-size="9.00">CDefaultCar.getEdge</text>
</a>
</g>
<!-- Node2&#45;&gt;Node3 -->
<g id="edge4" class="edge"><title>Node2&#45;&gt;Node3</title>
<path fill="none" stroke="midnightblue" d="M340.196,-17C348.517,-17 357.032,-17 365.466,-17"/>
<polygon fill="midnightblue" stroke="midnightblue" points="365.696,-20.5001 375.696,-17 365.696,-13.5001 365.696,-20.5001"/>
</g>
</g>
</svg>
