<?xml version="1.0" encoding="UTF-8" standalone="no"?>
<!DOCTYPE svg PUBLIC "-//W3C//DTD SVG 1.1//EN"
 "http://www.w3.org/Graphics/SVG/1.1/DTD/svg11.dtd">
<!-- Generated by graphviz version 2.26.3 (20100126.1600)
 -->
<!-- Title: de.tu_clausthal.in.mec.object.car.CDefaultCar.getEdge Pages: 1 -->
<!--zoomable 212 -->
<svg id="main" version="1.1" xmlns="http://www.w3.org/2000/svg" xmlns:xlink="http://www.w3.org/1999/xlink" xml:space="preserve" onload="init(evt)">
<style type="text/css"><![CDATA[
.edge:hover path { stroke: red; }
.edge:hover polygon { stroke: red; fill: red; }
]]></style>
<script type="text/javascript"><![CDATA[
var edges = document.getElementsByTagName('g');
if (edges && edges.length) {
  for (var i=0;i<edges.length;i++) {
    if (edges[i].id.substr(0,4)=='edge') {
      edges[i].setAttribute('class','edge');
    }
  }
}
]]></script>
        <defs>
                <circle id="rim" cx="0" cy="0" r="7"/>
                <circle id="rim2" cx="0" cy="0" r="3.5"/>
                <g id="zoomPlus">
                        <use xlink:href="#rim" fill="#404040">
                                <set attributeName="fill" to="#808080" begin="zoomplus.mouseover" end="zoomplus.mouseout"/>
                        </use>
                        <path d="M-4,0h8M0,-4v8" fill="none" stroke="white" stroke-width="1.5" pointer-events="none"/>
                </g>
                <g id="zoomMin">
                        <use xlink:href="#rim" fill="#404040">
                                <set attributeName="fill" to="#808080" begin="zoomminus.mouseover" end="zoomminus.mouseout"/>
                        </use>
                        <path d="M-4,0h8" fill="none" stroke="white" stroke-width="1.5" pointer-events="none"/>
                </g>
                <g id="dirArrow">
                        <path fill="none" stroke="white" stroke-width="1.5" d="M0,-3.0v7 M-2.5,-0.5L0,-3.0L2.5,-0.5"/>
                </g>
               <g id="resetDef">
                       <use xlink:href="#rim2" fill="#404040">
                               <set attributeName="fill" to="#808080" begin="reset.mouseover" end="reset.mouseout"/>
                       </use>
               </g>
        </defs>

<script type="text/javascript">
var viewWidth = 578;
var viewHeight = 212;
var sectionId = 'dynsection-3';
</script>
<script xlink:href="../../svgpan.js"/>
<svg id="graph" class="graph">
<g id="viewport">
<title>de.tu_clausthal.in.mec.object.car.CDefaultCar.getEdge</title>
<!-- Node1 -->
<g id="node1" class="node"><title>Node1</title>
<polygon fill="#bfbfbf" stroke="black" points="0,-81 0,-115 152,-115 152,-81 0,-81"/>
<text text-anchor="start" x="8" y="-102.9" font-family="Helvetica,sans-Serif" font-size="9.00">de.tu_clausthal.in.mec.object.car.</text>
<text text-anchor="middle" x="76" y="-89.9" font-family="Helvetica,sans-Serif" font-size="9.00">CDefaultCar.getEdge</text>
</g>
<!-- Node2 -->
<g id="node3" class="node"><title>Node2</title>
<a xlink:href="../../d5/df9/a00044.htm#ac28853e03da992304cfd9a31451f97cc" target="_top" xlink:title="returns the current geo position of the car ">
<polygon fill="none" stroke="black" points="209,-170 209,-204 361,-204 361,-170 209,-170"/>
<text text-anchor="start" x="217" y="-191.9" font-family="Helvetica,sans-Serif" font-size="9.00">de.tu_clausthal.in.mec.object.car.</text>
<text text-anchor="middle" x="285" y="-178.9" font-family="Helvetica,sans-Serif" font-size="9.00">CDefaultCar.getGeoposition</text>
</a>
</g>
<!-- Node1&#45;&gt;Node2 -->
<g id="edge2" class="edge"><title>Node1&#45;&gt;Node2</title>
<path fill="none" stroke="midnightblue" d="M110.984,-120.69C132.518,-133.883 161.066,-150.019 188,-161 196.072,-164.291 204.691,-167.289 213.336,-169.981"/>
<polygon fill="midnightblue" stroke="midnightblue" points="112.552,-117.544 102.21,-115.24 108.858,-123.49 112.552,-117.544"/>
</g>
<!-- Node4 -->
<g id="node7" class="node"><title>Node4</title>
<a xlink:href="../../d4/d3e/a00116.htm#af8abcf4682068ffa2d1e2cfe48aaf9e2" target="_top" xlink:title="returns the geo position as literal ">
<polygon fill="none" stroke="black" points="188,-104.5 188,-151.5 382,-151.5 382,-104.5 188,-104.5"/>
<text text-anchor="start" x="196" y="-139.4" font-family="Helvetica,sans-Serif" font-size="9.00">de.tu_clausthal.in.mec.object.car.</text>
<text text-anchor="start" x="196" y="-126.4" font-family="Helvetica,sans-Serif" font-size="9.00">CCarJasonAgent.CTrafficStorage.getLiteral</text>
<text text-anchor="middle" x="285" y="-113.4" font-family="Helvetica,sans-Serif" font-size="9.00">Geoposition</text>
</a>
</g>
<!-- Node1&#45;&gt;Node4 -->
<g id="edge6" class="edge"><title>Node1&#45;&gt;Node4</title>
<path fill="none" stroke="midnightblue" d="M162,-110.345C170.56,-111.573 179.29,-112.826 187.952,-114.07"/>
<polygon fill="midnightblue" stroke="midnightblue" points="162.441,-106.872 152.045,-108.916 161.446,-113.801 162.441,-106.872"/>
</g>
<!-- Node5 -->
<g id="node9" class="node"><title>Node5</title>
<a xlink:href="../../d5/df9/a00044.htm#acd67f19d27fb9d8cab3f9bbfb4003e30" target="_top" xlink:title="de.tu_clausthal.in.mec.object.car.\lCDefaultCar.getPredecessor">
<polygon fill="none" stroke="black" points="209,-52 209,-86 361,-86 361,-52 209,-52"/>
<text text-anchor="start" x="217" y="-73.9" font-family="Helvetica,sans-Serif" font-size="9.00">de.tu_clausthal.in.mec.object.car.</text>
<text text-anchor="middle" x="285" y="-60.9" font-family="Helvetica,sans-Serif" font-size="9.00">CDefaultCar.getPredecessor</text>
</a>
</g>
<!-- Node1&#45;&gt;Node5 -->
<g id="edge8" class="edge"><title>Node1&#45;&gt;Node5</title>
<path fill="none" stroke="midnightblue" d="M162.095,-86.0538C177.532,-83.9118 193.523,-81.693 208.661,-79.5924"/>
<polygon fill="midnightblue" stroke="midnightblue" points="161.469,-82.607 152.045,-87.4483 162.431,-89.5406 161.469,-82.607"/>
</g>
<!-- Node6 -->
<g id="node11" class="node"><title>Node6</title>
<a xlink:href="../../d4/d3e/a00116.htm#ac01f2e9d4c5526a0b73d605e174c0134" target="_top" xlink:title="de.tu_clausthal.in.mec.object.car.\lCCarJasonAgent.CTrafficStorage.updating">
<polygon fill="none" stroke="black" points="189.5,-0 189.5,-34 380.5,-34 380.5,-0 189.5,-0"/>
<text text-anchor="start" x="197.5" y="-21.9" font-family="Helvetica,sans-Serif" font-size="9.00">de.tu_clausthal.in.mec.object.car.</text>
<text text-anchor="middle" x="285" y="-8.9" font-family="Helvetica,sans-Serif" font-size="9.00">CCarJasonAgent.CTrafficStorage.updating</text>
</a>
</g>
<!-- Node1&#45;&gt;Node6 -->
<g id="edge10" class="edge"><title>Node1&#45;&gt;Node6</title>
<path fill="none" stroke="midnightblue" d="M115.622,-76.191C136.682,-65.2064 163.268,-52.2862 188,-43 196.569,-39.7826 205.703,-36.7913 214.81,-34.0687"/>
<polygon fill="midnightblue" stroke="midnightblue" points="113.869,-73.1587 106.659,-80.9223 117.137,-79.3491 113.869,-73.1587"/>
</g>
<!-- Node3 -->
<g id="node5" class="node"><title>Node3</title>
<a xlink:href="../../d5/df9/a00044.htm#aa81bab3db881282f8fb0911c449a47a4" target="_top" xlink:title="returns a map to inspect current data of the car ">
<polygon fill="none" stroke="black" points="418,-170 418,-204 570,-204 570,-170 418,-170"/>
<text text-anchor="start" x="426" y="-191.9" font-family="Helvetica,sans-Serif" font-size="9.00">de.tu_clausthal.in.mec.object.car.</text>
<text text-anchor="middle" x="494" y="-178.9" font-family="Helvetica,sans-Serif" font-size="9.00">CDefaultCar.inspect</text>
</a>
</g>
<!-- Node2&#45;&gt;Node3 -->
<g id="edge4" class="edge"><title>Node2&#45;&gt;Node3</title>
<path fill="none" stroke="midnightblue" d="M371.095,-187C386.532,-187 402.523,-187 417.661,-187"/>
<polygon fill="midnightblue" stroke="midnightblue" points="371.045,-183.5 361.045,-187 371.045,-190.5 371.045,-183.5"/>
</g>
</g>
</svg>
        <g id="navigator" transform="translate(0 0)" fill="#404254">
                <rect fill="#f2f5e9" fill-opacity="0.5" stroke="#606060" stroke-width=".5" x="0" y="0" width="60" height="60"/>
                <use id="zoomplus" xlink:href="#zoomPlus" x="17" y="9" onmousedown="handleZoom(evt,'in')"/>
                <use id="zoomminus" xlink:href="#zoomMin" x="42" y="9" onmousedown="handleZoom(evt,'out')"/>
                <use id="reset" xlink:href="#resetDef" x="30" y="36" onmousedown="handleReset()"/>
                <g id="arrowUp" xlink:href="#dirArrow" transform="translate(30 24)" onmousedown="handlePan(0,-1)">
                  <use xlink:href="#rim" fill="#404040">
                        <set attributeName="fill" to="#808080" begin="arrowUp.mouseover" end="arrowUp.mouseout"/>
                  </use>
                  <path fill="none" stroke="white" stroke-width="1.5" d="M0,-3.0v7 M-2.5,-0.5L0,-3.0L2.5,-0.5"/>
                </g>
                <g id="arrowRight" xlink:href="#dirArrow" transform="rotate(90) translate(36 -43)" onmousedown="handlePan(1,0)">
                  <use xlink:href="#rim" fill="#404040">
                        <set attributeName="fill" to="#808080" begin="arrowRight.mouseover" end="arrowRight.mouseout"/>
                  </use>
                  <path fill="none" stroke="white" stroke-width="1.5" d="M0,-3.0v7 M-2.5,-0.5L0,-3.0L2.5,-0.5"/>
                </g>
                <g id="arrowDown" xlink:href="#dirArrow" transform="rotate(180) translate(-30 -48)" onmousedown="handlePan(0,1)">
                  <use xlink:href="#rim" fill="#404040">
                        <set attributeName="fill" to="#808080" begin="arrowDown.mouseover" end="arrowDown.mouseout"/>
                  </use>
                  <path fill="none" stroke="white" stroke-width="1.5" d="M0,-3.0v7 M-2.5,-0.5L0,-3.0L2.5,-0.5"/>
                </g>
                <g id="arrowLeft" xlink:href="#dirArrow" transform="rotate(270) translate(-36 17)" onmousedown="handlePan(-1,0)">
                  <use xlink:href="#rim" fill="#404040">
                        <set attributeName="fill" to="#808080" begin="arrowLeft.mouseover" end="arrowLeft.mouseout"/>
                  </use>
                  <path fill="none" stroke="white" stroke-width="1.5" d="M0,-3.0v7 M-2.5,-0.5L0,-3.0L2.5,-0.5"/>
                </g>
        </g>
        <svg viewBox="0 0 15 15" width="100%" height="30px" preserveAspectRatio="xMaxYMin meet">
         <g id="arrow_out" transform="scale(0.3 0.3)">
          <a xlink:href="a00044_ad0e4fa7d1813182f4ee65619933761ce_icgraph_org.svg" target="_base">
           <rect id="button" ry="5" rx="5" y="6" x="6" height="38" width="38"
                fill="#f2f5e9" fill-opacity="0.5" stroke="#606060" stroke-width="1.0"/>
           <path id="arrow"
             d="M 11.500037,31.436501 C 11.940474,20.09759 22.043105,11.32322 32.158766,21.979434 L 37.068811,17.246167 C 37.068811,17.246167 37.088388,32 37.088388,32 L 22.160133,31.978069 C 22.160133,31.978069 26.997745,27.140456 26.997745,27.140456 C 18.528582,18.264221 13.291696,25.230495 11.500037,31.436501 z"
             style="fill:#404040;"/>
          </a>
         </g>
        </svg>
</svg>
