<?xml version="1.0" encoding="UTF-8" standalone="no"?>
<!DOCTYPE svg PUBLIC "-//W3C//DTD SVG 1.1//EN"
 "http://www.w3.org/Graphics/SVG/1.1/DTD/svg11.dtd">
<!-- Generated by graphviz version 2.26.3 (20100126.1600)
 -->
<!-- Title: de.tu_clausthal.in.mec.object.car.CDefaultCar.getEdge Pages: 1 -->
<svg width="578pt" height="212pt"
 viewBox="0.00 0.00 578.00 212.00" xmlns="http://www.w3.org/2000/svg" xmlns:xlink="http://www.w3.org/1999/xlink">
<g id="graph1" class="graph" transform="scale(1 1) rotate(0) translate(4 208)">
<title>de.tu_clausthal.in.mec.object.car.CDefaultCar.getEdge</title>
<!-- Node1 -->
<g id="node1" class="node"><title>Node1</title>
<polygon fill="#bfbfbf" stroke="black" points="0,-81 0,-115 152,-115 152,-81 0,-81"/>
<text text-anchor="start" x="8" y="-102.9" font-family="Helvetica,sans-Serif" font-size="9.00">de.tu_clausthal.in.mec.object.car.</text>
<text text-anchor="middle" x="76" y="-89.9" font-family="Helvetica,sans-Serif" font-size="9.00">CDefaultCar.getEdge</text>
</g>
<!-- Node2 -->
<g id="node3" class="node"><title>Node2</title>
<a xlink:href="../../d5/df9/a00044.htm#ac28853e03da992304cfd9a31451f97cc" target="_top" xlink:title="returns the current geo position of the car ">
<polygon fill="none" stroke="black" points="209,-170 209,-204 361,-204 361,-170 209,-170"/>
<text text-anchor="start" x="217" y="-191.9" font-family="Helvetica,sans-Serif" font-size="9.00">de.tu_clausthal.in.mec.object.car.</text>
<text text-anchor="middle" x="285" y="-178.9" font-family="Helvetica,sans-Serif" font-size="9.00">CDefaultCar.getGeoposition</text>
</a>
</g>
<!-- Node1&#45;&gt;Node2 -->
<g id="edge2" class="edge"><title>Node1&#45;&gt;Node2</title>
<path fill="none" stroke="midnightblue" d="M110.984,-120.69C132.518,-133.883 161.066,-150.019 188,-161 196.072,-164.291 204.691,-167.289 213.336,-169.981"/>
<polygon fill="midnightblue" stroke="midnightblue" points="112.552,-117.544 102.21,-115.24 108.858,-123.49 112.552,-117.544"/>
</g>
<!-- Node4 -->
<g id="node7" class="node"><title>Node4</title>
<a xlink:href="../../d4/d3e/a00116.htm#af8abcf4682068ffa2d1e2cfe48aaf9e2" target="_top" xlink:title="returns the geo position as literal ">
<polygon fill="none" stroke="black" points="188,-104.5 188,-151.5 382,-151.5 382,-104.5 188,-104.5"/>
<text text-anchor="start" x="196" y="-139.4" font-family="Helvetica,sans-Serif" font-size="9.00">de.tu_clausthal.in.mec.object.car.</text>
<text text-anchor="start" x="196" y="-126.4" font-family="Helvetica,sans-Serif" font-size="9.00">CCarJasonAgent.CTrafficStorage.getLiteral</text>
<text text-anchor="middle" x="285" y="-113.4" font-family="Helvetica,sans-Serif" font-size="9.00">Geoposition</text>
</a>
</g>
<!-- Node1&#45;&gt;Node4 -->
<g id="edge6" class="edge"><title>Node1&#45;&gt;Node4</title>
<path fill="none" stroke="midnightblue" d="M162,-110.345C170.56,-111.573 179.29,-112.826 187.952,-114.07"/>
<polygon fill="midnightblue" stroke="midnightblue" points="162.441,-106.872 152.045,-108.916 161.446,-113.801 162.441,-106.872"/>
</g>
<!-- Node5 -->
<g id="node9" class="node"><title>Node5</title>
<a xlink:href="../../d5/df9/a00044.htm#acd67f19d27fb9d8cab3f9bbfb4003e30" target="_top" xlink:title="de.tu_clausthal.in.mec.object.car.\lCDefaultCar.getPredecessor">
<polygon fill="none" stroke="black" points="209,-52 209,-86 361,-86 361,-52 209,-52"/>
<text text-anchor="start" x="217" y="-73.9" font-family="Helvetica,sans-Serif" font-size="9.00">de.tu_clausthal.in.mec.object.car.</text>
<text text-anchor="middle" x="285" y="-60.9" font-family="Helvetica,sans-Serif" font-size="9.00">CDefaultCar.getPredecessor</text>
</a>
</g>
<!-- Node1&#45;&gt;Node5 -->
<g id="edge8" class="edge"><title>Node1&#45;&gt;Node5</title>
<path fill="none" stroke="midnightblue" d="M162.095,-86.0538C177.532,-83.9118 193.523,-81.693 208.661,-79.5924"/>
<polygon fill="midnightblue" stroke="midnightblue" points="161.469,-82.607 152.045,-87.4483 162.431,-89.5406 161.469,-82.607"/>
</g>
<!-- Node6 -->
<g id="node11" class="node"><title>Node6</title>
<a xlink:href="../../d4/d3e/a00116.htm#ac01f2e9d4c5526a0b73d605e174c0134" target="_top" xlink:title="de.tu_clausthal.in.mec.object.car.\lCCarJasonAgent.CTrafficStorage.updating">
<polygon fill="none" stroke="black" points="189.5,-0 189.5,-34 380.5,-34 380.5,-0 189.5,-0"/>
<text text-anchor="start" x="197.5" y="-21.9" font-family="Helvetica,sans-Serif" font-size="9.00">de.tu_clausthal.in.mec.object.car.</text>
<text text-anchor="middle" x="285" y="-8.9" font-family="Helvetica,sans-Serif" font-size="9.00">CCarJasonAgent.CTrafficStorage.updating</text>
</a>
</g>
<!-- Node1&#45;&gt;Node6 -->
<g id="edge10" class="edge"><title>Node1&#45;&gt;Node6</title>
<path fill="none" stroke="midnightblue" d="M115.622,-76.191C136.682,-65.2064 163.268,-52.2862 188,-43 196.569,-39.7826 205.703,-36.7913 214.81,-34.0687"/>
<polygon fill="midnightblue" stroke="midnightblue" points="113.869,-73.1587 106.659,-80.9223 117.137,-79.3491 113.869,-73.1587"/>
</g>
<!-- Node3 -->
<g id="node5" class="node"><title>Node3</title>
<a xlink:href="../../d5/df9/a00044.htm#aa81bab3db881282f8fb0911c449a47a4" target="_top" xlink:title="returns a map to inspect current data of the car ">
<polygon fill="none" stroke="black" points="418,-170 418,-204 570,-204 570,-170 418,-170"/>
<text text-anchor="start" x="426" y="-191.9" font-family="Helvetica,sans-Serif" font-size="9.00">de.tu_clausthal.in.mec.object.car.</text>
<text text-anchor="middle" x="494" y="-178.9" font-family="Helvetica,sans-Serif" font-size="9.00">CDefaultCar.inspect</text>
</a>
</g>
<!-- Node2&#45;&gt;Node3 -->
<g id="edge4" class="edge"><title>Node2&#45;&gt;Node3</title>
<path fill="none" stroke="midnightblue" d="M371.095,-187C386.532,-187 402.523,-187 417.661,-187"/>
<polygon fill="midnightblue" stroke="midnightblue" points="371.045,-183.5 361.045,-187 371.045,-190.5 371.045,-183.5"/>
</g>
</g>
</svg>
