<?xml version="1.0" encoding="UTF-8" standalone="no"?>
<!DOCTYPE svg PUBLIC "-//W3C//DTD SVG 1.1//EN"
 "http://www.w3.org/Graphics/SVG/1.1/DTD/svg11.dtd">
<!-- Generated by graphviz version 2.26.3 (20100126.1600)
 -->
<!-- Title: de.tu_clausthal.in.mec.CLogger.padCut Pages: 1 -->
<svg width="610pt" height="190pt"
 viewBox="0.00 0.00 610.00 190.00" xmlns="http://www.w3.org/2000/svg" xmlns:xlink="http://www.w3.org/1999/xlink">
<g id="graph1" class="graph" transform="scale(1 1) rotate(0) translate(4 186)">
<title>de.tu_clausthal.in.mec.CLogger.padCut</title>
<!-- Node1 -->
<g id="node1" class="node"><title>Node1</title>
<polygon fill="#bfbfbf" stroke="black" points="0.5,-80.5 0.5,-101.5 179.5,-101.5 179.5,-80.5 0.5,-80.5"/>
<text text-anchor="middle" x="90" y="-89.4" font-family="Helvetica,sans-Serif" font-size="9.00">de.tu_clausthal.in.mec.CLogger.padCut</text>
</g>
<!-- Node2 -->
<g id="node3" class="node"><title>Node2</title>
<a xlink:href="../../d0/d89/a00071.htm#abb3dd78d3e31045ef04b802dfef369aa" target="_top" xlink:title="creates a full log item ">
<polygon fill="none" stroke="black" points="216,-74 216,-108 390,-108 390,-74 216,-74"/>
<text text-anchor="start" x="224" y="-95.9" font-family="Helvetica,sans-Serif" font-size="9.00">de.tu_clausthal.in.mec.CLogger.create</text>
<text text-anchor="middle" x="303" y="-82.9" font-family="Helvetica,sans-Serif" font-size="9.00">LogData</text>
</a>
</g>
<!-- Node1&#45;&gt;Node2 -->
<g id="edge2" class="edge"><title>Node1&#45;&gt;Node2</title>
<path fill="none" stroke="midnightblue" d="M189.841,-91C198.503,-91 207.224,-91 215.773,-91"/>
<polygon fill="midnightblue" stroke="midnightblue" points="189.714,-87.5001 179.714,-91 189.714,-94.5001 189.714,-87.5001"/>
</g>
<!-- Node3 -->
<g id="node5" class="node"><title>Node3</title>
<a xlink:href="../../d0/d89/a00071.htm#a7016dc24277bb4101b8f763ac51ac808" target="_top" xlink:title="adds a debug message ">
<polygon fill="none" stroke="black" points="426.5,-160.5 426.5,-181.5 601.5,-181.5 601.5,-160.5 426.5,-160.5"/>
<text text-anchor="middle" x="514" y="-169.4" font-family="Helvetica,sans-Serif" font-size="9.00">de.tu_clausthal.in.mec.CLogger.debug</text>
</a>
</g>
<!-- Node2&#45;&gt;Node3 -->
<g id="edge4" class="edge"><title>Node2&#45;&gt;Node3</title>
<path fill="none" stroke="midnightblue" d="M342.011,-112.905C365.713,-125.48 396.918,-140.756 426,-151 436.344,-154.644 447.611,-157.79 458.523,-160.439"/>
<polygon fill="midnightblue" stroke="midnightblue" points="343.456,-109.709 332.991,-108.059 340.143,-115.875 343.456,-109.709"/>
</g>
<!-- Node4 -->
<g id="node7" class="node"><title>Node4</title>
<a xlink:href="../../d0/d89/a00071.htm#a80fb2874e8088e06c2a9e470599dbf21" target="_top" xlink:title="adds a error message ">
<polygon fill="none" stroke="black" points="430,-120.5 430,-141.5 598,-141.5 598,-120.5 430,-120.5"/>
<text text-anchor="middle" x="514" y="-129.4" font-family="Helvetica,sans-Serif" font-size="9.00">de.tu_clausthal.in.mec.CLogger.error</text>
</a>
</g>
<!-- Node2&#45;&gt;Node4 -->
<g id="edge6" class="edge"><title>Node2&#45;&gt;Node4</title>
<path fill="none" stroke="midnightblue" d="M399.87,-109.364C419.988,-113.178 440.528,-117.072 458.536,-120.486"/>
<polygon fill="midnightblue" stroke="midnightblue" points="400.517,-105.924 390.04,-107.5 399.213,-112.802 400.517,-105.924"/>
</g>
<!-- Node5 -->
<g id="node9" class="node"><title>Node5</title>
<a xlink:href="../../d0/d89/a00071.htm#a5eaa8e06a9f2a458465136438b277137" target="_top" xlink:title="adds an info message ">
<polygon fill="none" stroke="black" points="432,-80.5 432,-101.5 596,-101.5 596,-80.5 432,-80.5"/>
<text text-anchor="middle" x="514" y="-89.4" font-family="Helvetica,sans-Serif" font-size="9.00">de.tu_clausthal.in.mec.CLogger.info</text>
</a>
</g>
<!-- Node2&#45;&gt;Node5 -->
<g id="edge8" class="edge"><title>Node2&#45;&gt;Node5</title>
<path fill="none" stroke="midnightblue" d="M400.165,-91C410.777,-91 421.502,-91 431.907,-91"/>
<polygon fill="midnightblue" stroke="midnightblue" points="400.04,-87.5001 390.04,-91 400.04,-94.5001 400.04,-87.5001"/>
</g>
<!-- Node6 -->
<g id="node11" class="node"><title>Node6</title>
<a xlink:href="../../d0/d89/a00071.htm#a609c78b42162cf8e14c4fc30f4809371" target="_top" xlink:title="adds a output message ">
<polygon fill="none" stroke="black" points="433.5,-40.5 433.5,-61.5 594.5,-61.5 594.5,-40.5 433.5,-40.5"/>
<text text-anchor="middle" x="514" y="-49.4" font-family="Helvetica,sans-Serif" font-size="9.00">de.tu_clausthal.in.mec.CLogger.out</text>
</a>
</g>
<!-- Node2&#45;&gt;Node6 -->
<g id="edge10" class="edge"><title>Node2&#45;&gt;Node6</title>
<path fill="none" stroke="midnightblue" d="M399.87,-72.6361C419.988,-68.8222 440.528,-64.9284 458.536,-61.5144"/>
<polygon fill="midnightblue" stroke="midnightblue" points="399.213,-69.1981 390.04,-74.4995 400.517,-76.0756 399.213,-69.1981"/>
</g>
<!-- Node7 -->
<g id="node13" class="node"><title>Node7</title>
<a xlink:href="../../d0/d89/a00071.htm#a1968e097d5d08a8c871ad63b4c1a964e" target="_top" xlink:title="adds a warn message ">
<polygon fill="none" stroke="black" points="429.5,-0.5 429.5,-21.5 598.5,-21.5 598.5,-0.5 429.5,-0.5"/>
<text text-anchor="middle" x="514" y="-9.4" font-family="Helvetica,sans-Serif" font-size="9.00">de.tu_clausthal.in.mec.CLogger.warn</text>
</a>
</g>
<!-- Node2&#45;&gt;Node7 -->
<g id="edge12" class="edge"><title>Node2&#45;&gt;Node7</title>
<path fill="none" stroke="midnightblue" d="M342.011,-69.0947C365.713,-56.5202 396.918,-41.2436 426,-31 436.344,-27.3564 447.611,-24.2101 458.523,-21.5615"/>
<polygon fill="midnightblue" stroke="midnightblue" points="340.143,-66.1249 332.991,-73.9413 343.456,-72.2911 340.143,-66.1249"/>
</g>
</g>
</svg>
