<?xml version="1.0" encoding="UTF-8" standalone="no"?>
<!DOCTYPE svg PUBLIC "-//W3C//DTD SVG 1.1//EN"
 "http://www.w3.org/Graphics/SVG/1.1/DTD/svg11.dtd">
<!-- Generated by graphviz version 2.26.3 (20100126.1600)
 -->
<!-- Title: de.tu_clausthal.in.mec.CLogger.error Pages: 1 -->
<svg width="392pt" height="82pt"
 viewBox="0.00 0.00 392.00 82.00" xmlns="http://www.w3.org/2000/svg" xmlns:xlink="http://www.w3.org/1999/xlink">
<g id="graph1" class="graph" transform="scale(1 1) rotate(0) translate(4 78)">
<title>de.tu_clausthal.in.mec.CLogger.error</title>
<!-- Node1 -->
<g id="node1" class="node"><title>Node1</title>
<polygon fill="#bfbfbf" stroke="black" points="0,-29.5 0,-50.5 168,-50.5 168,-29.5 0,-29.5"/>
<text text-anchor="middle" x="84" y="-38.4" font-family="Helvetica,sans-Serif" font-size="9.00">de.tu_clausthal.in.mec.CLogger.error</text>
</g>
<!-- Node2 -->
<g id="node3" class="node"><title>Node2</title>
<a xlink:href="../../d0/d89/a00071.htm#abd1bc46f8a0ebe1df1d8721b7b220891" target="_top" xlink:title="adds a error message ">
<polygon fill="none" stroke="black" points="210,-52.5 210,-73.5 378,-73.5 378,-52.5 210,-52.5"/>
<text text-anchor="middle" x="294" y="-61.4" font-family="Helvetica,sans-Serif" font-size="9.00">de.tu_clausthal.in.mec.CLogger.error</text>
</a>
</g>
<!-- Node1&#45;&gt;Node2 -->
<g id="edge2" class="edge"><title>Node1&#45;&gt;Node2</title>
<path fill="none" stroke="midnightblue" d="M178.226,-50.32C188.74,-51.4715 199.399,-52.6389 209.776,-53.7755"/>
<polygon fill="midnightblue" stroke="midnightblue" points="178.527,-46.8321 168.205,-49.2225 177.764,-53.7905 178.527,-46.8321"/>
</g>
<!-- Node3 -->
<g id="node5" class="node"><title>Node3</title>
<a xlink:href="../../dc/dee/a00053.htm#a477189d1615b3f2b9f33b1e660567738" target="_top" xlink:title="creates a list of list of edge between two geopositions ">
<polygon fill="none" stroke="black" points="204.5,-0 204.5,-34 383.5,-34 383.5,-0 204.5,-0"/>
<text text-anchor="start" x="212.5" y="-21.9" font-family="Helvetica,sans-Serif" font-size="9.00">de.tu_clausthal.in.mec.object.car.graph.</text>
<text text-anchor="middle" x="294" y="-8.9" font-family="Helvetica,sans-Serif" font-size="9.00">CGraphHopper.getRoutes</text>
</a>
</g>
<!-- Node1&#45;&gt;Node3 -->
<g id="edge4" class="edge"><title>Node1&#45;&gt;Node3</title>
<path fill="none" stroke="midnightblue" d="M178.291,-29.6728C186.934,-28.7263 195.674,-27.769 204.275,-26.827"/>
<polygon fill="midnightblue" stroke="midnightblue" points="177.764,-26.2095 168.205,-30.7775 178.527,-33.1679 177.764,-26.2095"/>
</g>
</g>
</svg>
