<?xml version="1.0" encoding="UTF-8" standalone="no"?>
<!DOCTYPE svg PUBLIC "-//W3C//DTD SVG 1.1//EN"
 "http://www.w3.org/Graphics/SVG/1.1/DTD/svg11.dtd">
<!-- Generated by graphviz version 2.26.3 (20100126.1600)
 -->
<!-- Title: de.tu_clausthal.in.mec.CLogger.out Pages: 1 -->
<svg width="992pt" height="172pt"
 viewBox="0.00 0.00 992.00 172.00" xmlns="http://www.w3.org/2000/svg" xmlns:xlink="http://www.w3.org/1999/xlink">
<g id="graph1" class="graph" transform="scale(1 1) rotate(0) translate(4 168)">
<title>de.tu_clausthal.in.mec.CLogger.out</title>
<!-- Node1 -->
<g id="node1" class="node"><title>Node1</title>
<polygon fill="#bfbfbf" stroke="black" points="0.5,-61.5 0.5,-82.5 161.5,-82.5 161.5,-61.5 0.5,-61.5"/>
<text text-anchor="middle" x="81" y="-70.4" font-family="Helvetica,sans-Serif" font-size="9.00">de.tu_clausthal.in.mec.CLogger.out</text>
</g>
<!-- Node2 -->
<g id="node3" class="node"><title>Node2</title>
<a xlink:href="../../d0/d89/a00071.htm#abb3dd78d3e31045ef04b802dfef369aa" target="_top" xlink:title="creates a full log item ">
<polygon fill="none" stroke="black" points="198,-55 198,-89 372,-89 372,-55 198,-55"/>
<text text-anchor="start" x="206" y="-76.9" font-family="Helvetica,sans-Serif" font-size="9.00">de.tu_clausthal.in.mec.CLogger.create</text>
<text text-anchor="middle" x="285" y="-63.9" font-family="Helvetica,sans-Serif" font-size="9.00">LogData</text>
</a>
</g>
<!-- Node1&#45;&gt;Node2 -->
<g id="edge2" class="edge"><title>Node1&#45;&gt;Node2</title>
<path fill="none" stroke="midnightblue" d="M161.626,-72C170.191,-72 178.967,-72 187.696,-72"/>
<polygon fill="midnightblue" stroke="midnightblue" points="187.908,-75.5001 197.908,-72 187.908,-68.5001 187.908,-75.5001"/>
</g>
<!-- Node3 -->
<g id="node5" class="node"><title>Node3</title>
<a xlink:href="../../d0/d89/a00071.htm#a29fcdb79a7321a093a64e1576198d808" target="_top" xlink:title="gets the current line number ">
<polygon fill="none" stroke="black" points="417.5,-130 417.5,-164 578.5,-164 578.5,-130 417.5,-130"/>
<text text-anchor="start" x="425.5" y="-151.9" font-family="Helvetica,sans-Serif" font-size="9.00">de.tu_clausthal.in.mec.CLogger.get</text>
<text text-anchor="middle" x="498" y="-138.9" font-family="Helvetica,sans-Serif" font-size="9.00">CurrentLineNumber</text>
</a>
</g>
<!-- Node2&#45;&gt;Node3 -->
<g id="edge4" class="edge"><title>Node2&#45;&gt;Node3</title>
<path fill="none" stroke="midnightblue" d="M324.792,-89.0001C348.696,-98.9237 379.841,-111.349 408,-121 413.856,-123.007 419.96,-124.992 426.11,-126.917"/>
<polygon fill="midnightblue" stroke="midnightblue" points="425.193,-130.297 435.78,-129.887 427.249,-123.605 425.193,-130.297"/>
</g>
<!-- Node4 -->
<g id="node7" class="node"><title>Node4</title>
<a xlink:href="../../d0/d89/a00071.htm#a580a39f975b628eb2d71268c441af123" target="_top" xlink:title="gets the current FQN method name ">
<polygon fill="none" stroke="black" points="624.5,-26 624.5,-60 785.5,-60 785.5,-26 624.5,-26"/>
<text text-anchor="start" x="632.5" y="-47.9" font-family="Helvetica,sans-Serif" font-size="9.00">de.tu_clausthal.in.mec.CLogger.get</text>
<text text-anchor="middle" x="705" y="-34.9" font-family="Helvetica,sans-Serif" font-size="9.00">CurrentMethodNameFqn</text>
</a>
</g>
<!-- Node2&#45;&gt;Node4 -->
<g id="edge6" class="edge"><title>Node2&#45;&gt;Node4</title>
<path fill="none" stroke="midnightblue" d="M372.024,-65.9912C442.789,-61.1051 542.319,-54.2327 614.106,-49.276"/>
<polygon fill="midnightblue" stroke="midnightblue" points="614.754,-52.7397 624.49,-48.5591 614.272,-45.7563 614.754,-52.7397"/>
</g>
<!-- Node7 -->
<g id="node13" class="node"><title>Node7</title>
<a xlink:href="../../d0/d89/a00071.htm#a83400955d082eb59ddfc6436b2879dba" target="_top" xlink:title="gets the current invoker FQN method name ">
<polygon fill="none" stroke="black" points="417.5,-78 417.5,-112 578.5,-112 578.5,-78 417.5,-78"/>
<text text-anchor="start" x="425.5" y="-99.9" font-family="Helvetica,sans-Serif" font-size="9.00">de.tu_clausthal.in.mec.CLogger.get</text>
<text text-anchor="middle" x="498" y="-86.9" font-family="Helvetica,sans-Serif" font-size="9.00">InvokingMethodNameFqn</text>
</a>
</g>
<!-- Node2&#45;&gt;Node7 -->
<g id="edge12" class="edge"><title>Node2&#45;&gt;Node7</title>
<path fill="none" stroke="midnightblue" d="M372.25,-81.4213C383.801,-82.6687 395.666,-83.9498 407.274,-85.2033"/>
<polygon fill="midnightblue" stroke="midnightblue" points="407.078,-88.7023 417.396,-86.2962 407.829,-81.7428 407.078,-88.7023"/>
</g>
<!-- Node10 -->
<g id="node21" class="node"><title>Node10</title>
<a xlink:href="../../d0/d89/a00071.htm#a6aba5cb9a0ceccfefeeab44a4e71873c" target="_top" xlink:title="pad / cut string of a define length ">
<polygon fill="none" stroke="black" points="408.5,-0.5 408.5,-21.5 587.5,-21.5 587.5,-0.5 408.5,-0.5"/>
<text text-anchor="middle" x="498" y="-9.4" font-family="Helvetica,sans-Serif" font-size="9.00">de.tu_clausthal.in.mec.CLogger.padCut</text>
</a>
</g>
<!-- Node2&#45;&gt;Node10 -->
<g id="edge22" class="edge"><title>Node2&#45;&gt;Node10</title>
<path fill="none" stroke="midnightblue" d="M342.522,-54.9864C363.154,-48.9308 386.603,-42.1027 408,-36 421.421,-32.1721 435.99,-28.0924 449.418,-24.363"/>
<polygon fill="midnightblue" stroke="midnightblue" points="450.725,-27.6329 459.426,-21.5893 448.855,-20.8872 450.725,-27.6329"/>
</g>
<!-- Node5 -->
<g id="node9" class="node"><title>Node5</title>
<a xlink:href="../../d0/d89/a00071.htm#a098c2f99c61b8c1a58b381efbbd86e87" target="_top" xlink:title="gets the current class name ">
<polygon fill="none" stroke="black" points="822.5,-39 822.5,-73 983.5,-73 983.5,-39 822.5,-39"/>
<text text-anchor="start" x="830.5" y="-60.9" font-family="Helvetica,sans-Serif" font-size="9.00">de.tu_clausthal.in.mec.CLogger.get</text>
<text text-anchor="middle" x="903" y="-47.9" font-family="Helvetica,sans-Serif" font-size="9.00">CurrentClassName</text>
</a>
</g>
<!-- Node4&#45;&gt;Node5 -->
<g id="edge8" class="edge"><title>Node4&#45;&gt;Node5</title>
<path fill="none" stroke="midnightblue" d="M785.534,-48.2876C794.324,-48.8647 803.316,-49.4551 812.218,-50.0396"/>
<polygon fill="midnightblue" stroke="midnightblue" points="812.008,-53.5332 822.216,-50.696 812.467,-46.5483 812.008,-53.5332"/>
</g>
<!-- Node6 -->
<g id="node11" class="node"><title>Node6</title>
<a xlink:href="../../d0/d89/a00071.htm#a6335fc80f4492a4b1859f8dec85856ca" target="_top" xlink:title="gets the current method name ">
<polygon fill="none" stroke="black" points="822.5,-117 822.5,-151 983.5,-151 983.5,-117 822.5,-117"/>
<text text-anchor="start" x="830.5" y="-138.9" font-family="Helvetica,sans-Serif" font-size="9.00">de.tu_clausthal.in.mec.CLogger.get</text>
<text text-anchor="middle" x="903" y="-125.9" font-family="Helvetica,sans-Serif" font-size="9.00">CurrentMethodName</text>
</a>
</g>
<!-- Node4&#45;&gt;Node6 -->
<g id="edge10" class="edge"><title>Node4&#45;&gt;Node6</title>
<path fill="none" stroke="midnightblue" d="M763.039,-60.0952C770.847,-62.8395 778.682,-65.8294 786,-69 814.234,-81.2329 844.565,-98.2024 867.268,-111.735"/>
<polygon fill="midnightblue" stroke="midnightblue" points="865.511,-114.763 875.883,-116.924 869.123,-108.766 865.511,-114.763"/>
</g>
<!-- Node8 -->
<g id="node15" class="node"><title>Node8</title>
<a xlink:href="../../d0/d89/a00071.htm#a9d827ebfcd5cdbec6ea38ccb089a6e21" target="_top" xlink:title="gets the current invoker class name ">
<polygon fill="none" stroke="black" points="624.5,-78 624.5,-112 785.5,-112 785.5,-78 624.5,-78"/>
<text text-anchor="start" x="632.5" y="-99.9" font-family="Helvetica,sans-Serif" font-size="9.00">de.tu_clausthal.in.mec.CLogger.get</text>
<text text-anchor="middle" x="705" y="-86.9" font-family="Helvetica,sans-Serif" font-size="9.00">InvokingClassName</text>
</a>
</g>
<!-- Node7&#45;&gt;Node8 -->
<g id="edge14" class="edge"><title>Node7&#45;&gt;Node8</title>
<path fill="none" stroke="midnightblue" d="M578.624,-95C590.214,-95 602.206,-95 613.98,-95"/>
<polygon fill="midnightblue" stroke="midnightblue" points="614.255,-98.5001 624.255,-95 614.255,-91.5001 614.255,-98.5001"/>
</g>
<!-- Node9 -->
<g id="node18" class="node"><title>Node9</title>
<a xlink:href="../../d0/d89/a00071.htm#a4f3be1434d193ba69690ec6687044e31" target="_top" xlink:title="gets the current invoker method name ">
<polygon fill="none" stroke="black" points="624.5,-130 624.5,-164 785.5,-164 785.5,-130 624.5,-130"/>
<text text-anchor="start" x="632.5" y="-151.9" font-family="Helvetica,sans-Serif" font-size="9.00">de.tu_clausthal.in.mec.CLogger.get</text>
<text text-anchor="middle" x="705" y="-138.9" font-family="Helvetica,sans-Serif" font-size="9.00">InvokingMethodName</text>
</a>
</g>
<!-- Node7&#45;&gt;Node9 -->
<g id="edge18" class="edge"><title>Node7&#45;&gt;Node9</title>
<path fill="none" stroke="midnightblue" d="M565.78,-112.027C585.437,-116.965 607.055,-122.395 627.271,-127.474"/>
<polygon fill="midnightblue" stroke="midnightblue" points="626.517,-130.893 637.068,-129.935 628.222,-124.104 626.517,-130.893"/>
</g>
<!-- Node8&#45;&gt;Node5 -->
<g id="edge16" class="edge"><title>Node8&#45;&gt;Node5</title>
<path fill="none" stroke="midnightblue" d="M785.534,-79.1372C794.324,-77.4058 803.316,-75.6347 812.218,-73.8812"/>
<polygon fill="midnightblue" stroke="midnightblue" points="813.081,-77.2787 822.216,-71.912 811.728,-70.4106 813.081,-77.2787"/>
</g>
<!-- Node9&#45;&gt;Node6 -->
<g id="edge20" class="edge"><title>Node9&#45;&gt;Node6</title>
<path fill="none" stroke="midnightblue" d="M785.534,-141.712C794.324,-141.135 803.316,-140.545 812.218,-139.96"/>
<polygon fill="midnightblue" stroke="midnightblue" points="812.467,-143.452 822.216,-139.304 812.008,-136.467 812.467,-143.452"/>
</g>
</g>
</svg>
