<?xml version="1.0" encoding="UTF-8" standalone="no"?>
<!DOCTYPE svg PUBLIC "-//W3C//DTD SVG 1.1//EN"
 "http://www.w3.org/Graphics/SVG/1.1/DTD/svg11.dtd">
<!-- Generated by graphviz version 2.26.3 (20100126.1600)
 -->
<!-- Title: de.tu_clausthal.in.mec.CLogger.error Pages: 1 -->
<svg width="998pt" height="172pt"
 viewBox="0.00 0.00 998.00 172.00" xmlns="http://www.w3.org/2000/svg" xmlns:xlink="http://www.w3.org/1999/xlink">
<g id="graph1" class="graph" transform="scale(1 1) rotate(0) translate(4 168)">
<title>de.tu_clausthal.in.mec.CLogger.error</title>
<!-- Node1 -->
<g id="node1" class="node"><title>Node1</title>
<polygon fill="#bfbfbf" stroke="black" points="0,-61.5 0,-82.5 168,-82.5 168,-61.5 0,-61.5"/>
<text text-anchor="middle" x="84" y="-70.4" font-family="Helvetica,sans-Serif" font-size="9.00">de.tu_clausthal.in.mec.CLogger.error</text>
</g>
<!-- Node2 -->
<g id="node3" class="node"><title>Node2</title>
<a xlink:href="../../d0/d89/a00071.htm#abb3dd78d3e31045ef04b802dfef369aa" target="_top" xlink:title="creates a full log item ">
<polygon fill="none" stroke="black" points="204,-55 204,-89 378,-89 378,-55 204,-55"/>
<text text-anchor="start" x="212" y="-76.9" font-family="Helvetica,sans-Serif" font-size="9.00">de.tu_clausthal.in.mec.CLogger.create</text>
<text text-anchor="middle" x="291" y="-63.9" font-family="Helvetica,sans-Serif" font-size="9.00">LogData</text>
</a>
</g>
<!-- Node1&#45;&gt;Node2 -->
<g id="edge2" class="edge"><title>Node1&#45;&gt;Node2</title>
<path fill="none" stroke="midnightblue" d="M168.195,-72C176.642,-72 185.267,-72 193.835,-72"/>
<polygon fill="midnightblue" stroke="midnightblue" points="193.851,-75.5001 203.851,-72 193.851,-68.5001 193.851,-75.5001"/>
</g>
<!-- Node3 -->
<g id="node5" class="node"><title>Node3</title>
<a xlink:href="../../d0/d89/a00071.htm#a29fcdb79a7321a093a64e1576198d808" target="_top" xlink:title="gets the current line number ">
<polygon fill="none" stroke="black" points="423.5,-130 423.5,-164 584.5,-164 584.5,-130 423.5,-130"/>
<text text-anchor="start" x="431.5" y="-151.9" font-family="Helvetica,sans-Serif" font-size="9.00">de.tu_clausthal.in.mec.CLogger.get</text>
<text text-anchor="middle" x="504" y="-138.9" font-family="Helvetica,sans-Serif" font-size="9.00">CurrentLineNumber</text>
</a>
</g>
<!-- Node2&#45;&gt;Node3 -->
<g id="edge4" class="edge"><title>Node2&#45;&gt;Node3</title>
<path fill="none" stroke="midnightblue" d="M330.792,-89.0001C354.696,-98.9237 385.841,-111.349 414,-121 419.856,-123.007 425.96,-124.992 432.11,-126.917"/>
<polygon fill="midnightblue" stroke="midnightblue" points="431.193,-130.297 441.78,-129.887 433.249,-123.605 431.193,-130.297"/>
</g>
<!-- Node4 -->
<g id="node7" class="node"><title>Node4</title>
<a xlink:href="../../d0/d89/a00071.htm#a580a39f975b628eb2d71268c441af123" target="_top" xlink:title="gets the current FQN method name ">
<polygon fill="none" stroke="black" points="630.5,-26 630.5,-60 791.5,-60 791.5,-26 630.5,-26"/>
<text text-anchor="start" x="638.5" y="-47.9" font-family="Helvetica,sans-Serif" font-size="9.00">de.tu_clausthal.in.mec.CLogger.get</text>
<text text-anchor="middle" x="711" y="-34.9" font-family="Helvetica,sans-Serif" font-size="9.00">CurrentMethodNameFqn</text>
</a>
</g>
<!-- Node2&#45;&gt;Node4 -->
<g id="edge6" class="edge"><title>Node2&#45;&gt;Node4</title>
<path fill="none" stroke="midnightblue" d="M378.024,-65.9912C448.789,-61.1051 548.319,-54.2327 620.106,-49.276"/>
<polygon fill="midnightblue" stroke="midnightblue" points="620.754,-52.7397 630.49,-48.5591 620.272,-45.7563 620.754,-52.7397"/>
</g>
<!-- Node7 -->
<g id="node13" class="node"><title>Node7</title>
<a xlink:href="../../d0/d89/a00071.htm#a83400955d082eb59ddfc6436b2879dba" target="_top" xlink:title="gets the current invoker FQN method name ">
<polygon fill="none" stroke="black" points="423.5,-78 423.5,-112 584.5,-112 584.5,-78 423.5,-78"/>
<text text-anchor="start" x="431.5" y="-99.9" font-family="Helvetica,sans-Serif" font-size="9.00">de.tu_clausthal.in.mec.CLogger.get</text>
<text text-anchor="middle" x="504" y="-86.9" font-family="Helvetica,sans-Serif" font-size="9.00">InvokingMethodNameFqn</text>
</a>
</g>
<!-- Node2&#45;&gt;Node7 -->
<g id="edge12" class="edge"><title>Node2&#45;&gt;Node7</title>
<path fill="none" stroke="midnightblue" d="M378.25,-81.4213C389.801,-82.6687 401.666,-83.9498 413.274,-85.2033"/>
<polygon fill="midnightblue" stroke="midnightblue" points="413.078,-88.7023 423.396,-86.2962 413.829,-81.7428 413.078,-88.7023"/>
</g>
<!-- Node10 -->
<g id="node21" class="node"><title>Node10</title>
<a xlink:href="../../d0/d89/a00071.htm#a6aba5cb9a0ceccfefeeab44a4e71873c" target="_top" xlink:title="pad / cut string of a define length ">
<polygon fill="none" stroke="black" points="414.5,-0.5 414.5,-21.5 593.5,-21.5 593.5,-0.5 414.5,-0.5"/>
<text text-anchor="middle" x="504" y="-9.4" font-family="Helvetica,sans-Serif" font-size="9.00">de.tu_clausthal.in.mec.CLogger.padCut</text>
</a>
</g>
<!-- Node2&#45;&gt;Node10 -->
<g id="edge22" class="edge"><title>Node2&#45;&gt;Node10</title>
<path fill="none" stroke="midnightblue" d="M348.522,-54.9864C369.154,-48.9308 392.603,-42.1027 414,-36 427.421,-32.1721 441.99,-28.0924 455.418,-24.363"/>
<polygon fill="midnightblue" stroke="midnightblue" points="456.725,-27.6329 465.426,-21.5893 454.855,-20.8872 456.725,-27.6329"/>
</g>
<!-- Node5 -->
<g id="node9" class="node"><title>Node5</title>
<a xlink:href="../../d0/d89/a00071.htm#a098c2f99c61b8c1a58b381efbbd86e87" target="_top" xlink:title="gets the current class name ">
<polygon fill="none" stroke="black" points="828.5,-39 828.5,-73 989.5,-73 989.5,-39 828.5,-39"/>
<text text-anchor="start" x="836.5" y="-60.9" font-family="Helvetica,sans-Serif" font-size="9.00">de.tu_clausthal.in.mec.CLogger.get</text>
<text text-anchor="middle" x="909" y="-47.9" font-family="Helvetica,sans-Serif" font-size="9.00">CurrentClassName</text>
</a>
</g>
<!-- Node4&#45;&gt;Node5 -->
<g id="edge8" class="edge"><title>Node4&#45;&gt;Node5</title>
<path fill="none" stroke="midnightblue" d="M791.534,-48.2876C800.324,-48.8647 809.316,-49.4551 818.218,-50.0396"/>
<polygon fill="midnightblue" stroke="midnightblue" points="818.008,-53.5332 828.216,-50.696 818.467,-46.5483 818.008,-53.5332"/>
</g>
<!-- Node6 -->
<g id="node11" class="node"><title>Node6</title>
<a xlink:href="../../d0/d89/a00071.htm#a6335fc80f4492a4b1859f8dec85856ca" target="_top" xlink:title="gets the current method name ">
<polygon fill="none" stroke="black" points="828.5,-117 828.5,-151 989.5,-151 989.5,-117 828.5,-117"/>
<text text-anchor="start" x="836.5" y="-138.9" font-family="Helvetica,sans-Serif" font-size="9.00">de.tu_clausthal.in.mec.CLogger.get</text>
<text text-anchor="middle" x="909" y="-125.9" font-family="Helvetica,sans-Serif" font-size="9.00">CurrentMethodName</text>
</a>
</g>
<!-- Node4&#45;&gt;Node6 -->
<g id="edge10" class="edge"><title>Node4&#45;&gt;Node6</title>
<path fill="none" stroke="midnightblue" d="M769.039,-60.0952C776.847,-62.8395 784.682,-65.8294 792,-69 820.234,-81.2329 850.565,-98.2024 873.268,-111.735"/>
<polygon fill="midnightblue" stroke="midnightblue" points="871.511,-114.763 881.883,-116.924 875.123,-108.766 871.511,-114.763"/>
</g>
<!-- Node8 -->
<g id="node15" class="node"><title>Node8</title>
<a xlink:href="../../d0/d89/a00071.htm#a9d827ebfcd5cdbec6ea38ccb089a6e21" target="_top" xlink:title="gets the current invoker class name ">
<polygon fill="none" stroke="black" points="630.5,-78 630.5,-112 791.5,-112 791.5,-78 630.5,-78"/>
<text text-anchor="start" x="638.5" y="-99.9" font-family="Helvetica,sans-Serif" font-size="9.00">de.tu_clausthal.in.mec.CLogger.get</text>
<text text-anchor="middle" x="711" y="-86.9" font-family="Helvetica,sans-Serif" font-size="9.00">InvokingClassName</text>
</a>
</g>
<!-- Node7&#45;&gt;Node8 -->
<g id="edge14" class="edge"><title>Node7&#45;&gt;Node8</title>
<path fill="none" stroke="midnightblue" d="M584.624,-95C596.214,-95 608.206,-95 619.98,-95"/>
<polygon fill="midnightblue" stroke="midnightblue" points="620.255,-98.5001 630.255,-95 620.255,-91.5001 620.255,-98.5001"/>
</g>
<!-- Node9 -->
<g id="node18" class="node"><title>Node9</title>
<a xlink:href="../../d0/d89/a00071.htm#a4f3be1434d193ba69690ec6687044e31" target="_top" xlink:title="gets the current invoker method name ">
<polygon fill="none" stroke="black" points="630.5,-130 630.5,-164 791.5,-164 791.5,-130 630.5,-130"/>
<text text-anchor="start" x="638.5" y="-151.9" font-family="Helvetica,sans-Serif" font-size="9.00">de.tu_clausthal.in.mec.CLogger.get</text>
<text text-anchor="middle" x="711" y="-138.9" font-family="Helvetica,sans-Serif" font-size="9.00">InvokingMethodName</text>
</a>
</g>
<!-- Node7&#45;&gt;Node9 -->
<g id="edge18" class="edge"><title>Node7&#45;&gt;Node9</title>
<path fill="none" stroke="midnightblue" d="M571.78,-112.027C591.437,-116.965 613.055,-122.395 633.271,-127.474"/>
<polygon fill="midnightblue" stroke="midnightblue" points="632.517,-130.893 643.068,-129.935 634.222,-124.104 632.517,-130.893"/>
</g>
<!-- Node8&#45;&gt;Node5 -->
<g id="edge16" class="edge"><title>Node8&#45;&gt;Node5</title>
<path fill="none" stroke="midnightblue" d="M791.534,-79.1372C800.324,-77.4058 809.316,-75.6347 818.218,-73.8812"/>
<polygon fill="midnightblue" stroke="midnightblue" points="819.081,-77.2787 828.216,-71.912 817.728,-70.4106 819.081,-77.2787"/>
</g>
<!-- Node9&#45;&gt;Node6 -->
<g id="edge20" class="edge"><title>Node9&#45;&gt;Node6</title>
<path fill="none" stroke="midnightblue" d="M791.534,-141.712C800.324,-141.135 809.316,-140.545 818.218,-139.96"/>
<polygon fill="midnightblue" stroke="midnightblue" points="818.467,-143.452 828.216,-139.304 818.008,-136.467 818.467,-143.452"/>
</g>
</g>
</svg>
