<?xml version="1.0" encoding="UTF-8" standalone="no"?>
<!DOCTYPE svg PUBLIC "-//W3C//DTD SVG 1.1//EN"
 "http://www.w3.org/Graphics/SVG/1.1/DTD/svg11.dtd">
<!-- Generated by graphviz version 2.26.3 (20100126.1600)
 -->
<!-- Title: de.tu_clausthal.in.mec.CLogger.getCurrentLineNumber Pages: 1 -->
<svg width="592pt" height="190pt"
 viewBox="0.00 0.00 592.00 190.00" xmlns="http://www.w3.org/2000/svg" xmlns:xlink="http://www.w3.org/1999/xlink">
<g id="graph1" class="graph" transform="scale(1 1) rotate(0) translate(4 186)">
<title>de.tu_clausthal.in.mec.CLogger.getCurrentLineNumber</title>
<!-- Node1 -->
<g id="node1" class="node"><title>Node1</title>
<polygon fill="#bfbfbf" stroke="black" points="0.5,-74 0.5,-108 161.5,-108 161.5,-74 0.5,-74"/>
<text text-anchor="start" x="8.5" y="-95.9" font-family="Helvetica,sans-Serif" font-size="9.00">de.tu_clausthal.in.mec.CLogger.get</text>
<text text-anchor="middle" x="81" y="-82.9" font-family="Helvetica,sans-Serif" font-size="9.00">CurrentLineNumber</text>
</g>
<!-- Node2 -->
<g id="node3" class="node"><title>Node2</title>
<a xlink:href="../../d0/d89/a00071.htm#abb3dd78d3e31045ef04b802dfef369aa" target="_top" xlink:title="creates a full log item ">
<polygon fill="none" stroke="black" points="198,-74 198,-108 372,-108 372,-74 198,-74"/>
<text text-anchor="start" x="206" y="-95.9" font-family="Helvetica,sans-Serif" font-size="9.00">de.tu_clausthal.in.mec.CLogger.create</text>
<text text-anchor="middle" x="285" y="-82.9" font-family="Helvetica,sans-Serif" font-size="9.00">LogData</text>
</a>
</g>
<!-- Node1&#45;&gt;Node2 -->
<g id="edge2" class="edge"><title>Node1&#45;&gt;Node2</title>
<path fill="none" stroke="midnightblue" d="M171.762,-91C180.453,-91 189.253,-91 197.908,-91"/>
<polygon fill="midnightblue" stroke="midnightblue" points="171.626,-87.5001 161.626,-91 171.626,-94.5001 171.626,-87.5001"/>
</g>
<!-- Node3 -->
<g id="node5" class="node"><title>Node3</title>
<a xlink:href="../../d0/d89/a00071.htm#a7016dc24277bb4101b8f763ac51ac808" target="_top" xlink:title="adds a debug message ">
<polygon fill="none" stroke="black" points="408.5,-160.5 408.5,-181.5 583.5,-181.5 583.5,-160.5 408.5,-160.5"/>
<text text-anchor="middle" x="496" y="-169.4" font-family="Helvetica,sans-Serif" font-size="9.00">de.tu_clausthal.in.mec.CLogger.debug</text>
</a>
</g>
<!-- Node2&#45;&gt;Node3 -->
<g id="edge4" class="edge"><title>Node2&#45;&gt;Node3</title>
<path fill="none" stroke="midnightblue" d="M324.011,-112.905C347.713,-125.48 378.918,-140.756 408,-151 418.344,-154.644 429.611,-157.79 440.523,-160.439"/>
<polygon fill="midnightblue" stroke="midnightblue" points="325.456,-109.709 314.991,-108.059 322.143,-115.875 325.456,-109.709"/>
</g>
<!-- Node4 -->
<g id="node7" class="node"><title>Node4</title>
<a xlink:href="../../d0/d89/a00071.htm#a80fb2874e8088e06c2a9e470599dbf21" target="_top" xlink:title="adds a error message ">
<polygon fill="none" stroke="black" points="412,-120.5 412,-141.5 580,-141.5 580,-120.5 412,-120.5"/>
<text text-anchor="middle" x="496" y="-129.4" font-family="Helvetica,sans-Serif" font-size="9.00">de.tu_clausthal.in.mec.CLogger.error</text>
</a>
</g>
<!-- Node2&#45;&gt;Node4 -->
<g id="edge6" class="edge"><title>Node2&#45;&gt;Node4</title>
<path fill="none" stroke="midnightblue" d="M381.87,-109.364C401.988,-113.178 422.528,-117.072 440.536,-120.486"/>
<polygon fill="midnightblue" stroke="midnightblue" points="382.517,-105.924 372.04,-107.5 381.213,-112.802 382.517,-105.924"/>
</g>
<!-- Node5 -->
<g id="node9" class="node"><title>Node5</title>
<a xlink:href="../../d0/d89/a00071.htm#a5eaa8e06a9f2a458465136438b277137" target="_top" xlink:title="adds an info message ">
<polygon fill="none" stroke="black" points="414,-80.5 414,-101.5 578,-101.5 578,-80.5 414,-80.5"/>
<text text-anchor="middle" x="496" y="-89.4" font-family="Helvetica,sans-Serif" font-size="9.00">de.tu_clausthal.in.mec.CLogger.info</text>
</a>
</g>
<!-- Node2&#45;&gt;Node5 -->
<g id="edge8" class="edge"><title>Node2&#45;&gt;Node5</title>
<path fill="none" stroke="midnightblue" d="M382.165,-91C392.777,-91 403.502,-91 413.907,-91"/>
<polygon fill="midnightblue" stroke="midnightblue" points="382.04,-87.5001 372.04,-91 382.04,-94.5001 382.04,-87.5001"/>
</g>
<!-- Node6 -->
<g id="node11" class="node"><title>Node6</title>
<a xlink:href="../../d0/d89/a00071.htm#a609c78b42162cf8e14c4fc30f4809371" target="_top" xlink:title="adds a output message ">
<polygon fill="none" stroke="black" points="415.5,-40.5 415.5,-61.5 576.5,-61.5 576.5,-40.5 415.5,-40.5"/>
<text text-anchor="middle" x="496" y="-49.4" font-family="Helvetica,sans-Serif" font-size="9.00">de.tu_clausthal.in.mec.CLogger.out</text>
</a>
</g>
<!-- Node2&#45;&gt;Node6 -->
<g id="edge10" class="edge"><title>Node2&#45;&gt;Node6</title>
<path fill="none" stroke="midnightblue" d="M381.87,-72.6361C401.988,-68.8222 422.528,-64.9284 440.536,-61.5144"/>
<polygon fill="midnightblue" stroke="midnightblue" points="381.213,-69.1981 372.04,-74.4995 382.517,-76.0756 381.213,-69.1981"/>
</g>
<!-- Node7 -->
<g id="node13" class="node"><title>Node7</title>
<a xlink:href="../../d0/d89/a00071.htm#a1968e097d5d08a8c871ad63b4c1a964e" target="_top" xlink:title="adds a warn message ">
<polygon fill="none" stroke="black" points="411.5,-0.5 411.5,-21.5 580.5,-21.5 580.5,-0.5 411.5,-0.5"/>
<text text-anchor="middle" x="496" y="-9.4" font-family="Helvetica,sans-Serif" font-size="9.00">de.tu_clausthal.in.mec.CLogger.warn</text>
</a>
</g>
<!-- Node2&#45;&gt;Node7 -->
<g id="edge12" class="edge"><title>Node2&#45;&gt;Node7</title>
<path fill="none" stroke="midnightblue" d="M324.011,-69.0947C347.713,-56.5202 378.918,-41.2436 408,-31 418.344,-27.3564 429.611,-24.2101 440.523,-21.5615"/>
<polygon fill="midnightblue" stroke="midnightblue" points="322.143,-66.1249 314.991,-73.9413 325.456,-72.2911 322.143,-66.1249"/>
</g>
</g>
</svg>
