<?xml version="1.0" encoding="UTF-8" standalone="no"?>
<!DOCTYPE svg PUBLIC "-//W3C//DTD SVG 1.1//EN"
 "http://www.w3.org/Graphics/SVG/1.1/DTD/svg11.dtd">
<!-- Generated by graphviz version 2.26.3 (20100126.1600)
 -->
<!-- Title: de.tu_clausthal.in.mec.CLogger.debug Pages: 1 -->
<svg width="1006pt" height="172pt"
 viewBox="0.00 0.00 1006.00 172.00" xmlns="http://www.w3.org/2000/svg" xmlns:xlink="http://www.w3.org/1999/xlink">
<g id="graph1" class="graph" transform="scale(1 1) rotate(0) translate(4 168)">
<title>de.tu_clausthal.in.mec.CLogger.debug</title>
<!-- Node1 -->
<g id="node1" class="node"><title>Node1</title>
<polygon fill="#bfbfbf" stroke="black" points="0.5,-61.5 0.5,-82.5 175.5,-82.5 175.5,-61.5 0.5,-61.5"/>
<text text-anchor="middle" x="88" y="-70.4" font-family="Helvetica,sans-Serif" font-size="9.00">de.tu_clausthal.in.mec.CLogger.debug</text>
</g>
<!-- Node2 -->
<g id="node3" class="node"><title>Node2</title>
<a xlink:href="../../d0/d89/a00071.htm#abb3dd78d3e31045ef04b802dfef369aa" target="_top" xlink:title="creates a full log item ">
<polygon fill="none" stroke="black" points="212,-55 212,-89 386,-89 386,-55 212,-55"/>
<text text-anchor="start" x="220" y="-76.9" font-family="Helvetica,sans-Serif" font-size="9.00">de.tu_clausthal.in.mec.CLogger.create</text>
<text text-anchor="middle" x="299" y="-63.9" font-family="Helvetica,sans-Serif" font-size="9.00">LogData</text>
</a>
</g>
<!-- Node1&#45;&gt;Node2 -->
<g id="edge2" class="edge"><title>Node1&#45;&gt;Node2</title>
<path fill="none" stroke="midnightblue" d="M175.65,-72C184.276,-72 193.067,-72 201.781,-72"/>
<polygon fill="midnightblue" stroke="midnightblue" points="201.962,-75.5001 211.962,-72 201.962,-68.5001 201.962,-75.5001"/>
</g>
<!-- Node3 -->
<g id="node5" class="node"><title>Node3</title>
<a xlink:href="../../d0/d89/a00071.htm#a29fcdb79a7321a093a64e1576198d808" target="_top" xlink:title="gets the current line number ">
<polygon fill="none" stroke="black" points="431.5,-130 431.5,-164 592.5,-164 592.5,-130 431.5,-130"/>
<text text-anchor="start" x="439.5" y="-151.9" font-family="Helvetica,sans-Serif" font-size="9.00">de.tu_clausthal.in.mec.CLogger.get</text>
<text text-anchor="middle" x="512" y="-138.9" font-family="Helvetica,sans-Serif" font-size="9.00">CurrentLineNumber</text>
</a>
</g>
<!-- Node2&#45;&gt;Node3 -->
<g id="edge4" class="edge"><title>Node2&#45;&gt;Node3</title>
<path fill="none" stroke="midnightblue" d="M338.792,-89.0001C362.696,-98.9237 393.841,-111.349 422,-121 427.856,-123.007 433.96,-124.992 440.11,-126.917"/>
<polygon fill="midnightblue" stroke="midnightblue" points="439.193,-130.297 449.78,-129.887 441.249,-123.605 439.193,-130.297"/>
</g>
<!-- Node4 -->
<g id="node7" class="node"><title>Node4</title>
<a xlink:href="../../d0/d89/a00071.htm#a580a39f975b628eb2d71268c441af123" target="_top" xlink:title="gets the current FQN method name ">
<polygon fill="none" stroke="black" points="638.5,-26 638.5,-60 799.5,-60 799.5,-26 638.5,-26"/>
<text text-anchor="start" x="646.5" y="-47.9" font-family="Helvetica,sans-Serif" font-size="9.00">de.tu_clausthal.in.mec.CLogger.get</text>
<text text-anchor="middle" x="719" y="-34.9" font-family="Helvetica,sans-Serif" font-size="9.00">CurrentMethodNameFqn</text>
</a>
</g>
<!-- Node2&#45;&gt;Node4 -->
<g id="edge6" class="edge"><title>Node2&#45;&gt;Node4</title>
<path fill="none" stroke="midnightblue" d="M386.024,-65.9912C456.789,-61.1051 556.319,-54.2327 628.106,-49.276"/>
<polygon fill="midnightblue" stroke="midnightblue" points="628.754,-52.7397 638.49,-48.5591 628.272,-45.7563 628.754,-52.7397"/>
</g>
<!-- Node7 -->
<g id="node13" class="node"><title>Node7</title>
<a xlink:href="../../d0/d89/a00071.htm#a83400955d082eb59ddfc6436b2879dba" target="_top" xlink:title="gets the current invoker FQN method name ">
<polygon fill="none" stroke="black" points="431.5,-78 431.5,-112 592.5,-112 592.5,-78 431.5,-78"/>
<text text-anchor="start" x="439.5" y="-99.9" font-family="Helvetica,sans-Serif" font-size="9.00">de.tu_clausthal.in.mec.CLogger.get</text>
<text text-anchor="middle" x="512" y="-86.9" font-family="Helvetica,sans-Serif" font-size="9.00">InvokingMethodNameFqn</text>
</a>
</g>
<!-- Node2&#45;&gt;Node7 -->
<g id="edge12" class="edge"><title>Node2&#45;&gt;Node7</title>
<path fill="none" stroke="midnightblue" d="M386.25,-81.4213C397.801,-82.6687 409.666,-83.9498 421.274,-85.2033"/>
<polygon fill="midnightblue" stroke="midnightblue" points="421.078,-88.7023 431.396,-86.2962 421.829,-81.7428 421.078,-88.7023"/>
</g>
<!-- Node10 -->
<g id="node21" class="node"><title>Node10</title>
<a xlink:href="../../d0/d89/a00071.htm#a6aba5cb9a0ceccfefeeab44a4e71873c" target="_top" xlink:title="pad / cut string of a define length ">
<polygon fill="none" stroke="black" points="422.5,-0.5 422.5,-21.5 601.5,-21.5 601.5,-0.5 422.5,-0.5"/>
<text text-anchor="middle" x="512" y="-9.4" font-family="Helvetica,sans-Serif" font-size="9.00">de.tu_clausthal.in.mec.CLogger.padCut</text>
</a>
</g>
<!-- Node2&#45;&gt;Node10 -->
<g id="edge22" class="edge"><title>Node2&#45;&gt;Node10</title>
<path fill="none" stroke="midnightblue" d="M356.522,-54.9864C377.154,-48.9308 400.603,-42.1027 422,-36 435.421,-32.1721 449.99,-28.0924 463.418,-24.363"/>
<polygon fill="midnightblue" stroke="midnightblue" points="464.725,-27.6329 473.426,-21.5893 462.855,-20.8872 464.725,-27.6329"/>
</g>
<!-- Node5 -->
<g id="node9" class="node"><title>Node5</title>
<a xlink:href="../../d0/d89/a00071.htm#a098c2f99c61b8c1a58b381efbbd86e87" target="_top" xlink:title="gets the current class name ">
<polygon fill="none" stroke="black" points="836.5,-39 836.5,-73 997.5,-73 997.5,-39 836.5,-39"/>
<text text-anchor="start" x="844.5" y="-60.9" font-family="Helvetica,sans-Serif" font-size="9.00">de.tu_clausthal.in.mec.CLogger.get</text>
<text text-anchor="middle" x="917" y="-47.9" font-family="Helvetica,sans-Serif" font-size="9.00">CurrentClassName</text>
</a>
</g>
<!-- Node4&#45;&gt;Node5 -->
<g id="edge8" class="edge"><title>Node4&#45;&gt;Node5</title>
<path fill="none" stroke="midnightblue" d="M799.534,-48.2876C808.324,-48.8647 817.316,-49.4551 826.218,-50.0396"/>
<polygon fill="midnightblue" stroke="midnightblue" points="826.008,-53.5332 836.216,-50.696 826.467,-46.5483 826.008,-53.5332"/>
</g>
<!-- Node6 -->
<g id="node11" class="node"><title>Node6</title>
<a xlink:href="../../d0/d89/a00071.htm#a6335fc80f4492a4b1859f8dec85856ca" target="_top" xlink:title="gets the current method name ">
<polygon fill="none" stroke="black" points="836.5,-117 836.5,-151 997.5,-151 997.5,-117 836.5,-117"/>
<text text-anchor="start" x="844.5" y="-138.9" font-family="Helvetica,sans-Serif" font-size="9.00">de.tu_clausthal.in.mec.CLogger.get</text>
<text text-anchor="middle" x="917" y="-125.9" font-family="Helvetica,sans-Serif" font-size="9.00">CurrentMethodName</text>
</a>
</g>
<!-- Node4&#45;&gt;Node6 -->
<g id="edge10" class="edge"><title>Node4&#45;&gt;Node6</title>
<path fill="none" stroke="midnightblue" d="M777.039,-60.0952C784.847,-62.8395 792.682,-65.8294 800,-69 828.234,-81.2329 858.565,-98.2024 881.268,-111.735"/>
<polygon fill="midnightblue" stroke="midnightblue" points="879.511,-114.763 889.883,-116.924 883.123,-108.766 879.511,-114.763"/>
</g>
<!-- Node8 -->
<g id="node15" class="node"><title>Node8</title>
<a xlink:href="../../d0/d89/a00071.htm#a9d827ebfcd5cdbec6ea38ccb089a6e21" target="_top" xlink:title="gets the current invoker class name ">
<polygon fill="none" stroke="black" points="638.5,-78 638.5,-112 799.5,-112 799.5,-78 638.5,-78"/>
<text text-anchor="start" x="646.5" y="-99.9" font-family="Helvetica,sans-Serif" font-size="9.00">de.tu_clausthal.in.mec.CLogger.get</text>
<text text-anchor="middle" x="719" y="-86.9" font-family="Helvetica,sans-Serif" font-size="9.00">InvokingClassName</text>
</a>
</g>
<!-- Node7&#45;&gt;Node8 -->
<g id="edge14" class="edge"><title>Node7&#45;&gt;Node8</title>
<path fill="none" stroke="midnightblue" d="M592.624,-95C604.214,-95 616.206,-95 627.98,-95"/>
<polygon fill="midnightblue" stroke="midnightblue" points="628.255,-98.5001 638.255,-95 628.255,-91.5001 628.255,-98.5001"/>
</g>
<!-- Node9 -->
<g id="node18" class="node"><title>Node9</title>
<a xlink:href="../../d0/d89/a00071.htm#a4f3be1434d193ba69690ec6687044e31" target="_top" xlink:title="gets the current invoker method name ">
<polygon fill="none" stroke="black" points="638.5,-130 638.5,-164 799.5,-164 799.5,-130 638.5,-130"/>
<text text-anchor="start" x="646.5" y="-151.9" font-family="Helvetica,sans-Serif" font-size="9.00">de.tu_clausthal.in.mec.CLogger.get</text>
<text text-anchor="middle" x="719" y="-138.9" font-family="Helvetica,sans-Serif" font-size="9.00">InvokingMethodName</text>
</a>
</g>
<!-- Node7&#45;&gt;Node9 -->
<g id="edge18" class="edge"><title>Node7&#45;&gt;Node9</title>
<path fill="none" stroke="midnightblue" d="M579.78,-112.027C599.437,-116.965 621.055,-122.395 641.271,-127.474"/>
<polygon fill="midnightblue" stroke="midnightblue" points="640.517,-130.893 651.068,-129.935 642.222,-124.104 640.517,-130.893"/>
</g>
<!-- Node8&#45;&gt;Node5 -->
<g id="edge16" class="edge"><title>Node8&#45;&gt;Node5</title>
<path fill="none" stroke="midnightblue" d="M799.534,-79.1372C808.324,-77.4058 817.316,-75.6347 826.218,-73.8812"/>
<polygon fill="midnightblue" stroke="midnightblue" points="827.081,-77.2787 836.216,-71.912 825.728,-70.4106 827.081,-77.2787"/>
</g>
<!-- Node9&#45;&gt;Node6 -->
<g id="edge20" class="edge"><title>Node9&#45;&gt;Node6</title>
<path fill="none" stroke="midnightblue" d="M799.534,-141.712C808.324,-141.135 817.316,-140.545 826.218,-139.96"/>
<polygon fill="midnightblue" stroke="midnightblue" points="826.467,-143.452 836.216,-139.304 826.008,-136.467 826.467,-143.452"/>
</g>
</g>
</svg>
