<?xml version="1.0" encoding="UTF-8" standalone="no"?>
<!DOCTYPE svg PUBLIC "-//W3C//DTD SVG 1.1//EN"
 "http://www.w3.org/Graphics/SVG/1.1/DTD/svg11.dtd">
<!-- Generated by graphviz version 2.26.3 (20100126.1600)
 -->
<!-- Title: de.tu_clausthal.in.mec.CLogger.createLogData Pages: 1 -->
<svg width="794pt" height="172pt"
 viewBox="0.00 0.00 794.00 172.00" xmlns="http://www.w3.org/2000/svg" xmlns:xlink="http://www.w3.org/1999/xlink">
<g id="graph1" class="graph" transform="scale(1 1) rotate(0) translate(4 168)">
<title>de.tu_clausthal.in.mec.CLogger.createLogData</title>
<!-- Node1 -->
<g id="node1" class="node"><title>Node1</title>
<polygon fill="#bfbfbf" stroke="black" points="0,-55 0,-89 174,-89 174,-55 0,-55"/>
<text text-anchor="start" x="8" y="-76.9" font-family="Helvetica,sans-Serif" font-size="9.00">de.tu_clausthal.in.mec.CLogger.create</text>
<text text-anchor="middle" x="87" y="-63.9" font-family="Helvetica,sans-Serif" font-size="9.00">LogData</text>
</g>
<!-- Node2 -->
<g id="node3" class="node"><title>Node2</title>
<a xlink:href="../../d0/d89/a00071.htm#a29fcdb79a7321a093a64e1576198d808" target="_top" xlink:title="gets the current line number ">
<polygon fill="none" stroke="black" points="219.5,-130 219.5,-164 380.5,-164 380.5,-130 219.5,-130"/>
<text text-anchor="start" x="227.5" y="-151.9" font-family="Helvetica,sans-Serif" font-size="9.00">de.tu_clausthal.in.mec.CLogger.get</text>
<text text-anchor="middle" x="300" y="-138.9" font-family="Helvetica,sans-Serif" font-size="9.00">CurrentLineNumber</text>
</a>
</g>
<!-- Node1&#45;&gt;Node2 -->
<g id="edge2" class="edge"><title>Node1&#45;&gt;Node2</title>
<path fill="none" stroke="midnightblue" d="M126.792,-89.0001C150.696,-98.9237 181.841,-111.349 210,-121 215.856,-123.007 221.96,-124.992 228.11,-126.917"/>
<polygon fill="midnightblue" stroke="midnightblue" points="227.193,-130.297 237.78,-129.887 229.249,-123.605 227.193,-130.297"/>
</g>
<!-- Node3 -->
<g id="node5" class="node"><title>Node3</title>
<a xlink:href="../../d0/d89/a00071.htm#a580a39f975b628eb2d71268c441af123" target="_top" xlink:title="gets the current FQN method name ">
<polygon fill="none" stroke="black" points="426.5,-26 426.5,-60 587.5,-60 587.5,-26 426.5,-26"/>
<text text-anchor="start" x="434.5" y="-47.9" font-family="Helvetica,sans-Serif" font-size="9.00">de.tu_clausthal.in.mec.CLogger.get</text>
<text text-anchor="middle" x="507" y="-34.9" font-family="Helvetica,sans-Serif" font-size="9.00">CurrentMethodNameFqn</text>
</a>
</g>
<!-- Node1&#45;&gt;Node3 -->
<g id="edge4" class="edge"><title>Node1&#45;&gt;Node3</title>
<path fill="none" stroke="midnightblue" d="M174.024,-65.9912C244.789,-61.1051 344.319,-54.2327 416.106,-49.276"/>
<polygon fill="midnightblue" stroke="midnightblue" points="416.754,-52.7397 426.49,-48.5591 416.272,-45.7563 416.754,-52.7397"/>
</g>
<!-- Node6 -->
<g id="node11" class="node"><title>Node6</title>
<a xlink:href="../../d0/d89/a00071.htm#a83400955d082eb59ddfc6436b2879dba" target="_top" xlink:title="gets the current invoker FQN method name ">
<polygon fill="none" stroke="black" points="219.5,-78 219.5,-112 380.5,-112 380.5,-78 219.5,-78"/>
<text text-anchor="start" x="227.5" y="-99.9" font-family="Helvetica,sans-Serif" font-size="9.00">de.tu_clausthal.in.mec.CLogger.get</text>
<text text-anchor="middle" x="300" y="-86.9" font-family="Helvetica,sans-Serif" font-size="9.00">InvokingMethodNameFqn</text>
</a>
</g>
<!-- Node1&#45;&gt;Node6 -->
<g id="edge10" class="edge"><title>Node1&#45;&gt;Node6</title>
<path fill="none" stroke="midnightblue" d="M174.25,-81.4213C185.801,-82.6687 197.666,-83.9498 209.274,-85.2033"/>
<polygon fill="midnightblue" stroke="midnightblue" points="209.078,-88.7023 219.396,-86.2962 209.829,-81.7428 209.078,-88.7023"/>
</g>
<!-- Node9 -->
<g id="node19" class="node"><title>Node9</title>
<a xlink:href="../../d0/d89/a00071.htm#a6aba5cb9a0ceccfefeeab44a4e71873c" target="_top" xlink:title="pad / cut string of a define length ">
<polygon fill="none" stroke="black" points="210.5,-0.5 210.5,-21.5 389.5,-21.5 389.5,-0.5 210.5,-0.5"/>
<text text-anchor="middle" x="300" y="-9.4" font-family="Helvetica,sans-Serif" font-size="9.00">de.tu_clausthal.in.mec.CLogger.padCut</text>
</a>
</g>
<!-- Node1&#45;&gt;Node9 -->
<g id="edge20" class="edge"><title>Node1&#45;&gt;Node9</title>
<path fill="none" stroke="midnightblue" d="M144.522,-54.9864C165.154,-48.9308 188.603,-42.1027 210,-36 223.421,-32.1721 237.99,-28.0924 251.418,-24.363"/>
<polygon fill="midnightblue" stroke="midnightblue" points="252.725,-27.6329 261.426,-21.5893 250.855,-20.8872 252.725,-27.6329"/>
</g>
<!-- Node4 -->
<g id="node7" class="node"><title>Node4</title>
<a xlink:href="../../d0/d89/a00071.htm#a098c2f99c61b8c1a58b381efbbd86e87" target="_top" xlink:title="gets the current class name ">
<polygon fill="none" stroke="black" points="624.5,-39 624.5,-73 785.5,-73 785.5,-39 624.5,-39"/>
<text text-anchor="start" x="632.5" y="-60.9" font-family="Helvetica,sans-Serif" font-size="9.00">de.tu_clausthal.in.mec.CLogger.get</text>
<text text-anchor="middle" x="705" y="-47.9" font-family="Helvetica,sans-Serif" font-size="9.00">CurrentClassName</text>
</a>
</g>
<!-- Node3&#45;&gt;Node4 -->
<g id="edge6" class="edge"><title>Node3&#45;&gt;Node4</title>
<path fill="none" stroke="midnightblue" d="M587.534,-48.2876C596.324,-48.8647 605.316,-49.4551 614.218,-50.0396"/>
<polygon fill="midnightblue" stroke="midnightblue" points="614.008,-53.5332 624.216,-50.696 614.467,-46.5483 614.008,-53.5332"/>
</g>
<!-- Node5 -->
<g id="node9" class="node"><title>Node5</title>
<a xlink:href="../../d0/d89/a00071.htm#a6335fc80f4492a4b1859f8dec85856ca" target="_top" xlink:title="gets the current method name ">
<polygon fill="none" stroke="black" points="624.5,-117 624.5,-151 785.5,-151 785.5,-117 624.5,-117"/>
<text text-anchor="start" x="632.5" y="-138.9" font-family="Helvetica,sans-Serif" font-size="9.00">de.tu_clausthal.in.mec.CLogger.get</text>
<text text-anchor="middle" x="705" y="-125.9" font-family="Helvetica,sans-Serif" font-size="9.00">CurrentMethodName</text>
</a>
</g>
<!-- Node3&#45;&gt;Node5 -->
<g id="edge8" class="edge"><title>Node3&#45;&gt;Node5</title>
<path fill="none" stroke="midnightblue" d="M565.039,-60.0952C572.847,-62.8395 580.682,-65.8294 588,-69 616.234,-81.2329 646.565,-98.2024 669.268,-111.735"/>
<polygon fill="midnightblue" stroke="midnightblue" points="667.511,-114.763 677.883,-116.924 671.123,-108.766 667.511,-114.763"/>
</g>
<!-- Node7 -->
<g id="node13" class="node"><title>Node7</title>
<a xlink:href="../../d0/d89/a00071.htm#a9d827ebfcd5cdbec6ea38ccb089a6e21" target="_top" xlink:title="gets the current invoker class name ">
<polygon fill="none" stroke="black" points="426.5,-78 426.5,-112 587.5,-112 587.5,-78 426.5,-78"/>
<text text-anchor="start" x="434.5" y="-99.9" font-family="Helvetica,sans-Serif" font-size="9.00">de.tu_clausthal.in.mec.CLogger.get</text>
<text text-anchor="middle" x="507" y="-86.9" font-family="Helvetica,sans-Serif" font-size="9.00">InvokingClassName</text>
</a>
</g>
<!-- Node6&#45;&gt;Node7 -->
<g id="edge12" class="edge"><title>Node6&#45;&gt;Node7</title>
<path fill="none" stroke="midnightblue" d="M380.624,-95C392.214,-95 404.206,-95 415.98,-95"/>
<polygon fill="midnightblue" stroke="midnightblue" points="416.255,-98.5001 426.255,-95 416.255,-91.5001 416.255,-98.5001"/>
</g>
<!-- Node8 -->
<g id="node16" class="node"><title>Node8</title>
<a xlink:href="../../d0/d89/a00071.htm#a4f3be1434d193ba69690ec6687044e31" target="_top" xlink:title="gets the current invoker method name ">
<polygon fill="none" stroke="black" points="426.5,-130 426.5,-164 587.5,-164 587.5,-130 426.5,-130"/>
<text text-anchor="start" x="434.5" y="-151.9" font-family="Helvetica,sans-Serif" font-size="9.00">de.tu_clausthal.in.mec.CLogger.get</text>
<text text-anchor="middle" x="507" y="-138.9" font-family="Helvetica,sans-Serif" font-size="9.00">InvokingMethodName</text>
</a>
</g>
<!-- Node6&#45;&gt;Node8 -->
<g id="edge16" class="edge"><title>Node6&#45;&gt;Node8</title>
<path fill="none" stroke="midnightblue" d="M367.78,-112.027C387.437,-116.965 409.055,-122.395 429.271,-127.474"/>
<polygon fill="midnightblue" stroke="midnightblue" points="428.517,-130.893 439.068,-129.935 430.222,-124.104 428.517,-130.893"/>
</g>
<!-- Node7&#45;&gt;Node4 -->
<g id="edge14" class="edge"><title>Node7&#45;&gt;Node4</title>
<path fill="none" stroke="midnightblue" d="M587.534,-79.1372C596.324,-77.4058 605.316,-75.6347 614.218,-73.8812"/>
<polygon fill="midnightblue" stroke="midnightblue" points="615.081,-77.2787 624.216,-71.912 613.728,-70.4106 615.081,-77.2787"/>
</g>
<!-- Node8&#45;&gt;Node5 -->
<g id="edge18" class="edge"><title>Node8&#45;&gt;Node5</title>
<path fill="none" stroke="midnightblue" d="M587.534,-141.712C596.324,-141.135 605.316,-140.545 614.218,-139.96"/>
<polygon fill="midnightblue" stroke="midnightblue" points="614.467,-143.452 624.216,-139.304 614.008,-136.467 614.467,-143.452"/>
</g>
</g>
</svg>
