<?xml version="1.0" encoding="UTF-8" standalone="no"?>
<!DOCTYPE svg PUBLIC "-//W3C//DTD SVG 1.1//EN"
 "http://www.w3.org/Graphics/SVG/1.1/DTD/svg11.dtd">
<!-- Generated by graphviz version 2.26.3 (20100126.1600)
 -->
<!-- Title: de.tu_clausthal.in.mec.CLogger.warn Pages: 1 -->
<svg width="1000pt" height="172pt"
 viewBox="0.00 0.00 1000.00 172.00" xmlns="http://www.w3.org/2000/svg" xmlns:xlink="http://www.w3.org/1999/xlink">
<g id="graph1" class="graph" transform="scale(1 1) rotate(0) translate(4 168)">
<title>de.tu_clausthal.in.mec.CLogger.warn</title>
<!-- Node1 -->
<g id="node1" class="node"><title>Node1</title>
<polygon fill="#bfbfbf" stroke="black" points="0.5,-61.5 0.5,-82.5 169.5,-82.5 169.5,-61.5 0.5,-61.5"/>
<text text-anchor="middle" x="85" y="-70.4" font-family="Helvetica,sans-Serif" font-size="9.00">de.tu_clausthal.in.mec.CLogger.warn</text>
</g>
<!-- Node2 -->
<g id="node3" class="node"><title>Node2</title>
<a xlink:href="../../d0/d89/a00071.htm#abb3dd78d3e31045ef04b802dfef369aa" target="_top" xlink:title="creates a full log item ">
<polygon fill="none" stroke="black" points="206,-55 206,-89 380,-89 380,-55 206,-55"/>
<text text-anchor="start" x="214" y="-76.9" font-family="Helvetica,sans-Serif" font-size="9.00">de.tu_clausthal.in.mec.CLogger.create</text>
<text text-anchor="middle" x="293" y="-63.9" font-family="Helvetica,sans-Serif" font-size="9.00">LogData</text>
</a>
</g>
<!-- Node1&#45;&gt;Node2 -->
<g id="edge2" class="edge"><title>Node1&#45;&gt;Node2</title>
<path fill="none" stroke="midnightblue" d="M169.602,-72C178.171,-72 186.922,-72 195.611,-72"/>
<polygon fill="midnightblue" stroke="midnightblue" points="195.769,-75.5001 205.769,-72 195.769,-68.5001 195.769,-75.5001"/>
</g>
<!-- Node3 -->
<g id="node5" class="node"><title>Node3</title>
<a xlink:href="../../d0/d89/a00071.htm#a29fcdb79a7321a093a64e1576198d808" target="_top" xlink:title="gets the current line number ">
<polygon fill="none" stroke="black" points="425.5,-130 425.5,-164 586.5,-164 586.5,-130 425.5,-130"/>
<text text-anchor="start" x="433.5" y="-151.9" font-family="Helvetica,sans-Serif" font-size="9.00">de.tu_clausthal.in.mec.CLogger.get</text>
<text text-anchor="middle" x="506" y="-138.9" font-family="Helvetica,sans-Serif" font-size="9.00">CurrentLineNumber</text>
</a>
</g>
<!-- Node2&#45;&gt;Node3 -->
<g id="edge4" class="edge"><title>Node2&#45;&gt;Node3</title>
<path fill="none" stroke="midnightblue" d="M332.792,-89.0001C356.696,-98.9237 387.841,-111.349 416,-121 421.856,-123.007 427.96,-124.992 434.11,-126.917"/>
<polygon fill="midnightblue" stroke="midnightblue" points="433.193,-130.297 443.78,-129.887 435.249,-123.605 433.193,-130.297"/>
</g>
<!-- Node4 -->
<g id="node7" class="node"><title>Node4</title>
<a xlink:href="../../d0/d89/a00071.htm#a580a39f975b628eb2d71268c441af123" target="_top" xlink:title="gets the current FQN method name ">
<polygon fill="none" stroke="black" points="632.5,-26 632.5,-60 793.5,-60 793.5,-26 632.5,-26"/>
<text text-anchor="start" x="640.5" y="-47.9" font-family="Helvetica,sans-Serif" font-size="9.00">de.tu_clausthal.in.mec.CLogger.get</text>
<text text-anchor="middle" x="713" y="-34.9" font-family="Helvetica,sans-Serif" font-size="9.00">CurrentMethodNameFqn</text>
</a>
</g>
<!-- Node2&#45;&gt;Node4 -->
<g id="edge6" class="edge"><title>Node2&#45;&gt;Node4</title>
<path fill="none" stroke="midnightblue" d="M380.024,-65.9912C450.789,-61.1051 550.319,-54.2327 622.106,-49.276"/>
<polygon fill="midnightblue" stroke="midnightblue" points="622.754,-52.7397 632.49,-48.5591 622.272,-45.7563 622.754,-52.7397"/>
</g>
<!-- Node7 -->
<g id="node13" class="node"><title>Node7</title>
<a xlink:href="../../d0/d89/a00071.htm#a83400955d082eb59ddfc6436b2879dba" target="_top" xlink:title="gets the current invoker FQN method name ">
<polygon fill="none" stroke="black" points="425.5,-78 425.5,-112 586.5,-112 586.5,-78 425.5,-78"/>
<text text-anchor="start" x="433.5" y="-99.9" font-family="Helvetica,sans-Serif" font-size="9.00">de.tu_clausthal.in.mec.CLogger.get</text>
<text text-anchor="middle" x="506" y="-86.9" font-family="Helvetica,sans-Serif" font-size="9.00">InvokingMethodNameFqn</text>
</a>
</g>
<!-- Node2&#45;&gt;Node7 -->
<g id="edge12" class="edge"><title>Node2&#45;&gt;Node7</title>
<path fill="none" stroke="midnightblue" d="M380.25,-81.4213C391.801,-82.6687 403.666,-83.9498 415.274,-85.2033"/>
<polygon fill="midnightblue" stroke="midnightblue" points="415.078,-88.7023 425.396,-86.2962 415.829,-81.7428 415.078,-88.7023"/>
</g>
<!-- Node10 -->
<g id="node21" class="node"><title>Node10</title>
<a xlink:href="../../d0/d89/a00071.htm#a6aba5cb9a0ceccfefeeab44a4e71873c" target="_top" xlink:title="pad / cut string of a define length ">
<polygon fill="none" stroke="black" points="416.5,-0.5 416.5,-21.5 595.5,-21.5 595.5,-0.5 416.5,-0.5"/>
<text text-anchor="middle" x="506" y="-9.4" font-family="Helvetica,sans-Serif" font-size="9.00">de.tu_clausthal.in.mec.CLogger.padCut</text>
</a>
</g>
<!-- Node2&#45;&gt;Node10 -->
<g id="edge22" class="edge"><title>Node2&#45;&gt;Node10</title>
<path fill="none" stroke="midnightblue" d="M350.522,-54.9864C371.154,-48.9308 394.603,-42.1027 416,-36 429.421,-32.1721 443.99,-28.0924 457.418,-24.363"/>
<polygon fill="midnightblue" stroke="midnightblue" points="458.725,-27.6329 467.426,-21.5893 456.855,-20.8872 458.725,-27.6329"/>
</g>
<!-- Node5 -->
<g id="node9" class="node"><title>Node5</title>
<a xlink:href="../../d0/d89/a00071.htm#a098c2f99c61b8c1a58b381efbbd86e87" target="_top" xlink:title="gets the current class name ">
<polygon fill="none" stroke="black" points="830.5,-39 830.5,-73 991.5,-73 991.5,-39 830.5,-39"/>
<text text-anchor="start" x="838.5" y="-60.9" font-family="Helvetica,sans-Serif" font-size="9.00">de.tu_clausthal.in.mec.CLogger.get</text>
<text text-anchor="middle" x="911" y="-47.9" font-family="Helvetica,sans-Serif" font-size="9.00">CurrentClassName</text>
</a>
</g>
<!-- Node4&#45;&gt;Node5 -->
<g id="edge8" class="edge"><title>Node4&#45;&gt;Node5</title>
<path fill="none" stroke="midnightblue" d="M793.534,-48.2876C802.324,-48.8647 811.316,-49.4551 820.218,-50.0396"/>
<polygon fill="midnightblue" stroke="midnightblue" points="820.008,-53.5332 830.216,-50.696 820.467,-46.5483 820.008,-53.5332"/>
</g>
<!-- Node6 -->
<g id="node11" class="node"><title>Node6</title>
<a xlink:href="../../d0/d89/a00071.htm#a6335fc80f4492a4b1859f8dec85856ca" target="_top" xlink:title="gets the current method name ">
<polygon fill="none" stroke="black" points="830.5,-117 830.5,-151 991.5,-151 991.5,-117 830.5,-117"/>
<text text-anchor="start" x="838.5" y="-138.9" font-family="Helvetica,sans-Serif" font-size="9.00">de.tu_clausthal.in.mec.CLogger.get</text>
<text text-anchor="middle" x="911" y="-125.9" font-family="Helvetica,sans-Serif" font-size="9.00">CurrentMethodName</text>
</a>
</g>
<!-- Node4&#45;&gt;Node6 -->
<g id="edge10" class="edge"><title>Node4&#45;&gt;Node6</title>
<path fill="none" stroke="midnightblue" d="M771.039,-60.0952C778.847,-62.8395 786.682,-65.8294 794,-69 822.234,-81.2329 852.565,-98.2024 875.268,-111.735"/>
<polygon fill="midnightblue" stroke="midnightblue" points="873.511,-114.763 883.883,-116.924 877.123,-108.766 873.511,-114.763"/>
</g>
<!-- Node8 -->
<g id="node15" class="node"><title>Node8</title>
<a xlink:href="../../d0/d89/a00071.htm#a9d827ebfcd5cdbec6ea38ccb089a6e21" target="_top" xlink:title="gets the current invoker class name ">
<polygon fill="none" stroke="black" points="632.5,-78 632.5,-112 793.5,-112 793.5,-78 632.5,-78"/>
<text text-anchor="start" x="640.5" y="-99.9" font-family="Helvetica,sans-Serif" font-size="9.00">de.tu_clausthal.in.mec.CLogger.get</text>
<text text-anchor="middle" x="713" y="-86.9" font-family="Helvetica,sans-Serif" font-size="9.00">InvokingClassName</text>
</a>
</g>
<!-- Node7&#45;&gt;Node8 -->
<g id="edge14" class="edge"><title>Node7&#45;&gt;Node8</title>
<path fill="none" stroke="midnightblue" d="M586.624,-95C598.214,-95 610.206,-95 621.98,-95"/>
<polygon fill="midnightblue" stroke="midnightblue" points="622.255,-98.5001 632.255,-95 622.255,-91.5001 622.255,-98.5001"/>
</g>
<!-- Node9 -->
<g id="node18" class="node"><title>Node9</title>
<a xlink:href="../../d0/d89/a00071.htm#a4f3be1434d193ba69690ec6687044e31" target="_top" xlink:title="gets the current invoker method name ">
<polygon fill="none" stroke="black" points="632.5,-130 632.5,-164 793.5,-164 793.5,-130 632.5,-130"/>
<text text-anchor="start" x="640.5" y="-151.9" font-family="Helvetica,sans-Serif" font-size="9.00">de.tu_clausthal.in.mec.CLogger.get</text>
<text text-anchor="middle" x="713" y="-138.9" font-family="Helvetica,sans-Serif" font-size="9.00">InvokingMethodName</text>
</a>
</g>
<!-- Node7&#45;&gt;Node9 -->
<g id="edge18" class="edge"><title>Node7&#45;&gt;Node9</title>
<path fill="none" stroke="midnightblue" d="M573.78,-112.027C593.437,-116.965 615.055,-122.395 635.271,-127.474"/>
<polygon fill="midnightblue" stroke="midnightblue" points="634.517,-130.893 645.068,-129.935 636.222,-124.104 634.517,-130.893"/>
</g>
<!-- Node8&#45;&gt;Node5 -->
<g id="edge16" class="edge"><title>Node8&#45;&gt;Node5</title>
<path fill="none" stroke="midnightblue" d="M793.534,-79.1372C802.324,-77.4058 811.316,-75.6347 820.218,-73.8812"/>
<polygon fill="midnightblue" stroke="midnightblue" points="821.081,-77.2787 830.216,-71.912 819.728,-70.4106 821.081,-77.2787"/>
</g>
<!-- Node9&#45;&gt;Node6 -->
<g id="edge20" class="edge"><title>Node9&#45;&gt;Node6</title>
<path fill="none" stroke="midnightblue" d="M793.534,-141.712C802.324,-141.135 811.316,-140.545 820.218,-139.96"/>
<polygon fill="midnightblue" stroke="midnightblue" points="820.467,-143.452 830.216,-139.304 820.008,-136.467 820.467,-143.452"/>
</g>
</g>
</svg>
