<?xml version="1.0" encoding="UTF-8" standalone="no"?>
<!DOCTYPE svg PUBLIC "-//W3C//DTD SVG 1.1//EN"
 "http://www.w3.org/Graphics/SVG/1.1/DTD/svg11.dtd">
<!-- Generated by graphviz version 2.26.3 (20100126.1600)
 -->
<!-- Title: de.tu_clausthal.in.mec.CLogger.out Pages: 1 -->
<svg width="368pt" height="70pt"
 viewBox="0.00 0.00 368.00 70.00" xmlns="http://www.w3.org/2000/svg" xmlns:xlink="http://www.w3.org/1999/xlink">
<g id="graph1" class="graph" transform="scale(1 1) rotate(0) translate(4 66)">
<title>de.tu_clausthal.in.mec.CLogger.out</title>
<!-- Node1 -->
<g id="node1" class="node"><title>Node1</title>
<polygon fill="#bfbfbf" stroke="black" points="0.5,-20.5 0.5,-41.5 161.5,-41.5 161.5,-20.5 0.5,-20.5"/>
<text text-anchor="middle" x="81" y="-29.4" font-family="Helvetica,sans-Serif" font-size="9.00">de.tu_clausthal.in.mec.CLogger.out</text>
</g>
<!-- Node2 -->
<g id="node3" class="node"><title>Node2</title>
<a xlink:href="../../d1/d6e/a00073.htm#a8f544d89e61fc8af0db569c60401028d" target="_top" xlink:title="main program ">
<polygon fill="none" stroke="black" points="199,-40.5 199,-61.5 359,-61.5 359,-40.5 199,-40.5"/>
<text text-anchor="middle" x="279" y="-49.4" font-family="Helvetica,sans-Serif" font-size="9.00">de.tu_clausthal.in.mec.CMain.main</text>
</a>
</g>
<!-- Node1&#45;&gt;Node2 -->
<g id="edge2" class="edge"><title>Node1&#45;&gt;Node2</title>
<path fill="none" stroke="midnightblue" d="M171.707,-40.1623C180.766,-41.0774 189.919,-42.0019 198.858,-42.9049"/>
<polygon fill="midnightblue" stroke="midnightblue" points="171.835,-36.6576 161.534,-39.1348 171.132,-43.6221 171.835,-36.6576"/>
</g>
<!-- Node3 -->
<g id="node5" class="node"><title>Node3</title>
<a xlink:href="../../d0/d89/a00071.htm#a60a2a6d868b133e2ffd6050d726d51cc" target="_top" xlink:title="adds a output message ">
<polygon fill="none" stroke="black" points="198.5,-0.5 198.5,-21.5 359.5,-21.5 359.5,-0.5 198.5,-0.5"/>
<text text-anchor="middle" x="279" y="-9.4" font-family="Helvetica,sans-Serif" font-size="9.00">de.tu_clausthal.in.mec.CLogger.out</text>
</a>
</g>
<!-- Node1&#45;&gt;Node3 -->
<g id="edge4" class="edge"><title>Node1&#45;&gt;Node3</title>
<path fill="none" stroke="midnightblue" d="M171.529,-21.8557C180.429,-20.9566 189.422,-20.0483 198.216,-19.16"/>
<polygon fill="midnightblue" stroke="midnightblue" points="171.132,-18.3779 161.534,-22.8652 171.835,-25.3424 171.132,-18.3779"/>
</g>
</g>
</svg>
