<?xml version="1.0" encoding="UTF-8" standalone="no"?>
<!DOCTYPE svg PUBLIC "-//W3C//DTD SVG 1.1//EN"
 "http://www.w3.org/Graphics/SVG/1.1/DTD/svg11.dtd">
<!-- Generated by graphviz version 2.26.3 (20100126.1600)
 -->
<!-- Title: de.tu_clausthal.in.mec.CLogger.getInvokingClassName Pages: 1 -->
<svg width="790pt" height="190pt"
 viewBox="0.00 0.00 790.00 190.00" xmlns="http://www.w3.org/2000/svg" xmlns:xlink="http://www.w3.org/1999/xlink">
<g id="graph1" class="graph" transform="scale(1 1) rotate(0) translate(4 186)">
<title>de.tu_clausthal.in.mec.CLogger.getInvokingClassName</title>
<!-- Node1 -->
<g id="node1" class="node"><title>Node1</title>
<polygon fill="#bfbfbf" stroke="black" points="0.5,-74 0.5,-108 161.5,-108 161.5,-74 0.5,-74"/>
<text text-anchor="start" x="8.5" y="-95.9" font-family="Helvetica,sans-Serif" font-size="9.00">de.tu_clausthal.in.mec.CLogger.get</text>
<text text-anchor="middle" x="81" y="-82.9" font-family="Helvetica,sans-Serif" font-size="9.00">InvokingClassName</text>
</g>
<!-- Node2 -->
<g id="node3" class="node"><title>Node2</title>
<a xlink:href="../../d0/d89/a00071.htm#a83400955d082eb59ddfc6436b2879dba" target="_top" xlink:title="gets the current invoker FQN method name ">
<polygon fill="none" stroke="black" points="198.5,-74 198.5,-108 359.5,-108 359.5,-74 198.5,-74"/>
<text text-anchor="start" x="206.5" y="-95.9" font-family="Helvetica,sans-Serif" font-size="9.00">de.tu_clausthal.in.mec.CLogger.get</text>
<text text-anchor="middle" x="279" y="-82.9" font-family="Helvetica,sans-Serif" font-size="9.00">InvokingMethodNameFqn</text>
</a>
</g>
<!-- Node1&#45;&gt;Node2 -->
<g id="edge2" class="edge"><title>Node1&#45;&gt;Node2</title>
<path fill="none" stroke="midnightblue" d="M171.816,-91C180.623,-91 189.516,-91 198.216,-91"/>
<polygon fill="midnightblue" stroke="midnightblue" points="171.534,-87.5001 161.534,-91 171.534,-94.5001 171.534,-87.5001"/>
</g>
<!-- Node3 -->
<g id="node5" class="node"><title>Node3</title>
<a xlink:href="../../d0/d89/a00071.htm#abb3dd78d3e31045ef04b802dfef369aa" target="_top" xlink:title="creates a full log item ">
<polygon fill="none" stroke="black" points="396,-74 396,-108 570,-108 570,-74 396,-74"/>
<text text-anchor="start" x="404" y="-95.9" font-family="Helvetica,sans-Serif" font-size="9.00">de.tu_clausthal.in.mec.CLogger.create</text>
<text text-anchor="middle" x="483" y="-82.9" font-family="Helvetica,sans-Serif" font-size="9.00">LogData</text>
</a>
</g>
<!-- Node2&#45;&gt;Node3 -->
<g id="edge4" class="edge"><title>Node2&#45;&gt;Node3</title>
<path fill="none" stroke="midnightblue" d="M369.762,-91C378.453,-91 387.253,-91 395.908,-91"/>
<polygon fill="midnightblue" stroke="midnightblue" points="369.626,-87.5001 359.626,-91 369.626,-94.5001 369.626,-87.5001"/>
</g>
<!-- Node4 -->
<g id="node7" class="node"><title>Node4</title>
<a xlink:href="../../d0/d89/a00071.htm#a7016dc24277bb4101b8f763ac51ac808" target="_top" xlink:title="adds a debug message ">
<polygon fill="none" stroke="black" points="606.5,-160.5 606.5,-181.5 781.5,-181.5 781.5,-160.5 606.5,-160.5"/>
<text text-anchor="middle" x="694" y="-169.4" font-family="Helvetica,sans-Serif" font-size="9.00">de.tu_clausthal.in.mec.CLogger.debug</text>
</a>
</g>
<!-- Node3&#45;&gt;Node4 -->
<g id="edge6" class="edge"><title>Node3&#45;&gt;Node4</title>
<path fill="none" stroke="midnightblue" d="M522.011,-112.905C545.713,-125.48 576.918,-140.756 606,-151 616.344,-154.644 627.611,-157.79 638.523,-160.439"/>
<polygon fill="midnightblue" stroke="midnightblue" points="523.456,-109.709 512.991,-108.059 520.143,-115.875 523.456,-109.709"/>
</g>
<!-- Node5 -->
<g id="node9" class="node"><title>Node5</title>
<a xlink:href="../../d0/d89/a00071.htm#a80fb2874e8088e06c2a9e470599dbf21" target="_top" xlink:title="adds a error message ">
<polygon fill="none" stroke="black" points="610,-120.5 610,-141.5 778,-141.5 778,-120.5 610,-120.5"/>
<text text-anchor="middle" x="694" y="-129.4" font-family="Helvetica,sans-Serif" font-size="9.00">de.tu_clausthal.in.mec.CLogger.error</text>
</a>
</g>
<!-- Node3&#45;&gt;Node5 -->
<g id="edge8" class="edge"><title>Node3&#45;&gt;Node5</title>
<path fill="none" stroke="midnightblue" d="M579.87,-109.364C599.988,-113.178 620.528,-117.072 638.536,-120.486"/>
<polygon fill="midnightblue" stroke="midnightblue" points="580.517,-105.924 570.04,-107.5 579.213,-112.802 580.517,-105.924"/>
</g>
<!-- Node6 -->
<g id="node11" class="node"><title>Node6</title>
<a xlink:href="../../d0/d89/a00071.htm#a5eaa8e06a9f2a458465136438b277137" target="_top" xlink:title="adds an info message ">
<polygon fill="none" stroke="black" points="612,-80.5 612,-101.5 776,-101.5 776,-80.5 612,-80.5"/>
<text text-anchor="middle" x="694" y="-89.4" font-family="Helvetica,sans-Serif" font-size="9.00">de.tu_clausthal.in.mec.CLogger.info</text>
</a>
</g>
<!-- Node3&#45;&gt;Node6 -->
<g id="edge10" class="edge"><title>Node3&#45;&gt;Node6</title>
<path fill="none" stroke="midnightblue" d="M580.165,-91C590.777,-91 601.502,-91 611.907,-91"/>
<polygon fill="midnightblue" stroke="midnightblue" points="580.04,-87.5001 570.04,-91 580.04,-94.5001 580.04,-87.5001"/>
</g>
<!-- Node7 -->
<g id="node13" class="node"><title>Node7</title>
<a xlink:href="../../d0/d89/a00071.htm#a609c78b42162cf8e14c4fc30f4809371" target="_top" xlink:title="adds a output message ">
<polygon fill="none" stroke="black" points="613.5,-40.5 613.5,-61.5 774.5,-61.5 774.5,-40.5 613.5,-40.5"/>
<text text-anchor="middle" x="694" y="-49.4" font-family="Helvetica,sans-Serif" font-size="9.00">de.tu_clausthal.in.mec.CLogger.out</text>
</a>
</g>
<!-- Node3&#45;&gt;Node7 -->
<g id="edge12" class="edge"><title>Node3&#45;&gt;Node7</title>
<path fill="none" stroke="midnightblue" d="M579.87,-72.6361C599.988,-68.8222 620.528,-64.9284 638.536,-61.5144"/>
<polygon fill="midnightblue" stroke="midnightblue" points="579.213,-69.1981 570.04,-74.4995 580.517,-76.0756 579.213,-69.1981"/>
</g>
<!-- Node8 -->
<g id="node15" class="node"><title>Node8</title>
<a xlink:href="../../d0/d89/a00071.htm#a1968e097d5d08a8c871ad63b4c1a964e" target="_top" xlink:title="adds a warn message ">
<polygon fill="none" stroke="black" points="609.5,-0.5 609.5,-21.5 778.5,-21.5 778.5,-0.5 609.5,-0.5"/>
<text text-anchor="middle" x="694" y="-9.4" font-family="Helvetica,sans-Serif" font-size="9.00">de.tu_clausthal.in.mec.CLogger.warn</text>
</a>
</g>
<!-- Node3&#45;&gt;Node8 -->
<g id="edge14" class="edge"><title>Node3&#45;&gt;Node8</title>
<path fill="none" stroke="midnightblue" d="M522.011,-69.0947C545.713,-56.5202 576.918,-41.2436 606,-31 616.344,-27.3564 627.611,-24.2101 638.523,-21.5615"/>
<polygon fill="midnightblue" stroke="midnightblue" points="520.143,-66.1249 512.991,-73.9413 523.456,-72.2911 520.143,-66.1249"/>
</g>
</g>
</svg>
