<?xml version="1.0" encoding="UTF-8" standalone="no"?>
<!DOCTYPE svg PUBLIC "-//W3C//DTD SVG 1.1//EN"
 "http://www.w3.org/Graphics/SVG/1.1/DTD/svg11.dtd">
<!-- Generated by graphviz version 2.26.3 (20100126.1600)
 -->
<!-- Title: de.tu_clausthal.in.mec.CLogger.getCurrentMethodName Pages: 1 -->
<!--zoomable 190 -->
<svg id="main" version="1.1" xmlns="http://www.w3.org/2000/svg" xmlns:xlink="http://www.w3.org/1999/xlink" xml:space="preserve" onload="init(evt)">
<style type="text/css"><![CDATA[
.edge:hover path { stroke: red; }
.edge:hover polygon { stroke: red; fill: red; }
]]></style>
<script type="text/javascript"><![CDATA[
var edges = document.getElementsByTagName('g');
if (edges && edges.length) {
  for (var i=0;i<edges.length;i++) {
    if (edges[i].id.substr(0,4)=='edge') {
      edges[i].setAttribute('class','edge');
    }
  }
}
]]></script>
        <defs>
                <circle id="rim" cx="0" cy="0" r="7"/>
                <circle id="rim2" cx="0" cy="0" r="3.5"/>
                <g id="zoomPlus">
                        <use xlink:href="#rim" fill="#404040">
                                <set attributeName="fill" to="#808080" begin="zoomplus.mouseover" end="zoomplus.mouseout"/>
                        </use>
                        <path d="M-4,0h8M0,-4v8" fill="none" stroke="white" stroke-width="1.5" pointer-events="none"/>
                </g>
                <g id="zoomMin">
                        <use xlink:href="#rim" fill="#404040">
                                <set attributeName="fill" to="#808080" begin="zoomminus.mouseover" end="zoomminus.mouseout"/>
                        </use>
                        <path d="M-4,0h8" fill="none" stroke="white" stroke-width="1.5" pointer-events="none"/>
                </g>
                <g id="dirArrow">
                        <path fill="none" stroke="white" stroke-width="1.5" d="M0,-3.0v7 M-2.5,-0.5L0,-3.0L2.5,-0.5"/>
                </g>
               <g id="resetDef">
                       <use xlink:href="#rim2" fill="#404040">
                               <set attributeName="fill" to="#808080" begin="reset.mouseover" end="reset.mouseout"/>
                       </use>
               </g>
        </defs>

<script type="text/javascript">
var viewWidth = 988;
var viewHeight = 190;
var sectionId = 'dynsection-13';
</script>
<script xlink:href="../../svgpan.js"/>
<svg id="graph" class="graph">
<g id="viewport">
<title>de.tu_clausthal.in.mec.CLogger.getCurrentMethodName</title>
<!-- Node1 -->
<g id="node1" class="node"><title>Node1</title>
<polygon fill="#bfbfbf" stroke="black" points="0.5,-74 0.5,-108 161.5,-108 161.5,-74 0.5,-74"/>
<text text-anchor="start" x="8.5" y="-95.9" font-family="Helvetica,sans-Serif" font-size="9.00">de.tu_clausthal.in.mec.CLogger.get</text>
<text text-anchor="middle" x="81" y="-82.9" font-family="Helvetica,sans-Serif" font-size="9.00">CurrentMethodName</text>
</g>
<!-- Node2 -->
<g id="node3" class="node"><title>Node2</title>
<a xlink:href="../../d0/d89/a00071.htm#a580a39f975b628eb2d71268c441af123" target="_top" xlink:title="gets the current FQN method name ">
<polygon fill="none" stroke="black" points="396.5,-100 396.5,-134 557.5,-134 557.5,-100 396.5,-100"/>
<text text-anchor="start" x="404.5" y="-121.9" font-family="Helvetica,sans-Serif" font-size="9.00">de.tu_clausthal.in.mec.CLogger.get</text>
<text text-anchor="middle" x="477" y="-108.9" font-family="Helvetica,sans-Serif" font-size="9.00">CurrentMethodNameFqn</text>
</a>
</g>
<!-- Node1&#45;&gt;Node2 -->
<g id="edge2" class="edge"><title>Node1&#45;&gt;Node2</title>
<path fill="none" stroke="midnightblue" d="M171.854,-96.9652C239.623,-101.415 331.355,-107.437 396.499,-111.715"/>
<polygon fill="midnightblue" stroke="midnightblue" points="171.822,-93.4556 161.614,-96.2928 171.363,-100.441 171.822,-93.4556"/>
</g>
<!-- Node9 -->
<g id="node17" class="node"><title>Node9</title>
<a xlink:href="../../d0/d89/a00071.htm#a4f3be1434d193ba69690ec6687044e31" target="_top" xlink:title="gets the current invoker method name ">
<polygon fill="none" stroke="black" points="198.5,-51 198.5,-85 359.5,-85 359.5,-51 198.5,-51"/>
<text text-anchor="start" x="206.5" y="-72.9" font-family="Helvetica,sans-Serif" font-size="9.00">de.tu_clausthal.in.mec.CLogger.get</text>
<text text-anchor="middle" x="279" y="-59.9" font-family="Helvetica,sans-Serif" font-size="9.00">InvokingMethodName</text>
</a>
</g>
<!-- Node1&#45;&gt;Node9 -->
<g id="edge16" class="edge"><title>Node1&#45;&gt;Node9</title>
<path fill="none" stroke="midnightblue" d="M171.529,-80.484C180.429,-79.4501 189.422,-78.4055 198.216,-77.384"/>
<polygon fill="midnightblue" stroke="midnightblue" points="171.064,-77.0145 161.534,-81.645 171.871,-83.9677 171.064,-77.0145"/>
</g>
<!-- Node3 -->
<g id="node5" class="node"><title>Node3</title>
<a xlink:href="../../d0/d89/a00071.htm#abb3dd78d3e31045ef04b802dfef369aa" target="_top" xlink:title="creates a full log item ">
<polygon fill="none" stroke="black" points="594,-74 594,-108 768,-108 768,-74 594,-74"/>
<text text-anchor="start" x="602" y="-95.9" font-family="Helvetica,sans-Serif" font-size="9.00">de.tu_clausthal.in.mec.CLogger.create</text>
<text text-anchor="middle" x="681" y="-82.9" font-family="Helvetica,sans-Serif" font-size="9.00">LogData</text>
</a>
</g>
<!-- Node2&#45;&gt;Node3 -->
<g id="edge4" class="edge"><title>Node2&#45;&gt;Node3</title>
<path fill="none" stroke="midnightblue" d="M567.762,-105.432C576.453,-104.325 585.253,-103.203 593.908,-102.1"/>
<polygon fill="midnightblue" stroke="midnightblue" points="567.103,-101.988 557.626,-106.724 567.988,-108.932 567.103,-101.988"/>
</g>
<!-- Node4 -->
<g id="node7" class="node"><title>Node4</title>
<a xlink:href="../../d0/d89/a00071.htm#a7016dc24277bb4101b8f763ac51ac808" target="_top" xlink:title="adds a debug message ">
<polygon fill="none" stroke="black" points="804.5,-160.5 804.5,-181.5 979.5,-181.5 979.5,-160.5 804.5,-160.5"/>
<text text-anchor="middle" x="892" y="-169.4" font-family="Helvetica,sans-Serif" font-size="9.00">de.tu_clausthal.in.mec.CLogger.debug</text>
</a>
</g>
<!-- Node3&#45;&gt;Node4 -->
<g id="edge6" class="edge"><title>Node3&#45;&gt;Node4</title>
<path fill="none" stroke="midnightblue" d="M720.011,-112.905C743.713,-125.48 774.918,-140.756 804,-151 814.344,-154.644 825.611,-157.79 836.523,-160.439"/>
<polygon fill="midnightblue" stroke="midnightblue" points="721.456,-109.709 710.991,-108.059 718.143,-115.875 721.456,-109.709"/>
</g>
<!-- Node5 -->
<g id="node9" class="node"><title>Node5</title>
<a xlink:href="../../d0/d89/a00071.htm#a80fb2874e8088e06c2a9e470599dbf21" target="_top" xlink:title="adds a error message ">
<polygon fill="none" stroke="black" points="808,-120.5 808,-141.5 976,-141.5 976,-120.5 808,-120.5"/>
<text text-anchor="middle" x="892" y="-129.4" font-family="Helvetica,sans-Serif" font-size="9.00">de.tu_clausthal.in.mec.CLogger.error</text>
</a>
</g>
<!-- Node3&#45;&gt;Node5 -->
<g id="edge8" class="edge"><title>Node3&#45;&gt;Node5</title>
<path fill="none" stroke="midnightblue" d="M777.87,-109.364C797.988,-113.178 818.528,-117.072 836.536,-120.486"/>
<polygon fill="midnightblue" stroke="midnightblue" points="778.517,-105.924 768.04,-107.5 777.213,-112.802 778.517,-105.924"/>
</g>
<!-- Node6 -->
<g id="node11" class="node"><title>Node6</title>
<a xlink:href="../../d0/d89/a00071.htm#a5eaa8e06a9f2a458465136438b277137" target="_top" xlink:title="adds an info message ">
<polygon fill="none" stroke="black" points="810,-80.5 810,-101.5 974,-101.5 974,-80.5 810,-80.5"/>
<text text-anchor="middle" x="892" y="-89.4" font-family="Helvetica,sans-Serif" font-size="9.00">de.tu_clausthal.in.mec.CLogger.info</text>
</a>
</g>
<!-- Node3&#45;&gt;Node6 -->
<g id="edge10" class="edge"><title>Node3&#45;&gt;Node6</title>
<path fill="none" stroke="midnightblue" d="M778.165,-91C788.777,-91 799.502,-91 809.907,-91"/>
<polygon fill="midnightblue" stroke="midnightblue" points="778.04,-87.5001 768.04,-91 778.04,-94.5001 778.04,-87.5001"/>
</g>
<!-- Node7 -->
<g id="node13" class="node"><title>Node7</title>
<a xlink:href="../../d0/d89/a00071.htm#a609c78b42162cf8e14c4fc30f4809371" target="_top" xlink:title="adds a output message ">
<polygon fill="none" stroke="black" points="811.5,-40.5 811.5,-61.5 972.5,-61.5 972.5,-40.5 811.5,-40.5"/>
<text text-anchor="middle" x="892" y="-49.4" font-family="Helvetica,sans-Serif" font-size="9.00">de.tu_clausthal.in.mec.CLogger.out</text>
</a>
</g>
<!-- Node3&#45;&gt;Node7 -->
<g id="edge12" class="edge"><title>Node3&#45;&gt;Node7</title>
<path fill="none" stroke="midnightblue" d="M777.87,-72.6361C797.988,-68.8222 818.528,-64.9284 836.536,-61.5144"/>
<polygon fill="midnightblue" stroke="midnightblue" points="777.213,-69.1981 768.04,-74.4995 778.517,-76.0756 777.213,-69.1981"/>
</g>
<!-- Node8 -->
<g id="node15" class="node"><title>Node8</title>
<a xlink:href="../../d0/d89/a00071.htm#a1968e097d5d08a8c871ad63b4c1a964e" target="_top" xlink:title="adds a warn message ">
<polygon fill="none" stroke="black" points="807.5,-0.5 807.5,-21.5 976.5,-21.5 976.5,-0.5 807.5,-0.5"/>
<text text-anchor="middle" x="892" y="-9.4" font-family="Helvetica,sans-Serif" font-size="9.00">de.tu_clausthal.in.mec.CLogger.warn</text>
</a>
</g>
<!-- Node3&#45;&gt;Node8 -->
<g id="edge14" class="edge"><title>Node3&#45;&gt;Node8</title>
<path fill="none" stroke="midnightblue" d="M720.011,-69.0947C743.713,-56.5202 774.918,-41.2436 804,-31 814.344,-27.3564 825.611,-24.2101 836.523,-21.5615"/>
<polygon fill="midnightblue" stroke="midnightblue" points="718.143,-66.1249 710.991,-73.9413 721.456,-72.2911 718.143,-66.1249"/>
</g>
<!-- Node10 -->
<g id="node19" class="node"><title>Node10</title>
<a xlink:href="../../d0/d89/a00071.htm#a83400955d082eb59ddfc6436b2879dba" target="_top" xlink:title="gets the current invoker FQN method name ">
<polygon fill="none" stroke="black" points="396.5,-48 396.5,-82 557.5,-82 557.5,-48 396.5,-48"/>
<text text-anchor="start" x="404.5" y="-69.9" font-family="Helvetica,sans-Serif" font-size="9.00">de.tu_clausthal.in.mec.CLogger.get</text>
<text text-anchor="middle" x="477" y="-56.9" font-family="Helvetica,sans-Serif" font-size="9.00">InvokingMethodNameFqn</text>
</a>
</g>
<!-- Node9&#45;&gt;Node10 -->
<g id="edge18" class="edge"><title>Node9&#45;&gt;Node10</title>
<path fill="none" stroke="midnightblue" d="M369.816,-66.624C378.623,-66.4906 387.516,-66.3558 396.216,-66.224"/>
<polygon fill="midnightblue" stroke="midnightblue" points="369.48,-63.1286 359.534,-66.7798 369.586,-70.1278 369.48,-63.1286"/>
</g>
<!-- Node10&#45;&gt;Node3 -->
<g id="edge20" class="edge"><title>Node10&#45;&gt;Node3</title>
<path fill="none" stroke="midnightblue" d="M567.762,-76.5677C576.453,-77.6753 585.253,-78.797 593.908,-79.9"/>
<polygon fill="midnightblue" stroke="midnightblue" points="567.988,-73.0683 557.626,-75.2759 567.103,-80.0122 567.988,-73.0683"/>
</g>
</g>
</svg>
        <g id="navigator" transform="translate(0 0)" fill="#404254">
                <rect fill="#f2f5e9" fill-opacity="0.5" stroke="#606060" stroke-width=".5" x="0" y="0" width="60" height="60"/>
                <use id="zoomplus" xlink:href="#zoomPlus" x="17" y="9" onmousedown="handleZoom(evt,'in')"/>
                <use id="zoomminus" xlink:href="#zoomMin" x="42" y="9" onmousedown="handleZoom(evt,'out')"/>
                <use id="reset" xlink:href="#resetDef" x="30" y="36" onmousedown="handleReset()"/>
                <g id="arrowUp" xlink:href="#dirArrow" transform="translate(30 24)" onmousedown="handlePan(0,-1)">
                  <use xlink:href="#rim" fill="#404040">
                        <set attributeName="fill" to="#808080" begin="arrowUp.mouseover" end="arrowUp.mouseout"/>
                  </use>
                  <path fill="none" stroke="white" stroke-width="1.5" d="M0,-3.0v7 M-2.5,-0.5L0,-3.0L2.5,-0.5"/>
                </g>
                <g id="arrowRight" xlink:href="#dirArrow" transform="rotate(90) translate(36 -43)" onmousedown="handlePan(1,0)">
                  <use xlink:href="#rim" fill="#404040">
                        <set attributeName="fill" to="#808080" begin="arrowRight.mouseover" end="arrowRight.mouseout"/>
                  </use>
                  <path fill="none" stroke="white" stroke-width="1.5" d="M0,-3.0v7 M-2.5,-0.5L0,-3.0L2.5,-0.5"/>
                </g>
                <g id="arrowDown" xlink:href="#dirArrow" transform="rotate(180) translate(-30 -48)" onmousedown="handlePan(0,1)">
                  <use xlink:href="#rim" fill="#404040">
                        <set attributeName="fill" to="#808080" begin="arrowDown.mouseover" end="arrowDown.mouseout"/>
                  </use>
                  <path fill="none" stroke="white" stroke-width="1.5" d="M0,-3.0v7 M-2.5,-0.5L0,-3.0L2.5,-0.5"/>
                </g>
                <g id="arrowLeft" xlink:href="#dirArrow" transform="rotate(270) translate(-36 17)" onmousedown="handlePan(-1,0)">
                  <use xlink:href="#rim" fill="#404040">
                        <set attributeName="fill" to="#808080" begin="arrowLeft.mouseover" end="arrowLeft.mouseout"/>
                  </use>
                  <path fill="none" stroke="white" stroke-width="1.5" d="M0,-3.0v7 M-2.5,-0.5L0,-3.0L2.5,-0.5"/>
                </g>
        </g>
        <svg viewBox="0 0 15 15" width="100%" height="30px" preserveAspectRatio="xMaxYMin meet">
         <g id="arrow_out" transform="scale(0.3 0.3)">
          <a xlink:href="a00071_a6335fc80f4492a4b1859f8dec85856ca_icgraph_org.svg" target="_base">
           <rect id="button" ry="5" rx="5" y="6" x="6" height="38" width="38"
                fill="#f2f5e9" fill-opacity="0.5" stroke="#606060" stroke-width="1.0"/>
           <path id="arrow"
             d="M 11.500037,31.436501 C 11.940474,20.09759 22.043105,11.32322 32.158766,21.979434 L 37.068811,17.246167 C 37.068811,17.246167 37.088388,32 37.088388,32 L 22.160133,31.978069 C 22.160133,31.978069 26.997745,27.140456 26.997745,27.140456 C 18.528582,18.264221 13.291696,25.230495 11.500037,31.436501 z"
             style="fill:#404040;"/>
          </a>
         </g>
        </svg>
</svg>
