<?xml version="1.0" encoding="UTF-8" standalone="no"?>
<!DOCTYPE svg PUBLIC "-//W3C//DTD SVG 1.1//EN"
 "http://www.w3.org/Graphics/SVG/1.1/DTD/svg11.dtd">
<!-- Generated by graphviz version 2.26.3 (20100126.1600)
 -->
<!-- Title: de.tu_clausthal.in.mec.CLogger.getCurrentMethodNameFqn Pages: 1 -->
<svg width="368pt" height="94pt"
 viewBox="0.00 0.00 368.00 94.00" xmlns="http://www.w3.org/2000/svg" xmlns:xlink="http://www.w3.org/1999/xlink">
<g id="graph1" class="graph" transform="scale(1 1) rotate(0) translate(4 90)">
<title>de.tu_clausthal.in.mec.CLogger.getCurrentMethodNameFqn</title>
<!-- Node1 -->
<g id="node1" class="node"><title>Node1</title>
<polygon fill="#bfbfbf" stroke="black" points="0.5,-26 0.5,-60 161.5,-60 161.5,-26 0.5,-26"/>
<text text-anchor="start" x="8.5" y="-47.9" font-family="Helvetica,sans-Serif" font-size="9.00">de.tu_clausthal.in.mec.CLogger.get</text>
<text text-anchor="middle" x="81" y="-34.9" font-family="Helvetica,sans-Serif" font-size="9.00">CurrentMethodNameFqn</text>
</g>
<!-- Node2 -->
<g id="node3" class="node"><title>Node2</title>
<a xlink:href="../../d0/d89/a00071.htm#a098c2f99c61b8c1a58b381efbbd86e87" target="_top" xlink:title="gets the current class name ">
<polygon fill="none" stroke="black" points="198.5,-52 198.5,-86 359.5,-86 359.5,-52 198.5,-52"/>
<text text-anchor="start" x="206.5" y="-73.9" font-family="Helvetica,sans-Serif" font-size="9.00">de.tu_clausthal.in.mec.CLogger.get</text>
<text text-anchor="middle" x="279" y="-60.9" font-family="Helvetica,sans-Serif" font-size="9.00">CurrentClassName</text>
</a>
</g>
<!-- Node1&#45;&gt;Node2 -->
<g id="edge2" class="edge"><title>Node1&#45;&gt;Node2</title>
<path fill="none" stroke="midnightblue" d="M161.534,-53.5752C170.324,-54.7295 179.316,-55.9102 188.218,-57.0792"/>
<polygon fill="midnightblue" stroke="midnightblue" points="187.845,-60.5602 198.216,-58.392 188.757,-53.6197 187.845,-60.5602"/>
</g>
<!-- Node3 -->
<g id="node5" class="node"><title>Node3</title>
<a xlink:href="../../d0/d89/a00071.htm#a6335fc80f4492a4b1859f8dec85856ca" target="_top" xlink:title="gets the current method name ">
<polygon fill="none" stroke="black" points="198.5,-0 198.5,-34 359.5,-34 359.5,-0 198.5,-0"/>
<text text-anchor="start" x="206.5" y="-21.9" font-family="Helvetica,sans-Serif" font-size="9.00">de.tu_clausthal.in.mec.CLogger.get</text>
<text text-anchor="middle" x="279" y="-8.9" font-family="Helvetica,sans-Serif" font-size="9.00">CurrentMethodName</text>
</a>
</g>
<!-- Node1&#45;&gt;Node3 -->
<g id="edge4" class="edge"><title>Node1&#45;&gt;Node3</title>
<path fill="none" stroke="midnightblue" d="M161.534,-32.4248C170.324,-31.2705 179.316,-30.0898 188.218,-28.9208"/>
<polygon fill="midnightblue" stroke="midnightblue" points="188.757,-32.3803 198.216,-27.608 187.845,-25.4398 188.757,-32.3803"/>
</g>
</g>
</svg>
