<?xml version="1.0" encoding="UTF-8" standalone="no"?>
<!DOCTYPE svg PUBLIC "-//W3C//DTD SVG 1.1//EN"
 "http://www.w3.org/Graphics/SVG/1.1/DTD/svg11.dtd">
<!-- Generated by graphviz version 2.26.3 (20100126.1600)
 -->
<!-- Title: de.tu_clausthal.in.mec.CLogger.createLogData Pages: 1 -->
<svg width="394pt" height="190pt"
 viewBox="0.00 0.00 394.00 190.00" xmlns="http://www.w3.org/2000/svg" xmlns:xlink="http://www.w3.org/1999/xlink">
<g id="graph1" class="graph" transform="scale(1 1) rotate(0) translate(4 186)">
<title>de.tu_clausthal.in.mec.CLogger.createLogData</title>
<!-- Node1 -->
<g id="node1" class="node"><title>Node1</title>
<polygon fill="#bfbfbf" stroke="black" points="0,-74 0,-108 174,-108 174,-74 0,-74"/>
<text text-anchor="start" x="8" y="-95.9" font-family="Helvetica,sans-Serif" font-size="9.00">de.tu_clausthal.in.mec.CLogger.create</text>
<text text-anchor="middle" x="87" y="-82.9" font-family="Helvetica,sans-Serif" font-size="9.00">LogData</text>
</g>
<!-- Node2 -->
<g id="node3" class="node"><title>Node2</title>
<a xlink:href="../../d0/d89/a00071.htm#a7016dc24277bb4101b8f763ac51ac808" target="_top" xlink:title="adds a debug message ">
<polygon fill="none" stroke="black" points="210.5,-160.5 210.5,-181.5 385.5,-181.5 385.5,-160.5 210.5,-160.5"/>
<text text-anchor="middle" x="298" y="-169.4" font-family="Helvetica,sans-Serif" font-size="9.00">de.tu_clausthal.in.mec.CLogger.debug</text>
</a>
</g>
<!-- Node1&#45;&gt;Node2 -->
<g id="edge2" class="edge"><title>Node1&#45;&gt;Node2</title>
<path fill="none" stroke="midnightblue" d="M126.011,-112.905C149.713,-125.48 180.918,-140.756 210,-151 220.344,-154.644 231.611,-157.79 242.523,-160.439"/>
<polygon fill="midnightblue" stroke="midnightblue" points="127.456,-109.709 116.991,-108.059 124.143,-115.875 127.456,-109.709"/>
</g>
<!-- Node3 -->
<g id="node5" class="node"><title>Node3</title>
<a xlink:href="../../d0/d89/a00071.htm#a80fb2874e8088e06c2a9e470599dbf21" target="_top" xlink:title="adds a error message ">
<polygon fill="none" stroke="black" points="214,-120.5 214,-141.5 382,-141.5 382,-120.5 214,-120.5"/>
<text text-anchor="middle" x="298" y="-129.4" font-family="Helvetica,sans-Serif" font-size="9.00">de.tu_clausthal.in.mec.CLogger.error</text>
</a>
</g>
<!-- Node1&#45;&gt;Node3 -->
<g id="edge4" class="edge"><title>Node1&#45;&gt;Node3</title>
<path fill="none" stroke="midnightblue" d="M183.87,-109.364C203.988,-113.178 224.528,-117.072 242.536,-120.486"/>
<polygon fill="midnightblue" stroke="midnightblue" points="184.517,-105.924 174.04,-107.5 183.213,-112.802 184.517,-105.924"/>
</g>
<!-- Node4 -->
<g id="node7" class="node"><title>Node4</title>
<a xlink:href="../../d0/d89/a00071.htm#a5eaa8e06a9f2a458465136438b277137" target="_top" xlink:title="adds an info message ">
<polygon fill="none" stroke="black" points="216,-80.5 216,-101.5 380,-101.5 380,-80.5 216,-80.5"/>
<text text-anchor="middle" x="298" y="-89.4" font-family="Helvetica,sans-Serif" font-size="9.00">de.tu_clausthal.in.mec.CLogger.info</text>
</a>
</g>
<!-- Node1&#45;&gt;Node4 -->
<g id="edge6" class="edge"><title>Node1&#45;&gt;Node4</title>
<path fill="none" stroke="midnightblue" d="M184.165,-91C194.777,-91 205.502,-91 215.907,-91"/>
<polygon fill="midnightblue" stroke="midnightblue" points="184.04,-87.5001 174.04,-91 184.04,-94.5001 184.04,-87.5001"/>
</g>
<!-- Node5 -->
<g id="node9" class="node"><title>Node5</title>
<a xlink:href="../../d0/d89/a00071.htm#a609c78b42162cf8e14c4fc30f4809371" target="_top" xlink:title="adds a output message ">
<polygon fill="none" stroke="black" points="217.5,-40.5 217.5,-61.5 378.5,-61.5 378.5,-40.5 217.5,-40.5"/>
<text text-anchor="middle" x="298" y="-49.4" font-family="Helvetica,sans-Serif" font-size="9.00">de.tu_clausthal.in.mec.CLogger.out</text>
</a>
</g>
<!-- Node1&#45;&gt;Node5 -->
<g id="edge8" class="edge"><title>Node1&#45;&gt;Node5</title>
<path fill="none" stroke="midnightblue" d="M183.87,-72.6361C203.988,-68.8222 224.528,-64.9284 242.536,-61.5144"/>
<polygon fill="midnightblue" stroke="midnightblue" points="183.213,-69.1981 174.04,-74.4995 184.517,-76.0756 183.213,-69.1981"/>
</g>
<!-- Node6 -->
<g id="node11" class="node"><title>Node6</title>
<a xlink:href="../../d0/d89/a00071.htm#a1968e097d5d08a8c871ad63b4c1a964e" target="_top" xlink:title="adds a warn message ">
<polygon fill="none" stroke="black" points="213.5,-0.5 213.5,-21.5 382.5,-21.5 382.5,-0.5 213.5,-0.5"/>
<text text-anchor="middle" x="298" y="-9.4" font-family="Helvetica,sans-Serif" font-size="9.00">de.tu_clausthal.in.mec.CLogger.warn</text>
</a>
</g>
<!-- Node1&#45;&gt;Node6 -->
<g id="edge10" class="edge"><title>Node1&#45;&gt;Node6</title>
<path fill="none" stroke="midnightblue" d="M126.011,-69.0947C149.713,-56.5202 180.918,-41.2436 210,-31 220.344,-27.3564 231.611,-24.2101 242.523,-21.5615"/>
<polygon fill="midnightblue" stroke="midnightblue" points="124.143,-66.1249 116.991,-73.9413 127.456,-72.2911 124.143,-66.1249"/>
</g>
</g>
</svg>
