<?xml version="1.0" encoding="UTF-8" standalone="no"?>
<!DOCTYPE svg PUBLIC "-//W3C//DTD SVG 1.1//EN"
 "http://www.w3.org/Graphics/SVG/1.1/DTD/svg11.dtd">
<!-- Generated by graphviz version 2.26.3 (20100126.1600)
 -->
<!-- Title: de.tu_clausthal.in.mec.CLogger.info Pages: 1 -->
<svg width="382pt" height="82pt"
 viewBox="0.00 0.00 382.00 82.00" xmlns="http://www.w3.org/2000/svg" xmlns:xlink="http://www.w3.org/1999/xlink">
<g id="graph1" class="graph" transform="scale(1 1) rotate(0) translate(4 78)">
<title>de.tu_clausthal.in.mec.CLogger.info</title>
<!-- Node1 -->
<g id="node1" class="node"><title>Node1</title>
<polygon fill="#bfbfbf" stroke="black" points="0,-23.5 0,-44.5 164,-44.5 164,-23.5 0,-23.5"/>
<text text-anchor="middle" x="82" y="-32.4" font-family="Helvetica,sans-Serif" font-size="9.00">de.tu_clausthal.in.mec.CLogger.info</text>
</g>
<!-- Node2 -->
<g id="node3" class="node"><title>Node2</title>
<a xlink:href="../../d1/db7/a00157.htm#a37ed2bfb18ab044cd61a5bd6e807021f" target="_top" xlink:title="creates the table structure ">
<polygon fill="none" stroke="black" points="200.5,-40 200.5,-74 373.5,-74 373.5,-40 200.5,-40"/>
<text text-anchor="start" x="208.5" y="-61.9" font-family="Helvetica,sans-Serif" font-size="9.00">de.tu_clausthal.in.mec.object.analysis.</text>
<text text-anchor="middle" x="287" y="-48.9" font-family="Helvetica,sans-Serif" font-size="9.00">IDatabase.createTable</text>
</a>
</g>
<!-- Node1&#45;&gt;Node2 -->
<g id="edge2" class="edge"><title>Node1&#45;&gt;Node2</title>
<path fill="none" stroke="midnightblue" d="M174.332,-44.3592C183.014,-45.3333 191.795,-46.3185 200.421,-47.2863"/>
<polygon fill="midnightblue" stroke="midnightblue" points="174.528,-40.8593 164.2,-43.2225 173.748,-47.8157 174.528,-40.8593"/>
</g>
<!-- Node3 -->
<g id="node5" class="node"><title>Node3</title>
<a xlink:href="../../d0/d89/a00071.htm#a992b89eda6d199b6d05e3c04d9497a93" target="_top" xlink:title="adds an info message ">
<polygon fill="none" stroke="black" points="205,-0.5 205,-21.5 369,-21.5 369,-0.5 205,-0.5"/>
<text text-anchor="middle" x="287" y="-9.4" font-family="Helvetica,sans-Serif" font-size="9.00">de.tu_clausthal.in.mec.CLogger.info</text>
</a>
</g>
<!-- Node1&#45;&gt;Node3 -->
<g id="edge4" class="edge"><title>Node1&#45;&gt;Node3</title>
<path fill="none" stroke="midnightblue" d="M174.3,-23.6443C184.461,-22.5044 194.756,-21.3493 204.781,-20.2245"/>
<polygon fill="midnightblue" stroke="midnightblue" points="173.748,-20.1843 164.2,-24.7775 174.528,-27.1407 173.748,-20.1843"/>
</g>
</g>
</svg>
