<?xml version="1.0" encoding="UTF-8" standalone="no"?>
<!DOCTYPE svg PUBLIC "-//W3C//DTD SVG 1.1//EN"
 "http://www.w3.org/Graphics/SVG/1.1/DTD/svg11.dtd">
<!-- Generated by graphviz version 2.26.3 (20100126.1600)
 -->
<!-- Title: de.tu_clausthal.in.mec.ui.web.CWebSocket Pages: 1 -->
<svg width="154pt" height="344pt"
 viewBox="0.00 0.00 154.00 344.00" xmlns="http://www.w3.org/2000/svg" xmlns:xlink="http://www.w3.org/1999/xlink">
<g id="graph1" class="graph" transform="scale(1 1) rotate(0) translate(4 340)">
<title>de.tu_clausthal.in.mec.ui.web.CWebSocket</title>
<!-- Node1 -->
<g id="node1" class="node"><title>Node1</title>
<polygon fill="#bfbfbf" stroke="black" points="0,-1 0,-181 140,-181 140,-1 0,-1"/>
<text text-anchor="start" x="8" y="-168.9" font-family="Helvetica,sans-Serif" font-size="9.00">de.tu_clausthal.in.mec.ui.web.</text>
<text text-anchor="middle" x="70" y="-155.9" font-family="Helvetica,sans-Serif" font-size="9.00">CWebSocket</text>
<polyline fill="none" stroke="black" points="0,-147 140,-147 "/>
<text text-anchor="start" x="8" y="-134.9" font-family="Helvetica,sans-Serif" font-size="9.00">&#45; m_heartbeat</text>
<text text-anchor="start" x="8" y="-121.9" font-family="Helvetica,sans-Serif" font-size="9.00">&#45; m_method</text>
<text text-anchor="start" x="8" y="-108.9" font-family="Helvetica,sans-Serif" font-size="9.00">&#45; m_object</text>
<text text-anchor="start" x="8" y="-95.9" font-family="Helvetica,sans-Serif" font-size="9.00">&#45; c_millisecond</text>
<polyline fill="none" stroke="black" points="0,-87 140,-87 "/>
<text text-anchor="start" x="8" y="-74.9" font-family="Helvetica,sans-Serif" font-size="9.00">+ CWebSocket()</text>
<text text-anchor="start" x="8" y="-61.9" font-family="Helvetica,sans-Serif" font-size="9.00"># onClose()</text>
<text text-anchor="start" x="8" y="-48.9" font-family="Helvetica,sans-Serif" font-size="9.00"># onException()</text>
<text text-anchor="start" x="8" y="-35.9" font-family="Helvetica,sans-Serif" font-size="9.00"># onMessage()</text>
<text text-anchor="start" x="8" y="-22.9" font-family="Helvetica,sans-Serif" font-size="9.00"># onPong()</text>
<text text-anchor="start" x="8" y="-9.9" font-family="Helvetica,sans-Serif" font-size="9.00">&#45; invokeMethod()</text>
</g>
<!-- Node2 -->
<g id="node2" class="node"><title>Node2</title>
<a xlink:href="../../d3/de7/a00039.htm" target="_top" xlink:title="connunicator object to handle all communication data ">
<polygon fill="none" stroke="black" points="0,-233 0,-335 140,-335 140,-233 0,-233"/>
<text text-anchor="start" x="8" y="-322.9" font-family="Helvetica,sans-Serif" font-size="9.00">de.tu_clausthal.in.mec.ui.web.</text>
<text text-anchor="middle" x="70" y="-309.9" font-family="Helvetica,sans-Serif" font-size="9.00">CWebSocket.CCommunicator</text>
<polyline fill="none" stroke="black" points="0,-301 140,-301 "/>
<text text-anchor="middle" x="70" y="-288.9" font-family="Helvetica,sans-Serif" font-size="9.00"> </text>
<polyline fill="none" stroke="black" points="0,-280 140,-280 "/>
<text text-anchor="start" x="8" y="-267.9" font-family="Helvetica,sans-Serif" font-size="9.00">+ getID()</text>
<text text-anchor="start" x="8" y="-254.9" font-family="Helvetica,sans-Serif" font-size="9.00">+ send()</text>
<text text-anchor="start" x="8" y="-241.9" font-family="Helvetica,sans-Serif" font-size="9.00">+ send()</text>
</a>
</g>
<!-- Node2&#45;&gt;Node1 -->
<g id="edge2" class="edge"><title>Node2&#45;&gt;Node1</title>
<path fill="none" stroke="#404040" d="M70,-232.786C70,-220.521 70,-206.994 70,-193.31"/>
<polygon fill="none" stroke="#404040" points="70.0001,-193.273 66,-187.273 70,-181.273 74,-187.273 70.0001,-193.273"/>
<text text-anchor="middle" x="108" y="-205.4" font-family="Helvetica,sans-Serif" font-size="9.00"> &#45;m_communicator</text>
</g>
</g>
</svg>
