<?xml version="1.0" encoding="UTF-8" standalone="no"?>
<!DOCTYPE svg PUBLIC "-//W3C//DTD SVG 1.1//EN"
 "http://www.w3.org/Graphics/SVG/1.1/DTD/svg11.dtd">
<!-- Generated by graphviz version 2.26.3 (20100126.1600)
 -->
<!-- Title: de.tu_clausthal.in.mec.object.analysis.CEvaluationStore.CCollectorAgent Pages: 1 -->
<svg width="180pt" height="440pt"
 viewBox="0.00 0.00 180.00 440.00" xmlns="http://www.w3.org/2000/svg" xmlns:xlink="http://www.w3.org/1999/xlink">
<g id="graph1" class="graph" transform="scale(1 1) rotate(0) translate(4 436)">
<title>de.tu_clausthal.in.mec.object.analysis.CEvaluationStore.CCollectorAgent</title>
<!-- Node1 -->
<g id="node1" class="node"><title>Node1</title>
<polygon fill="#bfbfbf" stroke="black" points="-0.5,-0.5 -0.5,-89.5 172.5,-89.5 172.5,-0.5 -0.5,-0.5"/>
<text text-anchor="start" x="7.5" y="-77.4" font-family="Helvetica,sans-Serif" font-size="9.00">de.tu_clausthal.in.mec.object.analysis.</text>
<text text-anchor="middle" x="86" y="-64.4" font-family="Helvetica,sans-Serif" font-size="9.00">CEvaluationStore.CCollectorAgent</text>
<polyline fill="none" stroke="black" points="-0.5,-55.5 172.5,-55.5 "/>
<text text-anchor="start" x="7.5" y="-43.4" font-family="Helvetica,sans-Serif" font-size="9.00">&#45; m_statement</text>
<polyline fill="none" stroke="black" points="-0.5,-34.5 172.5,-34.5 "/>
<text text-anchor="start" x="7.5" y="-22.4" font-family="Helvetica,sans-Serif" font-size="9.00">+ CCollectorAgent()</text>
<text text-anchor="start" x="7.5" y="-9.4" font-family="Helvetica,sans-Serif" font-size="9.00">+ step()</text>
</g>
<!-- Node2 -->
<g id="node2" class="node"><title>Node2</title>
<a xlink:href="../../d6/db3/a00130.htm" target="_top" xlink:title="worker class to push data to the database * ">
<polygon fill="none" stroke="black" points="-0.5,-127 -0.5,-203 172.5,-203 172.5,-127 -0.5,-127"/>
<text text-anchor="start" x="7.5" y="-190.9" font-family="Helvetica,sans-Serif" font-size="9.00">de.tu_clausthal.in.mec.object.analysis.</text>
<text text-anchor="middle" x="86" y="-177.9" font-family="Helvetica,sans-Serif" font-size="9.00">IDatabase.CWorker</text>
<polyline fill="none" stroke="black" points="-0.5,-169 172.5,-169 "/>
<text text-anchor="middle" x="86" y="-156.9" font-family="Helvetica,sans-Serif" font-size="9.00"> </text>
<polyline fill="none" stroke="black" points="-0.5,-148 172.5,-148 "/>
<text text-anchor="start" x="7.5" y="-135.9" font-family="Helvetica,sans-Serif" font-size="9.00">+ release()</text>
</a>
</g>
<!-- Node2&#45;&gt;Node1 -->
<g id="edge2" class="edge"><title>Node2&#45;&gt;Node1</title>
<path fill="none" stroke="midnightblue" d="M86,-116.489C86,-107.611 86,-98.3852 86,-89.6276"/>
<polygon fill="none" stroke="midnightblue" points="82.5001,-116.701 86,-126.701 89.5001,-116.701 82.5001,-116.701"/>
</g>
<!-- Node3 -->
<g id="node4" class="node"><title>Node3</title>
<a xlink:href="../../de/db1/a00197.htm" target="_top" xlink:title="interface of void&#45;step method ">
<polygon fill="none" stroke="black" points="14.5,-241 14.5,-317 157.5,-317 157.5,-241 14.5,-241"/>
<text text-anchor="start" x="22.5" y="-304.9" font-family="Helvetica,sans-Serif" font-size="9.00">de.tu_clausthal.in.mec.runtime.</text>
<text text-anchor="middle" x="86" y="-291.9" font-family="Helvetica,sans-Serif" font-size="9.00">IVoidSteppable</text>
<polyline fill="none" stroke="black" points="14.5,-283 157.5,-283 "/>
<text text-anchor="middle" x="86" y="-270.9" font-family="Helvetica,sans-Serif" font-size="9.00"> </text>
<polyline fill="none" stroke="black" points="14.5,-262 157.5,-262 "/>
<text text-anchor="start" x="22.5" y="-249.9" font-family="Helvetica,sans-Serif" font-size="9.00">+ step()</text>
</a>
</g>
<!-- Node3&#45;&gt;Node2 -->
<g id="edge4" class="edge"><title>Node3&#45;&gt;Node2</title>
<path fill="none" stroke="midnightblue" d="M86,-230.623C86,-221.52 86,-212.117 86,-203.371"/>
<polygon fill="none" stroke="midnightblue" points="82.5001,-230.722 86,-240.723 89.5001,-230.723 82.5001,-230.722"/>
</g>
<!-- Node4 -->
<g id="node6" class="node"><title>Node4</title>
<a xlink:href="../../da/d15/a00188.htm" target="_top" xlink:title="interface for all objects which are triggered by the simulation worker ">
<polygon fill="none" stroke="black" points="14.5,-355 14.5,-431 157.5,-431 157.5,-355 14.5,-355"/>
<text text-anchor="start" x="22.5" y="-418.9" font-family="Helvetica,sans-Serif" font-size="9.00">de.tu_clausthal.in.mec.runtime.</text>
<text text-anchor="middle" x="86" y="-405.9" font-family="Helvetica,sans-Serif" font-size="9.00">ISteppable</text>
<polyline fill="none" stroke="black" points="14.5,-397 157.5,-397 "/>
<text text-anchor="middle" x="86" y="-384.9" font-family="Helvetica,sans-Serif" font-size="9.00"> </text>
<polyline fill="none" stroke="black" points="14.5,-376 157.5,-376 "/>
<text text-anchor="start" x="22.5" y="-363.9" font-family="Helvetica,sans-Serif" font-size="9.00">+ release()</text>
</a>
</g>
<!-- Node4&#45;&gt;Node3 -->
<g id="edge6" class="edge"><title>Node4&#45;&gt;Node3</title>
<path fill="none" stroke="midnightblue" d="M86,-344.623C86,-335.52 86,-326.117 86,-317.371"/>
<polygon fill="none" stroke="midnightblue" points="82.5001,-344.722 86,-354.723 89.5001,-344.723 82.5001,-344.722"/>
</g>
</g>
</svg>
