<?xml version="1.0" encoding="UTF-8" standalone="no"?>
<!DOCTYPE svg PUBLIC "-//W3C//DTD SVG 1.1//EN"
 "http://www.w3.org/Graphics/SVG/1.1/DTD/svg11.dtd">
<!-- Generated by graphviz version 2.26.3 (20100126.1600)
 -->
<!-- Title: de.tu_clausthal.in.mec.object.mas.inconsistency.IDefaultMetric&lt; T &gt; Pages: 1 -->
<svg width="688pt" height="290pt"
 viewBox="0.00 0.00 688.00 290.00" xmlns="http://www.w3.org/2000/svg" xmlns:xlink="http://www.w3.org/1999/xlink">
<g id="graph1" class="graph" transform="scale(1 1) rotate(0) translate(4 286)">
<title>de.tu_clausthal.in.mec.object.mas.inconsistency.IDefaultMetric&lt; T &gt;</title>
<!-- Node1 -->
<g id="node1" class="node"><title>Node1</title>
<polygon fill="#bfbfbf" stroke="black" points="232.5,-153 232.5,-281 447.5,-281 447.5,-153 232.5,-153"/>
<text text-anchor="start" x="240.5" y="-268.9" font-family="Helvetica,sans-Serif" font-size="9.00">de.tu_clausthal.in.mec.object.mas.inconsistency.</text>
<text text-anchor="middle" x="340" y="-255.9" font-family="Helvetica,sans-Serif" font-size="9.00">IDefaultMetric&lt; T &gt;</text>
<polyline fill="none" stroke="black" points="232.5,-247 447.5,-247 "/>
<text text-anchor="start" x="240.5" y="-234.9" font-family="Helvetica,sans-Serif" font-size="9.00"># m_paths</text>
<polyline fill="none" stroke="black" points="232.5,-226 447.5,-226 "/>
<text text-anchor="start" x="240.5" y="-213.9" font-family="Helvetica,sans-Serif" font-size="9.00">+ IDefaultMetric()</text>
<text text-anchor="start" x="240.5" y="-200.9" font-family="Helvetica,sans-Serif" font-size="9.00">+ IDefaultMetric()</text>
<text text-anchor="start" x="240.5" y="-187.9" font-family="Helvetica,sans-Serif" font-size="9.00">+ IDefaultMetric()</text>
<text text-anchor="start" x="240.5" y="-174.9" font-family="Helvetica,sans-Serif" font-size="9.00">+ calculate()</text>
<text text-anchor="start" x="240.5" y="-161.9" font-family="Helvetica,sans-Serif" font-size="9.00">+ getSelector()</text>
</g>
<!-- Node2 -->
<g id="node3" class="node"><title>Node2</title>
<a xlink:href="../../d3/dea/a00046.htm" target="_top" xlink:title="generic discrete metric ">
<polygon fill="none" stroke="black" points="-0.5,-0.5 -0.5,-115.5 214.5,-115.5 214.5,-0.5 -0.5,-0.5"/>
<text text-anchor="start" x="7.5" y="-103.4" font-family="Helvetica,sans-Serif" font-size="9.00">de.tu_clausthal.in.mec.object.mas.inconsistency.</text>
<text text-anchor="middle" x="107" y="-90.4" font-family="Helvetica,sans-Serif" font-size="9.00">CDiscreteMetric&lt; T &gt;</text>
<polyline fill="none" stroke="black" points="-0.5,-81.5 214.5,-81.5 "/>
<text text-anchor="middle" x="107" y="-69.4" font-family="Helvetica,sans-Serif" font-size="9.00"> </text>
<polyline fill="none" stroke="black" points="-0.5,-60.5 214.5,-60.5 "/>
<text text-anchor="start" x="7.5" y="-48.4" font-family="Helvetica,sans-Serif" font-size="9.00">+ CDiscreteMetric()</text>
<text text-anchor="start" x="7.5" y="-35.4" font-family="Helvetica,sans-Serif" font-size="9.00">+ CDiscreteMetric()</text>
<text text-anchor="start" x="7.5" y="-22.4" font-family="Helvetica,sans-Serif" font-size="9.00">+ CDiscreteMetric()</text>
<text text-anchor="start" x="7.5" y="-9.4" font-family="Helvetica,sans-Serif" font-size="9.00">+ calculate()</text>
</a>
</g>
<!-- Node1&#45;&gt;Node2 -->
<g id="edge2" class="edge"><title>Node1&#45;&gt;Node2</title>
<path fill="none" stroke="midnightblue" d="M237.388,-146.977C221.99,-136.469 206.263,-125.737 191.305,-115.53"/>
<polygon fill="none" stroke="midnightblue" points="235.669,-150.041 245.902,-152.787 239.614,-144.259 235.669,-150.041"/>
</g>
<!-- Node3 -->
<g id="node5" class="node"><title>Node3</title>
<a xlink:href="../../d1/dd6/a00108.htm" target="_top" xlink:title="metric on collections returns the size of symmetric difference ">
<polygon fill="none" stroke="black" points="232,-0.5 232,-115.5 448,-115.5 448,-0.5 232,-0.5"/>
<text text-anchor="start" x="240" y="-103.4" font-family="Helvetica,sans-Serif" font-size="9.00">de.tu_clausthal.in.mec.object.mas.inconsistency.</text>
<text text-anchor="middle" x="340" y="-90.4" font-family="Helvetica,sans-Serif" font-size="9.00">CSymmetricDifferenceMetric&lt; T extends IAgent &gt;</text>
<polyline fill="none" stroke="black" points="232,-81.5 448,-81.5 "/>
<text text-anchor="middle" x="340" y="-69.4" font-family="Helvetica,sans-Serif" font-size="9.00"> </text>
<polyline fill="none" stroke="black" points="232,-60.5 448,-60.5 "/>
<text text-anchor="start" x="240" y="-48.4" font-family="Helvetica,sans-Serif" font-size="9.00">+ CSymmetricDifferenceMetric()</text>
<text text-anchor="start" x="240" y="-35.4" font-family="Helvetica,sans-Serif" font-size="9.00">+ CSymmetricDifferenceMetric()</text>
<text text-anchor="start" x="240" y="-22.4" font-family="Helvetica,sans-Serif" font-size="9.00">+ CSymmetricDifferenceMetric()</text>
<text text-anchor="start" x="240" y="-9.4" font-family="Helvetica,sans-Serif" font-size="9.00">+ calculate()</text>
</a>
</g>
<!-- Node1&#45;&gt;Node3 -->
<g id="edge4" class="edge"><title>Node1&#45;&gt;Node3</title>
<path fill="none" stroke="midnightblue" d="M340,-142.588C340,-133.498 340,-124.32 340,-115.53"/>
<polygon fill="none" stroke="midnightblue" points="336.5,-142.787 340,-152.787 343.5,-142.787 336.5,-142.787"/>
</g>
<!-- Node4 -->
<g id="node7" class="node"><title>Node4</title>
<a xlink:href="../../d9/d47/a00129.htm" target="_top" xlink:title="Metric implementation for agents. ">
<polygon fill="none" stroke="black" points="465.5,-0.5 465.5,-115.5 680.5,-115.5 680.5,-0.5 465.5,-0.5"/>
<text text-anchor="start" x="473.5" y="-103.4" font-family="Helvetica,sans-Serif" font-size="9.00">de.tu_clausthal.in.mec.object.mas.inconsistency.</text>
<text text-anchor="middle" x="573" y="-90.4" font-family="Helvetica,sans-Serif" font-size="9.00">CWeightedDifferenceMetric&lt; T extends IAgent &gt;</text>
<polyline fill="none" stroke="black" points="465.5,-81.5 680.5,-81.5 "/>
<text text-anchor="middle" x="573" y="-69.4" font-family="Helvetica,sans-Serif" font-size="9.00"> </text>
<polyline fill="none" stroke="black" points="465.5,-60.5 680.5,-60.5 "/>
<text text-anchor="start" x="473.5" y="-48.4" font-family="Helvetica,sans-Serif" font-size="9.00">+ CWeightedDifferenceMetric()</text>
<text text-anchor="start" x="473.5" y="-35.4" font-family="Helvetica,sans-Serif" font-size="9.00">+ CWeightedDifferenceMetric()</text>
<text text-anchor="start" x="473.5" y="-22.4" font-family="Helvetica,sans-Serif" font-size="9.00">+ CWeightedDifferenceMetric()</text>
<text text-anchor="start" x="473.5" y="-9.4" font-family="Helvetica,sans-Serif" font-size="9.00">+ calculate()</text>
</a>
</g>
<!-- Node1&#45;&gt;Node4 -->
<g id="edge6" class="edge"><title>Node1&#45;&gt;Node4</title>
<path fill="none" stroke="midnightblue" d="M442.612,-146.977C458.01,-136.469 473.737,-125.737 488.695,-115.53"/>
<polygon fill="none" stroke="midnightblue" points="440.386,-144.259 434.098,-152.787 444.331,-150.041 440.386,-144.259"/>
</g>
</g>
</svg>
