<?xml version="1.0" encoding="UTF-8" standalone="no"?>
<!DOCTYPE svg PUBLIC "-//W3C//DTD SVG 1.1//EN"
 "http://www.w3.org/Graphics/SVG/1.1/DTD/svg11.dtd">
<!-- Generated by graphviz version 2.26.3 (20100126.1600)
 -->
<!-- Title: de.tu_clausthal.in.mec.CConfiguration.web_static_deletegraph Pages: 1 -->
<svg width="1000pt" height="42pt"
 viewBox="0.00 0.00 1000.00 42.00" xmlns="http://www.w3.org/2000/svg" xmlns:xlink="http://www.w3.org/1999/xlink">
<g id="graph1" class="graph" transform="scale(1 1) rotate(0) translate(4 38)">
<title>de.tu_clausthal.in.mec.CConfiguration.web_static_deletegraph</title>
<!-- Node1 -->
<g id="node1" class="node"><title>Node1</title>
<polygon fill="#bfbfbf" stroke="black" points="0,-0 0,-34 192,-34 192,-0 0,-0"/>
<text text-anchor="start" x="8" y="-21.9" font-family="Helvetica,sans-Serif" font-size="9.00">de.tu_clausthal.in.mec.CConfiguration.web</text>
<text text-anchor="middle" x="96" y="-8.9" font-family="Helvetica,sans-Serif" font-size="9.00">_static_deletegraph</text>
</g>
<!-- Node2 -->
<g id="node3" class="node"><title>Node2</title>
<a xlink:href="../../dc/dee/a00053.htm#a4d340ee2714fbae18454e04e3e8c5640" target="_top" xlink:title="deletes a graph by URL ">
<polygon fill="none" stroke="black" points="228.5,-0 228.5,-34 407.5,-34 407.5,-0 228.5,-0"/>
<text text-anchor="start" x="236.5" y="-21.9" font-family="Helvetica,sans-Serif" font-size="9.00">de.tu_clausthal.in.mec.object.car.graph.</text>
<text text-anchor="middle" x="318" y="-8.9" font-family="Helvetica,sans-Serif" font-size="9.00">CGraphHopper.deleteGraph</text>
</a>
</g>
<!-- Node1&#45;&gt;Node2 -->
<g id="edge2" class="edge"><title>Node1&#45;&gt;Node2</title>
<path fill="none" stroke="midnightblue" d="M192.081,-17C200.757,-17 209.556,-17 218.261,-17"/>
<polygon fill="midnightblue" stroke="midnightblue" points="218.425,-20.5001 228.425,-17 218.425,-13.5001 218.425,-20.5001"/>
</g>
<!-- Node3 -->
<g id="node5" class="node"><title>Node3</title>
<a xlink:href="../../dc/dee/a00053.htm#a7e7939418c529551a915e16806f3035c" target="_top" xlink:title="returns the full path of a graph location ">
<polygon fill="none" stroke="black" points="444.5,-0 444.5,-34 623.5,-34 623.5,-0 444.5,-0"/>
<text text-anchor="start" x="452.5" y="-21.9" font-family="Helvetica,sans-Serif" font-size="9.00">de.tu_clausthal.in.mec.object.car.graph.</text>
<text text-anchor="middle" x="534" y="-8.9" font-family="Helvetica,sans-Serif" font-size="9.00">CGraphHopper.getGraphLocation</text>
</a>
</g>
<!-- Node2&#45;&gt;Node3 -->
<g id="edge4" class="edge"><title>Node2&#45;&gt;Node3</title>
<path fill="none" stroke="midnightblue" d="M407.727,-17C416.391,-17 425.217,-17 433.973,-17"/>
<polygon fill="midnightblue" stroke="midnightblue" points="434.205,-20.5001 444.205,-17 434.205,-13.5001 434.205,-20.5001"/>
</g>
<!-- Node4 -->
<g id="node7" class="node"><title>Node4</title>
<a xlink:href="../../d1/dc6/a00037.htm#a5787f1e254c47dda5783aff04de599fd" target="_top" xlink:title="returns the hash of a string ">
<polygon fill="none" stroke="black" points="660,-0 660,-34 808,-34 808,-0 660,-0"/>
<text text-anchor="start" x="668" y="-21.9" font-family="Helvetica,sans-Serif" font-size="9.00">de.tu_clausthal.in.mec.common.</text>
<text text-anchor="middle" x="734" y="-8.9" font-family="Helvetica,sans-Serif" font-size="9.00">CCommon.getHash</text>
</a>
</g>
<!-- Node3&#45;&gt;Node4 -->
<g id="edge6" class="edge"><title>Node3&#45;&gt;Node4</title>
<path fill="none" stroke="midnightblue" d="M623.762,-17C632.42,-17 641.182,-17 649.783,-17"/>
<polygon fill="midnightblue" stroke="midnightblue" points="649.792,-20.5001 659.792,-17 649.792,-13.5001 649.792,-20.5001"/>
</g>
<!-- Node5 -->
<g id="node9" class="node"><title>Node5</title>
<a xlink:href="../../d1/dc6/a00037.htm#a7fac266bb9fa6b3a8d739a88a41dade8" target="_top" xlink:title="returns a string with hexadecimal bytes ">
<polygon fill="none" stroke="black" points="844,-0 844,-34 992,-34 992,-0 844,-0"/>
<text text-anchor="start" x="852" y="-21.9" font-family="Helvetica,sans-Serif" font-size="9.00">de.tu_clausthal.in.mec.common.</text>
<text text-anchor="middle" x="918" y="-8.9" font-family="Helvetica,sans-Serif" font-size="9.00">CCommon.getBytes2Hex</text>
</a>
</g>
<!-- Node4&#45;&gt;Node5 -->
<g id="edge8" class="edge"><title>Node4&#45;&gt;Node5</title>
<path fill="none" stroke="midnightblue" d="M808.044,-17C816.514,-17 825.195,-17 833.784,-17"/>
<polygon fill="midnightblue" stroke="midnightblue" points="833.808,-20.5001 843.808,-17 833.807,-13.5001 833.808,-20.5001"/>
</g>
</g>
</svg>
