<?xml version="1.0" encoding="UTF-8" standalone="no"?>
<!DOCTYPE svg PUBLIC "-//W3C//DTD SVG 1.1//EN"
 "http://www.w3.org/Graphics/SVG/1.1/DTD/svg11.dtd">
<!-- Generated by graphviz version 2.26.3 (20100126.1600)
 -->
<!-- Title: de.tu_clausthal.in.mec.CConfiguration.getInstance Pages: 1 -->
<svg width="450pt" height="446pt"
 viewBox="0.00 0.00 450.00 446.00" xmlns="http://www.w3.org/2000/svg" xmlns:xlink="http://www.w3.org/1999/xlink">
<g id="graph1" class="graph" transform="scale(1 1) rotate(0) translate(4 442)">
<title>de.tu_clausthal.in.mec.CConfiguration.getInstance</title>
<!-- Node1 -->
<g id="node1" class="node"><title>Node1</title>
<polygon fill="#bfbfbf" stroke="black" points="0,-196 0,-230 188,-230 188,-196 0,-196"/>
<text text-anchor="start" x="8" y="-217.9" font-family="Helvetica,sans-Serif" font-size="9.00">de.tu_clausthal.in.mec.CConfiguration.get</text>
<text text-anchor="middle" x="94" y="-204.9" font-family="Helvetica,sans-Serif" font-size="9.00">Instance</text>
</g>
<!-- Node2 -->
<g id="node3" class="node"><title>Node2</title>
<a xlink:href="../../dc/dee/a00053.htm#a9f50968acad02be391044bf2324747bc" target="_top" xlink:title="ctor ">
<polygon fill="none" stroke="black" points="243.5,-404 243.5,-438 422.5,-438 422.5,-404 243.5,-404"/>
<text text-anchor="start" x="251.5" y="-425.9" font-family="Helvetica,sans-Serif" font-size="9.00">de.tu_clausthal.in.mec.object.car.graph.</text>
<text text-anchor="middle" x="333" y="-412.9" font-family="Helvetica,sans-Serif" font-size="9.00">CGraphHopper.CGraphHopper</text>
</a>
</g>
<!-- Node1&#45;&gt;Node2 -->
<g id="edge2" class="edge"><title>Node1&#45;&gt;Node2</title>
<path fill="none" stroke="midnightblue" d="M105.328,-239.333C123.985,-279.44 165.074,-355.345 224,-395 229.972,-399.019 236.494,-402.419 243.284,-405.296"/>
<polygon fill="midnightblue" stroke="midnightblue" points="108.494,-237.841 101.173,-230.183 102.121,-240.736 108.494,-237.841"/>
</g>
<!-- Node3 -->
<g id="node5" class="node"><title>Node3</title>
<a xlink:href="../../dd/de3/a00201.htm#ac9a7db13733de23bb0d1f9a48db18647" target="_top" xlink:title="checks all languages ">
<polygon fill="none" stroke="black" points="224,-352 224,-386 442,-386 442,-352 224,-352"/>
<text text-anchor="start" x="232" y="-373.9" font-family="Helvetica,sans-Serif" font-size="9.00">de.tu_clausthal.in.mec.Test</text>
<text text-anchor="middle" x="333" y="-360.9" font-family="Helvetica,sans-Serif" font-size="9.00">_CLanguageLabels.MyMethodVisitor.checkLabel</text>
</a>
</g>
<!-- Node1&#45;&gt;Node3 -->
<g id="edge4" class="edge"><title>Node1&#45;&gt;Node3</title>
<path fill="none" stroke="midnightblue" d="M112.407,-238.565C135.201,-268.289 176.837,-316.632 224,-343 230.113,-346.418 236.662,-349.388 243.404,-351.97"/>
<polygon fill="midnightblue" stroke="midnightblue" points="115.031,-236.231 106.221,-230.346 109.438,-240.44 115.031,-236.231"/>
</g>
<!-- Node4 -->
<g id="node7" class="node"><title>Node4</title>
<a xlink:href="../../d1/dc1/a00092.htm#ad0263dfd01e36d477dcc8531612fca78" target="_top" xlink:title="ctor with loading configuration defaults and listener definition ">
<polygon fill="none" stroke="black" points="268,-300 268,-334 398,-334 398,-300 268,-300"/>
<text text-anchor="start" x="276" y="-321.9" font-family="Helvetica,sans-Serif" font-size="9.00">de.tu_clausthal.in.mec.ui.</text>
<text text-anchor="middle" x="333" y="-308.9" font-family="Helvetica,sans-Serif" font-size="9.00">COSMViewer.COSMViewer</text>
</a>
</g>
<!-- Node1&#45;&gt;Node4 -->
<g id="edge6" class="edge"><title>Node1&#45;&gt;Node4</title>
<path fill="none" stroke="midnightblue" d="M126.241,-236.177C151.693,-253.504 188.683,-276.595 224,-291 237.871,-296.658 253.258,-301.264 267.996,-304.94"/>
<polygon fill="midnightblue" stroke="midnightblue" points="127.96,-233.111 117.741,-230.313 123.985,-238.873 127.96,-233.111"/>
</g>
<!-- Node5 -->
<g id="node9" class="node"><title>Node5</title>
<a xlink:href="../../d5/deb/a00132.htm#acf2a92c8058690f5013698f6d40023cc" target="_top" xlink:title="ctor &#45; adds the browser * ">
<polygon fill="none" stroke="black" points="263,-248 263,-282 403,-282 403,-248 263,-248"/>
<text text-anchor="start" x="271" y="-269.9" font-family="Helvetica,sans-Serif" font-size="9.00">de.tu_clausthal.in.mec.ui.web.</text>
<text text-anchor="middle" x="333" y="-256.9" font-family="Helvetica,sans-Serif" font-size="9.00">CWorkspace.CWorkspace</text>
</a>
</g>
<!-- Node1&#45;&gt;Node5 -->
<g id="edge8" class="edge"><title>Node1&#45;&gt;Node5</title>
<path fill="none" stroke="midnightblue" d="M182.29,-232.21C208.779,-237.973 237.467,-244.215 262.635,-249.69"/>
<polygon fill="midnightblue" stroke="midnightblue" points="182.773,-228.733 172.258,-230.027 181.285,-235.573 182.773,-228.733"/>
</g>
<!-- Node6 -->
<g id="node11" class="node"><title>Node6</title>
<a xlink:href="../../d6/d7d/a00161.htm#a9e4c44d187ecdde953437adbbdf77e0e" target="_top" xlink:title="gets a list of all agents file names ">
<polygon fill="none" stroke="black" points="242,-196 242,-230 424,-230 424,-196 242,-196"/>
<text text-anchor="start" x="250" y="-217.9" font-family="Helvetica,sans-Serif" font-size="9.00">de.tu_clausthal.in.mec.object.mas.jason.</text>
<text text-anchor="middle" x="333" y="-204.9" font-family="Helvetica,sans-Serif" font-size="9.00">IEnvironment&lt; T &gt;.getAgentFiles</text>
</a>
</g>
<!-- Node1&#45;&gt;Node6 -->
<g id="edge10" class="edge"><title>Node1&#45;&gt;Node6</title>
<path fill="none" stroke="midnightblue" d="M198.525,-213C212.909,-213 227.586,-213 241.706,-213"/>
<polygon fill="midnightblue" stroke="midnightblue" points="198.116,-209.5 188.116,-213 198.116,-216.5 198.116,-209.5"/>
</g>
<!-- Node7 -->
<g id="node13" class="node"><title>Node7</title>
<a xlink:href="../../d1/d6e/a00073.htm#a8f544d89e61fc8af0db569c60401028d" target="_top" xlink:title="main program ">
<polygon fill="none" stroke="black" points="253,-156.5 253,-177.5 413,-177.5 413,-156.5 253,-156.5"/>
<text text-anchor="middle" x="333" y="-165.4" font-family="Helvetica,sans-Serif" font-size="9.00">de.tu_clausthal.in.mec.CMain.main</text>
</a>
</g>
<!-- Node1&#45;&gt;Node7 -->
<g id="edge12" class="edge"><title>Node1&#45;&gt;Node7</title>
<path fill="none" stroke="midnightblue" d="M188.279,-193.961C200.296,-191.588 212.433,-189.218 224,-187 240.439,-183.848 258.293,-180.529 274.703,-177.52"/>
<polygon fill="midnightblue" stroke="midnightblue" points="187.357,-190.575 178.228,-195.951 188.717,-197.442 187.357,-190.575"/>
</g>
<!-- Node8 -->
<g id="node15" class="node"><title>Node8</title>
<a xlink:href="../../d7/de0/a00022.htm#a2b85579e5991479dc2ce8def15ac0bf9" target="_top" xlink:title="is called on application closed ">
<polygon fill="none" stroke="black" points="248.5,-104 248.5,-138 417.5,-138 417.5,-104 248.5,-104"/>
<text text-anchor="start" x="256.5" y="-125.9" font-family="Helvetica,sans-Serif" font-size="9.00">de.tu_clausthal.in.mec.CBootstrap.on</text>
<text text-anchor="middle" x="333" y="-112.9" font-family="Helvetica,sans-Serif" font-size="9.00">ApplicationClose</text>
</a>
</g>
<!-- Node1&#45;&gt;Node8 -->
<g id="edge14" class="edge"><title>Node1&#45;&gt;Node8</title>
<path fill="none" stroke="midnightblue" d="M131.715,-190.856C157.108,-176.705 191.729,-158.852 224,-147 232.948,-143.714 242.464,-140.733 252.003,-138.061"/>
<polygon fill="midnightblue" stroke="midnightblue" points="129.789,-187.924 122.798,-195.884 133.228,-194.021 129.789,-187.924"/>
</g>
<!-- Node9 -->
<g id="node17" class="node"><title>Node9</title>
<a xlink:href="../../db/df8/a00076.htm#a48077732f94b937a91b147e3c1feb676" target="_top" xlink:title="de.tu_clausthal.in.mec.ui.web.\lCMarkdownRenderer.render">
<polygon fill="none" stroke="black" points="263,-52 263,-86 403,-86 403,-52 263,-52"/>
<text text-anchor="start" x="271" y="-73.9" font-family="Helvetica,sans-Serif" font-size="9.00">de.tu_clausthal.in.mec.ui.web.</text>
<text text-anchor="middle" x="333" y="-60.9" font-family="Helvetica,sans-Serif" font-size="9.00">CMarkdownRenderer.render</text>
</a>
</g>
<!-- Node1&#45;&gt;Node9 -->
<g id="edge16" class="edge"><title>Node1&#45;&gt;Node9</title>
<path fill="none" stroke="midnightblue" d="M114.768,-187.737C138.405,-160.676 179.538,-118.465 224,-95 235.958,-88.6892 249.457,-83.8887 262.778,-80.2436"/>
<polygon fill="midnightblue" stroke="midnightblue" points="111.866,-185.744 108.009,-195.611 117.178,-190.303 111.866,-185.744"/>
</g>
<!-- Node10 -->
<g id="node19" class="node"><title>Node10</title>
<a xlink:href="../../d1/d72/a00204.htm#ae2d00edc6459777e13dce3a642cd0aad" target="_top" xlink:title="test&#45;case all resource strings ">
<polygon fill="none" stroke="black" points="243.5,-0 243.5,-34 422.5,-34 422.5,-0 243.5,-0"/>
<text text-anchor="start" x="251.5" y="-21.9" font-family="Helvetica,sans-Serif" font-size="9.00">de.tu_clausthal.in.mec.Test</text>
<text text-anchor="middle" x="333" y="-8.9" font-family="Helvetica,sans-Serif" font-size="9.00">_CLanguageLabels.testResourceString</text>
</a>
</g>
<!-- Node1&#45;&gt;Node10 -->
<g id="edge18" class="edge"><title>Node1&#45;&gt;Node10</title>
<path fill="none" stroke="midnightblue" d="M106.766,-186.53C126.465,-148.615 167.939,-79.4138 224,-43 230.037,-39.079 236.605,-35.7483 243.426,-32.9192"/>
<polygon fill="midnightblue" stroke="midnightblue" points="103.416,-185.398 102.012,-195.899 109.658,-188.566 103.416,-185.398"/>
</g>
</g>
</svg>
