<?xml version="1.0" encoding="UTF-8" standalone="no"?>
<!DOCTYPE svg PUBLIC "-//W3C//DTD SVG 1.1//EN"
 "http://www.w3.org/Graphics/SVG/1.1/DTD/svg11.dtd">
<!-- Generated by graphviz version 2.26.3 (20100126.1600)
 -->
<!-- Title: de.tu_clausthal.in.mec.object.analysis.CEvaluationStore.CCollectorInconsistency Pages: 1 -->
<svg width="198pt" height="454pt"
 viewBox="0.00 0.00 198.00 454.00" xmlns="http://www.w3.org/2000/svg" xmlns:xlink="http://www.w3.org/1999/xlink">
<g id="graph1" class="graph" transform="scale(1 1) rotate(0) translate(4 450)">
<title>de.tu_clausthal.in.mec.object.analysis.CEvaluationStore.CCollectorInconsistency</title>
<!-- Node1 -->
<g id="node1" class="node"><title>Node1</title>
<polygon fill="#bfbfbf" stroke="black" points="0,-1 0,-103 190,-103 190,-1 0,-1"/>
<text text-anchor="start" x="8" y="-90.9" font-family="Helvetica,sans-Serif" font-size="9.00">de.tu_clausthal.in.mec.object.analysis.</text>
<text text-anchor="middle" x="95" y="-77.9" font-family="Helvetica,sans-Serif" font-size="9.00">CEvaluationStore.CCollectorInconsistency</text>
<polyline fill="none" stroke="black" points="0,-69 190,-69 "/>
<text text-anchor="start" x="8" y="-56.9" font-family="Helvetica,sans-Serif" font-size="9.00">&#45; m_access</text>
<text text-anchor="start" x="8" y="-43.9" font-family="Helvetica,sans-Serif" font-size="9.00">&#45; m_statement</text>
<polyline fill="none" stroke="black" points="0,-35 190,-35 "/>
<text text-anchor="start" x="8" y="-22.9" font-family="Helvetica,sans-Serif" font-size="9.00">+ CCollectorInconsistency()</text>
<text text-anchor="start" x="8" y="-9.9" font-family="Helvetica,sans-Serif" font-size="9.00">+ step()</text>
</g>
<!-- Node2 -->
<g id="node2" class="node"><title>Node2</title>
<a xlink:href="../../d6/db3/a00130.htm" target="_top" xlink:title="worker class to push data to the database * ">
<polygon fill="none" stroke="black" points="8.5,-141 8.5,-217 181.5,-217 181.5,-141 8.5,-141"/>
<text text-anchor="start" x="16.5" y="-204.9" font-family="Helvetica,sans-Serif" font-size="9.00">de.tu_clausthal.in.mec.object.analysis.</text>
<text text-anchor="middle" x="95" y="-191.9" font-family="Helvetica,sans-Serif" font-size="9.00">IDatabase.CWorker</text>
<polyline fill="none" stroke="black" points="8.5,-183 181.5,-183 "/>
<text text-anchor="middle" x="95" y="-170.9" font-family="Helvetica,sans-Serif" font-size="9.00"> </text>
<polyline fill="none" stroke="black" points="8.5,-162 181.5,-162 "/>
<text text-anchor="start" x="16.5" y="-149.9" font-family="Helvetica,sans-Serif" font-size="9.00">+ release()</text>
</a>
</g>
<!-- Node2&#45;&gt;Node1 -->
<g id="edge2" class="edge"><title>Node2&#45;&gt;Node1</title>
<path fill="none" stroke="midnightblue" d="M95,-130.621C95,-121.662 95,-112.276 95,-103.235"/>
<polygon fill="none" stroke="midnightblue" points="91.5001,-130.896 95,-140.896 98.5001,-130.896 91.5001,-130.896"/>
</g>
<!-- Node3 -->
<g id="node4" class="node"><title>Node3</title>
<a xlink:href="../../de/db1/a00197.htm" target="_top" xlink:title="interface of void&#45;step method ">
<polygon fill="none" stroke="black" points="23.5,-255 23.5,-331 166.5,-331 166.5,-255 23.5,-255"/>
<text text-anchor="start" x="31.5" y="-318.9" font-family="Helvetica,sans-Serif" font-size="9.00">de.tu_clausthal.in.mec.runtime.</text>
<text text-anchor="middle" x="95" y="-305.9" font-family="Helvetica,sans-Serif" font-size="9.00">IVoidSteppable</text>
<polyline fill="none" stroke="black" points="23.5,-297 166.5,-297 "/>
<text text-anchor="middle" x="95" y="-284.9" font-family="Helvetica,sans-Serif" font-size="9.00"> </text>
<polyline fill="none" stroke="black" points="23.5,-276 166.5,-276 "/>
<text text-anchor="start" x="31.5" y="-263.9" font-family="Helvetica,sans-Serif" font-size="9.00">+ step()</text>
</a>
</g>
<!-- Node3&#45;&gt;Node2 -->
<g id="edge4" class="edge"><title>Node3&#45;&gt;Node2</title>
<path fill="none" stroke="midnightblue" d="M95,-244.623C95,-235.52 95,-226.117 95,-217.371"/>
<polygon fill="none" stroke="midnightblue" points="91.5001,-244.722 95,-254.723 98.5001,-244.723 91.5001,-244.722"/>
</g>
<!-- Node4 -->
<g id="node6" class="node"><title>Node4</title>
<a xlink:href="../../da/d15/a00188.htm" target="_top" xlink:title="interface for all objects which are triggered by the simulation worker ">
<polygon fill="none" stroke="black" points="23.5,-369 23.5,-445 166.5,-445 166.5,-369 23.5,-369"/>
<text text-anchor="start" x="31.5" y="-432.9" font-family="Helvetica,sans-Serif" font-size="9.00">de.tu_clausthal.in.mec.runtime.</text>
<text text-anchor="middle" x="95" y="-419.9" font-family="Helvetica,sans-Serif" font-size="9.00">ISteppable</text>
<polyline fill="none" stroke="black" points="23.5,-411 166.5,-411 "/>
<text text-anchor="middle" x="95" y="-398.9" font-family="Helvetica,sans-Serif" font-size="9.00"> </text>
<polyline fill="none" stroke="black" points="23.5,-390 166.5,-390 "/>
<text text-anchor="start" x="31.5" y="-377.9" font-family="Helvetica,sans-Serif" font-size="9.00">+ release()</text>
</a>
</g>
<!-- Node4&#45;&gt;Node3 -->
<g id="edge6" class="edge"><title>Node4&#45;&gt;Node3</title>
<path fill="none" stroke="midnightblue" d="M95,-358.623C95,-349.52 95,-340.117 95,-331.371"/>
<polygon fill="none" stroke="midnightblue" points="91.5001,-358.722 95,-368.723 98.5001,-358.723 91.5001,-358.722"/>
</g>
</g>
</svg>
