<?xml version="1.0" encoding="UTF-8" standalone="no"?>
<!DOCTYPE svg PUBLIC "-//W3C//DTD SVG 1.1//EN"
 "http://www.w3.org/Graphics/SVG/1.1/DTD/svg11.dtd">
<!-- Generated by graphviz version 2.26.3 (20100126.1600)
 -->
<!-- Title: de.tu_clausthal.in.mec.object.mas.generic.implementation.CBeliefStorage&lt; N, M &gt; Pages: 1 -->
<svg width="806pt" height="802pt"
 viewBox="0.00 0.00 806.00 802.00" xmlns="http://www.w3.org/2000/svg" xmlns:xlink="http://www.w3.org/1999/xlink">
<g id="graph1" class="graph" transform="scale(1 1) rotate(0) translate(4 798)">
<title>de.tu_clausthal.in.mec.object.mas.generic.implementation.CBeliefStorage&lt; N, M &gt;</title>
<!-- Node1 -->
<g id="node1" class="node"><title>Node1</title>
<polygon fill="#bfbfbf" stroke="black" points="271.5,-470.5 271.5,-793.5 526.5,-793.5 526.5,-470.5 271.5,-470.5"/>
<text text-anchor="start" x="279.5" y="-781.4" font-family="Helvetica,sans-Serif" font-size="9.00">de.tu_clausthal.in.mec.object.mas.generic.implementation.</text>
<text text-anchor="middle" x="399" y="-768.4" font-family="Helvetica,sans-Serif" font-size="9.00">CBeliefStorage&lt; N, M &gt;</text>
<polyline fill="none" stroke="black" points="271.5,-759.5 526.5,-759.5 "/>
<text text-anchor="start" x="279.5" y="-747.4" font-family="Helvetica,sans-Serif" font-size="9.00"># m_multielements</text>
<text text-anchor="start" x="279.5" y="-734.4" font-family="Helvetica,sans-Serif" font-size="9.00"># m_singleelements</text>
<polyline fill="none" stroke="black" points="271.5,-725.5 526.5,-725.5 "/>
<text text-anchor="start" x="279.5" y="-713.4" font-family="Helvetica,sans-Serif" font-size="9.00">+ addMultiElement()</text>
<text text-anchor="start" x="279.5" y="-700.4" font-family="Helvetica,sans-Serif" font-size="9.00">+ addSingleElement()</text>
<text text-anchor="start" x="279.5" y="-687.4" font-family="Helvetica,sans-Serif" font-size="9.00">+ clear()</text>
<text text-anchor="start" x="279.5" y="-674.4" font-family="Helvetica,sans-Serif" font-size="9.00">+ contains()</text>
<text text-anchor="start" x="279.5" y="-661.4" font-family="Helvetica,sans-Serif" font-size="9.00">+ containsMultiElement()</text>
<text text-anchor="start" x="279.5" y="-648.4" font-family="Helvetica,sans-Serif" font-size="9.00">+ containsSingleElement()</text>
<text text-anchor="start" x="279.5" y="-635.4" font-family="Helvetica,sans-Serif" font-size="9.00">+ getMultiElement()</text>
<text text-anchor="start" x="279.5" y="-622.4" font-family="Helvetica,sans-Serif" font-size="9.00">+ getSingleElement()</text>
<text text-anchor="start" x="279.5" y="-609.4" font-family="Helvetica,sans-Serif" font-size="9.00">+ isEmpty()</text>
<text text-anchor="start" x="279.5" y="-596.4" font-family="Helvetica,sans-Serif" font-size="9.00">+ iteratorMultiElement()</text>
<text text-anchor="start" x="279.5" y="-583.4" font-family="Helvetica,sans-Serif" font-size="9.00">+ iteratorSingleElement()</text>
<text text-anchor="start" x="279.5" y="-570.4" font-family="Helvetica,sans-Serif" font-size="9.00">+ remove()</text>
<text text-anchor="start" x="279.5" y="-557.4" font-family="Helvetica,sans-Serif" font-size="9.00">+ removeMultiElement()</text>
<text text-anchor="start" x="279.5" y="-544.4" font-family="Helvetica,sans-Serif" font-size="9.00">+ removeSingleElement()</text>
<text text-anchor="start" x="279.5" y="-531.4" font-family="Helvetica,sans-Serif" font-size="9.00">+ size()</text>
<text text-anchor="start" x="279.5" y="-518.4" font-family="Helvetica,sans-Serif" font-size="9.00">+ sizeMultiElement()</text>
<text text-anchor="start" x="279.5" y="-505.4" font-family="Helvetica,sans-Serif" font-size="9.00">+ sizeSingleElement()</text>
<text text-anchor="start" x="279.5" y="-492.4" font-family="Helvetica,sans-Serif" font-size="9.00">+ toString()</text>
<text text-anchor="start" x="279.5" y="-479.4" font-family="Helvetica,sans-Serif" font-size="9.00">+ update()</text>
</g>
<!-- Node2 -->
<g id="node3" class="node"><title>Node2</title>
<a xlink:href="../../dd/d1b/a00015.htm" target="_top" xlink:title="storage of a beliefbase for storing masks only ">
<polygon fill="none" stroke="black" points="-0.5,-318.5 -0.5,-407.5 254.5,-407.5 254.5,-318.5 -0.5,-318.5"/>
<text text-anchor="start" x="7.5" y="-395.4" font-family="Helvetica,sans-Serif" font-size="9.00">de.tu_clausthal.in.mec.object.mas.generic.implementation.</text>
<text text-anchor="middle" x="127" y="-382.4" font-family="Helvetica,sans-Serif" font-size="9.00">CBeliefMaskStorage&lt; N, M &gt;</text>
<polyline fill="none" stroke="black" points="-0.5,-373.5 254.5,-373.5 "/>
<text text-anchor="middle" x="127" y="-361.4" font-family="Helvetica,sans-Serif" font-size="9.00"> </text>
<polyline fill="none" stroke="black" points="-0.5,-352.5 254.5,-352.5 "/>
<text text-anchor="start" x="7.5" y="-340.4" font-family="Helvetica,sans-Serif" font-size="9.00">+ addMultiElement()</text>
<text text-anchor="start" x="7.5" y="-327.4" font-family="Helvetica,sans-Serif" font-size="9.00">+ removeMultiElement()</text>
</a>
</g>
<!-- Node1&#45;&gt;Node2 -->
<g id="edge2" class="edge"><title>Node1&#45;&gt;Node2</title>
<path fill="none" stroke="midnightblue" d="M263.843,-498.334C230.68,-465.537 197.451,-432.674 172.043,-407.546"/>
<polygon fill="none" stroke="midnightblue" points="261.791,-501.227 271.362,-505.77 266.713,-496.25 261.791,-501.227"/>
</g>
<!-- Node3 -->
<g id="node5" class="node"><title>Node3</title>
<a xlink:href="../../d1/d2b/a00018.htm" target="_top" xlink:title="thread&#45;safe storage e.g. ">
<polygon fill="none" stroke="black" points="271.5,-312 271.5,-414 526.5,-414 526.5,-312 271.5,-312"/>
<text text-anchor="start" x="279.5" y="-401.9" font-family="Helvetica,sans-Serif" font-size="9.00">de.tu_clausthal.in.mec.object.mas.generic.implementation.</text>
<text text-anchor="start" x="279.5" y="-388.9" font-family="Helvetica,sans-Serif" font-size="9.00">CBeliefSynchronizedStorage&lt; N, M extends</text>
<text text-anchor="middle" x="399" y="-375.9" font-family="Helvetica,sans-Serif" font-size="9.00"> Iterable&lt; N &gt; &gt;</text>
<polyline fill="none" stroke="black" points="271.5,-367 526.5,-367 "/>
<text text-anchor="start" x="279.5" y="-354.9" font-family="Helvetica,sans-Serif" font-size="9.00"># m_elements</text>
<text text-anchor="start" x="279.5" y="-341.9" font-family="Helvetica,sans-Serif" font-size="9.00"># m_masks</text>
<polyline fill="none" stroke="black" points="271.5,-333 526.5,-333 "/>
<text text-anchor="middle" x="399" y="-320.9" font-family="Helvetica,sans-Serif" font-size="9.00"> </text>
</a>
</g>
<!-- Node1&#45;&gt;Node3 -->
<g id="edge4" class="edge"><title>Node1&#45;&gt;Node3</title>
<path fill="none" stroke="midnightblue" d="M399,-460.09C399,-443.565 399,-427.857 399,-414.08"/>
<polygon fill="none" stroke="midnightblue" points="395.5,-460.476 399,-470.476 402.5,-460.476 395.5,-460.476"/>
</g>
<!-- Node4 -->
<g id="node7" class="node"><title>Node4</title>
<a xlink:href="../../d9/d2e/a00056.htm" target="_top" xlink:title="immutable belief storage ">
<polygon fill="none" stroke="black" points="543.5,-292.5 543.5,-433.5 798.5,-433.5 798.5,-292.5 543.5,-292.5"/>
<text text-anchor="start" x="551.5" y="-421.4" font-family="Helvetica,sans-Serif" font-size="9.00">de.tu_clausthal.in.mec.object.mas.generic.implementation.</text>
<text text-anchor="middle" x="671" y="-408.4" font-family="Helvetica,sans-Serif" font-size="9.00">CImmutableBeliefStorage&lt; N, M &gt;</text>
<polyline fill="none" stroke="black" points="543.5,-399.5 798.5,-399.5 "/>
<text text-anchor="middle" x="671" y="-387.4" font-family="Helvetica,sans-Serif" font-size="9.00"> </text>
<polyline fill="none" stroke="black" points="543.5,-378.5 798.5,-378.5 "/>
<text text-anchor="start" x="551.5" y="-366.4" font-family="Helvetica,sans-Serif" font-size="9.00">+ addMultiElement()</text>
<text text-anchor="start" x="551.5" y="-353.4" font-family="Helvetica,sans-Serif" font-size="9.00">+ addSingleElement()</text>
<text text-anchor="start" x="551.5" y="-340.4" font-family="Helvetica,sans-Serif" font-size="9.00">+ clear()</text>
<text text-anchor="start" x="551.5" y="-327.4" font-family="Helvetica,sans-Serif" font-size="9.00">+ remove()</text>
<text text-anchor="start" x="551.5" y="-314.4" font-family="Helvetica,sans-Serif" font-size="9.00">+ removeMultiElement()</text>
<text text-anchor="start" x="551.5" y="-301.4" font-family="Helvetica,sans-Serif" font-size="9.00">+ removeSingleElement()</text>
</a>
</g>
<!-- Node1&#45;&gt;Node4 -->
<g id="edge6" class="edge"><title>Node1&#45;&gt;Node4</title>
<path fill="none" stroke="midnightblue" d="M534.005,-498.484C556.71,-476.029 579.453,-453.538 599.7,-433.513"/>
<polygon fill="none" stroke="midnightblue" points="531.287,-496.25 526.638,-505.77 536.209,-501.227 531.287,-496.25"/>
</g>
<!-- Node5 -->
<g id="node9" class="node"><title>Node5</title>
<a xlink:href="../../d5/de9/a00176.htm" target="_top" xlink:title="class to update an immutable belief storage ">
<polygon fill="none" stroke="black" points="543.5,-166.5 543.5,-255.5 798.5,-255.5 798.5,-166.5 543.5,-166.5"/>
<text text-anchor="start" x="551.5" y="-243.4" font-family="Helvetica,sans-Serif" font-size="9.00">de.tu_clausthal.in.mec.object.mas.generic.implementation.</text>
<text text-anchor="middle" x="671" y="-230.4" font-family="Helvetica,sans-Serif" font-size="9.00">IOneTimeStorage&lt; N, M &gt;</text>
<polyline fill="none" stroke="black" points="543.5,-221.5 798.5,-221.5 "/>
<text text-anchor="middle" x="671" y="-209.4" font-family="Helvetica,sans-Serif" font-size="9.00"> </text>
<polyline fill="none" stroke="black" points="543.5,-200.5 798.5,-200.5 "/>
<text text-anchor="start" x="551.5" y="-188.4" font-family="Helvetica,sans-Serif" font-size="9.00">+ update()</text>
<text text-anchor="start" x="551.5" y="-175.4" font-family="Helvetica,sans-Serif" font-size="9.00"># updating()</text>
</a>
</g>
<!-- Node4&#45;&gt;Node5 -->
<g id="edge8" class="edge"><title>Node4&#45;&gt;Node5</title>
<path fill="none" stroke="midnightblue" d="M671,-282.149C671,-273.133 671,-264.208 671,-255.885"/>
<polygon fill="none" stroke="midnightblue" points="667.5,-282.34 671,-292.34 674.5,-282.34 667.5,-282.34"/>
</g>
<!-- Node6 -->
<g id="node11" class="node"><title>Node6</title>
<a xlink:href="../../da/d01/a00153.htm" target="_top" xlink:title="binding belief storage ">
<polygon fill="none" stroke="black" points="543.5,-1 543.5,-129 798.5,-129 798.5,-1 543.5,-1"/>
<text text-anchor="start" x="551.5" y="-116.9" font-family="Helvetica,sans-Serif" font-size="9.00">de.tu_clausthal.in.mec.object.mas.generic.implementation.</text>
<text text-anchor="middle" x="671" y="-103.9" font-family="Helvetica,sans-Serif" font-size="9.00">IBindStorage&lt; N, M &gt;</text>
<polyline fill="none" stroke="black" points="543.5,-95 798.5,-95 "/>
<text text-anchor="start" x="551.5" y="-82.9" font-family="Helvetica,sans-Serif" font-size="9.00"># m_bind</text>
<text text-anchor="start" x="551.5" y="-69.9" font-family="Helvetica,sans-Serif" font-size="9.00"># c_filter</text>
<polyline fill="none" stroke="black" points="543.5,-61 798.5,-61 "/>
<text text-anchor="start" x="551.5" y="-48.9" font-family="Helvetica,sans-Serif" font-size="9.00">+ IBindStorage()</text>
<text text-anchor="start" x="551.5" y="-35.9" font-family="Helvetica,sans-Serif" font-size="9.00">+ IBindStorage()</text>
<text text-anchor="start" x="551.5" y="-22.9" font-family="Helvetica,sans-Serif" font-size="9.00">+ push()</text>
<text text-anchor="start" x="551.5" y="-9.9" font-family="Helvetica,sans-Serif" font-size="9.00">+ removeBinding()</text>
</a>
</g>
<!-- Node5&#45;&gt;Node6 -->
<g id="edge10" class="edge"><title>Node5&#45;&gt;Node6</title>
<path fill="none" stroke="midnightblue" d="M671,-156.254C671,-147.432 671,-138.231 671,-129.21"/>
<polygon fill="none" stroke="midnightblue" points="667.5,-156.402 671,-166.402 674.5,-156.402 667.5,-156.402"/>
</g>
</g>
</svg>
