<?xml version="1.0" encoding="UTF-8" standalone="no"?>
<!DOCTYPE svg PUBLIC "-//W3C//DTD SVG 1.1//EN"
 "http://www.w3.org/Graphics/SVG/1.1/DTD/svg11.dtd">
<!-- Generated by graphviz version 2.26.3 (20100126.1600)
 -->
<!-- Title: de.tu_clausthal.in.mec.object.analysis.IDatabase.CWorker Pages: 1 -->
<svg width="820pt" height="454pt"
 viewBox="0.00 0.00 820.00 454.00" xmlns="http://www.w3.org/2000/svg" xmlns:xlink="http://www.w3.org/1999/xlink">
<g id="graph1" class="graph" transform="scale(1 1) rotate(0) translate(4 450)">
<title>de.tu_clausthal.in.mec.object.analysis.IDatabase.CWorker</title>
<!-- Node1 -->
<g id="node1" class="node"><title>Node1</title>
<polygon fill="#bfbfbf" stroke="black" points="297.5,-141 297.5,-217 470.5,-217 470.5,-141 297.5,-141"/>
<text text-anchor="start" x="305.5" y="-204.9" font-family="Helvetica,sans-Serif" font-size="9.00">de.tu_clausthal.in.mec.object.analysis.</text>
<text text-anchor="middle" x="384" y="-191.9" font-family="Helvetica,sans-Serif" font-size="9.00">IDatabase.CWorker</text>
<polyline fill="none" stroke="black" points="297.5,-183 470.5,-183 "/>
<text text-anchor="middle" x="384" y="-170.9" font-family="Helvetica,sans-Serif" font-size="9.00"> </text>
<polyline fill="none" stroke="black" points="297.5,-162 470.5,-162 "/>
<text text-anchor="start" x="305.5" y="-149.9" font-family="Helvetica,sans-Serif" font-size="9.00">+ release()</text>
</g>
<!-- Node4 -->
<g id="node7" class="node"><title>Node4</title>
<a xlink:href="../../d0/dc0/a00033.htm" target="_top" xlink:title="worker to get beliefs of the agents ">
<polygon fill="none" stroke="black" points="-0.5,-7.5 -0.5,-96.5 172.5,-96.5 172.5,-7.5 -0.5,-7.5"/>
<text text-anchor="start" x="7.5" y="-84.4" font-family="Helvetica,sans-Serif" font-size="9.00">de.tu_clausthal.in.mec.object.analysis.</text>
<text text-anchor="middle" x="86" y="-71.4" font-family="Helvetica,sans-Serif" font-size="9.00">CEvaluationStore.CCollectorAgent</text>
<polyline fill="none" stroke="black" points="-0.5,-62.5 172.5,-62.5 "/>
<text text-anchor="start" x="7.5" y="-50.4" font-family="Helvetica,sans-Serif" font-size="9.00">&#45; m_statement</text>
<polyline fill="none" stroke="black" points="-0.5,-41.5 172.5,-41.5 "/>
<text text-anchor="start" x="7.5" y="-29.4" font-family="Helvetica,sans-Serif" font-size="9.00">+ CCollectorAgent()</text>
<text text-anchor="start" x="7.5" y="-16.4" font-family="Helvetica,sans-Serif" font-size="9.00">+ step()</text>
</a>
</g>
<!-- Node1&#45;&gt;Node4 -->
<g id="edge6" class="edge"><title>Node1&#45;&gt;Node4</title>
<path fill="none" stroke="midnightblue" d="M287.909,-146.773C253.716,-134.45 215.223,-119.586 181,-104 175.867,-101.662 170.632,-99.1581 165.39,-96.5589"/>
<polygon fill="none" stroke="midnightblue" points="286.838,-150.106 297.432,-150.179 289.196,-143.515 286.838,-150.106"/>
</g>
<!-- Node5 -->
<g id="node9" class="node"><title>Node5</title>
<a xlink:href="../../db/df3/a00034.htm" target="_top" xlink:title="worker to get beliefs of the agents ">
<polygon fill="none" stroke="black" points="189.5,-7.5 189.5,-96.5 362.5,-96.5 362.5,-7.5 189.5,-7.5"/>
<text text-anchor="start" x="197.5" y="-84.4" font-family="Helvetica,sans-Serif" font-size="9.00">de.tu_clausthal.in.mec.object.analysis.</text>
<text text-anchor="middle" x="276" y="-71.4" font-family="Helvetica,sans-Serif" font-size="9.00">CEvaluationStore.CCollectorBelief</text>
<polyline fill="none" stroke="black" points="189.5,-62.5 362.5,-62.5 "/>
<text text-anchor="start" x="197.5" y="-50.4" font-family="Helvetica,sans-Serif" font-size="9.00">&#45; m_statement</text>
<polyline fill="none" stroke="black" points="189.5,-41.5 362.5,-41.5 "/>
<text text-anchor="start" x="197.5" y="-29.4" font-family="Helvetica,sans-Serif" font-size="9.00">+ CCollectorBelief()</text>
<text text-anchor="start" x="197.5" y="-16.4" font-family="Helvetica,sans-Serif" font-size="9.00">+ step()</text>
</a>
</g>
<!-- Node1&#45;&gt;Node5 -->
<g id="edge8" class="edge"><title>Node1&#45;&gt;Node5</title>
<path fill="none" stroke="midnightblue" d="M345.089,-133.244C334.995,-121.374 324.135,-108.604 314.084,-96.7838"/>
<polygon fill="none" stroke="midnightblue" points="342.452,-135.545 351.596,-140.896 347.784,-131.01 342.452,-135.545"/>
</g>
<!-- Node6 -->
<g id="node11" class="node"><title>Node6</title>
<a xlink:href="../../d4/d8c/a00035.htm" target="_top" xlink:title="worker to get data for fundamental diagram ">
<polygon fill="none" stroke="black" points="380,-7.5 380,-96.5 604,-96.5 604,-7.5 380,-7.5"/>
<text text-anchor="start" x="388" y="-84.4" font-family="Helvetica,sans-Serif" font-size="9.00">de.tu_clausthal.in.mec.object.analysis.</text>
<text text-anchor="middle" x="492" y="-71.4" font-family="Helvetica,sans-Serif" font-size="9.00">CEvaluationStore.CCollectorFundamentalDiagram</text>
<polyline fill="none" stroke="black" points="380,-62.5 604,-62.5 "/>
<text text-anchor="start" x="388" y="-50.4" font-family="Helvetica,sans-Serif" font-size="9.00">&#45; m_statement</text>
<polyline fill="none" stroke="black" points="380,-41.5 604,-41.5 "/>
<text text-anchor="start" x="388" y="-29.4" font-family="Helvetica,sans-Serif" font-size="9.00">+ CCollectorFundamentalDiagram()</text>
<text text-anchor="start" x="388" y="-16.4" font-family="Helvetica,sans-Serif" font-size="9.00">+ step()</text>
</a>
</g>
<!-- Node1&#45;&gt;Node6 -->
<g id="edge10" class="edge"><title>Node1&#45;&gt;Node6</title>
<path fill="none" stroke="midnightblue" d="M422.911,-133.244C433.005,-121.374 443.865,-108.604 453.916,-96.7838"/>
<polygon fill="none" stroke="midnightblue" points="420.216,-131.01 416.404,-140.896 425.548,-135.545 420.216,-131.01"/>
</g>
<!-- Node7 -->
<g id="node13" class="node"><title>Node7</title>
<a xlink:href="../../de/d8c/a00036.htm" target="_top" xlink:title="worker to collect inconsistency via reflection ">
<polygon fill="none" stroke="black" points="622,-1 622,-103 812,-103 812,-1 622,-1"/>
<text text-anchor="start" x="630" y="-90.9" font-family="Helvetica,sans-Serif" font-size="9.00">de.tu_clausthal.in.mec.object.analysis.</text>
<text text-anchor="middle" x="717" y="-77.9" font-family="Helvetica,sans-Serif" font-size="9.00">CEvaluationStore.CCollectorInconsistency</text>
<polyline fill="none" stroke="black" points="622,-69 812,-69 "/>
<text text-anchor="start" x="630" y="-56.9" font-family="Helvetica,sans-Serif" font-size="9.00">&#45; m_access</text>
<text text-anchor="start" x="630" y="-43.9" font-family="Helvetica,sans-Serif" font-size="9.00">&#45; m_statement</text>
<polyline fill="none" stroke="black" points="622,-35 812,-35 "/>
<text text-anchor="start" x="630" y="-22.9" font-family="Helvetica,sans-Serif" font-size="9.00">+ CCollectorInconsistency()</text>
<text text-anchor="start" x="630" y="-9.9" font-family="Helvetica,sans-Serif" font-size="9.00">+ step()</text>
</a>
</g>
<!-- Node1&#45;&gt;Node7 -->
<g id="edge12" class="edge"><title>Node1&#45;&gt;Node7</title>
<path fill="none" stroke="midnightblue" d="M480.514,-150.857C521.822,-137.925 570.284,-121.562 613,-104 615.894,-102.81 618.819,-101.574 621.76,-100.301"/>
<polygon fill="none" stroke="midnightblue" points="479.235,-147.59 470.724,-153.9 481.312,-154.274 479.235,-147.59"/>
</g>
<!-- Node2 -->
<g id="node2" class="node"><title>Node2</title>
<a xlink:href="../../de/db1/a00197.htm" target="_top" xlink:title="interface of void&#45;step method ">
<polygon fill="none" stroke="black" points="312.5,-255 312.5,-331 455.5,-331 455.5,-255 312.5,-255"/>
<text text-anchor="start" x="320.5" y="-318.9" font-family="Helvetica,sans-Serif" font-size="9.00">de.tu_clausthal.in.mec.runtime.</text>
<text text-anchor="middle" x="384" y="-305.9" font-family="Helvetica,sans-Serif" font-size="9.00">IVoidSteppable</text>
<polyline fill="none" stroke="black" points="312.5,-297 455.5,-297 "/>
<text text-anchor="middle" x="384" y="-284.9" font-family="Helvetica,sans-Serif" font-size="9.00"> </text>
<polyline fill="none" stroke="black" points="312.5,-276 455.5,-276 "/>
<text text-anchor="start" x="320.5" y="-263.9" font-family="Helvetica,sans-Serif" font-size="9.00">+ step()</text>
</a>
</g>
<!-- Node2&#45;&gt;Node1 -->
<g id="edge2" class="edge"><title>Node2&#45;&gt;Node1</title>
<path fill="none" stroke="midnightblue" d="M384,-244.623C384,-235.52 384,-226.117 384,-217.371"/>
<polygon fill="none" stroke="midnightblue" points="380.5,-244.722 384,-254.723 387.5,-244.723 380.5,-244.722"/>
</g>
<!-- Node3 -->
<g id="node4" class="node"><title>Node3</title>
<a xlink:href="../../da/d15/a00188.htm" target="_top" xlink:title="interface for all objects which are triggered by the simulation worker ">
<polygon fill="none" stroke="black" points="312.5,-369 312.5,-445 455.5,-445 455.5,-369 312.5,-369"/>
<text text-anchor="start" x="320.5" y="-432.9" font-family="Helvetica,sans-Serif" font-size="9.00">de.tu_clausthal.in.mec.runtime.</text>
<text text-anchor="middle" x="384" y="-419.9" font-family="Helvetica,sans-Serif" font-size="9.00">ISteppable</text>
<polyline fill="none" stroke="black" points="312.5,-411 455.5,-411 "/>
<text text-anchor="middle" x="384" y="-398.9" font-family="Helvetica,sans-Serif" font-size="9.00"> </text>
<polyline fill="none" stroke="black" points="312.5,-390 455.5,-390 "/>
<text text-anchor="start" x="320.5" y="-377.9" font-family="Helvetica,sans-Serif" font-size="9.00">+ release()</text>
</a>
</g>
<!-- Node3&#45;&gt;Node2 -->
<g id="edge4" class="edge"><title>Node3&#45;&gt;Node2</title>
<path fill="none" stroke="midnightblue" d="M384,-358.623C384,-349.52 384,-340.117 384,-331.371"/>
<polygon fill="none" stroke="midnightblue" points="380.5,-358.722 384,-368.723 387.5,-358.723 380.5,-358.722"/>
</g>
</g>
</svg>
