<?xml version="1.0" encoding="UTF-8" standalone="no"?>
<!DOCTYPE svg PUBLIC "-//W3C//DTD SVG 1.1//EN"
 "http://www.w3.org/Graphics/SVG/1.1/DTD/svg11.dtd">
<!-- Generated by graphviz version 2.26.3 (20100126.1600)
 -->
<!-- Title: de.tu_clausthal.in.mec.object.world.CWorld.values Pages: 1 -->
<svg width="350pt" height="146pt"
 viewBox="0.00 0.00 350.00 146.00" xmlns="http://www.w3.org/2000/svg" xmlns:xlink="http://www.w3.org/1999/xlink">
<g id="graph1" class="graph" transform="scale(1 1) rotate(0) translate(4 142)">
<title>de.tu_clausthal.in.mec.object.world.CWorld.values</title>
<!-- Node1 -->
<g id="node1" class="node"><title>Node1</title>
<polygon fill="#bfbfbf" stroke="black" points="0,-52 0,-86 162,-86 162,-52 0,-52"/>
<text text-anchor="start" x="8" y="-73.9" font-family="Helvetica,sans-Serif" font-size="9.00">de.tu_clausthal.in.mec.object.world.</text>
<text text-anchor="middle" x="81" y="-60.9" font-family="Helvetica,sans-Serif" font-size="9.00">CWorld.values</text>
</g>
<!-- Node2 -->
<g id="node3" class="node"><title>Node2</title>
<a xlink:href="../../d0/d61/a00100.htm#a5e9e66dd46d37528455e0f94779eced3" target="_top" xlink:title="call on simulation reset on each layer ">
<polygon fill="none" stroke="black" points="198.5,-104 198.5,-138 341.5,-138 341.5,-104 198.5,-104"/>
<text text-anchor="start" x="206.5" y="-125.9" font-family="Helvetica,sans-Serif" font-size="9.00">de.tu_clausthal.in.mec.runtime.</text>
<text text-anchor="middle" x="270" y="-112.9" font-family="Helvetica,sans-Serif" font-size="9.00">CSimulation.callLayerReset</text>
</a>
</g>
<!-- Node1&#45;&gt;Node2 -->
<g id="edge2" class="edge"><title>Node1&#45;&gt;Node2</title>
<path fill="none" stroke="midnightblue" d="M152.583,-88.6947C170.817,-93.7115 190.263,-99.0616 207.975,-103.935"/>
<polygon fill="midnightblue" stroke="midnightblue" points="153.456,-85.305 142.886,-86.0267 151.599,-92.0542 153.456,-85.305"/>
</g>
<!-- Node3 -->
<g id="node5" class="node"><title>Node3</title>
<a xlink:href="../../d0/d61/a00100.htm#a45c12fed610407b8588c16cd7f922fb2" target="_top" xlink:title="calls on simulation start on each layer ">
<polygon fill="none" stroke="black" points="198.5,-52 198.5,-86 341.5,-86 341.5,-52 198.5,-52"/>
<text text-anchor="start" x="206.5" y="-73.9" font-family="Helvetica,sans-Serif" font-size="9.00">de.tu_clausthal.in.mec.runtime.</text>
<text text-anchor="middle" x="270" y="-60.9" font-family="Helvetica,sans-Serif" font-size="9.00">CSimulation.callLayerStart</text>
</a>
</g>
<!-- Node1&#45;&gt;Node3 -->
<g id="edge4" class="edge"><title>Node1&#45;&gt;Node3</title>
<path fill="none" stroke="midnightblue" d="M172.431,-69C181.133,-69 189.869,-69 198.345,-69"/>
<polygon fill="midnightblue" stroke="midnightblue" points="172.25,-65.5001 162.25,-69 172.25,-72.5001 172.25,-65.5001"/>
</g>
<!-- Node4 -->
<g id="node7" class="node"><title>Node4</title>
<a xlink:href="../../d0/d61/a00100.htm#a2fda61c02b2a4d71cc4656cc57cc6d56" target="_top" xlink:title="calls on simulation stop on each layer ">
<polygon fill="none" stroke="black" points="198.5,-0 198.5,-34 341.5,-34 341.5,-0 198.5,-0"/>
<text text-anchor="start" x="206.5" y="-21.9" font-family="Helvetica,sans-Serif" font-size="9.00">de.tu_clausthal.in.mec.runtime.</text>
<text text-anchor="middle" x="270" y="-8.9" font-family="Helvetica,sans-Serif" font-size="9.00">CSimulation.callLayerStop</text>
</a>
</g>
<!-- Node1&#45;&gt;Node4 -->
<g id="edge6" class="edge"><title>Node1&#45;&gt;Node4</title>
<path fill="none" stroke="midnightblue" d="M152.583,-49.3053C170.817,-44.2885 190.263,-38.9384 207.975,-34.065"/>
<polygon fill="midnightblue" stroke="midnightblue" points="151.599,-45.9458 142.886,-51.9733 153.456,-52.695 151.599,-45.9458"/>
</g>
</g>
</svg>
