<?xml version="1.0" encoding="UTF-8" standalone="no"?>
<!DOCTYPE svg PUBLIC "-//W3C//DTD SVG 1.1//EN"
 "http://www.w3.org/Graphics/SVG/1.1/DTD/svg11.dtd">
<!-- Generated by graphviz version 2.26.3 (20100126.1600)
 -->
<!-- Title: de.tu_clausthal.in.mec.ui.CInspector Pages: 1 -->
<svg width="154pt" height="382pt"
 viewBox="0.00 0.00 154.00 382.00" xmlns="http://www.w3.org/2000/svg" xmlns:xlink="http://www.w3.org/1999/xlink">
<g id="graph1" class="graph" transform="scale(1 1) rotate(0) translate(4 378)">
<title>de.tu_clausthal.in.mec.ui.CInspector</title>
<!-- Node1 -->
<g id="node1" class="node"><title>Node1</title>
<polygon fill="#bfbfbf" stroke="black" points="10,-1 10,-103 130,-103 130,-1 10,-1"/>
<text text-anchor="start" x="18" y="-90.9" font-family="Helvetica,sans-Serif" font-size="9.00">de.tu_clausthal.in.mec.ui.</text>
<text text-anchor="middle" x="70" y="-77.9" font-family="Helvetica,sans-Serif" font-size="9.00">CInspector</text>
<polyline fill="none" stroke="black" points="10,-69 130,-69 "/>
<text text-anchor="middle" x="70" y="-56.9" font-family="Helvetica,sans-Serif" font-size="9.00"> </text>
<polyline fill="none" stroke="black" points="10,-48 130,-48 "/>
<text text-anchor="start" x="18" y="-35.9" font-family="Helvetica,sans-Serif" font-size="9.00">+ CInspector()</text>
<text text-anchor="start" x="18" y="-22.9" font-family="Helvetica,sans-Serif" font-size="9.00">+ set()</text>
<text text-anchor="start" x="18" y="-9.9" font-family="Helvetica,sans-Serif" font-size="9.00">&#45; web_dynamic_show()</text>
</g>
<!-- Node2 -->
<g id="node2" class="node"><title>Node2</title>
<a xlink:href="../../d4/d3a/a00101.htm" target="_top" xlink:title="storage class to store websockets communicator thread&#45;safe ">
<polygon fill="none" stroke="black" points="0,-154.5 0,-373.5 140,-373.5 140,-154.5 0,-154.5"/>
<text text-anchor="start" x="8" y="-361.4" font-family="Helvetica,sans-Serif" font-size="9.00">de.tu_clausthal.in.mec.ui.web.</text>
<text text-anchor="middle" x="70" y="-348.4" font-family="Helvetica,sans-Serif" font-size="9.00">CSocketStorage</text>
<polyline fill="none" stroke="black" points="0,-339.5 140,-339.5 "/>
<text text-anchor="start" x="8" y="-327.4" font-family="Helvetica,sans-Serif" font-size="9.00">&#45; m_communicator</text>
<polyline fill="none" stroke="black" points="0,-318.5 140,-318.5 "/>
<text text-anchor="start" x="8" y="-306.4" font-family="Helvetica,sans-Serif" font-size="9.00">+ clear()</text>
<text text-anchor="start" x="8" y="-293.4" font-family="Helvetica,sans-Serif" font-size="9.00">+ contains()</text>
<text text-anchor="start" x="8" y="-280.4" font-family="Helvetica,sans-Serif" font-size="9.00">+ contains()</text>
<text text-anchor="start" x="8" y="-267.4" font-family="Helvetica,sans-Serif" font-size="9.00">+ get()</text>
<text text-anchor="start" x="8" y="-254.4" font-family="Helvetica,sans-Serif" font-size="9.00">+ handshake()</text>
<text text-anchor="start" x="8" y="-241.4" font-family="Helvetica,sans-Serif" font-size="9.00">+ isEmpty()</text>
<text text-anchor="start" x="8" y="-228.4" font-family="Helvetica,sans-Serif" font-size="9.00">+ put()</text>
<text text-anchor="start" x="8" y="-215.4" font-family="Helvetica,sans-Serif" font-size="9.00">+ remove()</text>
<text text-anchor="start" x="8" y="-202.4" font-family="Helvetica,sans-Serif" font-size="9.00">+ remove()</text>
<text text-anchor="start" x="8" y="-189.4" font-family="Helvetica,sans-Serif" font-size="9.00">+ send()</text>
<text text-anchor="start" x="8" y="-176.4" font-family="Helvetica,sans-Serif" font-size="9.00">+ send()</text>
<text text-anchor="start" x="8" y="-163.4" font-family="Helvetica,sans-Serif" font-size="9.00">+ size()</text>
</a>
</g>
<!-- Node2&#45;&gt;Node1 -->
<g id="edge2" class="edge"><title>Node2&#45;&gt;Node1</title>
<path fill="none" stroke="#404040" d="M70,-154.274C70,-140.862 70,-127.529 70,-115.137"/>
<polygon fill="none" stroke="#404040" points="70.0001,-115.089 66,-109.089 70,-103.089 74,-109.089 70.0001,-115.089"/>
<text text-anchor="middle" x="108" y="-127.4" font-family="Helvetica,sans-Serif" font-size="9.00"> &#45;m_communicator</text>
</g>
</g>
</svg>
