<?xml version="1.0" encoding="UTF-8" standalone="no"?>
<!DOCTYPE svg PUBLIC "-//W3C//DTD SVG 1.1//EN"
 "http://www.w3.org/Graphics/SVG/1.1/DTD/svg11.dtd">
<!-- Generated by graphviz version 2.26.3 (20100126.1600)
 -->
<!-- Title: de.tu_clausthal.in.mec.object.car.drivemodel.CAgentNagelSchreckenberg Pages: 1 -->
<svg width="208pt" height="378pt"
 viewBox="0.00 0.00 208.00 378.00" xmlns="http://www.w3.org/2000/svg" xmlns:xlink="http://www.w3.org/1999/xlink">
<g id="graph1" class="graph" transform="scale(1 1) rotate(0) translate(4 374)">
<title>de.tu_clausthal.in.mec.object.car.drivemodel.CAgentNagelSchreckenberg</title>
<!-- Node1 -->
<g id="node1" class="node"><title>Node1</title>
<polygon fill="#bfbfbf" stroke="black" points="0,-1 0,-77 200,-77 200,-1 0,-1"/>
<text text-anchor="start" x="8" y="-64.9" font-family="Helvetica,sans-Serif" font-size="9.00">de.tu_clausthal.in.mec.object.car.drivemodel.</text>
<text text-anchor="middle" x="100" y="-51.9" font-family="Helvetica,sans-Serif" font-size="9.00">CAgentNagelSchreckenberg</text>
<polyline fill="none" stroke="black" points="0,-43 200,-43 "/>
<text text-anchor="middle" x="100" y="-30.9" font-family="Helvetica,sans-Serif" font-size="9.00"> </text>
<polyline fill="none" stroke="black" points="0,-22 200,-22 "/>
<text text-anchor="start" x="8" y="-9.9" font-family="Helvetica,sans-Serif" font-size="9.00">+ update()</text>
</g>
<!-- Node2 -->
<g id="node2" class="node"><title>Node2</title>
<a xlink:href="../../d1/d1e/a00087.htm" target="_top" xlink:title="class of the Nagel&#45;Schreckenberg drive model ">
<polygon fill="none" stroke="black" points="0,-114.5 0,-255.5 200,-255.5 200,-114.5 0,-114.5"/>
<text text-anchor="start" x="8" y="-243.4" font-family="Helvetica,sans-Serif" font-size="9.00">de.tu_clausthal.in.mec.object.car.drivemodel.</text>
<text text-anchor="middle" x="100" y="-230.4" font-family="Helvetica,sans-Serif" font-size="9.00">CNagelSchreckenberg</text>
<polyline fill="none" stroke="black" points="0,-221.5 200,-221.5 "/>
<text text-anchor="start" x="8" y="-209.4" font-family="Helvetica,sans-Serif" font-size="9.00">&#45; m_random</text>
<text text-anchor="start" x="8" y="-196.4" font-family="Helvetica,sans-Serif" font-size="9.00">&#45; c_minimalspeed</text>
<polyline fill="none" stroke="black" points="0,-187.5 200,-187.5 "/>
<text text-anchor="start" x="8" y="-175.4" font-family="Helvetica,sans-Serif" font-size="9.00">+ update()</text>
<text text-anchor="start" x="8" y="-162.4" font-family="Helvetica,sans-Serif" font-size="9.00"># checkAccelerationWithEdge</text>
<text text-anchor="start" x="8" y="-149.4" font-family="Helvetica,sans-Serif" font-size="9.00">Speed()</text>
<text text-anchor="start" x="8" y="-136.4" font-family="Helvetica,sans-Serif" font-size="9.00"># checkCollision()</text>
<text text-anchor="start" x="8" y="-123.4" font-family="Helvetica,sans-Serif" font-size="9.00"># checkLinger()</text>
</a>
</g>
<!-- Node2&#45;&gt;Node1 -->
<g id="edge2" class="edge"><title>Node2&#45;&gt;Node1</title>
<path fill="none" stroke="midnightblue" d="M100,-103.96C100,-94.6164 100,-85.451 100,-77.0857"/>
<polygon fill="none" stroke="midnightblue" points="96.5001,-104.138 100,-114.138 103.5,-104.138 96.5001,-104.138"/>
</g>
<!-- Node3 -->
<g id="node4" class="node"><title>Node3</title>
<a xlink:href="../../de/d38/a00160.htm" target="_top" xlink:title="drive interface for driving models ">
<polygon fill="none" stroke="black" points="0,-293 0,-369 200,-369 200,-293 0,-293"/>
<text text-anchor="start" x="8" y="-356.9" font-family="Helvetica,sans-Serif" font-size="9.00">de.tu_clausthal.in.mec.object.car.drivemodel.</text>
<text text-anchor="middle" x="100" y="-343.9" font-family="Helvetica,sans-Serif" font-size="9.00">IDriveModel</text>
<polyline fill="none" stroke="black" points="0,-335 200,-335 "/>
<text text-anchor="middle" x="100" y="-322.9" font-family="Helvetica,sans-Serif" font-size="9.00"> </text>
<polyline fill="none" stroke="black" points="0,-314 200,-314 "/>
<text text-anchor="start" x="8" y="-301.9" font-family="Helvetica,sans-Serif" font-size="9.00">+ update()</text>
</a>
</g>
<!-- Node3&#45;&gt;Node2 -->
<g id="edge4" class="edge"><title>Node3&#45;&gt;Node2</title>
<path fill="none" stroke="midnightblue" d="M100,-282.419C100,-273.8 100,-264.667 100,-255.584"/>
<polygon fill="none" stroke="midnightblue" points="96.5001,-282.64 100,-292.64 103.5,-282.64 96.5001,-282.64"/>
</g>
</g>
</svg>
