<?xml version="1.0" encoding="UTF-8" standalone="no"?>
<!DOCTYPE svg PUBLIC "-//W3C//DTD SVG 1.1//EN"
 "http://www.w3.org/Graphics/SVG/1.1/DTD/svg11.dtd">
<!-- Generated by graphviz version 2.26.3 (20100126.1600)
 -->
<!-- Title: de.tu_clausthal.in.mec.ui.COSMMouseListener.mouseClicked Pages: 1 -->
<svg width="390pt" height="198pt"
 viewBox="0.00 0.00 390.00 198.00" xmlns="http://www.w3.org/2000/svg" xmlns:xlink="http://www.w3.org/1999/xlink">
<g id="graph1" class="graph" transform="scale(1 1) rotate(0) translate(4 194)">
<title>de.tu_clausthal.in.mec.ui.COSMMouseListener.mouseClicked</title>
<!-- Node1 -->
<g id="node1" class="node"><title>Node1</title>
<polygon fill="#bfbfbf" stroke="black" points="0.5,-78 0.5,-112 165.5,-112 165.5,-78 0.5,-78"/>
<text text-anchor="start" x="8.5" y="-99.9" font-family="Helvetica,sans-Serif" font-size="9.00">de.tu_clausthal.in.mec.ui.</text>
<text text-anchor="middle" x="83" y="-86.9" font-family="Helvetica,sans-Serif" font-size="9.00">COSMMouseListener.mouseClicked</text>
</g>
<!-- Node2 -->
<g id="node3" class="node"><title>Node2</title>
<a xlink:href="../../d1/dc1/a00092.htm#ac6b7bcf9e262eaf2bdfe65e1831afdee" target="_top" xlink:title="returns the current active layer ">
<polygon fill="none" stroke="black" points="202.5,-156 202.5,-190 381.5,-190 381.5,-156 202.5,-156"/>
<text text-anchor="start" x="210.5" y="-177.9" font-family="Helvetica,sans-Serif" font-size="9.00">de.tu_clausthal.in.mec.ui.</text>
<text text-anchor="middle" x="292" y="-164.9" font-family="Helvetica,sans-Serif" font-size="9.00">COSMViewer.getCurrentClickableLayer</text>
</a>
</g>
<!-- Node1&#45;&gt;Node2 -->
<g id="edge2" class="edge"><title>Node1&#45;&gt;Node2</title>
<path fill="none" stroke="midnightblue" d="M118.698,-112.06C142.079,-122.868 173.479,-136.699 202,-147 207.488,-148.982 213.205,-150.919 218.979,-152.785"/>
<polygon fill="midnightblue" stroke="midnightblue" points="218.131,-156.187 228.721,-155.853 220.234,-149.511 218.131,-156.187"/>
</g>
<!-- Node3 -->
<g id="node5" class="node"><title>Node3</title>
<a xlink:href="../../d0/d61/a00100.htm#a2f84b4ec6605cc18ae204b812d7884ec" target="_top" xlink:title="returns the singelton instance ">
<polygon fill="none" stroke="black" points="220.5,-104 220.5,-138 363.5,-138 363.5,-104 220.5,-104"/>
<text text-anchor="start" x="228.5" y="-125.9" font-family="Helvetica,sans-Serif" font-size="9.00">de.tu_clausthal.in.mec.runtime.</text>
<text text-anchor="middle" x="292" y="-112.9" font-family="Helvetica,sans-Serif" font-size="9.00">CSimulation.getInstance</text>
</a>
</g>
<!-- Node1&#45;&gt;Node3 -->
<g id="edge4" class="edge"><title>Node1&#45;&gt;Node3</title>
<path fill="none" stroke="midnightblue" d="M165.602,-105.276C180.343,-107.11 195.691,-109.019 210.403,-110.849"/>
<polygon fill="midnightblue" stroke="midnightblue" points="210.116,-114.34 220.471,-112.102 210.98,-107.394 210.116,-114.34"/>
</g>
<!-- Node4 -->
<g id="node7" class="node"><title>Node4</title>
<a xlink:href="../../d1/dc1/a00092.htm#aea58711e81bf8587125ca99580bb0279" target="_top" xlink:title="returns the geoposition of a mouse position ">
<polygon fill="none" stroke="black" points="203,-52 203,-86 381,-86 381,-52 203,-52"/>
<text text-anchor="start" x="211" y="-73.9" font-family="Helvetica,sans-Serif" font-size="9.00">de.tu_clausthal.in.mec.ui.</text>
<text text-anchor="middle" x="292" y="-60.9" font-family="Helvetica,sans-Serif" font-size="9.00">COSMViewer.getViewpointGeoPosition</text>
</a>
</g>
<!-- Node1&#45;&gt;Node4 -->
<g id="edge6" class="edge"><title>Node1&#45;&gt;Node4</title>
<path fill="none" stroke="midnightblue" d="M165.602,-84.7241C174.473,-83.6206 183.563,-82.4897 192.603,-81.3652"/>
<polygon fill="midnightblue" stroke="midnightblue" points="193.282,-84.8078 202.773,-80.1 192.418,-77.8613 193.282,-84.8078"/>
</g>
<!-- Node5 -->
<g id="node9" class="node"><title>Node5</title>
<a xlink:href="../../da/d82/a00091.htm#a91fefebc046782f628d6657fd0584443" target="_top" xlink:title="checks if a point is in a radius around another ">
<polygon fill="none" stroke="black" points="223.5,-0 223.5,-34 360.5,-34 360.5,-0 223.5,-0"/>
<text text-anchor="start" x="231.5" y="-21.9" font-family="Helvetica,sans-Serif" font-size="9.00">de.tu_clausthal.in.mec.ui.</text>
<text text-anchor="middle" x="292" y="-8.9" font-family="Helvetica,sans-Serif" font-size="9.00">COSMMouseListener.isinBall</text>
</a>
</g>
<!-- Node1&#45;&gt;Node5 -->
<g id="edge8" class="edge"><title>Node1&#45;&gt;Node5</title>
<path fill="none" stroke="midnightblue" d="M118.698,-77.94C142.079,-67.132 173.479,-53.3013 202,-43 207.488,-41.0179 213.205,-39.0808 218.979,-37.2149"/>
<polygon fill="midnightblue" stroke="midnightblue" points="220.234,-40.4892 228.721,-34.1467 218.131,-33.8125 220.234,-40.4892"/>
</g>
</g>
</svg>
