<?xml version="1.0" encoding="UTF-8" standalone="no"?>
<!DOCTYPE svg PUBLIC "-//W3C//DTD SVG 1.1//EN"
 "http://www.w3.org/Graphics/SVG/1.1/DTD/svg11.dtd">
<!-- Generated by graphviz version 2.26.3 (20100126.1600)
 -->
<!-- Title: de.tu_clausthal.in.mec.runtime.core.CVoidSteppable Pages: 1 -->
<svg width="172pt" height="406pt"
 viewBox="0.00 0.00 172.00 406.00" xmlns="http://www.w3.org/2000/svg" xmlns:xlink="http://www.w3.org/1999/xlink">
<g id="graph1" class="graph" transform="scale(1 1) rotate(0) translate(4 402)">
<title>de.tu_clausthal.in.mec.runtime.core.CVoidSteppable</title>
<!-- Node1 -->
<g id="node1" class="node"><title>Node1</title>
<polygon fill="#bfbfbf" stroke="black" points="0,-0.5 0,-89.5 164,-89.5 164,-0.5 0,-0.5"/>
<text text-anchor="start" x="8" y="-77.4" font-family="Helvetica,sans-Serif" font-size="9.00">de.tu_clausthal.in.mec.runtime.core.</text>
<text text-anchor="middle" x="82" y="-64.4" font-family="Helvetica,sans-Serif" font-size="9.00">CVoidSteppable</text>
<polyline fill="none" stroke="black" points="0,-55.5 164,-55.5 "/>
<text text-anchor="start" x="8" y="-43.4" font-family="Helvetica,sans-Serif" font-size="9.00">&#45; m_iteration</text>
<polyline fill="none" stroke="black" points="0,-34.5 164,-34.5 "/>
<text text-anchor="start" x="8" y="-22.4" font-family="Helvetica,sans-Serif" font-size="9.00">+ CVoidSteppable()</text>
<text text-anchor="start" x="8" y="-9.4" font-family="Helvetica,sans-Serif" font-size="9.00"># perform()</text>
</g>
<!-- Node2 -->
<g id="node2" class="node"><title>Node2</title>
<a xlink:href="../../dd/da7/a00168.htm" target="_top" xlink:title="interface of the layer ">
<polygon fill="none" stroke="black" points="13.5,-140.5 13.5,-281.5 150.5,-281.5 150.5,-140.5 13.5,-140.5"/>
<text text-anchor="start" x="21.5" y="-269.4" font-family="Helvetica,sans-Serif" font-size="9.00">de.tu_clausthal.in.mec.object.</text>
<text text-anchor="middle" x="82" y="-256.4" font-family="Helvetica,sans-Serif" font-size="9.00">ILayer</text>
<polyline fill="none" stroke="black" points="13.5,-247.5 150.5,-247.5 "/>
<text text-anchor="middle" x="82" y="-235.4" font-family="Helvetica,sans-Serif" font-size="9.00"> </text>
<polyline fill="none" stroke="black" points="13.5,-226.5 150.5,-226.5 "/>
<text text-anchor="start" x="21.5" y="-214.4" font-family="Helvetica,sans-Serif" font-size="9.00">+ getCalculationIndex()</text>
<text text-anchor="start" x="21.5" y="-201.4" font-family="Helvetica,sans-Serif" font-size="9.00">+ isActive()</text>
<text text-anchor="start" x="21.5" y="-188.4" font-family="Helvetica,sans-Serif" font-size="9.00">+ onSimulationReset()</text>
<text text-anchor="start" x="21.5" y="-175.4" font-family="Helvetica,sans-Serif" font-size="9.00">+ onSimulationStart()</text>
<text text-anchor="start" x="21.5" y="-162.4" font-family="Helvetica,sans-Serif" font-size="9.00">+ onSimulationStop()</text>
<text text-anchor="start" x="21.5" y="-149.4" font-family="Helvetica,sans-Serif" font-size="9.00">+ setActive()</text>
</a>
</g>
<!-- Node2&#45;&gt;Node1 -->
<g id="edge2" class="edge"><title>Node2&#45;&gt;Node1</title>
<path fill="none" stroke="#404040" d="M82,-140.12C82,-127.298 82,-114.082 82,-101.731"/>
<polygon fill="none" stroke="#404040" points="82.0001,-101.715 78,-95.7153 82,-89.7153 86,-95.7152 82.0001,-101.715"/>
<text text-anchor="middle" x="101.5" y="-113.4" font-family="Helvetica,sans-Serif" font-size="9.00"> &#45;m_layer</text>
</g>
<!-- Node3 -->
<g id="node4" class="node"><title>Node3</title>
<a xlink:href="../../da/d15/a00188.htm" target="_top" xlink:title="interface for all objects which are triggered by the simulation worker ">
<polygon fill="none" stroke="black" points="10.5,-321 10.5,-397 153.5,-397 153.5,-321 10.5,-321"/>
<text text-anchor="start" x="18.5" y="-384.9" font-family="Helvetica,sans-Serif" font-size="9.00">de.tu_clausthal.in.mec.runtime.</text>
<text text-anchor="middle" x="82" y="-371.9" font-family="Helvetica,sans-Serif" font-size="9.00">ISteppable</text>
<polyline fill="none" stroke="black" points="10.5,-363 153.5,-363 "/>
<text text-anchor="middle" x="82" y="-350.9" font-family="Helvetica,sans-Serif" font-size="9.00"> </text>
<polyline fill="none" stroke="black" points="10.5,-342 153.5,-342 "/>
<text text-anchor="start" x="18.5" y="-329.9" font-family="Helvetica,sans-Serif" font-size="9.00">+ release()</text>
</a>
</g>
<!-- Node3&#45;&gt;Node2 -->
<g id="edge4" class="edge"><title>Node3&#45;&gt;Node2</title>
<path fill="none" stroke="midnightblue" d="M82,-310.715C82,-301.442 82,-291.554 82,-281.742"/>
<polygon fill="none" stroke="midnightblue" points="78.5001,-310.886 82,-320.886 85.5001,-310.886 78.5001,-310.886"/>
</g>
</g>
</svg>
