<?xml version="1.0" encoding="UTF-8" standalone="no"?>
<!DOCTYPE svg PUBLIC "-//W3C//DTD SVG 1.1//EN"
 "http://www.w3.org/Graphics/SVG/1.1/DTD/svg11.dtd">
<!-- Generated by graphviz version 2.26.3 (20100126.1600)
 -->
<!-- Title: de.tu_clausthal.in.mec.CConfiguration.CContains&lt; T &gt; Pages: 1 -->
<svg width="182pt" height="238pt"
 viewBox="0.00 0.00 182.00 238.00" xmlns="http://www.w3.org/2000/svg" xmlns:xlink="http://www.w3.org/1999/xlink">
<g id="graph1" class="graph" transform="scale(1 1) rotate(0) translate(4 234)">
<title>de.tu_clausthal.in.mec.CConfiguration.CContains&lt; T &gt;</title>
<!-- Node1 -->
<g id="node1" class="node"><title>Node1</title>
<polygon fill="#bfbfbf" stroke="black" points="-0.5,-1 -0.5,-103 174.5,-103 174.5,-1 -0.5,-1"/>
<text text-anchor="start" x="7.5" y="-90.9" font-family="Helvetica,sans-Serif" font-size="9.00">de.tu_clausthal.in.mec.CConfiguration.</text>
<text text-anchor="middle" x="87" y="-77.9" font-family="Helvetica,sans-Serif" font-size="9.00">CContains&lt; T &gt;</text>
<polyline fill="none" stroke="black" points="-0.5,-69 174.5,-69 "/>
<text text-anchor="start" x="7.5" y="-56.9" font-family="Helvetica,sans-Serif" font-size="9.00">&#45; m_collection</text>
<polyline fill="none" stroke="black" points="-0.5,-48 174.5,-48 "/>
<text text-anchor="start" x="7.5" y="-35.9" font-family="Helvetica,sans-Serif" font-size="9.00">+ CContains()</text>
<text text-anchor="start" x="7.5" y="-22.9" font-family="Helvetica,sans-Serif" font-size="9.00">+ isCorrect()</text>
<text text-anchor="start" x="7.5" y="-9.9" font-family="Helvetica,sans-Serif" font-size="9.00">+ toString()</text>
</g>
<!-- Node2 -->
<g id="node2" class="node"><title>Node2</title>
<a xlink:href="../../d2/d34/a00156.htm" target="_top" xlink:title="check class ">
<polygon fill="none" stroke="black" points="-0.5,-140.5 -0.5,-229.5 174.5,-229.5 174.5,-140.5 -0.5,-140.5"/>
<text text-anchor="start" x="7.5" y="-217.4" font-family="Helvetica,sans-Serif" font-size="9.00">de.tu_clausthal.in.mec.CConfiguration.</text>
<text text-anchor="middle" x="87" y="-204.4" font-family="Helvetica,sans-Serif" font-size="9.00">ICheck&lt; T &gt;</text>
<polyline fill="none" stroke="black" points="-0.5,-195.5 174.5,-195.5 "/>
<text text-anchor="middle" x="87" y="-183.4" font-family="Helvetica,sans-Serif" font-size="9.00"> </text>
<polyline fill="none" stroke="black" points="-0.5,-174.5 174.5,-174.5 "/>
<text text-anchor="start" x="7.5" y="-162.4" font-family="Helvetica,sans-Serif" font-size="9.00">+ isCorrect()</text>
<text text-anchor="start" x="7.5" y="-149.4" font-family="Helvetica,sans-Serif" font-size="9.00">+ isWrong()</text>
</a>
</g>
<!-- Node2&#45;&gt;Node1 -->
<g id="edge2" class="edge"><title>Node2&#45;&gt;Node1</title>
<path fill="none" stroke="midnightblue" d="M87,-130.072C87,-121.178 87,-111.998 87,-103.197"/>
<polygon fill="none" stroke="midnightblue" points="83.5001,-130.343 87,-140.343 90.5001,-130.343 83.5001,-130.343"/>
</g>
</g>
</svg>
