<?xml version="1.0" encoding="UTF-8" standalone="no"?>
<!DOCTYPE svg PUBLIC "-//W3C//DTD SVG 1.1//EN"
 "http://www.w3.org/Graphics/SVG/1.1/DTD/svg11.dtd">
<!-- Generated by graphviz version 2.26.3 (20100126.1600)
 -->
<!-- Title: de.tu_clausthal.in.mec.object.mas.generic.ITermCollection Pages: 1 -->
<svg width="534pt" height="340pt"
 viewBox="0.00 0.00 534.00 340.00" xmlns="http://www.w3.org/2000/svg" xmlns:xlink="http://www.w3.org/1999/xlink">
<g id="graph1" class="graph" transform="scale(1 1) rotate(0) translate(4 336)">
<title>de.tu_clausthal.in.mec.object.mas.generic.ITermCollection</title>
<!-- Node1 -->
<g id="node1" class="node"><title>Node1</title>
<polygon fill="#bfbfbf" stroke="black" points="168,-141 168,-217 358,-217 358,-141 168,-141"/>
<text text-anchor="start" x="176" y="-204.9" font-family="Helvetica,sans-Serif" font-size="9.00">de.tu_clausthal.in.mec.object.mas.generic.</text>
<text text-anchor="middle" x="263" y="-191.9" font-family="Helvetica,sans-Serif" font-size="9.00">ITermCollection</text>
<polyline fill="none" stroke="black" points="168,-183 358,-183 "/>
<text text-anchor="middle" x="263" y="-170.9" font-family="Helvetica,sans-Serif" font-size="9.00"> </text>
<polyline fill="none" stroke="black" points="168,-162 358,-162 "/>
<text text-anchor="middle" x="263" y="-149.9" font-family="Helvetica,sans-Serif" font-size="9.00"> </text>
</g>
<!-- Node3 -->
<g id="node5" class="node"><title>Node3</title>
<a xlink:href="../../dd/d42/a00109.htm" target="_top" xlink:title="generic term list for agent literals ">
<polygon fill="none" stroke="black" points="-0.5,-1 -0.5,-103 254.5,-103 254.5,-1 -0.5,-1"/>
<text text-anchor="start" x="7.5" y="-90.9" font-family="Helvetica,sans-Serif" font-size="9.00">de.tu_clausthal.in.mec.object.mas.generic.implementation.</text>
<text text-anchor="middle" x="127" y="-77.9" font-family="Helvetica,sans-Serif" font-size="9.00">CTermList</text>
<polyline fill="none" stroke="black" points="-0.5,-69 254.5,-69 "/>
<text text-anchor="middle" x="127" y="-56.9" font-family="Helvetica,sans-Serif" font-size="9.00"> </text>
<polyline fill="none" stroke="black" points="-0.5,-48 254.5,-48 "/>
<text text-anchor="start" x="7.5" y="-35.9" font-family="Helvetica,sans-Serif" font-size="9.00">+ CTermList()</text>
<text text-anchor="start" x="7.5" y="-22.9" font-family="Helvetica,sans-Serif" font-size="9.00">+ CTermList()</text>
<text text-anchor="start" x="7.5" y="-9.9" font-family="Helvetica,sans-Serif" font-size="9.00">+ instanceOf()</text>
</a>
</g>
<!-- Node1&#45;&gt;Node3 -->
<g id="edge4" class="edge"><title>Node1&#45;&gt;Node3</title>
<path fill="none" stroke="midnightblue" d="M214.613,-133.815C204.007,-123.911 192.705,-113.357 181.866,-103.235"/>
<polygon fill="none" stroke="midnightblue" points="212.498,-136.629 222.196,-140.896 217.276,-131.513 212.498,-136.629"/>
</g>
<!-- Node4 -->
<g id="node7" class="node"><title>Node4</title>
<a xlink:href="../../d4/d81/a00110.htm" target="_top" xlink:title="generic term set for agent literals ">
<polygon fill="none" stroke="black" points="271.5,-1 271.5,-103 526.5,-103 526.5,-1 271.5,-1"/>
<text text-anchor="start" x="279.5" y="-90.9" font-family="Helvetica,sans-Serif" font-size="9.00">de.tu_clausthal.in.mec.object.mas.generic.implementation.</text>
<text text-anchor="middle" x="399" y="-77.9" font-family="Helvetica,sans-Serif" font-size="9.00">CTermSet</text>
<polyline fill="none" stroke="black" points="271.5,-69 526.5,-69 "/>
<text text-anchor="start" x="279.5" y="-56.9" font-family="Helvetica,sans-Serif" font-size="9.00">+ EMPTY_TERMSET</text>
<polyline fill="none" stroke="black" points="271.5,-48 526.5,-48 "/>
<text text-anchor="start" x="279.5" y="-35.9" font-family="Helvetica,sans-Serif" font-size="9.00">+ CTermSet()</text>
<text text-anchor="start" x="279.5" y="-22.9" font-family="Helvetica,sans-Serif" font-size="9.00">+ CTermSet()</text>
<text text-anchor="start" x="279.5" y="-9.9" font-family="Helvetica,sans-Serif" font-size="9.00">+ instanceOf()</text>
</a>
</g>
<!-- Node1&#45;&gt;Node4 -->
<g id="edge6" class="edge"><title>Node1&#45;&gt;Node4</title>
<path fill="none" stroke="midnightblue" d="M311.387,-133.815C321.993,-123.911 333.295,-113.357 344.134,-103.235"/>
<polygon fill="none" stroke="midnightblue" points="308.724,-131.513 303.804,-140.896 313.502,-136.629 308.724,-131.513"/>
</g>
<!-- Node2 -->
<g id="node2" class="node"><title>Node2</title>
<a xlink:href="../../d9/dd0/a00191.htm" target="_top" xlink:title="term interface ">
<polygon fill="none" stroke="black" points="168,-255 168,-331 358,-331 358,-255 168,-255"/>
<text text-anchor="start" x="176" y="-318.9" font-family="Helvetica,sans-Serif" font-size="9.00">de.tu_clausthal.in.mec.object.mas.generic.</text>
<text text-anchor="middle" x="263" y="-305.9" font-family="Helvetica,sans-Serif" font-size="9.00">ITerm</text>
<polyline fill="none" stroke="black" points="168,-297 358,-297 "/>
<text text-anchor="middle" x="263" y="-284.9" font-family="Helvetica,sans-Serif" font-size="9.00"> </text>
<polyline fill="none" stroke="black" points="168,-276 358,-276 "/>
<text text-anchor="start" x="176" y="-263.9" font-family="Helvetica,sans-Serif" font-size="9.00">+ instanceOf()</text>
</a>
</g>
<!-- Node2&#45;&gt;Node1 -->
<g id="edge2" class="edge"><title>Node2&#45;&gt;Node1</title>
<path fill="none" stroke="midnightblue" d="M263,-244.623C263,-235.52 263,-226.117 263,-217.371"/>
<polygon fill="none" stroke="midnightblue" points="259.5,-244.722 263,-254.723 266.5,-244.723 259.5,-244.722"/>
</g>
</g>
</svg>
