<?xml version="1.0" encoding="UTF-8" standalone="no"?>
<!DOCTYPE svg PUBLIC "-//W3C//DTD SVG 1.1//EN"
 "http://www.w3.org/Graphics/SVG/1.1/DTD/svg11.dtd">
<!-- Generated by graphviz version 2.26.3 (20100126.1600)
 -->
<!-- Title: de.tu_clausthal.in.mec.ui.web.CBrowser.CBrowser Pages: 1 -->
<svg width="332pt" height="94pt"
 viewBox="0.00 0.00 332.00 94.00" xmlns="http://www.w3.org/2000/svg" xmlns:xlink="http://www.w3.org/1999/xlink">
<g id="graph1" class="graph" transform="scale(1 1) rotate(0) translate(4 90)">
<title>de.tu_clausthal.in.mec.ui.web.CBrowser.CBrowser</title>
<!-- Node1 -->
<g id="node1" class="node"><title>Node1</title>
<polygon fill="#bfbfbf" stroke="black" points="0,-26 0,-60 140,-60 140,-26 0,-26"/>
<text text-anchor="start" x="8" y="-47.9" font-family="Helvetica,sans-Serif" font-size="9.00">de.tu_clausthal.in.mec.ui.web.</text>
<text text-anchor="middle" x="70" y="-34.9" font-family="Helvetica,sans-Serif" font-size="9.00">CBrowser.CBrowser</text>
</g>
<!-- Node2 -->
<g id="node3" class="node"><title>Node2</title>
<a xlink:href="../../d1/dc6/a00037.htm#ae523069a1b523b0e6a0c643049b1d745" target="_top" xlink:title="returns a default string of the resource file ">
<polygon fill="none" stroke="black" points="176,-52 176,-86 324,-86 324,-52 176,-52"/>
<text text-anchor="start" x="184" y="-73.9" font-family="Helvetica,sans-Serif" font-size="9.00">de.tu_clausthal.in.mec.common.</text>
<text text-anchor="middle" x="250" y="-60.9" font-family="Helvetica,sans-Serif" font-size="9.00">CCommon.getResourceString</text>
</a>
</g>
<!-- Node1&#45;&gt;Node2 -->
<g id="edge2" class="edge"><title>Node1&#45;&gt;Node2</title>
<path fill="none" stroke="midnightblue" d="M140.108,-53.1267C148.551,-54.3463 157.24,-55.6013 165.857,-56.846"/>
<polygon fill="midnightblue" stroke="midnightblue" points="165.523,-60.334 175.921,-58.2996 166.524,-53.4059 165.523,-60.334"/>
</g>
<!-- Node3 -->
<g id="node5" class="node"><title>Node3</title>
<a xlink:href="../../d3/d52/a00023.htm#a0ca68d60cc43bf4add2f4290713308ff" target="_top" xlink:title="loads a URL on the browser ">
<polygon fill="none" stroke="black" points="180,-0 180,-34 320,-34 320,-0 180,-0"/>
<text text-anchor="start" x="188" y="-21.9" font-family="Helvetica,sans-Serif" font-size="9.00">de.tu_clausthal.in.mec.ui.web.</text>
<text text-anchor="middle" x="250" y="-8.9" font-family="Helvetica,sans-Serif" font-size="9.00">CBrowser.load</text>
</a>
</g>
<!-- Node1&#45;&gt;Node3 -->
<g id="edge4" class="edge"><title>Node1&#45;&gt;Node3</title>
<path fill="none" stroke="midnightblue" d="M140.108,-32.8733C149.779,-31.4764 159.772,-30.0329 169.611,-28.6118"/>
<polygon fill="midnightblue" stroke="midnightblue" points="170.39,-32.0356 179.787,-27.1419 169.389,-25.1075 170.39,-32.0356"/>
</g>
</g>
</svg>
