<?xml version="1.0" encoding="UTF-8" standalone="no"?>
<!DOCTYPE svg PUBLIC "-//W3C//DTD SVG 1.1//EN"
 "http://www.w3.org/Graphics/SVG/1.1/DTD/svg11.dtd">
<!-- Generated by graphviz version 2.26.3 (20100126.1600)
 -->
<!-- Title: de.tu_clausthal.in.mec.runtime.CSimulation.isRunning Pages: 1 -->
<svg width="386pt" height="250pt"
 viewBox="0.00 0.00 386.00 250.00" xmlns="http://www.w3.org/2000/svg" xmlns:xlink="http://www.w3.org/1999/xlink">
<g id="graph1" class="graph" transform="scale(1 1) rotate(0) translate(4 246)">
<title>de.tu_clausthal.in.mec.runtime.CSimulation.isRunning</title>
<!-- Node1 -->
<g id="node1" class="node"><title>Node1</title>
<polygon fill="#bfbfbf" stroke="black" points="0.5,-104 0.5,-138 143.5,-138 143.5,-104 0.5,-104"/>
<text text-anchor="start" x="8.5" y="-125.9" font-family="Helvetica,sans-Serif" font-size="9.00">de.tu_clausthal.in.mec.runtime.</text>
<text text-anchor="middle" x="72" y="-112.9" font-family="Helvetica,sans-Serif" font-size="9.00">CSimulation.isRunning</text>
</g>
<!-- Node2 -->
<g id="node3" class="node"><title>Node2</title>
<a xlink:href="../../d0/d61/a00100.htm#aeeb7e506e5d82faec1fc3a5d0d2cd3d6" target="_top" xlink:title="loads the simulation from an input stream ">
<polygon fill="none" stroke="black" points="207.5,-208 207.5,-242 350.5,-242 350.5,-208 207.5,-208"/>
<text text-anchor="start" x="215.5" y="-229.9" font-family="Helvetica,sans-Serif" font-size="9.00">de.tu_clausthal.in.mec.runtime.</text>
<text text-anchor="middle" x="279" y="-216.9" font-family="Helvetica,sans-Serif" font-size="9.00">CSimulation.load</text>
</a>
</g>
<!-- Node1&#45;&gt;Node2 -->
<g id="edge2" class="edge"><title>Node1&#45;&gt;Node2</title>
<path fill="none" stroke="midnightblue" d="M98.6783,-144.596C119.519,-161.909 149.905,-184.789 180,-199 188.597,-203.059 197.924,-206.558 207.302,-209.552"/>
<polygon fill="midnightblue" stroke="midnightblue" points="100.804,-141.81 90.9065,-138.029 96.2858,-147.157 100.804,-141.81"/>
</g>
<!-- Node3 -->
<g id="node5" class="node"><title>Node3</title>
<a xlink:href="../../d0/d61/a00100.htm#af21bd5be9636aade3de556aac85623b5" target="_top" xlink:title="runs the simulation for n steps ">
<polygon fill="none" stroke="black" points="207.5,-156 207.5,-190 350.5,-190 350.5,-156 207.5,-156"/>
<text text-anchor="start" x="215.5" y="-177.9" font-family="Helvetica,sans-Serif" font-size="9.00">de.tu_clausthal.in.mec.runtime.</text>
<text text-anchor="middle" x="279" y="-164.9" font-family="Helvetica,sans-Serif" font-size="9.00">CSimulation.start</text>
</a>
</g>
<!-- Node1&#45;&gt;Node3 -->
<g id="edge4" class="edge"><title>Node1&#45;&gt;Node3</title>
<path fill="none" stroke="midnightblue" d="M149.572,-140.487C169.782,-145.563 191.4,-150.994 211.068,-155.935"/>
<polygon fill="midnightblue" stroke="midnightblue" points="150.331,-137.069 139.78,-138.027 148.625,-143.858 150.331,-137.069"/>
</g>
<!-- Node4 -->
<g id="node7" class="node"><title>Node4</title>
<a xlink:href="../../d0/d61/a00100.htm#ace4da9ca825e41460410f087e40b9cc5" target="_top" xlink:title="stops the current simulation ">
<polygon fill="none" stroke="black" points="207.5,-104 207.5,-138 350.5,-138 350.5,-104 207.5,-104"/>
<text text-anchor="start" x="215.5" y="-125.9" font-family="Helvetica,sans-Serif" font-size="9.00">de.tu_clausthal.in.mec.runtime.</text>
<text text-anchor="middle" x="279" y="-112.9" font-family="Helvetica,sans-Serif" font-size="9.00">CSimulation.stop</text>
</a>
</g>
<!-- Node1&#45;&gt;Node4 -->
<g id="edge6" class="edge"><title>Node1&#45;&gt;Node4</title>
<path fill="none" stroke="midnightblue" d="M153.844,-121C171.568,-121 190.179,-121 207.47,-121"/>
<polygon fill="midnightblue" stroke="midnightblue" points="153.528,-117.5 143.528,-121 153.527,-124.5 153.528,-117.5"/>
</g>
<!-- Node5 -->
<g id="node9" class="node"><title>Node5</title>
<a xlink:href="../../d0/d61/a00100.htm#ae07a0faea5e911fc4516e4596afe615e" target="_top" xlink:title="stores the simulation in an output stream ">
<polygon fill="none" stroke="black" points="207.5,-52 207.5,-86 350.5,-86 350.5,-52 207.5,-52"/>
<text text-anchor="start" x="215.5" y="-73.9" font-family="Helvetica,sans-Serif" font-size="9.00">de.tu_clausthal.in.mec.runtime.</text>
<text text-anchor="middle" x="279" y="-60.9" font-family="Helvetica,sans-Serif" font-size="9.00">CSimulation.store</text>
</a>
</g>
<!-- Node1&#45;&gt;Node5 -->
<g id="edge8" class="edge"><title>Node1&#45;&gt;Node5</title>
<path fill="none" stroke="midnightblue" d="M149.572,-101.513C169.782,-96.4365 191.4,-91.0057 211.068,-86.065"/>
<polygon fill="midnightblue" stroke="midnightblue" points="148.625,-98.1423 139.78,-103.973 150.331,-104.931 148.625,-98.1423"/>
</g>
<!-- Node6 -->
<g id="node11" class="node"><title>Node6</title>
<a xlink:href="../../d0/d61/a00100.htm#a4a3abe99f57c6a926a3fe32fec979fb7" target="_top" xlink:title="UI method &#45; disables / enables a layer. ">
<polygon fill="none" stroke="black" points="180.5,-0 180.5,-34 377.5,-34 377.5,-0 180.5,-0"/>
<text text-anchor="start" x="188.5" y="-21.9" font-family="Helvetica,sans-Serif" font-size="9.00">de.tu_clausthal.in.mec.runtime.</text>
<text text-anchor="middle" x="279" y="-8.9" font-family="Helvetica,sans-Serif" font-size="9.00">CSimulation.web_static_disableenablelayer</text>
</a>
</g>
<!-- Node1&#45;&gt;Node6 -->
<g id="edge10" class="edge"><title>Node1&#45;&gt;Node6</title>
<path fill="none" stroke="midnightblue" d="M98.6783,-97.4037C119.519,-80.0907 149.905,-57.2109 180,-43 187.151,-39.6235 194.807,-36.6352 202.577,-34.0022"/>
<polygon fill="midnightblue" stroke="midnightblue" points="96.2858,-94.843 90.9065,-103.971 100.804,-100.19 96.2858,-94.843"/>
</g>
</g>
</svg>
