<?xml version="1.0" encoding="UTF-8" standalone="no"?>
<!DOCTYPE svg PUBLIC "-//W3C//DTD SVG 1.1//EN"
 "http://www.w3.org/Graphics/SVG/1.1/DTD/svg11.dtd">
<!-- Generated by graphviz version 2.26.3 (20100126.1600)
 -->
<!-- Title: de.tu_clausthal.in.mec.runtime.CSimulation.web_static_disableenablelayer Pages: 1 -->
<svg width="390pt" height="94pt"
 viewBox="0.00 0.00 390.00 94.00" xmlns="http://www.w3.org/2000/svg" xmlns:xlink="http://www.w3.org/1999/xlink">
<g id="graph1" class="graph" transform="scale(1 1) rotate(0) translate(4 90)">
<title>de.tu_clausthal.in.mec.runtime.CSimulation.web_static_disableenablelayer</title>
<!-- Node1 -->
<g id="node1" class="node"><title>Node1</title>
<polygon fill="#bfbfbf" stroke="black" points="0.5,-26 0.5,-60 197.5,-60 197.5,-26 0.5,-26"/>
<text text-anchor="start" x="8.5" y="-47.9" font-family="Helvetica,sans-Serif" font-size="9.00">de.tu_clausthal.in.mec.runtime.</text>
<text text-anchor="middle" x="99" y="-34.9" font-family="Helvetica,sans-Serif" font-size="9.00">CSimulation.web_static_disableenablelayer</text>
</g>
<!-- Node2 -->
<g id="node3" class="node"><title>Node2</title>
<a xlink:href="../../d1/dc6/a00037.htm#ae523069a1b523b0e6a0c643049b1d745" target="_top" xlink:title="returns a default string of the resource file ">
<polygon fill="none" stroke="black" points="234,-52 234,-86 382,-86 382,-52 234,-52"/>
<text text-anchor="start" x="242" y="-73.9" font-family="Helvetica,sans-Serif" font-size="9.00">de.tu_clausthal.in.mec.common.</text>
<text text-anchor="middle" x="308" y="-60.9" font-family="Helvetica,sans-Serif" font-size="9.00">CCommon.getResourceString</text>
</a>
</g>
<!-- Node1&#45;&gt;Node2 -->
<g id="edge2" class="edge"><title>Node1&#45;&gt;Node2</title>
<path fill="none" stroke="midnightblue" d="M197.686,-55.2767C206.422,-56.3635 215.212,-57.457 223.812,-58.5268"/>
<polygon fill="midnightblue" stroke="midnightblue" points="223.449,-62.0086 233.805,-59.77 224.313,-55.0621 223.449,-62.0086"/>
</g>
<!-- Node3 -->
<g id="node5" class="node"><title>Node3</title>
<a xlink:href="../../d0/d61/a00100.htm#af3b29eb2768c6c2bfbceebc2db1b8f59" target="_top" xlink:title="checks the running state of the simulation ">
<polygon fill="none" stroke="black" points="236.5,-0 236.5,-34 379.5,-34 379.5,-0 236.5,-0"/>
<text text-anchor="start" x="244.5" y="-21.9" font-family="Helvetica,sans-Serif" font-size="9.00">de.tu_clausthal.in.mec.runtime.</text>
<text text-anchor="middle" x="308" y="-8.9" font-family="Helvetica,sans-Serif" font-size="9.00">CSimulation.isRunning</text>
</a>
</g>
<!-- Node1&#45;&gt;Node3 -->
<g id="edge4" class="edge"><title>Node1&#45;&gt;Node3</title>
<path fill="none" stroke="midnightblue" d="M197.686,-30.7233C207.233,-29.5356 216.845,-28.3399 226.201,-27.1759"/>
<polygon fill="midnightblue" stroke="midnightblue" points="226.748,-30.635 236.239,-25.9272 225.884,-23.6886 226.748,-30.635"/>
</g>
</g>
</svg>
