<?xml version="1.0" encoding="UTF-8" standalone="no"?>
<!DOCTYPE svg PUBLIC "-//W3C//DTD SVG 1.1//EN"
 "http://www.w3.org/Graphics/SVG/1.1/DTD/svg11.dtd">
<!-- Generated by graphviz version 2.26.3 (20100126.1600)
 -->
<!-- Title: de.tu_clausthal.in.mec.runtime.CSimulation.start Pages: 1 -->
<svg width="336pt" height="94pt"
 viewBox="0.00 0.00 336.00 94.00" xmlns="http://www.w3.org/2000/svg" xmlns:xlink="http://www.w3.org/1999/xlink">
<g id="graph1" class="graph" transform="scale(1 1) rotate(0) translate(4 90)">
<title>de.tu_clausthal.in.mec.runtime.CSimulation.start</title>
<!-- Node1 -->
<g id="node1" class="node"><title>Node1</title>
<polygon fill="#bfbfbf" stroke="black" points="0.5,-26 0.5,-60 143.5,-60 143.5,-26 0.5,-26"/>
<text text-anchor="start" x="8.5" y="-47.9" font-family="Helvetica,sans-Serif" font-size="9.00">de.tu_clausthal.in.mec.runtime.</text>
<text text-anchor="middle" x="72" y="-34.9" font-family="Helvetica,sans-Serif" font-size="9.00">CSimulation.start</text>
</g>
<!-- Node2 -->
<g id="node3" class="node"><title>Node2</title>
<a xlink:href="../../d1/dc6/a00037.htm#ae523069a1b523b0e6a0c643049b1d745" target="_top" xlink:title="returns a default string of the resource file ">
<polygon fill="none" stroke="black" points="180,-52 180,-86 328,-86 328,-52 180,-52"/>
<text text-anchor="start" x="188" y="-73.9" font-family="Helvetica,sans-Serif" font-size="9.00">de.tu_clausthal.in.mec.common.</text>
<text text-anchor="middle" x="254" y="-60.9" font-family="Helvetica,sans-Serif" font-size="9.00">CCommon.getResourceString</text>
</a>
</g>
<!-- Node1&#45;&gt;Node2 -->
<g id="edge2" class="edge"><title>Node1&#45;&gt;Node2</title>
<path fill="none" stroke="midnightblue" d="M143.67,-53.2386C152.178,-54.454 160.923,-55.7032 169.587,-56.941"/>
<polygon fill="midnightblue" stroke="midnightblue" points="169.308,-60.4366 179.702,-58.3861 170.298,-53.5069 169.308,-60.4366"/>
</g>
<!-- Node3 -->
<g id="node5" class="node"><title>Node3</title>
<a xlink:href="../../d0/d61/a00100.htm#af3b29eb2768c6c2bfbceebc2db1b8f59" target="_top" xlink:title="checks the running state of the simulation ">
<polygon fill="none" stroke="black" points="182.5,-0 182.5,-34 325.5,-34 325.5,-0 182.5,-0"/>
<text text-anchor="start" x="190.5" y="-21.9" font-family="Helvetica,sans-Serif" font-size="9.00">de.tu_clausthal.in.mec.runtime.</text>
<text text-anchor="middle" x="254" y="-8.9" font-family="Helvetica,sans-Serif" font-size="9.00">CSimulation.isRunning</text>
</a>
</g>
<!-- Node1&#45;&gt;Node3 -->
<g id="edge4" class="edge"><title>Node1&#45;&gt;Node3</title>
<path fill="none" stroke="midnightblue" d="M143.67,-32.7614C153.12,-31.4114 162.862,-30.0198 172.461,-28.6484"/>
<polygon fill="midnightblue" stroke="midnightblue" points="172.991,-32.1084 182.395,-27.2292 172.001,-25.1787 172.991,-32.1084"/>
</g>
</g>
</svg>
