<?xml version="1.0" encoding="UTF-8" standalone="no"?>
<!DOCTYPE svg PUBLIC "-//W3C//DTD SVG 1.1//EN"
 "http://www.w3.org/Graphics/SVG/1.1/DTD/svg11.dtd">
<!-- Generated by graphviz version 2.26.3 (20100126.1600)
 -->
<!-- Title: de.tu_clausthal.in.mec.runtime.CSimulation.getLayerName Pages: 1 -->
<svg width="350pt" height="94pt"
 viewBox="0.00 0.00 350.00 94.00" xmlns="http://www.w3.org/2000/svg" xmlns:xlink="http://www.w3.org/1999/xlink">
<g id="graph1" class="graph" transform="scale(1 1) rotate(0) translate(4 90)">
<title>de.tu_clausthal.in.mec.runtime.CSimulation.getLayerName</title>
<!-- Node1 -->
<g id="node1" class="node"><title>Node1</title>
<polygon fill="#bfbfbf" stroke="black" points="0.5,-26 0.5,-60 143.5,-60 143.5,-26 0.5,-26"/>
<text text-anchor="start" x="8.5" y="-47.9" font-family="Helvetica,sans-Serif" font-size="9.00">de.tu_clausthal.in.mec.runtime.</text>
<text text-anchor="middle" x="72" y="-34.9" font-family="Helvetica,sans-Serif" font-size="9.00">CSimulation.getLayerName</text>
</g>
<!-- Node2 -->
<g id="node3" class="node"><title>Node2</title>
<a xlink:href="../../d0/de8/a00133.htm#acc1c0863405cff44394e647bfe3043c9" target="_top" xlink:title="de.tu_clausthal.in.mec.object.world.\lCWorld.containsKey">
<polygon fill="none" stroke="black" points="180,-52 180,-86 342,-86 342,-52 180,-52"/>
<text text-anchor="start" x="188" y="-73.9" font-family="Helvetica,sans-Serif" font-size="9.00">de.tu_clausthal.in.mec.object.world.</text>
<text text-anchor="middle" x="261" y="-60.9" font-family="Helvetica,sans-Serif" font-size="9.00">CWorld.containsKey</text>
</a>
</g>
<!-- Node1&#45;&gt;Node2 -->
<g id="edge2" class="edge"><title>Node1&#45;&gt;Node2</title>
<path fill="none" stroke="midnightblue" d="M143.722,-52.8666C152.204,-54.0333 160.945,-55.2359 169.651,-56.4335"/>
<polygon fill="midnightblue" stroke="midnightblue" points="169.454,-59.9392 179.837,-57.8348 170.408,-53.0045 169.454,-59.9392"/>
</g>
<!-- Node3 -->
<g id="node5" class="node"><title>Node3</title>
<a xlink:href="../../d1/dc6/a00037.htm#ae523069a1b523b0e6a0c643049b1d745" target="_top" xlink:title="returns a default string of the resource file ">
<polygon fill="none" stroke="black" points="187,-0 187,-34 335,-34 335,-0 187,-0"/>
<text text-anchor="start" x="195" y="-21.9" font-family="Helvetica,sans-Serif" font-size="9.00">de.tu_clausthal.in.mec.common.</text>
<text text-anchor="middle" x="261" y="-8.9" font-family="Helvetica,sans-Serif" font-size="9.00">CCommon.getResourceString</text>
</a>
</g>
<!-- Node1&#45;&gt;Node3 -->
<g id="edge4" class="edge"><title>Node1&#45;&gt;Node3</title>
<path fill="none" stroke="midnightblue" d="M143.722,-33.1334C154.516,-31.6486 165.731,-30.1058 176.757,-28.5889"/>
<polygon fill="midnightblue" stroke="midnightblue" points="177.384,-32.0358 186.813,-27.2056 176.43,-25.1011 177.384,-32.0358"/>
</g>
</g>
</svg>
