<?xml version="1.0" encoding="UTF-8" standalone="no"?>
<!DOCTYPE svg PUBLIC "-//W3C//DTD SVG 1.1//EN"
 "http://www.w3.org/Graphics/SVG/1.1/DTD/svg11.dtd">
<!-- Generated by graphviz version 2.26.3 (20100126.1600)
 -->
<!-- Title: de.tu_clausthal.in.mec.runtime.CSimulation.getInstance Pages: 1 -->
<svg width="388pt" height="774pt"
 viewBox="0.00 0.00 388.00 774.00" xmlns="http://www.w3.org/2000/svg" xmlns:xlink="http://www.w3.org/1999/xlink">
<g id="graph1" class="graph" transform="scale(1 1) rotate(0) translate(4 770)">
<title>de.tu_clausthal.in.mec.runtime.CSimulation.getInstance</title>
<!-- Node1 -->
<g id="node1" class="node"><title>Node1</title>
<polygon fill="#bfbfbf" stroke="black" points="0.5,-376 0.5,-410 143.5,-410 143.5,-376 0.5,-376"/>
<text text-anchor="start" x="8.5" y="-397.9" font-family="Helvetica,sans-Serif" font-size="9.00">de.tu_clausthal.in.mec.runtime.</text>
<text text-anchor="middle" x="72" y="-384.9" font-family="Helvetica,sans-Serif" font-size="9.00">CSimulation.getInstance</text>
</g>
<!-- Node2 -->
<g id="node3" class="node"><title>Node2</title>
<a xlink:href="../../d7/de0/a00022.htm#a1e06044d8a41b4cd8ca4a91bdf1acc6c" target="_top" xlink:title="is called after the OSM viewer is initialize ">
<polygon fill="none" stroke="black" points="192,-732 192,-766 368,-766 368,-732 192,-732"/>
<text text-anchor="start" x="200" y="-753.9" font-family="Helvetica,sans-Serif" font-size="9.00">de.tu_clausthal.in.mec.CBootstrap.after</text>
<text text-anchor="middle" x="280" y="-740.9" font-family="Helvetica,sans-Serif" font-size="9.00">OSMViewerInit</text>
</a>
</g>
<!-- Node1&#45;&gt;Node2 -->
<g id="edge2" class="edge"><title>Node1&#45;&gt;Node2</title>
<path fill="none" stroke="midnightblue" d="M77.3843,-420.069C92.033,-491.1 134.564,-680.294 180,-723 183.529,-726.317 187.426,-729.224 191.574,-731.77"/>
<polygon fill="midnightblue" stroke="midnightblue" points="80.7791,-419.199 75.3521,-410.1 73.9201,-420.597 80.7791,-419.199"/>
</g>
<!-- Node3 -->
<g id="node5" class="node"><title>Node3</title>
<a xlink:href="../../dc/de2/a00024.htm#a74be3ce3b57f1ee1075b79196c8df9cc" target="_top" xlink:title="de.tu_clausthal.in.mec.object.car.\lCCarJasonAgent.CCarJasonAgent">
<polygon fill="none" stroke="black" points="200,-680 200,-714 360,-714 360,-680 200,-680"/>
<text text-anchor="start" x="208" y="-701.9" font-family="Helvetica,sans-Serif" font-size="9.00">de.tu_clausthal.in.mec.object.car.</text>
<text text-anchor="middle" x="280" y="-688.9" font-family="Helvetica,sans-Serif" font-size="9.00">CCarJasonAgent.CCarJasonAgent</text>
</a>
</g>
<!-- Node1&#45;&gt;Node3 -->
<g id="edge4" class="edge"><title>Node1&#45;&gt;Node3</title>
<path fill="none" stroke="midnightblue" d="M74.4835,-420.189C81.0632,-475.886 104.037,-603.387 180,-671 185.896,-676.248 192.719,-680.46 199.976,-683.837"/>
<polygon fill="midnightblue" stroke="midnightblue" points="77.9408,-419.607 73.3753,-410.046 70.9822,-420.367 77.9408,-419.607"/>
</g>
<!-- Node4 -->
<g id="node7" class="node"><title>Node4</title>
<a xlink:href="../../d1/d22/a00057.htm#a2b7bbdc46e76a1a42520ba394479cfc8" target="_top" xlink:title="ctor ">
<polygon fill="none" stroke="black" points="182.5,-614.5 182.5,-661.5 377.5,-661.5 377.5,-614.5 182.5,-614.5"/>
<text text-anchor="start" x="190.5" y="-649.4" font-family="Helvetica,sans-Serif" font-size="9.00">de.tu_clausthal.in.mec.ui.</text>
<text text-anchor="start" x="190.5" y="-636.4" font-family="Helvetica,sans-Serif" font-size="9.00">CInconsistencyEnvironment.CInconsistency</text>
<text text-anchor="middle" x="280" y="-623.4" font-family="Helvetica,sans-Serif" font-size="9.00">Environment</text>
</a>
</g>
<!-- Node1&#45;&gt;Node4 -->
<g id="edge6" class="edge"><title>Node1&#45;&gt;Node4</title>
<path fill="none" stroke="midnightblue" d="M78.5312,-419.933C90.7711,-464.757 121.379,-554.696 180,-605 184.023,-608.453 188.419,-611.546 193.05,-614.319"/>
<polygon fill="midnightblue" stroke="midnightblue" points="81.8648,-418.847 75.9367,-410.066 75.0949,-420.627 81.8648,-418.847"/>
</g>
<!-- Node5 -->
<g id="node9" class="node"><title>Node5</title>
<a xlink:href="../../dd/df4/a00193.htm#a04cfbe5ed0283df8d99dd9869b7f9f8f" target="_top" xlink:title="ctor to registerObject component on the viewer ">
<polygon fill="none" stroke="black" points="220,-562 220,-596 340,-596 340,-562 220,-562"/>
<text text-anchor="start" x="228" y="-583.9" font-family="Helvetica,sans-Serif" font-size="9.00">de.tu_clausthal.in.mec.ui.</text>
<text text-anchor="middle" x="280" y="-570.9" font-family="Helvetica,sans-Serif" font-size="9.00">IUIListener.IUIListener</text>
</a>
</g>
<!-- Node1&#45;&gt;Node5 -->
<g id="edge8" class="edge"><title>Node1&#45;&gt;Node5</title>
<path fill="none" stroke="midnightblue" d="M82.5842,-419.32C98.3607,-455.134 131.484,-518.677 180,-553 191.715,-561.288 205.874,-566.935 219.805,-570.782"/>
<polygon fill="midnightblue" stroke="midnightblue" points="85.7484,-417.818 78.5961,-410.001 79.313,-420.572 85.7484,-417.818"/>
</g>
<!-- Node6 -->
<g id="node11" class="node"><title>Node6</title>
<a xlink:href="../../da/d82/a00091.htm#aa3e31b3535cbad52677fa089a2455fbf" target="_top" xlink:title="de.tu_clausthal.in.mec.ui.\lCOSMMouseListener.mouseClicked">
<polygon fill="none" stroke="black" points="197.5,-510 197.5,-544 362.5,-544 362.5,-510 197.5,-510"/>
<text text-anchor="start" x="205.5" y="-531.9" font-family="Helvetica,sans-Serif" font-size="9.00">de.tu_clausthal.in.mec.ui.</text>
<text text-anchor="middle" x="280" y="-518.9" font-family="Helvetica,sans-Serif" font-size="9.00">COSMMouseListener.mouseClicked</text>
</a>
</g>
<!-- Node1&#45;&gt;Node6 -->
<g id="edge10" class="edge"><title>Node1&#45;&gt;Node6</title>
<path fill="none" stroke="midnightblue" d="M90.5937,-418.224C110.147,-442.949 143.151,-479.908 180,-501 185.916,-504.386 192.279,-507.34 198.826,-509.915"/>
<polygon fill="midnightblue" stroke="midnightblue" points="93.1432,-415.8 84.2542,-410.035 87.6079,-420.085 93.1432,-415.8"/>
</g>
<!-- Node7 -->
<g id="node13" class="node"><title>Node7</title>
<a xlink:href="../../dd/df4/a00193.htm#a6ccb5b47bee31e73fac796dcc83560ff" target="_top" xlink:title="de.tu_clausthal.in.mec.ui.\lIUIListener.mousePressed">
<polygon fill="none" stroke="black" points="217.5,-458 217.5,-492 342.5,-492 342.5,-458 217.5,-458"/>
<text text-anchor="start" x="225.5" y="-479.9" font-family="Helvetica,sans-Serif" font-size="9.00">de.tu_clausthal.in.mec.ui.</text>
<text text-anchor="middle" x="280" y="-466.9" font-family="Helvetica,sans-Serif" font-size="9.00">IUIListener.mousePressed</text>
</a>
</g>
<!-- Node1&#45;&gt;Node7 -->
<g id="edge12" class="edge"><title>Node1&#45;&gt;Node7</title>
<path fill="none" stroke="midnightblue" d="M109.453,-415.066C129.807,-426.372 155.718,-439.683 180,-449 191.891,-453.562 204.878,-457.594 217.439,-461.038"/>
<polygon fill="midnightblue" stroke="midnightblue" points="110.949,-411.891 100.518,-410.033 107.513,-417.99 110.949,-411.891"/>
</g>
<!-- Node8 -->
<g id="node15" class="node"><title>Node8</title>
<a xlink:href="../../d7/de0/a00022.htm#a2b85579e5991479dc2ce8def15ac0bf9" target="_top" xlink:title="is called on application closed ">
<polygon fill="none" stroke="black" points="195.5,-406 195.5,-440 364.5,-440 364.5,-406 195.5,-406"/>
<text text-anchor="start" x="203.5" y="-427.9" font-family="Helvetica,sans-Serif" font-size="9.00">de.tu_clausthal.in.mec.CBootstrap.on</text>
<text text-anchor="middle" x="280" y="-414.9" font-family="Helvetica,sans-Serif" font-size="9.00">ApplicationClose</text>
</a>
</g>
<!-- Node1&#45;&gt;Node8 -->
<g id="edge14" class="edge"><title>Node1&#45;&gt;Node8</title>
<path fill="none" stroke="midnightblue" d="M153.486,-404.753C167.242,-406.737 181.551,-408.801 195.384,-410.796"/>
<polygon fill="midnightblue" stroke="midnightblue" points="153.979,-401.288 143.582,-403.324 152.98,-408.216 153.979,-401.288"/>
</g>
<!-- Node9 -->
<g id="node17" class="node"><title>Node9</title>
<a xlink:href="../../d8/d72/a00199.htm#ad370abe0809fc548492e3bbcc2d64834" target="_top" xlink:title="de.tu_clausthal.in.mec.object.waypoint.point.\lIWayPointBase\&lt; T, P extends IFactory\l\&lt; T \&gt;, N extends IGenerator \&gt;.onClick">
<polygon fill="none" stroke="black" points="180.5,-340.5 180.5,-387.5 379.5,-387.5 379.5,-340.5 180.5,-340.5"/>
<text text-anchor="start" x="188.5" y="-375.4" font-family="Helvetica,sans-Serif" font-size="9.00">de.tu_clausthal.in.mec.object.waypoint.point.</text>
<text text-anchor="start" x="188.5" y="-362.4" font-family="Helvetica,sans-Serif" font-size="9.00">IWayPointBase&lt; T, P extends IFactory</text>
<text text-anchor="middle" x="280" y="-349.4" font-family="Helvetica,sans-Serif" font-size="9.00">&lt; T &gt;, N extends IGenerator &gt;.onClick</text>
</a>
</g>
<!-- Node1&#45;&gt;Node9 -->
<g id="edge16" class="edge"><title>Node1&#45;&gt;Node9</title>
<path fill="none" stroke="midnightblue" d="M153.729,-381.605C162.472,-380.386 171.436,-379.136 180.357,-377.892"/>
<polygon fill="midnightblue" stroke="midnightblue" points="153.003,-378.172 143.582,-383.02 153.969,-385.105 153.003,-378.172"/>
</g>
<!-- Node10 -->
<g id="node19" class="node"><title>Node10</title>
<a xlink:href="../../d6/daa/a00187.htm#a0b5d476a3e11e17537f0c7f0a7407455" target="_top" xlink:title="is called on simulation reset ">
<polygon fill="none" stroke="black" points="205.5,-288 205.5,-322 354.5,-322 354.5,-288 205.5,-288"/>
<text text-anchor="start" x="213.5" y="-309.9" font-family="Helvetica,sans-Serif" font-size="9.00">de.tu_clausthal.in.mec.object.</text>
<text text-anchor="middle" x="280" y="-296.9" font-family="Helvetica,sans-Serif" font-size="9.00">ISingleLayer.onSimulationReset</text>
</a>
</g>
<!-- Node1&#45;&gt;Node10 -->
<g id="edge18" class="edge"><title>Node1&#45;&gt;Node10</title>
<path fill="none" stroke="midnightblue" d="M105.646,-370.562C126.378,-357.541 153.906,-341.658 180,-331 188.054,-327.71 196.646,-324.734 205.282,-322.07"/>
<polygon fill="midnightblue" stroke="midnightblue" points="103.753,-367.618 97.2005,-375.944 107.515,-373.522 103.753,-367.618"/>
</g>
<!-- Node11 -->
<g id="node21" class="node"><title>Node11</title>
<a xlink:href="../../db/db6/a00074.htm#afe1412e8bdb9d3e7a31e72d972498d95" target="_top" xlink:title="process layer ">
<polygon fill="none" stroke="black" points="198,-236 198,-270 362,-270 362,-236 198,-236"/>
<text text-anchor="start" x="206" y="-257.9" font-family="Helvetica,sans-Serif" font-size="9.00">de.tu_clausthal.in.mec.runtime.core.</text>
<text text-anchor="middle" x="280" y="-244.9" font-family="Helvetica,sans-Serif" font-size="9.00">CMainLoop.processLayer</text>
</a>
</g>
<!-- Node1&#45;&gt;Node11 -->
<g id="edge20" class="edge"><title>Node1&#45;&gt;Node11</title>
<path fill="none" stroke="midnightblue" d="M89.3887,-367.558C108.57,-341.446 141.824,-301.542 180,-279 185.792,-275.58 192.034,-272.603 198.468,-270.015"/>
<polygon fill="midnightblue" stroke="midnightblue" points="86.4306,-365.677 83.4365,-375.84 92.1148,-369.762 86.4306,-365.677"/>
</g>
<!-- Node12 -->
<g id="node23" class="node"><title>Node12</title>
<a xlink:href="../../de/d45/a00175.htm#a010b1a79286a0d816356d9783ca15c44" target="_top" xlink:title="runs the repaint of the layer ">
<polygon fill="none" stroke="black" points="202.5,-170.5 202.5,-217.5 357.5,-217.5 357.5,-170.5 202.5,-170.5"/>
<text text-anchor="start" x="210.5" y="-205.4" font-family="Helvetica,sans-Serif" font-size="9.00">de.tu_clausthal.in.mec.object.</text>
<text text-anchor="start" x="210.5" y="-192.4" font-family="Helvetica,sans-Serif" font-size="9.00">IMultiLayer&lt; T extends ISteppable</text>
<text text-anchor="middle" x="280" y="-179.4" font-family="Helvetica,sans-Serif" font-size="9.00"> &amp;Painter &gt;.repaint</text>
</a>
</g>
<!-- Node1&#45;&gt;Node12 -->
<g id="edge22" class="edge"><title>Node1&#45;&gt;Node12</title>
<path fill="none" stroke="midnightblue" d="M82.5231,-366.428C98.3222,-329.854 131.575,-264.302 180,-227 186.807,-221.756 194.485,-217.326 202.486,-213.587"/>
<polygon fill="midnightblue" stroke="midnightblue" points="79.1786,-365.353 78.5317,-375.928 85.6321,-368.064 79.1786,-365.353"/>
</g>
<!-- Node13 -->
<g id="node25" class="node"><title>Node13</title>
<a xlink:href="../../da/da0/a00009.htm#a576715e25206da13a394cf9ad378296c" target="_top" xlink:title="UI method &#45; delete an agent. ">
<polygon fill="none" stroke="black" points="189.5,-118 189.5,-152 370.5,-152 370.5,-118 189.5,-118"/>
<text text-anchor="start" x="197.5" y="-139.9" font-family="Helvetica,sans-Serif" font-size="9.00">de.tu_clausthal.in.mec.ui.</text>
<text text-anchor="middle" x="280" y="-126.9" font-family="Helvetica,sans-Serif" font-size="9.00">CAgentEnvironment.web_static_remove</text>
</a>
</g>
<!-- Node1&#45;&gt;Node13 -->
<g id="edge24" class="edge"><title>Node1&#45;&gt;Node13</title>
<path fill="none" stroke="midnightblue" d="M76.8096,-365.916C86.8989,-317.287 114.952,-215.207 180,-161 183.996,-157.67 188.371,-154.76 192.986,-152.219"/>
<polygon fill="midnightblue" stroke="midnightblue" points="73.3243,-365.499 74.8205,-375.988 80.1917,-366.856 73.3243,-365.499"/>
</g>
<!-- Node14 -->
<g id="node27" class="node"><title>Node14</title>
<a xlink:href="../../d8/d17/a00114.htm#a19b77546b4d8b9185e0943266e560d0a" target="_top" xlink:title="UI method &#45; sets the driving model. ">
<polygon fill="none" stroke="black" points="220,-52.5 220,-99.5 340,-99.5 340,-52.5 220,-52.5"/>
<text text-anchor="start" x="228" y="-87.4" font-family="Helvetica,sans-Serif" font-size="9.00">de.tu_clausthal.in.mec.ui.</text>
<text text-anchor="start" x="228" y="-74.4" font-family="Helvetica,sans-Serif" font-size="9.00">CTrafficEnvironment.web</text>
<text text-anchor="middle" x="280" y="-61.4" font-family="Helvetica,sans-Serif" font-size="9.00">_static_setdrivemodel</text>
</a>
</g>
<!-- Node1&#45;&gt;Node14 -->
<g id="edge26" class="edge"><title>Node1&#45;&gt;Node14</title>
<path fill="none" stroke="midnightblue" d="M74.6601,-365.636C81.5688,-309.505 105.123,-180.606 180,-109 190.967,-98.5125 205.334,-91.3566 219.744,-86.4744"/>
<polygon fill="midnightblue" stroke="midnightblue" points="71.1505,-365.52 73.49,-375.854 78.1051,-366.317 71.1505,-365.52"/>
</g>
<!-- Node15 -->
<g id="node29" class="node"><title>Node15</title>
<a xlink:href="../../da/da0/a00009.htm#a5b903868f9703a4878cc05fbdc4cace8" target="_top" xlink:title="UI method &#45; writes the content to the agent file. ">
<polygon fill="none" stroke="black" points="195,-0 195,-34 365,-34 365,-0 195,-0"/>
<text text-anchor="start" x="203" y="-21.9" font-family="Helvetica,sans-Serif" font-size="9.00">de.tu_clausthal.in.mec.ui.</text>
<text text-anchor="middle" x="280" y="-8.9" font-family="Helvetica,sans-Serif" font-size="9.00">CAgentEnvironment.web_static_write</text>
</a>
</g>
<!-- Node1&#45;&gt;Node15 -->
<g id="edge28" class="edge"><title>Node1&#45;&gt;Node15</title>
<path fill="none" stroke="midnightblue" d="M76.8737,-365.796C90.6743,-291.695 132.138,-88.7585 180,-43 184.408,-38.7853 189.41,-35.2315 194.769,-32.2374"/>
<polygon fill="midnightblue" stroke="midnightblue" points="73.4078,-365.292 75.0408,-375.76 80.2923,-366.558 73.4078,-365.292"/>
</g>
</g>
</svg>
