<?xml version="1.0" encoding="UTF-8" standalone="no"?>
<!DOCTYPE svg PUBLIC "-//W3C//DTD SVG 1.1//EN"
 "http://www.w3.org/Graphics/SVG/1.1/DTD/svg11.dtd">
<!-- Generated by graphviz version 2.26.3 (20100126.1600)
 -->
<!-- Title: de.tu_clausthal.in.mec.object.mas.generic.IAtom&lt; T &gt; Pages: 1 -->
<svg width="198pt" height="200pt"
 viewBox="0.00 0.00 198.00 200.00" xmlns="http://www.w3.org/2000/svg" xmlns:xlink="http://www.w3.org/1999/xlink">
<g id="graph1" class="graph" transform="scale(1 1) rotate(0) translate(4 196)">
<title>de.tu_clausthal.in.mec.object.mas.generic.IAtom&lt; T &gt;</title>
<!-- Node1 -->
<g id="node1" class="node"><title>Node1</title>
<polygon fill="#bfbfbf" stroke="black" points="0,-1 0,-77 190,-77 190,-1 0,-1"/>
<text text-anchor="start" x="8" y="-64.9" font-family="Helvetica,sans-Serif" font-size="9.00">de.tu_clausthal.in.mec.object.mas.generic.</text>
<text text-anchor="middle" x="95" y="-51.9" font-family="Helvetica,sans-Serif" font-size="9.00">IAtom&lt; T &gt;</text>
<polyline fill="none" stroke="black" points="0,-43 190,-43 "/>
<text text-anchor="middle" x="95" y="-30.9" font-family="Helvetica,sans-Serif" font-size="9.00"> </text>
<polyline fill="none" stroke="black" points="0,-22 190,-22 "/>
<text text-anchor="start" x="8" y="-9.9" font-family="Helvetica,sans-Serif" font-size="9.00">+ get()</text>
</g>
<!-- Node2 -->
<g id="node2" class="node"><title>Node2</title>
<a xlink:href="../../d9/dd0/a00191.htm" target="_top" xlink:title="term interface ">
<polygon fill="none" stroke="black" points="0,-115 0,-191 190,-191 190,-115 0,-115"/>
<text text-anchor="start" x="8" y="-178.9" font-family="Helvetica,sans-Serif" font-size="9.00">de.tu_clausthal.in.mec.object.mas.generic.</text>
<text text-anchor="middle" x="95" y="-165.9" font-family="Helvetica,sans-Serif" font-size="9.00">ITerm</text>
<polyline fill="none" stroke="black" points="0,-157 190,-157 "/>
<text text-anchor="middle" x="95" y="-144.9" font-family="Helvetica,sans-Serif" font-size="9.00"> </text>
<polyline fill="none" stroke="black" points="0,-136 190,-136 "/>
<text text-anchor="start" x="8" y="-123.9" font-family="Helvetica,sans-Serif" font-size="9.00">+ instanceOf()</text>
</a>
</g>
<!-- Node2&#45;&gt;Node1 -->
<g id="edge2" class="edge"><title>Node2&#45;&gt;Node1</title>
<path fill="none" stroke="midnightblue" d="M95,-104.623C95,-95.5202 95,-86.1166 95,-77.3705"/>
<polygon fill="none" stroke="midnightblue" points="91.5001,-104.722 95,-114.723 98.5001,-104.723 91.5001,-104.722"/>
</g>
</g>
</svg>
