<?xml version="1.0" encoding="UTF-8" standalone="no"?>
<!DOCTYPE svg PUBLIC "-//W3C//DTD SVG 1.1//EN"
 "http://www.w3.org/Graphics/SVG/1.1/DTD/svg11.dtd">
<!-- Generated by graphviz version 2.26.3 (20100126.1600)
 -->
<!-- Title: de.tu_clausthal.in.mec.ui.web.CVirtualLocation Pages: 1 -->
<!--zoomable 858 -->
<svg id="main" version="1.1" xmlns="http://www.w3.org/2000/svg" xmlns:xlink="http://www.w3.org/1999/xlink" xml:space="preserve" onload="init(evt)">
<style type="text/css"><![CDATA[
.edge:hover path { stroke: red; }
.edge:hover polygon { stroke: red; fill: red; }
]]></style>
<script type="text/javascript"><![CDATA[
var edges = document.getElementsByTagName('g');
if (edges && edges.length) {
  for (var i=0;i<edges.length;i++) {
    if (edges[i].id.substr(0,4)=='edge') {
      edges[i].setAttribute('class','edge');
    }
  }
}
]]></script>
        <defs>
                <circle id="rim" cx="0" cy="0" r="7"/>
                <circle id="rim2" cx="0" cy="0" r="3.5"/>
                <g id="zoomPlus">
                        <use xlink:href="#rim" fill="#404040">
                                <set attributeName="fill" to="#808080" begin="zoomplus.mouseover" end="zoomplus.mouseout"/>
                        </use>
                        <path d="M-4,0h8M0,-4v8" fill="none" stroke="white" stroke-width="1.5" pointer-events="none"/>
                </g>
                <g id="zoomMin">
                        <use xlink:href="#rim" fill="#404040">
                                <set attributeName="fill" to="#808080" begin="zoomminus.mouseover" end="zoomminus.mouseout"/>
                        </use>
                        <path d="M-4,0h8" fill="none" stroke="white" stroke-width="1.5" pointer-events="none"/>
                </g>
                <g id="dirArrow">
                        <path fill="none" stroke="white" stroke-width="1.5" d="M0,-3.0v7 M-2.5,-0.5L0,-3.0L2.5,-0.5"/>
                </g>
               <g id="resetDef">
                       <use xlink:href="#rim2" fill="#404040">
                               <set attributeName="fill" to="#808080" begin="reset.mouseover" end="reset.mouseout"/>
                       </use>
               </g>
        </defs>

<script type="text/javascript">
var viewWidth = 315;
var viewHeight = 858;
var sectionId = 'dynsection-0';
</script>
<script xlink:href="../../svgpan.js"/>
<svg id="graph" class="graph">
<g id="viewport">
<title>de.tu_clausthal.in.mec.ui.web.CVirtualLocation</title>
<!-- Node1 -->
<g id="node1" class="node"><title>Node1</title>
<polygon fill="#bfbfbf" stroke="black" points="47,-1 47,-129 187,-129 187,-1 47,-1"/>
<text text-anchor="start" x="55" y="-116.9" font-family="Helvetica,sans-Serif" font-size="9.00">de.tu_clausthal.in.mec.ui.web.</text>
<text text-anchor="middle" x="117" y="-103.9" font-family="Helvetica,sans-Serif" font-size="9.00">CVirtualLocation</text>
<polyline fill="none" stroke="black" points="47,-95 187,-95 "/>
<text text-anchor="start" x="55" y="-82.9" font-family="Helvetica,sans-Serif" font-size="9.00">&#45; m_locations</text>
<polyline fill="none" stroke="black" points="47,-74 187,-74 "/>
<text text-anchor="start" x="55" y="-61.9" font-family="Helvetica,sans-Serif" font-size="9.00">+ CVirtualLocation()</text>
<text text-anchor="start" x="55" y="-48.9" font-family="Helvetica,sans-Serif" font-size="9.00">+ add()</text>
<text text-anchor="start" x="55" y="-35.9" font-family="Helvetica,sans-Serif" font-size="9.00">+ contains()</text>
<text text-anchor="start" x="55" y="-22.9" font-family="Helvetica,sans-Serif" font-size="9.00">+ containsexact()</text>
<text text-anchor="start" x="55" y="-9.9" font-family="Helvetica,sans-Serif" font-size="9.00">+ get()</text>
</g>
<!-- Node2 -->
<g id="node2" class="node"><title>Node2</title>
<a xlink:href="../../d8/dfa/a00121.htm" target="_top" xlink:title="definition of virtual directory locations ">
<polygon fill="none" stroke="black" points="47,-180.5 47,-399.5 187,-399.5 187,-180.5 47,-180.5"/>
<text text-anchor="start" x="55" y="-387.4" font-family="Helvetica,sans-Serif" font-size="9.00">de.tu_clausthal.in.mec.ui.web.</text>
<text text-anchor="middle" x="117" y="-374.4" font-family="Helvetica,sans-Serif" font-size="9.00">CVirtualDirectory</text>
<polyline fill="none" stroke="black" points="47,-365.5 187,-365.5 "/>
<text text-anchor="start" x="55" y="-353.4" font-family="Helvetica,sans-Serif" font-size="9.00">&#45; m_directory</text>
<text text-anchor="start" x="55" y="-340.4" font-family="Helvetica,sans-Serif" font-size="9.00">&#45; m_index</text>
<text text-anchor="start" x="55" y="-327.4" font-family="Helvetica,sans-Serif" font-size="9.00">&#45; m_uri</text>
<text text-anchor="start" x="55" y="-314.4" font-family="Helvetica,sans-Serif" font-size="9.00">&#45; c_allowchar</text>
<text text-anchor="start" x="55" y="-301.4" font-family="Helvetica,sans-Serif" font-size="9.00">&#45; c_seperator</text>
<polyline fill="none" stroke="black" points="47,-292.5 187,-292.5 "/>
<text text-anchor="start" x="55" y="-280.4" font-family="Helvetica,sans-Serif" font-size="9.00">+ CVirtualDirectory()</text>
<text text-anchor="start" x="55" y="-267.4" font-family="Helvetica,sans-Serif" font-size="9.00">+ CVirtualDirectory()</text>
<text text-anchor="start" x="55" y="-254.4" font-family="Helvetica,sans-Serif" font-size="9.00">+ CVirtualDirectory()</text>
<text text-anchor="start" x="55" y="-241.4" font-family="Helvetica,sans-Serif" font-size="9.00">+ equals()</text>
<text text-anchor="start" x="55" y="-228.4" font-family="Helvetica,sans-Serif" font-size="9.00">+ get()</text>
<text text-anchor="start" x="55" y="-215.4" font-family="Helvetica,sans-Serif" font-size="9.00">+ getMarkDownRenderer()</text>
<text text-anchor="start" x="55" y="-202.4" font-family="Helvetica,sans-Serif" font-size="9.00">+ hashCode()</text>
<text text-anchor="start" x="55" y="-189.4" font-family="Helvetica,sans-Serif" font-size="9.00">+ match()</text>
</a>
</g>
<!-- Node2&#45;&gt;Node1 -->
<g id="edge2" class="edge"><title>Node2&#45;&gt;Node1</title>
<path fill="none" stroke="#404040" d="M117,-180.466C117,-167.306 117,-154.092 117,-141.545"/>
<polygon fill="none" stroke="#404040" points="117,-141.247 113,-135.247 117,-129.247 121,-135.247 117,-141.247"/>
<text text-anchor="middle" x="156.5" y="-153.4" font-family="Helvetica,sans-Serif" font-size="9.00"> &#45;m_defaultlocation</text>
</g>
<!-- Node3 -->
<g id="node4" class="node"><title>Node3</title>
<a xlink:href="../../d3/d2a/a00195.htm" target="_top" xlink:title="interface of locations ">
<polygon fill="none" stroke="black" points="0,-529 0,-631 140,-631 140,-529 0,-529"/>
<text text-anchor="start" x="8" y="-618.9" font-family="Helvetica,sans-Serif" font-size="9.00">de.tu_clausthal.in.mec.ui.web.</text>
<text text-anchor="middle" x="70" y="-605.9" font-family="Helvetica,sans-Serif" font-size="9.00">IVirtualLocation</text>
<polyline fill="none" stroke="black" points="0,-597 140,-597 "/>
<text text-anchor="middle" x="70" y="-584.9" font-family="Helvetica,sans-Serif" font-size="9.00"> </text>
<polyline fill="none" stroke="black" points="0,-576 140,-576 "/>
<text text-anchor="start" x="8" y="-563.9" font-family="Helvetica,sans-Serif" font-size="9.00">+ get()</text>
<text text-anchor="start" x="8" y="-550.9" font-family="Helvetica,sans-Serif" font-size="9.00">+ getMarkDownRenderer()</text>
<text text-anchor="start" x="8" y="-537.9" font-family="Helvetica,sans-Serif" font-size="9.00">+ match()</text>
</a>
</g>
<!-- Node3&#45;&gt;Node2 -->
<g id="edge4" class="edge"><title>Node3&#45;&gt;Node2</title>
<path fill="none" stroke="midnightblue" d="M79.9074,-518.869C85.5165,-484.26 92.7002,-439.935 99.2491,-399.527"/>
<polygon fill="none" stroke="midnightblue" points="76.4394,-518.39 78.2945,-528.821 83.3493,-519.51 76.4394,-518.39"/>
</g>
<!-- Node4 -->
<g id="node6" class="node"><title>Node4</title>
<a xlink:href="../../db/df8/a00076.htm" target="_top" xlink:title="class of the link and layout markdown renderer ">
<polygon fill="none" stroke="black" points="158,-451 158,-709 298,-709 298,-451 158,-451"/>
<text text-anchor="start" x="166" y="-696.9" font-family="Helvetica,sans-Serif" font-size="9.00">de.tu_clausthal.in.mec.ui.web.</text>
<text text-anchor="middle" x="228" y="-683.9" font-family="Helvetica,sans-Serif" font-size="9.00">CMarkdownRenderer</text>
<polyline fill="none" stroke="black" points="158,-675 298,-675 "/>
<text text-anchor="start" x="166" y="-662.9" font-family="Helvetica,sans-Serif" font-size="9.00">&#45; m_baseuri</text>
<text text-anchor="start" x="166" y="-649.9" font-family="Helvetica,sans-Serif" font-size="9.00">&#45; m_cssuri</text>
<polyline fill="none" stroke="black" points="158,-641 298,-641 "/>
<text text-anchor="start" x="166" y="-628.9" font-family="Helvetica,sans-Serif" font-size="9.00">+ CMarkdownRenderer()</text>
<text text-anchor="start" x="166" y="-615.9" font-family="Helvetica,sans-Serif" font-size="9.00">+ CMarkdownRenderer()</text>
<text text-anchor="start" x="166" y="-602.9" font-family="Helvetica,sans-Serif" font-size="9.00">+ CMarkdownRenderer()</text>
<text text-anchor="start" x="166" y="-589.9" font-family="Helvetica,sans-Serif" font-size="9.00">+ CMarkdownRenderer()</text>
<text text-anchor="start" x="166" y="-576.9" font-family="Helvetica,sans-Serif" font-size="9.00">+ getHTML()</text>
<text text-anchor="start" x="166" y="-563.9" font-family="Helvetica,sans-Serif" font-size="9.00">+ getMimeType()</text>
<text text-anchor="start" x="166" y="-550.9" font-family="Helvetica,sans-Serif" font-size="9.00">+ render()</text>
<text text-anchor="start" x="166" y="-537.9" font-family="Helvetica,sans-Serif" font-size="9.00">+ render()</text>
<text text-anchor="start" x="166" y="-524.9" font-family="Helvetica,sans-Serif" font-size="9.00">+ render()</text>
<text text-anchor="start" x="166" y="-511.9" font-family="Helvetica,sans-Serif" font-size="9.00">&#45; getHTMLDocument()</text>
<text text-anchor="start" x="166" y="-498.9" font-family="Helvetica,sans-Serif" font-size="9.00">&#45; getHTMLFragment()</text>
<text text-anchor="start" x="166" y="-485.9" font-family="Helvetica,sans-Serif" font-size="9.00">&#45; getURL()</text>
<text text-anchor="start" x="166" y="-472.9" font-family="Helvetica,sans-Serif" font-size="9.00">&#45; getWikipediaLink()</text>
<text text-anchor="start" x="166" y="-459.9" font-family="Helvetica,sans-Serif" font-size="9.00">&#45; isURL()</text>
</a>
</g>
<!-- Node4&#45;&gt;Node2 -->
<g id="edge6" class="edge"><title>Node4&#45;&gt;Node2</title>
<path fill="none" stroke="#404040" d="M178.506,-450.69C173.453,-437.49 168.333,-424.113 163.316,-411.006"/>
<polygon fill="none" stroke="#404040" points="163.228,-410.775 157.347,-406.601 158.938,-399.568 164.819,-403.742 163.228,-410.775"/>
<text text-anchor="middle" x="199.5" y="-423.4" font-family="Helvetica,sans-Serif" font-size="9.00"> &#45;m_markdown</text>
</g>
<!-- Node5 -->
<g id="node8" class="node"><title>Node5</title>
<a xlink:href="../../db/df8/a00076.htm#d9/de6/a00404" target="_top" xlink:title="enum to define return type of the HTML document * ">
<polygon fill="none" stroke="black" points="149,-760.5 149,-849.5 307,-849.5 307,-760.5 149,-760.5"/>
<text text-anchor="start" x="157" y="-837.4" font-family="Helvetica,sans-Serif" font-size="9.00">de.tu_clausthal.in.mec.ui.web.</text>
<text text-anchor="middle" x="228" y="-824.4" font-family="Helvetica,sans-Serif" font-size="9.00">CMarkdownRenderer.EHTMLType</text>
<polyline fill="none" stroke="black" points="149,-815.5 307,-815.5 "/>
<text text-anchor="start" x="157" y="-803.4" font-family="Helvetica,sans-Serif" font-size="9.00">+ Document</text>
<text text-anchor="start" x="157" y="-790.4" font-family="Helvetica,sans-Serif" font-size="9.00">+ Fragment</text>
<polyline fill="none" stroke="black" points="149,-781.5 307,-781.5 "/>
<text text-anchor="middle" x="228" y="-769.4" font-family="Helvetica,sans-Serif" font-size="9.00"> </text>
</a>
</g>
<!-- Node5&#45;&gt;Node4 -->
<g id="edge8" class="edge"><title>Node5&#45;&gt;Node4</title>
<path fill="none" stroke="#404040" d="M228,-760.278C228,-748.582 228,-735.327 228,-721.441"/>
<polygon fill="none" stroke="#404040" points="228,-721.099 224,-715.099 228,-709.099 232,-715.099 228,-721.099"/>
<text text-anchor="middle" x="254.5" y="-733.4" font-family="Helvetica,sans-Serif" font-size="9.00"> &#45;m_htmltype</text>
</g>
</g>
</svg>
        <g id="navigator" transform="translate(0 0)" fill="#404254">
                <rect fill="#f2f5e9" fill-opacity="0.5" stroke="#606060" stroke-width=".5" x="0" y="0" width="60" height="60"/>
                <use id="zoomplus" xlink:href="#zoomPlus" x="17" y="9" onmousedown="handleZoom(evt,'in')"/>
                <use id="zoomminus" xlink:href="#zoomMin" x="42" y="9" onmousedown="handleZoom(evt,'out')"/>
                <use id="reset" xlink:href="#resetDef" x="30" y="36" onmousedown="handleReset()"/>
                <g id="arrowUp" xlink:href="#dirArrow" transform="translate(30 24)" onmousedown="handlePan(0,-1)">
                  <use xlink:href="#rim" fill="#404040">
                        <set attributeName="fill" to="#808080" begin="arrowUp.mouseover" end="arrowUp.mouseout"/>
                  </use>
                  <path fill="none" stroke="white" stroke-width="1.5" d="M0,-3.0v7 M-2.5,-0.5L0,-3.0L2.5,-0.5"/>
                </g>
                <g id="arrowRight" xlink:href="#dirArrow" transform="rotate(90) translate(36 -43)" onmousedown="handlePan(1,0)">
                  <use xlink:href="#rim" fill="#404040">
                        <set attributeName="fill" to="#808080" begin="arrowRight.mouseover" end="arrowRight.mouseout"/>
                  </use>
                  <path fill="none" stroke="white" stroke-width="1.5" d="M0,-3.0v7 M-2.5,-0.5L0,-3.0L2.5,-0.5"/>
                </g>
                <g id="arrowDown" xlink:href="#dirArrow" transform="rotate(180) translate(-30 -48)" onmousedown="handlePan(0,1)">
                  <use xlink:href="#rim" fill="#404040">
                        <set attributeName="fill" to="#808080" begin="arrowDown.mouseover" end="arrowDown.mouseout"/>
                  </use>
                  <path fill="none" stroke="white" stroke-width="1.5" d="M0,-3.0v7 M-2.5,-0.5L0,-3.0L2.5,-0.5"/>
                </g>
                <g id="arrowLeft" xlink:href="#dirArrow" transform="rotate(270) translate(-36 17)" onmousedown="handlePan(-1,0)">
                  <use xlink:href="#rim" fill="#404040">
                        <set attributeName="fill" to="#808080" begin="arrowLeft.mouseover" end="arrowLeft.mouseout"/>
                  </use>
                  <path fill="none" stroke="white" stroke-width="1.5" d="M0,-3.0v7 M-2.5,-0.5L0,-3.0L2.5,-0.5"/>
                </g>
        </g>
        <svg viewBox="0 0 15 15" width="100%" height="30px" preserveAspectRatio="xMaxYMin meet">
         <g id="arrow_out" transform="scale(0.3 0.3)">
          <a xlink:href="a00883_org.svg" target="_base">
           <rect id="button" ry="5" rx="5" y="6" x="6" height="38" width="38"
                fill="#f2f5e9" fill-opacity="0.5" stroke="#606060" stroke-width="1.0"/>
           <path id="arrow"
             d="M 11.500037,31.436501 C 11.940474,20.09759 22.043105,11.32322 32.158766,21.979434 L 37.068811,17.246167 C 37.068811,17.246167 37.088388,32 37.088388,32 L 22.160133,31.978069 C 22.160133,31.978069 26.997745,27.140456 26.997745,27.140456 C 18.528582,18.264221 13.291696,25.230495 11.500037,31.436501 z"
             style="fill:#404040;"/>
          </a>
         </g>
        </svg>
</svg>
