<?xml version="1.0" encoding="UTF-8" standalone="no"?>
<!DOCTYPE svg PUBLIC "-//W3C//DTD SVG 1.1//EN"
 "http://www.w3.org/Graphics/SVG/1.1/DTD/svg11.dtd">
<!-- Generated by graphviz version 2.26.3 (20100126.1600)
 -->
<!-- Title: de.tu_clausthal.in.mec.object.mas.generic.implementation.CLiteral&lt; T &gt; Pages: 1 -->
<svg width="262pt" height="536pt"
 viewBox="0.00 0.00 262.00 536.00" xmlns="http://www.w3.org/2000/svg" xmlns:xlink="http://www.w3.org/1999/xlink">
<g id="graph1" class="graph" transform="scale(1 1) rotate(0) translate(4 532)">
<title>de.tu_clausthal.in.mec.object.mas.generic.implementation.CLiteral&lt; T &gt;</title>
<!-- Node1 -->
<g id="node1" class="node"><title>Node1</title>
<polygon fill="#bfbfbf" stroke="black" points="-0.5,-0.5 -0.5,-271.5 254.5,-271.5 254.5,-0.5 -0.5,-0.5"/>
<text text-anchor="start" x="7.5" y="-259.4" font-family="Helvetica,sans-Serif" font-size="9.00">de.tu_clausthal.in.mec.object.mas.generic.implementation.</text>
<text text-anchor="middle" x="127" y="-246.4" font-family="Helvetica,sans-Serif" font-size="9.00">CLiteral&lt; T &gt;</text>
<polyline fill="none" stroke="black" points="-0.5,-237.5 254.5,-237.5 "/>
<text text-anchor="start" x="7.5" y="-225.4" font-family="Helvetica,sans-Serif" font-size="9.00"># m_functor</text>
<text text-anchor="start" x="7.5" y="-212.4" font-family="Helvetica,sans-Serif" font-size="9.00"># m_literal</text>
<text text-anchor="start" x="7.5" y="-199.4" font-family="Helvetica,sans-Serif" font-size="9.00"># m_negated</text>
<polyline fill="none" stroke="black" points="-0.5,-190.5 254.5,-190.5 "/>
<text text-anchor="start" x="7.5" y="-178.4" font-family="Helvetica,sans-Serif" font-size="9.00">+ CLiteral()</text>
<text text-anchor="start" x="7.5" y="-165.4" font-family="Helvetica,sans-Serif" font-size="9.00">+ CLiteral()</text>
<text text-anchor="start" x="7.5" y="-152.4" font-family="Helvetica,sans-Serif" font-size="9.00">+ CLiteral()</text>
<text text-anchor="start" x="7.5" y="-139.4" font-family="Helvetica,sans-Serif" font-size="9.00">+ CLiteral()</text>
<text text-anchor="start" x="7.5" y="-126.4" font-family="Helvetica,sans-Serif" font-size="9.00">+ clone()</text>
<text text-anchor="start" x="7.5" y="-113.4" font-family="Helvetica,sans-Serif" font-size="9.00">+ equals()</text>
<text text-anchor="start" x="7.5" y="-100.4" font-family="Helvetica,sans-Serif" font-size="9.00">+ getAnnotation()</text>
<text text-anchor="start" x="7.5" y="-87.4" font-family="Helvetica,sans-Serif" font-size="9.00">+ getFunctor()</text>
<text text-anchor="start" x="7.5" y="-74.4" font-family="Helvetica,sans-Serif" font-size="9.00">+ getLiteral()</text>
<text text-anchor="start" x="7.5" y="-61.4" font-family="Helvetica,sans-Serif" font-size="9.00">+ getValues()</text>
<text text-anchor="start" x="7.5" y="-48.4" font-family="Helvetica,sans-Serif" font-size="9.00">+ hashCode()</text>
<text text-anchor="start" x="7.5" y="-35.4" font-family="Helvetica,sans-Serif" font-size="9.00">+ instanceOf()</text>
<text text-anchor="start" x="7.5" y="-22.4" font-family="Helvetica,sans-Serif" font-size="9.00">+ isNegated()</text>
<text text-anchor="start" x="7.5" y="-9.4" font-family="Helvetica,sans-Serif" font-size="9.00">+ toString()</text>
</g>
<!-- Node2 -->
<g id="node2" class="node"><title>Node2</title>
<a xlink:href="../../dd/da2/a00192.htm" target="_top" xlink:title="interface for term collection ">
<polygon fill="none" stroke="black" points="32,-335 32,-411 222,-411 222,-335 32,-335"/>
<text text-anchor="start" x="40" y="-398.9" font-family="Helvetica,sans-Serif" font-size="9.00">de.tu_clausthal.in.mec.object.mas.generic.</text>
<text text-anchor="middle" x="127" y="-385.9" font-family="Helvetica,sans-Serif" font-size="9.00">ITermCollection</text>
<polyline fill="none" stroke="black" points="32,-377 222,-377 "/>
<text text-anchor="middle" x="127" y="-364.9" font-family="Helvetica,sans-Serif" font-size="9.00"> </text>
<polyline fill="none" stroke="black" points="32,-356 222,-356 "/>
<text text-anchor="middle" x="127" y="-343.9" font-family="Helvetica,sans-Serif" font-size="9.00"> </text>
</a>
</g>
<!-- Node2&#45;&gt;Node1 -->
<g id="edge2" class="edge"><title>Node2&#45;&gt;Node1</title>
<path fill="none" stroke="#404040" d="M127,-334.922C127,-320.308 127,-302.606 127,-283.856"/>
<polygon fill="none" stroke="#404040" points="127,-283.737 123,-277.737 127,-271.737 131,-277.737 127,-283.737"/>
<text text-anchor="middle" x="161.5" y="-307.9" font-family="Helvetica,sans-Serif" font-size="9.00"> #m_annotations</text>
<text text-anchor="middle" x="161.5" y="-294.9" font-family="Helvetica,sans-Serif" font-size="9.00">#m_values</text>
</g>
<!-- Node3 -->
<g id="node4" class="node"><title>Node3</title>
<a xlink:href="../../d9/dd0/a00191.htm" target="_top" xlink:title="term interface ">
<polygon fill="none" stroke="black" points="32,-451 32,-527 222,-527 222,-451 32,-451"/>
<text text-anchor="start" x="40" y="-514.9" font-family="Helvetica,sans-Serif" font-size="9.00">de.tu_clausthal.in.mec.object.mas.generic.</text>
<text text-anchor="middle" x="127" y="-501.9" font-family="Helvetica,sans-Serif" font-size="9.00">ITerm</text>
<polyline fill="none" stroke="black" points="32,-493 222,-493 "/>
<text text-anchor="middle" x="127" y="-480.9" font-family="Helvetica,sans-Serif" font-size="9.00"> </text>
<polyline fill="none" stroke="black" points="32,-472 222,-472 "/>
<text text-anchor="start" x="40" y="-459.9" font-family="Helvetica,sans-Serif" font-size="9.00">+ instanceOf()</text>
</a>
</g>
<!-- Node3&#45;&gt;Node2 -->
<g id="edge4" class="edge"><title>Node3&#45;&gt;Node2</title>
<path fill="none" stroke="midnightblue" d="M127,-440.661C127,-430.853 127,-420.666 127,-411.264"/>
<polygon fill="none" stroke="midnightblue" points="123.5,-440.696 127,-450.696 130.5,-440.696 123.5,-440.696"/>
</g>
</g>
</svg>
