<?xml version="1.0" encoding="UTF-8" standalone="no"?>
<!DOCTYPE svg PUBLIC "-//W3C//DTD SVG 1.1//EN"
 "http://www.w3.org/Graphics/SVG/1.1/DTD/svg11.dtd">
<!-- Generated by graphviz version 2.26.3 (20100126.1600)
 -->
<!-- Title: de.tu_clausthal.in.mec.runtime.ISteppable Pages: 1 -->
<svg width="1423pt" height="1566pt"
 viewBox="0.00 0.00 1423.00 1566.00" xmlns="http://www.w3.org/2000/svg" xmlns:xlink="http://www.w3.org/1999/xlink">
<g id="graph1" class="graph" transform="scale(1 1) rotate(0) translate(4 1562)">
<title>de.tu_clausthal.in.mec.runtime.ISteppable</title>
<!-- Node1 -->
<g id="node1" class="node"><title>Node1</title>
<polygon fill="#bfbfbf" stroke="black" points="514.5,-1481 514.5,-1557 657.5,-1557 657.5,-1481 514.5,-1481"/>
<text text-anchor="start" x="522.5" y="-1544.9" font-family="Helvetica,sans-Serif" font-size="9.00">de.tu_clausthal.in.mec.runtime.</text>
<text text-anchor="middle" x="586" y="-1531.9" font-family="Helvetica,sans-Serif" font-size="9.00">ISteppable</text>
<polyline fill="none" stroke="black" points="514.5,-1523 657.5,-1523 "/>
<text text-anchor="middle" x="586" y="-1510.9" font-family="Helvetica,sans-Serif" font-size="9.00"> </text>
<polyline fill="none" stroke="black" points="514.5,-1502 657.5,-1502 "/>
<text text-anchor="start" x="522.5" y="-1489.9" font-family="Helvetica,sans-Serif" font-size="9.00">+ release()</text>
</g>
<!-- Node2 -->
<g id="node3" class="node"><title>Node2</title>
<a xlink:href="../../dd/da7/a00168.htm" target="_top" xlink:title="interface of the layer ">
<polygon fill="none" stroke="black" points="350.5,-1302.5 350.5,-1443.5 487.5,-1443.5 487.5,-1302.5 350.5,-1302.5"/>
<text text-anchor="start" x="358.5" y="-1431.4" font-family="Helvetica,sans-Serif" font-size="9.00">de.tu_clausthal.in.mec.object.</text>
<text text-anchor="middle" x="419" y="-1418.4" font-family="Helvetica,sans-Serif" font-size="9.00">ILayer</text>
<polyline fill="none" stroke="black" points="350.5,-1409.5 487.5,-1409.5 "/>
<text text-anchor="middle" x="419" y="-1397.4" font-family="Helvetica,sans-Serif" font-size="9.00"> </text>
<polyline fill="none" stroke="black" points="350.5,-1388.5 487.5,-1388.5 "/>
<text text-anchor="start" x="358.5" y="-1376.4" font-family="Helvetica,sans-Serif" font-size="9.00">+ getCalculationIndex()</text>
<text text-anchor="start" x="358.5" y="-1363.4" font-family="Helvetica,sans-Serif" font-size="9.00">+ isActive()</text>
<text text-anchor="start" x="358.5" y="-1350.4" font-family="Helvetica,sans-Serif" font-size="9.00">+ onSimulationReset()</text>
<text text-anchor="start" x="358.5" y="-1337.4" font-family="Helvetica,sans-Serif" font-size="9.00">+ onSimulationStart()</text>
<text text-anchor="start" x="358.5" y="-1324.4" font-family="Helvetica,sans-Serif" font-size="9.00">+ onSimulationStop()</text>
<text text-anchor="start" x="358.5" y="-1311.4" font-family="Helvetica,sans-Serif" font-size="9.00">+ setActive()</text>
</a>
</g>
<!-- Node1&#45;&gt;Node2 -->
<g id="edge2" class="edge"><title>Node1&#45;&gt;Node2</title>
<path fill="none" stroke="midnightblue" d="M534.553,-1474.02C519.778,-1461.11 503.425,-1446.81 487.784,-1433.13"/>
<polygon fill="none" stroke="midnightblue" points="532.29,-1476.69 542.123,-1480.64 536.898,-1471.42 532.29,-1476.69"/>
</g>
<!-- Node8 -->
<g id="node15" class="node"><title>Node8</title>
<a xlink:href="../../dc/d52/a00183.htm" target="_top" xlink:title="interface for a step call with a return argument ">
<polygon fill="none" stroke="black" points="674.5,-1328.5 674.5,-1417.5 817.5,-1417.5 817.5,-1328.5 674.5,-1328.5"/>
<text text-anchor="start" x="682.5" y="-1405.4" font-family="Helvetica,sans-Serif" font-size="9.00">de.tu_clausthal.in.mec.runtime.</text>
<text text-anchor="middle" x="746" y="-1392.4" font-family="Helvetica,sans-Serif" font-size="9.00">IReturnSteppable&lt; T &gt;</text>
<polyline fill="none" stroke="black" points="674.5,-1383.5 817.5,-1383.5 "/>
<text text-anchor="middle" x="746" y="-1371.4" font-family="Helvetica,sans-Serif" font-size="9.00"> </text>
<polyline fill="none" stroke="black" points="674.5,-1362.5 817.5,-1362.5 "/>
<text text-anchor="start" x="682.5" y="-1350.4" font-family="Helvetica,sans-Serif" font-size="9.00">+ getTargets()</text>
<text text-anchor="start" x="682.5" y="-1337.4" font-family="Helvetica,sans-Serif" font-size="9.00">+ step()</text>
</a>
</g>
<!-- Node1&#45;&gt;Node8 -->
<g id="edge14" class="edge"><title>Node1&#45;&gt;Node8</title>
<path fill="none" stroke="midnightblue" d="M635.67,-1473.68C655.244,-1455.81 677.663,-1435.36 697.156,-1417.57"/>
<polygon fill="none" stroke="midnightblue" points="633.066,-1471.31 628.038,-1480.64 637.784,-1476.49 633.066,-1471.31"/>
</g>
<!-- Node9 -->
<g id="node17" class="node"><title>Node9</title>
<a xlink:href="../../de/db1/a00197.htm" target="_top" xlink:title="interface of void&#45;step method ">
<polygon fill="none" stroke="black" points="514.5,-1335 514.5,-1411 657.5,-1411 657.5,-1335 514.5,-1335"/>
<text text-anchor="start" x="522.5" y="-1398.9" font-family="Helvetica,sans-Serif" font-size="9.00">de.tu_clausthal.in.mec.runtime.</text>
<text text-anchor="middle" x="586" y="-1385.9" font-family="Helvetica,sans-Serif" font-size="9.00">IVoidSteppable</text>
<polyline fill="none" stroke="black" points="514.5,-1377 657.5,-1377 "/>
<text text-anchor="middle" x="586" y="-1364.9" font-family="Helvetica,sans-Serif" font-size="9.00"> </text>
<polyline fill="none" stroke="black" points="514.5,-1356 657.5,-1356 "/>
<text text-anchor="start" x="522.5" y="-1343.9" font-family="Helvetica,sans-Serif" font-size="9.00">+ step()</text>
</a>
</g>
<!-- Node1&#45;&gt;Node9 -->
<g id="edge16" class="edge"><title>Node1&#45;&gt;Node9</title>
<path fill="none" stroke="midnightblue" d="M586,-1470.51C586,-1451.18 586,-1429.26 586,-1411.1"/>
<polygon fill="none" stroke="midnightblue" points="582.5,-1470.64 586,-1480.64 589.5,-1470.64 582.5,-1470.64"/>
</g>
<!-- Node3 -->
<g id="node5" class="node"><title>Node3</title>
<a xlink:href="../../d8/df1/a00174.htm" target="_top" xlink:title="layer for any calculation multiple elements without visibility ">
<polygon fill="none" stroke="black" points="346.5,-858 346.5,-1220 491.5,-1220 491.5,-858 346.5,-858"/>
<text text-anchor="start" x="354.5" y="-1207.9" font-family="Helvetica,sans-Serif" font-size="9.00">de.tu_clausthal.in.mec.object.</text>
<text text-anchor="start" x="354.5" y="-1194.9" font-family="Helvetica,sans-Serif" font-size="9.00">IMultiEvaluateLayer&lt; T extends</text>
<text text-anchor="middle" x="419" y="-1181.9" font-family="Helvetica,sans-Serif" font-size="9.00"> ISteppable &gt;</text>
<polyline fill="none" stroke="black" points="346.5,-1173 491.5,-1173 "/>
<text text-anchor="start" x="354.5" y="-1160.9" font-family="Helvetica,sans-Serif" font-size="9.00"># m_active</text>
<text text-anchor="start" x="354.5" y="-1147.9" font-family="Helvetica,sans-Serif" font-size="9.00"># m_data</text>
<polyline fill="none" stroke="black" points="346.5,-1139 491.5,-1139 "/>
<text text-anchor="start" x="354.5" y="-1126.9" font-family="Helvetica,sans-Serif" font-size="9.00">+ add()</text>
<text text-anchor="start" x="354.5" y="-1113.9" font-family="Helvetica,sans-Serif" font-size="9.00">+ addAll()</text>
<text text-anchor="start" x="354.5" y="-1100.9" font-family="Helvetica,sans-Serif" font-size="9.00">+ clear()</text>
<text text-anchor="start" x="354.5" y="-1087.9" font-family="Helvetica,sans-Serif" font-size="9.00">+ contains()</text>
<text text-anchor="start" x="354.5" y="-1074.9" font-family="Helvetica,sans-Serif" font-size="9.00">+ containsAll()</text>
<text text-anchor="start" x="354.5" y="-1061.9" font-family="Helvetica,sans-Serif" font-size="9.00">+ getCalculationIndex()</text>
<text text-anchor="start" x="354.5" y="-1048.9" font-family="Helvetica,sans-Serif" font-size="9.00">+ isActive()</text>
<text text-anchor="start" x="354.5" y="-1035.9" font-family="Helvetica,sans-Serif" font-size="9.00">+ isEmpty()</text>
<text text-anchor="start" x="354.5" y="-1022.9" font-family="Helvetica,sans-Serif" font-size="9.00">+ iterator()</text>
<text text-anchor="start" x="354.5" y="-1009.9" font-family="Helvetica,sans-Serif" font-size="9.00">+ onSimulationReset()</text>
<text text-anchor="start" x="354.5" y="-996.9" font-family="Helvetica,sans-Serif" font-size="9.00">+ onSimulationStart()</text>
<text text-anchor="start" x="354.5" y="-983.9" font-family="Helvetica,sans-Serif" font-size="9.00">+ onSimulationStop()</text>
<text text-anchor="start" x="354.5" y="-970.9" font-family="Helvetica,sans-Serif" font-size="9.00">+ release()</text>
<text text-anchor="start" x="354.5" y="-957.9" font-family="Helvetica,sans-Serif" font-size="9.00">+ remove()</text>
<text text-anchor="start" x="354.5" y="-944.9" font-family="Helvetica,sans-Serif" font-size="9.00">+ removeAll()</text>
<text text-anchor="start" x="354.5" y="-931.9" font-family="Helvetica,sans-Serif" font-size="9.00">+ retainAll()</text>
<text text-anchor="start" x="354.5" y="-918.9" font-family="Helvetica,sans-Serif" font-size="9.00">+ setActive()</text>
<text text-anchor="start" x="354.5" y="-905.9" font-family="Helvetica,sans-Serif" font-size="9.00">+ size()</text>
<text text-anchor="start" x="354.5" y="-892.9" font-family="Helvetica,sans-Serif" font-size="9.00">+ step()</text>
<text text-anchor="start" x="354.5" y="-879.9" font-family="Helvetica,sans-Serif" font-size="9.00">+ toArray()</text>
<text text-anchor="start" x="354.5" y="-866.9" font-family="Helvetica,sans-Serif" font-size="9.00">+ toArray()</text>
</a>
</g>
<!-- Node2&#45;&gt;Node3 -->
<g id="edge4" class="edge"><title>Node2&#45;&gt;Node3</title>
<path fill="none" stroke="midnightblue" d="M419,-1291.93C419,-1269.93 419,-1245.19 419,-1220.03"/>
<polygon fill="none" stroke="midnightblue" points="415.5,-1292.17 419,-1302.17 422.5,-1292.17 415.5,-1292.17"/>
</g>
<!-- Node4 -->
<g id="node7" class="node"><title>Node4</title>
<a xlink:href="../../de/d45/a00175.htm" target="_top" xlink:title="multilayer to create a collection for elements ">
<polygon fill="none" stroke="black" points="508.5,-812.5 508.5,-1265.5 663.5,-1265.5 663.5,-812.5 508.5,-812.5"/>
<text text-anchor="start" x="516.5" y="-1253.4" font-family="Helvetica,sans-Serif" font-size="9.00">de.tu_clausthal.in.mec.object.</text>
<text text-anchor="start" x="516.5" y="-1240.4" font-family="Helvetica,sans-Serif" font-size="9.00">IMultiLayer&lt; T extends ISteppable</text>
<text text-anchor="middle" x="586" y="-1227.4" font-family="Helvetica,sans-Serif" font-size="9.00"> &amp;Painter &gt;</text>
<polyline fill="none" stroke="black" points="508.5,-1218.5 663.5,-1218.5 "/>
<text text-anchor="start" x="516.5" y="-1206.4" font-family="Helvetica,sans-Serif" font-size="9.00"># m_active</text>
<text text-anchor="start" x="516.5" y="-1193.4" font-family="Helvetica,sans-Serif" font-size="9.00"># m_data</text>
<text text-anchor="start" x="516.5" y="-1180.4" font-family="Helvetica,sans-Serif" font-size="9.00"># m_visible</text>
<polyline fill="none" stroke="black" points="508.5,-1171.5 663.5,-1171.5 "/>
<text text-anchor="start" x="516.5" y="-1159.4" font-family="Helvetica,sans-Serif" font-size="9.00">+ add()</text>
<text text-anchor="start" x="516.5" y="-1146.4" font-family="Helvetica,sans-Serif" font-size="9.00">+ addAll()</text>
<text text-anchor="start" x="516.5" y="-1133.4" font-family="Helvetica,sans-Serif" font-size="9.00">+ afterStepObject()</text>
<text text-anchor="start" x="516.5" y="-1120.4" font-family="Helvetica,sans-Serif" font-size="9.00">+ beforeStepObject()</text>
<text text-anchor="start" x="516.5" y="-1107.4" font-family="Helvetica,sans-Serif" font-size="9.00">+ clear()</text>
<text text-anchor="start" x="516.5" y="-1094.4" font-family="Helvetica,sans-Serif" font-size="9.00">+ contains()</text>
<text text-anchor="start" x="516.5" y="-1081.4" font-family="Helvetica,sans-Serif" font-size="9.00">+ containsAll()</text>
<text text-anchor="start" x="516.5" y="-1068.4" font-family="Helvetica,sans-Serif" font-size="9.00">+ getCalculationIndex()</text>
<text text-anchor="start" x="516.5" y="-1055.4" font-family="Helvetica,sans-Serif" font-size="9.00">+ isActive()</text>
<text text-anchor="start" x="516.5" y="-1042.4" font-family="Helvetica,sans-Serif" font-size="9.00">+ isEmpty()</text>
<text text-anchor="start" x="516.5" y="-1029.4" font-family="Helvetica,sans-Serif" font-size="9.00">+ isVisible()</text>
<text text-anchor="start" x="516.5" y="-1016.4" font-family="Helvetica,sans-Serif" font-size="9.00">+ iterator()</text>
<text text-anchor="start" x="516.5" y="-1003.4" font-family="Helvetica,sans-Serif" font-size="9.00">+ onSimulationReset()</text>
<text text-anchor="start" x="516.5" y="-990.4" font-family="Helvetica,sans-Serif" font-size="9.00">+ onSimulationStart()</text>
<text text-anchor="start" x="516.5" y="-977.4" font-family="Helvetica,sans-Serif" font-size="9.00">+ onSimulationStop()</text>
<text text-anchor="start" x="516.5" y="-964.4" font-family="Helvetica,sans-Serif" font-size="9.00">+ paint()</text>
<text text-anchor="start" x="516.5" y="-951.4" font-family="Helvetica,sans-Serif" font-size="9.00">+ release()</text>
<text text-anchor="start" x="516.5" y="-938.4" font-family="Helvetica,sans-Serif" font-size="9.00">+ remove()</text>
<text text-anchor="start" x="516.5" y="-925.4" font-family="Helvetica,sans-Serif" font-size="9.00">+ removeAll()</text>
<text text-anchor="start" x="516.5" y="-912.4" font-family="Helvetica,sans-Serif" font-size="9.00">+ retainAll()</text>
<text text-anchor="start" x="516.5" y="-899.4" font-family="Helvetica,sans-Serif" font-size="9.00">+ setActive()</text>
<text text-anchor="start" x="516.5" y="-886.4" font-family="Helvetica,sans-Serif" font-size="9.00">+ setVisible()</text>
<text text-anchor="start" x="516.5" y="-873.4" font-family="Helvetica,sans-Serif" font-size="9.00">+ size()</text>
<text text-anchor="start" x="516.5" y="-860.4" font-family="Helvetica,sans-Serif" font-size="9.00">+ step()</text>
<text text-anchor="start" x="516.5" y="-847.4" font-family="Helvetica,sans-Serif" font-size="9.00">+ toArray()</text>
<text text-anchor="start" x="516.5" y="-834.4" font-family="Helvetica,sans-Serif" font-size="9.00">+ toArray()</text>
<text text-anchor="start" x="516.5" y="-821.4" font-family="Helvetica,sans-Serif" font-size="9.00"># repaint()</text>
</a>
</g>
<!-- Node2&#45;&gt;Node4 -->
<g id="edge6" class="edge"><title>Node2&#45;&gt;Node4</title>
<path fill="none" stroke="midnightblue" d="M482.651,-1294.02C488.893,-1284.82 494.821,-1275.37 500,-1266 502.855,-1260.84 505.655,-1255.56 508.397,-1250.2"/>
<polygon fill="none" stroke="midnightblue" points="479.667,-1292.18 476.842,-1302.39 485.418,-1296.17 479.667,-1292.18"/>
</g>
<!-- Node5 -->
<g id="node9" class="node"><title>Node5</title>
<a xlink:href="../../d8/d00/a00186.htm" target="_top" xlink:title="layer for any calculation atomic task without visibility ">
<polygon fill="none" stroke="black" points="38.5,-955.5 38.5,-1122.5 175.5,-1122.5 175.5,-955.5 38.5,-955.5"/>
<text text-anchor="start" x="46.5" y="-1110.4" font-family="Helvetica,sans-Serif" font-size="9.00">de.tu_clausthal.in.mec.object.</text>
<text text-anchor="middle" x="107" y="-1097.4" font-family="Helvetica,sans-Serif" font-size="9.00">ISingleEvaluateLayer</text>
<polyline fill="none" stroke="black" points="38.5,-1088.5 175.5,-1088.5 "/>
<text text-anchor="start" x="46.5" y="-1076.4" font-family="Helvetica,sans-Serif" font-size="9.00"># m_active</text>
<polyline fill="none" stroke="black" points="38.5,-1067.5 175.5,-1067.5 "/>
<text text-anchor="start" x="46.5" y="-1055.4" font-family="Helvetica,sans-Serif" font-size="9.00">+ getCalculationIndex()</text>
<text text-anchor="start" x="46.5" y="-1042.4" font-family="Helvetica,sans-Serif" font-size="9.00">+ isActive()</text>
<text text-anchor="start" x="46.5" y="-1029.4" font-family="Helvetica,sans-Serif" font-size="9.00">+ onSimulationReset()</text>
<text text-anchor="start" x="46.5" y="-1016.4" font-family="Helvetica,sans-Serif" font-size="9.00">+ onSimulationStart()</text>
<text text-anchor="start" x="46.5" y="-1003.4" font-family="Helvetica,sans-Serif" font-size="9.00">+ onSimulationStop()</text>
<text text-anchor="start" x="46.5" y="-990.4" font-family="Helvetica,sans-Serif" font-size="9.00">+ release()</text>
<text text-anchor="start" x="46.5" y="-977.4" font-family="Helvetica,sans-Serif" font-size="9.00">+ setActive()</text>
<text text-anchor="start" x="46.5" y="-964.4" font-family="Helvetica,sans-Serif" font-size="9.00">+ step()</text>
</a>
</g>
<!-- Node2&#45;&gt;Node5 -->
<g id="edge8" class="edge"><title>Node2&#45;&gt;Node5</title>
<path fill="none" stroke="midnightblue" d="M340.756,-1354.71C289.753,-1339.05 225.245,-1311.6 184,-1266 148.199,-1226.42 128.943,-1169.52 118.641,-1122.6"/>
<polygon fill="none" stroke="midnightblue" points="339.857,-1358.1 350.44,-1357.6 341.854,-1351.39 339.857,-1358.1"/>
</g>
<!-- Node7 -->
<g id="node13" class="node"><title>Node7</title>
<a xlink:href="../../d6/daa/a00187.htm" target="_top" xlink:title="single layer to create a single information structure ">
<polygon fill="none" stroke="black" points="192.5,-929.5 192.5,-1148.5 329.5,-1148.5 329.5,-929.5 192.5,-929.5"/>
<text text-anchor="start" x="200.5" y="-1136.4" font-family="Helvetica,sans-Serif" font-size="9.00">de.tu_clausthal.in.mec.object.</text>
<text text-anchor="middle" x="261" y="-1123.4" font-family="Helvetica,sans-Serif" font-size="9.00">ISingleLayer</text>
<polyline fill="none" stroke="black" points="192.5,-1114.5 329.5,-1114.5 "/>
<text text-anchor="start" x="200.5" y="-1102.4" font-family="Helvetica,sans-Serif" font-size="9.00"># m_active</text>
<text text-anchor="start" x="200.5" y="-1089.4" font-family="Helvetica,sans-Serif" font-size="9.00"># m_visible</text>
<polyline fill="none" stroke="black" points="192.5,-1080.5 329.5,-1080.5 "/>
<text text-anchor="start" x="200.5" y="-1068.4" font-family="Helvetica,sans-Serif" font-size="9.00">+ getCalculationIndex()</text>
<text text-anchor="start" x="200.5" y="-1055.4" font-family="Helvetica,sans-Serif" font-size="9.00">+ isActive()</text>
<text text-anchor="start" x="200.5" y="-1042.4" font-family="Helvetica,sans-Serif" font-size="9.00">+ isVisible()</text>
<text text-anchor="start" x="200.5" y="-1029.4" font-family="Helvetica,sans-Serif" font-size="9.00">+ onSimulationReset()</text>
<text text-anchor="start" x="200.5" y="-1016.4" font-family="Helvetica,sans-Serif" font-size="9.00">+ onSimulationStart()</text>
<text text-anchor="start" x="200.5" y="-1003.4" font-family="Helvetica,sans-Serif" font-size="9.00">+ onSimulationStop()</text>
<text text-anchor="start" x="200.5" y="-990.4" font-family="Helvetica,sans-Serif" font-size="9.00">+ paint()</text>
<text text-anchor="start" x="200.5" y="-977.4" font-family="Helvetica,sans-Serif" font-size="9.00">+ release()</text>
<text text-anchor="start" x="200.5" y="-964.4" font-family="Helvetica,sans-Serif" font-size="9.00">+ setActive()</text>
<text text-anchor="start" x="200.5" y="-951.4" font-family="Helvetica,sans-Serif" font-size="9.00">+ setVisible()</text>
<text text-anchor="start" x="200.5" y="-938.4" font-family="Helvetica,sans-Serif" font-size="9.00">+ step()</text>
</a>
</g>
<!-- Node2&#45;&gt;Node7 -->
<g id="edge12" class="edge"><title>Node2&#45;&gt;Node7</title>
<path fill="none" stroke="midnightblue" d="M354.861,-1293.97C348.739,-1284.81 342.972,-1275.38 338,-1266 318.604,-1229.42 302.653,-1186.98 290.4,-1148.76"/>
<polygon fill="none" stroke="midnightblue" points="352.031,-1296.03 360.57,-1302.3 357.805,-1292.07 352.031,-1296.03"/>
</g>
<!-- Node6 -->
<g id="node11" class="node"><title>Node6</title>
<a xlink:href="../../d7/df7/a00058.htm" target="_top" xlink:title="layer with inconsistence data ">
<polygon fill="none" stroke="black" points="-0.5,-361 -0.5,-697 214.5,-697 214.5,-361 -0.5,-361"/>
<text text-anchor="start" x="7.5" y="-684.9" font-family="Helvetica,sans-Serif" font-size="9.00">de.tu_clausthal.in.mec.object.mas.inconsistency.</text>
<text text-anchor="middle" x="107" y="-671.9" font-family="Helvetica,sans-Serif" font-size="9.00">CInconsistencyLayer&lt; T extends IAgent &gt;</text>
<polyline fill="none" stroke="black" points="-0.5,-663 214.5,-663 "/>
<text text-anchor="start" x="7.5" y="-650.9" font-family="Helvetica,sans-Serif" font-size="9.00">&#45; m_algorithm</text>
<text text-anchor="start" x="7.5" y="-637.9" font-family="Helvetica,sans-Serif" font-size="9.00">&#45; m_data</text>
<text text-anchor="start" x="7.5" y="-624.9" font-family="Helvetica,sans-Serif" font-size="9.00">&#45; m_epsilon</text>
<text text-anchor="start" x="7.5" y="-611.9" font-family="Helvetica,sans-Serif" font-size="9.00">&#45; m_iteration</text>
<text text-anchor="start" x="7.5" y="-598.9" font-family="Helvetica,sans-Serif" font-size="9.00">&#45; m_metric</text>
<text text-anchor="start" x="7.5" y="-585.9" font-family="Helvetica,sans-Serif" font-size="9.00">&#45; m_name</text>
<text text-anchor="start" x="7.5" y="-572.9" font-family="Helvetica,sans-Serif" font-size="9.00">&#45; m_updatestep</text>
<text text-anchor="start" x="7.5" y="-559.9" font-family="Helvetica,sans-Serif" font-size="9.00">&#45; c_algebra</text>
<polyline fill="none" stroke="black" points="-0.5,-551 214.5,-551 "/>
<text text-anchor="start" x="7.5" y="-538.9" font-family="Helvetica,sans-Serif" font-size="9.00">+ CInconsistencyLayer()</text>
<text text-anchor="start" x="7.5" y="-525.9" font-family="Helvetica,sans-Serif" font-size="9.00">+ CInconsistencyLayer()</text>
<text text-anchor="start" x="7.5" y="-512.9" font-family="Helvetica,sans-Serif" font-size="9.00">+ add()</text>
<text text-anchor="start" x="7.5" y="-499.9" font-family="Helvetica,sans-Serif" font-size="9.00">+ getCalculationIndex()</text>
<text text-anchor="start" x="7.5" y="-486.9" font-family="Helvetica,sans-Serif" font-size="9.00">+ getInconsistencyValue()</text>
<text text-anchor="start" x="7.5" y="-473.9" font-family="Helvetica,sans-Serif" font-size="9.00">+ getMetric()</text>
<text text-anchor="start" x="7.5" y="-460.9" font-family="Helvetica,sans-Serif" font-size="9.00">+ remove()</text>
<text text-anchor="start" x="7.5" y="-447.9" font-family="Helvetica,sans-Serif" font-size="9.00">+ setMetric()</text>
<text text-anchor="start" x="7.5" y="-434.9" font-family="Helvetica,sans-Serif" font-size="9.00">+ step()</text>
<text text-anchor="start" x="7.5" y="-421.9" font-family="Helvetica,sans-Serif" font-size="9.00">+ toString()</text>
<text text-anchor="start" x="7.5" y="-408.9" font-family="Helvetica,sans-Serif" font-size="9.00">&#45; getMetricValue()</text>
<text text-anchor="start" x="7.5" y="-395.9" font-family="Helvetica,sans-Serif" font-size="9.00">&#45; getStationaryDistribution()</text>
<text text-anchor="start" x="7.5" y="-382.9" font-family="Helvetica,sans-Serif" font-size="9.00">&#45; getLargestEigenvector()</text>
<text text-anchor="start" x="7.5" y="-369.9" font-family="Helvetica,sans-Serif" font-size="9.00">&#45; getLargestEigenvector()</text>
</a>
</g>
<!-- Node5&#45;&gt;Node6 -->
<g id="edge10" class="edge"><title>Node5&#45;&gt;Node6</title>
<path fill="none" stroke="midnightblue" d="M107,-945.324C107,-875.973 107,-779.61 107,-697.057"/>
<polygon fill="none" stroke="midnightblue" points="103.5,-945.355 107,-955.355 110.5,-945.355 103.5,-945.355"/>
</g>
<!-- Node9&#45;&gt;Node3 -->
<g id="edge34" class="edge"><title>Node9&#45;&gt;Node3</title>
<path fill="none" stroke="midnightblue" d="M543.104,-1326.63C528.031,-1308.65 511.903,-1287.29 500,-1266 491.882,-1251.48 484.332,-1236 477.37,-1220.2"/>
<polygon fill="none" stroke="midnightblue" points="540.785,-1329.3 549.937,-1334.64 546.11,-1324.76 540.785,-1329.3"/>
</g>
<!-- Node9&#45;&gt;Node4 -->
<g id="edge36" class="edge"><title>Node9&#45;&gt;Node4</title>
<path fill="none" stroke="midnightblue" d="M586,-1324.64C586,-1307.78 586,-1287.59 586,-1265.84"/>
<polygon fill="none" stroke="midnightblue" points="582.5,-1324.69 586,-1334.69 589.5,-1324.69 582.5,-1324.69"/>
</g>
<!-- Node9&#45;&gt;Node5 -->
<g id="edge38" class="edge"><title>Node9&#45;&gt;Node5</title>
<path fill="none" stroke="midnightblue" d="M539.469,-1328.42C526.327,-1318.13 511.387,-1308.35 496,-1302 431.485,-1275.37 238.299,-1309.85 184,-1266 141.182,-1231.42 122.054,-1171.99 113.567,-1122.61"/>
<polygon fill="none" stroke="midnightblue" points="537.438,-1331.28 547.407,-1334.87 541.851,-1325.85 537.438,-1331.28"/>
</g>
<!-- Node9&#45;&gt;Node7 -->
<g id="edge40" class="edge"><title>Node9&#45;&gt;Node7</title>
<path fill="none" stroke="midnightblue" d="M537.428,-1328.35C524.678,-1318.47 510.434,-1308.9 496,-1302 431.023,-1270.93 391.481,-1314.24 338,-1266 304.626,-1235.9 285.706,-1190.79 274.986,-1148.7"/>
<polygon fill="none" stroke="midnightblue" points="535.58,-1331.35 545.577,-1334.86 539.95,-1325.88 535.58,-1331.35"/>
</g>
<!-- Node10 -->
<g id="node19" class="node"><title>Node10</title>
<a xlink:href="../../d6/db3/a00130.htm" target="_top" xlink:title="worker class to push data to the database * ">
<polygon fill="none" stroke="black" points="680.5,-1001 680.5,-1077 853.5,-1077 853.5,-1001 680.5,-1001"/>
<text text-anchor="start" x="688.5" y="-1064.9" font-family="Helvetica,sans-Serif" font-size="9.00">de.tu_clausthal.in.mec.object.analysis.</text>
<text text-anchor="middle" x="767" y="-1051.9" font-family="Helvetica,sans-Serif" font-size="9.00">IDatabase.CWorker</text>
<polyline fill="none" stroke="black" points="680.5,-1043 853.5,-1043 "/>
<text text-anchor="middle" x="767" y="-1030.9" font-family="Helvetica,sans-Serif" font-size="9.00"> </text>
<polyline fill="none" stroke="black" points="680.5,-1022 853.5,-1022 "/>
<text text-anchor="start" x="688.5" y="-1009.9" font-family="Helvetica,sans-Serif" font-size="9.00">+ release()</text>
</a>
</g>
<!-- Node9&#45;&gt;Node10 -->
<g id="edge18" class="edge"><title>Node9&#45;&gt;Node10</title>
<path fill="none" stroke="midnightblue" d="M627.902,-1326.74C643.014,-1308.62 659.425,-1287.14 672,-1266 709.243,-1203.4 739.017,-1123.49 754.751,-1077.1"/>
<polygon fill="none" stroke="midnightblue" points="624.858,-1324.91 621.069,-1334.81 630.201,-1329.44 624.858,-1324.91"/>
</g>
<!-- Node15 -->
<g id="node29" class="node"><title>Node15</title>
<a xlink:href="../../d3/d65/a00154.htm" target="_top" xlink:title="car interface for defining the car structure ">
<polygon fill="none" stroke="black" points="871,-942.5 871,-1135.5 1041,-1135.5 1041,-942.5 871,-942.5"/>
<text text-anchor="middle" x="956" y="-1123.4" font-family="Helvetica,sans-Serif" font-size="9.00">de.tu_clausthal.in.mec.object.car.ICar</text>
<polyline fill="none" stroke="black" points="871,-1114.5 1041,-1114.5 "/>
<text text-anchor="middle" x="956" y="-1102.4" font-family="Helvetica,sans-Serif" font-size="9.00"> </text>
<polyline fill="none" stroke="black" points="871,-1093.5 1041,-1093.5 "/>
<text text-anchor="start" x="879" y="-1081.4" font-family="Helvetica,sans-Serif" font-size="9.00">+ getAcceleration()</text>
<text text-anchor="start" x="879" y="-1068.4" font-family="Helvetica,sans-Serif" font-size="9.00">+ getCurrentSpeed()</text>
<text text-anchor="start" x="879" y="-1055.4" font-family="Helvetica,sans-Serif" font-size="9.00">+ getDeceleration()</text>
<text text-anchor="start" x="879" y="-1042.4" font-family="Helvetica,sans-Serif" font-size="9.00">+ getEdge()</text>
<text text-anchor="start" x="879" y="-1029.4" font-family="Helvetica,sans-Serif" font-size="9.00">+ getGeoposition()</text>
<text text-anchor="start" x="879" y="-1016.4" font-family="Helvetica,sans-Serif" font-size="9.00">+ getLingerProbability()</text>
<text text-anchor="start" x="879" y="-1003.4" font-family="Helvetica,sans-Serif" font-size="9.00">+ getMaximumSpeed()</text>
<text text-anchor="start" x="879" y="-990.4" font-family="Helvetica,sans-Serif" font-size="9.00">+ getPredecessor()</text>
<text text-anchor="start" x="879" y="-977.4" font-family="Helvetica,sans-Serif" font-size="9.00">+ getPredecessor()</text>
<text text-anchor="start" x="879" y="-964.4" font-family="Helvetica,sans-Serif" font-size="9.00">+ hasEndReached()</text>
<text text-anchor="start" x="879" y="-951.4" font-family="Helvetica,sans-Serif" font-size="9.00">+ setCurrentSpeed()</text>
</a>
</g>
<!-- Node9&#45;&gt;Node15 -->
<g id="edge28" class="edge"><title>Node9&#45;&gt;Node15</title>
<path fill="none" stroke="midnightblue" d="M628.326,-1327.86C639.687,-1317.99 652.574,-1308.55 666,-1302 745.606,-1263.18 793.127,-1321.69 862,-1266 901.886,-1233.75 925.042,-1181.71 938.384,-1135.59"/>
<polygon fill="none" stroke="midnightblue" points="625.792,-1325.43 620.717,-1334.73 630.484,-1330.63 625.792,-1325.43"/>
</g>
<!-- Node18 -->
<g id="node39" class="node"><title>Node18</title>
<a xlink:href="../../d7/ded/a00196.htm" target="_top" xlink:title="interface of an agent with void&#45;steppable interface ">
<polygon fill="none" stroke="black" points="1058.5,-1001 1058.5,-1077 1215.5,-1077 1215.5,-1001 1058.5,-1001"/>
<text text-anchor="start" x="1066.5" y="-1064.9" font-family="Helvetica,sans-Serif" font-size="9.00">de.tu_clausthal.in.mec.object.mas.</text>
<text text-anchor="middle" x="1137" y="-1051.9" font-family="Helvetica,sans-Serif" font-size="9.00">IVoidAgent&lt; T &gt;</text>
<polyline fill="none" stroke="black" points="1058.5,-1043 1215.5,-1043 "/>
<text text-anchor="middle" x="1137" y="-1030.9" font-family="Helvetica,sans-Serif" font-size="9.00"> </text>
<polyline fill="none" stroke="black" points="1058.5,-1022 1215.5,-1022 "/>
<text text-anchor="middle" x="1137" y="-1009.9" font-family="Helvetica,sans-Serif" font-size="9.00"> </text>
</a>
</g>
<!-- Node9&#45;&gt;Node18 -->
<g id="edge42" class="edge"><title>Node9&#45;&gt;Node18</title>
<path fill="none" stroke="midnightblue" d="M627.25,-1327.62C638.785,-1317.54 652.022,-1308.07 666,-1302 744.615,-1267.86 981.725,-1317.81 1050,-1266 1109.68,-1220.71 1128.42,-1129.1 1134.31,-1077.17"/>
<polygon fill="none" stroke="midnightblue" points="624.572,-1325.32 619.548,-1334.65 629.293,-1330.49 624.572,-1325.32"/>
</g>
<!-- Node19 -->
<g id="node41" class="node"><title>Node19</title>
<a xlink:href="../../d4/d63/a00082.htm" target="_top" xlink:title="message handler class ">
<polygon fill="none" stroke="black" points="1232.5,-929.5 1232.5,-1148.5 1415.5,-1148.5 1415.5,-929.5 1232.5,-929.5"/>
<text text-anchor="start" x="1240.5" y="-1136.4" font-family="Helvetica,sans-Serif" font-size="9.00">de.tu_clausthal.in.mec.runtime.message.</text>
<text text-anchor="middle" x="1324" y="-1123.4" font-family="Helvetica,sans-Serif" font-size="9.00">CMessageSystem</text>
<polyline fill="none" stroke="black" points="1232.5,-1114.5 1415.5,-1114.5 "/>
<text text-anchor="start" x="1240.5" y="-1102.4" font-family="Helvetica,sans-Serif" font-size="9.00">&#45; m_communicator</text>
<text text-anchor="start" x="1240.5" y="-1089.4" font-family="Helvetica,sans-Serif" font-size="9.00">&#45; m_listener</text>
<text text-anchor="start" x="1240.5" y="-1076.4" font-family="Helvetica,sans-Serif" font-size="9.00">&#45; m_messageflow</text>
<text text-anchor="start" x="1240.5" y="-1063.4" font-family="Helvetica,sans-Serif" font-size="9.00">&#45; m_root</text>
<polyline fill="none" stroke="black" points="1232.5,-1054.5 1415.5,-1054.5 "/>
<text text-anchor="start" x="1240.5" y="-1042.4" font-family="Helvetica,sans-Serif" font-size="9.00">+ addActionListener()</text>
<text text-anchor="start" x="1240.5" y="-1029.4" font-family="Helvetica,sans-Serif" font-size="9.00">+ pushMessage()</text>
<text text-anchor="start" x="1240.5" y="-1016.4" font-family="Helvetica,sans-Serif" font-size="9.00">+ register()</text>
<text text-anchor="start" x="1240.5" y="-1003.4" font-family="Helvetica,sans-Serif" font-size="9.00">+ release()</text>
<text text-anchor="start" x="1240.5" y="-990.4" font-family="Helvetica,sans-Serif" font-size="9.00">+ removeListener()</text>
<text text-anchor="start" x="1240.5" y="-977.4" font-family="Helvetica,sans-Serif" font-size="9.00">+ step()</text>
<text text-anchor="start" x="1240.5" y="-964.4" font-family="Helvetica,sans-Serif" font-size="9.00">+ unregister()</text>
<text text-anchor="start" x="1240.5" y="-951.4" font-family="Helvetica,sans-Serif" font-size="9.00">&#45; incrementMessageFlow()</text>
<text text-anchor="start" x="1240.5" y="-938.4" font-family="Helvetica,sans-Serif" font-size="9.00">&#45; web_dynamic_flow()</text>
</a>
</g>
<!-- Node9&#45;&gt;Node19 -->
<g id="edge44" class="edge"><title>Node9&#45;&gt;Node19</title>
<path fill="none" stroke="midnightblue" d="M626.453,-1327.93C638.147,-1317.64 651.66,-1307.98 666,-1302 780.683,-1254.17 1122.16,-1337.2 1224,-1266 1263.18,-1238.61 1287.18,-1192.3 1301.8,-1148.62"/>
<polygon fill="none" stroke="midnightblue" points="624.03,-1325.4 619.041,-1334.75 628.77,-1330.55 624.03,-1325.4"/>
</g>
<!-- Node11 -->
<g id="node21" class="node"><title>Node11</title>
<a xlink:href="../../d0/dc0/a00033.htm" target="_top" xlink:title="worker to get beliefs of the agents ">
<polygon fill="none" stroke="black" points="681.5,-484.5 681.5,-573.5 854.5,-573.5 854.5,-484.5 681.5,-484.5"/>
<text text-anchor="start" x="689.5" y="-561.4" font-family="Helvetica,sans-Serif" font-size="9.00">de.tu_clausthal.in.mec.object.analysis.</text>
<text text-anchor="middle" x="768" y="-548.4" font-family="Helvetica,sans-Serif" font-size="9.00">CEvaluationStore.CCollectorAgent</text>
<polyline fill="none" stroke="black" points="681.5,-539.5 854.5,-539.5 "/>
<text text-anchor="start" x="689.5" y="-527.4" font-family="Helvetica,sans-Serif" font-size="9.00">&#45; m_statement</text>
<polyline fill="none" stroke="black" points="681.5,-518.5 854.5,-518.5 "/>
<text text-anchor="start" x="689.5" y="-506.4" font-family="Helvetica,sans-Serif" font-size="9.00">+ CCollectorAgent()</text>
<text text-anchor="start" x="689.5" y="-493.4" font-family="Helvetica,sans-Serif" font-size="9.00">+ step()</text>
</a>
</g>
<!-- Node10&#45;&gt;Node11 -->
<g id="edge20" class="edge"><title>Node10&#45;&gt;Node11</title>
<path fill="none" stroke="midnightblue" d="M767.095,-990.376C767.289,-891.598 767.726,-668.775 767.913,-573.534"/>
<polygon fill="none" stroke="midnightblue" points="763.595,-990.66 767.075,-1000.67 770.595,-990.674 763.595,-990.66"/>
</g>
<!-- Node12 -->
<g id="node23" class="node"><title>Node12</title>
<a xlink:href="../../db/df3/a00034.htm" target="_top" xlink:title="worker to get beliefs of the agents ">
<polygon fill="none" stroke="black" points="871.5,-484.5 871.5,-573.5 1044.5,-573.5 1044.5,-484.5 871.5,-484.5"/>
<text text-anchor="start" x="879.5" y="-561.4" font-family="Helvetica,sans-Serif" font-size="9.00">de.tu_clausthal.in.mec.object.analysis.</text>
<text text-anchor="middle" x="958" y="-548.4" font-family="Helvetica,sans-Serif" font-size="9.00">CEvaluationStore.CCollectorBelief</text>
<polyline fill="none" stroke="black" points="871.5,-539.5 1044.5,-539.5 "/>
<text text-anchor="start" x="879.5" y="-527.4" font-family="Helvetica,sans-Serif" font-size="9.00">&#45; m_statement</text>
<polyline fill="none" stroke="black" points="871.5,-518.5 1044.5,-518.5 "/>
<text text-anchor="start" x="879.5" y="-506.4" font-family="Helvetica,sans-Serif" font-size="9.00">+ CCollectorBelief()</text>
<text text-anchor="start" x="879.5" y="-493.4" font-family="Helvetica,sans-Serif" font-size="9.00">+ step()</text>
</a>
</g>
<!-- Node10&#45;&gt;Node12 -->
<g id="edge22" class="edge"><title>Node10&#45;&gt;Node12</title>
<path fill="none" stroke="midnightblue" d="M784.875,-991.272C821.696,-892.953 905.545,-669.064 941.322,-573.534"/>
<polygon fill="none" stroke="midnightblue" points="781.586,-990.075 781.356,-1000.67 788.141,-992.53 781.586,-990.075"/>
</g>
<!-- Node13 -->
<g id="node25" class="node"><title>Node13</title>
<a xlink:href="../../d4/d8c/a00035.htm" target="_top" xlink:title="worker to get data for fundamental diagram ">
<polygon fill="none" stroke="black" points="232,-484.5 232,-573.5 456,-573.5 456,-484.5 232,-484.5"/>
<text text-anchor="start" x="240" y="-561.4" font-family="Helvetica,sans-Serif" font-size="9.00">de.tu_clausthal.in.mec.object.analysis.</text>
<text text-anchor="middle" x="344" y="-548.4" font-family="Helvetica,sans-Serif" font-size="9.00">CEvaluationStore.CCollectorFundamentalDiagram</text>
<polyline fill="none" stroke="black" points="232,-539.5 456,-539.5 "/>
<text text-anchor="start" x="240" y="-527.4" font-family="Helvetica,sans-Serif" font-size="9.00">&#45; m_statement</text>
<polyline fill="none" stroke="black" points="232,-518.5 456,-518.5 "/>
<text text-anchor="start" x="240" y="-506.4" font-family="Helvetica,sans-Serif" font-size="9.00">+ CCollectorFundamentalDiagram()</text>
<text text-anchor="start" x="240" y="-493.4" font-family="Helvetica,sans-Serif" font-size="9.00">+ step()</text>
</a>
</g>
<!-- Node10&#45;&gt;Node13 -->
<g id="edge24" class="edge"><title>Node10&#45;&gt;Node13</title>
<path fill="none" stroke="midnightblue" d="M760.577,-990.896C750.909,-938.479 727.42,-856.207 672,-812 598.999,-753.769 539.692,-832.046 465,-776 398.733,-726.276 366.711,-630.498 352.954,-573.931"/>
<polygon fill="none" stroke="midnightblue" points="757.166,-991.711 762.331,-1000.96 764.062,-990.509 757.166,-991.711"/>
</g>
<!-- Node14 -->
<g id="node27" class="node"><title>Node14</title>
<a xlink:href="../../de/d8c/a00036.htm" target="_top" xlink:title="worker to collect inconsistency via reflection ">
<polygon fill="none" stroke="black" points="474,-478 474,-580 664,-580 664,-478 474,-478"/>
<text text-anchor="start" x="482" y="-567.9" font-family="Helvetica,sans-Serif" font-size="9.00">de.tu_clausthal.in.mec.object.analysis.</text>
<text text-anchor="middle" x="569" y="-554.9" font-family="Helvetica,sans-Serif" font-size="9.00">CEvaluationStore.CCollectorInconsistency</text>
<polyline fill="none" stroke="black" points="474,-546 664,-546 "/>
<text text-anchor="start" x="482" y="-533.9" font-family="Helvetica,sans-Serif" font-size="9.00">&#45; m_access</text>
<text text-anchor="start" x="482" y="-520.9" font-family="Helvetica,sans-Serif" font-size="9.00">&#45; m_statement</text>
<polyline fill="none" stroke="black" points="474,-512 664,-512 "/>
<text text-anchor="start" x="482" y="-499.9" font-family="Helvetica,sans-Serif" font-size="9.00">+ CCollectorInconsistency()</text>
<text text-anchor="start" x="482" y="-486.9" font-family="Helvetica,sans-Serif" font-size="9.00">+ step()</text>
</a>
</g>
<!-- Node10&#45;&gt;Node14 -->
<g id="edge26" class="edge"><title>Node10&#45;&gt;Node14</title>
<path fill="none" stroke="midnightblue" d="M748.438,-991.19C711.089,-894.988 627.16,-678.807 588.804,-580.01"/>
<polygon fill="none" stroke="midnightblue" points="745.236,-992.612 752.118,-1000.67 751.761,-990.078 745.236,-992.612"/>
</g>
<!-- Node16 -->
<g id="node31" class="node"><title>Node16</title>
<a xlink:href="../../d5/df9/a00044.htm" target="_top" xlink:title="class for a default car * ">
<polygon fill="none" stroke="black" points="1062,-283 1062,-775 1214,-775 1214,-283 1062,-283"/>
<text text-anchor="start" x="1070" y="-762.9" font-family="Helvetica,sans-Serif" font-size="9.00">de.tu_clausthal.in.mec.object.car.</text>
<text text-anchor="middle" x="1138" y="-749.9" font-family="Helvetica,sans-Serif" font-size="9.00">CDefaultCar</text>
<polyline fill="none" stroke="black" points="1062,-741 1214,-741 "/>
<text text-anchor="start" x="1070" y="-728.9" font-family="Helvetica,sans-Serif" font-size="9.00"># m_layer</text>
<text text-anchor="start" x="1070" y="-715.9" font-family="Helvetica,sans-Serif" font-size="9.00"># m_maxspeed</text>
<text text-anchor="start" x="1070" y="-702.9" font-family="Helvetica,sans-Serif" font-size="9.00"># m_route</text>
<text text-anchor="start" x="1070" y="-689.9" font-family="Helvetica,sans-Serif" font-size="9.00"># m_routeindex</text>
<text text-anchor="start" x="1070" y="-676.9" font-family="Helvetica,sans-Serif" font-size="9.00"># m_speed</text>
<text text-anchor="start" x="1070" y="-663.9" font-family="Helvetica,sans-Serif" font-size="9.00">&#45; m_acceleration</text>
<text text-anchor="start" x="1070" y="-650.9" font-family="Helvetica,sans-Serif" font-size="9.00">&#45; m_deceleration</text>
<text text-anchor="start" x="1070" y="-637.9" font-family="Helvetica,sans-Serif" font-size="9.00">&#45; m_endreached</text>
<text text-anchor="start" x="1070" y="-624.9" font-family="Helvetica,sans-Serif" font-size="9.00">&#45; m_inspect</text>
<text text-anchor="start" x="1070" y="-611.9" font-family="Helvetica,sans-Serif" font-size="9.00">&#45; m_lingerprobability</text>
<polyline fill="none" stroke="black" points="1062,-603 1214,-603 "/>
<text text-anchor="start" x="1070" y="-590.9" font-family="Helvetica,sans-Serif" font-size="9.00">+ CDefaultCar()</text>
<text text-anchor="start" x="1070" y="-577.9" font-family="Helvetica,sans-Serif" font-size="9.00">+ getAcceleration()</text>
<text text-anchor="start" x="1070" y="-564.9" font-family="Helvetica,sans-Serif" font-size="9.00">+ getCurrentSpeed()</text>
<text text-anchor="start" x="1070" y="-551.9" font-family="Helvetica,sans-Serif" font-size="9.00">+ getDeceleration()</text>
<text text-anchor="start" x="1070" y="-538.9" font-family="Helvetica,sans-Serif" font-size="9.00">+ getEdge()</text>
<text text-anchor="start" x="1070" y="-525.9" font-family="Helvetica,sans-Serif" font-size="9.00">+ getGeoposition()</text>
<text text-anchor="start" x="1070" y="-512.9" font-family="Helvetica,sans-Serif" font-size="9.00">+ getLingerProbability()</text>
<text text-anchor="start" x="1070" y="-499.9" font-family="Helvetica,sans-Serif" font-size="9.00">+ getMaximumSpeed()</text>
<text text-anchor="start" x="1070" y="-486.9" font-family="Helvetica,sans-Serif" font-size="9.00">+ getPredecessor()</text>
<text text-anchor="start" x="1070" y="-473.9" font-family="Helvetica,sans-Serif" font-size="9.00">+ getPredecessor()</text>
<text text-anchor="start" x="1070" y="-460.9" font-family="Helvetica,sans-Serif" font-size="9.00">+ hasEndReached()</text>
<text text-anchor="start" x="1070" y="-447.9" font-family="Helvetica,sans-Serif" font-size="9.00">+ inspect()</text>
<text text-anchor="start" x="1070" y="-434.9" font-family="Helvetica,sans-Serif" font-size="9.00">+ onClick()</text>
<text text-anchor="start" x="1070" y="-421.9" font-family="Helvetica,sans-Serif" font-size="9.00">+ paint()</text>
<text text-anchor="start" x="1070" y="-408.9" font-family="Helvetica,sans-Serif" font-size="9.00">+ release()</text>
<text text-anchor="start" x="1070" y="-395.9" font-family="Helvetica,sans-Serif" font-size="9.00">+ setCurrentSpeed()</text>
<text text-anchor="start" x="1070" y="-382.9" font-family="Helvetica,sans-Serif" font-size="9.00">+ step()</text>
<text text-anchor="start" x="1070" y="-369.9" font-family="Helvetica,sans-Serif" font-size="9.00"># getCurrentPosition()</text>
<text text-anchor="start" x="1070" y="-356.9" font-family="Helvetica,sans-Serif" font-size="9.00">&#45; getCurrentCarsOnEdge()</text>
<text text-anchor="start" x="1070" y="-343.9" font-family="Helvetica,sans-Serif" font-size="9.00">&#45; getCurrentEdgeMaxSpeed()</text>
<text text-anchor="start" x="1070" y="-330.9" font-family="Helvetica,sans-Serif" font-size="9.00">&#45; getEdge()</text>
<text text-anchor="start" x="1070" y="-317.9" font-family="Helvetica,sans-Serif" font-size="9.00">&#45; getRouteLine()</text>
<text text-anchor="start" x="1070" y="-304.9" font-family="Helvetica,sans-Serif" font-size="9.00">&#45; reroute()</text>
<text text-anchor="start" x="1070" y="-291.9" font-family="Helvetica,sans-Serif" font-size="9.00">&#45; reroute()</text>
</a>
</g>
<!-- Node15&#45;&gt;Node16 -->
<g id="edge30" class="edge"><title>Node15&#45;&gt;Node16</title>
<path fill="none" stroke="midnightblue" d="M995.718,-932.941C1013.49,-885.082 1034.54,-827.787 1053,-776 1055.93,-767.777 1058.9,-759.394 1061.89,-750.921"/>
<polygon fill="none" stroke="midnightblue" points="992.412,-931.789 992.21,-942.382 998.974,-934.227 992.412,-931.789"/>
</g>
<!-- Node17 -->
<g id="node33" class="node"><title>Node17</title>
<a xlink:href="../../dc/de2/a00024.htm" target="_top" xlink:title="agent car ">
<polygon fill="none" stroke="black" points="1062,-0.5 1062,-245.5 1214,-245.5 1214,-0.5 1062,-0.5"/>
<text text-anchor="start" x="1070" y="-233.4" font-family="Helvetica,sans-Serif" font-size="9.00">de.tu_clausthal.in.mec.object.car.</text>
<text text-anchor="middle" x="1138" y="-220.4" font-family="Helvetica,sans-Serif" font-size="9.00">CCarJasonAgent</text>
<polyline fill="none" stroke="black" points="1062,-211.5 1214,-211.5 "/>
<text text-anchor="start" x="1070" y="-199.4" font-family="Helvetica,sans-Serif" font-size="9.00">&#45; m_agentlayer</text>
<text text-anchor="start" x="1070" y="-186.4" font-family="Helvetica,sans-Serif" font-size="9.00">&#45; m_agents</text>
<text text-anchor="start" x="1070" y="-173.4" font-family="Helvetica,sans-Serif" font-size="9.00">&#45; m_inspect</text>
<text text-anchor="start" x="1070" y="-160.4" font-family="Helvetica,sans-Serif" font-size="9.00">&#45; m_objectpath</text>
<text text-anchor="start" x="1070" y="-147.4" font-family="Helvetica,sans-Serif" font-size="9.00">&#45; m_seenpredecessors</text>
<text text-anchor="start" x="1070" y="-134.4" font-family="Helvetica,sans-Serif" font-size="9.00">&#45; m_trafficbeliefbase</text>
<polyline fill="none" stroke="black" points="1062,-125.5 1214,-125.5 "/>
<text text-anchor="start" x="1070" y="-113.4" font-family="Helvetica,sans-Serif" font-size="9.00">+ CCarJasonAgent()</text>
<text text-anchor="start" x="1070" y="-100.4" font-family="Helvetica,sans-Serif" font-size="9.00">+ CCarJasonAgent()</text>
<text text-anchor="start" x="1070" y="-87.4" font-family="Helvetica,sans-Serif" font-size="9.00">+ getReceiverPath()</text>
<text text-anchor="start" x="1070" y="-74.4" font-family="Helvetica,sans-Serif" font-size="9.00">+ inspect()</text>
<text text-anchor="start" x="1070" y="-61.4" font-family="Helvetica,sans-Serif" font-size="9.00">+ receiveMessage()</text>
<text text-anchor="start" x="1070" y="-48.4" font-family="Helvetica,sans-Serif" font-size="9.00">+ release()</text>
<text text-anchor="start" x="1070" y="-35.4" font-family="Helvetica,sans-Serif" font-size="9.00">+ step()</text>
<text text-anchor="start" x="1070" y="-22.4" font-family="Helvetica,sans-Serif" font-size="9.00">&#45; bind()</text>
<text text-anchor="start" x="1070" y="-9.4" font-family="Helvetica,sans-Serif" font-size="9.00">&#45; getPredecessorWithName()</text>
</a>
</g>
<!-- Node16&#45;&gt;Node17 -->
<g id="edge32" class="edge"><title>Node16&#45;&gt;Node17</title>
<path fill="none" stroke="midnightblue" d="M1138,-272.848C1138,-263.656 1138,-254.621 1138,-245.825"/>
<polygon fill="none" stroke="midnightblue" points="1134.5,-272.879 1138,-282.879 1141.5,-272.879 1134.5,-272.879"/>
</g>
</g>
</svg>
