<?xml version="1.0" encoding="UTF-8" standalone="no"?>
<!DOCTYPE svg PUBLIC "-//W3C//DTD SVG 1.1//EN"
 "http://www.w3.org/Graphics/SVG/1.1/DTD/svg11.dtd">
<!-- Generated by graphviz version 2.26.3 (20100126.1600)
 -->
<!-- Title: de.tu_clausthal.in.mec.object.mas.generic.IBeliefBaseAction&lt; T &gt;.getStorage Pages: 1 -->
<svg width="490pt" height="406pt"
 viewBox="0.00 0.00 490.00 406.00" xmlns="http://www.w3.org/2000/svg" xmlns:xlink="http://www.w3.org/1999/xlink">
<g id="graph1" class="graph" transform="scale(1 1) rotate(0) translate(4 402)">
<title>de.tu_clausthal.in.mec.object.mas.generic.IBeliefBaseAction&lt; T &gt;.getStorage</title>
<!-- Node1 -->
<g id="node1" class="node"><title>Node1</title>
<polygon fill="#bfbfbf" stroke="black" points="0,-182 0,-216 190,-216 190,-182 0,-182"/>
<text text-anchor="start" x="8" y="-203.9" font-family="Helvetica,sans-Serif" font-size="9.00">de.tu_clausthal.in.mec.object.mas.generic.</text>
<text text-anchor="middle" x="95" y="-190.9" font-family="Helvetica,sans-Serif" font-size="9.00">IBeliefBaseAction&lt; T &gt;.getStorage</text>
</g>
<!-- Node2 -->
<g id="node3" class="node"><title>Node2</title>
<a xlink:href="../../d9/da4/a00078.htm#a87f090d56492d71e8b9ccee8fce9a020" target="_top" xlink:title="de.tu_clausthal.in.mec.object.mas.generic.implementation.\lCMask\&lt; T \&gt;.add">
<polygon fill="none" stroke="black" points="226.5,-364 226.5,-398 481.5,-398 481.5,-364 226.5,-364"/>
<text text-anchor="start" x="234.5" y="-385.9" font-family="Helvetica,sans-Serif" font-size="9.00">de.tu_clausthal.in.mec.object.mas.generic.implementation.</text>
<text text-anchor="middle" x="354" y="-372.9" font-family="Helvetica,sans-Serif" font-size="9.00">CMask&lt; T &gt;.add</text>
</a>
</g>
<!-- Node1&#45;&gt;Node2 -->
<g id="edge2" class="edge"><title>Node1&#45;&gt;Node2</title>
<path fill="none" stroke="midnightblue" d="M109.133,-224.885C129.869,-260.241 172.001,-322.899 226,-355 231.75,-358.418 237.875,-361.394 244.211,-363.984"/>
<polygon fill="midnightblue" stroke="midnightblue" points="112.106,-223.034 104.093,-216.102 106.035,-226.517 112.106,-223.034"/>
</g>
<!-- Node3 -->
<g id="node5" class="node"><title>Node3</title>
<a xlink:href="../../d9/da4/a00078.htm#a56f49c6f737c8a94e8d0518b53231f5d" target="_top" xlink:title="de.tu_clausthal.in.mec.object.mas.generic.implementation.\lCMask\&lt; T \&gt;.containsLiteral">
<polygon fill="none" stroke="black" points="226.5,-312 226.5,-346 481.5,-346 481.5,-312 226.5,-312"/>
<text text-anchor="start" x="234.5" y="-333.9" font-family="Helvetica,sans-Serif" font-size="9.00">de.tu_clausthal.in.mec.object.mas.generic.implementation.</text>
<text text-anchor="middle" x="354" y="-320.9" font-family="Helvetica,sans-Serif" font-size="9.00">CMask&lt; T &gt;.containsLiteral</text>
</a>
</g>
<!-- Node1&#45;&gt;Node3 -->
<g id="edge4" class="edge"><title>Node1&#45;&gt;Node3</title>
<path fill="none" stroke="midnightblue" d="M118.396,-223.356C142.924,-247.392 183.716,-283.315 226,-303 233.298,-306.397 241.033,-309.353 248.944,-311.923"/>
<polygon fill="midnightblue" stroke="midnightblue" points="120.576,-220.587 111.023,-216.005 115.633,-225.544 120.576,-220.587"/>
</g>
<!-- Node4 -->
<g id="node7" class="node"><title>Node4</title>
<a xlink:href="../../d9/da4/a00078.htm#ae8b8a96e67aed630ab2f0801ca1e4f46" target="_top" xlink:title="de.tu_clausthal.in.mec.object.mas.generic.implementation.\lCMask\&lt; T \&gt;.containsMask">
<polygon fill="none" stroke="black" points="226.5,-260 226.5,-294 481.5,-294 481.5,-260 226.5,-260"/>
<text text-anchor="start" x="234.5" y="-281.9" font-family="Helvetica,sans-Serif" font-size="9.00">de.tu_clausthal.in.mec.object.mas.generic.implementation.</text>
<text text-anchor="middle" x="354" y="-268.9" font-family="Helvetica,sans-Serif" font-size="9.00">CMask&lt; T &gt;.containsMask</text>
</a>
</g>
<!-- Node1&#45;&gt;Node4 -->
<g id="edge6" class="edge"><title>Node1&#45;&gt;Node4</title>
<path fill="none" stroke="midnightblue" d="M142.225,-220.102C166.831,-230.49 197.634,-242.562 226,-251 236.976,-254.265 248.603,-257.254 260.196,-259.948"/>
<polygon fill="midnightblue" stroke="midnightblue" points="143.345,-216.775 132.774,-216.066 140.597,-223.212 143.345,-216.775"/>
</g>
<!-- Node5 -->
<g id="node9" class="node"><title>Node5</title>
<a xlink:href="../../d9/da4/a00078.htm#ae107b6c3f16c70cb6e8b3a273db3e65e" target="_top" xlink:title="de.tu_clausthal.in.mec.object.mas.generic.implementation.\lCMask\&lt; T \&gt;.getLiterals">
<polygon fill="none" stroke="black" points="226.5,-208 226.5,-242 481.5,-242 481.5,-208 226.5,-208"/>
<text text-anchor="start" x="234.5" y="-229.9" font-family="Helvetica,sans-Serif" font-size="9.00">de.tu_clausthal.in.mec.object.mas.generic.implementation.</text>
<text text-anchor="middle" x="354" y="-216.9" font-family="Helvetica,sans-Serif" font-size="9.00">CMask&lt; T &gt;.getLiterals</text>
</a>
</g>
<!-- Node1&#45;&gt;Node5 -->
<g id="edge8" class="edge"><title>Node1&#45;&gt;Node5</title>
<path fill="none" stroke="midnightblue" d="M200.56,-209.597C209.006,-210.445 217.592,-211.306 226.168,-212.167"/>
<polygon fill="midnightblue" stroke="midnightblue" points="200.638,-206.087 190.339,-208.571 199.939,-213.052 200.638,-206.087"/>
</g>
<!-- Node6 -->
<g id="node11" class="node"><title>Node6</title>
<a xlink:href="../../d9/da4/a00078.htm#ab899d51f321a5fd7e4dc205ffc43ab09" target="_top" xlink:title="de.tu_clausthal.in.mec.object.mas.generic.implementation.\lCMask\&lt; T \&gt;.getMasks">
<polygon fill="none" stroke="black" points="226.5,-156 226.5,-190 481.5,-190 481.5,-156 226.5,-156"/>
<text text-anchor="start" x="234.5" y="-177.9" font-family="Helvetica,sans-Serif" font-size="9.00">de.tu_clausthal.in.mec.object.mas.generic.implementation.</text>
<text text-anchor="middle" x="354" y="-164.9" font-family="Helvetica,sans-Serif" font-size="9.00">CMask&lt; T &gt;.getMasks</text>
</a>
</g>
<!-- Node1&#45;&gt;Node6 -->
<g id="edge10" class="edge"><title>Node1&#45;&gt;Node6</title>
<path fill="none" stroke="midnightblue" d="M200.56,-188.403C209.006,-187.555 217.592,-186.694 226.168,-185.833"/>
<polygon fill="midnightblue" stroke="midnightblue" points="199.939,-184.948 190.339,-189.429 200.638,-191.913 199.939,-184.948"/>
</g>
<!-- Node7 -->
<g id="node13" class="node"><title>Node7</title>
<a xlink:href="../../d9/da4/a00078.htm#ae035e9e7bfb696856533b211e3142416" target="_top" xlink:title="de.tu_clausthal.in.mec.object.mas.generic.implementation.\lCMask\&lt; T \&gt;.iteratorBeliefBaseMask">
<polygon fill="none" stroke="black" points="226.5,-104 226.5,-138 481.5,-138 481.5,-104 226.5,-104"/>
<text text-anchor="start" x="234.5" y="-125.9" font-family="Helvetica,sans-Serif" font-size="9.00">de.tu_clausthal.in.mec.object.mas.generic.implementation.</text>
<text text-anchor="middle" x="354" y="-112.9" font-family="Helvetica,sans-Serif" font-size="9.00">CMask&lt; T &gt;.iteratorBeliefBaseMask</text>
</a>
</g>
<!-- Node1&#45;&gt;Node7 -->
<g id="edge12" class="edge"><title>Node1&#45;&gt;Node7</title>
<path fill="none" stroke="midnightblue" d="M142.225,-177.898C166.831,-167.51 197.634,-155.438 226,-147 236.976,-143.735 248.603,-140.746 260.196,-138.052"/>
<polygon fill="midnightblue" stroke="midnightblue" points="140.597,-174.788 132.774,-181.934 143.345,-181.225 140.597,-174.788"/>
</g>
<!-- Node8 -->
<g id="node15" class="node"><title>Node8</title>
<a xlink:href="../../d9/da4/a00078.htm#a1e02420b200283aec7215e455769db74" target="_top" xlink:title="de.tu_clausthal.in.mec.object.mas.generic.implementation.\lCMask\&lt; T \&gt;.iteratorLiteral">
<polygon fill="none" stroke="black" points="226.5,-52 226.5,-86 481.5,-86 481.5,-52 226.5,-52"/>
<text text-anchor="start" x="234.5" y="-73.9" font-family="Helvetica,sans-Serif" font-size="9.00">de.tu_clausthal.in.mec.object.mas.generic.implementation.</text>
<text text-anchor="middle" x="354" y="-60.9" font-family="Helvetica,sans-Serif" font-size="9.00">CMask&lt; T &gt;.iteratorLiteral</text>
</a>
</g>
<!-- Node1&#45;&gt;Node8 -->
<g id="edge14" class="edge"><title>Node1&#45;&gt;Node8</title>
<path fill="none" stroke="midnightblue" d="M118.396,-174.644C142.924,-150.608 183.716,-114.685 226,-95 233.298,-91.6025 241.033,-88.6473 248.944,-86.0771"/>
<polygon fill="midnightblue" stroke="midnightblue" points="115.633,-172.456 111.023,-181.995 120.576,-177.413 115.633,-172.456"/>
</g>
<!-- Node9 -->
<g id="node17" class="node"><title>Node9</title>
<a xlink:href="../../d9/da4/a00078.htm#ae2f24e8bf5ddf772e1860a9a9a72e68f" target="_top" xlink:title="de.tu_clausthal.in.mec.object.mas.generic.implementation.\lCMask\&lt; T \&gt;.toString">
<polygon fill="none" stroke="black" points="226.5,-0 226.5,-34 481.5,-34 481.5,-0 226.5,-0"/>
<text text-anchor="start" x="234.5" y="-21.9" font-family="Helvetica,sans-Serif" font-size="9.00">de.tu_clausthal.in.mec.object.mas.generic.implementation.</text>
<text text-anchor="middle" x="354" y="-8.9" font-family="Helvetica,sans-Serif" font-size="9.00">CMask&lt; T &gt;.toString</text>
</a>
</g>
<!-- Node1&#45;&gt;Node9 -->
<g id="edge16" class="edge"><title>Node1&#45;&gt;Node9</title>
<path fill="none" stroke="midnightblue" d="M109.133,-173.115C129.869,-137.759 172.001,-75.1005 226,-43 231.75,-39.5817 237.875,-36.606 244.211,-34.0162"/>
<polygon fill="midnightblue" stroke="midnightblue" points="106.035,-171.483 104.093,-181.898 112.106,-174.966 106.035,-171.483"/>
</g>
</g>
</svg>
