<?xml version="1.0" encoding="UTF-8" standalone="no"?>
<!DOCTYPE svg PUBLIC "-//W3C//DTD SVG 1.1//EN"
 "http://www.w3.org/Graphics/SVG/1.1/DTD/svg11.dtd">
<!-- Generated by graphviz version 2.26.3 (20100126.1600)
 -->
<!-- Title: de.tu_clausthal.in.mec.common.CReflection.CClassIndex Pages: 1 -->
<svg width="156pt" height="356pt"
 viewBox="0.00 0.00 156.00 356.00" xmlns="http://www.w3.org/2000/svg" xmlns:xlink="http://www.w3.org/1999/xlink">
<g id="graph1" class="graph" transform="scale(1 1) rotate(0) translate(4 352)">
<title>de.tu_clausthal.in.mec.common.CReflection.CClassIndex</title>
<!-- Node1 -->
<g id="node1" class="node"><title>Node1</title>
<polygon fill="#bfbfbf" stroke="black" points="0,-1 0,-207 148,-207 148,-1 0,-1"/>
<text text-anchor="start" x="8" y="-194.9" font-family="Helvetica,sans-Serif" font-size="9.00">de.tu_clausthal.in.mec.common.</text>
<text text-anchor="middle" x="74" y="-181.9" font-family="Helvetica,sans-Serif" font-size="9.00">CReflection.CClassIndex</text>
<polyline fill="none" stroke="black" points="0,-173 148,-173 "/>
<text text-anchor="start" x="8" y="-160.9" font-family="Helvetica,sans-Serif" font-size="9.00">&#45; m_classname</text>
<text text-anchor="start" x="8" y="-147.9" font-family="Helvetica,sans-Serif" font-size="9.00">&#45; m_filter</text>
<text text-anchor="start" x="8" y="-134.9" font-family="Helvetica,sans-Serif" font-size="9.00">&#45; c_classextension</text>
<polyline fill="none" stroke="black" points="0,-126 148,-126 "/>
<text text-anchor="start" x="8" y="-113.9" font-family="Helvetica,sans-Serif" font-size="9.00">+ CClassIndex()</text>
<text text-anchor="start" x="8" y="-100.9" font-family="Helvetica,sans-Serif" font-size="9.00">+ filter()</text>
<text text-anchor="start" x="8" y="-87.9" font-family="Helvetica,sans-Serif" font-size="9.00">+ get()</text>
<text text-anchor="start" x="8" y="-74.9" font-family="Helvetica,sans-Serif" font-size="9.00">+ getAll()</text>
<text text-anchor="start" x="8" y="-61.9" font-family="Helvetica,sans-Serif" font-size="9.00">+ scan()</text>
<text text-anchor="start" x="8" y="-48.9" font-family="Helvetica,sans-Serif" font-size="9.00">+ scanDirectory()</text>
<text text-anchor="start" x="8" y="-35.9" font-family="Helvetica,sans-Serif" font-size="9.00">+ scanJar()</text>
<text text-anchor="start" x="8" y="-22.9" font-family="Helvetica,sans-Serif" font-size="9.00">&#45; getClassnameFromFile()</text>
<text text-anchor="start" x="8" y="-9.9" font-family="Helvetica,sans-Serif" font-size="9.00">&#45; startsIgnoreWith()</text>
</g>
<!-- Node2 -->
<g id="node2" class="node"><title>Node2</title>
<a xlink:href="../../d5/d79/a00030.htm#d0/da0/a00403" target="_top" xlink:title="enum to define the filter * ">
<polygon fill="none" stroke="black" points="0,-258.5 0,-347.5 148,-347.5 148,-258.5 0,-258.5"/>
<text text-anchor="start" x="8" y="-335.4" font-family="Helvetica,sans-Serif" font-size="9.00">de.tu_clausthal.in.mec.common.</text>
<text text-anchor="middle" x="74" y="-322.4" font-family="Helvetica,sans-Serif" font-size="9.00">CReflection.CClassIndex.EFilter</text>
<polyline fill="none" stroke="black" points="0,-313.5 148,-313.5 "/>
<text text-anchor="start" x="8" y="-301.4" font-family="Helvetica,sans-Serif" font-size="9.00">+ BlackList</text>
<text text-anchor="start" x="8" y="-288.4" font-family="Helvetica,sans-Serif" font-size="9.00">+ WhiteList</text>
<polyline fill="none" stroke="black" points="0,-279.5 148,-279.5 "/>
<text text-anchor="middle" x="74" y="-267.4" font-family="Helvetica,sans-Serif" font-size="9.00"> </text>
</a>
</g>
<!-- Node2&#45;&gt;Node1 -->
<g id="edge2" class="edge"><title>Node2&#45;&gt;Node1</title>
<path fill="none" stroke="#404040" d="M74,-258.341C74,-246.464 74,-233.072 74,-219.263"/>
<polygon fill="none" stroke="#404040" points="74.0001,-219.05 70,-213.05 74,-207.05 78,-213.05 74.0001,-219.05"/>
<text text-anchor="middle" x="110.5" y="-231.4" font-family="Helvetica,sans-Serif" font-size="9.00"> &#45;m_filterdefinition</text>
</g>
</g>
</svg>
