<?xml version="1.0" encoding="UTF-8" standalone="no"?>
<!DOCTYPE svg PUBLIC "-//W3C//DTD SVG 1.1//EN"
 "http://www.w3.org/Graphics/SVG/1.1/DTD/svg11.dtd">
<!-- Generated by graphviz version 2.26.3 (20100126.1600)
 -->
<!-- Title: de.tu_clausthal.in.mec.object.car.drivemodel.CNagelSchreckenberg.checkLinger Pages: 1 -->
<svg width="396pt" height="146pt"
 viewBox="0.00 0.00 396.00 146.00" xmlns="http://www.w3.org/2000/svg" xmlns:xlink="http://www.w3.org/1999/xlink">
<g id="graph1" class="graph" transform="scale(1 1) rotate(0) translate(4 142)">
<title>de.tu_clausthal.in.mec.object.car.drivemodel.CNagelSchreckenberg.checkLinger</title>
<!-- Node1 -->
<g id="node1" class="node"><title>Node1</title>
<polygon fill="#bfbfbf" stroke="black" points="0,-52 0,-86 200,-86 200,-52 0,-52"/>
<text text-anchor="start" x="8" y="-73.9" font-family="Helvetica,sans-Serif" font-size="9.00">de.tu_clausthal.in.mec.object.car.drivemodel.</text>
<text text-anchor="middle" x="100" y="-60.9" font-family="Helvetica,sans-Serif" font-size="9.00">CNagelSchreckenberg.checkLinger</text>
</g>
<!-- Node2 -->
<g id="node3" class="node"><title>Node2</title>
<a xlink:href="../../d3/d65/a00154.htm#af993a5a85254998392d892455e52c229" target="_top" xlink:title="returns the current speed of the car ">
<polygon fill="none" stroke="black" points="236,-104 236,-138 388,-138 388,-104 236,-104"/>
<text text-anchor="start" x="244" y="-125.9" font-family="Helvetica,sans-Serif" font-size="9.00">de.tu_clausthal.in.mec.object.car.</text>
<text text-anchor="middle" x="312" y="-112.9" font-family="Helvetica,sans-Serif" font-size="9.00">ICar.getCurrentSpeed</text>
</a>
</g>
<!-- Node1&#45;&gt;Node2 -->
<g id="edge2" class="edge"><title>Node1&#45;&gt;Node2</title>
<path fill="none" stroke="midnightblue" d="M169.417,-86.0267C189.641,-90.9874 211.89,-96.4448 232.676,-101.543"/>
<polygon fill="midnightblue" stroke="midnightblue" points="231.881,-104.952 242.427,-103.935 233.549,-98.1535 231.881,-104.952"/>
</g>
<!-- Node3 -->
<g id="node5" class="node"><title>Node3</title>
<a xlink:href="../../d6/d5b/a00026.htm#ad7cda1f059b200eb8f5688feeda93a98" target="_top" xlink:title="returns the unit converting object ">
<polygon fill="none" stroke="black" points="236,-52 236,-86 388,-86 388,-52 236,-52"/>
<text text-anchor="start" x="244" y="-73.9" font-family="Helvetica,sans-Serif" font-size="9.00">de.tu_clausthal.in.mec.object.car.</text>
<text text-anchor="middle" x="312" y="-60.9" font-family="Helvetica,sans-Serif" font-size="9.00">CCarLayer.getUnitConvert</text>
</a>
</g>
<!-- Node1&#45;&gt;Node3 -->
<g id="edge4" class="edge"><title>Node1&#45;&gt;Node3</title>
<path fill="none" stroke="midnightblue" d="M200.102,-69C208.639,-69 217.227,-69 225.643,-69"/>
<polygon fill="midnightblue" stroke="midnightblue" points="225.809,-72.5001 235.809,-69 225.809,-65.5001 225.809,-72.5001"/>
</g>
<!-- Node4 -->
<g id="node7" class="node"><title>Node4</title>
<a xlink:href="../../d3/d65/a00154.htm#ac41bfba4cace1de3f430a034ae2695ea" target="_top" xlink:title="sets the current speed of the care ">
<polygon fill="none" stroke="black" points="236,-0 236,-34 388,-34 388,-0 236,-0"/>
<text text-anchor="start" x="244" y="-21.9" font-family="Helvetica,sans-Serif" font-size="9.00">de.tu_clausthal.in.mec.object.car.</text>
<text text-anchor="middle" x="312" y="-8.9" font-family="Helvetica,sans-Serif" font-size="9.00">ICar.setCurrentSpeed</text>
</a>
</g>
<!-- Node1&#45;&gt;Node4 -->
<g id="edge6" class="edge"><title>Node1&#45;&gt;Node4</title>
<path fill="none" stroke="midnightblue" d="M169.417,-51.9733C189.641,-47.0126 211.89,-41.5552 232.676,-36.4569"/>
<polygon fill="midnightblue" stroke="midnightblue" points="233.549,-39.8465 242.427,-34.065 231.881,-33.0481 233.549,-39.8465"/>
</g>
</g>
</svg>
