<?xml version="1.0" encoding="UTF-8" standalone="no"?>
<!DOCTYPE svg PUBLIC "-//W3C//DTD SVG 1.1//EN"
 "http://www.w3.org/Graphics/SVG/1.1/DTD/svg11.dtd">
<!-- Generated by graphviz version 2.26.3 (20100126.1600)
 -->
<!-- Title: de.tu_clausthal.in.mec.object.car.drivemodel.CNagelSchreckenberg.checkAccelerationWithEdgeSpeed Pages: 1 -->
<svg width="450pt" height="94pt"
 viewBox="0.00 0.00 450.00 94.00" xmlns="http://www.w3.org/2000/svg" xmlns:xlink="http://www.w3.org/1999/xlink">
<g id="graph1" class="graph" transform="scale(1 1) rotate(0) translate(4 90)">
<title>de.tu_clausthal.in.mec.object.car.drivemodel.CNagelSchreckenberg.checkAccelerationWithEdgeSpeed</title>
<!-- Node1 -->
<g id="node1" class="node"><title>Node1</title>
<polygon fill="#bfbfbf" stroke="black" points="0,-26 0,-60 254,-60 254,-26 0,-26"/>
<text text-anchor="start" x="8" y="-47.9" font-family="Helvetica,sans-Serif" font-size="9.00">de.tu_clausthal.in.mec.object.car.drivemodel.</text>
<text text-anchor="middle" x="127" y="-34.9" font-family="Helvetica,sans-Serif" font-size="9.00">CNagelSchreckenberg.checkAccelerationWithEdgeSpeed</text>
</g>
<!-- Node2 -->
<g id="node3" class="node"><title>Node2</title>
<a xlink:href="../../d3/d65/a00154.htm#a40a75a87a634bd4d6dd1d7812aa2ca97" target="_top" xlink:title="define an individual acceleration ">
<polygon fill="none" stroke="black" points="290,-52 290,-86 442,-86 442,-52 290,-52"/>
<text text-anchor="start" x="298" y="-73.9" font-family="Helvetica,sans-Serif" font-size="9.00">de.tu_clausthal.in.mec.object.car.</text>
<text text-anchor="middle" x="366" y="-60.9" font-family="Helvetica,sans-Serif" font-size="9.00">ICar.getAcceleration</text>
</a>
</g>
<!-- Node1&#45;&gt;Node2 -->
<g id="edge2" class="edge"><title>Node1&#45;&gt;Node2</title>
<path fill="none" stroke="midnightblue" d="M254.197,-56.8374C262.836,-57.7772 271.421,-58.7111 279.77,-59.6194"/>
<polygon fill="midnightblue" stroke="midnightblue" points="279.506,-63.1112 289.826,-60.7133 280.263,-56.1522 279.506,-63.1112"/>
</g>
<!-- Node3 -->
<g id="node5" class="node"><title>Node3</title>
<a xlink:href="../../d3/d65/a00154.htm#a34382f0a69890397a758c16b94e0f3cb" target="_top" xlink:title="get current edge object on the graph ">
<polygon fill="none" stroke="black" points="290,-0 290,-34 442,-34 442,-0 290,-0"/>
<text text-anchor="start" x="298" y="-21.9" font-family="Helvetica,sans-Serif" font-size="9.00">de.tu_clausthal.in.mec.object.car.</text>
<text text-anchor="middle" x="366" y="-8.9" font-family="Helvetica,sans-Serif" font-size="9.00">ICar.getEdge</text>
</a>
</g>
<!-- Node1&#45;&gt;Node3 -->
<g id="edge4" class="edge"><title>Node1&#45;&gt;Node3</title>
<path fill="none" stroke="midnightblue" d="M254.197,-29.1626C262.836,-28.2228 271.421,-27.2889 279.77,-26.3806"/>
<polygon fill="midnightblue" stroke="midnightblue" points="280.263,-29.8478 289.826,-25.2867 279.506,-22.8888 280.263,-29.8478"/>
</g>
</g>
</svg>
