<?xml version="1.0" encoding="UTF-8" standalone="no"?>
<!DOCTYPE svg PUBLIC "-//W3C//DTD SVG 1.1//EN"
 "http://www.w3.org/Graphics/SVG/1.1/DTD/svg11.dtd">
<!-- Generated by graphviz version 2.26.3 (20100126.1600)
 -->
<!-- Title: de.tu_clausthal.in.mec.ui.web.CServer.getURIBase Pages: 1 -->
<svg width="324pt" height="94pt"
 viewBox="0.00 0.00 324.00 94.00" xmlns="http://www.w3.org/2000/svg" xmlns:xlink="http://www.w3.org/1999/xlink">
<g id="graph1" class="graph" transform="scale(1 1) rotate(0) translate(4 90)">
<title>de.tu_clausthal.in.mec.ui.web.CServer.getURIBase</title>
<!-- Node1 -->
<g id="node1" class="node"><title>Node1</title>
<polygon fill="#bfbfbf" stroke="black" points="0,-26 0,-60 140,-60 140,-26 0,-26"/>
<text text-anchor="start" x="8" y="-47.9" font-family="Helvetica,sans-Serif" font-size="9.00">de.tu_clausthal.in.mec.ui.web.</text>
<text text-anchor="middle" x="70" y="-34.9" font-family="Helvetica,sans-Serif" font-size="9.00">CServer.getURIBase</text>
</g>
<!-- Node2 -->
<g id="node3" class="node"><title>Node2</title>
<a xlink:href="../../da/d74/a00099.htm#a51b4c6627a13c8b4b6a88d60827ad8eb" target="_top" xlink:title="dynamic method binding ">
<polygon fill="none" stroke="black" points="176,-52 176,-86 316,-86 316,-52 176,-52"/>
<text text-anchor="start" x="184" y="-73.9" font-family="Helvetica,sans-Serif" font-size="9.00">de.tu_clausthal.in.mec.ui.web.</text>
<text text-anchor="middle" x="246" y="-60.9" font-family="Helvetica,sans-Serif" font-size="9.00">CServer.bindDynamicMethod</text>
</a>
</g>
<!-- Node1&#45;&gt;Node2 -->
<g id="edge2" class="edge"><title>Node1&#45;&gt;Node2</title>
<path fill="none" stroke="midnightblue" d="M150.101,-54.833C158.706,-56.1043 167.412,-57.3905 175.888,-58.6425"/>
<polygon fill="midnightblue" stroke="midnightblue" points="150.47,-51.3497 140.066,-53.3506 149.447,-58.2745 150.47,-51.3497"/>
</g>
<!-- Node3 -->
<g id="node5" class="node"><title>Node3</title>
<a xlink:href="../../da/d74/a00099.htm#aa9b16ac51715225c54977db2bca9ed6b" target="_top" xlink:title="static method binding ">
<polygon fill="none" stroke="black" points="176,-0 176,-34 316,-34 316,-0 176,-0"/>
<text text-anchor="start" x="184" y="-21.9" font-family="Helvetica,sans-Serif" font-size="9.00">de.tu_clausthal.in.mec.ui.web.</text>
<text text-anchor="middle" x="246" y="-8.9" font-family="Helvetica,sans-Serif" font-size="9.00">CServer.bindStaticMethod</text>
</a>
</g>
<!-- Node1&#45;&gt;Node3 -->
<g id="edge4" class="edge"><title>Node1&#45;&gt;Node3</title>
<path fill="none" stroke="midnightblue" d="M150.101,-31.167C158.706,-29.8957 167.412,-28.6095 175.888,-27.3575"/>
<polygon fill="midnightblue" stroke="midnightblue" points="149.447,-27.7255 140.066,-32.6494 150.47,-34.6503 149.447,-27.7255"/>
</g>
</g>
</svg>
