<?xml version="1.0" encoding="UTF-8" standalone="no"?>
<!DOCTYPE svg PUBLIC "-//W3C//DTD SVG 1.1//EN"
 "http://www.w3.org/Graphics/SVG/1.1/DTD/svg11.dtd">
<!-- Generated by graphviz version 2.26.3 (20100126.1600)
 -->
<!-- Title: de.tu_clausthal.in.mec.ui.web.CServer.bindStaticMethod Pages: 1 -->
<svg width="500pt" height="65pt"
 viewBox="0.00 0.00 500.00 65.00" xmlns="http://www.w3.org/2000/svg" xmlns:xlink="http://www.w3.org/1999/xlink">
<g id="graph1" class="graph" transform="scale(1 1) rotate(0) translate(4 61)">
<title>de.tu_clausthal.in.mec.ui.web.CServer.bindStaticMethod</title>
<!-- Node1 -->
<g id="node1" class="node"><title>Node1</title>
<polygon fill="#bfbfbf" stroke="black" points="0,-0 0,-34 140,-34 140,-0 0,-0"/>
<text text-anchor="start" x="8" y="-21.9" font-family="Helvetica,sans-Serif" font-size="9.00">de.tu_clausthal.in.mec.ui.web.</text>
<text text-anchor="middle" x="70" y="-8.9" font-family="Helvetica,sans-Serif" font-size="9.00">CServer.bindStaticMethod</text>
</g>
<!-- Node2 -->
<g id="node3" class="node"><title>Node2</title>
<a xlink:href="../../da/d74/a00099.htm#a187f58ccc118c9b6da41273735160a75" target="_top" xlink:title="returns URI base if exists ">
<polygon fill="none" stroke="black" points="176,-23 176,-57 316,-57 316,-23 176,-23"/>
<text text-anchor="start" x="184" y="-44.9" font-family="Helvetica,sans-Serif" font-size="9.00">de.tu_clausthal.in.mec.ui.web.</text>
<text text-anchor="middle" x="246" y="-31.9" font-family="Helvetica,sans-Serif" font-size="9.00">CServer.getURIBase</text>
</a>
</g>
<!-- Node1&#45;&gt;Node2 -->
<g id="edge2" class="edge"><title>Node1&#45;&gt;Node2</title>
<path fill="none" stroke="midnightblue" d="M140.066,-26.1563C148.54,-27.2638 157.247,-28.4016 165.852,-29.5261"/>
<polygon fill="midnightblue" stroke="midnightblue" points="165.519,-33.0122 175.888,-30.8376 166.426,-26.0713 165.519,-33.0122"/>
</g>
<!-- Node3 -->
<g id="node5" class="node"><title>Node3</title>
<a xlink:href="../../da/d74/a00099.htm#ad8b12b70d16247fa291b40eddf93309c" target="_top" xlink:title="converts a Java string to the URL specification ">
<polygon fill="none" stroke="black" points="352,-0 352,-34 492,-34 492,-0 352,-0"/>
<text text-anchor="start" x="360" y="-21.9" font-family="Helvetica,sans-Serif" font-size="9.00">de.tu_clausthal.in.mec.ui.web.</text>
<text text-anchor="middle" x="422" y="-8.9" font-family="Helvetica,sans-Serif" font-size="9.00">CServer.toURLFormat</text>
</a>
</g>
<!-- Node1&#45;&gt;Node3 -->
<g id="edge6" class="edge"><title>Node1&#45;&gt;Node3</title>
<path fill="none" stroke="midnightblue" d="M140.126,-14.7354C152.094,-14.4291 164.403,-14.1641 176,-14 238.216,-13.1198 253.784,-13.1198 316,-14 324.336,-14.1179 333.039,-14.288 341.719,-14.4881"/>
<polygon fill="midnightblue" stroke="midnightblue" points="341.792,-17.9908 351.874,-14.7354 341.962,-10.9929 341.792,-17.9908"/>
</g>
<!-- Node2&#45;&gt;Node3 -->
<g id="edge4" class="edge"><title>Node2&#45;&gt;Node3</title>
<path fill="none" stroke="midnightblue" d="M316.066,-30.8437C324.54,-29.7362 333.247,-28.5984 341.852,-27.4739"/>
<polygon fill="midnightblue" stroke="midnightblue" points="342.426,-30.9287 351.888,-26.1624 341.519,-23.9878 342.426,-30.9287"/>
</g>
</g>
</svg>
