<?xml version="1.0" encoding="UTF-8" standalone="no"?>
<!DOCTYPE svg PUBLIC "-//W3C//DTD SVG 1.1//EN"
 "http://www.w3.org/Graphics/SVG/1.1/DTD/svg11.dtd">
<!-- Generated by graphviz version 2.26.3 (20100126.1600)
 -->
<!-- Title: de.tu_clausthal.in.mec.ui.web.CServer.toURLFormat Pages: 1 -->
<svg width="500pt" height="103pt"
 viewBox="0.00 0.00 500.00 103.00" xmlns="http://www.w3.org/2000/svg" xmlns:xlink="http://www.w3.org/1999/xlink">
<g id="graph1" class="graph" transform="scale(1 1) rotate(0) translate(4 99)">
<title>de.tu_clausthal.in.mec.ui.web.CServer.toURLFormat</title>
<!-- Node1 -->
<g id="node1" class="node"><title>Node1</title>
<polygon fill="#bfbfbf" stroke="black" points="0,-26 0,-60 140,-60 140,-26 0,-26"/>
<text text-anchor="start" x="8" y="-47.9" font-family="Helvetica,sans-Serif" font-size="9.00">de.tu_clausthal.in.mec.ui.web.</text>
<text text-anchor="middle" x="70" y="-34.9" font-family="Helvetica,sans-Serif" font-size="9.00">CServer.toURLFormat</text>
</g>
<!-- Node2 -->
<g id="node3" class="node"><title>Node2</title>
<a xlink:href="../../da/d74/a00099.htm#a51b4c6627a13c8b4b6a88d60827ad8eb" target="_top" xlink:title="dynamic method binding ">
<polygon fill="none" stroke="black" points="352,-61 352,-95 492,-95 492,-61 352,-61"/>
<text text-anchor="start" x="360" y="-82.9" font-family="Helvetica,sans-Serif" font-size="9.00">de.tu_clausthal.in.mec.ui.web.</text>
<text text-anchor="middle" x="422" y="-69.9" font-family="Helvetica,sans-Serif" font-size="9.00">CServer.bindDynamicMethod</text>
</a>
</g>
<!-- Node1&#45;&gt;Node2 -->
<g id="edge2" class="edge"><title>Node1&#45;&gt;Node2</title>
<path fill="none" stroke="midnightblue" d="M140.027,-62.3042C151.951,-64.9777 164.271,-67.3644 176,-69 234.941,-77.219 302.546,-79.1595 351.951,-79.22"/>
<polygon fill="midnightblue" stroke="midnightblue" points="140.66,-58.8579 130.127,-60.0012 139.074,-65.6759 140.66,-58.8579"/>
</g>
<!-- Node3 -->
<g id="node5" class="node"><title>Node3</title>
<a xlink:href="../../da/d74/a00099.htm#aa9b16ac51715225c54977db2bca9ed6b" target="_top" xlink:title="static method binding ">
<polygon fill="none" stroke="black" points="352,-0 352,-34 492,-34 492,-0 352,-0"/>
<text text-anchor="start" x="360" y="-21.9" font-family="Helvetica,sans-Serif" font-size="9.00">de.tu_clausthal.in.mec.ui.web.</text>
<text text-anchor="middle" x="422" y="-8.9" font-family="Helvetica,sans-Serif" font-size="9.00">CServer.bindStaticMethod</text>
</a>
</g>
<!-- Node1&#45;&gt;Node3 -->
<g id="edge4" class="edge"><title>Node1&#45;&gt;Node3</title>
<path fill="none" stroke="midnightblue" d="M138.494,-23.6575C150.882,-20.8884 163.754,-18.4799 176,-17 234.936,-9.87759 302.395,-10.4897 351.748,-12.5369"/>
<polygon fill="midnightblue" stroke="midnightblue" points="137.628,-20.2654 128.684,-25.9447 139.218,-27.0826 137.628,-20.2654"/>
</g>
<!-- Node4 -->
<g id="node7" class="node"><title>Node4</title>
<a xlink:href="../../da/d74/a00099.htm#a187f58ccc118c9b6da41273735160a75" target="_top" xlink:title="returns URI base if exists ">
<polygon fill="none" stroke="black" points="176,-26 176,-60 316,-60 316,-26 176,-26"/>
<text text-anchor="start" x="184" y="-47.9" font-family="Helvetica,sans-Serif" font-size="9.00">de.tu_clausthal.in.mec.ui.web.</text>
<text text-anchor="middle" x="246" y="-34.9" font-family="Helvetica,sans-Serif" font-size="9.00">CServer.getURIBase</text>
</a>
</g>
<!-- Node1&#45;&gt;Node4 -->
<g id="edge6" class="edge"><title>Node1&#45;&gt;Node4</title>
<path fill="none" stroke="midnightblue" d="M150.101,-43C158.706,-43 167.412,-43 175.888,-43"/>
<polygon fill="midnightblue" stroke="midnightblue" points="150.066,-39.5001 140.066,-43 150.066,-46.5001 150.066,-39.5001"/>
</g>
<!-- Node4&#45;&gt;Node2 -->
<g id="edge8" class="edge"><title>Node4&#45;&gt;Node2</title>
<path fill="none" stroke="midnightblue" d="M326.101,-58.9291C334.706,-60.6404 343.412,-62.3718 351.888,-64.0573"/>
<polygon fill="midnightblue" stroke="midnightblue" points="326.556,-55.4512 316.066,-56.9335 325.191,-62.3168 326.556,-55.4512"/>
</g>
<!-- Node4&#45;&gt;Node3 -->
<g id="edge10" class="edge"><title>Node4&#45;&gt;Node3</title>
<path fill="none" stroke="midnightblue" d="M326.101,-31.167C334.706,-29.8957 343.412,-28.6095 351.888,-27.3575"/>
<polygon fill="midnightblue" stroke="midnightblue" points="325.447,-27.7255 316.066,-32.6494 326.47,-34.6503 325.447,-27.7255"/>
</g>
</g>
</svg>
