<?xml version="1.0" encoding="UTF-8" standalone="no"?>
<!DOCTYPE svg PUBLIC "-//W3C//DTD SVG 1.1//EN"
 "http://www.w3.org/Graphics/SVG/1.1/DTD/svg11.dtd">
<!-- Generated by graphviz version 2.26.3 (20100126.1600)
 -->
<!-- Title: de.tu_clausthal.in.mec.object.mas.generic.ITerm Pages: 1 -->
<svg width="782pt" height="404pt"
 viewBox="0.00 0.00 782.00 404.00" xmlns="http://www.w3.org/2000/svg" xmlns:xlink="http://www.w3.org/1999/xlink">
<g id="graph1" class="graph" transform="scale(1 1) rotate(0) translate(4 400)">
<title>de.tu_clausthal.in.mec.object.mas.generic.ITerm</title>
<!-- Node1 -->
<g id="node1" class="node"><title>Node1</title>
<polygon fill="#bfbfbf" stroke="black" points="208,-319 208,-395 398,-395 398,-319 208,-319"/>
<text text-anchor="start" x="216" y="-382.9" font-family="Helvetica,sans-Serif" font-size="9.00">de.tu_clausthal.in.mec.object.mas.generic.</text>
<text text-anchor="middle" x="303" y="-369.9" font-family="Helvetica,sans-Serif" font-size="9.00">ITerm</text>
<polyline fill="none" stroke="black" points="208,-361 398,-361 "/>
<text text-anchor="middle" x="303" y="-348.9" font-family="Helvetica,sans-Serif" font-size="9.00"> </text>
<polyline fill="none" stroke="black" points="208,-340 398,-340 "/>
<text text-anchor="start" x="216" y="-327.9" font-family="Helvetica,sans-Serif" font-size="9.00">+ instanceOf()</text>
</g>
<!-- Node2 -->
<g id="node3" class="node"><title>Node2</title>
<a xlink:href="../../db/d48/a00148.htm" target="_top" xlink:title="interface for atoms of agent literals ">
<polygon fill="none" stroke="black" points="0,-173 0,-249 190,-249 190,-173 0,-173"/>
<text text-anchor="start" x="8" y="-236.9" font-family="Helvetica,sans-Serif" font-size="9.00">de.tu_clausthal.in.mec.object.mas.generic.</text>
<text text-anchor="middle" x="95" y="-223.9" font-family="Helvetica,sans-Serif" font-size="9.00">IAtom&lt; T &gt;</text>
<polyline fill="none" stroke="black" points="0,-215 190,-215 "/>
<text text-anchor="middle" x="95" y="-202.9" font-family="Helvetica,sans-Serif" font-size="9.00"> </text>
<polyline fill="none" stroke="black" points="0,-194 190,-194 "/>
<text text-anchor="start" x="8" y="-181.9" font-family="Helvetica,sans-Serif" font-size="9.00">+ get()</text>
</a>
</g>
<!-- Node1&#45;&gt;Node2 -->
<g id="edge2" class="edge"><title>Node1&#45;&gt;Node2</title>
<path fill="none" stroke="midnightblue" d="M240.211,-312.927C211.272,-292.614 177.254,-268.736 149.421,-249.2"/>
<polygon fill="none" stroke="midnightblue" points="238.426,-315.95 248.622,-318.831 242.448,-310.221 238.426,-315.95"/>
</g>
<!-- Node3 -->
<g id="node5" class="node"><title>Node3</title>
<a xlink:href="../../de/d53/a00169.htm" target="_top" xlink:title="literal interface ">
<polygon fill="none" stroke="black" points="208,-140.5 208,-281.5 398,-281.5 398,-140.5 208,-140.5"/>
<text text-anchor="start" x="216" y="-269.4" font-family="Helvetica,sans-Serif" font-size="9.00">de.tu_clausthal.in.mec.object.mas.generic.</text>
<text text-anchor="middle" x="303" y="-256.4" font-family="Helvetica,sans-Serif" font-size="9.00">ILiteral&lt; T &gt;</text>
<polyline fill="none" stroke="black" points="208,-247.5 398,-247.5 "/>
<text text-anchor="middle" x="303" y="-235.4" font-family="Helvetica,sans-Serif" font-size="9.00"> </text>
<polyline fill="none" stroke="black" points="208,-226.5 398,-226.5 "/>
<text text-anchor="start" x="216" y="-214.4" font-family="Helvetica,sans-Serif" font-size="9.00">+ clone()</text>
<text text-anchor="start" x="216" y="-201.4" font-family="Helvetica,sans-Serif" font-size="9.00">+ getAnnotation()</text>
<text text-anchor="start" x="216" y="-188.4" font-family="Helvetica,sans-Serif" font-size="9.00">+ getFunctor()</text>
<text text-anchor="start" x="216" y="-175.4" font-family="Helvetica,sans-Serif" font-size="9.00">+ getLiteral()</text>
<text text-anchor="start" x="216" y="-162.4" font-family="Helvetica,sans-Serif" font-size="9.00">+ getValues()</text>
<text text-anchor="start" x="216" y="-149.4" font-family="Helvetica,sans-Serif" font-size="9.00">+ isNegated()</text>
</a>
</g>
<!-- Node1&#45;&gt;Node3 -->
<g id="edge4" class="edge"><title>Node1&#45;&gt;Node3</title>
<path fill="none" stroke="midnightblue" d="M303,-308.419C303,-299.8 303,-290.667 303,-281.584"/>
<polygon fill="none" stroke="midnightblue" points="299.5,-308.64 303,-318.64 306.5,-308.64 299.5,-308.64"/>
</g>
<!-- Node4 -->
<g id="node7" class="node"><title>Node4</title>
<a xlink:href="../../dd/da2/a00192.htm" target="_top" xlink:title="interface for term collection ">
<polygon fill="none" stroke="black" points="416,-173 416,-249 606,-249 606,-173 416,-173"/>
<text text-anchor="start" x="424" y="-236.9" font-family="Helvetica,sans-Serif" font-size="9.00">de.tu_clausthal.in.mec.object.mas.generic.</text>
<text text-anchor="middle" x="511" y="-223.9" font-family="Helvetica,sans-Serif" font-size="9.00">ITermCollection</text>
<polyline fill="none" stroke="black" points="416,-215 606,-215 "/>
<text text-anchor="middle" x="511" y="-202.9" font-family="Helvetica,sans-Serif" font-size="9.00"> </text>
<polyline fill="none" stroke="black" points="416,-194 606,-194 "/>
<text text-anchor="middle" x="511" y="-181.9" font-family="Helvetica,sans-Serif" font-size="9.00"> </text>
</a>
</g>
<!-- Node1&#45;&gt;Node4 -->
<g id="edge6" class="edge"><title>Node1&#45;&gt;Node4</title>
<path fill="none" stroke="midnightblue" d="M365.789,-312.927C394.728,-292.614 428.746,-268.736 456.579,-249.2"/>
<polygon fill="none" stroke="midnightblue" points="363.552,-310.221 357.378,-318.831 367.574,-315.95 363.552,-310.221"/>
</g>
<!-- Node5 -->
<g id="node9" class="node"><title>Node5</title>
<a xlink:href="../../dd/d42/a00109.htm" target="_top" xlink:title="generic term list for agent literals ">
<polygon fill="none" stroke="black" points="247.5,-1 247.5,-103 502.5,-103 502.5,-1 247.5,-1"/>
<text text-anchor="start" x="255.5" y="-90.9" font-family="Helvetica,sans-Serif" font-size="9.00">de.tu_clausthal.in.mec.object.mas.generic.implementation.</text>
<text text-anchor="middle" x="375" y="-77.9" font-family="Helvetica,sans-Serif" font-size="9.00">CTermList</text>
<polyline fill="none" stroke="black" points="247.5,-69 502.5,-69 "/>
<text text-anchor="middle" x="375" y="-56.9" font-family="Helvetica,sans-Serif" font-size="9.00"> </text>
<polyline fill="none" stroke="black" points="247.5,-48 502.5,-48 "/>
<text text-anchor="start" x="255.5" y="-35.9" font-family="Helvetica,sans-Serif" font-size="9.00">+ CTermList()</text>
<text text-anchor="start" x="255.5" y="-22.9" font-family="Helvetica,sans-Serif" font-size="9.00">+ CTermList()</text>
<text text-anchor="start" x="255.5" y="-9.9" font-family="Helvetica,sans-Serif" font-size="9.00">+ instanceOf()</text>
</a>
</g>
<!-- Node4&#45;&gt;Node5 -->
<g id="edge8" class="edge"><title>Node4&#45;&gt;Node5</title>
<path fill="none" stroke="midnightblue" d="M471.729,-165.088C455.111,-145.659 435.688,-122.951 418.625,-103.002"/>
<polygon fill="none" stroke="midnightblue" points="469.265,-167.591 478.425,-172.916 474.584,-163.041 469.265,-167.591"/>
</g>
<!-- Node6 -->
<g id="node11" class="node"><title>Node6</title>
<a xlink:href="../../d4/d81/a00110.htm" target="_top" xlink:title="generic term set for agent literals ">
<polygon fill="none" stroke="black" points="519.5,-1 519.5,-103 774.5,-103 774.5,-1 519.5,-1"/>
<text text-anchor="start" x="527.5" y="-90.9" font-family="Helvetica,sans-Serif" font-size="9.00">de.tu_clausthal.in.mec.object.mas.generic.implementation.</text>
<text text-anchor="middle" x="647" y="-77.9" font-family="Helvetica,sans-Serif" font-size="9.00">CTermSet</text>
<polyline fill="none" stroke="black" points="519.5,-69 774.5,-69 "/>
<text text-anchor="start" x="527.5" y="-56.9" font-family="Helvetica,sans-Serif" font-size="9.00">+ EMPTY_TERMSET</text>
<polyline fill="none" stroke="black" points="519.5,-48 774.5,-48 "/>
<text text-anchor="start" x="527.5" y="-35.9" font-family="Helvetica,sans-Serif" font-size="9.00">+ CTermSet()</text>
<text text-anchor="start" x="527.5" y="-22.9" font-family="Helvetica,sans-Serif" font-size="9.00">+ CTermSet()</text>
<text text-anchor="start" x="527.5" y="-9.9" font-family="Helvetica,sans-Serif" font-size="9.00">+ instanceOf()</text>
</a>
</g>
<!-- Node4&#45;&gt;Node6 -->
<g id="edge10" class="edge"><title>Node4&#45;&gt;Node6</title>
<path fill="none" stroke="midnightblue" d="M550.271,-165.088C566.889,-145.659 586.312,-122.951 603.375,-103.002"/>
<polygon fill="none" stroke="midnightblue" points="547.416,-163.041 543.575,-172.916 552.735,-167.591 547.416,-163.041"/>
</g>
</g>
</svg>
