<?xml version="1.0" encoding="UTF-8" standalone="no"?>
<!DOCTYPE svg PUBLIC "-//W3C//DTD SVG 1.1//EN"
 "http://www.w3.org/Graphics/SVG/1.1/DTD/svg11.dtd">
<!-- Generated by graphviz version 2.26.3 (20100126.1600)
 -->
<!-- Title: de.tu_clausthal.in.mec.runtime.IReturnSteppable&lt; T &gt; Pages: 1 -->
<svg width="150pt" height="212pt"
 viewBox="0.00 0.00 150.00 212.00" xmlns="http://www.w3.org/2000/svg" xmlns:xlink="http://www.w3.org/1999/xlink">
<g id="graph1" class="graph" transform="scale(1 1) rotate(0) translate(4 208)">
<title>de.tu_clausthal.in.mec.runtime.IReturnSteppable&lt; T &gt;</title>
<!-- Node1 -->
<g id="node1" class="node"><title>Node1</title>
<polygon fill="#bfbfbf" stroke="black" points="-0.5,-0.5 -0.5,-89.5 142.5,-89.5 142.5,-0.5 -0.5,-0.5"/>
<text text-anchor="start" x="7.5" y="-77.4" font-family="Helvetica,sans-Serif" font-size="9.00">de.tu_clausthal.in.mec.runtime.</text>
<text text-anchor="middle" x="71" y="-64.4" font-family="Helvetica,sans-Serif" font-size="9.00">IReturnSteppable&lt; T &gt;</text>
<polyline fill="none" stroke="black" points="-0.5,-55.5 142.5,-55.5 "/>
<text text-anchor="middle" x="71" y="-43.4" font-family="Helvetica,sans-Serif" font-size="9.00"> </text>
<polyline fill="none" stroke="black" points="-0.5,-34.5 142.5,-34.5 "/>
<text text-anchor="start" x="7.5" y="-22.4" font-family="Helvetica,sans-Serif" font-size="9.00">+ getTargets()</text>
<text text-anchor="start" x="7.5" y="-9.4" font-family="Helvetica,sans-Serif" font-size="9.00">+ step()</text>
</g>
<!-- Node2 -->
<g id="node2" class="node"><title>Node2</title>
<a xlink:href="../../da/d15/a00188.htm" target="_top" xlink:title="interface for all objects which are triggered by the simulation worker ">
<polygon fill="none" stroke="black" points="-0.5,-127 -0.5,-203 142.5,-203 142.5,-127 -0.5,-127"/>
<text text-anchor="start" x="7.5" y="-190.9" font-family="Helvetica,sans-Serif" font-size="9.00">de.tu_clausthal.in.mec.runtime.</text>
<text text-anchor="middle" x="71" y="-177.9" font-family="Helvetica,sans-Serif" font-size="9.00">ISteppable</text>
<polyline fill="none" stroke="black" points="-0.5,-169 142.5,-169 "/>
<text text-anchor="middle" x="71" y="-156.9" font-family="Helvetica,sans-Serif" font-size="9.00"> </text>
<polyline fill="none" stroke="black" points="-0.5,-148 142.5,-148 "/>
<text text-anchor="start" x="7.5" y="-135.9" font-family="Helvetica,sans-Serif" font-size="9.00">+ release()</text>
</a>
</g>
<!-- Node2&#45;&gt;Node1 -->
<g id="edge2" class="edge"><title>Node2&#45;&gt;Node1</title>
<path fill="none" stroke="midnightblue" d="M71,-116.489C71,-107.611 71,-98.3852 71,-89.6276"/>
<polygon fill="none" stroke="midnightblue" points="67.5001,-116.701 71,-126.701 74.5001,-116.701 67.5001,-116.701"/>
</g>
</g>
</svg>
