<?xml version="1.0" encoding="UTF-8" standalone="no"?>
<!DOCTYPE svg PUBLIC "-//W3C//DTD SVG 1.1//EN"
 "http://www.w3.org/Graphics/SVG/1.1/DTD/svg11.dtd">
<!-- Generated by graphviz version 2.26.3 (20100126.1600)
 -->
<!-- Title: de.tu_clausthal.in.mec.ui.CAgentEnvironment.web_static_write Pages: 1 -->
<svg width="362pt" height="94pt"
 viewBox="0.00 0.00 362.00 94.00" xmlns="http://www.w3.org/2000/svg" xmlns:xlink="http://www.w3.org/1999/xlink">
<g id="graph1" class="graph" transform="scale(1 1) rotate(0) translate(4 90)">
<title>de.tu_clausthal.in.mec.ui.CAgentEnvironment.web_static_write</title>
<!-- Node1 -->
<g id="node1" class="node"><title>Node1</title>
<polygon fill="#bfbfbf" stroke="black" points="0,-26 0,-60 170,-60 170,-26 0,-26"/>
<text text-anchor="start" x="8" y="-47.9" font-family="Helvetica,sans-Serif" font-size="9.00">de.tu_clausthal.in.mec.ui.</text>
<text text-anchor="middle" x="85" y="-34.9" font-family="Helvetica,sans-Serif" font-size="9.00">CAgentEnvironment.web_static_write</text>
</g>
<!-- Node2 -->
<g id="node3" class="node"><title>Node2</title>
<a xlink:href="../../d0/d61/a00100.htm#a2f84b4ec6605cc18ae204b812d7884ec" target="_top" xlink:title="returns the singelton instance ">
<polygon fill="none" stroke="black" points="208.5,-52 208.5,-86 351.5,-86 351.5,-52 208.5,-52"/>
<text text-anchor="start" x="216.5" y="-73.9" font-family="Helvetica,sans-Serif" font-size="9.00">de.tu_clausthal.in.mec.runtime.</text>
<text text-anchor="middle" x="280" y="-60.9" font-family="Helvetica,sans-Serif" font-size="9.00">CSimulation.getInstance</text>
</a>
</g>
<!-- Node1&#45;&gt;Node2 -->
<g id="edge2" class="edge"><title>Node1&#45;&gt;Node2</title>
<path fill="none" stroke="midnightblue" d="M170.246,-54.3662C179.579,-55.6105 189.063,-56.8751 198.351,-58.1134"/>
<polygon fill="midnightblue" stroke="midnightblue" points="197.96,-61.5922 208.334,-59.4446 198.885,-54.6536 197.96,-61.5922"/>
</g>
<!-- Node3 -->
<g id="node5" class="node"><title>Node3</title>
<a xlink:href="../../d1/dc6/a00037.htm#ae523069a1b523b0e6a0c643049b1d745" target="_top" xlink:title="returns a default string of the resource file ">
<polygon fill="none" stroke="black" points="206,-0 206,-34 354,-34 354,-0 206,-0"/>
<text text-anchor="start" x="214" y="-21.9" font-family="Helvetica,sans-Serif" font-size="9.00">de.tu_clausthal.in.mec.common.</text>
<text text-anchor="middle" x="280" y="-8.9" font-family="Helvetica,sans-Serif" font-size="9.00">CCommon.getResourceString</text>
</a>
</g>
<!-- Node1&#45;&gt;Node3 -->
<g id="edge4" class="edge"><title>Node1&#45;&gt;Node3</title>
<path fill="none" stroke="midnightblue" d="M170.246,-31.6338C178.791,-30.4946 187.463,-29.3383 195.994,-28.2007"/>
<polygon fill="midnightblue" stroke="midnightblue" points="196.479,-31.6671 205.929,-26.8761 195.554,-24.7285 196.479,-31.6671"/>
</g>
</g>
</svg>
