<?xml version="1.0" encoding="UTF-8" standalone="no"?>
<!DOCTYPE svg PUBLIC "-//W3C//DTD SVG 1.1//EN"
 "http://www.w3.org/Graphics/SVG/1.1/DTD/svg11.dtd">
<!-- Generated by graphviz version 2.26.3 (20100126.1600)
 -->
<!-- Title: de.tu_clausthal.in.mec.object.car.drivemodel.CNagelSchreckenberg Pages: 1 -->
<svg width="208pt" height="264pt"
 viewBox="0.00 0.00 208.00 264.00" xmlns="http://www.w3.org/2000/svg" xmlns:xlink="http://www.w3.org/1999/xlink">
<g id="graph1" class="graph" transform="scale(1 1) rotate(0) translate(4 260)">
<title>de.tu_clausthal.in.mec.object.car.drivemodel.CNagelSchreckenberg</title>
<!-- Node1 -->
<g id="node1" class="node"><title>Node1</title>
<polygon fill="#bfbfbf" stroke="black" points="0,-0.5 0,-141.5 200,-141.5 200,-0.5 0,-0.5"/>
<text text-anchor="start" x="8" y="-129.4" font-family="Helvetica,sans-Serif" font-size="9.00">de.tu_clausthal.in.mec.object.car.drivemodel.</text>
<text text-anchor="middle" x="100" y="-116.4" font-family="Helvetica,sans-Serif" font-size="9.00">CNagelSchreckenberg</text>
<polyline fill="none" stroke="black" points="0,-107.5 200,-107.5 "/>
<text text-anchor="start" x="8" y="-95.4" font-family="Helvetica,sans-Serif" font-size="9.00">&#45; m_random</text>
<text text-anchor="start" x="8" y="-82.4" font-family="Helvetica,sans-Serif" font-size="9.00">&#45; c_minimalspeed</text>
<polyline fill="none" stroke="black" points="0,-73.5 200,-73.5 "/>
<text text-anchor="start" x="8" y="-61.4" font-family="Helvetica,sans-Serif" font-size="9.00">+ update()</text>
<text text-anchor="start" x="8" y="-48.4" font-family="Helvetica,sans-Serif" font-size="9.00"># checkAccelerationWithEdge</text>
<text text-anchor="start" x="8" y="-35.4" font-family="Helvetica,sans-Serif" font-size="9.00">Speed()</text>
<text text-anchor="start" x="8" y="-22.4" font-family="Helvetica,sans-Serif" font-size="9.00"># checkCollision()</text>
<text text-anchor="start" x="8" y="-9.4" font-family="Helvetica,sans-Serif" font-size="9.00"># checkLinger()</text>
</g>
<!-- Node2 -->
<g id="node2" class="node"><title>Node2</title>
<a xlink:href="../../de/d38/a00160.htm" target="_top" xlink:title="drive interface for driving models ">
<polygon fill="none" stroke="black" points="0,-179 0,-255 200,-255 200,-179 0,-179"/>
<text text-anchor="start" x="8" y="-242.9" font-family="Helvetica,sans-Serif" font-size="9.00">de.tu_clausthal.in.mec.object.car.drivemodel.</text>
<text text-anchor="middle" x="100" y="-229.9" font-family="Helvetica,sans-Serif" font-size="9.00">IDriveModel</text>
<polyline fill="none" stroke="black" points="0,-221 200,-221 "/>
<text text-anchor="middle" x="100" y="-208.9" font-family="Helvetica,sans-Serif" font-size="9.00"> </text>
<polyline fill="none" stroke="black" points="0,-200 200,-200 "/>
<text text-anchor="start" x="8" y="-187.9" font-family="Helvetica,sans-Serif" font-size="9.00">+ update()</text>
</a>
</g>
<!-- Node2&#45;&gt;Node1 -->
<g id="edge2" class="edge"><title>Node2&#45;&gt;Node1</title>
<path fill="none" stroke="midnightblue" d="M100,-168.419C100,-159.8 100,-150.667 100,-141.584"/>
<polygon fill="none" stroke="midnightblue" points="96.5001,-168.64 100,-178.64 103.5,-168.64 96.5001,-168.64"/>
</g>
</g>
</svg>
