<?xml version="1.0" encoding="UTF-8" standalone="no"?>
<!DOCTYPE svg PUBLIC "-//W3C//DTD SVG 1.1//EN"
 "http://www.w3.org/Graphics/SVG/1.1/DTD/svg11.dtd">
<!-- Generated by graphviz version 2.26.3 (20100126.1600)
 -->
<!-- Title: de.tu_clausthal.in.mec.common.CReflection.CMethodCache&lt; T &gt; Pages: 1 -->
<svg width="160pt" height="278pt"
 viewBox="0.00 0.00 160.00 278.00" xmlns="http://www.w3.org/2000/svg" xmlns:xlink="http://www.w3.org/1999/xlink">
<g id="graph1" class="graph" transform="scale(1 1) rotate(0) translate(4 274)">
<title>de.tu_clausthal.in.mec.common.CReflection.CMethodCache&lt; T &gt;</title>
<!-- Node1 -->
<g id="node1" class="node"><title>Node1</title>
<polygon fill="#bfbfbf" stroke="black" points="0,-0.5 0,-141.5 152,-141.5 152,-0.5 0,-0.5"/>
<text text-anchor="start" x="8" y="-129.4" font-family="Helvetica,sans-Serif" font-size="9.00">de.tu_clausthal.in.mec.common.</text>
<text text-anchor="middle" x="76" y="-116.4" font-family="Helvetica,sans-Serif" font-size="9.00">CReflection.CMethodCache&lt; T &gt;</text>
<polyline fill="none" stroke="black" points="0,-107.5 152,-107.5 "/>
<text text-anchor="start" x="8" y="-95.4" font-family="Helvetica,sans-Serif" font-size="9.00">&#45; m_cache</text>
<text text-anchor="start" x="8" y="-82.4" font-family="Helvetica,sans-Serif" font-size="9.00">&#45; m_object</text>
<polyline fill="none" stroke="black" points="0,-73.5 152,-73.5 "/>
<text text-anchor="start" x="8" y="-61.4" font-family="Helvetica,sans-Serif" font-size="9.00">+ CMethodCache()</text>
<text text-anchor="start" x="8" y="-48.4" font-family="Helvetica,sans-Serif" font-size="9.00">+ CMethodCache()</text>
<text text-anchor="start" x="8" y="-35.4" font-family="Helvetica,sans-Serif" font-size="9.00">+ get()</text>
<text text-anchor="start" x="8" y="-22.4" font-family="Helvetica,sans-Serif" font-size="9.00">+ get()</text>
<text text-anchor="start" x="8" y="-9.4" font-family="Helvetica,sans-Serif" font-size="9.00">+ getObject()</text>
</g>
<!-- Node2 -->
<g id="node2" class="node"><title>Node2</title>
<a xlink:href="../../d6/dfb/a00172.htm" target="_top" xlink:title="interface of method filtering ">
<polygon fill="none" stroke="black" points="2,-193 2,-269 150,-269 150,-193 2,-193"/>
<text text-anchor="start" x="10" y="-256.9" font-family="Helvetica,sans-Serif" font-size="9.00">de.tu_clausthal.in.mec.common.</text>
<text text-anchor="middle" x="76" y="-243.9" font-family="Helvetica,sans-Serif" font-size="9.00">CReflection.IMethodFilter</text>
<polyline fill="none" stroke="black" points="2,-235 150,-235 "/>
<text text-anchor="middle" x="76" y="-222.9" font-family="Helvetica,sans-Serif" font-size="9.00"> </text>
<polyline fill="none" stroke="black" points="2,-214 150,-214 "/>
<text text-anchor="start" x="10" y="-201.9" font-family="Helvetica,sans-Serif" font-size="9.00">+ filter()</text>
</a>
</g>
<!-- Node2&#45;&gt;Node1 -->
<g id="edge2" class="edge"><title>Node2&#45;&gt;Node1</title>
<path fill="none" stroke="#404040" d="M76,-192.676C76,-180.926 76,-167.512 76,-153.984"/>
<polygon fill="none" stroke="#404040" points="76.0001,-153.573 72,-147.573 76,-141.573 80,-147.573 76.0001,-153.573"/>
<text text-anchor="middle" x="94" y="-165.4" font-family="Helvetica,sans-Serif" font-size="9.00"> &#45;m_filter</text>
</g>
</g>
</svg>
