<?xml version="1.0" encoding="UTF-8" standalone="no"?>
<!DOCTYPE svg PUBLIC "-//W3C//DTD SVG 1.1//EN"
 "http://www.w3.org/Graphics/SVG/1.1/DTD/svg11.dtd">
<!-- Generated by graphviz version 2.26.3 (20100126.1600)
 -->
<!-- Title: de.tu_clausthal.in.mec.common.CTreeNode&lt; T &gt;.getNode Pages: 1 -->
<svg width="340pt" height="94pt"
 viewBox="0.00 0.00 340.00 94.00" xmlns="http://www.w3.org/2000/svg" xmlns:xlink="http://www.w3.org/1999/xlink">
<g id="graph1" class="graph" transform="scale(1 1) rotate(0) translate(4 90)">
<title>de.tu_clausthal.in.mec.common.CTreeNode&lt; T &gt;.getNode</title>
<!-- Node1 -->
<g id="node1" class="node"><title>Node1</title>
<polygon fill="#bfbfbf" stroke="black" points="0,-26 0,-60 148,-60 148,-26 0,-26"/>
<text text-anchor="start" x="8" y="-47.9" font-family="Helvetica,sans-Serif" font-size="9.00">de.tu_clausthal.in.mec.common.</text>
<text text-anchor="middle" x="74" y="-34.9" font-family="Helvetica,sans-Serif" font-size="9.00">CTreeNode&lt; T &gt;.getNode</text>
</g>
<!-- Node2 -->
<g id="node3" class="node"><title>Node2</title>
<a xlink:href="../../dc/d54/a00094.htm#ae0d03c5ffc5689f0bbbc9575d1d0211d" target="_top" xlink:title="returns an part of the path ">
<polygon fill="none" stroke="black" points="184,-52 184,-86 332,-86 332,-52 184,-52"/>
<text text-anchor="start" x="192" y="-73.9" font-family="Helvetica,sans-Serif" font-size="9.00">de.tu_clausthal.in.mec.common.</text>
<text text-anchor="middle" x="258" y="-60.9" font-family="Helvetica,sans-Serif" font-size="9.00">CPath.get</text>
</a>
</g>
<!-- Node1&#45;&gt;Node2 -->
<g id="edge2" class="edge"><title>Node1&#45;&gt;Node2</title>
<path fill="none" stroke="midnightblue" d="M148.044,-53.4628C156.514,-54.6596 165.195,-55.8862 173.784,-57.0999"/>
<polygon fill="midnightblue" stroke="midnightblue" points="173.416,-60.5826 183.808,-58.5163 174.396,-53.6515 173.416,-60.5826"/>
</g>
<!-- Node3 -->
<g id="node5" class="node"><title>Node3</title>
<a xlink:href="../../dc/d54/a00094.htm#a0b3aaaf4c6a7a0db70c11bc25ce949a4" target="_top" xlink:title="returns the number of path elements ">
<polygon fill="none" stroke="black" points="184,-0 184,-34 332,-34 332,-0 184,-0"/>
<text text-anchor="start" x="192" y="-21.9" font-family="Helvetica,sans-Serif" font-size="9.00">de.tu_clausthal.in.mec.common.</text>
<text text-anchor="middle" x="258" y="-8.9" font-family="Helvetica,sans-Serif" font-size="9.00">CPath.size</text>
</a>
</g>
<!-- Node1&#45;&gt;Node3 -->
<g id="edge4" class="edge"><title>Node1&#45;&gt;Node3</title>
<path fill="none" stroke="midnightblue" d="M148.044,-32.5372C156.514,-31.3404 165.195,-30.1138 173.784,-28.9001"/>
<polygon fill="midnightblue" stroke="midnightblue" points="174.396,-32.3485 183.808,-27.4837 173.416,-25.4174 174.396,-32.3485"/>
</g>
</g>
</svg>
