<?xml version="1.0" encoding="UTF-8" standalone="no"?>
<!DOCTYPE svg PUBLIC "-//W3C//DTD SVG 1.1//EN"
 "http://www.w3.org/Graphics/SVG/1.1/DTD/svg11.dtd">
<!-- Generated by graphviz version 2.26.3 (20100126.1600)
 -->
<!-- Title: de.tu_clausthal.in.mec.object.IMultiLayer&lt; T extends ISteppable &amp;Painter &gt; Pages: 1 -->
<svg width="442pt" height="754pt"
 viewBox="0.00 0.00 442.00 754.00" xmlns="http://www.w3.org/2000/svg" xmlns:xlink="http://www.w3.org/1999/xlink">
<g id="graph1" class="graph" transform="scale(1 1) rotate(0) translate(4 750)">
<title>de.tu_clausthal.in.mec.object.IMultiLayer&lt; T extends ISteppable &amp;Painter &gt;</title>
<!-- Node1 -->
<g id="node1" class="node"><title>Node1</title>
<polygon fill="#bfbfbf" stroke="black" points="131.5,-0.5 131.5,-453.5 286.5,-453.5 286.5,-0.5 131.5,-0.5"/>
<text text-anchor="start" x="139.5" y="-441.4" font-family="Helvetica,sans-Serif" font-size="9.00">de.tu_clausthal.in.mec.object.</text>
<text text-anchor="start" x="139.5" y="-428.4" font-family="Helvetica,sans-Serif" font-size="9.00">IMultiLayer&lt; T extends ISteppable</text>
<text text-anchor="middle" x="209" y="-415.4" font-family="Helvetica,sans-Serif" font-size="9.00"> &amp;Painter &gt;</text>
<polyline fill="none" stroke="black" points="131.5,-406.5 286.5,-406.5 "/>
<text text-anchor="start" x="139.5" y="-394.4" font-family="Helvetica,sans-Serif" font-size="9.00"># m_active</text>
<text text-anchor="start" x="139.5" y="-381.4" font-family="Helvetica,sans-Serif" font-size="9.00"># m_data</text>
<text text-anchor="start" x="139.5" y="-368.4" font-family="Helvetica,sans-Serif" font-size="9.00"># m_visible</text>
<polyline fill="none" stroke="black" points="131.5,-359.5 286.5,-359.5 "/>
<text text-anchor="start" x="139.5" y="-347.4" font-family="Helvetica,sans-Serif" font-size="9.00">+ add()</text>
<text text-anchor="start" x="139.5" y="-334.4" font-family="Helvetica,sans-Serif" font-size="9.00">+ addAll()</text>
<text text-anchor="start" x="139.5" y="-321.4" font-family="Helvetica,sans-Serif" font-size="9.00">+ afterStepObject()</text>
<text text-anchor="start" x="139.5" y="-308.4" font-family="Helvetica,sans-Serif" font-size="9.00">+ beforeStepObject()</text>
<text text-anchor="start" x="139.5" y="-295.4" font-family="Helvetica,sans-Serif" font-size="9.00">+ clear()</text>
<text text-anchor="start" x="139.5" y="-282.4" font-family="Helvetica,sans-Serif" font-size="9.00">+ contains()</text>
<text text-anchor="start" x="139.5" y="-269.4" font-family="Helvetica,sans-Serif" font-size="9.00">+ containsAll()</text>
<text text-anchor="start" x="139.5" y="-256.4" font-family="Helvetica,sans-Serif" font-size="9.00">+ getCalculationIndex()</text>
<text text-anchor="start" x="139.5" y="-243.4" font-family="Helvetica,sans-Serif" font-size="9.00">+ isActive()</text>
<text text-anchor="start" x="139.5" y="-230.4" font-family="Helvetica,sans-Serif" font-size="9.00">+ isEmpty()</text>
<text text-anchor="start" x="139.5" y="-217.4" font-family="Helvetica,sans-Serif" font-size="9.00">+ isVisible()</text>
<text text-anchor="start" x="139.5" y="-204.4" font-family="Helvetica,sans-Serif" font-size="9.00">+ iterator()</text>
<text text-anchor="start" x="139.5" y="-191.4" font-family="Helvetica,sans-Serif" font-size="9.00">+ onSimulationReset()</text>
<text text-anchor="start" x="139.5" y="-178.4" font-family="Helvetica,sans-Serif" font-size="9.00">+ onSimulationStart()</text>
<text text-anchor="start" x="139.5" y="-165.4" font-family="Helvetica,sans-Serif" font-size="9.00">+ onSimulationStop()</text>
<text text-anchor="start" x="139.5" y="-152.4" font-family="Helvetica,sans-Serif" font-size="9.00">+ paint()</text>
<text text-anchor="start" x="139.5" y="-139.4" font-family="Helvetica,sans-Serif" font-size="9.00">+ release()</text>
<text text-anchor="start" x="139.5" y="-126.4" font-family="Helvetica,sans-Serif" font-size="9.00">+ remove()</text>
<text text-anchor="start" x="139.5" y="-113.4" font-family="Helvetica,sans-Serif" font-size="9.00">+ removeAll()</text>
<text text-anchor="start" x="139.5" y="-100.4" font-family="Helvetica,sans-Serif" font-size="9.00">+ retainAll()</text>
<text text-anchor="start" x="139.5" y="-87.4" font-family="Helvetica,sans-Serif" font-size="9.00">+ setActive()</text>
<text text-anchor="start" x="139.5" y="-74.4" font-family="Helvetica,sans-Serif" font-size="9.00">+ setVisible()</text>
<text text-anchor="start" x="139.5" y="-61.4" font-family="Helvetica,sans-Serif" font-size="9.00">+ size()</text>
<text text-anchor="start" x="139.5" y="-48.4" font-family="Helvetica,sans-Serif" font-size="9.00">+ step()</text>
<text text-anchor="start" x="139.5" y="-35.4" font-family="Helvetica,sans-Serif" font-size="9.00">+ toArray()</text>
<text text-anchor="start" x="139.5" y="-22.4" font-family="Helvetica,sans-Serif" font-size="9.00">+ toArray()</text>
<text text-anchor="start" x="139.5" y="-9.4" font-family="Helvetica,sans-Serif" font-size="9.00"># repaint()</text>
</g>
<!-- Node2 -->
<g id="node2" class="node"><title>Node2</title>
<a xlink:href="../../dc/d57/a00194.htm" target="_top" xlink:title="defines a viewable layer ">
<polygon fill="none" stroke="black" points="0,-516.5 0,-605.5 120,-605.5 120,-516.5 0,-516.5"/>
<text text-anchor="start" x="8" y="-593.4" font-family="Helvetica,sans-Serif" font-size="9.00">de.tu_clausthal.in.mec.ui.</text>
<text text-anchor="middle" x="60" y="-580.4" font-family="Helvetica,sans-Serif" font-size="9.00">IViewableLayer</text>
<polyline fill="none" stroke="black" points="0,-571.5 120,-571.5 "/>
<text text-anchor="middle" x="60" y="-559.4" font-family="Helvetica,sans-Serif" font-size="9.00"> </text>
<polyline fill="none" stroke="black" points="0,-550.5 120,-550.5 "/>
<text text-anchor="start" x="8" y="-538.4" font-family="Helvetica,sans-Serif" font-size="9.00">+ isVisible()</text>
<text text-anchor="start" x="8" y="-525.4" font-family="Helvetica,sans-Serif" font-size="9.00">+ setVisible()</text>
</a>
</g>
<!-- Node2&#45;&gt;Node1 -->
<g id="edge2" class="edge"><title>Node2&#45;&gt;Node1</title>
<path fill="none" stroke="midnightblue" d="M84.0484,-507.093C97.1406,-477.745 114.154,-439.609 131.389,-400.973"/>
<polygon fill="none" stroke="midnightblue" points="80.818,-505.743 79.9402,-516.302 87.2107,-508.595 80.818,-505.743"/>
</g>
<!-- Node3 -->
<g id="node4" class="node"><title>Node3</title>
<a xlink:href="../../de/db1/a00197.htm" target="_top" xlink:title="interface of void&#45;step method ">
<polygon fill="none" stroke="black" points="137.5,-523 137.5,-599 280.5,-599 280.5,-523 137.5,-523"/>
<text text-anchor="start" x="145.5" y="-586.9" font-family="Helvetica,sans-Serif" font-size="9.00">de.tu_clausthal.in.mec.runtime.</text>
<text text-anchor="middle" x="209" y="-573.9" font-family="Helvetica,sans-Serif" font-size="9.00">IVoidSteppable</text>
<polyline fill="none" stroke="black" points="137.5,-565 280.5,-565 "/>
<text text-anchor="middle" x="209" y="-552.9" font-family="Helvetica,sans-Serif" font-size="9.00"> </text>
<polyline fill="none" stroke="black" points="137.5,-544 280.5,-544 "/>
<text text-anchor="start" x="145.5" y="-531.9" font-family="Helvetica,sans-Serif" font-size="9.00">+ step()</text>
</a>
</g>
<!-- Node3&#45;&gt;Node1 -->
<g id="edge4" class="edge"><title>Node3&#45;&gt;Node1</title>
<path fill="none" stroke="midnightblue" d="M209,-512.637C209,-495.781 209,-475.59 209,-453.838"/>
<polygon fill="none" stroke="midnightblue" points="205.5,-512.686 209,-522.686 212.5,-512.686 205.5,-512.686"/>
</g>
<!-- Node4 -->
<g id="node6" class="node"><title>Node4</title>
<a xlink:href="../../da/d15/a00188.htm" target="_top" xlink:title="interface for all objects which are triggered by the simulation worker ">
<polygon fill="none" stroke="black" points="215.5,-669 215.5,-745 358.5,-745 358.5,-669 215.5,-669"/>
<text text-anchor="start" x="223.5" y="-732.9" font-family="Helvetica,sans-Serif" font-size="9.00">de.tu_clausthal.in.mec.runtime.</text>
<text text-anchor="middle" x="287" y="-719.9" font-family="Helvetica,sans-Serif" font-size="9.00">ISteppable</text>
<polyline fill="none" stroke="black" points="215.5,-711 358.5,-711 "/>
<text text-anchor="middle" x="287" y="-698.9" font-family="Helvetica,sans-Serif" font-size="9.00"> </text>
<polyline fill="none" stroke="black" points="215.5,-690 358.5,-690 "/>
<text text-anchor="start" x="223.5" y="-677.9" font-family="Helvetica,sans-Serif" font-size="9.00">+ release()</text>
</a>
</g>
<!-- Node4&#45;&gt;Node3 -->
<g id="edge6" class="edge"><title>Node4&#45;&gt;Node3</title>
<path fill="none" stroke="midnightblue" d="M261.663,-659.574C251.2,-639.989 239.235,-617.593 229.357,-599.104"/>
<polygon fill="none" stroke="midnightblue" points="258.707,-661.469 266.506,-668.64 264.881,-658.171 258.707,-661.469"/>
</g>
<!-- Node5 -->
<g id="node8" class="node"><title>Node5</title>
<a xlink:href="../../dd/da7/a00168.htm" target="_top" xlink:title="interface of the layer ">
<polygon fill="none" stroke="black" points="297.5,-490.5 297.5,-631.5 434.5,-631.5 434.5,-490.5 297.5,-490.5"/>
<text text-anchor="start" x="305.5" y="-619.4" font-family="Helvetica,sans-Serif" font-size="9.00">de.tu_clausthal.in.mec.object.</text>
<text text-anchor="middle" x="366" y="-606.4" font-family="Helvetica,sans-Serif" font-size="9.00">ILayer</text>
<polyline fill="none" stroke="black" points="297.5,-597.5 434.5,-597.5 "/>
<text text-anchor="middle" x="366" y="-585.4" font-family="Helvetica,sans-Serif" font-size="9.00"> </text>
<polyline fill="none" stroke="black" points="297.5,-576.5 434.5,-576.5 "/>
<text text-anchor="start" x="305.5" y="-564.4" font-family="Helvetica,sans-Serif" font-size="9.00">+ getCalculationIndex()</text>
<text text-anchor="start" x="305.5" y="-551.4" font-family="Helvetica,sans-Serif" font-size="9.00">+ isActive()</text>
<text text-anchor="start" x="305.5" y="-538.4" font-family="Helvetica,sans-Serif" font-size="9.00">+ onSimulationReset()</text>
<text text-anchor="start" x="305.5" y="-525.4" font-family="Helvetica,sans-Serif" font-size="9.00">+ onSimulationStart()</text>
<text text-anchor="start" x="305.5" y="-512.4" font-family="Helvetica,sans-Serif" font-size="9.00">+ onSimulationStop()</text>
<text text-anchor="start" x="305.5" y="-499.4" font-family="Helvetica,sans-Serif" font-size="9.00">+ setActive()</text>
</a>
</g>
<!-- Node4&#45;&gt;Node5 -->
<g id="edge10" class="edge"><title>Node4&#45;&gt;Node5</title>
<path fill="none" stroke="midnightblue" d="M312.521,-659.835C317.408,-650.803 322.622,-641.166 327.807,-631.584"/>
<polygon fill="none" stroke="midnightblue" points="309.437,-658.18 307.756,-668.64 315.594,-661.511 309.437,-658.18"/>
</g>
<!-- Node5&#45;&gt;Node1 -->
<g id="edge8" class="edge"><title>Node5&#45;&gt;Node1</title>
<path fill="none" stroke="midnightblue" d="M328.316,-480.831C315.668,-453.924 301.061,-422.85 286.501,-391.875"/>
<polygon fill="none" stroke="midnightblue" points="325.283,-482.606 332.704,-490.167 331.618,-479.628 325.283,-482.606"/>
</g>
</g>
</svg>
