<?xml version="1.0" encoding="UTF-8" standalone="no"?>
<!DOCTYPE svg PUBLIC "-//W3C//DTD SVG 1.1//EN"
 "http://www.w3.org/Graphics/SVG/1.1/DTD/svg11.dtd">
<!-- Generated by graphviz version 2.26.3 (20100126.1600)
 -->
<!-- Title: de.tu_clausthal.in.mec.object.IMultiLayer&lt; T extends ISteppable &amp;Painter &gt; Pages: 1 -->
<!--zoomable 754 -->
<svg id="main" version="1.1" xmlns="http://www.w3.org/2000/svg" xmlns:xlink="http://www.w3.org/1999/xlink" xml:space="preserve" onload="init(evt)">
<style type="text/css"><![CDATA[
.edge:hover path { stroke: red; }
.edge:hover polygon { stroke: red; fill: red; }
]]></style>
<script type="text/javascript"><![CDATA[
var edges = document.getElementsByTagName('g');
if (edges && edges.length) {
  for (var i=0;i<edges.length;i++) {
    if (edges[i].id.substr(0,4)=='edge') {
      edges[i].setAttribute('class','edge');
    }
  }
}
]]></script>
        <defs>
                <circle id="rim" cx="0" cy="0" r="7"/>
                <circle id="rim2" cx="0" cy="0" r="3.5"/>
                <g id="zoomPlus">
                        <use xlink:href="#rim" fill="#404040">
                                <set attributeName="fill" to="#808080" begin="zoomplus.mouseover" end="zoomplus.mouseout"/>
                        </use>
                        <path d="M-4,0h8M0,-4v8" fill="none" stroke="white" stroke-width="1.5" pointer-events="none"/>
                </g>
                <g id="zoomMin">
                        <use xlink:href="#rim" fill="#404040">
                                <set attributeName="fill" to="#808080" begin="zoomminus.mouseover" end="zoomminus.mouseout"/>
                        </use>
                        <path d="M-4,0h8" fill="none" stroke="white" stroke-width="1.5" pointer-events="none"/>
                </g>
                <g id="dirArrow">
                        <path fill="none" stroke="white" stroke-width="1.5" d="M0,-3.0v7 M-2.5,-0.5L0,-3.0L2.5,-0.5"/>
                </g>
               <g id="resetDef">
                       <use xlink:href="#rim2" fill="#404040">
                               <set attributeName="fill" to="#808080" begin="reset.mouseover" end="reset.mouseout"/>
                       </use>
               </g>
        </defs>

<script type="text/javascript">
var viewWidth = 442;
var viewHeight = 754;
var sectionId = 'dynsection-1';
</script>
<script xlink:href="../../svgpan.js"/>
<svg id="graph" class="graph">
<g id="viewport">
<title>de.tu_clausthal.in.mec.object.IMultiLayer&lt; T extends ISteppable &amp;Painter &gt;</title>
<!-- Node1 -->
<g id="node1" class="node"><title>Node1</title>
<polygon fill="#bfbfbf" stroke="black" points="131.5,-0.5 131.5,-453.5 286.5,-453.5 286.5,-0.5 131.5,-0.5"/>
<text text-anchor="start" x="139.5" y="-441.4" font-family="Helvetica,sans-Serif" font-size="9.00">de.tu_clausthal.in.mec.object.</text>
<text text-anchor="start" x="139.5" y="-428.4" font-family="Helvetica,sans-Serif" font-size="9.00">IMultiLayer&lt; T extends ISteppable</text>
<text text-anchor="middle" x="209" y="-415.4" font-family="Helvetica,sans-Serif" font-size="9.00"> &amp;Painter &gt;</text>
<polyline fill="none" stroke="black" points="131.5,-406.5 286.5,-406.5 "/>
<text text-anchor="start" x="139.5" y="-394.4" font-family="Helvetica,sans-Serif" font-size="9.00"># m_active</text>
<text text-anchor="start" x="139.5" y="-381.4" font-family="Helvetica,sans-Serif" font-size="9.00"># m_data</text>
<text text-anchor="start" x="139.5" y="-368.4" font-family="Helvetica,sans-Serif" font-size="9.00"># m_visible</text>
<polyline fill="none" stroke="black" points="131.5,-359.5 286.5,-359.5 "/>
<text text-anchor="start" x="139.5" y="-347.4" font-family="Helvetica,sans-Serif" font-size="9.00">+ add()</text>
<text text-anchor="start" x="139.5" y="-334.4" font-family="Helvetica,sans-Serif" font-size="9.00">+ addAll()</text>
<text text-anchor="start" x="139.5" y="-321.4" font-family="Helvetica,sans-Serif" font-size="9.00">+ afterStepObject()</text>
<text text-anchor="start" x="139.5" y="-308.4" font-family="Helvetica,sans-Serif" font-size="9.00">+ beforeStepObject()</text>
<text text-anchor="start" x="139.5" y="-295.4" font-family="Helvetica,sans-Serif" font-size="9.00">+ clear()</text>
<text text-anchor="start" x="139.5" y="-282.4" font-family="Helvetica,sans-Serif" font-size="9.00">+ contains()</text>
<text text-anchor="start" x="139.5" y="-269.4" font-family="Helvetica,sans-Serif" font-size="9.00">+ containsAll()</text>
<text text-anchor="start" x="139.5" y="-256.4" font-family="Helvetica,sans-Serif" font-size="9.00">+ getCalculationIndex()</text>
<text text-anchor="start" x="139.5" y="-243.4" font-family="Helvetica,sans-Serif" font-size="9.00">+ isActive()</text>
<text text-anchor="start" x="139.5" y="-230.4" font-family="Helvetica,sans-Serif" font-size="9.00">+ isEmpty()</text>
<text text-anchor="start" x="139.5" y="-217.4" font-family="Helvetica,sans-Serif" font-size="9.00">+ isVisible()</text>
<text text-anchor="start" x="139.5" y="-204.4" font-family="Helvetica,sans-Serif" font-size="9.00">+ iterator()</text>
<text text-anchor="start" x="139.5" y="-191.4" font-family="Helvetica,sans-Serif" font-size="9.00">+ onSimulationReset()</text>
<text text-anchor="start" x="139.5" y="-178.4" font-family="Helvetica,sans-Serif" font-size="9.00">+ onSimulationStart()</text>
<text text-anchor="start" x="139.5" y="-165.4" font-family="Helvetica,sans-Serif" font-size="9.00">+ onSimulationStop()</text>
<text text-anchor="start" x="139.5" y="-152.4" font-family="Helvetica,sans-Serif" font-size="9.00">+ paint()</text>
<text text-anchor="start" x="139.5" y="-139.4" font-family="Helvetica,sans-Serif" font-size="9.00">+ release()</text>
<text text-anchor="start" x="139.5" y="-126.4" font-family="Helvetica,sans-Serif" font-size="9.00">+ remove()</text>
<text text-anchor="start" x="139.5" y="-113.4" font-family="Helvetica,sans-Serif" font-size="9.00">+ removeAll()</text>
<text text-anchor="start" x="139.5" y="-100.4" font-family="Helvetica,sans-Serif" font-size="9.00">+ retainAll()</text>
<text text-anchor="start" x="139.5" y="-87.4" font-family="Helvetica,sans-Serif" font-size="9.00">+ setActive()</text>
<text text-anchor="start" x="139.5" y="-74.4" font-family="Helvetica,sans-Serif" font-size="9.00">+ setVisible()</text>
<text text-anchor="start" x="139.5" y="-61.4" font-family="Helvetica,sans-Serif" font-size="9.00">+ size()</text>
<text text-anchor="start" x="139.5" y="-48.4" font-family="Helvetica,sans-Serif" font-size="9.00">+ step()</text>
<text text-anchor="start" x="139.5" y="-35.4" font-family="Helvetica,sans-Serif" font-size="9.00">+ toArray()</text>
<text text-anchor="start" x="139.5" y="-22.4" font-family="Helvetica,sans-Serif" font-size="9.00">+ toArray()</text>
<text text-anchor="start" x="139.5" y="-9.4" font-family="Helvetica,sans-Serif" font-size="9.00"># repaint()</text>
</g>
<!-- Node2 -->
<g id="node2" class="node"><title>Node2</title>
<a xlink:href="../../dc/d57/a00194.htm" target="_top" xlink:title="defines a viewable layer ">
<polygon fill="none" stroke="black" points="0,-516.5 0,-605.5 120,-605.5 120,-516.5 0,-516.5"/>
<text text-anchor="start" x="8" y="-593.4" font-family="Helvetica,sans-Serif" font-size="9.00">de.tu_clausthal.in.mec.ui.</text>
<text text-anchor="middle" x="60" y="-580.4" font-family="Helvetica,sans-Serif" font-size="9.00">IViewableLayer</text>
<polyline fill="none" stroke="black" points="0,-571.5 120,-571.5 "/>
<text text-anchor="middle" x="60" y="-559.4" font-family="Helvetica,sans-Serif" font-size="9.00"> </text>
<polyline fill="none" stroke="black" points="0,-550.5 120,-550.5 "/>
<text text-anchor="start" x="8" y="-538.4" font-family="Helvetica,sans-Serif" font-size="9.00">+ isVisible()</text>
<text text-anchor="start" x="8" y="-525.4" font-family="Helvetica,sans-Serif" font-size="9.00">+ setVisible()</text>
</a>
</g>
<!-- Node2&#45;&gt;Node1 -->
<g id="edge2" class="edge"><title>Node2&#45;&gt;Node1</title>
<path fill="none" stroke="midnightblue" d="M84.0484,-507.093C97.1406,-477.745 114.154,-439.609 131.389,-400.973"/>
<polygon fill="none" stroke="midnightblue" points="80.818,-505.743 79.9402,-516.302 87.2107,-508.595 80.818,-505.743"/>
</g>
<!-- Node3 -->
<g id="node4" class="node"><title>Node3</title>
<a xlink:href="../../de/db1/a00197.htm" target="_top" xlink:title="interface of void&#45;step method ">
<polygon fill="none" stroke="black" points="137.5,-523 137.5,-599 280.5,-599 280.5,-523 137.5,-523"/>
<text text-anchor="start" x="145.5" y="-586.9" font-family="Helvetica,sans-Serif" font-size="9.00">de.tu_clausthal.in.mec.runtime.</text>
<text text-anchor="middle" x="209" y="-573.9" font-family="Helvetica,sans-Serif" font-size="9.00">IVoidSteppable</text>
<polyline fill="none" stroke="black" points="137.5,-565 280.5,-565 "/>
<text text-anchor="middle" x="209" y="-552.9" font-family="Helvetica,sans-Serif" font-size="9.00"> </text>
<polyline fill="none" stroke="black" points="137.5,-544 280.5,-544 "/>
<text text-anchor="start" x="145.5" y="-531.9" font-family="Helvetica,sans-Serif" font-size="9.00">+ step()</text>
</a>
</g>
<!-- Node3&#45;&gt;Node1 -->
<g id="edge4" class="edge"><title>Node3&#45;&gt;Node1</title>
<path fill="none" stroke="midnightblue" d="M209,-512.637C209,-495.781 209,-475.59 209,-453.838"/>
<polygon fill="none" stroke="midnightblue" points="205.5,-512.686 209,-522.686 212.5,-512.686 205.5,-512.686"/>
</g>
<!-- Node4 -->
<g id="node6" class="node"><title>Node4</title>
<a xlink:href="../../da/d15/a00188.htm" target="_top" xlink:title="interface for all objects which are triggered by the simulation worker ">
<polygon fill="none" stroke="black" points="215.5,-669 215.5,-745 358.5,-745 358.5,-669 215.5,-669"/>
<text text-anchor="start" x="223.5" y="-732.9" font-family="Helvetica,sans-Serif" font-size="9.00">de.tu_clausthal.in.mec.runtime.</text>
<text text-anchor="middle" x="287" y="-719.9" font-family="Helvetica,sans-Serif" font-size="9.00">ISteppable</text>
<polyline fill="none" stroke="black" points="215.5,-711 358.5,-711 "/>
<text text-anchor="middle" x="287" y="-698.9" font-family="Helvetica,sans-Serif" font-size="9.00"> </text>
<polyline fill="none" stroke="black" points="215.5,-690 358.5,-690 "/>
<text text-anchor="start" x="223.5" y="-677.9" font-family="Helvetica,sans-Serif" font-size="9.00">+ release()</text>
</a>
</g>
<!-- Node4&#45;&gt;Node3 -->
<g id="edge6" class="edge"><title>Node4&#45;&gt;Node3</title>
<path fill="none" stroke="midnightblue" d="M261.663,-659.574C251.2,-639.989 239.235,-617.593 229.357,-599.104"/>
<polygon fill="none" stroke="midnightblue" points="258.707,-661.469 266.506,-668.64 264.881,-658.171 258.707,-661.469"/>
</g>
<!-- Node5 -->
<g id="node8" class="node"><title>Node5</title>
<a xlink:href="../../dd/da7/a00168.htm" target="_top" xlink:title="interface of the layer ">
<polygon fill="none" stroke="black" points="297.5,-490.5 297.5,-631.5 434.5,-631.5 434.5,-490.5 297.5,-490.5"/>
<text text-anchor="start" x="305.5" y="-619.4" font-family="Helvetica,sans-Serif" font-size="9.00">de.tu_clausthal.in.mec.object.</text>
<text text-anchor="middle" x="366" y="-606.4" font-family="Helvetica,sans-Serif" font-size="9.00">ILayer</text>
<polyline fill="none" stroke="black" points="297.5,-597.5 434.5,-597.5 "/>
<text text-anchor="middle" x="366" y="-585.4" font-family="Helvetica,sans-Serif" font-size="9.00"> </text>
<polyline fill="none" stroke="black" points="297.5,-576.5 434.5,-576.5 "/>
<text text-anchor="start" x="305.5" y="-564.4" font-family="Helvetica,sans-Serif" font-size="9.00">+ getCalculationIndex()</text>
<text text-anchor="start" x="305.5" y="-551.4" font-family="Helvetica,sans-Serif" font-size="9.00">+ isActive()</text>
<text text-anchor="start" x="305.5" y="-538.4" font-family="Helvetica,sans-Serif" font-size="9.00">+ onSimulationReset()</text>
<text text-anchor="start" x="305.5" y="-525.4" font-family="Helvetica,sans-Serif" font-size="9.00">+ onSimulationStart()</text>
<text text-anchor="start" x="305.5" y="-512.4" font-family="Helvetica,sans-Serif" font-size="9.00">+ onSimulationStop()</text>
<text text-anchor="start" x="305.5" y="-499.4" font-family="Helvetica,sans-Serif" font-size="9.00">+ setActive()</text>
</a>
</g>
<!-- Node4&#45;&gt;Node5 -->
<g id="edge10" class="edge"><title>Node4&#45;&gt;Node5</title>
<path fill="none" stroke="midnightblue" d="M312.521,-659.835C317.408,-650.803 322.622,-641.166 327.807,-631.584"/>
<polygon fill="none" stroke="midnightblue" points="309.437,-658.18 307.756,-668.64 315.594,-661.511 309.437,-658.18"/>
</g>
<!-- Node5&#45;&gt;Node1 -->
<g id="edge8" class="edge"><title>Node5&#45;&gt;Node1</title>
<path fill="none" stroke="midnightblue" d="M328.316,-480.831C315.668,-453.924 301.061,-422.85 286.501,-391.875"/>
<polygon fill="none" stroke="midnightblue" points="325.283,-482.606 332.704,-490.167 331.618,-479.628 325.283,-482.606"/>
</g>
</g>
</svg>
        <g id="navigator" transform="translate(0 0)" fill="#404254">
                <rect fill="#f2f5e9" fill-opacity="0.5" stroke="#606060" stroke-width=".5" x="0" y="0" width="60" height="60"/>
                <use id="zoomplus" xlink:href="#zoomPlus" x="17" y="9" onmousedown="handleZoom(evt,'in')"/>
                <use id="zoomminus" xlink:href="#zoomMin" x="42" y="9" onmousedown="handleZoom(evt,'out')"/>
                <use id="reset" xlink:href="#resetDef" x="30" y="36" onmousedown="handleReset()"/>
                <g id="arrowUp" xlink:href="#dirArrow" transform="translate(30 24)" onmousedown="handlePan(0,-1)">
                  <use xlink:href="#rim" fill="#404040">
                        <set attributeName="fill" to="#808080" begin="arrowUp.mouseover" end="arrowUp.mouseout"/>
                  </use>
                  <path fill="none" stroke="white" stroke-width="1.5" d="M0,-3.0v7 M-2.5,-0.5L0,-3.0L2.5,-0.5"/>
                </g>
                <g id="arrowRight" xlink:href="#dirArrow" transform="rotate(90) translate(36 -43)" onmousedown="handlePan(1,0)">
                  <use xlink:href="#rim" fill="#404040">
                        <set attributeName="fill" to="#808080" begin="arrowRight.mouseover" end="arrowRight.mouseout"/>
                  </use>
                  <path fill="none" stroke="white" stroke-width="1.5" d="M0,-3.0v7 M-2.5,-0.5L0,-3.0L2.5,-0.5"/>
                </g>
                <g id="arrowDown" xlink:href="#dirArrow" transform="rotate(180) translate(-30 -48)" onmousedown="handlePan(0,1)">
                  <use xlink:href="#rim" fill="#404040">
                        <set attributeName="fill" to="#808080" begin="arrowDown.mouseover" end="arrowDown.mouseout"/>
                  </use>
                  <path fill="none" stroke="white" stroke-width="1.5" d="M0,-3.0v7 M-2.5,-0.5L0,-3.0L2.5,-0.5"/>
                </g>
                <g id="arrowLeft" xlink:href="#dirArrow" transform="rotate(270) translate(-36 17)" onmousedown="handlePan(-1,0)">
                  <use xlink:href="#rim" fill="#404040">
                        <set attributeName="fill" to="#808080" begin="arrowLeft.mouseover" end="arrowLeft.mouseout"/>
                  </use>
                  <path fill="none" stroke="white" stroke-width="1.5" d="M0,-3.0v7 M-2.5,-0.5L0,-3.0L2.5,-0.5"/>
                </g>
        </g>
        <svg viewBox="0 0 15 15" width="100%" height="30px" preserveAspectRatio="xMaxYMin meet">
         <g id="arrow_out" transform="scale(0.3 0.3)">
          <a xlink:href="a00494_org.svg" target="_base">
           <rect id="button" ry="5" rx="5" y="6" x="6" height="38" width="38"
                fill="#f2f5e9" fill-opacity="0.5" stroke="#606060" stroke-width="1.0"/>
           <path id="arrow"
             d="M 11.500037,31.436501 C 11.940474,20.09759 22.043105,11.32322 32.158766,21.979434 L 37.068811,17.246167 C 37.068811,17.246167 37.088388,32 37.088388,32 L 22.160133,31.978069 C 22.160133,31.978069 26.997745,27.140456 26.997745,27.140456 C 18.528582,18.264221 13.291696,25.230495 11.500037,31.436501 z"
             style="fill:#404040;"/>
          </a>
         </g>
        </svg>
</svg>
