<?xml version="1.0" encoding="UTF-8" standalone="no"?>
<!DOCTYPE svg PUBLIC "-//W3C//DTD SVG 1.1//EN"
 "http://www.w3.org/Graphics/SVG/1.1/DTD/svg11.dtd">
<!-- Generated by graphviz version 2.26.3 (20100126.1600)
 -->
<!-- Title: de.tu_clausthal.in.mec.object.waypoint.generator.CTimeProfile Pages: 1 -->
<!--zoomable 482 -->
<svg id="main" version="1.1" xmlns="http://www.w3.org/2000/svg" xmlns:xlink="http://www.w3.org/1999/xlink" xml:space="preserve" onload="init(evt)">
<style type="text/css"><![CDATA[
.edge:hover path { stroke: red; }
.edge:hover polygon { stroke: red; fill: red; }
]]></style>
<script type="text/javascript"><![CDATA[
var edges = document.getElementsByTagName('g');
if (edges && edges.length) {
  for (var i=0;i<edges.length;i++) {
    if (edges[i].id.substr(0,4)=='edge') {
      edges[i].setAttribute('class','edge');
    }
  }
}
]]></script>
        <defs>
                <circle id="rim" cx="0" cy="0" r="7"/>
                <circle id="rim2" cx="0" cy="0" r="3.5"/>
                <g id="zoomPlus">
                        <use xlink:href="#rim" fill="#404040">
                                <set attributeName="fill" to="#808080" begin="zoomplus.mouseover" end="zoomplus.mouseout"/>
                        </use>
                        <path d="M-4,0h8M0,-4v8" fill="none" stroke="white" stroke-width="1.5" pointer-events="none"/>
                </g>
                <g id="zoomMin">
                        <use xlink:href="#rim" fill="#404040">
                                <set attributeName="fill" to="#808080" begin="zoomminus.mouseover" end="zoomminus.mouseout"/>
                        </use>
                        <path d="M-4,0h8" fill="none" stroke="white" stroke-width="1.5" pointer-events="none"/>
                </g>
                <g id="dirArrow">
                        <path fill="none" stroke="white" stroke-width="1.5" d="M0,-3.0v7 M-2.5,-0.5L0,-3.0L2.5,-0.5"/>
                </g>
               <g id="resetDef">
                       <use xlink:href="#rim2" fill="#404040">
                               <set attributeName="fill" to="#808080" begin="reset.mouseover" end="reset.mouseout"/>
                       </use>
               </g>
        </defs>

<script type="text/javascript">
var viewWidth = 364;
var viewHeight = 482;
var sectionId = 'dynsection-0';
</script>
<script xlink:href="../../svgpan.js"/>
<svg id="graph" class="graph">
<g id="viewport">
<title>de.tu_clausthal.in.mec.object.waypoint.generator.CTimeProfile</title>
<!-- Node1 -->
<g id="node1" class="node"><title>Node1</title>
<polygon fill="#bfbfbf" stroke="black" points="44,-0.5 44,-115.5 262,-115.5 262,-0.5 44,-0.5"/>
<text text-anchor="start" x="52" y="-103.4" font-family="Helvetica,sans-Serif" font-size="9.00">de.tu_clausthal.in.mec.object.waypoint.generator.</text>
<text text-anchor="middle" x="153" y="-90.4" font-family="Helvetica,sans-Serif" font-size="9.00">CTimeProfile</text>
<polyline fill="none" stroke="black" points="44,-81.5 262,-81.5 "/>
<text text-anchor="start" x="52" y="-69.4" font-family="Helvetica,sans-Serif" font-size="9.00">~ m_histogram</text>
<text text-anchor="start" x="52" y="-56.4" font-family="Helvetica,sans-Serif" font-size="9.00">&#45; m_inspect</text>
<polyline fill="none" stroke="black" points="44,-47.5 262,-47.5 "/>
<text text-anchor="start" x="52" y="-35.4" font-family="Helvetica,sans-Serif" font-size="9.00">+ CTimeProfile()</text>
<text text-anchor="start" x="52" y="-22.4" font-family="Helvetica,sans-Serif" font-size="9.00">+ getCount()</text>
<text text-anchor="start" x="52" y="-9.4" font-family="Helvetica,sans-Serif" font-size="9.00">+ inspect()</text>
</g>
<!-- Node2 -->
<g id="node2" class="node"><title>Node2</title>
<a xlink:href="../../dc/de6/a00167.htm" target="_top" xlink:title="global default implementation to get information about a simulation object ">
<polygon fill="none" stroke="black" points="0,-153 0,-229 120,-229 120,-153 0,-153"/>
<text text-anchor="start" x="8" y="-216.9" font-family="Helvetica,sans-Serif" font-size="9.00">de.tu_clausthal.in.mec.ui.</text>
<text text-anchor="middle" x="60" y="-203.9" font-family="Helvetica,sans-Serif" font-size="9.00">IInspectorDefault</text>
<polyline fill="none" stroke="black" points="0,-195 120,-195 "/>
<text text-anchor="start" x="8" y="-182.9" font-family="Helvetica,sans-Serif" font-size="9.00">&#45; m_inspect</text>
<polyline fill="none" stroke="black" points="0,-174 120,-174 "/>
<text text-anchor="start" x="8" y="-161.9" font-family="Helvetica,sans-Serif" font-size="9.00">+ inspect()</text>
</a>
</g>
<!-- Node2&#45;&gt;Node1 -->
<g id="edge2" class="edge"><title>Node2&#45;&gt;Node1</title>
<path fill="none" stroke="midnightblue" d="M92.4954,-144.528C99.0019,-135.223 105.912,-125.341 112.647,-115.709"/>
<polygon fill="none" stroke="midnightblue" points="89.5123,-142.687 86.6501,-152.888 95.2489,-146.698 89.5123,-142.687"/>
</g>
<!-- Node3 -->
<g id="node4" class="node"><title>Node3</title>
<a xlink:href="../../dd/df4/a00193.htm" target="_top" xlink:title="class to handle UI events with encapsulate the default lister structures ">
<polygon fill="none" stroke="black" points="0,-267 0,-473 120,-473 120,-267 0,-267"/>
<text text-anchor="start" x="8" y="-460.9" font-family="Helvetica,sans-Serif" font-size="9.00">de.tu_clausthal.in.mec.ui.</text>
<text text-anchor="middle" x="60" y="-447.9" font-family="Helvetica,sans-Serif" font-size="9.00">IUIListener</text>
<polyline fill="none" stroke="black" points="0,-439 120,-439 "/>
<text text-anchor="start" x="8" y="-426.9" font-family="Helvetica,sans-Serif" font-size="9.00"># c_maxzoom</text>
<text text-anchor="start" x="8" y="-413.9" font-family="Helvetica,sans-Serif" font-size="9.00"># c_miniconsize</text>
<polyline fill="none" stroke="black" points="0,-405 120,-405 "/>
<text text-anchor="start" x="8" y="-392.9" font-family="Helvetica,sans-Serif" font-size="9.00">+ IUIListener()</text>
<text text-anchor="start" x="8" y="-379.9" font-family="Helvetica,sans-Serif" font-size="9.00">+ mouseClicked()</text>
<text text-anchor="start" x="8" y="-366.9" font-family="Helvetica,sans-Serif" font-size="9.00">+ mouseEntered()</text>
<text text-anchor="start" x="8" y="-353.9" font-family="Helvetica,sans-Serif" font-size="9.00">+ mouseExited()</text>
<text text-anchor="start" x="8" y="-340.9" font-family="Helvetica,sans-Serif" font-size="9.00">+ mousePressed()</text>
<text text-anchor="start" x="8" y="-327.9" font-family="Helvetica,sans-Serif" font-size="9.00">+ mouseReleased()</text>
<text text-anchor="start" x="8" y="-314.9" font-family="Helvetica,sans-Serif" font-size="9.00">+ onClick()</text>
<text text-anchor="start" x="8" y="-301.9" font-family="Helvetica,sans-Serif" font-size="9.00">+ release()</text>
<text text-anchor="start" x="8" y="-288.9" font-family="Helvetica,sans-Serif" font-size="9.00"># iconscale()</text>
<text text-anchor="start" x="8" y="-275.9" font-family="Helvetica,sans-Serif" font-size="9.00"># iconsize()</text>
</a>
</g>
<!-- Node3&#45;&gt;Node2 -->
<g id="edge4" class="edge"><title>Node3&#45;&gt;Node2</title>
<path fill="none" stroke="midnightblue" d="M60,-256.677C60,-246.975 60,-237.676 60,-229.283"/>
<polygon fill="none" stroke="midnightblue" points="56.5001,-256.912 60,-266.912 63.5001,-256.912 56.5001,-256.912"/>
</g>
<!-- Node4 -->
<g id="node6" class="node"><title>Node4</title>
<a xlink:href="../../d9/d38/a00166.htm" target="_top" xlink:title="global interface to read information about a simulation object ">
<polygon fill="none" stroke="black" points="162,-332 162,-408 282,-408 282,-332 162,-332"/>
<text text-anchor="start" x="170" y="-395.9" font-family="Helvetica,sans-Serif" font-size="9.00">de.tu_clausthal.in.mec.ui.</text>
<text text-anchor="middle" x="222" y="-382.9" font-family="Helvetica,sans-Serif" font-size="9.00">IInspector</text>
<polyline fill="none" stroke="black" points="162,-374 282,-374 "/>
<text text-anchor="middle" x="222" y="-361.9" font-family="Helvetica,sans-Serif" font-size="9.00"> </text>
<polyline fill="none" stroke="black" points="162,-353 282,-353 "/>
<text text-anchor="start" x="170" y="-340.9" font-family="Helvetica,sans-Serif" font-size="9.00">+ inspect()</text>
</a>
</g>
<!-- Node4&#45;&gt;Node2 -->
<g id="edge6" class="edge"><title>Node4&#45;&gt;Node2</title>
<path fill="none" stroke="midnightblue" d="M181.339,-324.249C165.114,-306.067 146.229,-284.995 129,-266 118.064,-253.943 106.077,-240.866 95.2066,-229.059"/>
<polygon fill="none" stroke="midnightblue" points="178.849,-326.715 188.117,-331.85 184.073,-322.057 178.849,-326.715"/>
</g>
<!-- Node5 -->
<g id="node8" class="node"><title>Node5</title>
<a xlink:href="../../db/ddf/a00164.htm" target="_top" xlink:title="distribution interface to define the amount of objects that should be generated ">
<polygon fill="none" stroke="black" points="138,-153 138,-229 356,-229 356,-153 138,-153"/>
<text text-anchor="start" x="146" y="-216.9" font-family="Helvetica,sans-Serif" font-size="9.00">de.tu_clausthal.in.mec.object.waypoint.generator.</text>
<text text-anchor="middle" x="247" y="-203.9" font-family="Helvetica,sans-Serif" font-size="9.00">IGenerator</text>
<polyline fill="none" stroke="black" points="138,-195 356,-195 "/>
<text text-anchor="middle" x="247" y="-182.9" font-family="Helvetica,sans-Serif" font-size="9.00"> </text>
<polyline fill="none" stroke="black" points="138,-174 356,-174 "/>
<text text-anchor="start" x="146" y="-161.9" font-family="Helvetica,sans-Serif" font-size="9.00">+ getCount()</text>
</a>
</g>
<!-- Node4&#45;&gt;Node5 -->
<g id="edge10" class="edge"><title>Node4&#45;&gt;Node5</title>
<path fill="none" stroke="midnightblue" d="M228.753,-321.647C232.816,-292.556 237.915,-256.051 241.689,-229.029"/>
<polygon fill="none" stroke="midnightblue" points="225.28,-321.212 227.363,-331.6 232.213,-322.18 225.28,-321.212"/>
</g>
<!-- Node5&#45;&gt;Node1 -->
<g id="edge8" class="edge"><title>Node5&#45;&gt;Node1</title>
<path fill="none" stroke="midnightblue" d="M214.155,-144.528C207.579,-135.223 200.594,-125.341 193.787,-115.709"/>
<polygon fill="none" stroke="midnightblue" points="211.433,-146.741 220.063,-152.888 217.15,-142.701 211.433,-146.741"/>
</g>
</g>
</svg>
        <g id="navigator" transform="translate(0 0)" fill="#404254">
                <rect fill="#f2f5e9" fill-opacity="0.5" stroke="#606060" stroke-width=".5" x="0" y="0" width="60" height="60"/>
                <use id="zoomplus" xlink:href="#zoomPlus" x="17" y="9" onmousedown="handleZoom(evt,'in')"/>
                <use id="zoomminus" xlink:href="#zoomMin" x="42" y="9" onmousedown="handleZoom(evt,'out')"/>
                <use id="reset" xlink:href="#resetDef" x="30" y="36" onmousedown="handleReset()"/>
                <g id="arrowUp" xlink:href="#dirArrow" transform="translate(30 24)" onmousedown="handlePan(0,-1)">
                  <use xlink:href="#rim" fill="#404040">
                        <set attributeName="fill" to="#808080" begin="arrowUp.mouseover" end="arrowUp.mouseout"/>
                  </use>
                  <path fill="none" stroke="white" stroke-width="1.5" d="M0,-3.0v7 M-2.5,-0.5L0,-3.0L2.5,-0.5"/>
                </g>
                <g id="arrowRight" xlink:href="#dirArrow" transform="rotate(90) translate(36 -43)" onmousedown="handlePan(1,0)">
                  <use xlink:href="#rim" fill="#404040">
                        <set attributeName="fill" to="#808080" begin="arrowRight.mouseover" end="arrowRight.mouseout"/>
                  </use>
                  <path fill="none" stroke="white" stroke-width="1.5" d="M0,-3.0v7 M-2.5,-0.5L0,-3.0L2.5,-0.5"/>
                </g>
                <g id="arrowDown" xlink:href="#dirArrow" transform="rotate(180) translate(-30 -48)" onmousedown="handlePan(0,1)">
                  <use xlink:href="#rim" fill="#404040">
                        <set attributeName="fill" to="#808080" begin="arrowDown.mouseover" end="arrowDown.mouseout"/>
                  </use>
                  <path fill="none" stroke="white" stroke-width="1.5" d="M0,-3.0v7 M-2.5,-0.5L0,-3.0L2.5,-0.5"/>
                </g>
                <g id="arrowLeft" xlink:href="#dirArrow" transform="rotate(270) translate(-36 17)" onmousedown="handlePan(-1,0)">
                  <use xlink:href="#rim" fill="#404040">
                        <set attributeName="fill" to="#808080" begin="arrowLeft.mouseover" end="arrowLeft.mouseout"/>
                  </use>
                  <path fill="none" stroke="white" stroke-width="1.5" d="M0,-3.0v7 M-2.5,-0.5L0,-3.0L2.5,-0.5"/>
                </g>
        </g>
        <svg viewBox="0 0 15 15" width="100%" height="30px" preserveAspectRatio="xMaxYMin meet">
         <g id="arrow_out" transform="scale(0.3 0.3)">
          <a xlink:href="a00740_org.svg" target="_base">
           <rect id="button" ry="5" rx="5" y="6" x="6" height="38" width="38"
                fill="#f2f5e9" fill-opacity="0.5" stroke="#606060" stroke-width="1.0"/>
           <path id="arrow"
             d="M 11.500037,31.436501 C 11.940474,20.09759 22.043105,11.32322 32.158766,21.979434 L 37.068811,17.246167 C 37.068811,17.246167 37.088388,32 37.088388,32 L 22.160133,31.978069 C 22.160133,31.978069 26.997745,27.140456 26.997745,27.140456 C 18.528582,18.264221 13.291696,25.230495 11.500037,31.436501 z"
             style="fill:#404040;"/>
          </a>
         </g>
        </svg>
</svg>
