<?xml version="1.0" encoding="UTF-8" standalone="no"?>
<!DOCTYPE svg PUBLIC "-//W3C//DTD SVG 1.1//EN"
 "http://www.w3.org/Graphics/SVG/1.1/DTD/svg11.dtd">
<!-- Generated by graphviz version 2.26.3 (20100126.1600)
 -->
<!-- Title: de.tu_clausthal.in.mec.object.car.CDefaultCar Pages: 1 -->
<svg width="971pt" height="1352pt"
 viewBox="0.00 0.00 971.00 1352.00" xmlns="http://www.w3.org/2000/svg" xmlns:xlink="http://www.w3.org/1999/xlink">
<g id="graph1" class="graph" transform="scale(1 1) rotate(0) translate(4 1348)">
<title>de.tu_clausthal.in.mec.object.car.CDefaultCar</title>
<!-- Node1 -->
<g id="node1" class="node"><title>Node1</title>
<polygon fill="#bfbfbf" stroke="black" points="278,-0.5 278,-479.5 430,-479.5 430,-0.5 278,-0.5"/>
<text text-anchor="start" x="286" y="-467.4" font-family="Helvetica,sans-Serif" font-size="9.00">de.tu_clausthal.in.mec.object.car.</text>
<text text-anchor="middle" x="354" y="-454.4" font-family="Helvetica,sans-Serif" font-size="9.00">CDefaultCar</text>
<polyline fill="none" stroke="black" points="278,-445.5 430,-445.5 "/>
<text text-anchor="start" x="286" y="-433.4" font-family="Helvetica,sans-Serif" font-size="9.00"># m_maxspeed</text>
<text text-anchor="start" x="286" y="-420.4" font-family="Helvetica,sans-Serif" font-size="9.00"># m_route</text>
<text text-anchor="start" x="286" y="-407.4" font-family="Helvetica,sans-Serif" font-size="9.00"># m_routeindex</text>
<text text-anchor="start" x="286" y="-394.4" font-family="Helvetica,sans-Serif" font-size="9.00"># m_speed</text>
<text text-anchor="start" x="286" y="-381.4" font-family="Helvetica,sans-Serif" font-size="9.00">&#45; m_acceleration</text>
<text text-anchor="start" x="286" y="-368.4" font-family="Helvetica,sans-Serif" font-size="9.00">&#45; m_deceleration</text>
<text text-anchor="start" x="286" y="-355.4" font-family="Helvetica,sans-Serif" font-size="9.00">&#45; m_endreached</text>
<text text-anchor="start" x="286" y="-342.4" font-family="Helvetica,sans-Serif" font-size="9.00">&#45; m_inspect</text>
<text text-anchor="start" x="286" y="-329.4" font-family="Helvetica,sans-Serif" font-size="9.00">&#45; m_lingerprobability</text>
<polyline fill="none" stroke="black" points="278,-320.5 430,-320.5 "/>
<text text-anchor="start" x="286" y="-308.4" font-family="Helvetica,sans-Serif" font-size="9.00">+ CDefaultCar()</text>
<text text-anchor="start" x="286" y="-295.4" font-family="Helvetica,sans-Serif" font-size="9.00">+ getAcceleration()</text>
<text text-anchor="start" x="286" y="-282.4" font-family="Helvetica,sans-Serif" font-size="9.00">+ getCurrentSpeed()</text>
<text text-anchor="start" x="286" y="-269.4" font-family="Helvetica,sans-Serif" font-size="9.00">+ getDeceleration()</text>
<text text-anchor="start" x="286" y="-256.4" font-family="Helvetica,sans-Serif" font-size="9.00">+ getEdge()</text>
<text text-anchor="start" x="286" y="-243.4" font-family="Helvetica,sans-Serif" font-size="9.00">+ getGeoposition()</text>
<text text-anchor="start" x="286" y="-230.4" font-family="Helvetica,sans-Serif" font-size="9.00">+ getLingerProbability()</text>
<text text-anchor="start" x="286" y="-217.4" font-family="Helvetica,sans-Serif" font-size="9.00">+ getMaximumSpeed()</text>
<text text-anchor="start" x="286" y="-204.4" font-family="Helvetica,sans-Serif" font-size="9.00">+ getPredecessor()</text>
<text text-anchor="start" x="286" y="-191.4" font-family="Helvetica,sans-Serif" font-size="9.00">+ getPredecessor()</text>
<text text-anchor="start" x="286" y="-178.4" font-family="Helvetica,sans-Serif" font-size="9.00">+ hasEndReached()</text>
<text text-anchor="start" x="286" y="-165.4" font-family="Helvetica,sans-Serif" font-size="9.00">+ inspect()</text>
<text text-anchor="start" x="286" y="-152.4" font-family="Helvetica,sans-Serif" font-size="9.00">+ onClick()</text>
<text text-anchor="start" x="286" y="-139.4" font-family="Helvetica,sans-Serif" font-size="9.00">+ paint()</text>
<text text-anchor="start" x="286" y="-126.4" font-family="Helvetica,sans-Serif" font-size="9.00">+ release()</text>
<text text-anchor="start" x="286" y="-113.4" font-family="Helvetica,sans-Serif" font-size="9.00">+ setCurrentSpeed()</text>
<text text-anchor="start" x="286" y="-100.4" font-family="Helvetica,sans-Serif" font-size="9.00">+ step()</text>
<text text-anchor="start" x="286" y="-87.4" font-family="Helvetica,sans-Serif" font-size="9.00"># getCurrentPosition()</text>
<text text-anchor="start" x="286" y="-74.4" font-family="Helvetica,sans-Serif" font-size="9.00">&#45; getCurrentCarsOnEdge()</text>
<text text-anchor="start" x="286" y="-61.4" font-family="Helvetica,sans-Serif" font-size="9.00">&#45; getCurrentEdgeMaxSpeed()</text>
<text text-anchor="start" x="286" y="-48.4" font-family="Helvetica,sans-Serif" font-size="9.00">&#45; getEdge()</text>
<text text-anchor="start" x="286" y="-35.4" font-family="Helvetica,sans-Serif" font-size="9.00">&#45; getRouteLine()</text>
<text text-anchor="start" x="286" y="-22.4" font-family="Helvetica,sans-Serif" font-size="9.00">&#45; reroute()</text>
<text text-anchor="start" x="286" y="-9.4" font-family="Helvetica,sans-Serif" font-size="9.00">&#45; reroute()</text>
</g>
<!-- Node2 -->
<g id="node2" class="node"><title>Node2</title>
<a xlink:href="../../dc/de6/a00167.htm" target="_top" xlink:title="global default implementation to get information about a simulation object ">
<polygon fill="none" stroke="black" points="131,-596 131,-672 251,-672 251,-596 131,-596"/>
<text text-anchor="start" x="139" y="-659.9" font-family="Helvetica,sans-Serif" font-size="9.00">de.tu_clausthal.in.mec.ui.</text>
<text text-anchor="middle" x="191" y="-646.9" font-family="Helvetica,sans-Serif" font-size="9.00">IInspectorDefault</text>
<polyline fill="none" stroke="black" points="131,-638 251,-638 "/>
<text text-anchor="start" x="139" y="-625.9" font-family="Helvetica,sans-Serif" font-size="9.00">&#45; m_inspect</text>
<polyline fill="none" stroke="black" points="131,-617 251,-617 "/>
<text text-anchor="start" x="139" y="-604.9" font-family="Helvetica,sans-Serif" font-size="9.00">+ inspect()</text>
</a>
</g>
<!-- Node2&#45;&gt;Node1 -->
<g id="edge2" class="edge"><title>Node2&#45;&gt;Node1</title>
<path fill="none" stroke="midnightblue" d="M210.671,-586.453C227.568,-545.609 253.063,-483.982 277.889,-423.974"/>
<polygon fill="none" stroke="midnightblue" points="207.366,-585.285 206.777,-595.864 213.834,-587.961 207.366,-585.285"/>
</g>
<!-- Node3 -->
<g id="node4" class="node"><title>Node3</title>
<a xlink:href="../../dd/df4/a00193.htm" target="_top" xlink:title="class to handle UI events with encapsulate the default lister structures ">
<polygon fill="none" stroke="black" points="0,-899 0,-1105 120,-1105 120,-899 0,-899"/>
<text text-anchor="start" x="8" y="-1092.9" font-family="Helvetica,sans-Serif" font-size="9.00">de.tu_clausthal.in.mec.ui.</text>
<text text-anchor="middle" x="60" y="-1079.9" font-family="Helvetica,sans-Serif" font-size="9.00">IUIListener</text>
<polyline fill="none" stroke="black" points="0,-1071 120,-1071 "/>
<text text-anchor="start" x="8" y="-1058.9" font-family="Helvetica,sans-Serif" font-size="9.00"># c_maxzoom</text>
<text text-anchor="start" x="8" y="-1045.9" font-family="Helvetica,sans-Serif" font-size="9.00"># c_miniconsize</text>
<polyline fill="none" stroke="black" points="0,-1037 120,-1037 "/>
<text text-anchor="start" x="8" y="-1024.9" font-family="Helvetica,sans-Serif" font-size="9.00">+ IUIListener()</text>
<text text-anchor="start" x="8" y="-1011.9" font-family="Helvetica,sans-Serif" font-size="9.00">+ mouseClicked()</text>
<text text-anchor="start" x="8" y="-998.9" font-family="Helvetica,sans-Serif" font-size="9.00">+ mouseEntered()</text>
<text text-anchor="start" x="8" y="-985.9" font-family="Helvetica,sans-Serif" font-size="9.00">+ mouseExited()</text>
<text text-anchor="start" x="8" y="-972.9" font-family="Helvetica,sans-Serif" font-size="9.00">+ mousePressed()</text>
<text text-anchor="start" x="8" y="-959.9" font-family="Helvetica,sans-Serif" font-size="9.00">+ mouseReleased()</text>
<text text-anchor="start" x="8" y="-946.9" font-family="Helvetica,sans-Serif" font-size="9.00">+ onClick()</text>
<text text-anchor="start" x="8" y="-933.9" font-family="Helvetica,sans-Serif" font-size="9.00">+ release()</text>
<text text-anchor="start" x="8" y="-920.9" font-family="Helvetica,sans-Serif" font-size="9.00"># iconscale()</text>
<text text-anchor="start" x="8" y="-907.9" font-family="Helvetica,sans-Serif" font-size="9.00"># iconsize()</text>
</a>
</g>
<!-- Node3&#45;&gt;Node2 -->
<g id="edge4" class="edge"><title>Node3&#45;&gt;Node2</title>
<path fill="none" stroke="midnightblue" d="M94.6938,-889.281C105.24,-856.46 117.179,-820.656 129,-788 143.421,-748.162 161.724,-703.298 174.695,-672.315"/>
<polygon fill="none" stroke="midnightblue" points="91.3277,-888.316 91.6127,-898.907 97.9946,-890.45 91.3277,-888.316"/>
</g>
<!-- Node4 -->
<g id="node6" class="node"><title>Node4</title>
<a xlink:href="../../d9/d38/a00166.htm" target="_top" xlink:title="global interface to read information about a simulation object ">
<polygon fill="none" stroke="black" points="138,-964 138,-1040 258,-1040 258,-964 138,-964"/>
<text text-anchor="start" x="146" y="-1027.9" font-family="Helvetica,sans-Serif" font-size="9.00">de.tu_clausthal.in.mec.ui.</text>
<text text-anchor="middle" x="198" y="-1014.9" font-family="Helvetica,sans-Serif" font-size="9.00">IInspector</text>
<polyline fill="none" stroke="black" points="138,-1006 258,-1006 "/>
<text text-anchor="middle" x="198" y="-993.9" font-family="Helvetica,sans-Serif" font-size="9.00"> </text>
<polyline fill="none" stroke="black" points="138,-985 258,-985 "/>
<text text-anchor="start" x="146" y="-972.9" font-family="Helvetica,sans-Serif" font-size="9.00">+ inspect()</text>
</a>
</g>
<!-- Node4&#45;&gt;Node2 -->
<g id="edge6" class="edge"><title>Node4&#45;&gt;Node2</title>
<path fill="none" stroke="midnightblue" d="M197.072,-953.211C195.662,-879.072 193.008,-739.57 191.728,-672.255"/>
<polygon fill="none" stroke="midnightblue" points="193.581,-953.727 197.271,-963.659 200.58,-953.594 193.581,-953.727"/>
</g>
<!-- Node5 -->
<g id="node8" class="node"><title>Node5</title>
<a xlink:href="../../d3/d65/a00154.htm" target="_top" xlink:title="car interface for defining the car structure ">
<polygon fill="none" stroke="black" points="269,-537.5 269,-730.5 439,-730.5 439,-537.5 269,-537.5"/>
<text text-anchor="middle" x="354" y="-718.4" font-family="Helvetica,sans-Serif" font-size="9.00">de.tu_clausthal.in.mec.object.car.ICar</text>
<polyline fill="none" stroke="black" points="269,-709.5 439,-709.5 "/>
<text text-anchor="middle" x="354" y="-697.4" font-family="Helvetica,sans-Serif" font-size="9.00"> </text>
<polyline fill="none" stroke="black" points="269,-688.5 439,-688.5 "/>
<text text-anchor="start" x="277" y="-676.4" font-family="Helvetica,sans-Serif" font-size="9.00">+ getAcceleration()</text>
<text text-anchor="start" x="277" y="-663.4" font-family="Helvetica,sans-Serif" font-size="9.00">+ getCurrentSpeed()</text>
<text text-anchor="start" x="277" y="-650.4" font-family="Helvetica,sans-Serif" font-size="9.00">+ getDeceleration()</text>
<text text-anchor="start" x="277" y="-637.4" font-family="Helvetica,sans-Serif" font-size="9.00">+ getEdge()</text>
<text text-anchor="start" x="277" y="-624.4" font-family="Helvetica,sans-Serif" font-size="9.00">+ getGeoposition()</text>
<text text-anchor="start" x="277" y="-611.4" font-family="Helvetica,sans-Serif" font-size="9.00">+ getLingerProbability()</text>
<text text-anchor="start" x="277" y="-598.4" font-family="Helvetica,sans-Serif" font-size="9.00">+ getMaximumSpeed()</text>
<text text-anchor="start" x="277" y="-585.4" font-family="Helvetica,sans-Serif" font-size="9.00">+ getPredecessor()</text>
<text text-anchor="start" x="277" y="-572.4" font-family="Helvetica,sans-Serif" font-size="9.00">+ getPredecessor()</text>
<text text-anchor="start" x="277" y="-559.4" font-family="Helvetica,sans-Serif" font-size="9.00">+ hasEndReached()</text>
<text text-anchor="start" x="277" y="-546.4" font-family="Helvetica,sans-Serif" font-size="9.00">+ setCurrentSpeed()</text>
</a>
</g>
<!-- Node5&#45;&gt;Node1 -->
<g id="edge8" class="edge"><title>Node5&#45;&gt;Node1</title>
<path fill="none" stroke="midnightblue" d="M354,-527.085C354,-512.022 354,-496.063 354,-479.691"/>
<polygon fill="none" stroke="midnightblue" points="350.5,-527.365 354,-537.365 357.5,-527.365 350.5,-527.365"/>
</g>
<!-- Node6 -->
<g id="node10" class="node"><title>Node6</title>
<a xlink:href="../../de/db1/a00197.htm" target="_top" xlink:title="interface of void&#45;step method ">
<polygon fill="none" stroke="black" points="278.5,-964 278.5,-1040 421.5,-1040 421.5,-964 278.5,-964"/>
<text text-anchor="start" x="286.5" y="-1027.9" font-family="Helvetica,sans-Serif" font-size="9.00">de.tu_clausthal.in.mec.runtime.</text>
<text text-anchor="middle" x="350" y="-1014.9" font-family="Helvetica,sans-Serif" font-size="9.00">IVoidSteppable</text>
<polyline fill="none" stroke="black" points="278.5,-1006 421.5,-1006 "/>
<text text-anchor="middle" x="350" y="-993.9" font-family="Helvetica,sans-Serif" font-size="9.00"> </text>
<polyline fill="none" stroke="black" points="278.5,-985 421.5,-985 "/>
<text text-anchor="start" x="286.5" y="-972.9" font-family="Helvetica,sans-Serif" font-size="9.00">+ step()</text>
</a>
</g>
<!-- Node6&#45;&gt;Node5 -->
<g id="edge10" class="edge"><title>Node6&#45;&gt;Node5</title>
<path fill="none" stroke="midnightblue" d="M350.526,-953.574C351.14,-897.1 352.17,-802.351 352.949,-730.647"/>
<polygon fill="none" stroke="midnightblue" points="347.026,-953.621 350.417,-963.659 354.025,-953.698 347.026,-953.621"/>
</g>
<!-- Node7 -->
<g id="node12" class="node"><title>Node7</title>
<a xlink:href="../../da/d15/a00188.htm" target="_top" xlink:title="interface for all objects which are triggered by the simulation worker ">
<polygon fill="none" stroke="black" points="266.5,-1267 266.5,-1343 409.5,-1343 409.5,-1267 266.5,-1267"/>
<text text-anchor="start" x="274.5" y="-1330.9" font-family="Helvetica,sans-Serif" font-size="9.00">de.tu_clausthal.in.mec.runtime.</text>
<text text-anchor="middle" x="338" y="-1317.9" font-family="Helvetica,sans-Serif" font-size="9.00">ISteppable</text>
<polyline fill="none" stroke="black" points="266.5,-1309 409.5,-1309 "/>
<text text-anchor="middle" x="338" y="-1296.9" font-family="Helvetica,sans-Serif" font-size="9.00"> </text>
<polyline fill="none" stroke="black" points="266.5,-1288 409.5,-1288 "/>
<text text-anchor="start" x="274.5" y="-1275.9" font-family="Helvetica,sans-Serif" font-size="9.00">+ release()</text>
</a>
</g>
<!-- Node7&#45;&gt;Node6 -->
<g id="edge12" class="edge"><title>Node7&#45;&gt;Node6</title>
<path fill="none" stroke="midnightblue" d="M339.904,-1256.94C342.284,-1196.84 346.309,-1095.19 348.489,-1040.15"/>
<polygon fill="none" stroke="midnightblue" points="336.406,-1256.8 339.508,-1266.93 343.401,-1257.08 336.406,-1256.8"/>
</g>
<!-- Node8 -->
<g id="node14" class="node"><title>Node8</title>
<a xlink:href="../../d6/d5b/a00026.htm" target="_top" xlink:title="defines the layer for cars ">
<polygon fill="none" stroke="black" points="561,-531 561,-737 713,-737 713,-531 561,-531"/>
<text text-anchor="start" x="569" y="-724.9" font-family="Helvetica,sans-Serif" font-size="9.00">de.tu_clausthal.in.mec.object.car.</text>
<text text-anchor="middle" x="637" y="-711.9" font-family="Helvetica,sans-Serif" font-size="9.00">CCarLayer</text>
<polyline fill="none" stroke="black" points="561,-703 713,-703 "/>
<text text-anchor="start" x="569" y="-690.9" font-family="Helvetica,sans-Serif" font-size="9.00">&#45; m_data</text>
<polyline fill="none" stroke="black" points="561,-682 713,-682 "/>
<text text-anchor="start" x="569" y="-669.9" font-family="Helvetica,sans-Serif" font-size="9.00">+ afterStepObject()</text>
<text text-anchor="start" x="569" y="-656.9" font-family="Helvetica,sans-Serif" font-size="9.00">+ beforeStepObject()</text>
<text text-anchor="start" x="569" y="-643.9" font-family="Helvetica,sans-Serif" font-size="9.00">+ getCalculationIndex()</text>
<text text-anchor="start" x="569" y="-630.9" font-family="Helvetica,sans-Serif" font-size="9.00">+ getDrivingModel()</text>
<text text-anchor="start" x="569" y="-617.9" font-family="Helvetica,sans-Serif" font-size="9.00">+ getGraph()</text>
<text text-anchor="start" x="569" y="-604.9" font-family="Helvetica,sans-Serif" font-size="9.00">+ getUnitConvert()</text>
<text text-anchor="start" x="569" y="-591.9" font-family="Helvetica,sans-Serif" font-size="9.00">+ push()</text>
<text text-anchor="start" x="569" y="-578.9" font-family="Helvetica,sans-Serif" font-size="9.00">+ release()</text>
<text text-anchor="start" x="569" y="-565.9" font-family="Helvetica,sans-Serif" font-size="9.00">+ setDriveModel()</text>
<text text-anchor="start" x="569" y="-552.9" font-family="Helvetica,sans-Serif" font-size="9.00">+ step()</text>
<text text-anchor="start" x="569" y="-539.9" font-family="Helvetica,sans-Serif" font-size="9.00">+ toString()</text>
</a>
</g>
<!-- Node8&#45;&gt;Node1 -->
<g id="edge14" class="edge"><title>Node8&#45;&gt;Node1</title>
<path fill="none" stroke="#404040" d="M563.015,-530.996C524.391,-477.223 477.002,-411.246 437.117,-355.718"/>
<polygon fill="none" stroke="#404040" points="437.018,-355.58 430.269,-353.04 430.018,-345.834 436.767,-348.373 437.018,-355.58"/>
<text text-anchor="middle" x="566.5" y="-503.4" font-family="Helvetica,sans-Serif" font-size="9.00"> #m_layer</text>
</g>
<!-- Node9 -->
<g id="node16" class="node"><title>Node9</title>
<a xlink:href="../../d2/df5/a00137.htm" target="_top" xlink:title="enum for representating a driving model ">
<polygon fill="none" stroke="black" points="445,-938 445,-1066 597,-1066 597,-938 445,-938"/>
<text text-anchor="start" x="453" y="-1053.9" font-family="Helvetica,sans-Serif" font-size="9.00">de.tu_clausthal.in.mec.object.car.</text>
<text text-anchor="middle" x="521" y="-1040.9" font-family="Helvetica,sans-Serif" font-size="9.00">CCarLayer.EDrivingModel</text>
<polyline fill="none" stroke="black" points="445,-1032 597,-1032 "/>
<text text-anchor="start" x="453" y="-1019.9" font-family="Helvetica,sans-Serif" font-size="9.00">+ AgentNagelSchreckenberg</text>
<text text-anchor="start" x="453" y="-1006.9" font-family="Helvetica,sans-Serif" font-size="9.00">+ NagelSchreckenberg</text>
<text text-anchor="start" x="453" y="-993.9" font-family="Helvetica,sans-Serif" font-size="9.00">&#45; m_text</text>
<polyline fill="none" stroke="black" points="445,-985 597,-985 "/>
<text text-anchor="start" x="453" y="-972.9" font-family="Helvetica,sans-Serif" font-size="9.00">+ EDrivingModel()</text>
<text text-anchor="start" x="453" y="-959.9" font-family="Helvetica,sans-Serif" font-size="9.00">+ getModel()</text>
<text text-anchor="start" x="453" y="-946.9" font-family="Helvetica,sans-Serif" font-size="9.00">+ toString()</text>
</a>
</g>
<!-- Node9&#45;&gt;Node8 -->
<g id="edge16" class="edge"><title>Node9&#45;&gt;Node8</title>
<path fill="none" stroke="#404040" d="M538.58,-937.957C552.542,-888.115 572.983,-817.341 593,-756 593.791,-753.575 594.599,-751.126 595.419,-748.66"/>
<polygon fill="none" stroke="#404040" points="595.511,-748.387 593.637,-741.424 599.344,-737.016 601.218,-743.979 595.511,-748.387"/>
<text text-anchor="middle" x="625" y="-761.4" font-family="Helvetica,sans-Serif" font-size="9.00"> &#45;m_drivemodel</text>
</g>
<!-- Node10 -->
<g id="node18" class="node"><title>Node10</title>
<a xlink:href="../../de/d38/a00160.htm" target="_top" xlink:title="drive interface for driving models ">
<polygon fill="none" stroke="black" points="427,-1267 427,-1343 627,-1343 627,-1267 427,-1267"/>
<text text-anchor="start" x="435" y="-1330.9" font-family="Helvetica,sans-Serif" font-size="9.00">de.tu_clausthal.in.mec.object.car.drivemodel.</text>
<text text-anchor="middle" x="527" y="-1317.9" font-family="Helvetica,sans-Serif" font-size="9.00">IDriveModel</text>
<polyline fill="none" stroke="black" points="427,-1309 627,-1309 "/>
<text text-anchor="middle" x="527" y="-1296.9" font-family="Helvetica,sans-Serif" font-size="9.00"> </text>
<polyline fill="none" stroke="black" points="427,-1288 627,-1288 "/>
<text text-anchor="start" x="435" y="-1275.9" font-family="Helvetica,sans-Serif" font-size="9.00">+ update()</text>
</a>
</g>
<!-- Node10&#45;&gt;Node9 -->
<g id="edge18" class="edge"><title>Node10&#45;&gt;Node9</title>
<path fill="none" stroke="#404040" d="M526.246,-1266.93C525.313,-1219.79 523.701,-1138.38 522.509,-1078.21"/>
<polygon fill="none" stroke="#404040" points="522.507,-1078.09 518.389,-1072.17 522.269,-1066.09 526.387,-1072.01 522.507,-1078.09"/>
<text text-anchor="middle" x="548" y="-1239.4" font-family="Helvetica,sans-Serif" font-size="9.00"> &#45;m_model</text>
</g>
<!-- Node11 -->
<g id="node20" class="node"><title>Node11</title>
<a xlink:href="../../dc/dee/a00053.htm" target="_top" xlink:title="class for create a graph structure of OSM data, the class downloads the data and creates edges and ve...">
<polygon fill="none" stroke="black" points="614.5,-788.5 614.5,-1215.5 793.5,-1215.5 793.5,-788.5 614.5,-788.5"/>
<text text-anchor="start" x="622.5" y="-1203.4" font-family="Helvetica,sans-Serif" font-size="9.00">de.tu_clausthal.in.mec.object.car.graph.</text>
<text text-anchor="middle" x="704" y="-1190.4" font-family="Helvetica,sans-Serif" font-size="9.00">CGraphHopper</text>
<polyline fill="none" stroke="black" points="614.5,-1181.5 793.5,-1181.5 "/>
<text text-anchor="start" x="622.5" y="-1169.4" font-family="Helvetica,sans-Serif" font-size="9.00">&#45; m_cellsize</text>
<text text-anchor="start" x="622.5" y="-1156.4" font-family="Helvetica,sans-Serif" font-size="9.00">&#45; m_edgecell</text>
<text text-anchor="start" x="622.5" y="-1143.4" font-family="Helvetica,sans-Serif" font-size="9.00">&#45; m_edgelister</text>
<text text-anchor="start" x="622.5" y="-1130.4" font-family="Helvetica,sans-Serif" font-size="9.00">&#45; m_weights</text>
<text text-anchor="start" x="622.5" y="-1117.4" font-family="Helvetica,sans-Serif" font-size="9.00">&#45; c_defaultflagencoding</text>
<polyline fill="none" stroke="black" points="614.5,-1108.5 793.5,-1108.5 "/>
<text text-anchor="start" x="622.5" y="-1096.4" font-family="Helvetica,sans-Serif" font-size="9.00">+ CGraphHopper()</text>
<text text-anchor="start" x="622.5" y="-1083.4" font-family="Helvetica,sans-Serif" font-size="9.00">+ CGraphHopper()</text>
<text text-anchor="start" x="622.5" y="-1070.4" font-family="Helvetica,sans-Serif" font-size="9.00">+ addEdgeListener()</text>
<text text-anchor="start" x="622.5" y="-1057.4" font-family="Helvetica,sans-Serif" font-size="9.00">+ clear()</text>
<text text-anchor="start" x="622.5" y="-1044.4" font-family="Helvetica,sans-Serif" font-size="9.00">+ createWeighting()</text>
<text text-anchor="start" x="622.5" y="-1031.4" font-family="Helvetica,sans-Serif" font-size="9.00">+ existWeight()</text>
<text text-anchor="start" x="622.5" y="-1018.4" font-family="Helvetica,sans-Serif" font-size="9.00">+ getClosestEdge()</text>
<text text-anchor="start" x="622.5" y="-1005.4" font-family="Helvetica,sans-Serif" font-size="9.00">+ getClosestNode()</text>
<text text-anchor="start" x="622.5" y="-992.4" font-family="Helvetica,sans-Serif" font-size="9.00">+ getEdge()</text>
<text text-anchor="start" x="622.5" y="-979.4" font-family="Helvetica,sans-Serif" font-size="9.00">+ getEdgeCollection()</text>
<text text-anchor="start" x="622.5" y="-966.4" font-family="Helvetica,sans-Serif" font-size="9.00">+ getEdgeIterator()</text>
<text text-anchor="start" x="622.5" y="-953.4" font-family="Helvetica,sans-Serif" font-size="9.00">+ getEdgeSpeed()</text>
<text text-anchor="start" x="622.5" y="-940.4" font-family="Helvetica,sans-Serif" font-size="9.00">+ getNumberOfObjects()</text>
<text text-anchor="start" x="622.5" y="-927.4" font-family="Helvetica,sans-Serif" font-size="9.00">+ getRouteCells()</text>
<text text-anchor="start" x="622.5" y="-914.4" font-family="Helvetica,sans-Serif" font-size="9.00">+ getRoutes()</text>
<text text-anchor="start" x="622.5" y="-901.4" font-family="Helvetica,sans-Serif" font-size="9.00">+ getRoutes()</text>
<text text-anchor="start" x="622.5" y="-888.4" font-family="Helvetica,sans-Serif" font-size="9.00">+ getRoutes()</text>
<text text-anchor="start" x="622.5" y="-875.4" font-family="Helvetica,sans-Serif" font-size="9.00">+ getRoutes()</text>
<text text-anchor="start" x="622.5" y="-862.4" font-family="Helvetica,sans-Serif" font-size="9.00">+ getWeight()</text>
<text text-anchor="start" x="622.5" y="-849.4" font-family="Helvetica,sans-Serif" font-size="9.00">+ deleteGraph()</text>
<text text-anchor="start" x="622.5" y="-836.4" font-family="Helvetica,sans-Serif" font-size="9.00">&#45; downloadGraphAndLoad()</text>
<text text-anchor="start" x="622.5" y="-823.4" font-family="Helvetica,sans-Serif" font-size="9.00">&#45; downloadOSMData()</text>
<text text-anchor="start" x="622.5" y="-810.4" font-family="Helvetica,sans-Serif" font-size="9.00">&#45; getCurrentGraph()</text>
<text text-anchor="start" x="622.5" y="-797.4" font-family="Helvetica,sans-Serif" font-size="9.00">&#45; getGraphLocation()</text>
</a>
</g>
<!-- Node11&#45;&gt;Node8 -->
<g id="edge20" class="edge"><title>Node11&#45;&gt;Node8</title>
<path fill="none" stroke="#404040" d="M665.123,-788.466C662.673,-775.01 660.263,-761.771 657.946,-749.046"/>
<polygon fill="none" stroke="#404040" points="657.905,-748.819 652.895,-743.633 655.755,-737.013 660.765,-742.2 657.905,-748.819"/>
<text text-anchor="middle" x="682.5" y="-761.4" font-family="Helvetica,sans-Serif" font-size="9.00"> &#45;m_graph</text>
</g>
<!-- Node12 -->
<g id="node22" class="node"><title>Node12</title>
<a xlink:href="../../d4/d98/a00120.htm" target="_top" xlink:title="converting driving units ">
<polygon fill="none" stroke="black" points="811,-873 811,-1131 963,-1131 963,-873 811,-873"/>
<text text-anchor="start" x="819" y="-1118.9" font-family="Helvetica,sans-Serif" font-size="9.00">de.tu_clausthal.in.mec.object.car.</text>
<text text-anchor="middle" x="887" y="-1105.9" font-family="Helvetica,sans-Serif" font-size="9.00">CUnitConvert</text>
<polyline fill="none" stroke="black" points="811,-1097 963,-1097 "/>
<text text-anchor="start" x="819" y="-1084.9" font-family="Helvetica,sans-Serif" font-size="9.00">&#45; m_cellsize</text>
<text text-anchor="start" x="819" y="-1071.9" font-family="Helvetica,sans-Serif" font-size="9.00">&#45; m_celltimestep</text>
<text text-anchor="start" x="819" y="-1058.9" font-family="Helvetica,sans-Serif" font-size="9.00">&#45; m_distancetimestep</text>
<text text-anchor="start" x="819" y="-1045.9" font-family="Helvetica,sans-Serif" font-size="9.00">&#45; m_timestep</text>
<text text-anchor="start" x="819" y="-1032.9" font-family="Helvetica,sans-Serif" font-size="9.00">&#45; c_kmhInMs</text>
<text text-anchor="start" x="819" y="-1019.9" font-family="Helvetica,sans-Serif" font-size="9.00">&#45; c_MsInKmh</text>
<polyline fill="none" stroke="black" points="811,-1011 963,-1011 "/>
<text text-anchor="start" x="819" y="-998.9" font-family="Helvetica,sans-Serif" font-size="9.00">+ getAccelerationToSpeed()</text>
<text text-anchor="start" x="819" y="-985.9" font-family="Helvetica,sans-Serif" font-size="9.00">+ getCellSize()</text>
<text text-anchor="start" x="819" y="-972.9" font-family="Helvetica,sans-Serif" font-size="9.00">+ getCellToKiloMeter()</text>
<text text-anchor="start" x="819" y="-959.9" font-family="Helvetica,sans-Serif" font-size="9.00">+ getCellToMeter()</text>
<text text-anchor="start" x="819" y="-946.9" font-family="Helvetica,sans-Serif" font-size="9.00">+ getSpeedOfDistance()</text>
<text text-anchor="start" x="819" y="-933.9" font-family="Helvetica,sans-Serif" font-size="9.00">+ getSpeedToCell()</text>
<text text-anchor="start" x="819" y="-920.9" font-family="Helvetica,sans-Serif" font-size="9.00">+ getSpeedToDistance()</text>
<text text-anchor="start" x="819" y="-907.9" font-family="Helvetica,sans-Serif" font-size="9.00">+ getTime()</text>
<text text-anchor="start" x="819" y="-894.9" font-family="Helvetica,sans-Serif" font-size="9.00">+ getTime()</text>
<text text-anchor="start" x="819" y="-881.9" font-family="Helvetica,sans-Serif" font-size="9.00">+ getTimeInMinutes()</text>
</a>
</g>
<!-- Node12&#45;&gt;Node8 -->
<g id="edge22" class="edge"><title>Node12&#45;&gt;Node8</title>
<path fill="none" stroke="#404040" d="M846.362,-872.845C834.338,-843.68 819.58,-813.753 802,-788 780.072,-755.877 750.343,-725.513 722.16,-700.373"/>
<polygon fill="none" stroke="#404040" points="722.094,-700.315 714.946,-699.363 713.075,-692.399 720.223,-693.351 722.094,-700.315"/>
<text text-anchor="middle" x="805" y="-761.4" font-family="Helvetica,sans-Serif" font-size="9.00"> &#45;m_unit</text>
</g>
</g>
</svg>
