<?xml version="1.0" encoding="UTF-8" standalone="no"?>
<!DOCTYPE svg PUBLIC "-//W3C//DTD SVG 1.1//EN"
 "http://www.w3.org/Graphics/SVG/1.1/DTD/svg11.dtd">
<!-- Generated by graphviz version 2.26.3 (20100126.1600)
 -->
<!-- Title: de.tu_clausthal.in.mec.object.waypoint.factory.IFactory&lt; T &gt; Pages: 1 -->
<svg width="214pt" height="200pt"
 viewBox="0.00 0.00 214.00 200.00" xmlns="http://www.w3.org/2000/svg" xmlns:xlink="http://www.w3.org/1999/xlink">
<g id="graph1" class="graph" transform="scale(1 1) rotate(0) translate(4 196)">
<title>de.tu_clausthal.in.mec.object.waypoint.factory.IFactory&lt; T &gt;</title>
<!-- Node1 -->
<g id="node1" class="node"><title>Node1</title>
<polygon fill="#bfbfbf" stroke="black" points="0,-1 0,-77 206,-77 206,-1 0,-1"/>
<text text-anchor="start" x="8" y="-64.9" font-family="Helvetica,sans-Serif" font-size="9.00">de.tu_clausthal.in.mec.object.waypoint.factory.</text>
<text text-anchor="middle" x="103" y="-51.9" font-family="Helvetica,sans-Serif" font-size="9.00">IFactory&lt; T &gt;</text>
<polyline fill="none" stroke="black" points="0,-43 206,-43 "/>
<text text-anchor="middle" x="103" y="-30.9" font-family="Helvetica,sans-Serif" font-size="9.00"> </text>
<polyline fill="none" stroke="black" points="0,-22 206,-22 "/>
<text text-anchor="start" x="8" y="-9.9" font-family="Helvetica,sans-Serif" font-size="9.00">+ generate()</text>
</g>
<!-- Node2 -->
<g id="node2" class="node"><title>Node2</title>
<a xlink:href="../../d9/d38/a00166.htm" target="_top" xlink:title="global interface to read information about a simulation object ">
<polygon fill="none" stroke="black" points="43,-115 43,-191 163,-191 163,-115 43,-115"/>
<text text-anchor="start" x="51" y="-178.9" font-family="Helvetica,sans-Serif" font-size="9.00">de.tu_clausthal.in.mec.ui.</text>
<text text-anchor="middle" x="103" y="-165.9" font-family="Helvetica,sans-Serif" font-size="9.00">IInspector</text>
<polyline fill="none" stroke="black" points="43,-157 163,-157 "/>
<text text-anchor="middle" x="103" y="-144.9" font-family="Helvetica,sans-Serif" font-size="9.00"> </text>
<polyline fill="none" stroke="black" points="43,-136 163,-136 "/>
<text text-anchor="start" x="51" y="-123.9" font-family="Helvetica,sans-Serif" font-size="9.00">+ inspect()</text>
</a>
</g>
<!-- Node2&#45;&gt;Node1 -->
<g id="edge2" class="edge"><title>Node2&#45;&gt;Node1</title>
<path fill="none" stroke="midnightblue" d="M103,-104.623C103,-95.5202 103,-86.1166 103,-77.3705"/>
<polygon fill="none" stroke="midnightblue" points="99.5001,-104.722 103,-114.723 106.5,-104.723 99.5001,-104.722"/>
</g>
</g>
</svg>
