<?xml version="1.0" encoding="UTF-8" standalone="no"?>
<!DOCTYPE svg PUBLIC "-//W3C//DTD SVG 1.1//EN"
 "http://www.w3.org/Graphics/SVG/1.1/DTD/svg11.dtd">
<!-- Generated by graphviz version 2.26.3 (20100126.1600)
 -->
<!-- Title: de.tu_clausthal.in.mec.object.mas.inconsistency.CInconsistencyLayer&lt; T extends IAgent &gt; Pages: 1 -->
<!--zoomable 842 -->
<svg id="main" version="1.1" xmlns="http://www.w3.org/2000/svg" xmlns:xlink="http://www.w3.org/1999/xlink" xml:space="preserve" onload="init(evt)">
<style type="text/css"><![CDATA[
.edge:hover path { stroke: red; }
.edge:hover polygon { stroke: red; fill: red; }
]]></style>
<script type="text/javascript"><![CDATA[
var edges = document.getElementsByTagName('g');
if (edges && edges.length) {
  for (var i=0;i<edges.length;i++) {
    if (edges[i].id.substr(0,4)=='edge') {
      edges[i].setAttribute('class','edge');
    }
  }
}
]]></script>
        <defs>
                <circle id="rim" cx="0" cy="0" r="7"/>
                <circle id="rim2" cx="0" cy="0" r="3.5"/>
                <g id="zoomPlus">
                        <use xlink:href="#rim" fill="#404040">
                                <set attributeName="fill" to="#808080" begin="zoomplus.mouseover" end="zoomplus.mouseout"/>
                        </use>
                        <path d="M-4,0h8M0,-4v8" fill="none" stroke="white" stroke-width="1.5" pointer-events="none"/>
                </g>
                <g id="zoomMin">
                        <use xlink:href="#rim" fill="#404040">
                                <set attributeName="fill" to="#808080" begin="zoomminus.mouseover" end="zoomminus.mouseout"/>
                        </use>
                        <path d="M-4,0h8" fill="none" stroke="white" stroke-width="1.5" pointer-events="none"/>
                </g>
                <g id="dirArrow">
                        <path fill="none" stroke="white" stroke-width="1.5" d="M0,-3.0v7 M-2.5,-0.5L0,-3.0L2.5,-0.5"/>
                </g>
               <g id="resetDef">
                       <use xlink:href="#rim2" fill="#404040">
                               <set attributeName="fill" to="#808080" begin="reset.mouseover" end="reset.mouseout"/>
                       </use>
               </g>
        </defs>

<script type="text/javascript">
var viewWidth = 304;
var viewHeight = 842;
var sectionId = 'dynsection-0';
</script>
<script xlink:href="../../svgpan.js"/>
<svg id="graph" class="graph">
<g id="viewport">
<title>de.tu_clausthal.in.mec.object.mas.inconsistency.CInconsistencyLayer&lt; T extends IAgent &gt;</title>
<!-- Node1 -->
<g id="node1" class="node"><title>Node1</title>
<polygon fill="#bfbfbf" stroke="black" points="38.5,-1 38.5,-337 253.5,-337 253.5,-1 38.5,-1"/>
<text text-anchor="start" x="46.5" y="-324.9" font-family="Helvetica,sans-Serif" font-size="9.00">de.tu_clausthal.in.mec.object.mas.inconsistency.</text>
<text text-anchor="middle" x="146" y="-311.9" font-family="Helvetica,sans-Serif" font-size="9.00">CInconsistencyLayer&lt; T extends IAgent &gt;</text>
<polyline fill="none" stroke="black" points="38.5,-303 253.5,-303 "/>
<text text-anchor="start" x="46.5" y="-290.9" font-family="Helvetica,sans-Serif" font-size="9.00">&#45; m_algorithm</text>
<text text-anchor="start" x="46.5" y="-277.9" font-family="Helvetica,sans-Serif" font-size="9.00">&#45; m_data</text>
<text text-anchor="start" x="46.5" y="-264.9" font-family="Helvetica,sans-Serif" font-size="9.00">&#45; m_epsilon</text>
<text text-anchor="start" x="46.5" y="-251.9" font-family="Helvetica,sans-Serif" font-size="9.00">&#45; m_iteration</text>
<text text-anchor="start" x="46.5" y="-238.9" font-family="Helvetica,sans-Serif" font-size="9.00">&#45; m_metric</text>
<text text-anchor="start" x="46.5" y="-225.9" font-family="Helvetica,sans-Serif" font-size="9.00">&#45; m_name</text>
<text text-anchor="start" x="46.5" y="-212.9" font-family="Helvetica,sans-Serif" font-size="9.00">&#45; m_updatestep</text>
<text text-anchor="start" x="46.5" y="-199.9" font-family="Helvetica,sans-Serif" font-size="9.00">&#45; c_algebra</text>
<polyline fill="none" stroke="black" points="38.5,-191 253.5,-191 "/>
<text text-anchor="start" x="46.5" y="-178.9" font-family="Helvetica,sans-Serif" font-size="9.00">+ CInconsistencyLayer()</text>
<text text-anchor="start" x="46.5" y="-165.9" font-family="Helvetica,sans-Serif" font-size="9.00">+ CInconsistencyLayer()</text>
<text text-anchor="start" x="46.5" y="-152.9" font-family="Helvetica,sans-Serif" font-size="9.00">+ add()</text>
<text text-anchor="start" x="46.5" y="-139.9" font-family="Helvetica,sans-Serif" font-size="9.00">+ getCalculationIndex()</text>
<text text-anchor="start" x="46.5" y="-126.9" font-family="Helvetica,sans-Serif" font-size="9.00">+ getInconsistencyValue()</text>
<text text-anchor="start" x="46.5" y="-113.9" font-family="Helvetica,sans-Serif" font-size="9.00">+ getMetric()</text>
<text text-anchor="start" x="46.5" y="-100.9" font-family="Helvetica,sans-Serif" font-size="9.00">+ remove()</text>
<text text-anchor="start" x="46.5" y="-87.9" font-family="Helvetica,sans-Serif" font-size="9.00">+ setMetric()</text>
<text text-anchor="start" x="46.5" y="-74.9" font-family="Helvetica,sans-Serif" font-size="9.00">+ step()</text>
<text text-anchor="start" x="46.5" y="-61.9" font-family="Helvetica,sans-Serif" font-size="9.00">+ toString()</text>
<text text-anchor="start" x="46.5" y="-48.9" font-family="Helvetica,sans-Serif" font-size="9.00">&#45; getMetricValue()</text>
<text text-anchor="start" x="46.5" y="-35.9" font-family="Helvetica,sans-Serif" font-size="9.00">&#45; getStationaryDistribution()</text>
<text text-anchor="start" x="46.5" y="-22.9" font-family="Helvetica,sans-Serif" font-size="9.00">&#45; getLargestEigenvector()</text>
<text text-anchor="start" x="46.5" y="-9.9" font-family="Helvetica,sans-Serif" font-size="9.00">&#45; getLargestEigenvector()</text>
</g>
<!-- Node2 -->
<g id="node2" class="node"><title>Node2</title>
<a xlink:href="../../d8/d00/a00186.htm" target="_top" xlink:title="layer for any calculation atomic task without visibility ">
<polygon fill="none" stroke="black" points="77.5,-374.5 77.5,-541.5 214.5,-541.5 214.5,-374.5 77.5,-374.5"/>
<text text-anchor="start" x="85.5" y="-529.4" font-family="Helvetica,sans-Serif" font-size="9.00">de.tu_clausthal.in.mec.object.</text>
<text text-anchor="middle" x="146" y="-516.4" font-family="Helvetica,sans-Serif" font-size="9.00">ISingleEvaluateLayer</text>
<polyline fill="none" stroke="black" points="77.5,-507.5 214.5,-507.5 "/>
<text text-anchor="start" x="85.5" y="-495.4" font-family="Helvetica,sans-Serif" font-size="9.00"># m_active</text>
<polyline fill="none" stroke="black" points="77.5,-486.5 214.5,-486.5 "/>
<text text-anchor="start" x="85.5" y="-474.4" font-family="Helvetica,sans-Serif" font-size="9.00">+ getCalculationIndex()</text>
<text text-anchor="start" x="85.5" y="-461.4" font-family="Helvetica,sans-Serif" font-size="9.00">+ isActive()</text>
<text text-anchor="start" x="85.5" y="-448.4" font-family="Helvetica,sans-Serif" font-size="9.00">+ onSimulationReset()</text>
<text text-anchor="start" x="85.5" y="-435.4" font-family="Helvetica,sans-Serif" font-size="9.00">+ onSimulationStart()</text>
<text text-anchor="start" x="85.5" y="-422.4" font-family="Helvetica,sans-Serif" font-size="9.00">+ onSimulationStop()</text>
<text text-anchor="start" x="85.5" y="-409.4" font-family="Helvetica,sans-Serif" font-size="9.00">+ release()</text>
<text text-anchor="start" x="85.5" y="-396.4" font-family="Helvetica,sans-Serif" font-size="9.00">+ setActive()</text>
<text text-anchor="start" x="85.5" y="-383.4" font-family="Helvetica,sans-Serif" font-size="9.00">+ step()</text>
</a>
</g>
<!-- Node2&#45;&gt;Node1 -->
<g id="edge2" class="edge"><title>Node2&#45;&gt;Node1</title>
<path fill="none" stroke="midnightblue" d="M146,-364.201C146,-355.384 146,-346.279 146,-337.042"/>
<polygon fill="none" stroke="midnightblue" points="142.5,-364.409 146,-374.409 149.5,-364.409 142.5,-364.409"/>
</g>
<!-- Node3 -->
<g id="node4" class="node"><title>Node3</title>
<a xlink:href="../../dd/da7/a00168.htm" target="_top" xlink:title="interface of the layer ">
<polygon fill="none" stroke="black" points="-0.5,-578.5 -0.5,-719.5 136.5,-719.5 136.5,-578.5 -0.5,-578.5"/>
<text text-anchor="start" x="7.5" y="-707.4" font-family="Helvetica,sans-Serif" font-size="9.00">de.tu_clausthal.in.mec.object.</text>
<text text-anchor="middle" x="68" y="-694.4" font-family="Helvetica,sans-Serif" font-size="9.00">ILayer</text>
<polyline fill="none" stroke="black" points="-0.5,-685.5 136.5,-685.5 "/>
<text text-anchor="middle" x="68" y="-673.4" font-family="Helvetica,sans-Serif" font-size="9.00"> </text>
<polyline fill="none" stroke="black" points="-0.5,-664.5 136.5,-664.5 "/>
<text text-anchor="start" x="7.5" y="-652.4" font-family="Helvetica,sans-Serif" font-size="9.00">+ getCalculationIndex()</text>
<text text-anchor="start" x="7.5" y="-639.4" font-family="Helvetica,sans-Serif" font-size="9.00">+ isActive()</text>
<text text-anchor="start" x="7.5" y="-626.4" font-family="Helvetica,sans-Serif" font-size="9.00">+ onSimulationReset()</text>
<text text-anchor="start" x="7.5" y="-613.4" font-family="Helvetica,sans-Serif" font-size="9.00">+ onSimulationStart()</text>
<text text-anchor="start" x="7.5" y="-600.4" font-family="Helvetica,sans-Serif" font-size="9.00">+ onSimulationStop()</text>
<text text-anchor="start" x="7.5" y="-587.4" font-family="Helvetica,sans-Serif" font-size="9.00">+ setActive()</text>
</a>
</g>
<!-- Node3&#45;&gt;Node2 -->
<g id="edge4" class="edge"><title>Node3&#45;&gt;Node2</title>
<path fill="none" stroke="midnightblue" d="M100.656,-569.035C104.367,-559.948 108.157,-550.668 111.886,-541.536"/>
<polygon fill="none" stroke="midnightblue" points="97.3632,-567.84 96.8227,-578.421 103.844,-570.487 97.3632,-567.84"/>
</g>
<!-- Node4 -->
<g id="node6" class="node"><title>Node4</title>
<a xlink:href="../../da/d15/a00188.htm" target="_top" xlink:title="interface for all objects which are triggered by the simulation worker ">
<polygon fill="none" stroke="black" points="74.5,-757 74.5,-833 217.5,-833 217.5,-757 74.5,-757"/>
<text text-anchor="start" x="82.5" y="-820.9" font-family="Helvetica,sans-Serif" font-size="9.00">de.tu_clausthal.in.mec.runtime.</text>
<text text-anchor="middle" x="146" y="-807.9" font-family="Helvetica,sans-Serif" font-size="9.00">ISteppable</text>
<polyline fill="none" stroke="black" points="74.5,-799 217.5,-799 "/>
<text text-anchor="middle" x="146" y="-786.9" font-family="Helvetica,sans-Serif" font-size="9.00"> </text>
<polyline fill="none" stroke="black" points="74.5,-778 217.5,-778 "/>
<text text-anchor="start" x="82.5" y="-765.9" font-family="Helvetica,sans-Serif" font-size="9.00">+ release()</text>
</a>
</g>
<!-- Node4&#45;&gt;Node3 -->
<g id="edge6" class="edge"><title>Node4&#45;&gt;Node3</title>
<path fill="none" stroke="midnightblue" d="M120.651,-747.553C115.87,-738.603 110.775,-729.066 105.709,-719.584"/>
<polygon fill="none" stroke="midnightblue" points="117.707,-749.469 125.506,-756.64 123.881,-746.171 117.707,-749.469"/>
</g>
<!-- Node5 -->
<g id="node8" class="node"><title>Node5</title>
<a xlink:href="../../de/db1/a00197.htm" target="_top" xlink:title="interface of void&#45;step method ">
<polygon fill="none" stroke="black" points="153.5,-611 153.5,-687 296.5,-687 296.5,-611 153.5,-611"/>
<text text-anchor="start" x="161.5" y="-674.9" font-family="Helvetica,sans-Serif" font-size="9.00">de.tu_clausthal.in.mec.runtime.</text>
<text text-anchor="middle" x="225" y="-661.9" font-family="Helvetica,sans-Serif" font-size="9.00">IVoidSteppable</text>
<polyline fill="none" stroke="black" points="153.5,-653 296.5,-653 "/>
<text text-anchor="middle" x="225" y="-640.9" font-family="Helvetica,sans-Serif" font-size="9.00"> </text>
<polyline fill="none" stroke="black" points="153.5,-632 296.5,-632 "/>
<text text-anchor="start" x="161.5" y="-619.9" font-family="Helvetica,sans-Serif" font-size="9.00">+ step()</text>
</a>
</g>
<!-- Node4&#45;&gt;Node5 -->
<g id="edge10" class="edge"><title>Node4&#45;&gt;Node5</title>
<path fill="none" stroke="midnightblue" d="M171.519,-747.839C182.15,-728.192 194.332,-705.677 204.382,-687.104"/>
<polygon fill="none" stroke="midnightblue" points="168.437,-746.18 166.756,-756.64 174.594,-749.511 168.437,-746.18"/>
</g>
<!-- Node5&#45;&gt;Node2 -->
<g id="edge8" class="edge"><title>Node5&#45;&gt;Node2</title>
<path fill="none" stroke="midnightblue" d="M205.191,-601.106C197.716,-583.035 188.977,-561.908 180.545,-541.52"/>
<polygon fill="none" stroke="midnightblue" points="202.147,-602.904 209.203,-610.807 208.615,-600.229 202.147,-602.904"/>
</g>
</g>
</svg>
        <g id="navigator" transform="translate(0 0)" fill="#404254">
                <rect fill="#f2f5e9" fill-opacity="0.5" stroke="#606060" stroke-width=".5" x="0" y="0" width="60" height="60"/>
                <use id="zoomplus" xlink:href="#zoomPlus" x="17" y="9" onmousedown="handleZoom(evt,'in')"/>
                <use id="zoomminus" xlink:href="#zoomMin" x="42" y="9" onmousedown="handleZoom(evt,'out')"/>
                <use id="reset" xlink:href="#resetDef" x="30" y="36" onmousedown="handleReset()"/>
                <g id="arrowUp" xlink:href="#dirArrow" transform="translate(30 24)" onmousedown="handlePan(0,-1)">
                  <use xlink:href="#rim" fill="#404040">
                        <set attributeName="fill" to="#808080" begin="arrowUp.mouseover" end="arrowUp.mouseout"/>
                  </use>
                  <path fill="none" stroke="white" stroke-width="1.5" d="M0,-3.0v7 M-2.5,-0.5L0,-3.0L2.5,-0.5"/>
                </g>
                <g id="arrowRight" xlink:href="#dirArrow" transform="rotate(90) translate(36 -43)" onmousedown="handlePan(1,0)">
                  <use xlink:href="#rim" fill="#404040">
                        <set attributeName="fill" to="#808080" begin="arrowRight.mouseover" end="arrowRight.mouseout"/>
                  </use>
                  <path fill="none" stroke="white" stroke-width="1.5" d="M0,-3.0v7 M-2.5,-0.5L0,-3.0L2.5,-0.5"/>
                </g>
                <g id="arrowDown" xlink:href="#dirArrow" transform="rotate(180) translate(-30 -48)" onmousedown="handlePan(0,1)">
                  <use xlink:href="#rim" fill="#404040">
                        <set attributeName="fill" to="#808080" begin="arrowDown.mouseover" end="arrowDown.mouseout"/>
                  </use>
                  <path fill="none" stroke="white" stroke-width="1.5" d="M0,-3.0v7 M-2.5,-0.5L0,-3.0L2.5,-0.5"/>
                </g>
                <g id="arrowLeft" xlink:href="#dirArrow" transform="rotate(270) translate(-36 17)" onmousedown="handlePan(-1,0)">
                  <use xlink:href="#rim" fill="#404040">
                        <set attributeName="fill" to="#808080" begin="arrowLeft.mouseover" end="arrowLeft.mouseout"/>
                  </use>
                  <path fill="none" stroke="white" stroke-width="1.5" d="M0,-3.0v7 M-2.5,-0.5L0,-3.0L2.5,-0.5"/>
                </g>
        </g>
        <svg viewBox="0 0 15 15" width="100%" height="30px" preserveAspectRatio="xMaxYMin meet">
         <g id="arrow_out" transform="scale(0.3 0.3)">
          <a xlink:href="a00664_org.svg" target="_base">
           <rect id="button" ry="5" rx="5" y="6" x="6" height="38" width="38"
                fill="#f2f5e9" fill-opacity="0.5" stroke="#606060" stroke-width="1.0"/>
           <path id="arrow"
             d="M 11.500037,31.436501 C 11.940474,20.09759 22.043105,11.32322 32.158766,21.979434 L 37.068811,17.246167 C 37.068811,17.246167 37.088388,32 37.088388,32 L 22.160133,31.978069 C 22.160133,31.978069 26.997745,27.140456 26.997745,27.140456 C 18.528582,18.264221 13.291696,25.230495 11.500037,31.436501 z"
             style="fill:#404040;"/>
          </a>
         </g>
        </svg>
</svg>
