<?xml version="1.0" encoding="UTF-8" standalone="no"?>
<!DOCTYPE svg PUBLIC "-//W3C//DTD SVG 1.1//EN"
 "http://www.w3.org/Graphics/SVG/1.1/DTD/svg11.dtd">
<!-- Generated by graphviz version 2.26.3 (20100126.1600)
 -->
<!-- Title: de.tu_clausthal.in.mec.ui.IUIListener.mousePressed Pages: 1 -->
<svg width="314pt" height="94pt"
 viewBox="0.00 0.00 314.00 94.00" xmlns="http://www.w3.org/2000/svg" xmlns:xlink="http://www.w3.org/1999/xlink">
<g id="graph1" class="graph" transform="scale(1 1) rotate(0) translate(4 90)">
<title>de.tu_clausthal.in.mec.ui.IUIListener.mousePressed</title>
<!-- Node1 -->
<g id="node1" class="node"><title>Node1</title>
<polygon fill="#bfbfbf" stroke="black" points="0.5,-26 0.5,-60 125.5,-60 125.5,-26 0.5,-26"/>
<text text-anchor="start" x="8.5" y="-47.9" font-family="Helvetica,sans-Serif" font-size="9.00">de.tu_clausthal.in.mec.ui.</text>
<text text-anchor="middle" x="63" y="-34.9" font-family="Helvetica,sans-Serif" font-size="9.00">IUIListener.mousePressed</text>
</g>
<!-- Node2 -->
<g id="node3" class="node"><title>Node2</title>
<a xlink:href="../../d0/d61/a00100.htm#a2f84b4ec6605cc18ae204b812d7884ec" target="_top" xlink:title="returns the singelton instance ">
<polygon fill="none" stroke="black" points="162.5,-52 162.5,-86 305.5,-86 305.5,-52 162.5,-52"/>
<text text-anchor="start" x="170.5" y="-73.9" font-family="Helvetica,sans-Serif" font-size="9.00">de.tu_clausthal.in.mec.runtime.</text>
<text text-anchor="middle" x="234" y="-60.9" font-family="Helvetica,sans-Serif" font-size="9.00">CSimulation.getInstance</text>
</a>
</g>
<!-- Node1&#45;&gt;Node2 -->
<g id="edge2" class="edge"><title>Node1&#45;&gt;Node2</title>
<path fill="none" stroke="midnightblue" d="M125.703,-52.5338C134.36,-53.8501 143.353,-55.2175 152.291,-56.5764"/>
<polygon fill="midnightblue" stroke="midnightblue" points="151.925,-60.061 162.338,-58.104 152.978,-53.1405 151.925,-60.061"/>
</g>
<!-- Node3 -->
<g id="node5" class="node"><title>Node3</title>
<a xlink:href="../../dd/df4/a00193.htm#ad734f4f9b5dad5a7ed5042851128a56b" target="_top" xlink:title="click method which is called by a click on the object ">
<polygon fill="none" stroke="black" points="174,-0 174,-34 294,-34 294,-0 174,-0"/>
<text text-anchor="start" x="182" y="-21.9" font-family="Helvetica,sans-Serif" font-size="9.00">de.tu_clausthal.in.mec.ui.</text>
<text text-anchor="middle" x="234" y="-8.9" font-family="Helvetica,sans-Serif" font-size="9.00">IUIListener.onClick</text>
</a>
</g>
<!-- Node1&#45;&gt;Node3 -->
<g id="edge4" class="edge"><title>Node1&#45;&gt;Node3</title>
<path fill="none" stroke="midnightblue" d="M125.703,-33.4662C138.113,-31.5793 151.215,-29.5873 163.853,-27.6656"/>
<polygon fill="midnightblue" stroke="midnightblue" points="164.508,-31.1064 173.868,-26.1429 163.455,-24.186 164.508,-31.1064"/>
</g>
</g>
</svg>
