<?xml version="1.0" encoding="UTF-8" standalone="no"?>
<!DOCTYPE svg PUBLIC "-//W3C//DTD SVG 1.1//EN"
 "http://www.w3.org/Graphics/SVG/1.1/DTD/svg11.dtd">
<!-- Generated by graphviz version 2.26.3 (20100126.1600)
 -->
<!-- Title: de.tu_clausthal.in.mec.runtime.message.IParticipant Pages: 1 -->
<svg width="190pt" height="378pt"
 viewBox="0.00 0.00 190.00 378.00" xmlns="http://www.w3.org/2000/svg" xmlns:xlink="http://www.w3.org/1999/xlink">
<g id="graph1" class="graph" transform="scale(1 1) rotate(0) translate(4 374)">
<title>de.tu_clausthal.in.mec.runtime.message.IParticipant</title>
<!-- Node1 -->
<g id="node1" class="node"><title>Node1</title>
<polygon fill="#bfbfbf" stroke="black" points="-0.5,-167 -0.5,-243 182.5,-243 182.5,-167 -0.5,-167"/>
<text text-anchor="start" x="7.5" y="-230.9" font-family="Helvetica,sans-Serif" font-size="9.00">de.tu_clausthal.in.mec.runtime.message.</text>
<text text-anchor="middle" x="91" y="-217.9" font-family="Helvetica,sans-Serif" font-size="9.00">IParticipant</text>
<polyline fill="none" stroke="black" points="-0.5,-209 182.5,-209 "/>
<text text-anchor="middle" x="91" y="-196.9" font-family="Helvetica,sans-Serif" font-size="9.00"> </text>
<polyline fill="none" stroke="black" points="-0.5,-188 182.5,-188 "/>
<text text-anchor="start" x="7.5" y="-175.9" font-family="Helvetica,sans-Serif" font-size="9.00">+ sendMessage()</text>
</g>
<!-- Node3 -->
<g id="node5" class="node"><title>Node3</title>
<a xlink:href="../../d4/d7d/a00093.htm" target="_top" xlink:title="participant class for event messager ">
<polygon fill="none" stroke="black" points="-0.5,-1 -0.5,-129 182.5,-129 182.5,-1 -0.5,-1"/>
<text text-anchor="start" x="7.5" y="-116.9" font-family="Helvetica,sans-Serif" font-size="9.00">de.tu_clausthal.in.mec.runtime.message.</text>
<text text-anchor="middle" x="91" y="-103.9" font-family="Helvetica,sans-Serif" font-size="9.00">CParticipant</text>
<polyline fill="none" stroke="black" points="-0.5,-95 182.5,-95 "/>
<text text-anchor="start" x="7.5" y="-82.9" font-family="Helvetica,sans-Serif" font-size="9.00">&#45; m_owner</text>
<polyline fill="none" stroke="black" points="-0.5,-74 182.5,-74 "/>
<text text-anchor="start" x="7.5" y="-61.9" font-family="Helvetica,sans-Serif" font-size="9.00">+ CParticipant()</text>
<text text-anchor="start" x="7.5" y="-48.9" font-family="Helvetica,sans-Serif" font-size="9.00">+ getReceiverPath()</text>
<text text-anchor="start" x="7.5" y="-35.9" font-family="Helvetica,sans-Serif" font-size="9.00">+ receiveMessage()</text>
<text text-anchor="start" x="7.5" y="-22.9" font-family="Helvetica,sans-Serif" font-size="9.00">+ release()</text>
<text text-anchor="start" x="7.5" y="-9.9" font-family="Helvetica,sans-Serif" font-size="9.00">+ sendMessage()</text>
</a>
</g>
<!-- Node1&#45;&gt;Node3 -->
<g id="edge4" class="edge"><title>Node1&#45;&gt;Node3</title>
<path fill="none" stroke="midnightblue" d="M91,-156.593C91,-147.711 91,-138.315 91,-129.059"/>
<polygon fill="none" stroke="midnightblue" points="87.5001,-156.744 91,-166.744 94.5001,-156.744 87.5001,-156.744"/>
</g>
<!-- Node2 -->
<g id="node2" class="node"><title>Node2</title>
<a xlink:href="../../d8/d64/a00181.htm" target="_top" xlink:title="message receiver interface for defining an object which can handle the message of a participant objec...">
<polygon fill="none" stroke="black" points="-0.5,-280.5 -0.5,-369.5 182.5,-369.5 182.5,-280.5 -0.5,-280.5"/>
<text text-anchor="start" x="7.5" y="-357.4" font-family="Helvetica,sans-Serif" font-size="9.00">de.tu_clausthal.in.mec.runtime.message.</text>
<text text-anchor="middle" x="91" y="-344.4" font-family="Helvetica,sans-Serif" font-size="9.00">IReceiver</text>
<polyline fill="none" stroke="black" points="-0.5,-335.5 182.5,-335.5 "/>
<text text-anchor="middle" x="91" y="-323.4" font-family="Helvetica,sans-Serif" font-size="9.00"> </text>
<polyline fill="none" stroke="black" points="-0.5,-314.5 182.5,-314.5 "/>
<text text-anchor="start" x="7.5" y="-302.4" font-family="Helvetica,sans-Serif" font-size="9.00">+ getReceiverPath()</text>
<text text-anchor="start" x="7.5" y="-289.4" font-family="Helvetica,sans-Serif" font-size="9.00">+ receiveMessage()</text>
</a>
</g>
<!-- Node2&#45;&gt;Node1 -->
<g id="edge2" class="edge"><title>Node2&#45;&gt;Node1</title>
<path fill="none" stroke="midnightblue" d="M91,-270.099C91,-260.949 91,-251.64 91,-243.031"/>
<polygon fill="none" stroke="midnightblue" points="87.5001,-270.316 91,-280.316 94.5001,-270.316 87.5001,-270.316"/>
</g>
</g>
</svg>
