<?xml version="1.0" encoding="UTF-8" standalone="no"?>
<!DOCTYPE svg PUBLIC "-//W3C//DTD SVG 1.1//EN"
 "http://www.w3.org/Graphics/SVG/1.1/DTD/svg11.dtd">
<!-- Generated by graphviz version 2.26.3 (20100126.1600)
 -->
<!-- Title: de.tu_clausthal.in.mec.common.CPath.CPath Pages: 1 -->
<!--zoomable 432 -->
<svg id="main" version="1.1" xmlns="http://www.w3.org/2000/svg" xmlns:xlink="http://www.w3.org/1999/xlink" xml:space="preserve" onload="init(evt)">
<style type="text/css"><![CDATA[
.edge:hover path { stroke: red; }
.edge:hover polygon { stroke: red; fill: red; }
]]></style>
<script type="text/javascript"><![CDATA[
var edges = document.getElementsByTagName('g');
if (edges && edges.length) {
  for (var i=0;i<edges.length;i++) {
    if (edges[i].id.substr(0,4)=='edge') {
      edges[i].setAttribute('class','edge');
    }
  }
}
]]></script>
        <defs>
                <circle id="rim" cx="0" cy="0" r="7"/>
                <circle id="rim2" cx="0" cy="0" r="3.5"/>
                <g id="zoomPlus">
                        <use xlink:href="#rim" fill="#404040">
                                <set attributeName="fill" to="#808080" begin="zoomplus.mouseover" end="zoomplus.mouseout"/>
                        </use>
                        <path d="M-4,0h8M0,-4v8" fill="none" stroke="white" stroke-width="1.5" pointer-events="none"/>
                </g>
                <g id="zoomMin">
                        <use xlink:href="#rim" fill="#404040">
                                <set attributeName="fill" to="#808080" begin="zoomminus.mouseover" end="zoomminus.mouseout"/>
                        </use>
                        <path d="M-4,0h8" fill="none" stroke="white" stroke-width="1.5" pointer-events="none"/>
                </g>
                <g id="dirArrow">
                        <path fill="none" stroke="white" stroke-width="1.5" d="M0,-3.0v7 M-2.5,-0.5L0,-3.0L2.5,-0.5"/>
                </g>
               <g id="resetDef">
                       <use xlink:href="#rim2" fill="#404040">
                               <set attributeName="fill" to="#808080" begin="reset.mouseover" end="reset.mouseout"/>
                       </use>
               </g>
        </defs>

<script type="text/javascript">
var viewWidth = 632;
var viewHeight = 432;
var sectionId = 'dynsection-1';
</script>
<script xlink:href="../../svgpan.js"/>
<svg id="graph" class="graph">
<g id="viewport">
<title>de.tu_clausthal.in.mec.common.CPath.CPath</title>
<!-- Node1 -->
<g id="node1" class="node"><title>Node1</title>
<polygon fill="#bfbfbf" stroke="black" points="0,-182 0,-216 148,-216 148,-182 0,-182"/>
<text text-anchor="start" x="8" y="-203.9" font-family="Helvetica,sans-Serif" font-size="9.00">de.tu_clausthal.in.mec.common.</text>
<text text-anchor="middle" x="74" y="-190.9" font-family="Helvetica,sans-Serif" font-size="9.00">CPath.CPath</text>
</g>
<!-- Node2 -->
<g id="node3" class="node"><title>Node2</title>
<a xlink:href="../../dc/d54/a00094.htm#ac1cc82a2cecb8966047c4fab26b0e696" target="_top" xlink:title="appends a path at the current and returns a new object ">
<polygon fill="none" stroke="black" points="184,-364 184,-398 332,-398 332,-364 184,-364"/>
<text text-anchor="start" x="192" y="-385.9" font-family="Helvetica,sans-Serif" font-size="9.00">de.tu_clausthal.in.mec.common.</text>
<text text-anchor="middle" x="258" y="-372.9" font-family="Helvetica,sans-Serif" font-size="9.00">CPath.append</text>
</a>
</g>
<!-- Node1&#45;&gt;Node2 -->
<g id="edge2" class="edge"><title>Node1&#45;&gt;Node2</title>
<path fill="none" stroke="midnightblue" d="M86.2472,-225.615C103.419,-260.143 137.802,-320.08 184,-355 188.454,-358.367 193.379,-361.322 198.511,-363.911"/>
<polygon fill="midnightblue" stroke="midnightblue" points="89.1843,-223.65 81.6703,-216.181 82.8864,-226.706 89.1843,-223.65"/>
</g>
<!-- Node5 -->
<g id="node9" class="node"><title>Node5</title>
<a xlink:href="../../dc/d54/a00094.htm#a10b0fba8cf06eabdf7b1fe4d17d03a79" target="_top" xlink:title="creates a path object from different items ">
<polygon fill="none" stroke="black" points="184,-312 184,-346 332,-346 332,-312 184,-312"/>
<text text-anchor="start" x="192" y="-333.9" font-family="Helvetica,sans-Serif" font-size="9.00">de.tu_clausthal.in.mec.common.</text>
<text text-anchor="middle" x="258" y="-320.9" font-family="Helvetica,sans-Serif" font-size="9.00">CPath.createPath</text>
</a>
</g>
<!-- Node1&#45;&gt;Node5 -->
<g id="edge8" class="edge"><title>Node1&#45;&gt;Node5</title>
<path fill="none" stroke="midnightblue" d="M94.6518,-223.798C115.195,-247.077 148.674,-281.457 184,-303 189.464,-306.332 195.416,-309.317 201.493,-311.97"/>
<polygon fill="midnightblue" stroke="midnightblue" points="97.1403,-221.325 87.9431,-216.065 91.853,-225.912 97.1403,-221.325"/>
</g>
<!-- Node6 -->
<g id="node11" class="node"><title>Node6</title>
<a xlink:href="../../dc/d54/a00094.htm#a9cba06c860e2138c8de0789f310634ee" target="_top" xlink:title="creates a path object by splitting a string ">
<polygon fill="none" stroke="black" points="184,-260 184,-294 332,-294 332,-260 184,-260"/>
<text text-anchor="start" x="192" y="-281.9" font-family="Helvetica,sans-Serif" font-size="9.00">de.tu_clausthal.in.mec.common.</text>
<text text-anchor="middle" x="258" y="-268.9" font-family="Helvetica,sans-Serif" font-size="9.00">CPath.createSplitPath</text>
</a>
</g>
<!-- Node1&#45;&gt;Node6 -->
<g id="edge10" class="edge"><title>Node1&#45;&gt;Node6</title>
<path fill="none" stroke="midnightblue" d="M116.997,-220.595C137.128,-230.376 161.565,-241.785 184,-251 191.432,-254.053 199.368,-257.079 207.183,-259.929"/>
<polygon fill="midnightblue" stroke="midnightblue" points="118.302,-217.337 107.781,-216.085 115.225,-223.624 118.302,-217.337"/>
</g>
<!-- Node8 -->
<g id="node15" class="node"><title>Node8</title>
<a xlink:href="../../dc/d54/a00094.htm#ad8e243ac0b32c2718d398f31126ff2e3" target="_top" xlink:title="creates a path of the indices ">
<polygon fill="none" stroke="black" points="184,-208 184,-242 332,-242 332,-208 184,-208"/>
<text text-anchor="start" x="192" y="-229.9" font-family="Helvetica,sans-Serif" font-size="9.00">de.tu_clausthal.in.mec.common.</text>
<text text-anchor="middle" x="258" y="-216.9" font-family="Helvetica,sans-Serif" font-size="9.00">CPath.getSubPath</text>
</a>
</g>
<!-- Node1&#45;&gt;Node8 -->
<g id="edge14" class="edge"><title>Node1&#45;&gt;Node8</title>
<path fill="none" stroke="midnightblue" d="M158.066,-210.879C166.654,-212.092 175.336,-213.319 183.808,-214.516"/>
<polygon fill="midnightblue" stroke="midnightblue" points="158.436,-207.396 148.044,-209.463 157.456,-214.328 158.436,-207.396"/>
</g>
<!-- Node9 -->
<g id="node17" class="node"><title>Node9</title>
<a xlink:href="../../dc/d54/a00094.htm#a32e98da06345da1749c9f376b42dcaa6" target="_top" xlink:title="de.tu_clausthal.in.mec.common.\lCPath.iterator">
<polygon fill="none" stroke="black" points="184,-156 184,-190 332,-190 332,-156 184,-156"/>
<text text-anchor="start" x="192" y="-177.9" font-family="Helvetica,sans-Serif" font-size="9.00">de.tu_clausthal.in.mec.common.</text>
<text text-anchor="middle" x="258" y="-164.9" font-family="Helvetica,sans-Serif" font-size="9.00">CPath.iterator</text>
</a>
</g>
<!-- Node1&#45;&gt;Node9 -->
<g id="edge16" class="edge"><title>Node1&#45;&gt;Node9</title>
<path fill="none" stroke="midnightblue" d="M158.066,-187.121C166.654,-185.908 175.336,-184.681 183.808,-183.484"/>
<polygon fill="midnightblue" stroke="midnightblue" points="157.456,-183.672 148.044,-188.537 158.436,-190.604 157.456,-183.672"/>
</g>
<!-- Node10 -->
<g id="node19" class="node"><title>Node10</title>
<a xlink:href="../../dc/d54/a00094.htm#aab381424e5f1fa4b44571175cf1b0005" target="_top" xlink:title="adds a path at the end ">
<polygon fill="none" stroke="black" points="184,-104 184,-138 332,-138 332,-104 184,-104"/>
<text text-anchor="start" x="192" y="-125.9" font-family="Helvetica,sans-Serif" font-size="9.00">de.tu_clausthal.in.mec.common.</text>
<text text-anchor="middle" x="258" y="-112.9" font-family="Helvetica,sans-Serif" font-size="9.00">CPath.pushback</text>
</a>
</g>
<!-- Node1&#45;&gt;Node10 -->
<g id="edge18" class="edge"><title>Node1&#45;&gt;Node10</title>
<path fill="none" stroke="midnightblue" d="M116.997,-177.405C137.128,-167.624 161.565,-156.215 184,-147 191.432,-143.947 199.368,-140.921 207.183,-138.071"/>
<polygon fill="midnightblue" stroke="midnightblue" points="115.225,-174.376 107.781,-181.915 118.302,-180.663 115.225,-174.376"/>
</g>
<!-- Node11 -->
<g id="node21" class="node"><title>Node11</title>
<a xlink:href="../../dc/d54/a00094.htm#a92cbb2a8f44370c356dae20f04c83d3d" target="_top" xlink:title="adds a path at the front ">
<polygon fill="none" stroke="black" points="184,-52 184,-86 332,-86 332,-52 184,-52"/>
<text text-anchor="start" x="192" y="-73.9" font-family="Helvetica,sans-Serif" font-size="9.00">de.tu_clausthal.in.mec.common.</text>
<text text-anchor="middle" x="258" y="-60.9" font-family="Helvetica,sans-Serif" font-size="9.00">CPath.pushfront</text>
</a>
</g>
<!-- Node1&#45;&gt;Node11 -->
<g id="edge20" class="edge"><title>Node1&#45;&gt;Node11</title>
<path fill="none" stroke="midnightblue" d="M94.6518,-174.202C115.195,-150.923 148.674,-116.543 184,-95 189.464,-91.6678 195.416,-88.6827 201.493,-86.0297"/>
<polygon fill="midnightblue" stroke="midnightblue" points="91.853,-172.088 87.9431,-181.935 97.1403,-176.675 91.853,-172.088"/>
</g>
<!-- Node13 -->
<g id="node25" class="node"><title>Node13</title>
<a xlink:href="../../dc/d54/a00094.htm#adea507b6e74a6213c0707f566ebc048a" target="_top" xlink:title="check of a path starts with another path ">
<polygon fill="none" stroke="black" points="184,-0 184,-34 332,-34 332,-0 184,-0"/>
<text text-anchor="start" x="192" y="-21.9" font-family="Helvetica,sans-Serif" font-size="9.00">de.tu_clausthal.in.mec.common.</text>
<text text-anchor="middle" x="258" y="-8.9" font-family="Helvetica,sans-Serif" font-size="9.00">CPath.startsWith</text>
</a>
</g>
<!-- Node1&#45;&gt;Node13 -->
<g id="edge24" class="edge"><title>Node1&#45;&gt;Node13</title>
<path fill="none" stroke="midnightblue" d="M86.2472,-172.385C103.419,-137.857 137.802,-77.9203 184,-43 188.454,-39.6334 193.379,-36.6783 198.511,-34.0892"/>
<polygon fill="midnightblue" stroke="midnightblue" points="82.8864,-171.294 81.6703,-181.819 89.1843,-174.35 82.8864,-171.294"/>
</g>
<!-- Node3 -->
<g id="node5" class="node"><title>Node3</title>
<a xlink:href="../../d2/db1/a00070.htm#a4c3bce6bdd6662306ba8ecc7cb81e2fa" target="_top" xlink:title="de.tu_clausthal.in.mec.object.mas.generic.implementation.\lCLiteral\&lt; T \&gt;.clone">
<polygon fill="none" stroke="black" points="368.5,-390 368.5,-424 623.5,-424 623.5,-390 368.5,-390"/>
<text text-anchor="start" x="376.5" y="-411.9" font-family="Helvetica,sans-Serif" font-size="9.00">de.tu_clausthal.in.mec.object.mas.generic.implementation.</text>
<text text-anchor="middle" x="496" y="-398.9" font-family="Helvetica,sans-Serif" font-size="9.00">CLiteral&lt; T &gt;.clone</text>
</a>
</g>
<!-- Node2&#45;&gt;Node3 -->
<g id="edge4" class="edge"><title>Node2&#45;&gt;Node3</title>
<path fill="none" stroke="midnightblue" d="M342.213,-390.2C350.702,-391.127 359.449,-392.083 368.261,-393.045"/>
<polygon fill="midnightblue" stroke="midnightblue" points="342.321,-386.691 332,-389.084 341.561,-393.649 342.321,-386.691"/>
</g>
<!-- Node4 -->
<g id="node7" class="node"><title>Node4</title>
<a xlink:href="../../da/d24/a00068.htm#ac21966b6ef6718164b42429ac61e9d79" target="_top" xlink:title="de.tu_clausthal.in.mec.object.mas.jason.belief.\lCLiteral.clone">
<polygon fill="none" stroke="black" points="393,-338 393,-372 599,-372 599,-338 393,-338"/>
<text text-anchor="start" x="401" y="-359.9" font-family="Helvetica,sans-Serif" font-size="9.00">de.tu_clausthal.in.mec.object.mas.jason.belief.</text>
<text text-anchor="middle" x="496" y="-346.9" font-family="Helvetica,sans-Serif" font-size="9.00">CLiteral.clone</text>
</a>
</g>
<!-- Node2&#45;&gt;Node4 -->
<g id="edge6" class="edge"><title>Node2&#45;&gt;Node4</title>
<path fill="none" stroke="midnightblue" d="M342.071,-371.816C358.468,-370.024 375.836,-368.127 392.77,-366.277"/>
<polygon fill="midnightblue" stroke="midnightblue" points="341.561,-368.351 332,-372.916 342.321,-375.309 341.561,-368.351"/>
</g>
<!-- Node7 -->
<g id="node13" class="node"><title>Node7</title>
<a xlink:href="../../dc/d54/a00094.htm#a7dc6f84fbb92cabbd6c177819eece66c" target="_top" xlink:title="factor method to build path ">
<polygon fill="none" stroke="black" points="422,-260 422,-294 570,-294 570,-260 422,-260"/>
<text text-anchor="start" x="430" y="-281.9" font-family="Helvetica,sans-Serif" font-size="9.00">de.tu_clausthal.in.mec.common.</text>
<text text-anchor="middle" x="496" y="-268.9" font-family="Helvetica,sans-Serif" font-size="9.00">CPath.from</text>
</a>
</g>
<!-- Node6&#45;&gt;Node7 -->
<g id="edge12" class="edge"><title>Node6&#45;&gt;Node7</title>
<path fill="none" stroke="midnightblue" d="M342.18,-277C368.096,-277 396.429,-277 421.636,-277"/>
<polygon fill="midnightblue" stroke="midnightblue" points="342,-273.5 332,-277 342,-280.5 342,-273.5"/>
</g>
<!-- Node12 -->
<g id="node23" class="node"><title>Node12</title>
<a xlink:href="../../d8/d87/a00118.htm#a4fc9fd6c323f7f6bf5cf52db8250765c" target="_top" xlink:title="traverse up to root node ">
<polygon fill="none" stroke="black" points="422,-52 422,-86 570,-86 570,-52 422,-52"/>
<text text-anchor="start" x="430" y="-73.9" font-family="Helvetica,sans-Serif" font-size="9.00">de.tu_clausthal.in.mec.common.</text>
<text text-anchor="middle" x="496" y="-60.9" font-family="Helvetica,sans-Serif" font-size="9.00">CTreeNode&lt; T &gt;.getFQN</text>
</a>
</g>
<!-- Node11&#45;&gt;Node12 -->
<g id="edge22" class="edge"><title>Node11&#45;&gt;Node12</title>
<path fill="none" stroke="midnightblue" d="M342.18,-69C368.096,-69 396.429,-69 421.636,-69"/>
<polygon fill="midnightblue" stroke="midnightblue" points="342,-65.5001 332,-69 342,-72.5001 342,-65.5001"/>
</g>
</g>
</svg>
        <g id="navigator" transform="translate(0 0)" fill="#404254">
                <rect fill="#f2f5e9" fill-opacity="0.5" stroke="#606060" stroke-width=".5" x="0" y="0" width="60" height="60"/>
                <use id="zoomplus" xlink:href="#zoomPlus" x="17" y="9" onmousedown="handleZoom(evt,'in')"/>
                <use id="zoomminus" xlink:href="#zoomMin" x="42" y="9" onmousedown="handleZoom(evt,'out')"/>
                <use id="reset" xlink:href="#resetDef" x="30" y="36" onmousedown="handleReset()"/>
                <g id="arrowUp" xlink:href="#dirArrow" transform="translate(30 24)" onmousedown="handlePan(0,-1)">
                  <use xlink:href="#rim" fill="#404040">
                        <set attributeName="fill" to="#808080" begin="arrowUp.mouseover" end="arrowUp.mouseout"/>
                  </use>
                  <path fill="none" stroke="white" stroke-width="1.5" d="M0,-3.0v7 M-2.5,-0.5L0,-3.0L2.5,-0.5"/>
                </g>
                <g id="arrowRight" xlink:href="#dirArrow" transform="rotate(90) translate(36 -43)" onmousedown="handlePan(1,0)">
                  <use xlink:href="#rim" fill="#404040">
                        <set attributeName="fill" to="#808080" begin="arrowRight.mouseover" end="arrowRight.mouseout"/>
                  </use>
                  <path fill="none" stroke="white" stroke-width="1.5" d="M0,-3.0v7 M-2.5,-0.5L0,-3.0L2.5,-0.5"/>
                </g>
                <g id="arrowDown" xlink:href="#dirArrow" transform="rotate(180) translate(-30 -48)" onmousedown="handlePan(0,1)">
                  <use xlink:href="#rim" fill="#404040">
                        <set attributeName="fill" to="#808080" begin="arrowDown.mouseover" end="arrowDown.mouseout"/>
                  </use>
                  <path fill="none" stroke="white" stroke-width="1.5" d="M0,-3.0v7 M-2.5,-0.5L0,-3.0L2.5,-0.5"/>
                </g>
                <g id="arrowLeft" xlink:href="#dirArrow" transform="rotate(270) translate(-36 17)" onmousedown="handlePan(-1,0)">
                  <use xlink:href="#rim" fill="#404040">
                        <set attributeName="fill" to="#808080" begin="arrowLeft.mouseover" end="arrowLeft.mouseout"/>
                  </use>
                  <path fill="none" stroke="white" stroke-width="1.5" d="M0,-3.0v7 M-2.5,-0.5L0,-3.0L2.5,-0.5"/>
                </g>
        </g>
        <svg viewBox="0 0 15 15" width="100%" height="30px" preserveAspectRatio="xMaxYMin meet">
         <g id="arrow_out" transform="scale(0.3 0.3)">
          <a xlink:href="a00094_acc1851e52b605a9cab13d2b85c2acb68_icgraph_org.svg" target="_base">
           <rect id="button" ry="5" rx="5" y="6" x="6" height="38" width="38"
                fill="#f2f5e9" fill-opacity="0.5" stroke="#606060" stroke-width="1.0"/>
           <path id="arrow"
             d="M 11.500037,31.436501 C 11.940474,20.09759 22.043105,11.32322 32.158766,21.979434 L 37.068811,17.246167 C 37.068811,17.246167 37.088388,32 37.088388,32 L 22.160133,31.978069 C 22.160133,31.978069 26.997745,27.140456 26.997745,27.140456 C 18.528582,18.264221 13.291696,25.230495 11.500037,31.436501 z"
             style="fill:#404040;"/>
          </a>
         </g>
        </svg>
</svg>
