<?xml version="1.0" encoding="UTF-8" standalone="no"?>
<!DOCTYPE svg PUBLIC "-//W3C//DTD SVG 1.1//EN"
 "http://www.w3.org/Graphics/SVG/1.1/DTD/svg11.dtd">
<!-- Generated by graphviz version 2.26.3 (20100126.1600)
 -->
<!-- Title: de.tu_clausthal.in.mec.common.CPath.getSuffix Pages: 1 -->
<svg width="398pt" height="146pt"
 viewBox="0.00 0.00 398.00 146.00" xmlns="http://www.w3.org/2000/svg" xmlns:xlink="http://www.w3.org/1999/xlink">
<g id="graph1" class="graph" transform="scale(1 1) rotate(0) translate(4 142)">
<title>de.tu_clausthal.in.mec.common.CPath.getSuffix</title>
<!-- Node1 -->
<g id="node1" class="node"><title>Node1</title>
<polygon fill="#bfbfbf" stroke="black" points="0,-52 0,-86 148,-86 148,-52 0,-52"/>
<text text-anchor="start" x="8" y="-73.9" font-family="Helvetica,sans-Serif" font-size="9.00">de.tu_clausthal.in.mec.common.</text>
<text text-anchor="middle" x="74" y="-60.9" font-family="Helvetica,sans-Serif" font-size="9.00">CPath.getSuffix</text>
</g>
<!-- Node2 -->
<g id="node3" class="node"><title>Node2</title>
<a xlink:href="../../d9/d4b/a00117.htm#a12f2a4939a1b27e5bc7828e66de23e4a" target="_top" xlink:title="creates a generic literal with path ">
<polygon fill="none" stroke="black" points="184,-104 184,-138 390,-138 390,-104 184,-104"/>
<text text-anchor="start" x="192" y="-125.9" font-family="Helvetica,sans-Serif" font-size="9.00">de.tu_clausthal.in.mec.object.mas.jason.belief.</text>
<text text-anchor="middle" x="287" y="-112.9" font-family="Helvetica,sans-Serif" font-size="9.00">CTreeBeliefBase.createPathLiteral</text>
</a>
</g>
<!-- Node1&#45;&gt;Node2 -->
<g id="edge2" class="edge"><title>Node1&#45;&gt;Node2</title>
<path fill="none" stroke="midnightblue" d="M153.537,-88.4176C174.414,-93.5141 196.769,-98.9718 217.099,-103.935"/>
<polygon fill="midnightblue" stroke="midnightblue" points="154.289,-84.9983 143.744,-86.0267 152.629,-91.7986 154.289,-84.9983"/>
</g>
<!-- Node3 -->
<g id="node5" class="node"><title>Node3</title>
<a xlink:href="../../d9/d4b/a00117.htm#afdd95706f36ace1c51cf7d9f9cb8c5e0" target="_top" xlink:title="ctor ">
<polygon fill="none" stroke="black" points="184,-52 184,-86 390,-86 390,-52 184,-52"/>
<text text-anchor="start" x="192" y="-73.9" font-family="Helvetica,sans-Serif" font-size="9.00">de.tu_clausthal.in.mec.object.mas.jason.belief.</text>
<text text-anchor="middle" x="287" y="-60.9" font-family="Helvetica,sans-Serif" font-size="9.00">CTreeBeliefBase.CTreeBeliefBase</text>
</a>
</g>
<!-- Node1&#45;&gt;Node3 -->
<g id="edge4" class="edge"><title>Node1&#45;&gt;Node3</title>
<path fill="none" stroke="midnightblue" d="M158.318,-69C166.705,-69 175.284,-69 183.834,-69"/>
<polygon fill="midnightblue" stroke="midnightblue" points="158.198,-65.5001 148.198,-69 158.198,-72.5001 158.198,-65.5001"/>
</g>
<!-- Node4 -->
<g id="node7" class="node"><title>Node4</title>
<a xlink:href="../../d9/d4b/a00117.htm#a94431e1c6ea0361eada19cba02655f91" target="_top" xlink:title="set agent to the beliefbase for message system, can be set once ">
<polygon fill="none" stroke="black" points="184,-0 184,-34 390,-34 390,-0 184,-0"/>
<text text-anchor="start" x="192" y="-21.9" font-family="Helvetica,sans-Serif" font-size="9.00">de.tu_clausthal.in.mec.object.mas.jason.belief.</text>
<text text-anchor="middle" x="287" y="-8.9" font-family="Helvetica,sans-Serif" font-size="9.00">CTreeBeliefBase.setMessageBeliefbase</text>
</a>
</g>
<!-- Node1&#45;&gt;Node4 -->
<g id="edge6" class="edge"><title>Node1&#45;&gt;Node4</title>
<path fill="none" stroke="midnightblue" d="M153.537,-49.5824C174.414,-44.4859 196.769,-39.0282 217.099,-34.065"/>
<polygon fill="midnightblue" stroke="midnightblue" points="152.629,-46.2014 143.744,-51.9733 154.289,-53.0017 152.629,-46.2014"/>
</g>
</g>
</svg>
