<?xml version="1.0" encoding="UTF-8" standalone="no"?>
<!DOCTYPE svg PUBLIC "-//W3C//DTD SVG 1.1//EN"
 "http://www.w3.org/Graphics/SVG/1.1/DTD/svg11.dtd">
<!-- Generated by graphviz version 2.26.3 (20100126.1600)
 -->
<!-- Title: de.tu_clausthal.in.mec.common.CPath.from Pages: 1 -->
<svg width="524pt" height="146pt"
 viewBox="0.00 0.00 524.00 146.00" xmlns="http://www.w3.org/2000/svg" xmlns:xlink="http://www.w3.org/1999/xlink">
<g id="graph1" class="graph" transform="scale(1 1) rotate(0) translate(4 142)">
<title>de.tu_clausthal.in.mec.common.CPath.from</title>
<!-- Node1 -->
<g id="node1" class="node"><title>Node1</title>
<polygon fill="#bfbfbf" stroke="black" points="0,-52 0,-86 148,-86 148,-52 0,-52"/>
<text text-anchor="start" x="8" y="-73.9" font-family="Helvetica,sans-Serif" font-size="9.00">de.tu_clausthal.in.mec.common.</text>
<text text-anchor="middle" x="74" y="-60.9" font-family="Helvetica,sans-Serif" font-size="9.00">CPath.from</text>
</g>
<!-- Node2 -->
<g id="node3" class="node"><title>Node2</title>
<a xlink:href="../../dc/d54/a00094.htm#a9cba06c860e2138c8de0789f310634ee" target="_top" xlink:title="creates a path object by splitting a string ">
<polygon fill="none" stroke="black" points="184,-52 184,-86 332,-86 332,-52 184,-52"/>
<text text-anchor="start" x="192" y="-73.9" font-family="Helvetica,sans-Serif" font-size="9.00">de.tu_clausthal.in.mec.common.</text>
<text text-anchor="middle" x="258" y="-60.9" font-family="Helvetica,sans-Serif" font-size="9.00">CPath.createSplitPath</text>
</a>
</g>
<!-- Node1&#45;&gt;Node2 -->
<g id="edge2" class="edge"><title>Node1&#45;&gt;Node2</title>
<path fill="none" stroke="midnightblue" d="M148.044,-69C156.514,-69 165.195,-69 173.784,-69"/>
<polygon fill="midnightblue" stroke="midnightblue" points="173.808,-72.5001 183.808,-69 173.807,-65.5001 173.808,-72.5001"/>
</g>
<!-- Node3 -->
<g id="node5" class="node"><title>Node3</title>
<a xlink:href="../../dc/d54/a00094.htm#acc1851e52b605a9cab13d2b85c2acb68" target="_top" xlink:title="copy&#45;ctor with arguments ">
<polygon fill="none" stroke="black" points="368,-104 368,-138 516,-138 516,-104 368,-104"/>
<text text-anchor="start" x="376" y="-125.9" font-family="Helvetica,sans-Serif" font-size="9.00">de.tu_clausthal.in.mec.common.</text>
<text text-anchor="middle" x="442" y="-112.9" font-family="Helvetica,sans-Serif" font-size="9.00">CPath.CPath</text>
</a>
</g>
<!-- Node2&#45;&gt;Node3 -->
<g id="edge4" class="edge"><title>Node2&#45;&gt;Node3</title>
<path fill="none" stroke="midnightblue" d="M318.248,-86.0267C335.404,-90.8752 354.239,-96.1981 371.926,-101.197"/>
<polygon fill="midnightblue" stroke="midnightblue" points="371.041,-104.583 381.616,-103.935 372.945,-97.8473 371.041,-104.583"/>
</g>
<!-- Node4 -->
<g id="node7" class="node"><title>Node4</title>
<a xlink:href="../../d1/dc6/a00037.htm#ae523069a1b523b0e6a0c643049b1d745" target="_top" xlink:title="returns a default string of the resource file ">
<polygon fill="none" stroke="black" points="368,-52 368,-86 516,-86 516,-52 368,-52"/>
<text text-anchor="start" x="376" y="-73.9" font-family="Helvetica,sans-Serif" font-size="9.00">de.tu_clausthal.in.mec.common.</text>
<text text-anchor="middle" x="442" y="-60.9" font-family="Helvetica,sans-Serif" font-size="9.00">CCommon.getResourceString</text>
</a>
</g>
<!-- Node2&#45;&gt;Node4 -->
<g id="edge6" class="edge"><title>Node2&#45;&gt;Node4</title>
<path fill="none" stroke="midnightblue" d="M332.044,-69C340.514,-69 349.195,-69 357.784,-69"/>
<polygon fill="midnightblue" stroke="midnightblue" points="357.808,-72.5001 367.808,-69 357.807,-65.5001 357.808,-72.5001"/>
</g>
<!-- Node5 -->
<g id="node9" class="node"><title>Node5</title>
<a xlink:href="../../dc/d54/a00094.htm#a30968e184b2b22e9813932de1bddbf88" target="_top" xlink:title="stream over elements ">
<polygon fill="none" stroke="black" points="368,-0 368,-34 516,-34 516,-0 368,-0"/>
<text text-anchor="start" x="376" y="-21.9" font-family="Helvetica,sans-Serif" font-size="9.00">de.tu_clausthal.in.mec.common.</text>
<text text-anchor="middle" x="442" y="-8.9" font-family="Helvetica,sans-Serif" font-size="9.00">CPath.stream</text>
</a>
</g>
<!-- Node2&#45;&gt;Node5 -->
<g id="edge8" class="edge"><title>Node2&#45;&gt;Node5</title>
<path fill="none" stroke="midnightblue" d="M318.248,-51.9733C335.404,-47.1248 354.239,-41.8019 371.926,-36.8035"/>
<polygon fill="midnightblue" stroke="midnightblue" points="372.945,-40.1527 381.616,-34.065 371.041,-33.4166 372.945,-40.1527"/>
</g>
</g>
</svg>
