<?xml version="1.0" encoding="UTF-8" standalone="no"?>
<!DOCTYPE svg PUBLIC "-//W3C//DTD SVG 1.1//EN"
 "http://www.w3.org/Graphics/SVG/1.1/DTD/svg11.dtd">
<!-- Generated by graphviz version 2.26.3 (20100126.1600)
 -->
<!-- Title: de.tu_clausthal.in.mec.common.CPath.getSubPath Pages: 1 -->
<svg width="448pt" height="250pt"
 viewBox="0.00 0.00 448.00 250.00" xmlns="http://www.w3.org/2000/svg" xmlns:xlink="http://www.w3.org/1999/xlink">
<g id="graph1" class="graph" transform="scale(1 1) rotate(0) translate(4 246)">
<title>de.tu_clausthal.in.mec.common.CPath.getSubPath</title>
<!-- Node1 -->
<g id="node1" class="node"><title>Node1</title>
<polygon fill="#bfbfbf" stroke="black" points="0,-104 0,-138 148,-138 148,-104 0,-104"/>
<text text-anchor="start" x="8" y="-125.9" font-family="Helvetica,sans-Serif" font-size="9.00">de.tu_clausthal.in.mec.common.</text>
<text text-anchor="middle" x="74" y="-112.9" font-family="Helvetica,sans-Serif" font-size="9.00">CPath.getSubPath</text>
</g>
<!-- Node2 -->
<g id="node3" class="node"><title>Node2</title>
<a xlink:href="../../d9/da4/a00078.htm#a56f49c6f737c8a94e8d0518b53231f5d" target="_top" xlink:title="de.tu_clausthal.in.mec.object.mas.generic.implementation.\lCMask\&lt; T \&gt;.containsLiteral">
<polygon fill="none" stroke="black" points="184.5,-208 184.5,-242 439.5,-242 439.5,-208 184.5,-208"/>
<text text-anchor="start" x="192.5" y="-229.9" font-family="Helvetica,sans-Serif" font-size="9.00">de.tu_clausthal.in.mec.object.mas.generic.implementation.</text>
<text text-anchor="middle" x="312" y="-216.9" font-family="Helvetica,sans-Serif" font-size="9.00">CMask&lt; T &gt;.containsLiteral</text>
</a>
</g>
<!-- Node1&#45;&gt;Node2 -->
<g id="edge2" class="edge"><title>Node1&#45;&gt;Node2</title>
<path fill="none" stroke="midnightblue" d="M100.633,-144.749C121.79,-162.35 152.895,-185.533 184,-199 191.908,-202.424 200.288,-205.404 208.826,-207.997"/>
<polygon fill="midnightblue" stroke="midnightblue" points="102.648,-141.868 92.7574,-138.07 98.1208,-147.207 102.648,-141.868"/>
</g>
<!-- Node3 -->
<g id="node5" class="node"><title>Node3</title>
<a xlink:href="../../d9/da4/a00078.htm#ae8b8a96e67aed630ab2f0801ca1e4f46" target="_top" xlink:title="de.tu_clausthal.in.mec.object.mas.generic.implementation.\lCMask\&lt; T \&gt;.containsMask">
<polygon fill="none" stroke="black" points="184.5,-156 184.5,-190 439.5,-190 439.5,-156 184.5,-156"/>
<text text-anchor="start" x="192.5" y="-177.9" font-family="Helvetica,sans-Serif" font-size="9.00">de.tu_clausthal.in.mec.object.mas.generic.implementation.</text>
<text text-anchor="middle" x="312" y="-164.9" font-family="Helvetica,sans-Serif" font-size="9.00">CMask&lt; T &gt;.containsMask</text>
</a>
</g>
<!-- Node1&#45;&gt;Node3 -->
<g id="edge4" class="edge"><title>Node1&#45;&gt;Node3</title>
<path fill="none" stroke="midnightblue" d="M154.509,-140.34C164.431,-142.631 174.441,-144.9 184,-147 197.621,-149.992 212.085,-153.047 226.2,-155.963"/>
<polygon fill="midnightblue" stroke="midnightblue" points="155.169,-136.9 144.637,-138.045 153.585,-143.718 155.169,-136.9"/>
</g>
<!-- Node4 -->
<g id="node7" class="node"><title>Node4</title>
<a xlink:href="../../d9/da4/a00078.htm#a462f7fade89cf8917dc7634cb19f5c95" target="_top" xlink:title="de.tu_clausthal.in.mec.object.mas.generic.implementation.\lCMask\&lt; T \&gt;.getLiteral">
<polygon fill="none" stroke="black" points="184.5,-104 184.5,-138 439.5,-138 439.5,-104 184.5,-104"/>
<text text-anchor="start" x="192.5" y="-125.9" font-family="Helvetica,sans-Serif" font-size="9.00">de.tu_clausthal.in.mec.object.mas.generic.implementation.</text>
<text text-anchor="middle" x="312" y="-112.9" font-family="Helvetica,sans-Serif" font-size="9.00">CMask&lt; T &gt;.getLiteral</text>
</a>
</g>
<!-- Node1&#45;&gt;Node4 -->
<g id="edge6" class="edge"><title>Node1&#45;&gt;Node4</title>
<path fill="none" stroke="midnightblue" d="M158.213,-121C166.702,-121 175.449,-121 184.261,-121"/>
<polygon fill="midnightblue" stroke="midnightblue" points="158,-117.5 148,-121 158,-124.5 158,-117.5"/>
</g>
<!-- Node5 -->
<g id="node9" class="node"><title>Node5</title>
<a xlink:href="../../d9/da4/a00078.htm#aaefb3d2ca54a9dff6f1aaed19aeef070" target="_top" xlink:title="de.tu_clausthal.in.mec.object.mas.generic.implementation.\lCMask\&lt; T \&gt;.getMask">
<polygon fill="none" stroke="black" points="184.5,-52 184.5,-86 439.5,-86 439.5,-52 184.5,-52"/>
<text text-anchor="start" x="192.5" y="-73.9" font-family="Helvetica,sans-Serif" font-size="9.00">de.tu_clausthal.in.mec.object.mas.generic.implementation.</text>
<text text-anchor="middle" x="312" y="-60.9" font-family="Helvetica,sans-Serif" font-size="9.00">CMask&lt; T &gt;.getMask</text>
</a>
</g>
<!-- Node1&#45;&gt;Node5 -->
<g id="edge8" class="edge"><title>Node1&#45;&gt;Node5</title>
<path fill="none" stroke="midnightblue" d="M154.509,-101.66C164.431,-99.3687 174.441,-97.1 184,-95 197.621,-92.0077 212.085,-88.9525 226.2,-86.0375"/>
<polygon fill="midnightblue" stroke="midnightblue" points="153.585,-98.2819 144.637,-103.955 155.169,-105.1 153.585,-98.2819"/>
</g>
<!-- Node6 -->
<g id="node11" class="node"><title>Node6</title>
<a xlink:href="../../d9/da4/a00078.htm#a95fee220f217b4bb83ac1cddb846e745" target="_top" xlink:title="returns a mask on the recursive descend ">
<polygon fill="none" stroke="black" points="184.5,-0 184.5,-34 439.5,-34 439.5,-0 184.5,-0"/>
<text text-anchor="start" x="192.5" y="-21.9" font-family="Helvetica,sans-Serif" font-size="9.00">de.tu_clausthal.in.mec.object.mas.generic.implementation.</text>
<text text-anchor="middle" x="312" y="-8.9" font-family="Helvetica,sans-Serif" font-size="9.00">CMask&lt; T &gt;.walk</text>
</a>
</g>
<!-- Node1&#45;&gt;Node6 -->
<g id="edge10" class="edge"><title>Node1&#45;&gt;Node6</title>
<path fill="none" stroke="midnightblue" d="M100.633,-97.2513C121.79,-79.6499 152.895,-56.4673 184,-43 191.908,-39.5763 200.288,-36.5961 208.826,-34.0033"/>
<polygon fill="midnightblue" stroke="midnightblue" points="98.1208,-94.7929 92.7574,-103.93 102.648,-100.132 98.1208,-94.7929"/>
</g>
</g>
</svg>
