<?xml version="1.0" encoding="UTF-8" standalone="no"?>
<!DOCTYPE svg PUBLIC "-//W3C//DTD SVG 1.1//EN"
 "http://www.w3.org/Graphics/SVG/1.1/DTD/svg11.dtd">
<!-- Generated by graphviz version 2.26.3 (20100126.1600)
 -->
<!-- Title: de.tu_clausthal.in.mec.common.CPath.append Pages: 1 -->
<svg width="448pt" height="94pt"
 viewBox="0.00 0.00 448.00 94.00" xmlns="http://www.w3.org/2000/svg" xmlns:xlink="http://www.w3.org/1999/xlink">
<g id="graph1" class="graph" transform="scale(1 1) rotate(0) translate(4 90)">
<title>de.tu_clausthal.in.mec.common.CPath.append</title>
<!-- Node1 -->
<g id="node1" class="node"><title>Node1</title>
<polygon fill="#bfbfbf" stroke="black" points="0,-26 0,-60 148,-60 148,-26 0,-26"/>
<text text-anchor="start" x="8" y="-47.9" font-family="Helvetica,sans-Serif" font-size="9.00">de.tu_clausthal.in.mec.common.</text>
<text text-anchor="middle" x="74" y="-34.9" font-family="Helvetica,sans-Serif" font-size="9.00">CPath.append</text>
</g>
<!-- Node2 -->
<g id="node3" class="node"><title>Node2</title>
<a xlink:href="../../da/d24/a00068.htm#ac21966b6ef6718164b42429ac61e9d79" target="_top" xlink:title="de.tu_clausthal.in.mec.object.mas.jason.belief.\lCLiteral.clone">
<polygon fill="none" stroke="black" points="209,-52 209,-86 415,-86 415,-52 209,-52"/>
<text text-anchor="start" x="217" y="-73.9" font-family="Helvetica,sans-Serif" font-size="9.00">de.tu_clausthal.in.mec.object.mas.jason.belief.</text>
<text text-anchor="middle" x="312" y="-60.9" font-family="Helvetica,sans-Serif" font-size="9.00">CLiteral.clone</text>
</a>
</g>
<!-- Node1&#45;&gt;Node2 -->
<g id="edge2" class="edge"><title>Node1&#45;&gt;Node2</title>
<path fill="none" stroke="midnightblue" d="M158.071,-52.1843C174.468,-53.9755 191.836,-55.8728 208.77,-57.7227"/>
<polygon fill="midnightblue" stroke="midnightblue" points="158.321,-48.6908 148,-51.084 157.561,-55.6494 158.321,-48.6908"/>
</g>
<!-- Node3 -->
<g id="node5" class="node"><title>Node3</title>
<a xlink:href="../../d2/db1/a00070.htm#a4c3bce6bdd6662306ba8ecc7cb81e2fa" target="_top" xlink:title="de.tu_clausthal.in.mec.object.mas.generic.implementation.\lCLiteral\&lt; T \&gt;.clone">
<polygon fill="none" stroke="black" points="184.5,-0 184.5,-34 439.5,-34 439.5,-0 184.5,-0"/>
<text text-anchor="start" x="192.5" y="-21.9" font-family="Helvetica,sans-Serif" font-size="9.00">de.tu_clausthal.in.mec.object.mas.generic.implementation.</text>
<text text-anchor="middle" x="312" y="-8.9" font-family="Helvetica,sans-Serif" font-size="9.00">CLiteral&lt; T &gt;.clone</text>
</a>
</g>
<!-- Node1&#45;&gt;Node3 -->
<g id="edge4" class="edge"><title>Node1&#45;&gt;Node3</title>
<path fill="none" stroke="midnightblue" d="M158.213,-33.8003C166.702,-32.8729 175.449,-31.9173 184.261,-30.9547"/>
<polygon fill="midnightblue" stroke="midnightblue" points="157.561,-30.3506 148,-34.916 158.321,-37.3092 157.561,-30.3506"/>
</g>
</g>
</svg>
