<?xml version="1.0" encoding="UTF-8" standalone="no"?>
<!DOCTYPE svg PUBLIC "-//W3C//DTD SVG 1.1//EN"
 "http://www.w3.org/Graphics/SVG/1.1/DTD/svg11.dtd">
<!-- Generated by graphviz version 2.26.3 (20100126.1600)
 -->
<!-- Title: de.tu_clausthal.in.mec.common.CPath.endsWith Pages: 1 -->
<svg width="524pt" height="146pt"
 viewBox="0.00 0.00 524.00 146.00" xmlns="http://www.w3.org/2000/svg" xmlns:xlink="http://www.w3.org/1999/xlink">
<g id="graph1" class="graph" transform="scale(1 1) rotate(0) translate(4 142)">
<title>de.tu_clausthal.in.mec.common.CPath.endsWith</title>
<!-- Node1 -->
<g id="node1" class="node"><title>Node1</title>
<polygon fill="#bfbfbf" stroke="black" points="0,-52 0,-86 148,-86 148,-52 0,-52"/>
<text text-anchor="start" x="8" y="-73.9" font-family="Helvetica,sans-Serif" font-size="9.00">de.tu_clausthal.in.mec.common.</text>
<text text-anchor="middle" x="74" y="-60.9" font-family="Helvetica,sans-Serif" font-size="9.00">CPath.endsWith</text>
</g>
<!-- Node2 -->
<g id="node3" class="node"><title>Node2</title>
<a xlink:href="../../dc/d54/a00094.htm#aca1a1d8282546fdb88b2c57e862cff5c" target="_top" xlink:title="de.tu_clausthal.in.mec.common.\lCPath.equals">
<polygon fill="none" stroke="black" points="184,-104 184,-138 332,-138 332,-104 184,-104"/>
<text text-anchor="start" x="192" y="-125.9" font-family="Helvetica,sans-Serif" font-size="9.00">de.tu_clausthal.in.mec.common.</text>
<text text-anchor="middle" x="258" y="-112.9" font-family="Helvetica,sans-Serif" font-size="9.00">CPath.equals</text>
</a>
</g>
<!-- Node1&#45;&gt;Node2 -->
<g id="edge2" class="edge"><title>Node1&#45;&gt;Node2</title>
<path fill="none" stroke="midnightblue" d="M134.248,-86.0267C151.404,-90.8752 170.239,-96.1981 187.926,-101.197"/>
<polygon fill="midnightblue" stroke="midnightblue" points="187.041,-104.583 197.616,-103.935 188.945,-97.8473 187.041,-104.583"/>
</g>
<!-- Node4 -->
<g id="node7" class="node"><title>Node4</title>
<a xlink:href="../../dc/d54/a00094.htm#ae0d03c5ffc5689f0bbbc9575d1d0211d" target="_top" xlink:title="returns an part of the path ">
<polygon fill="none" stroke="black" points="184,-52 184,-86 332,-86 332,-52 184,-52"/>
<text text-anchor="start" x="192" y="-73.9" font-family="Helvetica,sans-Serif" font-size="9.00">de.tu_clausthal.in.mec.common.</text>
<text text-anchor="middle" x="258" y="-60.9" font-family="Helvetica,sans-Serif" font-size="9.00">CPath.get</text>
</a>
</g>
<!-- Node1&#45;&gt;Node4 -->
<g id="edge6" class="edge"><title>Node1&#45;&gt;Node4</title>
<path fill="none" stroke="midnightblue" d="M148.044,-69C156.514,-69 165.195,-69 173.784,-69"/>
<polygon fill="midnightblue" stroke="midnightblue" points="173.808,-72.5001 183.808,-69 173.807,-65.5001 173.808,-72.5001"/>
</g>
<!-- Node5 -->
<g id="node9" class="node"><title>Node5</title>
<a xlink:href="../../dc/d54/a00094.htm#a0b3aaaf4c6a7a0db70c11bc25ce949a4" target="_top" xlink:title="returns the number of path elements ">
<polygon fill="none" stroke="black" points="184,-0 184,-34 332,-34 332,-0 184,-0"/>
<text text-anchor="start" x="192" y="-21.9" font-family="Helvetica,sans-Serif" font-size="9.00">de.tu_clausthal.in.mec.common.</text>
<text text-anchor="middle" x="258" y="-8.9" font-family="Helvetica,sans-Serif" font-size="9.00">CPath.size</text>
</a>
</g>
<!-- Node1&#45;&gt;Node5 -->
<g id="edge8" class="edge"><title>Node1&#45;&gt;Node5</title>
<path fill="none" stroke="midnightblue" d="M134.248,-51.9733C151.404,-47.1248 170.239,-41.8019 187.926,-36.8035"/>
<polygon fill="midnightblue" stroke="midnightblue" points="188.945,-40.1527 197.616,-34.065 187.041,-33.4166 188.945,-40.1527"/>
</g>
<!-- Node3 -->
<g id="node5" class="node"><title>Node3</title>
<a xlink:href="../../dc/d54/a00094.htm#a26364b4068c52ea458cbf02576d1b5c3" target="_top" xlink:title="returns the full path as string ">
<polygon fill="none" stroke="black" points="368,-104 368,-138 516,-138 516,-104 368,-104"/>
<text text-anchor="start" x="376" y="-125.9" font-family="Helvetica,sans-Serif" font-size="9.00">de.tu_clausthal.in.mec.common.</text>
<text text-anchor="middle" x="442" y="-112.9" font-family="Helvetica,sans-Serif" font-size="9.00">CPath.getPath</text>
</a>
</g>
<!-- Node2&#45;&gt;Node3 -->
<g id="edge4" class="edge"><title>Node2&#45;&gt;Node3</title>
<path fill="none" stroke="midnightblue" d="M332.044,-121C340.514,-121 349.195,-121 357.784,-121"/>
<polygon fill="midnightblue" stroke="midnightblue" points="357.808,-124.5 367.808,-121 357.807,-117.5 357.808,-124.5"/>
</g>
</g>
</svg>
