<?xml version="1.0" encoding="UTF-8" standalone="no"?>
<!DOCTYPE svg PUBLIC "-//W3C//DTD SVG 1.1//EN"
 "http://www.w3.org/Graphics/SVG/1.1/DTD/svg11.dtd">
<!-- Generated by graphviz version 2.26.3 (20100126.1600)
 -->
<!-- Title: de.tu_clausthal.in.mec.common.CPath.get Pages: 1 -->
<svg width="448pt" height="146pt"
 viewBox="0.00 0.00 448.00 146.00" xmlns="http://www.w3.org/2000/svg" xmlns:xlink="http://www.w3.org/1999/xlink">
<g id="graph1" class="graph" transform="scale(1 1) rotate(0) translate(4 142)">
<title>de.tu_clausthal.in.mec.common.CPath.get</title>
<!-- Node1 -->
<g id="node1" class="node"><title>Node1</title>
<polygon fill="#bfbfbf" stroke="black" points="0,-52 0,-86 148,-86 148,-52 0,-52"/>
<text text-anchor="start" x="8" y="-73.9" font-family="Helvetica,sans-Serif" font-size="9.00">de.tu_clausthal.in.mec.common.</text>
<text text-anchor="middle" x="74" y="-60.9" font-family="Helvetica,sans-Serif" font-size="9.00">CPath.get</text>
</g>
<!-- Node2 -->
<g id="node3" class="node"><title>Node2</title>
<a xlink:href="../../dc/d54/a00094.htm#ab9c8926773126632dceb99a5467c7243" target="_top" xlink:title="check of a path ends with another path ">
<polygon fill="none" stroke="black" points="238,-104 238,-138 386,-138 386,-104 238,-104"/>
<text text-anchor="start" x="246" y="-125.9" font-family="Helvetica,sans-Serif" font-size="9.00">de.tu_clausthal.in.mec.common.</text>
<text text-anchor="middle" x="312" y="-112.9" font-family="Helvetica,sans-Serif" font-size="9.00">CPath.endsWith</text>
</a>
</g>
<!-- Node1&#45;&gt;Node2 -->
<g id="edge2" class="edge"><title>Node1&#45;&gt;Node2</title>
<path fill="none" stroke="midnightblue" d="M154.509,-88.3395C164.431,-90.6313 174.441,-92.9 184,-95 201.386,-98.8195 220.145,-102.741 237.801,-106.344"/>
<polygon fill="midnightblue" stroke="midnightblue" points="155.169,-84.8997 144.637,-86.0454 153.585,-91.7181 155.169,-84.8997"/>
</g>
<!-- Node3 -->
<g id="node5" class="node"><title>Node3</title>
<a xlink:href="../../d8/d87/a00118.htm#ad0bbe90a05a0cc62dba9105df0d7b0fc" target="_top" xlink:title="returns the node ">
<polygon fill="none" stroke="black" points="238,-52 238,-86 386,-86 386,-52 238,-52"/>
<text text-anchor="start" x="246" y="-73.9" font-family="Helvetica,sans-Serif" font-size="9.00">de.tu_clausthal.in.mec.common.</text>
<text text-anchor="middle" x="312" y="-60.9" font-family="Helvetica,sans-Serif" font-size="9.00">CTreeNode&lt; T &gt;.getNode</text>
</a>
</g>
<!-- Node1&#45;&gt;Node3 -->
<g id="edge4" class="edge"><title>Node1&#45;&gt;Node3</title>
<path fill="none" stroke="midnightblue" d="M158.18,-69C184.096,-69 212.429,-69 237.636,-69"/>
<polygon fill="midnightblue" stroke="midnightblue" points="158,-65.5001 148,-69 158,-72.5001 158,-65.5001"/>
</g>
<!-- Node4 -->
<g id="node7" class="node"><title>Node4</title>
<a xlink:href="../../d9/da4/a00078.htm#a95fee220f217b4bb83ac1cddb846e745" target="_top" xlink:title="returns a mask on the recursive descend ">
<polygon fill="none" stroke="black" points="184.5,-0 184.5,-34 439.5,-34 439.5,-0 184.5,-0"/>
<text text-anchor="start" x="192.5" y="-21.9" font-family="Helvetica,sans-Serif" font-size="9.00">de.tu_clausthal.in.mec.object.mas.generic.implementation.</text>
<text text-anchor="middle" x="312" y="-8.9" font-family="Helvetica,sans-Serif" font-size="9.00">CMask&lt; T &gt;.walk</text>
</a>
</g>
<!-- Node1&#45;&gt;Node4 -->
<g id="edge6" class="edge"><title>Node1&#45;&gt;Node4</title>
<path fill="none" stroke="midnightblue" d="M154.509,-49.6605C164.431,-47.3687 174.441,-45.1 184,-43 197.621,-40.0077 212.085,-36.9525 226.2,-34.0375"/>
<polygon fill="midnightblue" stroke="midnightblue" points="153.585,-46.2819 144.637,-51.9546 155.169,-53.1003 153.585,-46.2819"/>
</g>
</g>
</svg>
