<?xml version="1.0" encoding="UTF-8" standalone="no"?>
<!DOCTYPE svg PUBLIC "-//W3C//DTD SVG 1.1//EN"
 "http://www.w3.org/Graphics/SVG/1.1/DTD/svg11.dtd">
<!-- Generated by graphviz version 2.26.3 (20100126.1600)
 -->
<!-- Title: de.tu_clausthal.in.mec.common.CPath.isEmpty Pages: 1 -->
<!--zoomable 458 -->
<svg id="main" version="1.1" xmlns="http://www.w3.org/2000/svg" xmlns:xlink="http://www.w3.org/1999/xlink" xml:space="preserve" onload="init(evt)">
<style type="text/css"><![CDATA[
.edge:hover path { stroke: red; }
.edge:hover polygon { stroke: red; fill: red; }
]]></style>
<script type="text/javascript"><![CDATA[
var edges = document.getElementsByTagName('g');
if (edges && edges.length) {
  for (var i=0;i<edges.length;i++) {
    if (edges[i].id.substr(0,4)=='edge') {
      edges[i].setAttribute('class','edge');
    }
  }
}
]]></script>
        <defs>
                <circle id="rim" cx="0" cy="0" r="7"/>
                <circle id="rim2" cx="0" cy="0" r="3.5"/>
                <g id="zoomPlus">
                        <use xlink:href="#rim" fill="#404040">
                                <set attributeName="fill" to="#808080" begin="zoomplus.mouseover" end="zoomplus.mouseout"/>
                        </use>
                        <path d="M-4,0h8M0,-4v8" fill="none" stroke="white" stroke-width="1.5" pointer-events="none"/>
                </g>
                <g id="zoomMin">
                        <use xlink:href="#rim" fill="#404040">
                                <set attributeName="fill" to="#808080" begin="zoomminus.mouseover" end="zoomminus.mouseout"/>
                        </use>
                        <path d="M-4,0h8" fill="none" stroke="white" stroke-width="1.5" pointer-events="none"/>
                </g>
                <g id="dirArrow">
                        <path fill="none" stroke="white" stroke-width="1.5" d="M0,-3.0v7 M-2.5,-0.5L0,-3.0L2.5,-0.5"/>
                </g>
               <g id="resetDef">
                       <use xlink:href="#rim2" fill="#404040">
                               <set attributeName="fill" to="#808080" begin="reset.mouseover" end="reset.mouseout"/>
                       </use>
               </g>
        </defs>

<script type="text/javascript">
var viewWidth = 678;
var viewHeight = 458;
var sectionId = 'dynsection-20';
</script>
<script xlink:href="../../svgpan.js"/>
<svg id="graph" class="graph">
<g id="viewport">
<title>de.tu_clausthal.in.mec.common.CPath.isEmpty</title>
<!-- Node1 -->
<g id="node1" class="node"><title>Node1</title>
<polygon fill="#bfbfbf" stroke="black" points="0,-208 0,-242 148,-242 148,-208 0,-208"/>
<text text-anchor="start" x="8" y="-229.9" font-family="Helvetica,sans-Serif" font-size="9.00">de.tu_clausthal.in.mec.common.</text>
<text text-anchor="middle" x="74" y="-216.9" font-family="Helvetica,sans-Serif" font-size="9.00">CPath.isEmpty</text>
</g>
<!-- Node2 -->
<g id="node3" class="node"><title>Node2</title>
<a xlink:href="../../da/dec/a00080.htm#af83f28ac5433ac020b245d63a105542e" target="_top" xlink:title="ctor &#45; creates a message with data and name ">
<polygon fill="none" stroke="black" points="220.5,-416 220.5,-450 403.5,-450 403.5,-416 220.5,-416"/>
<text text-anchor="start" x="228.5" y="-437.9" font-family="Helvetica,sans-Serif" font-size="9.00">de.tu_clausthal.in.mec.runtime.message.</text>
<text text-anchor="middle" x="312" y="-424.9" font-family="Helvetica,sans-Serif" font-size="9.00">CMessage&lt; T &gt;.CMessage</text>
</a>
</g>
<!-- Node1&#45;&gt;Node2 -->
<g id="edge2" class="edge"><title>Node1&#45;&gt;Node2</title>
<path fill="none" stroke="midnightblue" d="M82.3503,-251.727C96.4309,-292.134 128.887,-368.17 184,-407 194.844,-414.64 207.416,-420.147 220.361,-424.095"/>
<polygon fill="midnightblue" stroke="midnightblue" points="85.5947,-250.394 79.0881,-242.032 78.9603,-252.626 85.5947,-250.394"/>
</g>
<!-- Node3 -->
<g id="node5" class="node"><title>Node3</title>
<a xlink:href="../../d9/da4/a00078.htm#a56f49c6f737c8a94e8d0518b53231f5d" target="_top" xlink:title="de.tu_clausthal.in.mec.object.mas.generic.implementation.\lCMask\&lt; T \&gt;.containsLiteral">
<polygon fill="none" stroke="black" points="184.5,-364 184.5,-398 439.5,-398 439.5,-364 184.5,-364"/>
<text text-anchor="start" x="192.5" y="-385.9" font-family="Helvetica,sans-Serif" font-size="9.00">de.tu_clausthal.in.mec.object.mas.generic.implementation.</text>
<text text-anchor="middle" x="312" y="-372.9" font-family="Helvetica,sans-Serif" font-size="9.00">CMask&lt; T &gt;.containsLiteral</text>
</a>
</g>
<!-- Node1&#45;&gt;Node3 -->
<g id="edge4" class="edge"><title>Node1&#45;&gt;Node3</title>
<path fill="none" stroke="midnightblue" d="M88.4289,-250.77C106.648,-280.777 140.884,-329.478 184,-355 189.757,-358.407 195.886,-361.375 202.226,-363.958"/>
<polygon fill="midnightblue" stroke="midnightblue" points="91.404,-248.925 83.297,-242.104 85.3809,-252.492 91.404,-248.925"/>
</g>
<!-- Node4 -->
<g id="node7" class="node"><title>Node4</title>
<a xlink:href="../../d9/da4/a00078.htm#ae8b8a96e67aed630ab2f0801ca1e4f46" target="_top" xlink:title="de.tu_clausthal.in.mec.object.mas.generic.implementation.\lCMask\&lt; T \&gt;.containsMask">
<polygon fill="none" stroke="black" points="184.5,-312 184.5,-346 439.5,-346 439.5,-312 184.5,-312"/>
<text text-anchor="start" x="192.5" y="-333.9" font-family="Helvetica,sans-Serif" font-size="9.00">de.tu_clausthal.in.mec.object.mas.generic.implementation.</text>
<text text-anchor="middle" x="312" y="-320.9" font-family="Helvetica,sans-Serif" font-size="9.00">CMask&lt; T &gt;.containsMask</text>
</a>
</g>
<!-- Node1&#45;&gt;Node4 -->
<g id="edge6" class="edge"><title>Node1&#45;&gt;Node4</title>
<path fill="none" stroke="midnightblue" d="M100.633,-248.749C121.79,-266.35 152.895,-289.533 184,-303 191.908,-306.424 200.288,-309.404 208.826,-311.997"/>
<polygon fill="midnightblue" stroke="midnightblue" points="102.648,-245.868 92.7574,-242.07 98.1208,-251.207 102.648,-245.868"/>
</g>
<!-- Node5 -->
<g id="node9" class="node"><title>Node5</title>
<a xlink:href="../../d8/d87/a00118.htm#aafa3f0d75df95108dae29e4d306187a1" target="_top" xlink:title="traversing of the nodes ">
<polygon fill="none" stroke="black" points="238,-260 238,-294 386,-294 386,-260 238,-260"/>
<text text-anchor="start" x="246" y="-281.9" font-family="Helvetica,sans-Serif" font-size="9.00">de.tu_clausthal.in.mec.common.</text>
<text text-anchor="middle" x="312" y="-268.9" font-family="Helvetica,sans-Serif" font-size="9.00">CTreeNode&lt; T &gt;.getTree</text>
</a>
</g>
<!-- Node1&#45;&gt;Node5 -->
<g id="edge8" class="edge"><title>Node1&#45;&gt;Node5</title>
<path fill="none" stroke="midnightblue" d="M154.509,-244.34C164.431,-246.631 174.441,-248.9 184,-251 201.386,-254.819 220.145,-258.741 237.801,-262.344"/>
<polygon fill="midnightblue" stroke="midnightblue" points="155.169,-240.9 144.637,-242.045 153.585,-247.718 155.169,-240.9"/>
</g>
<!-- Node6 -->
<g id="node11" class="node"><title>Node6</title>
<a xlink:href="../../d4/d63/a00082.htm#ac70ae445e0305d92e7008322ba1bee5e" target="_top" xlink:title="pushs a message to the queue ">
<polygon fill="none" stroke="black" points="220.5,-208 220.5,-242 403.5,-242 403.5,-208 220.5,-208"/>
<text text-anchor="start" x="228.5" y="-229.9" font-family="Helvetica,sans-Serif" font-size="9.00">de.tu_clausthal.in.mec.runtime.message.</text>
<text text-anchor="middle" x="312" y="-216.9" font-family="Helvetica,sans-Serif" font-size="9.00">CMessageSystem.pushMessage</text>
</a>
</g>
<!-- Node1&#45;&gt;Node6 -->
<g id="edge10" class="edge"><title>Node1&#45;&gt;Node6</title>
<path fill="none" stroke="midnightblue" d="M158.091,-225C178.274,-225 199.926,-225 220.43,-225"/>
<polygon fill="midnightblue" stroke="midnightblue" points="158,-221.5 148,-225 158,-228.5 158,-221.5"/>
</g>
<!-- Node7 -->
<g id="node13" class="node"><title>Node7</title>
<a xlink:href="../../dc/d54/a00094.htm#aa2754dd522271a7eef34bf54f63c26d2" target="_top" xlink:title="remove the suffix from the path ">
<polygon fill="none" stroke="black" points="238,-156 238,-190 386,-190 386,-156 238,-156"/>
<text text-anchor="start" x="246" y="-177.9" font-family="Helvetica,sans-Serif" font-size="9.00">de.tu_clausthal.in.mec.common.</text>
<text text-anchor="middle" x="312" y="-164.9" font-family="Helvetica,sans-Serif" font-size="9.00">CPath.removeSuffix</text>
</a>
</g>
<!-- Node1&#45;&gt;Node7 -->
<g id="edge12" class="edge"><title>Node1&#45;&gt;Node7</title>
<path fill="none" stroke="midnightblue" d="M154.509,-205.66C164.431,-203.369 174.441,-201.1 184,-199 201.386,-195.181 220.145,-191.259 237.801,-187.656"/>
<polygon fill="midnightblue" stroke="midnightblue" points="153.585,-202.282 144.637,-207.955 155.169,-209.1 153.585,-202.282"/>
</g>
<!-- Node9 -->
<g id="node17" class="node"><title>Node9</title>
<a xlink:href="../../d5/d13/a00205.htm#a8f448481a683098fb25984df68378d98" target="_top" xlink:title="test&#45;case empty path ">
<polygon fill="none" stroke="black" points="238,-104 238,-138 386,-138 386,-104 238,-104"/>
<text text-anchor="start" x="246" y="-125.9" font-family="Helvetica,sans-Serif" font-size="9.00">de.tu_clausthal.in.mec.common.</text>
<text text-anchor="middle" x="312" y="-112.9" font-family="Helvetica,sans-Serif" font-size="9.00">Test_CPath.testEmpty</text>
</a>
</g>
<!-- Node1&#45;&gt;Node9 -->
<g id="edge16" class="edge"><title>Node1&#45;&gt;Node9</title>
<path fill="none" stroke="midnightblue" d="M100.633,-201.251C121.79,-183.65 152.895,-160.467 184,-147 200.856,-139.702 219.859,-134.419 237.964,-130.607"/>
<polygon fill="midnightblue" stroke="midnightblue" points="98.1208,-198.793 92.7574,-207.93 102.648,-204.132 98.1208,-198.793"/>
</g>
<!-- Node10 -->
<g id="node19" class="node"><title>Node10</title>
<a xlink:href="../../d4/d63/a00082.htm#ae1f2032b7349a669981bd622fdc7041f" target="_top" xlink:title="unregister a participant ">
<polygon fill="none" stroke="black" points="220.5,-52 220.5,-86 403.5,-86 403.5,-52 220.5,-52"/>
<text text-anchor="start" x="228.5" y="-73.9" font-family="Helvetica,sans-Serif" font-size="9.00">de.tu_clausthal.in.mec.runtime.message.</text>
<text text-anchor="middle" x="312" y="-60.9" font-family="Helvetica,sans-Serif" font-size="9.00">CMessageSystem.unregister</text>
</a>
</g>
<!-- Node1&#45;&gt;Node10 -->
<g id="edge18" class="edge"><title>Node1&#45;&gt;Node10</title>
<path fill="none" stroke="midnightblue" d="M88.4289,-199.23C106.648,-169.223 140.884,-120.522 184,-95 195.123,-88.416 207.638,-83.475 220.375,-79.7717"/>
<polygon fill="midnightblue" stroke="midnightblue" points="85.3809,-197.508 83.297,-207.896 91.404,-201.075 85.3809,-197.508"/>
</g>
<!-- Node11 -->
<g id="node21" class="node"><title>Node11</title>
<a xlink:href="../../d9/da4/a00078.htm#a95fee220f217b4bb83ac1cddb846e745" target="_top" xlink:title="returns a mask on the recursive descend ">
<polygon fill="none" stroke="black" points="184.5,-0 184.5,-34 439.5,-34 439.5,-0 184.5,-0"/>
<text text-anchor="start" x="192.5" y="-21.9" font-family="Helvetica,sans-Serif" font-size="9.00">de.tu_clausthal.in.mec.object.mas.generic.implementation.</text>
<text text-anchor="middle" x="312" y="-8.9" font-family="Helvetica,sans-Serif" font-size="9.00">CMask&lt; T &gt;.walk</text>
</a>
</g>
<!-- Node1&#45;&gt;Node11 -->
<g id="edge20" class="edge"><title>Node1&#45;&gt;Node11</title>
<path fill="none" stroke="midnightblue" d="M82.3503,-198.273C96.4309,-157.866 128.887,-81.8297 184,-43 188.82,-39.6043 193.981,-36.6301 199.364,-34.027"/>
<polygon fill="midnightblue" stroke="midnightblue" points="78.9603,-197.374 79.0881,-207.968 85.5947,-199.606 78.9603,-197.374"/>
</g>
<!-- Node8 -->
<g id="node15" class="node"><title>Node8</title>
<a xlink:href="../../d1/d6f/a00063.htm#a3cdcc2efba0640bfff2a553f817cd476" target="_top" xlink:title="de.tu_clausthal.in.mec.object.mas.jason.\lCAgent\&lt; T \&gt;.CJasonArchitecture.broadcast">
<polygon fill="none" stroke="black" points="476.5,-156 476.5,-190 669.5,-190 669.5,-156 476.5,-156"/>
<text text-anchor="start" x="484.5" y="-177.9" font-family="Helvetica,sans-Serif" font-size="9.00">de.tu_clausthal.in.mec.object.mas.jason.</text>
<text text-anchor="middle" x="573" y="-164.9" font-family="Helvetica,sans-Serif" font-size="9.00">CAgent&lt; T &gt;.CJasonArchitecture.broadcast</text>
</a>
</g>
<!-- Node7&#45;&gt;Node8 -->
<g id="edge14" class="edge"><title>Node7&#45;&gt;Node8</title>
<path fill="none" stroke="midnightblue" d="M396.115,-173C421.669,-173 449.951,-173 476.265,-173"/>
<polygon fill="midnightblue" stroke="midnightblue" points="396.094,-169.5 386.094,-173 396.094,-176.5 396.094,-169.5"/>
</g>
</g>
</svg>
        <g id="navigator" transform="translate(0 0)" fill="#404254">
                <rect fill="#f2f5e9" fill-opacity="0.5" stroke="#606060" stroke-width=".5" x="0" y="0" width="60" height="60"/>
                <use id="zoomplus" xlink:href="#zoomPlus" x="17" y="9" onmousedown="handleZoom(evt,'in')"/>
                <use id="zoomminus" xlink:href="#zoomMin" x="42" y="9" onmousedown="handleZoom(evt,'out')"/>
                <use id="reset" xlink:href="#resetDef" x="30" y="36" onmousedown="handleReset()"/>
                <g id="arrowUp" xlink:href="#dirArrow" transform="translate(30 24)" onmousedown="handlePan(0,-1)">
                  <use xlink:href="#rim" fill="#404040">
                        <set attributeName="fill" to="#808080" begin="arrowUp.mouseover" end="arrowUp.mouseout"/>
                  </use>
                  <path fill="none" stroke="white" stroke-width="1.5" d="M0,-3.0v7 M-2.5,-0.5L0,-3.0L2.5,-0.5"/>
                </g>
                <g id="arrowRight" xlink:href="#dirArrow" transform="rotate(90) translate(36 -43)" onmousedown="handlePan(1,0)">
                  <use xlink:href="#rim" fill="#404040">
                        <set attributeName="fill" to="#808080" begin="arrowRight.mouseover" end="arrowRight.mouseout"/>
                  </use>
                  <path fill="none" stroke="white" stroke-width="1.5" d="M0,-3.0v7 M-2.5,-0.5L0,-3.0L2.5,-0.5"/>
                </g>
                <g id="arrowDown" xlink:href="#dirArrow" transform="rotate(180) translate(-30 -48)" onmousedown="handlePan(0,1)">
                  <use xlink:href="#rim" fill="#404040">
                        <set attributeName="fill" to="#808080" begin="arrowDown.mouseover" end="arrowDown.mouseout"/>
                  </use>
                  <path fill="none" stroke="white" stroke-width="1.5" d="M0,-3.0v7 M-2.5,-0.5L0,-3.0L2.5,-0.5"/>
                </g>
                <g id="arrowLeft" xlink:href="#dirArrow" transform="rotate(270) translate(-36 17)" onmousedown="handlePan(-1,0)">
                  <use xlink:href="#rim" fill="#404040">
                        <set attributeName="fill" to="#808080" begin="arrowLeft.mouseover" end="arrowLeft.mouseout"/>
                  </use>
                  <path fill="none" stroke="white" stroke-width="1.5" d="M0,-3.0v7 M-2.5,-0.5L0,-3.0L2.5,-0.5"/>
                </g>
        </g>
        <svg viewBox="0 0 15 15" width="100%" height="30px" preserveAspectRatio="xMaxYMin meet">
         <g id="arrow_out" transform="scale(0.3 0.3)">
          <a xlink:href="a00094_a4aa59b201e56cd0f80d5ab081b57517c_icgraph_org.svg" target="_base">
           <rect id="button" ry="5" rx="5" y="6" x="6" height="38" width="38"
                fill="#f2f5e9" fill-opacity="0.5" stroke="#606060" stroke-width="1.0"/>
           <path id="arrow"
             d="M 11.500037,31.436501 C 11.940474,20.09759 22.043105,11.32322 32.158766,21.979434 L 37.068811,17.246167 C 37.068811,17.246167 37.088388,32 37.088388,32 L 22.160133,31.978069 C 22.160133,31.978069 26.997745,27.140456 26.997745,27.140456 C 18.528582,18.264221 13.291696,25.230495 11.500037,31.436501 z"
             style="fill:#404040;"/>
          </a>
         </g>
        </svg>
</svg>
