<?xml version="1.0" encoding="UTF-8" standalone="no"?>
<!DOCTYPE svg PUBLIC "-//W3C//DTD SVG 1.1//EN"
 "http://www.w3.org/Graphics/SVG/1.1/DTD/svg11.dtd">
<!-- Generated by graphviz version 2.26.3 (20100126.1600)
 -->
<!-- Title: de.tu_clausthal.in.mec.common.CPath.iterator Pages: 1 -->
<svg width="360pt" height="94pt"
 viewBox="0.00 0.00 360.00 94.00" xmlns="http://www.w3.org/2000/svg" xmlns:xlink="http://www.w3.org/1999/xlink">
<g id="graph1" class="graph" transform="scale(1 1) rotate(0) translate(4 90)">
<title>de.tu_clausthal.in.mec.common.CPath.iterator</title>
<!-- Node1 -->
<g id="node1" class="node"><title>Node1</title>
<polygon fill="#bfbfbf" stroke="black" points="0,-26 0,-60 148,-60 148,-26 0,-26"/>
<text text-anchor="start" x="8" y="-47.9" font-family="Helvetica,sans-Serif" font-size="9.00">de.tu_clausthal.in.mec.common.</text>
<text text-anchor="middle" x="74" y="-34.9" font-family="Helvetica,sans-Serif" font-size="9.00">CPath.iterator</text>
</g>
<!-- Node2 -->
<g id="node3" class="node"><title>Node2</title>
<a xlink:href="../../d1/dc6/a00037.htm#a5998eb7de6fcc4bf4ab1d65fe72300e0" target="_top" xlink:title="converts any collection type into a typed array ">
<polygon fill="none" stroke="black" points="184.5,-52 184.5,-86 351.5,-86 351.5,-52 184.5,-52"/>
<text text-anchor="start" x="192.5" y="-73.9" font-family="Helvetica,sans-Serif" font-size="9.00">de.tu_clausthal.in.mec.common.</text>
<text text-anchor="middle" x="268" y="-60.9" font-family="Helvetica,sans-Serif" font-size="9.00">CCommon.convertCollectionToArray</text>
</a>
</g>
<!-- Node1&#45;&gt;Node2 -->
<g id="edge2" class="edge"><title>Node1&#45;&gt;Node2</title>
<path fill="none" stroke="midnightblue" d="M148.173,-52.9408C156.8,-54.0969 165.682,-55.2873 174.525,-56.4725"/>
<polygon fill="midnightblue" stroke="midnightblue" points="174.101,-59.9467 184.477,-57.8062 175.03,-53.0088 174.101,-59.9467"/>
</g>
<!-- Node3 -->
<g id="node5" class="node"><title>Node3</title>
<a xlink:href="../../dc/d54/a00094.htm#acc1851e52b605a9cab13d2b85c2acb68" target="_top" xlink:title="copy&#45;ctor with arguments ">
<polygon fill="none" stroke="black" points="194,-0 194,-34 342,-34 342,-0 194,-0"/>
<text text-anchor="start" x="202" y="-21.9" font-family="Helvetica,sans-Serif" font-size="9.00">de.tu_clausthal.in.mec.common.</text>
<text text-anchor="middle" x="268" y="-8.9" font-family="Helvetica,sans-Serif" font-size="9.00">CPath.CPath</text>
</a>
</g>
<!-- Node1&#45;&gt;Node3 -->
<g id="edge4" class="edge"><title>Node1&#45;&gt;Node3</title>
<path fill="none" stroke="midnightblue" d="M148.173,-33.0592C159.873,-31.4913 172.042,-29.8603 183.946,-28.2649"/>
<polygon fill="midnightblue" stroke="midnightblue" points="184.421,-31.7327 193.868,-26.9353 183.491,-24.7947 184.421,-31.7327"/>
</g>
</g>
</svg>
