<?xml version="1.0" encoding="UTF-8" standalone="no"?>
<!DOCTYPE svg PUBLIC "-//W3C//DTD SVG 1.1//EN"
 "http://www.w3.org/Graphics/SVG/1.1/DTD/svg11.dtd">
<!-- Generated by graphviz version 2.26.3 (20100126.1600)
 -->
<!-- Title: de.tu_clausthal.in.mec.common.CPath.size Pages: 1 -->
<!--zoomable 392 -->
<svg id="main" version="1.1" xmlns="http://www.w3.org/2000/svg" xmlns:xlink="http://www.w3.org/1999/xlink" xml:space="preserve" onload="init(evt)">
<style type="text/css"><![CDATA[
.edge:hover path { stroke: red; }
.edge:hover polygon { stroke: red; fill: red; }
]]></style>
<script type="text/javascript"><![CDATA[
var edges = document.getElementsByTagName('g');
if (edges && edges.length) {
  for (var i=0;i<edges.length;i++) {
    if (edges[i].id.substr(0,4)=='edge') {
      edges[i].setAttribute('class','edge');
    }
  }
}
]]></script>
        <defs>
                <circle id="rim" cx="0" cy="0" r="7"/>
                <circle id="rim2" cx="0" cy="0" r="3.5"/>
                <g id="zoomPlus">
                        <use xlink:href="#rim" fill="#404040">
                                <set attributeName="fill" to="#808080" begin="zoomplus.mouseover" end="zoomplus.mouseout"/>
                        </use>
                        <path d="M-4,0h8M0,-4v8" fill="none" stroke="white" stroke-width="1.5" pointer-events="none"/>
                </g>
                <g id="zoomMin">
                        <use xlink:href="#rim" fill="#404040">
                                <set attributeName="fill" to="#808080" begin="zoomminus.mouseover" end="zoomminus.mouseout"/>
                        </use>
                        <path d="M-4,0h8" fill="none" stroke="white" stroke-width="1.5" pointer-events="none"/>
                </g>
                <g id="dirArrow">
                        <path fill="none" stroke="white" stroke-width="1.5" d="M0,-3.0v7 M-2.5,-0.5L0,-3.0L2.5,-0.5"/>
                </g>
               <g id="resetDef">
                       <use xlink:href="#rim2" fill="#404040">
                               <set attributeName="fill" to="#808080" begin="reset.mouseover" end="reset.mouseout"/>
                       </use>
               </g>
        </defs>

<script type="text/javascript">
var viewWidth = 690;
var viewHeight = 392;
var sectionId = 'dynsection-29';
</script>
<script xlink:href="../../svgpan.js"/>
<svg id="graph" class="graph">
<g id="viewport">
<title>de.tu_clausthal.in.mec.common.CPath.size</title>
<!-- Node1 -->
<g id="node1" class="node"><title>Node1</title>
<polygon fill="#bfbfbf" stroke="black" points="0,-168 0,-202 148,-202 148,-168 0,-168"/>
<text text-anchor="start" x="8" y="-189.9" font-family="Helvetica,sans-Serif" font-size="9.00">de.tu_clausthal.in.mec.common.</text>
<text text-anchor="middle" x="74" y="-176.9" font-family="Helvetica,sans-Serif" font-size="9.00">CPath.size</text>
</g>
<!-- Node2 -->
<g id="node3" class="node"><title>Node2</title>
<a xlink:href="../../d1/d6f/a00063.htm#a3cdcc2efba0640bfff2a553f817cd476" target="_top" xlink:title="de.tu_clausthal.in.mec.object.mas.jason.\lCAgent\&lt; T \&gt;.CJasonArchitecture.broadcast">
<polygon fill="none" stroke="black" points="215.5,-350 215.5,-384 408.5,-384 408.5,-350 215.5,-350"/>
<text text-anchor="start" x="223.5" y="-371.9" font-family="Helvetica,sans-Serif" font-size="9.00">de.tu_clausthal.in.mec.object.mas.jason.</text>
<text text-anchor="middle" x="312" y="-358.9" font-family="Helvetica,sans-Serif" font-size="9.00">CAgent&lt; T &gt;.CJasonArchitecture.broadcast</text>
</a>
</g>
<!-- Node1&#45;&gt;Node2 -->
<g id="edge2" class="edge"><title>Node1&#45;&gt;Node2</title>
<path fill="none" stroke="midnightblue" d="M84.9654,-211.313C101.153,-246.721 134.924,-308.951 184,-341 193.493,-347.199 204.161,-351.969 215.182,-355.631"/>
<polygon fill="midnightblue" stroke="midnightblue" points="88.1248,-209.804 80.8676,-202.085 81.7272,-212.645 88.1248,-209.804"/>
</g>
<!-- Node3 -->
<g id="node5" class="node"><title>Node3</title>
<a xlink:href="../../d9/da4/a00078.htm#a56f49c6f737c8a94e8d0518b53231f5d" target="_top" xlink:title="de.tu_clausthal.in.mec.object.mas.generic.implementation.\lCMask\&lt; T \&gt;.containsLiteral">
<polygon fill="none" stroke="black" points="184.5,-298 184.5,-332 439.5,-332 439.5,-298 184.5,-298"/>
<text text-anchor="start" x="192.5" y="-319.9" font-family="Helvetica,sans-Serif" font-size="9.00">de.tu_clausthal.in.mec.object.mas.generic.implementation.</text>
<text text-anchor="middle" x="312" y="-306.9" font-family="Helvetica,sans-Serif" font-size="9.00">CMask&lt; T &gt;.containsLiteral</text>
</a>
</g>
<!-- Node1&#45;&gt;Node3 -->
<g id="edge4" class="edge"><title>Node1&#45;&gt;Node3</title>
<path fill="none" stroke="midnightblue" d="M93.3511,-210.082C113.367,-234.188 146.861,-269.717 184,-289 190.541,-292.396 197.484,-295.349 204.621,-297.916"/>
<polygon fill="midnightblue" stroke="midnightblue" points="95.8709,-207.633 86.8496,-202.078 90.4373,-212.046 95.8709,-207.633"/>
</g>
<!-- Node4 -->
<g id="node7" class="node"><title>Node4</title>
<a xlink:href="../../d9/da4/a00078.htm#ae8b8a96e67aed630ab2f0801ca1e4f46" target="_top" xlink:title="de.tu_clausthal.in.mec.object.mas.generic.implementation.\lCMask\&lt; T \&gt;.containsMask">
<polygon fill="none" stroke="black" points="184.5,-246 184.5,-280 439.5,-280 439.5,-246 184.5,-246"/>
<text text-anchor="start" x="192.5" y="-267.9" font-family="Helvetica,sans-Serif" font-size="9.00">de.tu_clausthal.in.mec.object.mas.generic.implementation.</text>
<text text-anchor="middle" x="312" y="-254.9" font-family="Helvetica,sans-Serif" font-size="9.00">CMask&lt; T &gt;.containsMask</text>
</a>
</g>
<!-- Node1&#45;&gt;Node4 -->
<g id="edge6" class="edge"><title>Node1&#45;&gt;Node4</title>
<path fill="none" stroke="midnightblue" d="M113.952,-206.748C134.414,-217.142 160.012,-229.024 184,-237 194.006,-240.327 204.6,-243.303 215.238,-245.946"/>
<polygon fill="midnightblue" stroke="midnightblue" points="115.428,-203.572 104.937,-202.097 112.219,-209.793 115.428,-203.572"/>
</g>
<!-- Node5 -->
<g id="node9" class="node"><title>Node5</title>
<a xlink:href="../../dc/d54/a00094.htm#ab9c8926773126632dceb99a5467c7243" target="_top" xlink:title="check of a path ends with another path ">
<polygon fill="none" stroke="black" points="238,-194 238,-228 386,-228 386,-194 238,-194"/>
<text text-anchor="start" x="246" y="-215.9" font-family="Helvetica,sans-Serif" font-size="9.00">de.tu_clausthal.in.mec.common.</text>
<text text-anchor="middle" x="312" y="-202.9" font-family="Helvetica,sans-Serif" font-size="9.00">CPath.endsWith</text>
</a>
</g>
<!-- Node1&#45;&gt;Node5 -->
<g id="edge8" class="edge"><title>Node1&#45;&gt;Node5</title>
<path fill="none" stroke="midnightblue" d="M158.18,-194.196C184.096,-197.027 212.429,-200.122 237.636,-202.876"/>
<polygon fill="midnightblue" stroke="midnightblue" points="158.321,-190.691 148,-193.084 157.561,-197.649 158.321,-190.691"/>
</g>
<!-- Node6 -->
<g id="node11" class="node"><title>Node6</title>
<a xlink:href="../../d8/d87/a00118.htm#ad0bbe90a05a0cc62dba9105df0d7b0fc" target="_top" xlink:title="returns the node ">
<polygon fill="none" stroke="black" points="238,-142 238,-176 386,-176 386,-142 238,-142"/>
<text text-anchor="start" x="246" y="-163.9" font-family="Helvetica,sans-Serif" font-size="9.00">de.tu_clausthal.in.mec.common.</text>
<text text-anchor="middle" x="312" y="-150.9" font-family="Helvetica,sans-Serif" font-size="9.00">CTreeNode&lt; T &gt;.getNode</text>
</a>
</g>
<!-- Node1&#45;&gt;Node6 -->
<g id="edge10" class="edge"><title>Node1&#45;&gt;Node6</title>
<path fill="none" stroke="midnightblue" d="M158.18,-175.804C184.096,-172.973 212.429,-169.878 237.636,-167.124"/>
<polygon fill="midnightblue" stroke="midnightblue" points="157.561,-172.351 148,-176.916 158.321,-179.309 157.561,-172.351"/>
</g>
<!-- Node7 -->
<g id="node13" class="node"><title>Node7</title>
<a xlink:href="../../d9/d4b/a00117.htm#a66efae3ef0fd18ac177e302f1e0dfb60" target="_top" xlink:title="splits the literal path ">
<polygon fill="none" stroke="black" points="476,-74 476,-108 682,-108 682,-74 476,-74"/>
<text text-anchor="start" x="484" y="-95.9" font-family="Helvetica,sans-Serif" font-size="9.00">de.tu_clausthal.in.mec.object.mas.jason.belief.</text>
<text text-anchor="middle" x="579" y="-82.9" font-family="Helvetica,sans-Serif" font-size="9.00">CTreeBeliefBase.splitLiteralPath</text>
</a>
</g>
<!-- Node1&#45;&gt;Node7 -->
<g id="edge12" class="edge"><title>Node1&#45;&gt;Node7</title>
<path fill="none" stroke="midnightblue" d="M112.332,-162.973C132.926,-152.158 159.133,-139.983 184,-133 237.033,-118.108 377.693,-105.447 475.967,-98.0313"/>
<polygon fill="midnightblue" stroke="midnightblue" points="110.449,-160.011 103.29,-167.822 113.757,-166.18 110.449,-160.011"/>
</g>
<!-- Node8 -->
<g id="node15" class="node"><title>Node8</title>
<a xlink:href="../../dc/d54/a00094.htm#acd573437f8aba9e5a1a92a0723a09f3f" target="_top" xlink:title="check of a path starts with another path ">
<polygon fill="none" stroke="black" points="238,-52 238,-86 386,-86 386,-52 238,-52"/>
<text text-anchor="start" x="246" y="-73.9" font-family="Helvetica,sans-Serif" font-size="9.00">de.tu_clausthal.in.mec.common.</text>
<text text-anchor="middle" x="312" y="-60.9" font-family="Helvetica,sans-Serif" font-size="9.00">CPath.startsWith</text>
</a>
</g>
<!-- Node1&#45;&gt;Node8 -->
<g id="edge14" class="edge"><title>Node1&#45;&gt;Node8</title>
<path fill="none" stroke="midnightblue" d="M98.6108,-161.012C119.652,-141.798 151.591,-115.565 184,-100 200.695,-91.9818 219.639,-85.9341 237.739,-81.4127"/>
<polygon fill="midnightblue" stroke="midnightblue" points="96.0408,-158.623 91.1017,-167.996 100.808,-163.749 96.0408,-158.623"/>
</g>
<!-- Node9 -->
<g id="node18" class="node"><title>Node9</title>
<a xlink:href="../../d5/d13/a00205.htm#a8f448481a683098fb25984df68378d98" target="_top" xlink:title="test&#45;case empty path ">
<polygon fill="none" stroke="black" points="238,-0 238,-34 386,-34 386,-0 238,-0"/>
<text text-anchor="start" x="246" y="-21.9" font-family="Helvetica,sans-Serif" font-size="9.00">de.tu_clausthal.in.mec.common.</text>
<text text-anchor="middle" x="312" y="-8.9" font-family="Helvetica,sans-Serif" font-size="9.00">Test_CPath.testEmpty</text>
</a>
</g>
<!-- Node1&#45;&gt;Node9 -->
<g id="edge18" class="edge"><title>Node1&#45;&gt;Node9</title>
<path fill="none" stroke="midnightblue" d="M86.7622,-158.839C104.081,-126.269 138.197,-71.4647 184,-43 200.082,-33.0057 219.291,-26.765 237.875,-22.8926"/>
<polygon fill="midnightblue" stroke="midnightblue" points="83.6189,-157.298 82.1296,-167.788 89.8353,-160.516 83.6189,-157.298"/>
</g>
<!-- Node8&#45;&gt;Node7 -->
<g id="edge16" class="edge"><title>Node8&#45;&gt;Node7</title>
<path fill="none" stroke="midnightblue" d="M396.29,-75.9453C421.542,-78.0259 449.524,-80.3316 475.845,-82.5004"/>
<polygon fill="midnightblue" stroke="midnightblue" points="396.273,-72.4321 386.02,-75.099 395.699,-79.4085 396.273,-72.4321"/>
</g>
</g>
</svg>
        <g id="navigator" transform="translate(0 0)" fill="#404254">
                <rect fill="#f2f5e9" fill-opacity="0.5" stroke="#606060" stroke-width=".5" x="0" y="0" width="60" height="60"/>
                <use id="zoomplus" xlink:href="#zoomPlus" x="17" y="9" onmousedown="handleZoom(evt,'in')"/>
                <use id="zoomminus" xlink:href="#zoomMin" x="42" y="9" onmousedown="handleZoom(evt,'out')"/>
                <use id="reset" xlink:href="#resetDef" x="30" y="36" onmousedown="handleReset()"/>
                <g id="arrowUp" xlink:href="#dirArrow" transform="translate(30 24)" onmousedown="handlePan(0,-1)">
                  <use xlink:href="#rim" fill="#404040">
                        <set attributeName="fill" to="#808080" begin="arrowUp.mouseover" end="arrowUp.mouseout"/>
                  </use>
                  <path fill="none" stroke="white" stroke-width="1.5" d="M0,-3.0v7 M-2.5,-0.5L0,-3.0L2.5,-0.5"/>
                </g>
                <g id="arrowRight" xlink:href="#dirArrow" transform="rotate(90) translate(36 -43)" onmousedown="handlePan(1,0)">
                  <use xlink:href="#rim" fill="#404040">
                        <set attributeName="fill" to="#808080" begin="arrowRight.mouseover" end="arrowRight.mouseout"/>
                  </use>
                  <path fill="none" stroke="white" stroke-width="1.5" d="M0,-3.0v7 M-2.5,-0.5L0,-3.0L2.5,-0.5"/>
                </g>
                <g id="arrowDown" xlink:href="#dirArrow" transform="rotate(180) translate(-30 -48)" onmousedown="handlePan(0,1)">
                  <use xlink:href="#rim" fill="#404040">
                        <set attributeName="fill" to="#808080" begin="arrowDown.mouseover" end="arrowDown.mouseout"/>
                  </use>
                  <path fill="none" stroke="white" stroke-width="1.5" d="M0,-3.0v7 M-2.5,-0.5L0,-3.0L2.5,-0.5"/>
                </g>
                <g id="arrowLeft" xlink:href="#dirArrow" transform="rotate(270) translate(-36 17)" onmousedown="handlePan(-1,0)">
                  <use xlink:href="#rim" fill="#404040">
                        <set attributeName="fill" to="#808080" begin="arrowLeft.mouseover" end="arrowLeft.mouseout"/>
                  </use>
                  <path fill="none" stroke="white" stroke-width="1.5" d="M0,-3.0v7 M-2.5,-0.5L0,-3.0L2.5,-0.5"/>
                </g>
        </g>
        <svg viewBox="0 0 15 15" width="100%" height="30px" preserveAspectRatio="xMaxYMin meet">
         <g id="arrow_out" transform="scale(0.3 0.3)">
          <a xlink:href="a00094_a0b3aaaf4c6a7a0db70c11bc25ce949a4_icgraph_org.svg" target="_base">
           <rect id="button" ry="5" rx="5" y="6" x="6" height="38" width="38"
                fill="#f2f5e9" fill-opacity="0.5" stroke="#606060" stroke-width="1.0"/>
           <path id="arrow"
             d="M 11.500037,31.436501 C 11.940474,20.09759 22.043105,11.32322 32.158766,21.979434 L 37.068811,17.246167 C 37.068811,17.246167 37.088388,32 37.088388,32 L 22.160133,31.978069 C 22.160133,31.978069 26.997745,27.140456 26.997745,27.140456 C 18.528582,18.264221 13.291696,25.230495 11.500037,31.436501 z"
             style="fill:#404040;"/>
          </a>
         </g>
        </svg>
</svg>
