<?xml version="1.0" encoding="UTF-8" standalone="no"?>
<!DOCTYPE svg PUBLIC "-//W3C//DTD SVG 1.1//EN"
 "http://www.w3.org/Graphics/SVG/1.1/DTD/svg11.dtd">
<!-- Generated by graphviz version 2.26.3 (20100126.1600)
 -->
<!-- Title: de.tu_clausthal.in.mec.ui.IInspectorDefault Pages: 1 -->
<svg width="266pt" height="330pt"
 viewBox="0.00 0.00 266.00 330.00" xmlns="http://www.w3.org/2000/svg" xmlns:xlink="http://www.w3.org/1999/xlink">
<g id="graph1" class="graph" transform="scale(1 1) rotate(0) translate(4 326)">
<title>de.tu_clausthal.in.mec.ui.IInspectorDefault</title>
<!-- Node1 -->
<g id="node1" class="node"><title>Node1</title>
<polygon fill="#bfbfbf" stroke="black" points="69,-1 69,-77 189,-77 189,-1 69,-1"/>
<text text-anchor="start" x="77" y="-64.9" font-family="Helvetica,sans-Serif" font-size="9.00">de.tu_clausthal.in.mec.ui.</text>
<text text-anchor="middle" x="129" y="-51.9" font-family="Helvetica,sans-Serif" font-size="9.00">IInspectorDefault</text>
<polyline fill="none" stroke="black" points="69,-43 189,-43 "/>
<text text-anchor="start" x="77" y="-30.9" font-family="Helvetica,sans-Serif" font-size="9.00">&#45; m_inspect</text>
<polyline fill="none" stroke="black" points="69,-22 189,-22 "/>
<text text-anchor="start" x="77" y="-9.9" font-family="Helvetica,sans-Serif" font-size="9.00">+ inspect()</text>
</g>
<!-- Node2 -->
<g id="node2" class="node"><title>Node2</title>
<a xlink:href="../../dd/df4/a00193.htm" target="_top" xlink:title="class to handle UI events with encapsulate the default lister structures ">
<polygon fill="none" stroke="black" points="0,-115 0,-321 120,-321 120,-115 0,-115"/>
<text text-anchor="start" x="8" y="-308.9" font-family="Helvetica,sans-Serif" font-size="9.00">de.tu_clausthal.in.mec.ui.</text>
<text text-anchor="middle" x="60" y="-295.9" font-family="Helvetica,sans-Serif" font-size="9.00">IUIListener</text>
<polyline fill="none" stroke="black" points="0,-287 120,-287 "/>
<text text-anchor="start" x="8" y="-274.9" font-family="Helvetica,sans-Serif" font-size="9.00"># c_maxzoom</text>
<text text-anchor="start" x="8" y="-261.9" font-family="Helvetica,sans-Serif" font-size="9.00"># c_miniconsize</text>
<polyline fill="none" stroke="black" points="0,-253 120,-253 "/>
<text text-anchor="start" x="8" y="-240.9" font-family="Helvetica,sans-Serif" font-size="9.00">+ IUIListener()</text>
<text text-anchor="start" x="8" y="-227.9" font-family="Helvetica,sans-Serif" font-size="9.00">+ mouseClicked()</text>
<text text-anchor="start" x="8" y="-214.9" font-family="Helvetica,sans-Serif" font-size="9.00">+ mouseEntered()</text>
<text text-anchor="start" x="8" y="-201.9" font-family="Helvetica,sans-Serif" font-size="9.00">+ mouseExited()</text>
<text text-anchor="start" x="8" y="-188.9" font-family="Helvetica,sans-Serif" font-size="9.00">+ mousePressed()</text>
<text text-anchor="start" x="8" y="-175.9" font-family="Helvetica,sans-Serif" font-size="9.00">+ mouseReleased()</text>
<text text-anchor="start" x="8" y="-162.9" font-family="Helvetica,sans-Serif" font-size="9.00">+ onClick()</text>
<text text-anchor="start" x="8" y="-149.9" font-family="Helvetica,sans-Serif" font-size="9.00">+ release()</text>
<text text-anchor="start" x="8" y="-136.9" font-family="Helvetica,sans-Serif" font-size="9.00"># iconscale()</text>
<text text-anchor="start" x="8" y="-123.9" font-family="Helvetica,sans-Serif" font-size="9.00"># iconsize()</text>
</a>
</g>
<!-- Node2&#45;&gt;Node1 -->
<g id="edge2" class="edge"><title>Node2&#45;&gt;Node1</title>
<path fill="none" stroke="midnightblue" d="M103.447,-105.29C107.272,-95.3674 110.939,-85.8532 114.243,-77.2833"/>
<polygon fill="none" stroke="midnightblue" points="100.069,-104.322 99.7378,-114.912 106.6,-106.84 100.069,-104.322"/>
</g>
<!-- Node3 -->
<g id="node4" class="node"><title>Node3</title>
<a xlink:href="../../d9/d38/a00166.htm" target="_top" xlink:title="global interface to read information about a simulation object ">
<polygon fill="none" stroke="black" points="138,-180 138,-256 258,-256 258,-180 138,-180"/>
<text text-anchor="start" x="146" y="-243.9" font-family="Helvetica,sans-Serif" font-size="9.00">de.tu_clausthal.in.mec.ui.</text>
<text text-anchor="middle" x="198" y="-230.9" font-family="Helvetica,sans-Serif" font-size="9.00">IInspector</text>
<polyline fill="none" stroke="black" points="138,-222 258,-222 "/>
<text text-anchor="middle" x="198" y="-209.9" font-family="Helvetica,sans-Serif" font-size="9.00"> </text>
<polyline fill="none" stroke="black" points="138,-201 258,-201 "/>
<text text-anchor="start" x="146" y="-188.9" font-family="Helvetica,sans-Serif" font-size="9.00">+ inspect()</text>
</a>
</g>
<!-- Node3&#45;&gt;Node1 -->
<g id="edge4" class="edge"><title>Node3&#45;&gt;Node1</title>
<path fill="none" stroke="midnightblue" d="M179.508,-170.028C168.27,-140.875 154.121,-104.169 143.659,-77.0289"/>
<polygon fill="none" stroke="midnightblue" points="176.335,-171.528 183.198,-179.6 182.867,-169.01 176.335,-171.528"/>
</g>
</g>
</svg>
