<?xml version="1.0" encoding="UTF-8" standalone="no"?>
<!DOCTYPE svg PUBLIC "-//W3C//DTD SVG 1.1//EN"
 "http://www.w3.org/Graphics/SVG/1.1/DTD/svg11.dtd">
<!-- Generated by graphviz version 2.26.3 (20100126.1600)
 -->
<!-- Title: de.tu_clausthal.in.mec.object.car.CCarJasonAgent Pages: 1 -->
<!--zoomable 1766 -->
<svg id="main" version="1.1" xmlns="http://www.w3.org/2000/svg" xmlns:xlink="http://www.w3.org/1999/xlink" xml:space="preserve" onload="init(evt)">
<style type="text/css"><![CDATA[
.edge:hover path { stroke: red; }
.edge:hover polygon { stroke: red; fill: red; }
]]></style>
<script type="text/javascript"><![CDATA[
var edges = document.getElementsByTagName('g');
if (edges && edges.length) {
  for (var i=0;i<edges.length;i++) {
    if (edges[i].id.substr(0,4)=='edge') {
      edges[i].setAttribute('class','edge');
    }
  }
}
]]></script>
        <defs>
                <circle id="rim" cx="0" cy="0" r="7"/>
                <circle id="rim2" cx="0" cy="0" r="3.5"/>
                <g id="zoomPlus">
                        <use xlink:href="#rim" fill="#404040">
                                <set attributeName="fill" to="#808080" begin="zoomplus.mouseover" end="zoomplus.mouseout"/>
                        </use>
                        <path d="M-4,0h8M0,-4v8" fill="none" stroke="white" stroke-width="1.5" pointer-events="none"/>
                </g>
                <g id="zoomMin">
                        <use xlink:href="#rim" fill="#404040">
                                <set attributeName="fill" to="#808080" begin="zoomminus.mouseover" end="zoomminus.mouseout"/>
                        </use>
                        <path d="M-4,0h8" fill="none" stroke="white" stroke-width="1.5" pointer-events="none"/>
                </g>
                <g id="dirArrow">
                        <path fill="none" stroke="white" stroke-width="1.5" d="M0,-3.0v7 M-2.5,-0.5L0,-3.0L2.5,-0.5"/>
                </g>
               <g id="resetDef">
                       <use xlink:href="#rim2" fill="#404040">
                               <set attributeName="fill" to="#808080" begin="reset.mouseover" end="reset.mouseout"/>
                       </use>
               </g>
        </defs>

<script type="text/javascript">
var viewWidth = 1036;
var viewHeight = 1766;
var sectionId = 'dynsection-1';
</script>
<script xlink:href="../../svgpan.js"/>
<svg id="graph" class="graph">
<g id="viewport">
<title>de.tu_clausthal.in.mec.object.car.CCarJasonAgent</title>
<!-- Node1 -->
<g id="node1" class="node"><title>Node1</title>
<polygon fill="#bfbfbf" stroke="black" points="522,-0.5 522,-219.5 674,-219.5 674,-0.5 522,-0.5"/>
<text text-anchor="start" x="530" y="-207.4" font-family="Helvetica,sans-Serif" font-size="9.00">de.tu_clausthal.in.mec.object.car.</text>
<text text-anchor="middle" x="598" y="-194.4" font-family="Helvetica,sans-Serif" font-size="9.00">CCarJasonAgent</text>
<polyline fill="none" stroke="black" points="522,-185.5 674,-185.5 "/>
<text text-anchor="start" x="530" y="-173.4" font-family="Helvetica,sans-Serif" font-size="9.00">&#45; m_agents</text>
<text text-anchor="start" x="530" y="-160.4" font-family="Helvetica,sans-Serif" font-size="9.00">&#45; m_inspect</text>
<text text-anchor="start" x="530" y="-147.4" font-family="Helvetica,sans-Serif" font-size="9.00">&#45; m_seenpredecessors</text>
<text text-anchor="start" x="530" y="-134.4" font-family="Helvetica,sans-Serif" font-size="9.00">&#45; m_trafficbeliefbase</text>
<polyline fill="none" stroke="black" points="522,-125.5 674,-125.5 "/>
<text text-anchor="start" x="530" y="-113.4" font-family="Helvetica,sans-Serif" font-size="9.00">+ CCarJasonAgent()</text>
<text text-anchor="start" x="530" y="-100.4" font-family="Helvetica,sans-Serif" font-size="9.00">+ CCarJasonAgent()</text>
<text text-anchor="start" x="530" y="-87.4" font-family="Helvetica,sans-Serif" font-size="9.00">+ getReceiverPath()</text>
<text text-anchor="start" x="530" y="-74.4" font-family="Helvetica,sans-Serif" font-size="9.00">+ inspect()</text>
<text text-anchor="start" x="530" y="-61.4" font-family="Helvetica,sans-Serif" font-size="9.00">+ receiveMessage()</text>
<text text-anchor="start" x="530" y="-48.4" font-family="Helvetica,sans-Serif" font-size="9.00">+ release()</text>
<text text-anchor="start" x="530" y="-35.4" font-family="Helvetica,sans-Serif" font-size="9.00">+ step()</text>
<text text-anchor="start" x="530" y="-22.4" font-family="Helvetica,sans-Serif" font-size="9.00">&#45; bind()</text>
<text text-anchor="start" x="530" y="-9.4" font-family="Helvetica,sans-Serif" font-size="9.00">&#45; getPredecessorWithName()</text>
</g>
<!-- Node2 -->
<g id="node2" class="node"><title>Node2</title>
<a xlink:href="../../d5/df9/a00044.htm" target="_top" xlink:title="class for a default car * ">
<polygon fill="none" stroke="black" points="283,-342.5 283,-821.5 435,-821.5 435,-342.5 283,-342.5"/>
<text text-anchor="start" x="291" y="-809.4" font-family="Helvetica,sans-Serif" font-size="9.00">de.tu_clausthal.in.mec.object.car.</text>
<text text-anchor="middle" x="359" y="-796.4" font-family="Helvetica,sans-Serif" font-size="9.00">CDefaultCar</text>
<polyline fill="none" stroke="black" points="283,-787.5 435,-787.5 "/>
<text text-anchor="start" x="291" y="-775.4" font-family="Helvetica,sans-Serif" font-size="9.00"># m_maxspeed</text>
<text text-anchor="start" x="291" y="-762.4" font-family="Helvetica,sans-Serif" font-size="9.00"># m_route</text>
<text text-anchor="start" x="291" y="-749.4" font-family="Helvetica,sans-Serif" font-size="9.00"># m_routeindex</text>
<text text-anchor="start" x="291" y="-736.4" font-family="Helvetica,sans-Serif" font-size="9.00"># m_speed</text>
<text text-anchor="start" x="291" y="-723.4" font-family="Helvetica,sans-Serif" font-size="9.00">&#45; m_acceleration</text>
<text text-anchor="start" x="291" y="-710.4" font-family="Helvetica,sans-Serif" font-size="9.00">&#45; m_deceleration</text>
<text text-anchor="start" x="291" y="-697.4" font-family="Helvetica,sans-Serif" font-size="9.00">&#45; m_endreached</text>
<text text-anchor="start" x="291" y="-684.4" font-family="Helvetica,sans-Serif" font-size="9.00">&#45; m_inspect</text>
<text text-anchor="start" x="291" y="-671.4" font-family="Helvetica,sans-Serif" font-size="9.00">&#45; m_lingerprobability</text>
<polyline fill="none" stroke="black" points="283,-662.5 435,-662.5 "/>
<text text-anchor="start" x="291" y="-650.4" font-family="Helvetica,sans-Serif" font-size="9.00">+ CDefaultCar()</text>
<text text-anchor="start" x="291" y="-637.4" font-family="Helvetica,sans-Serif" font-size="9.00">+ getAcceleration()</text>
<text text-anchor="start" x="291" y="-624.4" font-family="Helvetica,sans-Serif" font-size="9.00">+ getCurrentSpeed()</text>
<text text-anchor="start" x="291" y="-611.4" font-family="Helvetica,sans-Serif" font-size="9.00">+ getDeceleration()</text>
<text text-anchor="start" x="291" y="-598.4" font-family="Helvetica,sans-Serif" font-size="9.00">+ getEdge()</text>
<text text-anchor="start" x="291" y="-585.4" font-family="Helvetica,sans-Serif" font-size="9.00">+ getGeoposition()</text>
<text text-anchor="start" x="291" y="-572.4" font-family="Helvetica,sans-Serif" font-size="9.00">+ getLingerProbability()</text>
<text text-anchor="start" x="291" y="-559.4" font-family="Helvetica,sans-Serif" font-size="9.00">+ getMaximumSpeed()</text>
<text text-anchor="start" x="291" y="-546.4" font-family="Helvetica,sans-Serif" font-size="9.00">+ getPredecessor()</text>
<text text-anchor="start" x="291" y="-533.4" font-family="Helvetica,sans-Serif" font-size="9.00">+ getPredecessor()</text>
<text text-anchor="start" x="291" y="-520.4" font-family="Helvetica,sans-Serif" font-size="9.00">+ hasEndReached()</text>
<text text-anchor="start" x="291" y="-507.4" font-family="Helvetica,sans-Serif" font-size="9.00">+ inspect()</text>
<text text-anchor="start" x="291" y="-494.4" font-family="Helvetica,sans-Serif" font-size="9.00">+ onClick()</text>
<text text-anchor="start" x="291" y="-481.4" font-family="Helvetica,sans-Serif" font-size="9.00">+ paint()</text>
<text text-anchor="start" x="291" y="-468.4" font-family="Helvetica,sans-Serif" font-size="9.00">+ release()</text>
<text text-anchor="start" x="291" y="-455.4" font-family="Helvetica,sans-Serif" font-size="9.00">+ setCurrentSpeed()</text>
<text text-anchor="start" x="291" y="-442.4" font-family="Helvetica,sans-Serif" font-size="9.00">+ step()</text>
<text text-anchor="start" x="291" y="-429.4" font-family="Helvetica,sans-Serif" font-size="9.00"># getCurrentPosition()</text>
<text text-anchor="start" x="291" y="-416.4" font-family="Helvetica,sans-Serif" font-size="9.00">&#45; getCurrentCarsOnEdge()</text>
<text text-anchor="start" x="291" y="-403.4" font-family="Helvetica,sans-Serif" font-size="9.00">&#45; getCurrentEdgeMaxSpeed()</text>
<text text-anchor="start" x="291" y="-390.4" font-family="Helvetica,sans-Serif" font-size="9.00">&#45; getEdge()</text>
<text text-anchor="start" x="291" y="-377.4" font-family="Helvetica,sans-Serif" font-size="9.00">&#45; getRouteLine()</text>
<text text-anchor="start" x="291" y="-364.4" font-family="Helvetica,sans-Serif" font-size="9.00">&#45; reroute()</text>
<text text-anchor="start" x="291" y="-351.4" font-family="Helvetica,sans-Serif" font-size="9.00">&#45; reroute()</text>
</a>
</g>
<!-- Node2&#45;&gt;Node1 -->
<g id="edge2" class="edge"><title>Node2&#45;&gt;Node1</title>
<path fill="none" stroke="midnightblue" d="M414.456,-332.944C422.996,-311.069 432.787,-289.76 444,-270 464.074,-234.624 493.757,-201.232 521.72,-174.197"/>
<polygon fill="none" stroke="midnightblue" points="411.162,-331.76 410.872,-342.351 417.703,-334.252 411.162,-331.76"/>
</g>
<!-- Node3 -->
<g id="node4" class="node"><title>Node3</title>
<a xlink:href="../../dc/de6/a00167.htm" target="_top" xlink:title="global default implementation to get information about a simulation object ">
<polygon fill="none" stroke="black" points="136,-1010 136,-1086 256,-1086 256,-1010 136,-1010"/>
<text text-anchor="start" x="144" y="-1073.9" font-family="Helvetica,sans-Serif" font-size="9.00">de.tu_clausthal.in.mec.ui.</text>
<text text-anchor="middle" x="196" y="-1060.9" font-family="Helvetica,sans-Serif" font-size="9.00">IInspectorDefault</text>
<polyline fill="none" stroke="black" points="136,-1052 256,-1052 "/>
<text text-anchor="start" x="144" y="-1039.9" font-family="Helvetica,sans-Serif" font-size="9.00">&#45; m_inspect</text>
<polyline fill="none" stroke="black" points="136,-1031 256,-1031 "/>
<text text-anchor="start" x="144" y="-1018.9" font-family="Helvetica,sans-Serif" font-size="9.00">+ inspect()</text>
</a>
</g>
<!-- Node3&#45;&gt;Node2 -->
<g id="edge4" class="edge"><title>Node3&#45;&gt;Node2</title>
<path fill="none" stroke="midnightblue" d="M212.658,-1000.38C229.447,-952.378 256.579,-874.812 282.947,-799.429"/>
<polygon fill="none" stroke="midnightblue" points="209.337,-999.27 209.339,-1009.87 215.944,-1001.58 209.337,-999.27"/>
</g>
<!-- Node4 -->
<g id="node6" class="node"><title>Node4</title>
<a xlink:href="../../dd/df4/a00193.htm" target="_top" xlink:title="class to handle UI events with encapsulate the default lister structures ">
<polygon fill="none" stroke="black" points="0,-1313 0,-1519 120,-1519 120,-1313 0,-1313"/>
<text text-anchor="start" x="8" y="-1506.9" font-family="Helvetica,sans-Serif" font-size="9.00">de.tu_clausthal.in.mec.ui.</text>
<text text-anchor="middle" x="60" y="-1493.9" font-family="Helvetica,sans-Serif" font-size="9.00">IUIListener</text>
<polyline fill="none" stroke="black" points="0,-1485 120,-1485 "/>
<text text-anchor="start" x="8" y="-1472.9" font-family="Helvetica,sans-Serif" font-size="9.00"># c_maxzoom</text>
<text text-anchor="start" x="8" y="-1459.9" font-family="Helvetica,sans-Serif" font-size="9.00"># c_miniconsize</text>
<polyline fill="none" stroke="black" points="0,-1451 120,-1451 "/>
<text text-anchor="start" x="8" y="-1438.9" font-family="Helvetica,sans-Serif" font-size="9.00">+ IUIListener()</text>
<text text-anchor="start" x="8" y="-1425.9" font-family="Helvetica,sans-Serif" font-size="9.00">+ mouseClicked()</text>
<text text-anchor="start" x="8" y="-1412.9" font-family="Helvetica,sans-Serif" font-size="9.00">+ mouseEntered()</text>
<text text-anchor="start" x="8" y="-1399.9" font-family="Helvetica,sans-Serif" font-size="9.00">+ mouseExited()</text>
<text text-anchor="start" x="8" y="-1386.9" font-family="Helvetica,sans-Serif" font-size="9.00">+ mousePressed()</text>
<text text-anchor="start" x="8" y="-1373.9" font-family="Helvetica,sans-Serif" font-size="9.00">+ mouseReleased()</text>
<text text-anchor="start" x="8" y="-1360.9" font-family="Helvetica,sans-Serif" font-size="9.00">+ onClick()</text>
<text text-anchor="start" x="8" y="-1347.9" font-family="Helvetica,sans-Serif" font-size="9.00">+ release()</text>
<text text-anchor="start" x="8" y="-1334.9" font-family="Helvetica,sans-Serif" font-size="9.00"># iconscale()</text>
<text text-anchor="start" x="8" y="-1321.9" font-family="Helvetica,sans-Serif" font-size="9.00"># iconsize()</text>
</a>
</g>
<!-- Node4&#45;&gt;Node3 -->
<g id="edge6" class="edge"><title>Node4&#45;&gt;Node3</title>
<path fill="none" stroke="midnightblue" d="M94.0384,-1303.32C104.591,-1270.43 116.697,-1234.57 129,-1202 144.144,-1161.9 163.988,-1117.08 178.141,-1086.17"/>
<polygon fill="none" stroke="midnightblue" points="90.6653,-1302.38 90.96,-1312.97 97.3341,-1304.51 90.6653,-1302.38"/>
</g>
<!-- Node5 -->
<g id="node8" class="node"><title>Node5</title>
<a xlink:href="../../d9/d38/a00166.htm" target="_top" xlink:title="global interface to read information about a simulation object ">
<polygon fill="none" stroke="black" points="138,-1378 138,-1454 258,-1454 258,-1378 138,-1378"/>
<text text-anchor="start" x="146" y="-1441.9" font-family="Helvetica,sans-Serif" font-size="9.00">de.tu_clausthal.in.mec.ui.</text>
<text text-anchor="middle" x="198" y="-1428.9" font-family="Helvetica,sans-Serif" font-size="9.00">IInspector</text>
<polyline fill="none" stroke="black" points="138,-1420 258,-1420 "/>
<text text-anchor="middle" x="198" y="-1407.9" font-family="Helvetica,sans-Serif" font-size="9.00"> </text>
<polyline fill="none" stroke="black" points="138,-1399 258,-1399 "/>
<text text-anchor="start" x="146" y="-1386.9" font-family="Helvetica,sans-Serif" font-size="9.00">+ inspect()</text>
</a>
</g>
<!-- Node5&#45;&gt;Node3 -->
<g id="edge8" class="edge"><title>Node5&#45;&gt;Node3</title>
<path fill="none" stroke="midnightblue" d="M197.735,-1367.21C197.332,-1293.07 196.574,-1153.57 196.208,-1086.25"/>
<polygon fill="none" stroke="midnightblue" points="194.237,-1367.68 197.792,-1377.66 201.237,-1367.64 194.237,-1367.68"/>
</g>
<!-- Node6 -->
<g id="node10" class="node"><title>Node6</title>
<a xlink:href="../../d3/d65/a00154.htm" target="_top" xlink:title="car interface for defining the car structure ">
<polygon fill="none" stroke="black" points="274,-951.5 274,-1144.5 444,-1144.5 444,-951.5 274,-951.5"/>
<text text-anchor="middle" x="359" y="-1132.4" font-family="Helvetica,sans-Serif" font-size="9.00">de.tu_clausthal.in.mec.object.car.ICar</text>
<polyline fill="none" stroke="black" points="274,-1123.5 444,-1123.5 "/>
<text text-anchor="middle" x="359" y="-1111.4" font-family="Helvetica,sans-Serif" font-size="9.00"> </text>
<polyline fill="none" stroke="black" points="274,-1102.5 444,-1102.5 "/>
<text text-anchor="start" x="282" y="-1090.4" font-family="Helvetica,sans-Serif" font-size="9.00">+ getAcceleration()</text>
<text text-anchor="start" x="282" y="-1077.4" font-family="Helvetica,sans-Serif" font-size="9.00">+ getCurrentSpeed()</text>
<text text-anchor="start" x="282" y="-1064.4" font-family="Helvetica,sans-Serif" font-size="9.00">+ getDeceleration()</text>
<text text-anchor="start" x="282" y="-1051.4" font-family="Helvetica,sans-Serif" font-size="9.00">+ getEdge()</text>
<text text-anchor="start" x="282" y="-1038.4" font-family="Helvetica,sans-Serif" font-size="9.00">+ getGeoposition()</text>
<text text-anchor="start" x="282" y="-1025.4" font-family="Helvetica,sans-Serif" font-size="9.00">+ getLingerProbability()</text>
<text text-anchor="start" x="282" y="-1012.4" font-family="Helvetica,sans-Serif" font-size="9.00">+ getMaximumSpeed()</text>
<text text-anchor="start" x="282" y="-999.4" font-family="Helvetica,sans-Serif" font-size="9.00">+ getPredecessor()</text>
<text text-anchor="start" x="282" y="-986.4" font-family="Helvetica,sans-Serif" font-size="9.00">+ getPredecessor()</text>
<text text-anchor="start" x="282" y="-973.4" font-family="Helvetica,sans-Serif" font-size="9.00">+ hasEndReached()</text>
<text text-anchor="start" x="282" y="-960.4" font-family="Helvetica,sans-Serif" font-size="9.00">+ setCurrentSpeed()</text>
</a>
</g>
<!-- Node6&#45;&gt;Node2 -->
<g id="edge10" class="edge"><title>Node6&#45;&gt;Node2</title>
<path fill="none" stroke="midnightblue" d="M359,-940.992C359,-905.117 359,-863.543 359,-821.681"/>
<polygon fill="none" stroke="midnightblue" points="355.5,-941.444 359,-951.444 362.5,-941.445 355.5,-941.444"/>
</g>
<!-- Node7 -->
<g id="node12" class="node"><title>Node7</title>
<a xlink:href="../../de/db1/a00197.htm" target="_top" xlink:title="interface of void&#45;step method ">
<polygon fill="none" stroke="black" points="277.5,-1378 277.5,-1454 420.5,-1454 420.5,-1378 277.5,-1378"/>
<text text-anchor="start" x="285.5" y="-1441.9" font-family="Helvetica,sans-Serif" font-size="9.00">de.tu_clausthal.in.mec.runtime.</text>
<text text-anchor="middle" x="349" y="-1428.9" font-family="Helvetica,sans-Serif" font-size="9.00">IVoidSteppable</text>
<polyline fill="none" stroke="black" points="277.5,-1420 420.5,-1420 "/>
<text text-anchor="middle" x="349" y="-1407.9" font-family="Helvetica,sans-Serif" font-size="9.00"> </text>
<polyline fill="none" stroke="black" points="277.5,-1399 420.5,-1399 "/>
<text text-anchor="start" x="285.5" y="-1386.9" font-family="Helvetica,sans-Serif" font-size="9.00">+ step()</text>
</a>
</g>
<!-- Node7&#45;&gt;Node6 -->
<g id="edge12" class="edge"><title>Node7&#45;&gt;Node6</title>
<path fill="none" stroke="midnightblue" d="M350.316,-1367.57C351.851,-1311.1 354.425,-1216.35 356.374,-1144.65"/>
<polygon fill="none" stroke="midnightblue" points="346.815,-1367.57 350.042,-1377.66 353.812,-1367.76 346.815,-1367.57"/>
</g>
<!-- Node8 -->
<g id="node14" class="node"><title>Node8</title>
<a xlink:href="../../da/d15/a00188.htm" target="_top" xlink:title="interface for all objects which are triggered by the simulation worker ">
<polygon fill="none" stroke="black" points="265.5,-1681 265.5,-1757 408.5,-1757 408.5,-1681 265.5,-1681"/>
<text text-anchor="start" x="273.5" y="-1744.9" font-family="Helvetica,sans-Serif" font-size="9.00">de.tu_clausthal.in.mec.runtime.</text>
<text text-anchor="middle" x="337" y="-1731.9" font-family="Helvetica,sans-Serif" font-size="9.00">ISteppable</text>
<polyline fill="none" stroke="black" points="265.5,-1723 408.5,-1723 "/>
<text text-anchor="middle" x="337" y="-1710.9" font-family="Helvetica,sans-Serif" font-size="9.00"> </text>
<polyline fill="none" stroke="black" points="265.5,-1702 408.5,-1702 "/>
<text text-anchor="start" x="273.5" y="-1689.9" font-family="Helvetica,sans-Serif" font-size="9.00">+ release()</text>
</a>
</g>
<!-- Node8&#45;&gt;Node7 -->
<g id="edge14" class="edge"><title>Node8&#45;&gt;Node7</title>
<path fill="none" stroke="midnightblue" d="M338.904,-1670.94C341.284,-1610.84 345.309,-1509.19 347.489,-1454.15"/>
<polygon fill="none" stroke="midnightblue" points="335.406,-1670.8 338.508,-1680.93 342.401,-1671.08 335.406,-1670.8"/>
</g>
<!-- Node9 -->
<g id="node16" class="node"><title>Node9</title>
<a xlink:href="../../d6/d5b/a00026.htm" target="_top" xlink:title="defines the layer for cars ">
<polygon fill="none" stroke="black" points="546,-945 546,-1151 698,-1151 698,-945 546,-945"/>
<text text-anchor="start" x="554" y="-1138.9" font-family="Helvetica,sans-Serif" font-size="9.00">de.tu_clausthal.in.mec.object.car.</text>
<text text-anchor="middle" x="622" y="-1125.9" font-family="Helvetica,sans-Serif" font-size="9.00">CCarLayer</text>
<polyline fill="none" stroke="black" points="546,-1117 698,-1117 "/>
<text text-anchor="start" x="554" y="-1104.9" font-family="Helvetica,sans-Serif" font-size="9.00">&#45; m_data</text>
<polyline fill="none" stroke="black" points="546,-1096 698,-1096 "/>
<text text-anchor="start" x="554" y="-1083.9" font-family="Helvetica,sans-Serif" font-size="9.00">+ afterStepObject()</text>
<text text-anchor="start" x="554" y="-1070.9" font-family="Helvetica,sans-Serif" font-size="9.00">+ beforeStepObject()</text>
<text text-anchor="start" x="554" y="-1057.9" font-family="Helvetica,sans-Serif" font-size="9.00">+ getCalculationIndex()</text>
<text text-anchor="start" x="554" y="-1044.9" font-family="Helvetica,sans-Serif" font-size="9.00">+ getDrivingModel()</text>
<text text-anchor="start" x="554" y="-1031.9" font-family="Helvetica,sans-Serif" font-size="9.00">+ getGraph()</text>
<text text-anchor="start" x="554" y="-1018.9" font-family="Helvetica,sans-Serif" font-size="9.00">+ getUnitConvert()</text>
<text text-anchor="start" x="554" y="-1005.9" font-family="Helvetica,sans-Serif" font-size="9.00">+ push()</text>
<text text-anchor="start" x="554" y="-992.9" font-family="Helvetica,sans-Serif" font-size="9.00">+ release()</text>
<text text-anchor="start" x="554" y="-979.9" font-family="Helvetica,sans-Serif" font-size="9.00">+ setDriveModel()</text>
<text text-anchor="start" x="554" y="-966.9" font-family="Helvetica,sans-Serif" font-size="9.00">+ step()</text>
<text text-anchor="start" x="554" y="-953.9" font-family="Helvetica,sans-Serif" font-size="9.00">+ toString()</text>
</a>
</g>
<!-- Node9&#45;&gt;Node2 -->
<g id="edge16" class="edge"><title>Node9&#45;&gt;Node2</title>
<path fill="none" stroke="#404040" d="M545.884,-998.251C510.187,-971.324 469.903,-935.154 444,-894 432.031,-874.984 421.727,-854.287 412.859,-832.901"/>
<polygon fill="none" stroke="#404040" points="412.818,-832.798 406.872,-828.718 408.352,-821.66 414.298,-825.74 412.818,-832.798"/>
<text text-anchor="middle" x="487.5" y="-917.4" font-family="Helvetica,sans-Serif" font-size="9.00"> #m_layer</text>
</g>
<!-- Node10 -->
<g id="node18" class="node"><title>Node10</title>
<a xlink:href="../../d2/df5/a00137.htm" target="_top" xlink:title="enum for representating a driving model ">
<polygon fill="none" stroke="black" points="444,-1352 444,-1480 596,-1480 596,-1352 444,-1352"/>
<text text-anchor="start" x="452" y="-1467.9" font-family="Helvetica,sans-Serif" font-size="9.00">de.tu_clausthal.in.mec.object.car.</text>
<text text-anchor="middle" x="520" y="-1454.9" font-family="Helvetica,sans-Serif" font-size="9.00">CCarLayer.EDrivingModel</text>
<polyline fill="none" stroke="black" points="444,-1446 596,-1446 "/>
<text text-anchor="start" x="452" y="-1433.9" font-family="Helvetica,sans-Serif" font-size="9.00">+ AgentNagelSchreckenberg</text>
<text text-anchor="start" x="452" y="-1420.9" font-family="Helvetica,sans-Serif" font-size="9.00">+ NagelSchreckenberg</text>
<text text-anchor="start" x="452" y="-1407.9" font-family="Helvetica,sans-Serif" font-size="9.00">&#45; m_text</text>
<polyline fill="none" stroke="black" points="444,-1399 596,-1399 "/>
<text text-anchor="start" x="452" y="-1386.9" font-family="Helvetica,sans-Serif" font-size="9.00">+ EDrivingModel()</text>
<text text-anchor="start" x="452" y="-1373.9" font-family="Helvetica,sans-Serif" font-size="9.00">+ getModel()</text>
<text text-anchor="start" x="452" y="-1360.9" font-family="Helvetica,sans-Serif" font-size="9.00">+ toString()</text>
</a>
</g>
<!-- Node10&#45;&gt;Node9 -->
<g id="edge18" class="edge"><title>Node10&#45;&gt;Node9</title>
<path fill="none" stroke="#404040" d="M535.359,-1351.75C547.527,-1301.95 565.361,-1231.33 583,-1170 583.696,-1167.58 584.407,-1165.13 585.13,-1162.67"/>
<polygon fill="none" stroke="#404040" points="585.169,-1162.54 583.047,-1155.65 588.593,-1151.04 590.714,-1157.93 585.169,-1162.54"/>
<text text-anchor="middle" x="615" y="-1175.4" font-family="Helvetica,sans-Serif" font-size="9.00"> &#45;m_drivemodel</text>
</g>
<!-- Node11 -->
<g id="node20" class="node"><title>Node11</title>
<a xlink:href="../../de/d38/a00160.htm" target="_top" xlink:title="drive interface for driving models ">
<polygon fill="none" stroke="black" points="426,-1681 426,-1757 626,-1757 626,-1681 426,-1681"/>
<text text-anchor="start" x="434" y="-1744.9" font-family="Helvetica,sans-Serif" font-size="9.00">de.tu_clausthal.in.mec.object.car.drivemodel.</text>
<text text-anchor="middle" x="526" y="-1731.9" font-family="Helvetica,sans-Serif" font-size="9.00">IDriveModel</text>
<polyline fill="none" stroke="black" points="426,-1723 626,-1723 "/>
<text text-anchor="middle" x="526" y="-1710.9" font-family="Helvetica,sans-Serif" font-size="9.00"> </text>
<polyline fill="none" stroke="black" points="426,-1702 626,-1702 "/>
<text text-anchor="start" x="434" y="-1689.9" font-family="Helvetica,sans-Serif" font-size="9.00">+ update()</text>
</a>
</g>
<!-- Node11&#45;&gt;Node10 -->
<g id="edge20" class="edge"><title>Node11&#45;&gt;Node10</title>
<path fill="none" stroke="#404040" d="M525.246,-1680.93C524.313,-1633.79 522.701,-1552.38 521.509,-1492.21"/>
<polygon fill="none" stroke="#404040" points="521.507,-1492.09 517.389,-1486.17 521.269,-1480.09 525.387,-1486.01 521.507,-1492.09"/>
<text text-anchor="middle" x="547" y="-1653.4" font-family="Helvetica,sans-Serif" font-size="9.00"> &#45;m_model</text>
</g>
<!-- Node12 -->
<g id="node22" class="node"><title>Node12</title>
<a xlink:href="../../dc/dee/a00053.htm" target="_top" xlink:title="class for create a graph structure of OSM data, the class downloads the data and creates edges and ve...">
<polygon fill="none" stroke="black" points="613.5,-1202.5 613.5,-1629.5 792.5,-1629.5 792.5,-1202.5 613.5,-1202.5"/>
<text text-anchor="start" x="621.5" y="-1617.4" font-family="Helvetica,sans-Serif" font-size="9.00">de.tu_clausthal.in.mec.object.car.graph.</text>
<text text-anchor="middle" x="703" y="-1604.4" font-family="Helvetica,sans-Serif" font-size="9.00">CGraphHopper</text>
<polyline fill="none" stroke="black" points="613.5,-1595.5 792.5,-1595.5 "/>
<text text-anchor="start" x="621.5" y="-1583.4" font-family="Helvetica,sans-Serif" font-size="9.00">&#45; m_cellsize</text>
<text text-anchor="start" x="621.5" y="-1570.4" font-family="Helvetica,sans-Serif" font-size="9.00">&#45; m_edgecell</text>
<text text-anchor="start" x="621.5" y="-1557.4" font-family="Helvetica,sans-Serif" font-size="9.00">&#45; m_edgelister</text>
<text text-anchor="start" x="621.5" y="-1544.4" font-family="Helvetica,sans-Serif" font-size="9.00">&#45; m_weights</text>
<text text-anchor="start" x="621.5" y="-1531.4" font-family="Helvetica,sans-Serif" font-size="9.00">&#45; c_defaultflagencoding</text>
<polyline fill="none" stroke="black" points="613.5,-1522.5 792.5,-1522.5 "/>
<text text-anchor="start" x="621.5" y="-1510.4" font-family="Helvetica,sans-Serif" font-size="9.00">+ CGraphHopper()</text>
<text text-anchor="start" x="621.5" y="-1497.4" font-family="Helvetica,sans-Serif" font-size="9.00">+ CGraphHopper()</text>
<text text-anchor="start" x="621.5" y="-1484.4" font-family="Helvetica,sans-Serif" font-size="9.00">+ addEdgeListener()</text>
<text text-anchor="start" x="621.5" y="-1471.4" font-family="Helvetica,sans-Serif" font-size="9.00">+ clear()</text>
<text text-anchor="start" x="621.5" y="-1458.4" font-family="Helvetica,sans-Serif" font-size="9.00">+ createWeighting()</text>
<text text-anchor="start" x="621.5" y="-1445.4" font-family="Helvetica,sans-Serif" font-size="9.00">+ existWeight()</text>
<text text-anchor="start" x="621.5" y="-1432.4" font-family="Helvetica,sans-Serif" font-size="9.00">+ getClosestEdge()</text>
<text text-anchor="start" x="621.5" y="-1419.4" font-family="Helvetica,sans-Serif" font-size="9.00">+ getClosestNode()</text>
<text text-anchor="start" x="621.5" y="-1406.4" font-family="Helvetica,sans-Serif" font-size="9.00">+ getEdge()</text>
<text text-anchor="start" x="621.5" y="-1393.4" font-family="Helvetica,sans-Serif" font-size="9.00">+ getEdgeCollection()</text>
<text text-anchor="start" x="621.5" y="-1380.4" font-family="Helvetica,sans-Serif" font-size="9.00">+ getEdgeIterator()</text>
<text text-anchor="start" x="621.5" y="-1367.4" font-family="Helvetica,sans-Serif" font-size="9.00">+ getEdgeSpeed()</text>
<text text-anchor="start" x="621.5" y="-1354.4" font-family="Helvetica,sans-Serif" font-size="9.00">+ getNumberOfObjects()</text>
<text text-anchor="start" x="621.5" y="-1341.4" font-family="Helvetica,sans-Serif" font-size="9.00">+ getRouteCells()</text>
<text text-anchor="start" x="621.5" y="-1328.4" font-family="Helvetica,sans-Serif" font-size="9.00">+ getRoutes()</text>
<text text-anchor="start" x="621.5" y="-1315.4" font-family="Helvetica,sans-Serif" font-size="9.00">+ getRoutes()</text>
<text text-anchor="start" x="621.5" y="-1302.4" font-family="Helvetica,sans-Serif" font-size="9.00">+ getRoutes()</text>
<text text-anchor="start" x="621.5" y="-1289.4" font-family="Helvetica,sans-Serif" font-size="9.00">+ getRoutes()</text>
<text text-anchor="start" x="621.5" y="-1276.4" font-family="Helvetica,sans-Serif" font-size="9.00">+ getWeight()</text>
<text text-anchor="start" x="621.5" y="-1263.4" font-family="Helvetica,sans-Serif" font-size="9.00">+ deleteGraph()</text>
<text text-anchor="start" x="621.5" y="-1250.4" font-family="Helvetica,sans-Serif" font-size="9.00">&#45; downloadGraphAndLoad()</text>
<text text-anchor="start" x="621.5" y="-1237.4" font-family="Helvetica,sans-Serif" font-size="9.00">&#45; downloadOSMData()</text>
<text text-anchor="start" x="621.5" y="-1224.4" font-family="Helvetica,sans-Serif" font-size="9.00">&#45; getCurrentGraph()</text>
<text text-anchor="start" x="621.5" y="-1211.4" font-family="Helvetica,sans-Serif" font-size="9.00">&#45; getGraphLocation()</text>
</a>
</g>
<!-- Node12&#45;&gt;Node9 -->
<g id="edge22" class="edge"><title>Node12&#45;&gt;Node9</title>
<path fill="none" stroke="#404040" d="M655.999,-1202.47C653.038,-1189.01 650.123,-1175.77 647.323,-1163.05"/>
<polygon fill="none" stroke="#404040" points="647.254,-1162.73 642.057,-1157.73 644.674,-1151.01 649.87,-1156.01 647.254,-1162.73"/>
<text text-anchor="middle" x="672.5" y="-1175.4" font-family="Helvetica,sans-Serif" font-size="9.00"> &#45;m_graph</text>
</g>
<!-- Node13 -->
<g id="node24" class="node"><title>Node13</title>
<a xlink:href="../../d4/d98/a00120.htm" target="_top" xlink:title="converting driving units ">
<polygon fill="none" stroke="black" points="810,-1287 810,-1545 962,-1545 962,-1287 810,-1287"/>
<text text-anchor="start" x="818" y="-1532.9" font-family="Helvetica,sans-Serif" font-size="9.00">de.tu_clausthal.in.mec.object.car.</text>
<text text-anchor="middle" x="886" y="-1519.9" font-family="Helvetica,sans-Serif" font-size="9.00">CUnitConvert</text>
<polyline fill="none" stroke="black" points="810,-1511 962,-1511 "/>
<text text-anchor="start" x="818" y="-1498.9" font-family="Helvetica,sans-Serif" font-size="9.00">&#45; m_cellsize</text>
<text text-anchor="start" x="818" y="-1485.9" font-family="Helvetica,sans-Serif" font-size="9.00">&#45; m_celltimestep</text>
<text text-anchor="start" x="818" y="-1472.9" font-family="Helvetica,sans-Serif" font-size="9.00">&#45; m_distancetimestep</text>
<text text-anchor="start" x="818" y="-1459.9" font-family="Helvetica,sans-Serif" font-size="9.00">&#45; m_timestep</text>
<text text-anchor="start" x="818" y="-1446.9" font-family="Helvetica,sans-Serif" font-size="9.00">&#45; c_kmhInMs</text>
<text text-anchor="start" x="818" y="-1433.9" font-family="Helvetica,sans-Serif" font-size="9.00">&#45; c_MsInKmh</text>
<polyline fill="none" stroke="black" points="810,-1425 962,-1425 "/>
<text text-anchor="start" x="818" y="-1412.9" font-family="Helvetica,sans-Serif" font-size="9.00">+ getAccelerationToSpeed()</text>
<text text-anchor="start" x="818" y="-1399.9" font-family="Helvetica,sans-Serif" font-size="9.00">+ getCellSize()</text>
<text text-anchor="start" x="818" y="-1386.9" font-family="Helvetica,sans-Serif" font-size="9.00">+ getCellToKiloMeter()</text>
<text text-anchor="start" x="818" y="-1373.9" font-family="Helvetica,sans-Serif" font-size="9.00">+ getCellToMeter()</text>
<text text-anchor="start" x="818" y="-1360.9" font-family="Helvetica,sans-Serif" font-size="9.00">+ getSpeedOfDistance()</text>
<text text-anchor="start" x="818" y="-1347.9" font-family="Helvetica,sans-Serif" font-size="9.00">+ getSpeedToCell()</text>
<text text-anchor="start" x="818" y="-1334.9" font-family="Helvetica,sans-Serif" font-size="9.00">+ getSpeedToDistance()</text>
<text text-anchor="start" x="818" y="-1321.9" font-family="Helvetica,sans-Serif" font-size="9.00">+ getTime()</text>
<text text-anchor="start" x="818" y="-1308.9" font-family="Helvetica,sans-Serif" font-size="9.00">+ getTime()</text>
<text text-anchor="start" x="818" y="-1295.9" font-family="Helvetica,sans-Serif" font-size="9.00">+ getTimeInMinutes()</text>
</a>
</g>
<!-- Node13&#45;&gt;Node9 -->
<g id="edge24" class="edge"><title>Node13&#45;&gt;Node9</title>
<path fill="none" stroke="#404040" d="M846.344,-1286.88C834.249,-1257.56 819.213,-1227.55 801,-1202 775.663,-1166.45 740.433,-1133.83 707.923,-1107.85"/>
<polygon fill="none" stroke="#404040" points="707.822,-1107.77 700.633,-1107.21 698.388,-1100.36 705.577,-1100.92 707.822,-1107.77"/>
<text text-anchor="middle" x="803" y="-1175.4" font-family="Helvetica,sans-Serif" font-size="9.00"> &#45;m_unit</text>
</g>
<!-- Node14 -->
<g id="node26" class="node"><title>Node14</title>
<a xlink:href="../../d8/d64/a00181.htm" target="_top" xlink:title="message receiver interface for defining an object which can handle the message of a participant objec...">
<polygon fill="none" stroke="black" points="452.5,-537.5 452.5,-626.5 635.5,-626.5 635.5,-537.5 452.5,-537.5"/>
<text text-anchor="start" x="460.5" y="-614.4" font-family="Helvetica,sans-Serif" font-size="9.00">de.tu_clausthal.in.mec.runtime.message.</text>
<text text-anchor="middle" x="544" y="-601.4" font-family="Helvetica,sans-Serif" font-size="9.00">IReceiver</text>
<polyline fill="none" stroke="black" points="452.5,-592.5 635.5,-592.5 "/>
<text text-anchor="middle" x="544" y="-580.4" font-family="Helvetica,sans-Serif" font-size="9.00"> </text>
<polyline fill="none" stroke="black" points="452.5,-571.5 635.5,-571.5 "/>
<text text-anchor="start" x="460.5" y="-559.4" font-family="Helvetica,sans-Serif" font-size="9.00">+ getReceiverPath()</text>
<text text-anchor="start" x="460.5" y="-546.4" font-family="Helvetica,sans-Serif" font-size="9.00">+ receiveMessage()</text>
</a>
</g>
<!-- Node14&#45;&gt;Node1 -->
<g id="edge26" class="edge"><title>Node14&#45;&gt;Node1</title>
<path fill="none" stroke="midnightblue" d="M550.292,-527.007C558.869,-452.037 574.422,-316.092 585.435,-219.823"/>
<polygon fill="none" stroke="midnightblue" points="546.788,-526.837 549.129,-537.17 553.743,-527.633 546.788,-526.837"/>
</g>
<!-- Node15 -->
<g id="node28" class="node"><title>Node15</title>
<a xlink:href="../../dc/d54/a00094.htm" target="_top" xlink:title="class to create a path structure ">
<polygon fill="none" stroke="black" points="653,-271 653,-893 801,-893 801,-271 653,-271"/>
<text text-anchor="start" x="661" y="-880.9" font-family="Helvetica,sans-Serif" font-size="9.00">de.tu_clausthal.in.mec.common.</text>
<text text-anchor="middle" x="727" y="-867.9" font-family="Helvetica,sans-Serif" font-size="9.00">CPath</text>
<polyline fill="none" stroke="black" points="653,-859 801,-859 "/>
<text text-anchor="start" x="661" y="-846.9" font-family="Helvetica,sans-Serif" font-size="9.00">+ DEFAULTSEPERATOR</text>
<text text-anchor="start" x="661" y="-833.9" font-family="Helvetica,sans-Serif" font-size="9.00">&#45; m_path</text>
<text text-anchor="start" x="661" y="-820.9" font-family="Helvetica,sans-Serif" font-size="9.00">&#45; m_separator</text>
<polyline fill="none" stroke="black" points="653,-812 801,-812 "/>
<text text-anchor="start" x="661" y="-799.9" font-family="Helvetica,sans-Serif" font-size="9.00">+ CPath()</text>
<text text-anchor="start" x="661" y="-786.9" font-family="Helvetica,sans-Serif" font-size="9.00">+ CPath()</text>
<text text-anchor="start" x="661" y="-773.9" font-family="Helvetica,sans-Serif" font-size="9.00">+ CPath()</text>
<text text-anchor="start" x="661" y="-760.9" font-family="Helvetica,sans-Serif" font-size="9.00">+ CPath()</text>
<text text-anchor="start" x="661" y="-747.9" font-family="Helvetica,sans-Serif" font-size="9.00">+ append()</text>
<text text-anchor="start" x="661" y="-734.9" font-family="Helvetica,sans-Serif" font-size="9.00">+ append()</text>
<text text-anchor="start" x="661" y="-721.9" font-family="Helvetica,sans-Serif" font-size="9.00">+ compareTo()</text>
<text text-anchor="start" x="661" y="-708.9" font-family="Helvetica,sans-Serif" font-size="9.00">+ endsWith()</text>
<text text-anchor="start" x="661" y="-695.9" font-family="Helvetica,sans-Serif" font-size="9.00">+ equals()</text>
<text text-anchor="start" x="661" y="-682.9" font-family="Helvetica,sans-Serif" font-size="9.00">+ get()</text>
<text text-anchor="start" x="661" y="-669.9" font-family="Helvetica,sans-Serif" font-size="9.00">+ getPath()</text>
<text text-anchor="start" x="661" y="-656.9" font-family="Helvetica,sans-Serif" font-size="9.00">+ getPath()</text>
<text text-anchor="start" x="661" y="-643.9" font-family="Helvetica,sans-Serif" font-size="9.00">+ getSeparator()</text>
<text text-anchor="start" x="661" y="-630.9" font-family="Helvetica,sans-Serif" font-size="9.00">+ getSubPath()</text>
<text text-anchor="start" x="661" y="-617.9" font-family="Helvetica,sans-Serif" font-size="9.00">+ getSubPath()</text>
<text text-anchor="start" x="661" y="-604.9" font-family="Helvetica,sans-Serif" font-size="9.00">+ getSuffix()</text>
<text text-anchor="start" x="661" y="-591.9" font-family="Helvetica,sans-Serif" font-size="9.00">+ hashCode()</text>
<text text-anchor="start" x="661" y="-578.9" font-family="Helvetica,sans-Serif" font-size="9.00">+ isEmpty()</text>
<text text-anchor="start" x="661" y="-565.9" font-family="Helvetica,sans-Serif" font-size="9.00">+ iterator()</text>
<text text-anchor="start" x="661" y="-552.9" font-family="Helvetica,sans-Serif" font-size="9.00">+ normalize()</text>
<text text-anchor="start" x="661" y="-539.9" font-family="Helvetica,sans-Serif" font-size="9.00">+ parallelStream()</text>
<text text-anchor="start" x="661" y="-526.9" font-family="Helvetica,sans-Serif" font-size="9.00">+ pushback()</text>
<text text-anchor="start" x="661" y="-513.9" font-family="Helvetica,sans-Serif" font-size="9.00">+ pushback()</text>
<text text-anchor="start" x="661" y="-500.9" font-family="Helvetica,sans-Serif" font-size="9.00">+ pushfront()</text>
<text text-anchor="start" x="661" y="-487.9" font-family="Helvetica,sans-Serif" font-size="9.00">+ pushfront()</text>
<text text-anchor="start" x="661" y="-474.9" font-family="Helvetica,sans-Serif" font-size="9.00">+ remove()</text>
<text text-anchor="start" x="661" y="-461.9" font-family="Helvetica,sans-Serif" font-size="9.00">+ remove()</text>
<text text-anchor="start" x="661" y="-448.9" font-family="Helvetica,sans-Serif" font-size="9.00">+ removeSuffix()</text>
<text text-anchor="start" x="661" y="-435.9" font-family="Helvetica,sans-Serif" font-size="9.00">+ reverse()</text>
<text text-anchor="start" x="661" y="-422.9" font-family="Helvetica,sans-Serif" font-size="9.00">+ setSeparator()</text>
<text text-anchor="start" x="661" y="-409.9" font-family="Helvetica,sans-Serif" font-size="9.00">+ size()</text>
<text text-anchor="start" x="661" y="-396.9" font-family="Helvetica,sans-Serif" font-size="9.00">+ startsWith()</text>
<text text-anchor="start" x="661" y="-383.9" font-family="Helvetica,sans-Serif" font-size="9.00">+ startsWith()</text>
<text text-anchor="start" x="661" y="-370.9" font-family="Helvetica,sans-Serif" font-size="9.00">+ stream()</text>
<text text-anchor="start" x="661" y="-357.9" font-family="Helvetica,sans-Serif" font-size="9.00">+ toLower()</text>
<text text-anchor="start" x="661" y="-344.9" font-family="Helvetica,sans-Serif" font-size="9.00">+ toString()</text>
<text text-anchor="start" x="661" y="-331.9" font-family="Helvetica,sans-Serif" font-size="9.00">+ toUpper()</text>
<text text-anchor="start" x="661" y="-318.9" font-family="Helvetica,sans-Serif" font-size="9.00">+ createPath()</text>
<text text-anchor="start" x="661" y="-305.9" font-family="Helvetica,sans-Serif" font-size="9.00">+ createSplitPath()</text>
<text text-anchor="start" x="661" y="-292.9" font-family="Helvetica,sans-Serif" font-size="9.00">+ from()</text>
<text text-anchor="start" x="661" y="-279.9" font-family="Helvetica,sans-Serif" font-size="9.00">&#45; initialize()</text>
</a>
</g>
<!-- Node15&#45;&gt;Node1 -->
<g id="edge28" class="edge"><title>Node15&#45;&gt;Node1</title>
<path fill="none" stroke="#404040" d="M652.949,-302.543C649.943,-291.549 646.952,-280.669 644,-270 640.547,-257.524 636.895,-244.515 633.218,-231.543"/>
<polygon fill="none" stroke="#404040" points="633.12,-231.199 627.632,-226.521 629.839,-219.656 635.327,-224.334 633.12,-231.199"/>
<text text-anchor="middle" x="668.5" y="-243.4" font-family="Helvetica,sans-Serif" font-size="9.00"> &#45;m_objectpath</text>
</g>
<!-- Node15&#45;&gt;Node15 -->
<g id="edge30" class="edge"><title>Node15&#45;&gt;Node15</title>
<path fill="none" stroke="#404040" d="M801.36,-638.536C811.916,-629.392 819,-610.547 819,-582 819,-561.036 815.18,-545.304 808.969,-534.804"/>
<polygon fill="none" stroke="#404040" points="808.94,-534.767 802.049,-532.642 801.36,-525.464 808.251,-527.589 808.94,-534.767"/>
<text text-anchor="middle" x="838.5" y="-580.4" font-family="Helvetica,sans-Serif" font-size="9.00"> +EMPTY</text>
</g>
<!-- Node16 -->
<g id="node31" class="node"><title>Node16</title>
<a xlink:href="../../d3/dfe/a00025.htm" target="_top" xlink:title="layer for car agents ">
<polygon fill="none" stroke="black" points="876,-498.5 876,-665.5 1028,-665.5 1028,-498.5 876,-498.5"/>
<text text-anchor="start" x="884" y="-653.4" font-family="Helvetica,sans-Serif" font-size="9.00">de.tu_clausthal.in.mec.object.car.</text>
<text text-anchor="middle" x="952" y="-640.4" font-family="Helvetica,sans-Serif" font-size="9.00">CCarJasonAgentLayer</text>
<polyline fill="none" stroke="black" points="876,-631.5 1028,-631.5 "/>
<text text-anchor="start" x="884" y="-619.4" font-family="Helvetica,sans-Serif" font-size="9.00">&#45; m_inconsistencyLayer</text>
<polyline fill="none" stroke="black" points="876,-610.5 1028,-610.5 "/>
<text text-anchor="start" x="884" y="-598.4" font-family="Helvetica,sans-Serif" font-size="9.00">+ CCarJasonAgentLayer()</text>
<text text-anchor="start" x="884" y="-585.4" font-family="Helvetica,sans-Serif" font-size="9.00">+ add()</text>
<text text-anchor="start" x="884" y="-572.4" font-family="Helvetica,sans-Serif" font-size="9.00">+ afterStepObject()</text>
<text text-anchor="start" x="884" y="-559.4" font-family="Helvetica,sans-Serif" font-size="9.00">+ beforeStepObject()</text>
<text text-anchor="start" x="884" y="-546.4" font-family="Helvetica,sans-Serif" font-size="9.00">+ getCalculationIndex()</text>
<text text-anchor="start" x="884" y="-533.4" font-family="Helvetica,sans-Serif" font-size="9.00">+ getInconsistencyValue()</text>
<text text-anchor="start" x="884" y="-520.4" font-family="Helvetica,sans-Serif" font-size="9.00">+ remove()</text>
<text text-anchor="start" x="884" y="-507.4" font-family="Helvetica,sans-Serif" font-size="9.00">+ toString()</text>
</a>
</g>
<!-- Node16&#45;&gt;Node1 -->
<g id="edge32" class="edge"><title>Node16&#45;&gt;Node1</title>
<path fill="none" stroke="#404040" d="M946.316,-498.263C937.98,-430.72 917.46,-336.364 867,-270 820.963,-209.453 744.845,-167.282 685.307,-141.494"/>
<polygon fill="none" stroke="#404040" points="685.064,-141.392 677.98,-142.735 674.014,-136.712 681.099,-135.368 685.064,-141.392"/>
<text text-anchor="middle" x="882" y="-243.4" font-family="Helvetica,sans-Serif" font-size="9.00"> &#45;m_agentlayer</text>
</g>
</g>
</svg>
        <g id="navigator" transform="translate(0 0)" fill="#404254">
                <rect fill="#f2f5e9" fill-opacity="0.5" stroke="#606060" stroke-width=".5" x="0" y="0" width="60" height="60"/>
                <use id="zoomplus" xlink:href="#zoomPlus" x="17" y="9" onmousedown="handleZoom(evt,'in')"/>
                <use id="zoomminus" xlink:href="#zoomMin" x="42" y="9" onmousedown="handleZoom(evt,'out')"/>
                <use id="reset" xlink:href="#resetDef" x="30" y="36" onmousedown="handleReset()"/>
                <g id="arrowUp" xlink:href="#dirArrow" transform="translate(30 24)" onmousedown="handlePan(0,-1)">
                  <use xlink:href="#rim" fill="#404040">
                        <set attributeName="fill" to="#808080" begin="arrowUp.mouseover" end="arrowUp.mouseout"/>
                  </use>
                  <path fill="none" stroke="white" stroke-width="1.5" d="M0,-3.0v7 M-2.5,-0.5L0,-3.0L2.5,-0.5"/>
                </g>
                <g id="arrowRight" xlink:href="#dirArrow" transform="rotate(90) translate(36 -43)" onmousedown="handlePan(1,0)">
                  <use xlink:href="#rim" fill="#404040">
                        <set attributeName="fill" to="#808080" begin="arrowRight.mouseover" end="arrowRight.mouseout"/>
                  </use>
                  <path fill="none" stroke="white" stroke-width="1.5" d="M0,-3.0v7 M-2.5,-0.5L0,-3.0L2.5,-0.5"/>
                </g>
                <g id="arrowDown" xlink:href="#dirArrow" transform="rotate(180) translate(-30 -48)" onmousedown="handlePan(0,1)">
                  <use xlink:href="#rim" fill="#404040">
                        <set attributeName="fill" to="#808080" begin="arrowDown.mouseover" end="arrowDown.mouseout"/>
                  </use>
                  <path fill="none" stroke="white" stroke-width="1.5" d="M0,-3.0v7 M-2.5,-0.5L0,-3.0L2.5,-0.5"/>
                </g>
                <g id="arrowLeft" xlink:href="#dirArrow" transform="rotate(270) translate(-36 17)" onmousedown="handlePan(-1,0)">
                  <use xlink:href="#rim" fill="#404040">
                        <set attributeName="fill" to="#808080" begin="arrowLeft.mouseover" end="arrowLeft.mouseout"/>
                  </use>
                  <path fill="none" stroke="white" stroke-width="1.5" d="M0,-3.0v7 M-2.5,-0.5L0,-3.0L2.5,-0.5"/>
                </g>
        </g>
        <svg viewBox="0 0 15 15" width="100%" height="30px" preserveAspectRatio="xMaxYMin meet">
         <g id="arrow_out" transform="scale(0.3 0.3)">
          <a xlink:href="a00524_org.svg" target="_base">
           <rect id="button" ry="5" rx="5" y="6" x="6" height="38" width="38"
                fill="#f2f5e9" fill-opacity="0.5" stroke="#606060" stroke-width="1.0"/>
           <path id="arrow"
             d="M 11.500037,31.436501 C 11.940474,20.09759 22.043105,11.32322 32.158766,21.979434 L 37.068811,17.246167 C 37.068811,17.246167 37.088388,32 37.088388,32 L 22.160133,31.978069 C 22.160133,31.978069 26.997745,27.140456 26.997745,27.140456 C 18.528582,18.264221 13.291696,25.230495 11.500037,31.436501 z"
             style="fill:#404040;"/>
          </a>
         </g>
        </svg>
</svg>
