<?xml version="1.0" encoding="UTF-8" standalone="no"?>
<!DOCTYPE svg PUBLIC "-//W3C//DTD SVG 1.1//EN"
 "http://www.w3.org/Graphics/SVG/1.1/DTD/svg11.dtd">
<!-- Generated by graphviz version 2.26.3 (20100126.1600)
 -->
<!-- Title: de.tu_clausthal.in.mec.ui.web.CWorkspace Pages: 1 -->
<svg width="426pt" height="1438pt"
 viewBox="0.00 0.00 426.00 1438.00" xmlns="http://www.w3.org/2000/svg" xmlns:xlink="http://www.w3.org/1999/xlink">
<g id="graph1" class="graph" transform="scale(1 1) rotate(0) translate(4 1434)">
<title>de.tu_clausthal.in.mec.ui.web.CWorkspace</title>
<!-- Node1 -->
<g id="node1" class="node"><title>Node1</title>
<polygon fill="#bfbfbf" stroke="black" points="47,-0.5 47,-89.5 187,-89.5 187,-0.5 47,-0.5"/>
<text text-anchor="start" x="55" y="-77.4" font-family="Helvetica,sans-Serif" font-size="9.00">de.tu_clausthal.in.mec.ui.web.</text>
<text text-anchor="middle" x="117" y="-64.4" font-family="Helvetica,sans-Serif" font-size="9.00">CWorkspace</text>
<polyline fill="none" stroke="black" points="47,-55.5 187,-55.5 "/>
<text text-anchor="start" x="55" y="-43.4" font-family="Helvetica,sans-Serif" font-size="9.00">&#45; c_httphost</text>
<text text-anchor="start" x="55" y="-30.4" font-family="Helvetica,sans-Serif" font-size="9.00">&#45; c_httpport</text>
<polyline fill="none" stroke="black" points="47,-21.5 187,-21.5 "/>
<text text-anchor="start" x="55" y="-9.4" font-family="Helvetica,sans-Serif" font-size="9.00">+ CWorkspace()</text>
</g>
<!-- Node2 -->
<g id="node2" class="node"><title>Node2</title>
<a xlink:href="../../d3/d52/a00023.htm" target="_top" xlink:title="create a plain browser component to show any URL ">
<polygon fill="none" stroke="black" points="0,-219 0,-451 140,-451 140,-219 0,-219"/>
<text text-anchor="start" x="8" y="-438.9" font-family="Helvetica,sans-Serif" font-size="9.00">de.tu_clausthal.in.mec.ui.web.</text>
<text text-anchor="middle" x="70" y="-425.9" font-family="Helvetica,sans-Serif" font-size="9.00">CBrowser</text>
<polyline fill="none" stroke="black" points="0,-417 140,-417 "/>
<text text-anchor="start" x="8" y="-404.9" font-family="Helvetica,sans-Serif" font-size="9.00">&#45; m_webview</text>
<text text-anchor="start" x="8" y="-391.9" font-family="Helvetica,sans-Serif" font-size="9.00">&#45; c_http</text>
<text text-anchor="start" x="8" y="-378.9" font-family="Helvetica,sans-Serif" font-size="9.00">&#45; c_https</text>
<polyline fill="none" stroke="black" points="0,-370 140,-370 "/>
<text text-anchor="start" x="8" y="-357.9" font-family="Helvetica,sans-Serif" font-size="9.00">+ CBrowser()</text>
<text text-anchor="start" x="8" y="-344.9" font-family="Helvetica,sans-Serif" font-size="9.00">+ CBrowser()</text>
<text text-anchor="start" x="8" y="-331.9" font-family="Helvetica,sans-Serif" font-size="9.00">+ CBrowser()</text>
<text text-anchor="start" x="8" y="-318.9" font-family="Helvetica,sans-Serif" font-size="9.00">+ back()</text>
<text text-anchor="start" x="8" y="-305.9" font-family="Helvetica,sans-Serif" font-size="9.00">+ forward()</text>
<text text-anchor="start" x="8" y="-292.9" font-family="Helvetica,sans-Serif" font-size="9.00">+ getURL()</text>
<text text-anchor="start" x="8" y="-279.9" font-family="Helvetica,sans-Serif" font-size="9.00">+ load()</text>
<text text-anchor="start" x="8" y="-266.9" font-family="Helvetica,sans-Serif" font-size="9.00">+ reload()</text>
<text text-anchor="start" x="8" y="-253.9" font-family="Helvetica,sans-Serif" font-size="9.00">&#45; setBackForward()</text>
<text text-anchor="start" x="8" y="-240.9" font-family="Helvetica,sans-Serif" font-size="9.00">&#45; setMenuBar()</text>
<text text-anchor="start" x="8" y="-227.9" font-family="Helvetica,sans-Serif" font-size="9.00">&#45; setURLMenu()</text>
</a>
</g>
<!-- Node2&#45;&gt;Node1 -->
<g id="edge2" class="edge"><title>Node2&#45;&gt;Node1</title>
<path fill="none" stroke="midnightblue" d="M90.4492,-208.824C97.3431,-166.288 104.593,-121.553 109.772,-89.5977"/>
<polygon fill="none" stroke="midnightblue" points="86.9909,-208.286 88.8459,-218.717 93.9007,-209.406 86.9909,-208.286"/>
</g>
<!-- Node3 -->
<g id="node4" class="node"><title>Node3</title>
<a xlink:href="../../da/d74/a00099.htm" target="_top" xlink:title="class of the HTTP server * ">
<polygon fill="none" stroke="black" points="158,-141 158,-529 298,-529 298,-141 158,-141"/>
<text text-anchor="start" x="166" y="-516.9" font-family="Helvetica,sans-Serif" font-size="9.00">de.tu_clausthal.in.mec.ui.web.</text>
<text text-anchor="middle" x="228" y="-503.9" font-family="Helvetica,sans-Serif" font-size="9.00">CServer</text>
<polyline fill="none" stroke="black" points="158,-495 298,-495 "/>
<text text-anchor="start" x="166" y="-482.9" font-family="Helvetica,sans-Serif" font-size="9.00">&#45; m_markdown</text>
<text text-anchor="start" x="166" y="-469.9" font-family="Helvetica,sans-Serif" font-size="9.00">&#45; m_mimetype</text>
<text text-anchor="start" x="166" y="-456.9" font-family="Helvetica,sans-Serif" font-size="9.00">&#45; m_websockethandler</text>
<text text-anchor="start" x="166" y="-443.9" font-family="Helvetica,sans-Serif" font-size="9.00">&#45; m_websocketheartbeat</text>
<text text-anchor="start" x="166" y="-430.9" font-family="Helvetica,sans-Serif" font-size="9.00">&#45; c_seperator</text>
<text text-anchor="start" x="166" y="-417.9" font-family="Helvetica,sans-Serif" font-size="9.00">&#45; c_webdynamic</text>
<text text-anchor="start" x="166" y="-404.9" font-family="Helvetica,sans-Serif" font-size="9.00">&#45; c_webstatic</text>
<text text-anchor="start" x="166" y="-391.9" font-family="Helvetica,sans-Serif" font-size="9.00">&#45; c_weburibase</text>
<polyline fill="none" stroke="black" points="158,-383 298,-383 "/>
<text text-anchor="start" x="166" y="-370.9" font-family="Helvetica,sans-Serif" font-size="9.00">+ CServer()</text>
<text text-anchor="start" x="166" y="-357.9" font-family="Helvetica,sans-Serif" font-size="9.00">+ getVirtualLocation()</text>
<text text-anchor="start" x="166" y="-344.9" font-family="Helvetica,sans-Serif" font-size="9.00">+ openWebSocket()</text>
<text text-anchor="start" x="166" y="-331.9" font-family="Helvetica,sans-Serif" font-size="9.00">+ registerObject()</text>
<text text-anchor="start" x="166" y="-318.9" font-family="Helvetica,sans-Serif" font-size="9.00">+ registerVirtualDirectory()</text>
<text text-anchor="start" x="166" y="-305.9" font-family="Helvetica,sans-Serif" font-size="9.00">+ registerVirtualDirectory()</text>
<text text-anchor="start" x="166" y="-292.9" font-family="Helvetica,sans-Serif" font-size="9.00">+ registerVirtualDirectory()</text>
<text text-anchor="start" x="166" y="-279.9" font-family="Helvetica,sans-Serif" font-size="9.00">+ registerVirtualDirectory()</text>
<text text-anchor="start" x="166" y="-266.9" font-family="Helvetica,sans-Serif" font-size="9.00">+ registerVirtualFile()</text>
<text text-anchor="start" x="166" y="-253.9" font-family="Helvetica,sans-Serif" font-size="9.00">+ serve()</text>
<text text-anchor="start" x="166" y="-240.9" font-family="Helvetica,sans-Serif" font-size="9.00">&#45; bindDynamicMethod()</text>
<text text-anchor="start" x="166" y="-227.9" font-family="Helvetica,sans-Serif" font-size="9.00">&#45; bindStaticMethod()</text>
<text text-anchor="start" x="166" y="-214.9" font-family="Helvetica,sans-Serif" font-size="9.00">&#45; getMimeType()</text>
<text text-anchor="start" x="166" y="-201.9" font-family="Helvetica,sans-Serif" font-size="9.00">&#45; getURIBase()</text>
<text text-anchor="start" x="166" y="-188.9" font-family="Helvetica,sans-Serif" font-size="9.00">&#45; getVirtualDirFile()</text>
<text text-anchor="start" x="166" y="-175.9" font-family="Helvetica,sans-Serif" font-size="9.00">&#45; getVirtualStaticMethod()</text>
<text text-anchor="start" x="166" y="-162.9" font-family="Helvetica,sans-Serif" font-size="9.00">&#45; setDefaultHeader()</text>
<text text-anchor="start" x="166" y="-149.9" font-family="Helvetica,sans-Serif" font-size="9.00">&#45; toURLFormat()</text>
</a>
</g>
<!-- Node3&#45;&gt;Node1 -->
<g id="edge4" class="edge"><title>Node3&#45;&gt;Node1</title>
<path fill="none" stroke="#404040" d="M157.859,-151.75C150.878,-133.51 144.229,-116.139 138.4,-100.91"/>
<polygon fill="none" stroke="#404040" points="138.4,-100.909 132.519,-96.7358 134.11,-89.7023 139.991,-93.876 138.4,-100.909"/>
<text text-anchor="middle" x="165" y="-113.4" font-family="Helvetica,sans-Serif" font-size="9.00"> &#45;m_server</text>
</g>
<!-- Node4 -->
<g id="node6" class="node"><title>Node4</title>
<a xlink:href="../../da/d72/a00124.htm" target="_top" xlink:title="class for the global name&#45;based location collection ">
<polygon fill="none" stroke="black" points="158,-581 158,-709 298,-709 298,-581 158,-581"/>
<text text-anchor="start" x="166" y="-696.9" font-family="Helvetica,sans-Serif" font-size="9.00">de.tu_clausthal.in.mec.ui.web.</text>
<text text-anchor="middle" x="228" y="-683.9" font-family="Helvetica,sans-Serif" font-size="9.00">CVirtualLocation</text>
<polyline fill="none" stroke="black" points="158,-675 298,-675 "/>
<text text-anchor="start" x="166" y="-662.9" font-family="Helvetica,sans-Serif" font-size="9.00">&#45; m_locations</text>
<polyline fill="none" stroke="black" points="158,-654 298,-654 "/>
<text text-anchor="start" x="166" y="-641.9" font-family="Helvetica,sans-Serif" font-size="9.00">+ CVirtualLocation()</text>
<text text-anchor="start" x="166" y="-628.9" font-family="Helvetica,sans-Serif" font-size="9.00">+ add()</text>
<text text-anchor="start" x="166" y="-615.9" font-family="Helvetica,sans-Serif" font-size="9.00">+ contains()</text>
<text text-anchor="start" x="166" y="-602.9" font-family="Helvetica,sans-Serif" font-size="9.00">+ containsexact()</text>
<text text-anchor="start" x="166" y="-589.9" font-family="Helvetica,sans-Serif" font-size="9.00">+ get()</text>
</a>
</g>
<!-- Node4&#45;&gt;Node3 -->
<g id="edge6" class="edge"><title>Node4&#45;&gt;Node3</title>
<path fill="none" stroke="#404040" d="M228,-580.768C228,-568.629 228,-555.343 228,-541.433"/>
<polygon fill="none" stroke="#404040" points="228,-541.063 224,-535.063 228,-529.063 232,-535.063 228,-541.063"/>
<text text-anchor="middle" x="266" y="-553.4" font-family="Helvetica,sans-Serif" font-size="9.00"> &#45;m_virtuallocation</text>
</g>
<!-- Node5 -->
<g id="node8" class="node"><title>Node5</title>
<a xlink:href="../../d8/dfa/a00121.htm" target="_top" xlink:title="definition of virtual directory locations ">
<polygon fill="none" stroke="black" points="158,-760.5 158,-979.5 298,-979.5 298,-760.5 158,-760.5"/>
<text text-anchor="start" x="166" y="-967.4" font-family="Helvetica,sans-Serif" font-size="9.00">de.tu_clausthal.in.mec.ui.web.</text>
<text text-anchor="middle" x="228" y="-954.4" font-family="Helvetica,sans-Serif" font-size="9.00">CVirtualDirectory</text>
<polyline fill="none" stroke="black" points="158,-945.5 298,-945.5 "/>
<text text-anchor="start" x="166" y="-933.4" font-family="Helvetica,sans-Serif" font-size="9.00">&#45; m_directory</text>
<text text-anchor="start" x="166" y="-920.4" font-family="Helvetica,sans-Serif" font-size="9.00">&#45; m_index</text>
<text text-anchor="start" x="166" y="-907.4" font-family="Helvetica,sans-Serif" font-size="9.00">&#45; m_uri</text>
<text text-anchor="start" x="166" y="-894.4" font-family="Helvetica,sans-Serif" font-size="9.00">&#45; c_allowchar</text>
<text text-anchor="start" x="166" y="-881.4" font-family="Helvetica,sans-Serif" font-size="9.00">&#45; c_seperator</text>
<polyline fill="none" stroke="black" points="158,-872.5 298,-872.5 "/>
<text text-anchor="start" x="166" y="-860.4" font-family="Helvetica,sans-Serif" font-size="9.00">+ CVirtualDirectory()</text>
<text text-anchor="start" x="166" y="-847.4" font-family="Helvetica,sans-Serif" font-size="9.00">+ CVirtualDirectory()</text>
<text text-anchor="start" x="166" y="-834.4" font-family="Helvetica,sans-Serif" font-size="9.00">+ CVirtualDirectory()</text>
<text text-anchor="start" x="166" y="-821.4" font-family="Helvetica,sans-Serif" font-size="9.00">+ equals()</text>
<text text-anchor="start" x="166" y="-808.4" font-family="Helvetica,sans-Serif" font-size="9.00">+ get()</text>
<text text-anchor="start" x="166" y="-795.4" font-family="Helvetica,sans-Serif" font-size="9.00">+ getMarkDownRenderer()</text>
<text text-anchor="start" x="166" y="-782.4" font-family="Helvetica,sans-Serif" font-size="9.00">+ hashCode()</text>
<text text-anchor="start" x="166" y="-769.4" font-family="Helvetica,sans-Serif" font-size="9.00">+ match()</text>
</a>
</g>
<!-- Node5&#45;&gt;Node4 -->
<g id="edge8" class="edge"><title>Node5&#45;&gt;Node4</title>
<path fill="none" stroke="#404040" d="M228,-760.466C228,-747.306 228,-734.092 228,-721.545"/>
<polygon fill="none" stroke="#404040" points="228,-721.247 224,-715.247 228,-709.247 232,-715.247 228,-721.247"/>
<text text-anchor="middle" x="267.5" y="-733.4" font-family="Helvetica,sans-Serif" font-size="9.00"> &#45;m_defaultlocation</text>
</g>
<!-- Node6 -->
<g id="node10" class="node"><title>Node6</title>
<a xlink:href="../../d3/d2a/a00195.htm" target="_top" xlink:title="interface of locations ">
<polygon fill="none" stroke="black" points="111,-1109 111,-1211 251,-1211 251,-1109 111,-1109"/>
<text text-anchor="start" x="119" y="-1198.9" font-family="Helvetica,sans-Serif" font-size="9.00">de.tu_clausthal.in.mec.ui.web.</text>
<text text-anchor="middle" x="181" y="-1185.9" font-family="Helvetica,sans-Serif" font-size="9.00">IVirtualLocation</text>
<polyline fill="none" stroke="black" points="111,-1177 251,-1177 "/>
<text text-anchor="middle" x="181" y="-1164.9" font-family="Helvetica,sans-Serif" font-size="9.00"> </text>
<polyline fill="none" stroke="black" points="111,-1156 251,-1156 "/>
<text text-anchor="start" x="119" y="-1143.9" font-family="Helvetica,sans-Serif" font-size="9.00">+ get()</text>
<text text-anchor="start" x="119" y="-1130.9" font-family="Helvetica,sans-Serif" font-size="9.00">+ getMarkDownRenderer()</text>
<text text-anchor="start" x="119" y="-1117.9" font-family="Helvetica,sans-Serif" font-size="9.00">+ match()</text>
</a>
</g>
<!-- Node6&#45;&gt;Node5 -->
<g id="edge10" class="edge"><title>Node6&#45;&gt;Node5</title>
<path fill="none" stroke="midnightblue" d="M190.907,-1098.87C196.517,-1064.26 203.7,-1019.94 210.249,-979.527"/>
<polygon fill="none" stroke="midnightblue" points="187.439,-1098.39 189.294,-1108.82 194.349,-1099.51 187.439,-1098.39"/>
</g>
<!-- Node7 -->
<g id="node12" class="node"><title>Node7</title>
<a xlink:href="../../db/df8/a00076.htm" target="_top" xlink:title="class of the link and layout markdown renderer ">
<polygon fill="none" stroke="black" points="269,-1031 269,-1289 409,-1289 409,-1031 269,-1031"/>
<text text-anchor="start" x="277" y="-1276.9" font-family="Helvetica,sans-Serif" font-size="9.00">de.tu_clausthal.in.mec.ui.web.</text>
<text text-anchor="middle" x="339" y="-1263.9" font-family="Helvetica,sans-Serif" font-size="9.00">CMarkdownRenderer</text>
<polyline fill="none" stroke="black" points="269,-1255 409,-1255 "/>
<text text-anchor="start" x="277" y="-1242.9" font-family="Helvetica,sans-Serif" font-size="9.00">&#45; m_baseuri</text>
<text text-anchor="start" x="277" y="-1229.9" font-family="Helvetica,sans-Serif" font-size="9.00">&#45; m_cssuri</text>
<polyline fill="none" stroke="black" points="269,-1221 409,-1221 "/>
<text text-anchor="start" x="277" y="-1208.9" font-family="Helvetica,sans-Serif" font-size="9.00">+ CMarkdownRenderer()</text>
<text text-anchor="start" x="277" y="-1195.9" font-family="Helvetica,sans-Serif" font-size="9.00">+ CMarkdownRenderer()</text>
<text text-anchor="start" x="277" y="-1182.9" font-family="Helvetica,sans-Serif" font-size="9.00">+ CMarkdownRenderer()</text>
<text text-anchor="start" x="277" y="-1169.9" font-family="Helvetica,sans-Serif" font-size="9.00">+ CMarkdownRenderer()</text>
<text text-anchor="start" x="277" y="-1156.9" font-family="Helvetica,sans-Serif" font-size="9.00">+ getHTML()</text>
<text text-anchor="start" x="277" y="-1143.9" font-family="Helvetica,sans-Serif" font-size="9.00">+ getMimeType()</text>
<text text-anchor="start" x="277" y="-1130.9" font-family="Helvetica,sans-Serif" font-size="9.00">+ render()</text>
<text text-anchor="start" x="277" y="-1117.9" font-family="Helvetica,sans-Serif" font-size="9.00">+ render()</text>
<text text-anchor="start" x="277" y="-1104.9" font-family="Helvetica,sans-Serif" font-size="9.00">+ render()</text>
<text text-anchor="start" x="277" y="-1091.9" font-family="Helvetica,sans-Serif" font-size="9.00">&#45; getHTMLDocument()</text>
<text text-anchor="start" x="277" y="-1078.9" font-family="Helvetica,sans-Serif" font-size="9.00">&#45; getHTMLFragment()</text>
<text text-anchor="start" x="277" y="-1065.9" font-family="Helvetica,sans-Serif" font-size="9.00">&#45; getURL()</text>
<text text-anchor="start" x="277" y="-1052.9" font-family="Helvetica,sans-Serif" font-size="9.00">&#45; getWikipediaLink()</text>
<text text-anchor="start" x="277" y="-1039.9" font-family="Helvetica,sans-Serif" font-size="9.00">&#45; isURL()</text>
</a>
</g>
<!-- Node7&#45;&gt;Node5 -->
<g id="edge12" class="edge"><title>Node7&#45;&gt;Node5</title>
<path fill="none" stroke="#404040" d="M289.506,-1030.69C284.453,-1017.49 279.333,-1004.11 274.316,-991.006"/>
<polygon fill="none" stroke="#404040" points="274.228,-990.775 268.347,-986.601 269.938,-979.568 275.819,-983.742 274.228,-990.775"/>
<text text-anchor="middle" x="310.5" y="-1003.4" font-family="Helvetica,sans-Serif" font-size="9.00"> &#45;m_markdown</text>
</g>
<!-- Node8 -->
<g id="node14" class="node"><title>Node8</title>
<a xlink:href="../../db/df8/a00076.htm#d9/de6/a00404" target="_top" xlink:title="enum to define return type of the HTML document * ">
<polygon fill="none" stroke="black" points="260,-1340.5 260,-1429.5 418,-1429.5 418,-1340.5 260,-1340.5"/>
<text text-anchor="start" x="268" y="-1417.4" font-family="Helvetica,sans-Serif" font-size="9.00">de.tu_clausthal.in.mec.ui.web.</text>
<text text-anchor="middle" x="339" y="-1404.4" font-family="Helvetica,sans-Serif" font-size="9.00">CMarkdownRenderer.EHTMLType</text>
<polyline fill="none" stroke="black" points="260,-1395.5 418,-1395.5 "/>
<text text-anchor="start" x="268" y="-1383.4" font-family="Helvetica,sans-Serif" font-size="9.00">+ Document</text>
<text text-anchor="start" x="268" y="-1370.4" font-family="Helvetica,sans-Serif" font-size="9.00">+ Fragment</text>
<polyline fill="none" stroke="black" points="260,-1361.5 418,-1361.5 "/>
<text text-anchor="middle" x="339" y="-1349.4" font-family="Helvetica,sans-Serif" font-size="9.00"> </text>
</a>
</g>
<!-- Node8&#45;&gt;Node7 -->
<g id="edge14" class="edge"><title>Node8&#45;&gt;Node7</title>
<path fill="none" stroke="#404040" d="M339,-1340.28C339,-1328.58 339,-1315.33 339,-1301.44"/>
<polygon fill="none" stroke="#404040" points="339,-1301.1 335,-1295.1 339,-1289.1 343,-1295.1 339,-1301.1"/>
<text text-anchor="middle" x="365.5" y="-1313.4" font-family="Helvetica,sans-Serif" font-size="9.00"> &#45;m_htmltype</text>
</g>
</g>
</svg>
