<?xml version="1.0" encoding="UTF-8" standalone="no"?>
<!DOCTYPE svg PUBLIC "-//W3C//DTD SVG 1.1//EN"
 "http://www.w3.org/Graphics/SVG/1.1/DTD/svg11.dtd">
<!-- Generated by graphviz version 2.26.3 (20100126.1600)
 -->
<!-- Title: de.tu_clausthal.in.mec.object.analysis.IDatabase.CWorker Pages: 1 -->
<svg width="180pt" height="314pt"
 viewBox="0.00 0.00 180.00 314.00" xmlns="http://www.w3.org/2000/svg" xmlns:xlink="http://www.w3.org/1999/xlink">
<g id="graph1" class="graph" transform="scale(1 1) rotate(0) translate(4 310)">
<title>de.tu_clausthal.in.mec.object.analysis.IDatabase.CWorker</title>
<!-- Node1 -->
<g id="node1" class="node"><title>Node1</title>
<polygon fill="#bfbfbf" stroke="black" points="-0.5,-1 -0.5,-77 172.5,-77 172.5,-1 -0.5,-1"/>
<text text-anchor="start" x="7.5" y="-64.9" font-family="Helvetica,sans-Serif" font-size="9.00">de.tu_clausthal.in.mec.object.analysis.</text>
<text text-anchor="middle" x="86" y="-51.9" font-family="Helvetica,sans-Serif" font-size="9.00">IDatabase.CWorker</text>
<polyline fill="none" stroke="black" points="-0.5,-43 172.5,-43 "/>
<text text-anchor="middle" x="86" y="-30.9" font-family="Helvetica,sans-Serif" font-size="9.00"> </text>
<polyline fill="none" stroke="black" points="-0.5,-22 172.5,-22 "/>
<text text-anchor="start" x="7.5" y="-9.9" font-family="Helvetica,sans-Serif" font-size="9.00">+ release()</text>
</g>
<!-- Node2 -->
<g id="node2" class="node"><title>Node2</title>
<a xlink:href="../../de/db1/a00197.htm" target="_top" xlink:title="interface of void&#45;step method ">
<polygon fill="none" stroke="black" points="14.5,-115 14.5,-191 157.5,-191 157.5,-115 14.5,-115"/>
<text text-anchor="start" x="22.5" y="-178.9" font-family="Helvetica,sans-Serif" font-size="9.00">de.tu_clausthal.in.mec.runtime.</text>
<text text-anchor="middle" x="86" y="-165.9" font-family="Helvetica,sans-Serif" font-size="9.00">IVoidSteppable</text>
<polyline fill="none" stroke="black" points="14.5,-157 157.5,-157 "/>
<text text-anchor="middle" x="86" y="-144.9" font-family="Helvetica,sans-Serif" font-size="9.00"> </text>
<polyline fill="none" stroke="black" points="14.5,-136 157.5,-136 "/>
<text text-anchor="start" x="22.5" y="-123.9" font-family="Helvetica,sans-Serif" font-size="9.00">+ step()</text>
</a>
</g>
<!-- Node2&#45;&gt;Node1 -->
<g id="edge2" class="edge"><title>Node2&#45;&gt;Node1</title>
<path fill="none" stroke="midnightblue" d="M86,-104.623C86,-95.5202 86,-86.1166 86,-77.3705"/>
<polygon fill="none" stroke="midnightblue" points="82.5001,-104.722 86,-114.723 89.5001,-104.723 82.5001,-104.722"/>
</g>
<!-- Node3 -->
<g id="node4" class="node"><title>Node3</title>
<a xlink:href="../../da/d15/a00188.htm" target="_top" xlink:title="interface for all objects which are triggered by the simulation worker ">
<polygon fill="none" stroke="black" points="14.5,-229 14.5,-305 157.5,-305 157.5,-229 14.5,-229"/>
<text text-anchor="start" x="22.5" y="-292.9" font-family="Helvetica,sans-Serif" font-size="9.00">de.tu_clausthal.in.mec.runtime.</text>
<text text-anchor="middle" x="86" y="-279.9" font-family="Helvetica,sans-Serif" font-size="9.00">ISteppable</text>
<polyline fill="none" stroke="black" points="14.5,-271 157.5,-271 "/>
<text text-anchor="middle" x="86" y="-258.9" font-family="Helvetica,sans-Serif" font-size="9.00"> </text>
<polyline fill="none" stroke="black" points="14.5,-250 157.5,-250 "/>
<text text-anchor="start" x="22.5" y="-237.9" font-family="Helvetica,sans-Serif" font-size="9.00">+ release()</text>
</a>
</g>
<!-- Node3&#45;&gt;Node2 -->
<g id="edge4" class="edge"><title>Node3&#45;&gt;Node2</title>
<path fill="none" stroke="midnightblue" d="M86,-218.623C86,-209.52 86,-200.117 86,-191.371"/>
<polygon fill="none" stroke="midnightblue" points="82.5001,-218.722 86,-228.723 89.5001,-218.723 82.5001,-218.722"/>
</g>
</g>
</svg>
