<?xml version="1.0" encoding="UTF-8" standalone="no"?>
<!DOCTYPE svg PUBLIC "-//W3C//DTD SVG 1.1//EN"
 "http://www.w3.org/Graphics/SVG/1.1/DTD/svg11.dtd">
<!-- Generated by graphviz version 2.26.3 (20100126.1600)
 -->
<!-- Title: de.tu_clausthal.in.mec.runtime.benchmark.CSummary Pages: 1 -->
<svg width="266pt" height="138pt"
 viewBox="0.00 0.00 266.00 138.00" xmlns="http://www.w3.org/2000/svg" xmlns:xlink="http://www.w3.org/1999/xlink">
<g id="graph1" class="graph" transform="scale(1 1) rotate(0) translate(4 134)">
<title>de.tu_clausthal.in.mec.runtime.benchmark.CSummary</title>
<!-- Node1 -->
<g id="node1" class="node"><title>Node1</title>
<polygon fill="#bfbfbf" stroke="black" points="-0.5,-1 -0.5,-129 190.5,-129 190.5,-1 -0.5,-1"/>
<text text-anchor="start" x="7.5" y="-116.9" font-family="Helvetica,sans-Serif" font-size="9.00">de.tu_clausthal.in.mec.runtime.benchmark.</text>
<text text-anchor="middle" x="95" y="-103.9" font-family="Helvetica,sans-Serif" font-size="9.00">CSummary</text>
<polyline fill="none" stroke="black" points="-0.5,-95 190.5,-95 "/>
<text text-anchor="start" x="7.5" y="-82.9" font-family="Helvetica,sans-Serif" font-size="9.00">&#45; m_filename</text>
<text text-anchor="start" x="7.5" y="-69.9" font-family="Helvetica,sans-Serif" font-size="9.00">&#45; m_result</text>
<polyline fill="none" stroke="black" points="-0.5,-61 190.5,-61 "/>
<text text-anchor="start" x="7.5" y="-48.9" font-family="Helvetica,sans-Serif" font-size="9.00">+ setFilename()</text>
<text text-anchor="start" x="7.5" y="-35.9" font-family="Helvetica,sans-Serif" font-size="9.00">+ setTime()</text>
<text text-anchor="start" x="7.5" y="-22.9" font-family="Helvetica,sans-Serif" font-size="9.00">+ store()</text>
<text text-anchor="start" x="7.5" y="-9.9" font-family="Helvetica,sans-Serif" font-size="9.00">+ getInstance()</text>
</g>
<!-- Node1&#45;&gt;Node1 -->
<g id="edge2" class="edge"><title>Node1&#45;&gt;Node1</title>
<path fill="none" stroke="#404040" d="M190.629,-85.1899C201.185,-81.355 208,-74.625 208,-65 208,-59.2852 205.597,-54.5909 201.436,-50.9173"/>
<polygon fill="none" stroke="#404040" points="201.076,-50.7141 193.884,-51.2445 190.629,-44.8101 197.82,-44.2797 201.076,-50.7141"/>
<text text-anchor="middle" x="233" y="-63.4" font-family="Helvetica,sans-Serif" font-size="9.00"> &#45;c_instance</text>
</g>
</g>
</svg>
