<?xml version="1.0" encoding="UTF-8" standalone="no"?>
<!DOCTYPE svg PUBLIC "-//W3C//DTD SVG 1.1//EN"
 "http://www.w3.org/Graphics/SVG/1.1/DTD/svg11.dtd">
<!-- Generated by graphviz version 2.26.3 (20100126.1600)
 -->
<!-- Title: de.tu_clausthal.in.mec.common.CReflection Pages: 1 -->
<svg width="156pt" height="574pt"
 viewBox="0.00 0.00 156.00 574.00" xmlns="http://www.w3.org/2000/svg" xmlns:xlink="http://www.w3.org/1999/xlink">
<g id="graph1" class="graph" transform="scale(1 1) rotate(0) translate(4 570)">
<title>de.tu_clausthal.in.mec.common.CReflection</title>
<!-- Node1 -->
<g id="node1" class="node"><title>Node1</title>
<polygon fill="#bfbfbf" stroke="black" points="0,-0.5 0,-167.5 148,-167.5 148,-0.5 0,-0.5"/>
<text text-anchor="start" x="8" y="-155.4" font-family="Helvetica,sans-Serif" font-size="9.00">de.tu_clausthal.in.mec.common.</text>
<text text-anchor="middle" x="74" y="-142.4" font-family="Helvetica,sans-Serif" font-size="9.00">CReflection</text>
<polyline fill="none" stroke="black" points="0,-133.5 148,-133.5 "/>
<text text-anchor="middle" x="74" y="-121.4" font-family="Helvetica,sans-Serif" font-size="9.00"> </text>
<polyline fill="none" stroke="black" points="0,-112.5 148,-112.5 "/>
<text text-anchor="start" x="8" y="-100.4" font-family="Helvetica,sans-Serif" font-size="9.00">+ getClassField()</text>
<text text-anchor="start" x="8" y="-87.4" font-family="Helvetica,sans-Serif" font-size="9.00">+ getClassFields()</text>
<text text-anchor="start" x="8" y="-74.4" font-family="Helvetica,sans-Serif" font-size="9.00">+ getClassFields()</text>
<text text-anchor="start" x="8" y="-61.4" font-family="Helvetica,sans-Serif" font-size="9.00">+ getClassIndex()</text>
<text text-anchor="start" x="8" y="-48.4" font-family="Helvetica,sans-Serif" font-size="9.00">+ getClassMethod()</text>
<text text-anchor="start" x="8" y="-35.4" font-family="Helvetica,sans-Serif" font-size="9.00">+ getClassMethod()</text>
<text text-anchor="start" x="8" y="-22.4" font-family="Helvetica,sans-Serif" font-size="9.00">+ getClassMethods()</text>
<text text-anchor="start" x="8" y="-9.4" font-family="Helvetica,sans-Serif" font-size="9.00">&#45; CReflection()</text>
</g>
<!-- Node2 -->
<g id="node2" class="node"><title>Node2</title>
<a xlink:href="../../d5/d79/a00030.htm" target="_top" xlink:title="class to represent a class index ">
<polygon fill="none" stroke="black" points="0,-219 0,-425 148,-425 148,-219 0,-219"/>
<text text-anchor="start" x="8" y="-412.9" font-family="Helvetica,sans-Serif" font-size="9.00">de.tu_clausthal.in.mec.common.</text>
<text text-anchor="middle" x="74" y="-399.9" font-family="Helvetica,sans-Serif" font-size="9.00">CReflection.CClassIndex</text>
<polyline fill="none" stroke="black" points="0,-391 148,-391 "/>
<text text-anchor="start" x="8" y="-378.9" font-family="Helvetica,sans-Serif" font-size="9.00">&#45; m_classname</text>
<text text-anchor="start" x="8" y="-365.9" font-family="Helvetica,sans-Serif" font-size="9.00">&#45; m_filter</text>
<text text-anchor="start" x="8" y="-352.9" font-family="Helvetica,sans-Serif" font-size="9.00">&#45; c_classextension</text>
<polyline fill="none" stroke="black" points="0,-344 148,-344 "/>
<text text-anchor="start" x="8" y="-331.9" font-family="Helvetica,sans-Serif" font-size="9.00">+ CClassIndex()</text>
<text text-anchor="start" x="8" y="-318.9" font-family="Helvetica,sans-Serif" font-size="9.00">+ filter()</text>
<text text-anchor="start" x="8" y="-305.9" font-family="Helvetica,sans-Serif" font-size="9.00">+ get()</text>
<text text-anchor="start" x="8" y="-292.9" font-family="Helvetica,sans-Serif" font-size="9.00">+ getAll()</text>
<text text-anchor="start" x="8" y="-279.9" font-family="Helvetica,sans-Serif" font-size="9.00">+ scan()</text>
<text text-anchor="start" x="8" y="-266.9" font-family="Helvetica,sans-Serif" font-size="9.00">+ scanDirectory()</text>
<text text-anchor="start" x="8" y="-253.9" font-family="Helvetica,sans-Serif" font-size="9.00">+ scanJar()</text>
<text text-anchor="start" x="8" y="-240.9" font-family="Helvetica,sans-Serif" font-size="9.00">&#45; getClassnameFromFile()</text>
<text text-anchor="start" x="8" y="-227.9" font-family="Helvetica,sans-Serif" font-size="9.00">&#45; startsIgnoreWith()</text>
</a>
</g>
<!-- Node2&#45;&gt;Node1 -->
<g id="edge2" class="edge"><title>Node2&#45;&gt;Node1</title>
<path fill="none" stroke="#404040" d="M74,-218.994C74,-206.046 74,-192.841 74,-180.007"/>
<polygon fill="none" stroke="#404040" points="74.0001,-179.837 70,-173.837 74,-167.837 78,-173.837 74.0001,-179.837"/>
<text text-anchor="middle" x="103.5" y="-191.4" font-family="Helvetica,sans-Serif" font-size="9.00"> &#45;c_classindex</text>
</g>
<!-- Node3 -->
<g id="node4" class="node"><title>Node3</title>
<a xlink:href="../../d5/d79/a00030.htm#d0/da0/a00403" target="_top" xlink:title="enum to define the filter * ">
<polygon fill="none" stroke="black" points="0,-476.5 0,-565.5 148,-565.5 148,-476.5 0,-476.5"/>
<text text-anchor="start" x="8" y="-553.4" font-family="Helvetica,sans-Serif" font-size="9.00">de.tu_clausthal.in.mec.common.</text>
<text text-anchor="middle" x="74" y="-540.4" font-family="Helvetica,sans-Serif" font-size="9.00">CReflection.CClassIndex.EFilter</text>
<polyline fill="none" stroke="black" points="0,-531.5 148,-531.5 "/>
<text text-anchor="start" x="8" y="-519.4" font-family="Helvetica,sans-Serif" font-size="9.00">+ BlackList</text>
<text text-anchor="start" x="8" y="-506.4" font-family="Helvetica,sans-Serif" font-size="9.00">+ WhiteList</text>
<polyline fill="none" stroke="black" points="0,-497.5 148,-497.5 "/>
<text text-anchor="middle" x="74" y="-485.4" font-family="Helvetica,sans-Serif" font-size="9.00"> </text>
</a>
</g>
<!-- Node3&#45;&gt;Node2 -->
<g id="edge4" class="edge"><title>Node3&#45;&gt;Node2</title>
<path fill="none" stroke="#404040" d="M74,-476.341C74,-464.464 74,-451.072 74,-437.263"/>
<polygon fill="none" stroke="#404040" points="74.0001,-437.05 70,-431.05 74,-425.05 78,-431.05 74.0001,-437.05"/>
<text text-anchor="middle" x="110.5" y="-449.4" font-family="Helvetica,sans-Serif" font-size="9.00"> &#45;m_filterdefinition</text>
</g>
</g>
</svg>
