<?xml version="1.0" encoding="UTF-8" standalone="no"?>
<!DOCTYPE svg PUBLIC "-//W3C//DTD SVG 1.1//EN"
 "http://www.w3.org/Graphics/SVG/1.1/DTD/svg11.dtd">
<!-- Generated by graphviz version 2.26.3 (20100126.1600)
 -->
<!-- Title: de.tu_clausthal.in.mec.object.car.CCarJasonAgent.CTrafficStorage.updating Pages: 1 -->
<svg width="388pt" height="94pt"
 viewBox="0.00 0.00 388.00 94.00" xmlns="http://www.w3.org/2000/svg" xmlns:xlink="http://www.w3.org/1999/xlink">
<g id="graph1" class="graph" transform="scale(1 1) rotate(0) translate(4 90)">
<title>de.tu_clausthal.in.mec.object.car.CCarJasonAgent.CTrafficStorage.updating</title>
<!-- Node1 -->
<g id="node1" class="node"><title>Node1</title>
<polygon fill="#bfbfbf" stroke="black" points="0.5,-26 0.5,-60 191.5,-60 191.5,-26 0.5,-26"/>
<text text-anchor="start" x="8.5" y="-47.9" font-family="Helvetica,sans-Serif" font-size="9.00">de.tu_clausthal.in.mec.object.car.</text>
<text text-anchor="middle" x="96" y="-34.9" font-family="Helvetica,sans-Serif" font-size="9.00">CCarJasonAgent.CTrafficStorage.updating</text>
</g>
<!-- Node2 -->
<g id="node3" class="node"><title>Node2</title>
<a xlink:href="../../d5/df9/a00044.htm#ad0e4fa7d1813182f4ee65619933761ce" target="_top" xlink:title="get current edge object on the graph ">
<polygon fill="none" stroke="black" points="228,-52 228,-86 380,-86 380,-52 228,-52"/>
<text text-anchor="start" x="236" y="-73.9" font-family="Helvetica,sans-Serif" font-size="9.00">de.tu_clausthal.in.mec.object.car.</text>
<text text-anchor="middle" x="304" y="-60.9" font-family="Helvetica,sans-Serif" font-size="9.00">CDefaultCar.getEdge</text>
</a>
</g>
<!-- Node1&#45;&gt;Node2 -->
<g id="edge2" class="edge"><title>Node1&#45;&gt;Node2</title>
<path fill="none" stroke="midnightblue" d="M191.781,-54.9726C200.441,-56.0551 209.177,-57.1471 217.747,-58.2184"/>
<polygon fill="midnightblue" stroke="midnightblue" points="217.361,-61.6972 227.717,-59.4647 218.229,-54.7513 217.361,-61.6972"/>
</g>
<!-- Node3 -->
<g id="node5" class="node"><title>Node3</title>
<a xlink:href="../../d6/d5b/a00026.htm#ad7cda1f059b200eb8f5688feeda93a98" target="_top" xlink:title="returns the unit converting object ">
<polygon fill="none" stroke="black" points="228,-0 228,-34 380,-34 380,-0 228,-0"/>
<text text-anchor="start" x="236" y="-21.9" font-family="Helvetica,sans-Serif" font-size="9.00">de.tu_clausthal.in.mec.object.car.</text>
<text text-anchor="middle" x="304" y="-8.9" font-family="Helvetica,sans-Serif" font-size="9.00">CCarLayer.getUnitConvert</text>
</a>
</g>
<!-- Node1&#45;&gt;Node3 -->
<g id="edge4" class="edge"><title>Node1&#45;&gt;Node3</title>
<path fill="none" stroke="midnightblue" d="M191.781,-31.0274C200.441,-29.9449 209.177,-28.8529 217.747,-27.7816"/>
<polygon fill="midnightblue" stroke="midnightblue" points="218.229,-31.2487 227.717,-26.5353 217.361,-24.3028 218.229,-31.2487"/>
</g>
</g>
</svg>
