<?xml version="1.0" encoding="UTF-8" standalone="no"?>
<!DOCTYPE svg PUBLIC "-//W3C//DTD SVG 1.1//EN"
 "http://www.w3.org/Graphics/SVG/1.1/DTD/svg11.dtd">
<!-- Generated by graphviz version 2.26.3 (20100126.1600)
 -->
<!-- Title: de.tu_clausthal.in.mec.runtime.message.CMessageSystem Pages: 1 -->
<svg width="308pt" height="602pt"
 viewBox="0.00 0.00 308.00 602.00" xmlns="http://www.w3.org/2000/svg" xmlns:xlink="http://www.w3.org/1999/xlink">
<g id="graph1" class="graph" transform="scale(1 1) rotate(0) translate(4 598)">
<title>de.tu_clausthal.in.mec.runtime.message.CMessageSystem</title>
<!-- Node1 -->
<g id="node1" class="node"><title>Node1</title>
<polygon fill="#bfbfbf" stroke="black" points="98.5,-1 98.5,-207 281.5,-207 281.5,-1 98.5,-1"/>
<text text-anchor="start" x="106.5" y="-194.9" font-family="Helvetica,sans-Serif" font-size="9.00">de.tu_clausthal.in.mec.runtime.message.</text>
<text text-anchor="middle" x="190" y="-181.9" font-family="Helvetica,sans-Serif" font-size="9.00">CMessageSystem</text>
<polyline fill="none" stroke="black" points="98.5,-173 281.5,-173 "/>
<text text-anchor="start" x="106.5" y="-160.9" font-family="Helvetica,sans-Serif" font-size="9.00">&#45; m_listener</text>
<text text-anchor="start" x="106.5" y="-147.9" font-family="Helvetica,sans-Serif" font-size="9.00">&#45; m_messageflow</text>
<text text-anchor="start" x="106.5" y="-134.9" font-family="Helvetica,sans-Serif" font-size="9.00">&#45; m_root</text>
<polyline fill="none" stroke="black" points="98.5,-126 281.5,-126 "/>
<text text-anchor="start" x="106.5" y="-113.9" font-family="Helvetica,sans-Serif" font-size="9.00">+ addActionListener()</text>
<text text-anchor="start" x="106.5" y="-100.9" font-family="Helvetica,sans-Serif" font-size="9.00">+ pushMessage()</text>
<text text-anchor="start" x="106.5" y="-87.9" font-family="Helvetica,sans-Serif" font-size="9.00">+ register()</text>
<text text-anchor="start" x="106.5" y="-74.9" font-family="Helvetica,sans-Serif" font-size="9.00">+ release()</text>
<text text-anchor="start" x="106.5" y="-61.9" font-family="Helvetica,sans-Serif" font-size="9.00">+ removeListener()</text>
<text text-anchor="start" x="106.5" y="-48.9" font-family="Helvetica,sans-Serif" font-size="9.00">+ step()</text>
<text text-anchor="start" x="106.5" y="-35.9" font-family="Helvetica,sans-Serif" font-size="9.00">+ unregister()</text>
<text text-anchor="start" x="106.5" y="-22.9" font-family="Helvetica,sans-Serif" font-size="9.00">&#45; incrementMessageFlow()</text>
<text text-anchor="start" x="106.5" y="-9.9" font-family="Helvetica,sans-Serif" font-size="9.00">&#45; web_dynamic_flow()</text>
</g>
<!-- Node2 -->
<g id="node2" class="node"><title>Node2</title>
<a xlink:href="../../de/db1/a00197.htm" target="_top" xlink:title="interface of void&#45;step method ">
<polygon fill="none" stroke="black" points="-0.5,-330 -0.5,-406 142.5,-406 142.5,-330 -0.5,-330"/>
<text text-anchor="start" x="7.5" y="-393.9" font-family="Helvetica,sans-Serif" font-size="9.00">de.tu_clausthal.in.mec.runtime.</text>
<text text-anchor="middle" x="71" y="-380.9" font-family="Helvetica,sans-Serif" font-size="9.00">IVoidSteppable</text>
<polyline fill="none" stroke="black" points="-0.5,-372 142.5,-372 "/>
<text text-anchor="middle" x="71" y="-359.9" font-family="Helvetica,sans-Serif" font-size="9.00"> </text>
<polyline fill="none" stroke="black" points="-0.5,-351 142.5,-351 "/>
<text text-anchor="start" x="7.5" y="-338.9" font-family="Helvetica,sans-Serif" font-size="9.00">+ step()</text>
</a>
</g>
<!-- Node2&#45;&gt;Node1 -->
<g id="edge2" class="edge"><title>Node2&#45;&gt;Node1</title>
<path fill="none" stroke="midnightblue" d="M92.4252,-320.469C106.657,-288.895 125.901,-246.203 143.537,-207.077"/>
<polygon fill="none" stroke="midnightblue" points="89.0952,-319.339 88.1765,-329.894 95.4768,-322.216 89.0952,-319.339"/>
</g>
<!-- Node3 -->
<g id="node4" class="node"><title>Node3</title>
<a xlink:href="../../da/d15/a00188.htm" target="_top" xlink:title="interface for all objects which are triggered by the simulation worker ">
<polygon fill="none" stroke="black" points="-0.5,-517 -0.5,-593 142.5,-593 142.5,-517 -0.5,-517"/>
<text text-anchor="start" x="7.5" y="-580.9" font-family="Helvetica,sans-Serif" font-size="9.00">de.tu_clausthal.in.mec.runtime.</text>
<text text-anchor="middle" x="71" y="-567.9" font-family="Helvetica,sans-Serif" font-size="9.00">ISteppable</text>
<polyline fill="none" stroke="black" points="-0.5,-559 142.5,-559 "/>
<text text-anchor="middle" x="71" y="-546.9" font-family="Helvetica,sans-Serif" font-size="9.00"> </text>
<polyline fill="none" stroke="black" points="-0.5,-538 142.5,-538 "/>
<text text-anchor="start" x="7.5" y="-525.9" font-family="Helvetica,sans-Serif" font-size="9.00">+ release()</text>
</a>
</g>
<!-- Node3&#45;&gt;Node2 -->
<g id="edge4" class="edge"><title>Node3&#45;&gt;Node2</title>
<path fill="none" stroke="midnightblue" d="M71,-506.48C71,-475.246 71,-435.222 71,-406.242"/>
<polygon fill="none" stroke="midnightblue" points="67.5001,-506.706 71,-516.707 74.5001,-506.707 67.5001,-506.706"/>
</g>
<!-- Node4 -->
<g id="node6" class="node"><title>Node4</title>
<a xlink:href="../../d4/d3a/a00101.htm" target="_top" xlink:title="storage class to store websockets communicator thread&#45;safe ">
<polygon fill="none" stroke="black" points="160,-258.5 160,-477.5 300,-477.5 300,-258.5 160,-258.5"/>
<text text-anchor="start" x="168" y="-465.4" font-family="Helvetica,sans-Serif" font-size="9.00">de.tu_clausthal.in.mec.ui.web.</text>
<text text-anchor="middle" x="230" y="-452.4" font-family="Helvetica,sans-Serif" font-size="9.00">CSocketStorage</text>
<polyline fill="none" stroke="black" points="160,-443.5 300,-443.5 "/>
<text text-anchor="start" x="168" y="-431.4" font-family="Helvetica,sans-Serif" font-size="9.00">&#45; m_communicator</text>
<polyline fill="none" stroke="black" points="160,-422.5 300,-422.5 "/>
<text text-anchor="start" x="168" y="-410.4" font-family="Helvetica,sans-Serif" font-size="9.00">+ clear()</text>
<text text-anchor="start" x="168" y="-397.4" font-family="Helvetica,sans-Serif" font-size="9.00">+ contains()</text>
<text text-anchor="start" x="168" y="-384.4" font-family="Helvetica,sans-Serif" font-size="9.00">+ contains()</text>
<text text-anchor="start" x="168" y="-371.4" font-family="Helvetica,sans-Serif" font-size="9.00">+ get()</text>
<text text-anchor="start" x="168" y="-358.4" font-family="Helvetica,sans-Serif" font-size="9.00">+ handshake()</text>
<text text-anchor="start" x="168" y="-345.4" font-family="Helvetica,sans-Serif" font-size="9.00">+ isEmpty()</text>
<text text-anchor="start" x="168" y="-332.4" font-family="Helvetica,sans-Serif" font-size="9.00">+ put()</text>
<text text-anchor="start" x="168" y="-319.4" font-family="Helvetica,sans-Serif" font-size="9.00">+ remove()</text>
<text text-anchor="start" x="168" y="-306.4" font-family="Helvetica,sans-Serif" font-size="9.00">+ remove()</text>
<text text-anchor="start" x="168" y="-293.4" font-family="Helvetica,sans-Serif" font-size="9.00">+ send()</text>
<text text-anchor="start" x="168" y="-280.4" font-family="Helvetica,sans-Serif" font-size="9.00">+ send()</text>
<text text-anchor="start" x="168" y="-267.4" font-family="Helvetica,sans-Serif" font-size="9.00">+ size()</text>
</a>
</g>
<!-- Node4&#45;&gt;Node1 -->
<g id="edge6" class="edge"><title>Node4&#45;&gt;Node1</title>
<path fill="none" stroke="#404040" d="M213.384,-258.334C211.448,-245.558 209.469,-232.495 207.522,-219.642"/>
<polygon fill="none" stroke="#404040" points="207.464,-219.265 202.611,-213.932 205.667,-207.4 210.52,-212.733 207.464,-219.265"/>
<text text-anchor="middle" x="248" y="-231.4" font-family="Helvetica,sans-Serif" font-size="9.00"> &#45;m_communicator</text>
</g>
</g>
</svg>
