<?xml version="1.0" encoding="UTF-8" standalone="no"?>
<!DOCTYPE svg PUBLIC "-//W3C//DTD SVG 1.1//EN"
 "http://www.w3.org/Graphics/SVG/1.1/DTD/svg11.dtd">
<!-- Generated by graphviz version 2.26.3 (20100126.1600)
 -->
<!-- Title: de.tu_clausthal.in.mec.ui.CInconsistencyEnvironment.web_static_getMetric Pages: 1 -->
<svg width="556pt" height="56pt"
 viewBox="0.00 0.00 556.00 56.00" xmlns="http://www.w3.org/2000/svg" xmlns:xlink="http://www.w3.org/1999/xlink">
<g id="graph1" class="graph" transform="scale(1 1) rotate(0) translate(4 52)">
<title>de.tu_clausthal.in.mec.ui.CInconsistencyEnvironment.web_static_getMetric</title>
<!-- Node1 -->
<g id="node1" class="node"><title>Node1</title>
<polygon fill="#bfbfbf" stroke="black" points="0,-0.5 0,-47.5 150,-47.5 150,-0.5 0,-0.5"/>
<text text-anchor="start" x="8" y="-35.4" font-family="Helvetica,sans-Serif" font-size="9.00">de.tu_clausthal.in.mec.ui.</text>
<text text-anchor="start" x="8" y="-22.4" font-family="Helvetica,sans-Serif" font-size="9.00">CInconsistencyEnvironment.web</text>
<text text-anchor="middle" x="75" y="-9.4" font-family="Helvetica,sans-Serif" font-size="9.00">_static_getMetric</text>
</g>
<!-- Node2 -->
<g id="node3" class="node"><title>Node2</title>
<a xlink:href="../../d5/db1/a00140.htm#a1ecc72e65a42d65e116475de66127fc4" target="_top" xlink:title="returns the enum type of a metric object ">
<polygon fill="none" stroke="black" points="186,-7 186,-41 364,-41 364,-7 186,-7"/>
<text text-anchor="start" x="194" y="-28.9" font-family="Helvetica,sans-Serif" font-size="9.00">de.tu_clausthal.in.mec.ui.</text>
<text text-anchor="middle" x="275" y="-15.9" font-family="Helvetica,sans-Serif" font-size="9.00">CInconsistencyEnvironment.EMetric.isa</text>
</a>
</g>
<!-- Node1&#45;&gt;Node2 -->
<g id="edge2" class="edge"><title>Node1&#45;&gt;Node2</title>
<path fill="none" stroke="midnightblue" d="M150.042,-24C158.407,-24 167.021,-24 175.628,-24"/>
<polygon fill="midnightblue" stroke="midnightblue" points="175.715,-27.5001 185.715,-24 175.715,-20.5001 175.715,-27.5001"/>
</g>
<!-- Node3 -->
<g id="node5" class="node"><title>Node3</title>
<a xlink:href="../../d1/dc6/a00037.htm#ae523069a1b523b0e6a0c643049b1d745" target="_top" xlink:title="returns a default string of the resource file ">
<polygon fill="none" stroke="black" points="400,-7 400,-41 548,-41 548,-7 400,-7"/>
<text text-anchor="start" x="408" y="-28.9" font-family="Helvetica,sans-Serif" font-size="9.00">de.tu_clausthal.in.mec.common.</text>
<text text-anchor="middle" x="474" y="-15.9" font-family="Helvetica,sans-Serif" font-size="9.00">CCommon.getResourceString</text>
</a>
</g>
<!-- Node2&#45;&gt;Node3 -->
<g id="edge4" class="edge"><title>Node2&#45;&gt;Node3</title>
<path fill="none" stroke="midnightblue" d="M364.023,-24C372.558,-24 381.196,-24 389.683,-24"/>
<polygon fill="midnightblue" stroke="midnightblue" points="389.944,-27.5001 399.944,-24 389.944,-20.5001 389.944,-27.5001"/>
</g>
</g>
</svg>
