<?xml version="1.0" encoding="UTF-8" standalone="no"?>
<!DOCTYPE svg PUBLIC "-//W3C//DTD SVG 1.1//EN"
 "http://www.w3.org/Graphics/SVG/1.1/DTD/svg11.dtd">
<!-- Generated by graphviz version 2.26.3 (20100126.1600)
 -->
<!-- Title: de.tu_clausthal.in.mec.ui.CInconsistencyEnvironment.CInconsistencyEnvironment Pages: 1 -->
<svg width="388pt" height="94pt"
 viewBox="0.00 0.00 388.00 94.00" xmlns="http://www.w3.org/2000/svg" xmlns:xlink="http://www.w3.org/1999/xlink">
<g id="graph1" class="graph" transform="scale(1 1) rotate(0) translate(4 90)">
<title>de.tu_clausthal.in.mec.ui.CInconsistencyEnvironment.CInconsistencyEnvironment</title>
<!-- Node1 -->
<g id="node1" class="node"><title>Node1</title>
<polygon fill="#bfbfbf" stroke="black" points="0.5,-19.5 0.5,-66.5 195.5,-66.5 195.5,-19.5 0.5,-19.5"/>
<text text-anchor="start" x="8.5" y="-54.4" font-family="Helvetica,sans-Serif" font-size="9.00">de.tu_clausthal.in.mec.ui.</text>
<text text-anchor="start" x="8.5" y="-41.4" font-family="Helvetica,sans-Serif" font-size="9.00">CInconsistencyEnvironment.CInconsistency</text>
<text text-anchor="middle" x="98" y="-28.4" font-family="Helvetica,sans-Serif" font-size="9.00">Environment</text>
</g>
<!-- Node2 -->
<g id="node3" class="node"><title>Node2</title>
<a xlink:href="../../d0/d61/a00100.htm#a2f84b4ec6605cc18ae204b812d7884ec" target="_top" xlink:title="returns the singelton instance ">
<polygon fill="none" stroke="black" points="234.5,-52 234.5,-86 377.5,-86 377.5,-52 234.5,-52"/>
<text text-anchor="start" x="242.5" y="-73.9" font-family="Helvetica,sans-Serif" font-size="9.00">de.tu_clausthal.in.mec.runtime.</text>
<text text-anchor="middle" x="306" y="-60.9" font-family="Helvetica,sans-Serif" font-size="9.00">CSimulation.getInstance</text>
</a>
</g>
<!-- Node1&#45;&gt;Node2 -->
<g id="edge2" class="edge"><title>Node1&#45;&gt;Node2</title>
<path fill="none" stroke="midnightblue" d="M195.605,-55.2006C205.217,-56.4021 214.902,-57.6127 224.329,-58.7912"/>
<polygon fill="midnightblue" stroke="midnightblue" points="224.086,-62.2879 234.443,-60.0554 224.955,-55.342 224.086,-62.2879"/>
</g>
<!-- Node3 -->
<g id="node5" class="node"><title>Node3</title>
<a xlink:href="../../d1/dc6/a00037.htm#ae523069a1b523b0e6a0c643049b1d745" target="_top" xlink:title="returns a default string of the resource file ">
<polygon fill="none" stroke="black" points="232,-0 232,-34 380,-34 380,-0 232,-0"/>
<text text-anchor="start" x="240" y="-21.9" font-family="Helvetica,sans-Serif" font-size="9.00">de.tu_clausthal.in.mec.common.</text>
<text text-anchor="middle" x="306" y="-8.9" font-family="Helvetica,sans-Serif" font-size="9.00">CCommon.getResourceString</text>
</a>
</g>
<!-- Node1&#45;&gt;Node3 -->
<g id="edge4" class="edge"><title>Node1&#45;&gt;Node3</title>
<path fill="none" stroke="midnightblue" d="M195.605,-30.7994C204.33,-29.7088 213.114,-28.6107 221.712,-27.536"/>
<polygon fill="midnightblue" stroke="midnightblue" points="222.216,-31.0003 231.705,-26.2869 221.348,-24.0543 222.216,-31.0003"/>
</g>
</g>
</svg>
