<?xml version="1.0" encoding="UTF-8" standalone="no"?>
<!DOCTYPE svg PUBLIC "-//W3C//DTD SVG 1.1//EN"
 "http://www.w3.org/Graphics/SVG/1.1/DTD/svg11.dtd">
<!-- Generated by graphviz version 2.26.3 (20100126.1600)
 -->
<!-- Title: de.tu_clausthal.in.mec.object.mas.CFieldFilter Pages: 1 -->
<svg width="164pt" height="200pt"
 viewBox="0.00 0.00 164.00 200.00" xmlns="http://www.w3.org/2000/svg" xmlns:xlink="http://www.w3.org/1999/xlink">
<g id="graph1" class="graph" transform="scale(1 1) rotate(0) translate(4 196)">
<title>de.tu_clausthal.in.mec.object.mas.CFieldFilter</title>
<!-- Node1 -->
<g id="node1" class="node"><title>Node1</title>
<polygon fill="#bfbfbf" stroke="black" points="-0.5,-1 -0.5,-77 156.5,-77 156.5,-1 -0.5,-1"/>
<text text-anchor="start" x="7.5" y="-64.9" font-family="Helvetica,sans-Serif" font-size="9.00">de.tu_clausthal.in.mec.object.mas.</text>
<text text-anchor="middle" x="78" y="-51.9" font-family="Helvetica,sans-Serif" font-size="9.00">CFieldFilter</text>
<polyline fill="none" stroke="black" points="-0.5,-43 156.5,-43 "/>
<text text-anchor="middle" x="78" y="-30.9" font-family="Helvetica,sans-Serif" font-size="9.00"> </text>
<polyline fill="none" stroke="black" points="-0.5,-22 156.5,-22 "/>
<text text-anchor="start" x="7.5" y="-9.9" font-family="Helvetica,sans-Serif" font-size="9.00">+ filter()</text>
</g>
<!-- Node2 -->
<g id="node2" class="node"><title>Node2</title>
<a xlink:href="../../dd/dae/a00163.htm" target="_top" xlink:title="interface of field filtering ">
<polygon fill="none" stroke="black" points="4,-115 4,-191 152,-191 152,-115 4,-115"/>
<text text-anchor="start" x="12" y="-178.9" font-family="Helvetica,sans-Serif" font-size="9.00">de.tu_clausthal.in.mec.common.</text>
<text text-anchor="middle" x="78" y="-165.9" font-family="Helvetica,sans-Serif" font-size="9.00">CReflection.IFieldFilter</text>
<polyline fill="none" stroke="black" points="4,-157 152,-157 "/>
<text text-anchor="middle" x="78" y="-144.9" font-family="Helvetica,sans-Serif" font-size="9.00"> </text>
<polyline fill="none" stroke="black" points="4,-136 152,-136 "/>
<text text-anchor="start" x="12" y="-123.9" font-family="Helvetica,sans-Serif" font-size="9.00">+ filter()</text>
</a>
</g>
<!-- Node2&#45;&gt;Node1 -->
<g id="edge2" class="edge"><title>Node2&#45;&gt;Node1</title>
<path fill="none" stroke="midnightblue" d="M78,-104.623C78,-95.5202 78,-86.1166 78,-77.3705"/>
<polygon fill="none" stroke="midnightblue" points="74.5001,-104.722 78,-114.723 81.5001,-104.723 74.5001,-104.722"/>
</g>
</g>
</svg>
