<?xml version="1.0" encoding="UTF-8" standalone="no"?>
<!DOCTYPE svg PUBLIC "-//W3C//DTD SVG 1.1//EN"
 "http://www.w3.org/Graphics/SVG/1.1/DTD/svg11.dtd">
<!-- Generated by graphviz version 2.26.3 (20100126.1600)
 -->
<!-- Title: de.tu_clausthal.in.mec.runtime.benchmark.CTimer.stop Pages: 1 -->
<svg width="428pt" height="94pt"
 viewBox="0.00 0.00 428.00 94.00" xmlns="http://www.w3.org/2000/svg" xmlns:xlink="http://www.w3.org/1999/xlink">
<g id="graph1" class="graph" transform="scale(1 1) rotate(0) translate(4 90)">
<title>de.tu_clausthal.in.mec.runtime.benchmark.CTimer.stop</title>
<!-- Node1 -->
<g id="node1" class="node"><title>Node1</title>
<polygon fill="#bfbfbf" stroke="black" points="0.5,-26 0.5,-60 191.5,-60 191.5,-26 0.5,-26"/>
<text text-anchor="start" x="8.5" y="-47.9" font-family="Helvetica,sans-Serif" font-size="9.00">de.tu_clausthal.in.mec.runtime.benchmark.</text>
<text text-anchor="middle" x="96" y="-34.9" font-family="Helvetica,sans-Serif" font-size="9.00">CTimer.stop</text>
</g>
<!-- Node2 -->
<g id="node3" class="node"><title>Node2</title>
<a xlink:href="../../d1/dc6/a00037.htm#ae523069a1b523b0e6a0c643049b1d745" target="_top" xlink:title="returns a default string of the resource file ">
<polygon fill="none" stroke="black" points="250,-52 250,-86 398,-86 398,-52 250,-52"/>
<text text-anchor="start" x="258" y="-73.9" font-family="Helvetica,sans-Serif" font-size="9.00">de.tu_clausthal.in.mec.common.</text>
<text text-anchor="middle" x="324" y="-60.9" font-family="Helvetica,sans-Serif" font-size="9.00">CCommon.getResourceString</text>
</a>
</g>
<!-- Node1&#45;&gt;Node2 -->
<g id="edge2" class="edge"><title>Node1&#45;&gt;Node2</title>
<path fill="none" stroke="midnightblue" d="M191.702,-53.9133C207.596,-55.7259 223.978,-57.594 239.568,-59.3718"/>
<polygon fill="midnightblue" stroke="midnightblue" points="239.353,-62.8699 249.685,-60.5255 240.146,-55.9149 239.353,-62.8699"/>
</g>
<!-- Node3 -->
<g id="node5" class="node"><title>Node3</title>
<a xlink:href="../../d3/d00/a00113.htm#ad402ae5b88ddd0f3ef25bb4224455c72" target="_top" xlink:title="returns the current time ">
<polygon fill="none" stroke="black" points="228.5,-0 228.5,-34 419.5,-34 419.5,-0 228.5,-0"/>
<text text-anchor="start" x="236.5" y="-21.9" font-family="Helvetica,sans-Serif" font-size="9.00">de.tu_clausthal.in.mec.runtime.benchmark.</text>
<text text-anchor="middle" x="324" y="-8.9" font-family="Helvetica,sans-Serif" font-size="9.00">CTimer.getTime</text>
</a>
</g>
<!-- Node1&#45;&gt;Node3 -->
<g id="edge4" class="edge"><title>Node1&#45;&gt;Node3</title>
<path fill="none" stroke="midnightblue" d="M191.702,-32.0867C200.467,-31.0871 209.381,-30.0706 218.229,-29.0617"/>
<polygon fill="midnightblue" stroke="midnightblue" points="218.639,-32.5376 228.178,-27.9271 217.846,-25.5827 218.639,-32.5376"/>
</g>
</g>
</svg>
