<?xml version="1.0" encoding="UTF-8" standalone="no"?>
<!DOCTYPE svg PUBLIC "-//W3C//DTD SVG 1.1//EN"
 "http://www.w3.org/Graphics/SVG/1.1/DTD/svg11.dtd">
<!-- Generated by graphviz version 2.26.3 (20100126.1600)
 -->
<!-- Title: de.tu_clausthal.in.mec.object.IMultiEvaluateLayer&lt; T extends ISteppable &gt; Pages: 1 -->
<svg width="304pt" height="664pt"
 viewBox="0.00 0.00 304.00 664.00" xmlns="http://www.w3.org/2000/svg" xmlns:xlink="http://www.w3.org/1999/xlink">
<g id="graph1" class="graph" transform="scale(1 1) rotate(0) translate(4 660)">
<title>de.tu_clausthal.in.mec.object.IMultiEvaluateLayer&lt; T extends ISteppable &gt;</title>
<!-- Node1 -->
<g id="node1" class="node"><title>Node1</title>
<polygon fill="#bfbfbf" stroke="black" points="73.5,-1 73.5,-363 218.5,-363 218.5,-1 73.5,-1"/>
<text text-anchor="start" x="81.5" y="-350.9" font-family="Helvetica,sans-Serif" font-size="9.00">de.tu_clausthal.in.mec.object.</text>
<text text-anchor="start" x="81.5" y="-337.9" font-family="Helvetica,sans-Serif" font-size="9.00">IMultiEvaluateLayer&lt; T extends</text>
<text text-anchor="middle" x="146" y="-324.9" font-family="Helvetica,sans-Serif" font-size="9.00"> ISteppable &gt;</text>
<polyline fill="none" stroke="black" points="73.5,-316 218.5,-316 "/>
<text text-anchor="start" x="81.5" y="-303.9" font-family="Helvetica,sans-Serif" font-size="9.00"># m_active</text>
<text text-anchor="start" x="81.5" y="-290.9" font-family="Helvetica,sans-Serif" font-size="9.00"># m_data</text>
<polyline fill="none" stroke="black" points="73.5,-282 218.5,-282 "/>
<text text-anchor="start" x="81.5" y="-269.9" font-family="Helvetica,sans-Serif" font-size="9.00">+ add()</text>
<text text-anchor="start" x="81.5" y="-256.9" font-family="Helvetica,sans-Serif" font-size="9.00">+ addAll()</text>
<text text-anchor="start" x="81.5" y="-243.9" font-family="Helvetica,sans-Serif" font-size="9.00">+ clear()</text>
<text text-anchor="start" x="81.5" y="-230.9" font-family="Helvetica,sans-Serif" font-size="9.00">+ contains()</text>
<text text-anchor="start" x="81.5" y="-217.9" font-family="Helvetica,sans-Serif" font-size="9.00">+ containsAll()</text>
<text text-anchor="start" x="81.5" y="-204.9" font-family="Helvetica,sans-Serif" font-size="9.00">+ getCalculationIndex()</text>
<text text-anchor="start" x="81.5" y="-191.9" font-family="Helvetica,sans-Serif" font-size="9.00">+ isActive()</text>
<text text-anchor="start" x="81.5" y="-178.9" font-family="Helvetica,sans-Serif" font-size="9.00">+ isEmpty()</text>
<text text-anchor="start" x="81.5" y="-165.9" font-family="Helvetica,sans-Serif" font-size="9.00">+ iterator()</text>
<text text-anchor="start" x="81.5" y="-152.9" font-family="Helvetica,sans-Serif" font-size="9.00">+ onSimulationReset()</text>
<text text-anchor="start" x="81.5" y="-139.9" font-family="Helvetica,sans-Serif" font-size="9.00">+ onSimulationStart()</text>
<text text-anchor="start" x="81.5" y="-126.9" font-family="Helvetica,sans-Serif" font-size="9.00">+ onSimulationStop()</text>
<text text-anchor="start" x="81.5" y="-113.9" font-family="Helvetica,sans-Serif" font-size="9.00">+ release()</text>
<text text-anchor="start" x="81.5" y="-100.9" font-family="Helvetica,sans-Serif" font-size="9.00">+ remove()</text>
<text text-anchor="start" x="81.5" y="-87.9" font-family="Helvetica,sans-Serif" font-size="9.00">+ removeAll()</text>
<text text-anchor="start" x="81.5" y="-74.9" font-family="Helvetica,sans-Serif" font-size="9.00">+ retainAll()</text>
<text text-anchor="start" x="81.5" y="-61.9" font-family="Helvetica,sans-Serif" font-size="9.00">+ setActive()</text>
<text text-anchor="start" x="81.5" y="-48.9" font-family="Helvetica,sans-Serif" font-size="9.00">+ size()</text>
<text text-anchor="start" x="81.5" y="-35.9" font-family="Helvetica,sans-Serif" font-size="9.00">+ step()</text>
<text text-anchor="start" x="81.5" y="-22.9" font-family="Helvetica,sans-Serif" font-size="9.00">+ toArray()</text>
<text text-anchor="start" x="81.5" y="-9.9" font-family="Helvetica,sans-Serif" font-size="9.00">+ toArray()</text>
</g>
<!-- Node2 -->
<g id="node2" class="node"><title>Node2</title>
<a xlink:href="../../dd/da7/a00168.htm" target="_top" xlink:title="interface of the layer ">
<polygon fill="none" stroke="black" points="-0.5,-400.5 -0.5,-541.5 136.5,-541.5 136.5,-400.5 -0.5,-400.5"/>
<text text-anchor="start" x="7.5" y="-529.4" font-family="Helvetica,sans-Serif" font-size="9.00">de.tu_clausthal.in.mec.object.</text>
<text text-anchor="middle" x="68" y="-516.4" font-family="Helvetica,sans-Serif" font-size="9.00">ILayer</text>
<polyline fill="none" stroke="black" points="-0.5,-507.5 136.5,-507.5 "/>
<text text-anchor="middle" x="68" y="-495.4" font-family="Helvetica,sans-Serif" font-size="9.00"> </text>
<polyline fill="none" stroke="black" points="-0.5,-486.5 136.5,-486.5 "/>
<text text-anchor="start" x="7.5" y="-474.4" font-family="Helvetica,sans-Serif" font-size="9.00">+ getCalculationIndex()</text>
<text text-anchor="start" x="7.5" y="-461.4" font-family="Helvetica,sans-Serif" font-size="9.00">+ isActive()</text>
<text text-anchor="start" x="7.5" y="-448.4" font-family="Helvetica,sans-Serif" font-size="9.00">+ onSimulationReset()</text>
<text text-anchor="start" x="7.5" y="-435.4" font-family="Helvetica,sans-Serif" font-size="9.00">+ onSimulationStart()</text>
<text text-anchor="start" x="7.5" y="-422.4" font-family="Helvetica,sans-Serif" font-size="9.00">+ onSimulationStop()</text>
<text text-anchor="start" x="7.5" y="-409.4" font-family="Helvetica,sans-Serif" font-size="9.00">+ setActive()</text>
</a>
</g>
<!-- Node2&#45;&gt;Node1 -->
<g id="edge2" class="edge"><title>Node2&#45;&gt;Node1</title>
<path fill="none" stroke="midnightblue" d="M89.7216,-390.519C92.1033,-381.694 94.5927,-372.471 97.1422,-363.024"/>
<polygon fill="none" stroke="midnightblue" points="86.3077,-389.736 87.0809,-400.303 93.0658,-391.56 86.3077,-389.736"/>
</g>
<!-- Node3 -->
<g id="node4" class="node"><title>Node3</title>
<a xlink:href="../../da/d15/a00188.htm" target="_top" xlink:title="interface for all objects which are triggered by the simulation worker ">
<polygon fill="none" stroke="black" points="74.5,-579 74.5,-655 217.5,-655 217.5,-579 74.5,-579"/>
<text text-anchor="start" x="82.5" y="-642.9" font-family="Helvetica,sans-Serif" font-size="9.00">de.tu_clausthal.in.mec.runtime.</text>
<text text-anchor="middle" x="146" y="-629.9" font-family="Helvetica,sans-Serif" font-size="9.00">ISteppable</text>
<polyline fill="none" stroke="black" points="74.5,-621 217.5,-621 "/>
<text text-anchor="middle" x="146" y="-608.9" font-family="Helvetica,sans-Serif" font-size="9.00"> </text>
<polyline fill="none" stroke="black" points="74.5,-600 217.5,-600 "/>
<text text-anchor="start" x="82.5" y="-587.9" font-family="Helvetica,sans-Serif" font-size="9.00">+ release()</text>
</a>
</g>
<!-- Node3&#45;&gt;Node2 -->
<g id="edge4" class="edge"><title>Node3&#45;&gt;Node2</title>
<path fill="none" stroke="midnightblue" d="M120.651,-569.553C115.87,-560.603 110.775,-551.066 105.709,-541.584"/>
<polygon fill="none" stroke="midnightblue" points="117.707,-571.469 125.506,-578.64 123.881,-568.171 117.707,-571.469"/>
</g>
<!-- Node4 -->
<g id="node6" class="node"><title>Node4</title>
<a xlink:href="../../de/db1/a00197.htm" target="_top" xlink:title="interface of void&#45;step method ">
<polygon fill="none" stroke="black" points="153.5,-433 153.5,-509 296.5,-509 296.5,-433 153.5,-433"/>
<text text-anchor="start" x="161.5" y="-496.9" font-family="Helvetica,sans-Serif" font-size="9.00">de.tu_clausthal.in.mec.runtime.</text>
<text text-anchor="middle" x="225" y="-483.9" font-family="Helvetica,sans-Serif" font-size="9.00">IVoidSteppable</text>
<polyline fill="none" stroke="black" points="153.5,-475 296.5,-475 "/>
<text text-anchor="middle" x="225" y="-462.9" font-family="Helvetica,sans-Serif" font-size="9.00"> </text>
<polyline fill="none" stroke="black" points="153.5,-454 296.5,-454 "/>
<text text-anchor="start" x="161.5" y="-441.9" font-family="Helvetica,sans-Serif" font-size="9.00">+ step()</text>
</a>
</g>
<!-- Node3&#45;&gt;Node4 -->
<g id="edge8" class="edge"><title>Node3&#45;&gt;Node4</title>
<path fill="none" stroke="midnightblue" d="M171.519,-569.839C182.15,-550.192 194.332,-527.677 204.382,-509.104"/>
<polygon fill="none" stroke="midnightblue" points="168.437,-568.18 166.756,-578.64 174.594,-571.511 168.437,-568.18"/>
</g>
<!-- Node4&#45;&gt;Node1 -->
<g id="edge6" class="edge"><title>Node4&#45;&gt;Node1</title>
<path fill="none" stroke="midnightblue" d="M211.917,-423.138C207.184,-405.824 201.516,-385.092 195.519,-363.153"/>
<polygon fill="none" stroke="midnightblue" points="208.578,-424.198 214.591,-432.921 215.33,-422.352 208.578,-424.198"/>
</g>
</g>
</svg>
