<?xml version="1.0" encoding="UTF-8" standalone="no"?>
<!DOCTYPE svg PUBLIC "-//W3C//DTD SVG 1.1//EN"
 "http://www.w3.org/Graphics/SVG/1.1/DTD/svg11.dtd">
<!-- Generated by graphviz version 2.26.3 (20100126.1600)
 -->
<!-- Title: de.tu_clausthal.in.mec.object.mas.jason.CCommon.convertGeneric Pages: 1 -->
<svg width="432pt" height="94pt"
 viewBox="0.00 0.00 432.00 94.00" xmlns="http://www.w3.org/2000/svg" xmlns:xlink="http://www.w3.org/1999/xlink">
<g id="graph1" class="graph" transform="scale(1 1) rotate(0) translate(4 90)">
<title>de.tu_clausthal.in.mec.object.mas.jason.CCommon.convertGeneric</title>
<!-- Node1 -->
<g id="node1" class="node"><title>Node1</title>
<polygon fill="#bfbfbf" stroke="black" points="0,-26 0,-60 182,-60 182,-26 0,-26"/>
<text text-anchor="start" x="8" y="-47.9" font-family="Helvetica,sans-Serif" font-size="9.00">de.tu_clausthal.in.mec.object.mas.jason.</text>
<text text-anchor="middle" x="91" y="-34.9" font-family="Helvetica,sans-Serif" font-size="9.00">CCommon.convertGeneric</text>
</g>
<!-- Node2 -->
<g id="node3" class="node"><title>Node2</title>
<a xlink:href="../../da/d24/a00068.htm#a8f0da3804a1f7b4374f56c5d0662045a" target="_top" xlink:title="modifies the interal literal representations ">
<polygon fill="none" stroke="black" points="218,-52 218,-86 424,-86 424,-52 218,-52"/>
<text text-anchor="start" x="226" y="-73.9" font-family="Helvetica,sans-Serif" font-size="9.00">de.tu_clausthal.in.mec.object.mas.jason.belief.</text>
<text text-anchor="middle" x="321" y="-60.9" font-family="Helvetica,sans-Serif" font-size="9.00">CLiteral.addAdditionals</text>
</a>
</g>
<!-- Node1&#45;&gt;Node2 -->
<g id="edge2" class="edge"><title>Node1&#45;&gt;Node2</title>
<path fill="none" stroke="midnightblue" d="M192.421,-54.4649C200.823,-55.4148 209.323,-56.3757 217.739,-57.327"/>
<polygon fill="midnightblue" stroke="midnightblue" points="192.562,-50.9587 182.232,-53.3132 191.776,-57.9144 192.562,-50.9587"/>
</g>
<!-- Node3 -->
<g id="node5" class="node"><title>Node3</title>
<a xlink:href="../../d8/d41/a00038.htm#a1fa1099e699e080fe4d491e478ec6657" target="_top" xlink:title="converts a term into a generic ITerm ">
<polygon fill="none" stroke="black" points="230,-0 230,-34 412,-34 412,-0 230,-0"/>
<text text-anchor="start" x="238" y="-21.9" font-family="Helvetica,sans-Serif" font-size="9.00">de.tu_clausthal.in.mec.object.mas.jason.</text>
<text text-anchor="middle" x="321" y="-8.9" font-family="Helvetica,sans-Serif" font-size="9.00">CCommon.convertGeneric</text>
</a>
</g>
<!-- Node1&#45;&gt;Node3 -->
<g id="edge4" class="edge"><title>Node1&#45;&gt;Node3</title>
<path fill="none" stroke="midnightblue" d="M192.224,-31.5573C204.756,-30.1406 217.51,-28.6989 229.878,-27.3008"/>
<polygon fill="midnightblue" stroke="midnightblue" points="191.776,-28.0856 182.232,-32.6868 192.562,-35.0412 191.776,-28.0856"/>
</g>
</g>
</svg>
