<?xml version="1.0" encoding="UTF-8" standalone="no"?>
<!DOCTYPE svg PUBLIC "-//W3C//DTD SVG 1.1//EN"
 "http://www.w3.org/Graphics/SVG/1.1/DTD/svg11.dtd">
<!-- Generated by graphviz version 2.26.3 (20100126.1600)
 -->
<!-- Title: de.tu_clausthal.in.mec.object.mas.jason.CCommon.clearString Pages: 1 -->
<svg width="650pt" height="120pt"
 viewBox="0.00 0.00 650.00 120.00" xmlns="http://www.w3.org/2000/svg" xmlns:xlink="http://www.w3.org/1999/xlink">
<g id="graph1" class="graph" transform="scale(1 1) rotate(0) translate(4 116)">
<title>de.tu_clausthal.in.mec.object.mas.jason.CCommon.clearString</title>
<!-- Node1 -->
<g id="node1" class="node"><title>Node1</title>
<polygon fill="#bfbfbf" stroke="black" points="0,-26 0,-60 182,-60 182,-26 0,-26"/>
<text text-anchor="start" x="8" y="-47.9" font-family="Helvetica,sans-Serif" font-size="9.00">de.tu_clausthal.in.mec.object.mas.jason.</text>
<text text-anchor="middle" x="91" y="-34.9" font-family="Helvetica,sans-Serif" font-size="9.00">CCommon.clearString</text>
</g>
<!-- Node2 -->
<g id="node3" class="node"><title>Node2</title>
<a xlink:href="../../d8/d41/a00038.htm#a8d2b8fac3c0497ef857ec75bb1978e22" target="_top" xlink:title="converts an atom into a string atom ">
<polygon fill="none" stroke="black" points="218,-52 218,-86 400,-86 400,-52 218,-52"/>
<text text-anchor="start" x="226" y="-73.9" font-family="Helvetica,sans-Serif" font-size="9.00">de.tu_clausthal.in.mec.object.mas.jason.</text>
<text text-anchor="middle" x="309" y="-60.9" font-family="Helvetica,sans-Serif" font-size="9.00">CCommon.convertGeneric</text>
</a>
</g>
<!-- Node1&#45;&gt;Node2 -->
<g id="edge2" class="edge"><title>Node1&#45;&gt;Node2</title>
<path fill="none" stroke="midnightblue" d="M192.186,-55.0681C200.739,-56.0882 209.357,-57.1159 217.826,-58.1261"/>
<polygon fill="midnightblue" stroke="midnightblue" points="192.533,-51.5847 182.188,-53.8757 191.704,-58.5354 192.533,-51.5847"/>
</g>
<!-- Node5 -->
<g id="node9" class="node"><title>Node5</title>
<a xlink:href="../../d8/d41/a00038.htm#ab1e8c23d7532721e3c80939487a9c58c" target="_top" xlink:title="Jason does not support Java&#45;type binding, so an explicit converting of Jason types to the correspondi...">
<polygon fill="none" stroke="black" points="218,-0 218,-34 400,-34 400,-0 218,-0"/>
<text text-anchor="start" x="226" y="-21.9" font-family="Helvetica,sans-Serif" font-size="9.00">de.tu_clausthal.in.mec.object.mas.jason.</text>
<text text-anchor="middle" x="309" y="-8.9" font-family="Helvetica,sans-Serif" font-size="9.00">CCommon.getJavaValue</text>
</a>
</g>
<!-- Node1&#45;&gt;Node5 -->
<g id="edge8" class="edge"><title>Node1&#45;&gt;Node5</title>
<path fill="none" stroke="midnightblue" d="M192.186,-30.9319C200.739,-29.9118 209.357,-28.8841 217.826,-27.8739"/>
<polygon fill="midnightblue" stroke="midnightblue" points="191.704,-27.4646 182.188,-32.1243 192.533,-34.4153 191.704,-27.4646"/>
</g>
<!-- Node3 -->
<g id="node5" class="node"><title>Node3</title>
<a xlink:href="../../d8/d41/a00038.htm#a1fa1099e699e080fe4d491e478ec6657" target="_top" xlink:title="converts a term into a generic ITerm ">
<polygon fill="none" stroke="black" points="448,-78 448,-112 630,-112 630,-78 448,-78"/>
<text text-anchor="start" x="456" y="-99.9" font-family="Helvetica,sans-Serif" font-size="9.00">de.tu_clausthal.in.mec.object.mas.jason.</text>
<text text-anchor="middle" x="539" y="-86.9" font-family="Helvetica,sans-Serif" font-size="9.00">CCommon.convertGeneric</text>
</a>
</g>
<!-- Node2&#45;&gt;Node3 -->
<g id="edge4" class="edge"><title>Node2&#45;&gt;Node3</title>
<path fill="none" stroke="midnightblue" d="M410.224,-80.4427C422.756,-81.8594 435.51,-83.3011 447.878,-84.6992"/>
<polygon fill="midnightblue" stroke="midnightblue" points="410.562,-76.9588 400.232,-79.3132 409.776,-83.9144 410.562,-76.9588"/>
</g>
<!-- Node4 -->
<g id="node7" class="node"><title>Node4</title>
<a xlink:href="../../da/d24/a00068.htm#a8f0da3804a1f7b4374f56c5d0662045a" target="_top" xlink:title="modifies the interal literal representations ">
<polygon fill="none" stroke="black" points="436,-26 436,-60 642,-60 642,-26 436,-26"/>
<text text-anchor="start" x="444" y="-47.9" font-family="Helvetica,sans-Serif" font-size="9.00">de.tu_clausthal.in.mec.object.mas.jason.belief.</text>
<text text-anchor="middle" x="539" y="-34.9" font-family="Helvetica,sans-Serif" font-size="9.00">CLiteral.addAdditionals</text>
</a>
</g>
<!-- Node2&#45;&gt;Node4 -->
<g id="edge6" class="edge"><title>Node2&#45;&gt;Node4</title>
<path fill="none" stroke="midnightblue" d="M410.421,-57.5351C418.823,-56.5852 427.323,-55.6243 435.739,-54.673"/>
<polygon fill="midnightblue" stroke="midnightblue" points="409.776,-54.0856 400.232,-58.6868 410.562,-61.0413 409.776,-54.0856"/>
</g>
</g>
</svg>
