<?xml version="1.0" encoding="UTF-8" standalone="no"?>
<!DOCTYPE svg PUBLIC "-//W3C//DTD SVG 1.1//EN"
 "http://www.w3.org/Graphics/SVG/1.1/DTD/svg11.dtd">
<!-- Generated by graphviz version 2.26.3 (20100126.1600)
 -->
<!-- Title: de.tu_clausthal.in.mec.object.mas.jason.CCommon.getTerm Pages: 1 -->
<svg width="408pt" height="60pt"
 viewBox="0.00 0.00 408.00 60.00" xmlns="http://www.w3.org/2000/svg" xmlns:xlink="http://www.w3.org/1999/xlink">
<g id="graph1" class="graph" transform="scale(1 1) rotate(0) translate(4 56)">
<title>de.tu_clausthal.in.mec.object.mas.jason.CCommon.getTerm</title>
<!-- Node1 -->
<g id="node1" class="node"><title>Node1</title>
<polygon fill="#bfbfbf" stroke="black" points="0,-0 0,-34 182,-34 182,-0 0,-0"/>
<text text-anchor="start" x="8" y="-21.9" font-family="Helvetica,sans-Serif" font-size="9.00">de.tu_clausthal.in.mec.object.mas.jason.</text>
<text text-anchor="middle" x="91" y="-8.9" font-family="Helvetica,sans-Serif" font-size="9.00">CCommon.getTerm</text>
</g>
<!-- Node1&#45;&gt;Node1 -->
<g id="edge4" class="edge"><title>Node1&#45;&gt;Node1</title>
<path fill="none" stroke="midnightblue" d="M53.0356,-44.3176C58.3667,-48.8645 71.0215,-52 91,-52 123.785,-52 136.848,-43.5562 130.189,-34.2878"/>
<polygon fill="midnightblue" stroke="midnightblue" points="56.4973,-43.7901 51.8115,-34.2878 49.5488,-44.6382 56.4973,-43.7901"/>
</g>
<!-- Node2 -->
<g id="node3" class="node"><title>Node2</title>
<a xlink:href="../../d8/d41/a00038.htm#a741697d3ede5daad308d468baa717e61" target="_top" xlink:title="creates a Jason literal with optional data ">
<polygon fill="none" stroke="black" points="218,-0 218,-34 400,-34 400,-0 218,-0"/>
<text text-anchor="start" x="226" y="-21.9" font-family="Helvetica,sans-Serif" font-size="9.00">de.tu_clausthal.in.mec.object.mas.jason.</text>
<text text-anchor="middle" x="309" y="-8.9" font-family="Helvetica,sans-Serif" font-size="9.00">CCommon.getLiteral</text>
</a>
</g>
<!-- Node1&#45;&gt;Node2 -->
<g id="edge2" class="edge"><title>Node1&#45;&gt;Node2</title>
<path fill="none" stroke="midnightblue" d="M192.465,-17C200.927,-17 209.449,-17 217.826,-17"/>
<polygon fill="midnightblue" stroke="midnightblue" points="192.189,-13.5001 182.188,-17 192.188,-20.5001 192.189,-13.5001"/>
</g>
</g>
</svg>
