<?xml version="1.0" encoding="UTF-8" standalone="no"?>
<!DOCTYPE svg PUBLIC "-//W3C//DTD SVG 1.1//EN"
 "http://www.w3.org/Graphics/SVG/1.1/DTD/svg11.dtd">
<!-- Generated by graphviz version 2.26.3 (20100126.1600)
 -->
<!-- Title: de.tu_clausthal.in.mec.object.mas.jason.CCommon.getJavaValue Pages: 1 -->
<svg width="408pt" height="112pt"
 viewBox="0.00 0.00 408.00 112.00" xmlns="http://www.w3.org/2000/svg" xmlns:xlink="http://www.w3.org/1999/xlink">
<g id="graph1" class="graph" transform="scale(1 1) rotate(0) translate(4 108)">
<title>de.tu_clausthal.in.mec.object.mas.jason.CCommon.getJavaValue</title>
<!-- Node1 -->
<g id="node1" class="node"><title>Node1</title>
<polygon fill="#bfbfbf" stroke="black" points="0,-35 0,-69 182,-69 182,-35 0,-35"/>
<text text-anchor="start" x="8" y="-56.9" font-family="Helvetica,sans-Serif" font-size="9.00">de.tu_clausthal.in.mec.object.mas.jason.</text>
<text text-anchor="middle" x="91" y="-43.9" font-family="Helvetica,sans-Serif" font-size="9.00">CCommon.getJavaValue</text>
</g>
<!-- Node2 -->
<g id="node3" class="node"><title>Node2</title>
<a xlink:href="../../d8/d41/a00038.htm#a344161224ff36771399a98389761469f" target="_top" xlink:title="Jason creates quoted string, so we need to clean the string to create corrected Java strings...">
<polygon fill="none" stroke="black" points="218,-70 218,-104 400,-104 400,-70 218,-70"/>
<text text-anchor="start" x="226" y="-91.9" font-family="Helvetica,sans-Serif" font-size="9.00">de.tu_clausthal.in.mec.object.mas.jason.</text>
<text text-anchor="middle" x="309" y="-78.9" font-family="Helvetica,sans-Serif" font-size="9.00">CCommon.clearString</text>
</a>
</g>
<!-- Node1&#45;&gt;Node2 -->
<g id="edge2" class="edge"><title>Node1&#45;&gt;Node2</title>
<path fill="none" stroke="midnightblue" d="M182.188,-66.6404C190.658,-68.0002 199.276,-69.3837 207.828,-70.7569"/>
<polygon fill="midnightblue" stroke="midnightblue" points="207.398,-74.2325 217.826,-72.362 208.508,-67.321 207.398,-74.2325"/>
</g>
<!-- Node3 -->
<g id="node5" class="node"><title>Node3</title>
<a xlink:href="../../d8/d41/a00038.htm#a317a31e5417b16936c02060f862506f3" target="_top" xlink:title="converts Jason Term to Java types to complex types e.g. ">
<polygon fill="none" stroke="black" points="218,-0 218,-34 400,-34 400,-0 218,-0"/>
<text text-anchor="start" x="226" y="-21.9" font-family="Helvetica,sans-Serif" font-size="9.00">de.tu_clausthal.in.mec.object.mas.jason.</text>
<text text-anchor="middle" x="309" y="-8.9" font-family="Helvetica,sans-Serif" font-size="9.00">CCommon.getJavaValue</text>
</a>
</g>
<!-- Node1&#45;&gt;Node3 -->
<g id="edge4" class="edge"><title>Node1&#45;&gt;Node3</title>
<path fill="none" stroke="midnightblue" d="M182.188,-37.3596C190.658,-35.9998 199.276,-34.6163 207.828,-33.2431"/>
<polygon fill="midnightblue" stroke="midnightblue" points="208.508,-36.679 217.826,-31.638 207.398,-29.7675 208.508,-36.679"/>
</g>
<!-- Node3&#45;&gt;Node3 -->
<g id="edge6" class="edge"><title>Node3&#45;&gt;Node3</title>
<path fill="none" stroke="midnightblue" d="M269.811,-34.2878C263.152,-43.5562 276.215,-52 309,-52 328.978,-52 341.633,-48.8645 346.964,-44.3176"/>
<polygon fill="midnightblue" stroke="midnightblue" points="350.451,-44.6382 348.189,-34.2878 343.503,-43.7901 350.451,-44.6382"/>
</g>
</g>
</svg>
