<?xml version="1.0" encoding="UTF-8" standalone="no"?>
<!DOCTYPE svg PUBLIC "-//W3C//DTD SVG 1.1//EN"
 "http://www.w3.org/Graphics/SVG/1.1/DTD/svg11.dtd">
<!-- Generated by graphviz version 2.26.3 (20100126.1600)
 -->
<!-- Title: de.tu_clausthal.in.mec.object.mas.jason.CCommon.getLiteral Pages: 1 -->
<svg width="408pt" height="60pt"
 viewBox="0.00 0.00 408.00 60.00" xmlns="http://www.w3.org/2000/svg" xmlns:xlink="http://www.w3.org/1999/xlink">
<g id="graph1" class="graph" transform="scale(1 1) rotate(0) translate(4 56)">
<title>de.tu_clausthal.in.mec.object.mas.jason.CCommon.getLiteral</title>
<!-- Node1 -->
<g id="node1" class="node"><title>Node1</title>
<polygon fill="#bfbfbf" stroke="black" points="0,-0 0,-34 182,-34 182,-0 0,-0"/>
<text text-anchor="start" x="8" y="-21.9" font-family="Helvetica,sans-Serif" font-size="9.00">de.tu_clausthal.in.mec.object.mas.jason.</text>
<text text-anchor="middle" x="91" y="-8.9" font-family="Helvetica,sans-Serif" font-size="9.00">CCommon.getLiteral</text>
</g>
<!-- Node2 -->
<g id="node3" class="node"><title>Node2</title>
<a xlink:href="../../d8/d41/a00038.htm#ac4c25cacbba0ea0607bbca326dc3355e" target="_top" xlink:title="convert data type into Jason term ">
<polygon fill="none" stroke="black" points="218,-0 218,-34 400,-34 400,-0 218,-0"/>
<text text-anchor="start" x="226" y="-21.9" font-family="Helvetica,sans-Serif" font-size="9.00">de.tu_clausthal.in.mec.object.mas.jason.</text>
<text text-anchor="middle" x="309" y="-8.9" font-family="Helvetica,sans-Serif" font-size="9.00">CCommon.getTerm</text>
</a>
</g>
<!-- Node1&#45;&gt;Node2 -->
<g id="edge2" class="edge"><title>Node1&#45;&gt;Node2</title>
<path fill="none" stroke="midnightblue" d="M182.188,-17C190.566,-17 199.088,-17 207.55,-17"/>
<polygon fill="midnightblue" stroke="midnightblue" points="207.826,-20.5001 217.826,-17 207.826,-13.5001 207.826,-20.5001"/>
</g>
<!-- Node2&#45;&gt;Node2 -->
<g id="edge4" class="edge"><title>Node2&#45;&gt;Node2</title>
<path fill="none" stroke="midnightblue" d="M269.811,-34.2878C263.152,-43.5562 276.215,-52 309,-52 328.978,-52 341.633,-48.8645 346.964,-44.3176"/>
<polygon fill="midnightblue" stroke="midnightblue" points="350.451,-44.6382 348.189,-34.2878 343.503,-43.7901 350.451,-44.6382"/>
</g>
</g>
</svg>
