<?xml version="1.0" encoding="UTF-8" standalone="no"?>
<!DOCTYPE svg PUBLIC "-//W3C//DTD SVG 1.1//EN"
 "http://www.w3.org/Graphics/SVG/1.1/DTD/svg11.dtd">
<!-- Generated by graphviz version 2.26.3 (20100126.1600)
 -->
<!-- Title: de.tu_clausthal.in.mec.object.analysis.CEvaluationStore.CCollectorInconsistency Pages: 1 -->
<svg width="346pt" height="714pt"
 viewBox="0.00 0.00 346.00 714.00" xmlns="http://www.w3.org/2000/svg" xmlns:xlink="http://www.w3.org/1999/xlink">
<g id="graph1" class="graph" transform="scale(1 1) rotate(0) translate(4 710)">
<title>de.tu_clausthal.in.mec.object.analysis.CEvaluationStore.CCollectorInconsistency</title>
<!-- Node1 -->
<g id="node1" class="node"><title>Node1</title>
<polygon fill="#bfbfbf" stroke="black" points="97,-0.5 97,-89.5 287,-89.5 287,-0.5 97,-0.5"/>
<text text-anchor="start" x="105" y="-77.4" font-family="Helvetica,sans-Serif" font-size="9.00">de.tu_clausthal.in.mec.object.analysis.</text>
<text text-anchor="middle" x="192" y="-64.4" font-family="Helvetica,sans-Serif" font-size="9.00">CEvaluationStore.CCollectorInconsistency</text>
<polyline fill="none" stroke="black" points="97,-55.5 287,-55.5 "/>
<text text-anchor="start" x="105" y="-43.4" font-family="Helvetica,sans-Serif" font-size="9.00">&#45; m_statement</text>
<polyline fill="none" stroke="black" points="97,-34.5 287,-34.5 "/>
<text text-anchor="start" x="105" y="-22.4" font-family="Helvetica,sans-Serif" font-size="9.00">+ CCollectorInconsistency()</text>
<text text-anchor="start" x="105" y="-9.4" font-family="Helvetica,sans-Serif" font-size="9.00">+ step()</text>
</g>
<!-- Node2 -->
<g id="node2" class="node"><title>Node2</title>
<a xlink:href="../../d6/db3/a00130.htm" target="_top" xlink:title="worker class to push data to the database * ">
<polygon fill="none" stroke="black" points="-0.5,-186 -0.5,-262 172.5,-262 172.5,-186 -0.5,-186"/>
<text text-anchor="start" x="7.5" y="-249.9" font-family="Helvetica,sans-Serif" font-size="9.00">de.tu_clausthal.in.mec.object.analysis.</text>
<text text-anchor="middle" x="86" y="-236.9" font-family="Helvetica,sans-Serif" font-size="9.00">IDatabase.CWorker</text>
<polyline fill="none" stroke="black" points="-0.5,-228 172.5,-228 "/>
<text text-anchor="middle" x="86" y="-215.9" font-family="Helvetica,sans-Serif" font-size="9.00"> </text>
<polyline fill="none" stroke="black" points="-0.5,-207 172.5,-207 "/>
<text text-anchor="start" x="7.5" y="-194.9" font-family="Helvetica,sans-Serif" font-size="9.00">+ release()</text>
</a>
</g>
<!-- Node2&#45;&gt;Node1 -->
<g id="edge2" class="edge"><title>Node2&#45;&gt;Node1</title>
<path fill="none" stroke="midnightblue" d="M113.992,-176.73C129.96,-149.766 149.856,-116.168 165.558,-89.6517"/>
<polygon fill="none" stroke="midnightblue" points="110.824,-175.212 108.74,-185.6 116.847,-178.779 110.824,-175.212"/>
</g>
<!-- Node3 -->
<g id="node4" class="node"><title>Node3</title>
<a xlink:href="../../de/db1/a00197.htm" target="_top" xlink:title="interface of void&#45;step method ">
<polygon fill="none" stroke="black" points="14.5,-424 14.5,-500 157.5,-500 157.5,-424 14.5,-424"/>
<text text-anchor="start" x="22.5" y="-487.9" font-family="Helvetica,sans-Serif" font-size="9.00">de.tu_clausthal.in.mec.runtime.</text>
<text text-anchor="middle" x="86" y="-474.9" font-family="Helvetica,sans-Serif" font-size="9.00">IVoidSteppable</text>
<polyline fill="none" stroke="black" points="14.5,-466 157.5,-466 "/>
<text text-anchor="middle" x="86" y="-453.9" font-family="Helvetica,sans-Serif" font-size="9.00"> </text>
<polyline fill="none" stroke="black" points="14.5,-445 157.5,-445 "/>
<text text-anchor="start" x="22.5" y="-432.9" font-family="Helvetica,sans-Serif" font-size="9.00">+ step()</text>
</a>
</g>
<!-- Node3&#45;&gt;Node2 -->
<g id="edge4" class="edge"><title>Node3&#45;&gt;Node2</title>
<path fill="none" stroke="midnightblue" d="M86,-413.709C86,-368.97 86,-303.31 86,-262.144"/>
<polygon fill="none" stroke="midnightblue" points="82.5001,-413.761 86,-423.761 89.5001,-413.761 82.5001,-413.761"/>
</g>
<!-- Node4 -->
<g id="node6" class="node"><title>Node4</title>
<a xlink:href="../../da/d15/a00188.htm" target="_top" xlink:title="interface for all objects which are triggered by the simulation worker ">
<polygon fill="none" stroke="black" points="14.5,-623 14.5,-699 157.5,-699 157.5,-623 14.5,-623"/>
<text text-anchor="start" x="22.5" y="-686.9" font-family="Helvetica,sans-Serif" font-size="9.00">de.tu_clausthal.in.mec.runtime.</text>
<text text-anchor="middle" x="86" y="-673.9" font-family="Helvetica,sans-Serif" font-size="9.00">ISteppable</text>
<polyline fill="none" stroke="black" points="14.5,-665 157.5,-665 "/>
<text text-anchor="middle" x="86" y="-652.9" font-family="Helvetica,sans-Serif" font-size="9.00"> </text>
<polyline fill="none" stroke="black" points="14.5,-644 157.5,-644 "/>
<text text-anchor="start" x="22.5" y="-631.9" font-family="Helvetica,sans-Serif" font-size="9.00">+ release()</text>
</a>
</g>
<!-- Node4&#45;&gt;Node3 -->
<g id="edge6" class="edge"><title>Node4&#45;&gt;Node3</title>
<path fill="none" stroke="midnightblue" d="M86,-612.307C86,-577.801 86,-532.152 86,-500.251"/>
<polygon fill="none" stroke="midnightblue" points="82.5001,-612.631 86,-622.631 89.5001,-612.631 82.5001,-612.631"/>
</g>
<!-- Node5 -->
<g id="node8" class="node"><title>Node5</title>
<a xlink:href="../../d1/d84/a00097.htm" target="_top" xlink:title="boilerplate code of the reflection API ">
<polygon fill="none" stroke="black" points="190,-140.5 190,-307.5 338,-307.5 338,-140.5 190,-140.5"/>
<text text-anchor="start" x="198" y="-295.4" font-family="Helvetica,sans-Serif" font-size="9.00">de.tu_clausthal.in.mec.common.</text>
<text text-anchor="middle" x="264" y="-282.4" font-family="Helvetica,sans-Serif" font-size="9.00">CReflection</text>
<polyline fill="none" stroke="black" points="190,-273.5 338,-273.5 "/>
<text text-anchor="middle" x="264" y="-261.4" font-family="Helvetica,sans-Serif" font-size="9.00"> </text>
<polyline fill="none" stroke="black" points="190,-252.5 338,-252.5 "/>
<text text-anchor="start" x="198" y="-240.4" font-family="Helvetica,sans-Serif" font-size="9.00">+ getClassField()</text>
<text text-anchor="start" x="198" y="-227.4" font-family="Helvetica,sans-Serif" font-size="9.00">+ getClassFields()</text>
<text text-anchor="start" x="198" y="-214.4" font-family="Helvetica,sans-Serif" font-size="9.00">+ getClassFields()</text>
<text text-anchor="start" x="198" y="-201.4" font-family="Helvetica,sans-Serif" font-size="9.00">+ getClassIndex()</text>
<text text-anchor="start" x="198" y="-188.4" font-family="Helvetica,sans-Serif" font-size="9.00">+ getClassMethod()</text>
<text text-anchor="start" x="198" y="-175.4" font-family="Helvetica,sans-Serif" font-size="9.00">+ getClassMethod()</text>
<text text-anchor="start" x="198" y="-162.4" font-family="Helvetica,sans-Serif" font-size="9.00">+ getClassMethods()</text>
<text text-anchor="start" x="198" y="-149.4" font-family="Helvetica,sans-Serif" font-size="9.00">&#45; CReflection()</text>
</a>
</g>
<!-- Node5&#45;&gt;Node1 -->
<g id="edge8" class="edge"><title>Node5&#45;&gt;Node1</title>
<path fill="none" stroke="#404040" d="M230.319,-140.265C224.939,-126.89 219.489,-113.342 214.454,-100.823"/>
<polygon fill="none" stroke="#404040" points="214.438,-100.783 208.488,-96.7092 209.96,-89.6499 215.91,-93.7237 214.438,-100.783"/>
<text text-anchor="middle" x="245.5" y="-113.4" font-family="Helvetica,sans-Serif" font-size="9.00"> &#45;m_access</text>
</g>
<!-- Node6 -->
<g id="node10" class="node"><title>Node6</title>
<a xlink:href="../../d5/d79/a00030.htm" target="_top" xlink:title="class to represent a class index ">
<polygon fill="none" stroke="black" points="190,-359 190,-565 338,-565 338,-359 190,-359"/>
<text text-anchor="start" x="198" y="-552.9" font-family="Helvetica,sans-Serif" font-size="9.00">de.tu_clausthal.in.mec.common.</text>
<text text-anchor="middle" x="264" y="-539.9" font-family="Helvetica,sans-Serif" font-size="9.00">CReflection.CClassIndex</text>
<polyline fill="none" stroke="black" points="190,-531 338,-531 "/>
<text text-anchor="start" x="198" y="-518.9" font-family="Helvetica,sans-Serif" font-size="9.00">&#45; m_classname</text>
<text text-anchor="start" x="198" y="-505.9" font-family="Helvetica,sans-Serif" font-size="9.00">&#45; m_filter</text>
<text text-anchor="start" x="198" y="-492.9" font-family="Helvetica,sans-Serif" font-size="9.00">&#45; c_classextension</text>
<polyline fill="none" stroke="black" points="190,-484 338,-484 "/>
<text text-anchor="start" x="198" y="-471.9" font-family="Helvetica,sans-Serif" font-size="9.00">+ CClassIndex()</text>
<text text-anchor="start" x="198" y="-458.9" font-family="Helvetica,sans-Serif" font-size="9.00">+ filter()</text>
<text text-anchor="start" x="198" y="-445.9" font-family="Helvetica,sans-Serif" font-size="9.00">+ get()</text>
<text text-anchor="start" x="198" y="-432.9" font-family="Helvetica,sans-Serif" font-size="9.00">+ getAll()</text>
<text text-anchor="start" x="198" y="-419.9" font-family="Helvetica,sans-Serif" font-size="9.00">+ scan()</text>
<text text-anchor="start" x="198" y="-406.9" font-family="Helvetica,sans-Serif" font-size="9.00">+ scanDirectory()</text>
<text text-anchor="start" x="198" y="-393.9" font-family="Helvetica,sans-Serif" font-size="9.00">+ scanJar()</text>
<text text-anchor="start" x="198" y="-380.9" font-family="Helvetica,sans-Serif" font-size="9.00">&#45; getClassnameFromFile()</text>
<text text-anchor="start" x="198" y="-367.9" font-family="Helvetica,sans-Serif" font-size="9.00">&#45; startsIgnoreWith()</text>
</a>
</g>
<!-- Node6&#45;&gt;Node5 -->
<g id="edge10" class="edge"><title>Node6&#45;&gt;Node5</title>
<path fill="none" stroke="#404040" d="M264,-358.994C264,-346.046 264,-332.841 264,-320.007"/>
<polygon fill="none" stroke="#404040" points="264,-319.837 260,-313.837 264,-307.837 268,-313.837 264,-319.837"/>
<text text-anchor="middle" x="293.5" y="-331.4" font-family="Helvetica,sans-Serif" font-size="9.00"> &#45;c_classindex</text>
</g>
<!-- Node7 -->
<g id="node12" class="node"><title>Node7</title>
<a xlink:href="../../d5/d79/a00030.htm#d0/da0/a00403" target="_top" xlink:title="enum to define the filter * ">
<polygon fill="none" stroke="black" points="190,-616.5 190,-705.5 338,-705.5 338,-616.5 190,-616.5"/>
<text text-anchor="start" x="198" y="-693.4" font-family="Helvetica,sans-Serif" font-size="9.00">de.tu_clausthal.in.mec.common.</text>
<text text-anchor="middle" x="264" y="-680.4" font-family="Helvetica,sans-Serif" font-size="9.00">CReflection.CClassIndex.EFilter</text>
<polyline fill="none" stroke="black" points="190,-671.5 338,-671.5 "/>
<text text-anchor="start" x="198" y="-659.4" font-family="Helvetica,sans-Serif" font-size="9.00">+ BlackList</text>
<text text-anchor="start" x="198" y="-646.4" font-family="Helvetica,sans-Serif" font-size="9.00">+ WhiteList</text>
<polyline fill="none" stroke="black" points="190,-637.5 338,-637.5 "/>
<text text-anchor="middle" x="264" y="-625.4" font-family="Helvetica,sans-Serif" font-size="9.00"> </text>
</a>
</g>
<!-- Node7&#45;&gt;Node6 -->
<g id="edge12" class="edge"><title>Node7&#45;&gt;Node6</title>
<path fill="none" stroke="#404040" d="M264,-616.341C264,-604.464 264,-591.072 264,-577.263"/>
<polygon fill="none" stroke="#404040" points="264,-577.05 260,-571.05 264,-565.05 268,-571.05 264,-577.05"/>
<text text-anchor="middle" x="300.5" y="-589.4" font-family="Helvetica,sans-Serif" font-size="9.00"> &#45;m_filterdefinition</text>
</g>
</g>
</svg>
