<?xml version="1.0" encoding="UTF-8" standalone="no"?>
<!DOCTYPE svg PUBLIC "-//W3C//DTD SVG 1.1//EN"
 "http://www.w3.org/Graphics/SVG/1.1/DTD/svg11.dtd">
<!-- Generated by graphviz version 2.26.3 (20100126.1600)
 -->
<!-- Title: de.tu_clausthal.in.mec.ui.IInspectorDefault.inspect Pages: 1 -->
<svg width="320pt" height="94pt"
 viewBox="0.00 0.00 320.00 94.00" xmlns="http://www.w3.org/2000/svg" xmlns:xlink="http://www.w3.org/1999/xlink">
<g id="graph1" class="graph" transform="scale(1 1) rotate(0) translate(4 90)">
<title>de.tu_clausthal.in.mec.ui.IInspectorDefault.inspect</title>
<!-- Node1 -->
<g id="node1" class="node"><title>Node1</title>
<polygon fill="#bfbfbf" stroke="black" points="0,-26 0,-60 120,-60 120,-26 0,-26"/>
<text text-anchor="start" x="8" y="-47.9" font-family="Helvetica,sans-Serif" font-size="9.00">de.tu_clausthal.in.mec.ui.</text>
<text text-anchor="middle" x="60" y="-34.9" font-family="Helvetica,sans-Serif" font-size="9.00">IInspectorDefault.inspect</text>
</g>
<!-- Node2 -->
<g id="node3" class="node"><title>Node2</title>
<a xlink:href="../../d1/dc6/a00037.htm#ae523069a1b523b0e6a0c643049b1d745" target="_top" xlink:title="returns a default string of the resource file ">
<polygon fill="none" stroke="black" points="160,-52 160,-86 308,-86 308,-52 160,-52"/>
<text text-anchor="start" x="168" y="-73.9" font-family="Helvetica,sans-Serif" font-size="9.00">de.tu_clausthal.in.mec.common.</text>
<text text-anchor="middle" x="234" y="-60.9" font-family="Helvetica,sans-Serif" font-size="9.00">CCommon.getResourceString</text>
</a>
</g>
<!-- Node1&#45;&gt;Node2 -->
<g id="edge2" class="edge"><title>Node1&#45;&gt;Node2</title>
<path fill="none" stroke="midnightblue" d="M120.368,-52.0206C129.939,-53.4506 139.984,-54.9517 149.978,-56.445"/>
<polygon fill="midnightblue" stroke="midnightblue" points="149.527,-59.9164 159.934,-57.9327 150.561,-52.9932 149.527,-59.9164"/>
</g>
<!-- Node3 -->
<g id="node5" class="node"><title>Node3</title>
<a xlink:href="../../d1/dc6/a00037.htm#a7dcb26e8cdde436192ef19f0538f0c9d" target="_top" xlink:title="remove from a string the system package name ">
<polygon fill="none" stroke="black" points="156.5,-0 156.5,-34 311.5,-34 311.5,-0 156.5,-0"/>
<text text-anchor="start" x="164.5" y="-21.9" font-family="Helvetica,sans-Serif" font-size="9.00">de.tu_clausthal.in.mec.common.</text>
<text text-anchor="middle" x="234" y="-8.9" font-family="Helvetica,sans-Serif" font-size="9.00">CCommon.removePackageName</text>
</a>
</g>
<!-- Node1&#45;&gt;Node3 -->
<g id="edge4" class="edge"><title>Node1&#45;&gt;Node3</title>
<path fill="none" stroke="midnightblue" d="M120.368,-33.9794C128.784,-32.722 137.567,-31.4096 146.359,-30.0958"/>
<polygon fill="midnightblue" stroke="midnightblue" points="146.897,-33.5544 156.27,-28.6149 145.862,-26.6312 146.897,-33.5544"/>
</g>
</g>
</svg>
