<?xml version="1.0" encoding="UTF-8" standalone="no"?>
<!DOCTYPE svg PUBLIC "-//W3C//DTD SVG 1.1//EN"
 "http://www.w3.org/Graphics/SVG/1.1/DTD/svg11.dtd">
<!-- Generated by graphviz version 2.26.3 (20100126.1600)
 -->
<!-- Title: de.tu_clausthal.in.mec.object.waypoint.factory.ICarFactory Pages: 1 -->
<svg width="393pt" height="874pt"
 viewBox="0.00 0.00 393.00 874.00" xmlns="http://www.w3.org/2000/svg" xmlns:xlink="http://www.w3.org/1999/xlink">
<g id="graph1" class="graph" transform="scale(1 1) rotate(0) translate(4 870)">
<title>de.tu_clausthal.in.mec.object.waypoint.factory.ICarFactory</title>
<!-- Node1 -->
<g id="node1" class="node"><title>Node1</title>
<polygon fill="#bfbfbf" stroke="black" points="151,-1 151,-129 357,-129 357,-1 151,-1"/>
<text text-anchor="start" x="159" y="-116.9" font-family="Helvetica,sans-Serif" font-size="9.00">de.tu_clausthal.in.mec.object.waypoint.factory.</text>
<text text-anchor="middle" x="254" y="-103.9" font-family="Helvetica,sans-Serif" font-size="9.00">ICarFactory</text>
<polyline fill="none" stroke="black" points="151,-95 357,-95 "/>
<text text-anchor="middle" x="254" y="-82.9" font-family="Helvetica,sans-Serif" font-size="9.00"> </text>
<polyline fill="none" stroke="black" points="151,-74 357,-74 "/>
<text text-anchor="start" x="159" y="-61.9" font-family="Helvetica,sans-Serif" font-size="9.00">+ generate()</text>
<text text-anchor="start" x="159" y="-48.9" font-family="Helvetica,sans-Serif" font-size="9.00"># ICarFactory()</text>
<text text-anchor="start" x="159" y="-35.9" font-family="Helvetica,sans-Serif" font-size="9.00"># ICarFactory()</text>
<text text-anchor="start" x="159" y="-22.9" font-family="Helvetica,sans-Serif" font-size="9.00"># generateRouteCells()</text>
<text text-anchor="start" x="159" y="-9.9" font-family="Helvetica,sans-Serif" font-size="9.00"># getCar()</text>
</g>
<!-- Node2 -->
<g id="node2" class="node"><title>Node2</title>
<a xlink:href="../../dc/de6/a00167.htm" target="_top" xlink:title="global default implementation to get information about a simulation object ">
<polygon fill="none" stroke="black" points="69,-368 69,-444 189,-444 189,-368 69,-368"/>
<text text-anchor="start" x="77" y="-431.9" font-family="Helvetica,sans-Serif" font-size="9.00">de.tu_clausthal.in.mec.ui.</text>
<text text-anchor="middle" x="129" y="-418.9" font-family="Helvetica,sans-Serif" font-size="9.00">IInspectorDefault</text>
<polyline fill="none" stroke="black" points="69,-410 189,-410 "/>
<text text-anchor="start" x="77" y="-397.9" font-family="Helvetica,sans-Serif" font-size="9.00">&#45; m_inspect</text>
<polyline fill="none" stroke="black" points="69,-389 189,-389 "/>
<text text-anchor="start" x="77" y="-376.9" font-family="Helvetica,sans-Serif" font-size="9.00">+ inspect()</text>
</a>
</g>
<!-- Node2&#45;&gt;Node1 -->
<g id="edge2" class="edge"><title>Node2&#45;&gt;Node1</title>
<path fill="none" stroke="midnightblue" d="M142.95,-357.915C155.992,-314.218 176.62,-248.187 198,-192 205.884,-171.28 215.334,-149.051 224.206,-129.072"/>
<polygon fill="none" stroke="midnightblue" points="139.534,-357.122 140.043,-367.705 146.245,-359.115 139.534,-357.122"/>
</g>
<!-- Node3 -->
<g id="node4" class="node"><title>Node3</title>
<a xlink:href="../../dd/df4/a00193.htm" target="_top" xlink:title="class to handle UI events with encapsulate the default lister structures ">
<polygon fill="none" stroke="black" points="0,-659 0,-865 120,-865 120,-659 0,-659"/>
<text text-anchor="start" x="8" y="-852.9" font-family="Helvetica,sans-Serif" font-size="9.00">de.tu_clausthal.in.mec.ui.</text>
<text text-anchor="middle" x="60" y="-839.9" font-family="Helvetica,sans-Serif" font-size="9.00">IUIListener</text>
<polyline fill="none" stroke="black" points="0,-831 120,-831 "/>
<text text-anchor="start" x="8" y="-818.9" font-family="Helvetica,sans-Serif" font-size="9.00"># c_maxzoom</text>
<text text-anchor="start" x="8" y="-805.9" font-family="Helvetica,sans-Serif" font-size="9.00"># c_miniconsize</text>
<polyline fill="none" stroke="black" points="0,-797 120,-797 "/>
<text text-anchor="start" x="8" y="-784.9" font-family="Helvetica,sans-Serif" font-size="9.00">+ IUIListener()</text>
<text text-anchor="start" x="8" y="-771.9" font-family="Helvetica,sans-Serif" font-size="9.00">+ mouseClicked()</text>
<text text-anchor="start" x="8" y="-758.9" font-family="Helvetica,sans-Serif" font-size="9.00">+ mouseEntered()</text>
<text text-anchor="start" x="8" y="-745.9" font-family="Helvetica,sans-Serif" font-size="9.00">+ mouseExited()</text>
<text text-anchor="start" x="8" y="-732.9" font-family="Helvetica,sans-Serif" font-size="9.00">+ mousePressed()</text>
<text text-anchor="start" x="8" y="-719.9" font-family="Helvetica,sans-Serif" font-size="9.00">+ mouseReleased()</text>
<text text-anchor="start" x="8" y="-706.9" font-family="Helvetica,sans-Serif" font-size="9.00">+ onClick()</text>
<text text-anchor="start" x="8" y="-693.9" font-family="Helvetica,sans-Serif" font-size="9.00">+ release()</text>
<text text-anchor="start" x="8" y="-680.9" font-family="Helvetica,sans-Serif" font-size="9.00"># iconscale()</text>
<text text-anchor="start" x="8" y="-667.9" font-family="Helvetica,sans-Serif" font-size="9.00"># iconsize()</text>
</a>
</g>
<!-- Node3&#45;&gt;Node2 -->
<g id="edge4" class="edge"><title>Node3&#45;&gt;Node2</title>
<path fill="none" stroke="midnightblue" d="M82.0328,-648.323C95.6245,-578.198 112.199,-492.684 121.582,-444.271"/>
<polygon fill="none" stroke="midnightblue" points="78.5172,-648.069 80.0503,-658.552 85.3893,-649.401 78.5172,-648.069"/>
</g>
<!-- Node4 -->
<g id="node6" class="node"><title>Node4</title>
<a xlink:href="../../d9/d38/a00166.htm" target="_top" xlink:title="global interface to read information about a simulation object ">
<polygon fill="none" stroke="black" points="138,-724 138,-800 258,-800 258,-724 138,-724"/>
<text text-anchor="start" x="146" y="-787.9" font-family="Helvetica,sans-Serif" font-size="9.00">de.tu_clausthal.in.mec.ui.</text>
<text text-anchor="middle" x="198" y="-774.9" font-family="Helvetica,sans-Serif" font-size="9.00">IInspector</text>
<polyline fill="none" stroke="black" points="138,-766 258,-766 "/>
<text text-anchor="middle" x="198" y="-753.9" font-family="Helvetica,sans-Serif" font-size="9.00"> </text>
<polyline fill="none" stroke="black" points="138,-745 258,-745 "/>
<text text-anchor="start" x="146" y="-732.9" font-family="Helvetica,sans-Serif" font-size="9.00">+ inspect()</text>
</a>
</g>
<!-- Node4&#45;&gt;Node2 -->
<g id="edge6" class="edge"><title>Node4&#45;&gt;Node2</title>
<path fill="none" stroke="midnightblue" d="M188.658,-713.803C174.787,-642.233 149.024,-509.312 136.383,-444.093"/>
<polygon fill="none" stroke="midnightblue" points="185.277,-714.75 190.616,-723.902 192.149,-713.418 185.277,-714.75"/>
</g>
<!-- Node5 -->
<g id="node8" class="node"><title>Node5</title>
<a xlink:href="../../dc/dee/a00053.htm" target="_top" xlink:title="class for create a graph structure of OSM data, the class downloads the data and creates edges and ve...">
<polygon fill="none" stroke="black" points="206.5,-192.5 206.5,-619.5 385.5,-619.5 385.5,-192.5 206.5,-192.5"/>
<text text-anchor="start" x="214.5" y="-607.4" font-family="Helvetica,sans-Serif" font-size="9.00">de.tu_clausthal.in.mec.object.car.graph.</text>
<text text-anchor="middle" x="296" y="-594.4" font-family="Helvetica,sans-Serif" font-size="9.00">CGraphHopper</text>
<polyline fill="none" stroke="black" points="206.5,-585.5 385.5,-585.5 "/>
<text text-anchor="start" x="214.5" y="-573.4" font-family="Helvetica,sans-Serif" font-size="9.00">&#45; m_cellsize</text>
<text text-anchor="start" x="214.5" y="-560.4" font-family="Helvetica,sans-Serif" font-size="9.00">&#45; m_edgecell</text>
<text text-anchor="start" x="214.5" y="-547.4" font-family="Helvetica,sans-Serif" font-size="9.00">&#45; m_edgelister</text>
<text text-anchor="start" x="214.5" y="-534.4" font-family="Helvetica,sans-Serif" font-size="9.00">&#45; m_weights</text>
<text text-anchor="start" x="214.5" y="-521.4" font-family="Helvetica,sans-Serif" font-size="9.00">&#45; c_defaultflagencoding</text>
<polyline fill="none" stroke="black" points="206.5,-512.5 385.5,-512.5 "/>
<text text-anchor="start" x="214.5" y="-500.4" font-family="Helvetica,sans-Serif" font-size="9.00">+ CGraphHopper()</text>
<text text-anchor="start" x="214.5" y="-487.4" font-family="Helvetica,sans-Serif" font-size="9.00">+ CGraphHopper()</text>
<text text-anchor="start" x="214.5" y="-474.4" font-family="Helvetica,sans-Serif" font-size="9.00">+ addEdgeListener()</text>
<text text-anchor="start" x="214.5" y="-461.4" font-family="Helvetica,sans-Serif" font-size="9.00">+ clear()</text>
<text text-anchor="start" x="214.5" y="-448.4" font-family="Helvetica,sans-Serif" font-size="9.00">+ createWeighting()</text>
<text text-anchor="start" x="214.5" y="-435.4" font-family="Helvetica,sans-Serif" font-size="9.00">+ existWeight()</text>
<text text-anchor="start" x="214.5" y="-422.4" font-family="Helvetica,sans-Serif" font-size="9.00">+ getClosestEdge()</text>
<text text-anchor="start" x="214.5" y="-409.4" font-family="Helvetica,sans-Serif" font-size="9.00">+ getClosestNode()</text>
<text text-anchor="start" x="214.5" y="-396.4" font-family="Helvetica,sans-Serif" font-size="9.00">+ getEdge()</text>
<text text-anchor="start" x="214.5" y="-383.4" font-family="Helvetica,sans-Serif" font-size="9.00">+ getEdgeCollection()</text>
<text text-anchor="start" x="214.5" y="-370.4" font-family="Helvetica,sans-Serif" font-size="9.00">+ getEdgeIterator()</text>
<text text-anchor="start" x="214.5" y="-357.4" font-family="Helvetica,sans-Serif" font-size="9.00">+ getEdgeSpeed()</text>
<text text-anchor="start" x="214.5" y="-344.4" font-family="Helvetica,sans-Serif" font-size="9.00">+ getNumberOfObjects()</text>
<text text-anchor="start" x="214.5" y="-331.4" font-family="Helvetica,sans-Serif" font-size="9.00">+ getRouteCells()</text>
<text text-anchor="start" x="214.5" y="-318.4" font-family="Helvetica,sans-Serif" font-size="9.00">+ getRoutes()</text>
<text text-anchor="start" x="214.5" y="-305.4" font-family="Helvetica,sans-Serif" font-size="9.00">+ getRoutes()</text>
<text text-anchor="start" x="214.5" y="-292.4" font-family="Helvetica,sans-Serif" font-size="9.00">+ getRoutes()</text>
<text text-anchor="start" x="214.5" y="-279.4" font-family="Helvetica,sans-Serif" font-size="9.00">+ getRoutes()</text>
<text text-anchor="start" x="214.5" y="-266.4" font-family="Helvetica,sans-Serif" font-size="9.00">+ getWeight()</text>
<text text-anchor="start" x="214.5" y="-253.4" font-family="Helvetica,sans-Serif" font-size="9.00">+ deleteGraph()</text>
<text text-anchor="start" x="214.5" y="-240.4" font-family="Helvetica,sans-Serif" font-size="9.00">&#45; downloadGraphAndLoad()</text>
<text text-anchor="start" x="214.5" y="-227.4" font-family="Helvetica,sans-Serif" font-size="9.00">&#45; downloadOSMData()</text>
<text text-anchor="start" x="214.5" y="-214.4" font-family="Helvetica,sans-Serif" font-size="9.00">&#45; getCurrentGraph()</text>
<text text-anchor="start" x="214.5" y="-201.4" font-family="Helvetica,sans-Serif" font-size="9.00">&#45; getGraphLocation()</text>
</a>
</g>
<!-- Node5&#45;&gt;Node1 -->
<g id="edge8" class="edge"><title>Node5&#45;&gt;Node1</title>
<path fill="none" stroke="#404040" d="M269.699,-192.461C267.481,-174.456 265.348,-157.137 263.407,-141.38"/>
<polygon fill="none" stroke="#404040" points="263.361,-141.004 258.658,-135.538 261.894,-129.094 266.598,-134.56 263.361,-141.004"/>
<text text-anchor="middle" x="289" y="-165.9" font-family="Helvetica,sans-Serif" font-size="9.00"> &#45;m_graph</text>
<text text-anchor="middle" x="289" y="-152.9" font-family="Helvetica,sans-Serif" font-size="9.00">#m_weight</text>
</g>
</g>
</svg>
