<?xml version="1.0" encoding="UTF-8" standalone="no"?>
<!DOCTYPE svg PUBLIC "-//W3C//DTD SVG 1.1//EN"
 "http://www.w3.org/Graphics/SVG/1.1/DTD/svg11.dtd">
<!-- Generated by graphviz version 2.26.3 (20100126.1600)
 -->
<!-- Title: de.tu_clausthal.in.mec.object.mas.generic.ILiteral&lt; T &gt; Pages: 1 -->
<svg width="198pt" height="264pt"
 viewBox="0.00 0.00 198.00 264.00" xmlns="http://www.w3.org/2000/svg" xmlns:xlink="http://www.w3.org/1999/xlink">
<g id="graph1" class="graph" transform="scale(1 1) rotate(0) translate(4 260)">
<title>de.tu_clausthal.in.mec.object.mas.generic.ILiteral&lt; T &gt;</title>
<!-- Node1 -->
<g id="node1" class="node"><title>Node1</title>
<polygon fill="#bfbfbf" stroke="black" points="0,-0.5 0,-141.5 190,-141.5 190,-0.5 0,-0.5"/>
<text text-anchor="start" x="8" y="-129.4" font-family="Helvetica,sans-Serif" font-size="9.00">de.tu_clausthal.in.mec.object.mas.generic.</text>
<text text-anchor="middle" x="95" y="-116.4" font-family="Helvetica,sans-Serif" font-size="9.00">ILiteral&lt; T &gt;</text>
<polyline fill="none" stroke="black" points="0,-107.5 190,-107.5 "/>
<text text-anchor="middle" x="95" y="-95.4" font-family="Helvetica,sans-Serif" font-size="9.00"> </text>
<polyline fill="none" stroke="black" points="0,-86.5 190,-86.5 "/>
<text text-anchor="start" x="8" y="-74.4" font-family="Helvetica,sans-Serif" font-size="9.00">+ clone()</text>
<text text-anchor="start" x="8" y="-61.4" font-family="Helvetica,sans-Serif" font-size="9.00">+ getAnnotation()</text>
<text text-anchor="start" x="8" y="-48.4" font-family="Helvetica,sans-Serif" font-size="9.00">+ getFunctor()</text>
<text text-anchor="start" x="8" y="-35.4" font-family="Helvetica,sans-Serif" font-size="9.00">+ getLiteral()</text>
<text text-anchor="start" x="8" y="-22.4" font-family="Helvetica,sans-Serif" font-size="9.00">+ getValues()</text>
<text text-anchor="start" x="8" y="-9.4" font-family="Helvetica,sans-Serif" font-size="9.00">+ isNegated()</text>
</g>
<!-- Node2 -->
<g id="node2" class="node"><title>Node2</title>
<a xlink:href="../../d9/dd0/a00191.htm" target="_top" xlink:title="term interface ">
<polygon fill="none" stroke="black" points="0,-179 0,-255 190,-255 190,-179 0,-179"/>
<text text-anchor="start" x="8" y="-242.9" font-family="Helvetica,sans-Serif" font-size="9.00">de.tu_clausthal.in.mec.object.mas.generic.</text>
<text text-anchor="middle" x="95" y="-229.9" font-family="Helvetica,sans-Serif" font-size="9.00">ITerm</text>
<polyline fill="none" stroke="black" points="0,-221 190,-221 "/>
<text text-anchor="middle" x="95" y="-208.9" font-family="Helvetica,sans-Serif" font-size="9.00"> </text>
<polyline fill="none" stroke="black" points="0,-200 190,-200 "/>
<text text-anchor="start" x="8" y="-187.9" font-family="Helvetica,sans-Serif" font-size="9.00">+ instanceOf()</text>
</a>
</g>
<!-- Node2&#45;&gt;Node1 -->
<g id="edge2" class="edge"><title>Node2&#45;&gt;Node1</title>
<path fill="none" stroke="midnightblue" d="M95,-168.419C95,-159.8 95,-150.667 95,-141.584"/>
<polygon fill="none" stroke="midnightblue" points="91.5001,-168.64 95,-178.64 98.5001,-168.64 91.5001,-168.64"/>
</g>
</g>
</svg>
