<?xml version="1.0" encoding="UTF-8" standalone="no"?>
<!DOCTYPE svg PUBLIC "-//W3C//DTD SVG 1.1//EN"
 "http://www.w3.org/Graphics/SVG/1.1/DTD/svg11.dtd">
<!-- Generated by graphviz version 2.26.3 (20100126.1600)
 -->
<!-- Title: de.tu_clausthal.in.mec.ui.CTrafficEnvironment.web_static_setdrivemodel Pages: 1 -->
<svg width="312pt" height="94pt"
 viewBox="0.00 0.00 312.00 94.00" xmlns="http://www.w3.org/2000/svg" xmlns:xlink="http://www.w3.org/1999/xlink">
<g id="graph1" class="graph" transform="scale(1 1) rotate(0) translate(4 90)">
<title>de.tu_clausthal.in.mec.ui.CTrafficEnvironment.web_static_setdrivemodel</title>
<!-- Node1 -->
<g id="node1" class="node"><title>Node1</title>
<polygon fill="#bfbfbf" stroke="black" points="0,-19.5 0,-66.5 120,-66.5 120,-19.5 0,-19.5"/>
<text text-anchor="start" x="8" y="-54.4" font-family="Helvetica,sans-Serif" font-size="9.00">de.tu_clausthal.in.mec.ui.</text>
<text text-anchor="start" x="8" y="-41.4" font-family="Helvetica,sans-Serif" font-size="9.00">CTrafficEnvironment.web</text>
<text text-anchor="middle" x="60" y="-28.4" font-family="Helvetica,sans-Serif" font-size="9.00">_static_setdrivemodel</text>
</g>
<!-- Node2 -->
<g id="node3" class="node"><title>Node2</title>
<a xlink:href="../../d0/d61/a00100.htm#a2f84b4ec6605cc18ae204b812d7884ec" target="_top" xlink:title="returns the singelton instance ">
<polygon fill="none" stroke="black" points="158.5,-52 158.5,-86 301.5,-86 301.5,-52 158.5,-52"/>
<text text-anchor="start" x="166.5" y="-73.9" font-family="Helvetica,sans-Serif" font-size="9.00">de.tu_clausthal.in.mec.runtime.</text>
<text text-anchor="middle" x="230" y="-60.9" font-family="Helvetica,sans-Serif" font-size="9.00">CSimulation.getInstance</text>
</a>
</g>
<!-- Node1&#45;&gt;Node2 -->
<g id="edge2" class="edge"><title>Node1&#45;&gt;Node2</title>
<path fill="none" stroke="midnightblue" d="M120.414,-52.2398C129.455,-53.6226 138.902,-55.0674 148.296,-56.504"/>
<polygon fill="midnightblue" stroke="midnightblue" points="148.031,-60.0042 158.445,-58.0564 149.09,-53.0847 148.031,-60.0042"/>
</g>
<!-- Node3 -->
<g id="node5" class="node"><title>Node3</title>
<a xlink:href="../../d1/dc6/a00037.htm#ae523069a1b523b0e6a0c643049b1d745" target="_top" xlink:title="returns a default string of the resource file ">
<polygon fill="none" stroke="black" points="156,-0 156,-34 304,-34 304,-0 156,-0"/>
<text text-anchor="start" x="164" y="-21.9" font-family="Helvetica,sans-Serif" font-size="9.00">de.tu_clausthal.in.mec.common.</text>
<text text-anchor="middle" x="230" y="-8.9" font-family="Helvetica,sans-Serif" font-size="9.00">CCommon.getResourceString</text>
</a>
</g>
<!-- Node1&#45;&gt;Node3 -->
<g id="edge4" class="edge"><title>Node1&#45;&gt;Node3</title>
<path fill="none" stroke="midnightblue" d="M120.414,-33.7602C128.646,-32.5013 137.213,-31.1909 145.771,-29.8821"/>
<polygon fill="midnightblue" stroke="midnightblue" points="146.435,-33.3213 155.791,-28.3496 145.377,-26.4018 146.435,-33.3213"/>
</g>
</g>
</svg>
