<?xml version="1.0" encoding="UTF-8" standalone="no"?>
<!DOCTYPE svg PUBLIC "-//W3C//DTD SVG 1.1//EN"
 "http://www.w3.org/Graphics/SVG/1.1/DTD/svg11.dtd">
<!-- Generated by graphviz version 2.26.3 (20100126.1600)
 -->
<!-- Title: de.tu_clausthal.in.mec.runtime.CSimulation Pages: 1 -->
<svg width="811pt" height="1236pt"
 viewBox="0.00 0.00 811.00 1236.00" xmlns="http://www.w3.org/2000/svg" xmlns:xlink="http://www.w3.org/1999/xlink">
<g id="graph1" class="graph" transform="scale(1 1) rotate(0) translate(4 1232)">
<title>de.tu_clausthal.in.mec.runtime.CSimulation</title>
<!-- Node1 -->
<g id="node1" class="node"><title>Node1</title>
<polygon fill="#bfbfbf" stroke="black" points="377.5,-0.5 377.5,-479.5 532.5,-479.5 532.5,-0.5 377.5,-0.5"/>
<text text-anchor="start" x="385.5" y="-467.4" font-family="Helvetica,sans-Serif" font-size="9.00">de.tu_clausthal.in.mec.runtime.</text>
<text text-anchor="middle" x="455" y="-454.4" font-family="Helvetica,sans-Serif" font-size="9.00">CSimulation</text>
<polyline fill="none" stroke="black" points="377.5,-445.5 532.5,-445.5 "/>
<text text-anchor="start" x="385.5" y="-433.4" font-family="Helvetica,sans-Serif" font-size="9.00">&#45; m_mainloopthread</text>
<text text-anchor="start" x="385.5" y="-420.4" font-family="Helvetica,sans-Serif" font-size="9.00">&#45; m_objectcounter</text>
<text text-anchor="start" x="385.5" y="-407.4" font-family="Helvetica,sans-Serif" font-size="9.00">&#45; m_random</text>
<text text-anchor="start" x="385.5" y="-394.4" font-family="Helvetica,sans-Serif" font-size="9.00">&#45; m_runs</text>
<polyline fill="none" stroke="black" points="377.5,-385.5 532.5,-385.5 "/>
<text text-anchor="start" x="385.5" y="-373.4" font-family="Helvetica,sans-Serif" font-size="9.00">+ generateObjectName()</text>
<text text-anchor="start" x="385.5" y="-360.4" font-family="Helvetica,sans-Serif" font-size="9.00">+ getMessageSystem()</text>
<text text-anchor="start" x="385.5" y="-347.4" font-family="Helvetica,sans-Serif" font-size="9.00">+ getNumberOfRuns()</text>
<text text-anchor="start" x="385.5" y="-334.4" font-family="Helvetica,sans-Serif" font-size="9.00">+ getStorage()</text>
<text text-anchor="start" x="385.5" y="-321.4" font-family="Helvetica,sans-Serif" font-size="9.00">+ getWorld()</text>
<text text-anchor="start" x="385.5" y="-308.4" font-family="Helvetica,sans-Serif" font-size="9.00">+ isRunning()</text>
<text text-anchor="start" x="385.5" y="-295.4" font-family="Helvetica,sans-Serif" font-size="9.00">+ load()</text>
<text text-anchor="start" x="385.5" y="-282.4" font-family="Helvetica,sans-Serif" font-size="9.00">+ reset()</text>
<text text-anchor="start" x="385.5" y="-269.4" font-family="Helvetica,sans-Serif" font-size="9.00">+ setConfiguration()</text>
<text text-anchor="start" x="385.5" y="-256.4" font-family="Helvetica,sans-Serif" font-size="9.00">+ shutdown()</text>
<text text-anchor="start" x="385.5" y="-243.4" font-family="Helvetica,sans-Serif" font-size="9.00">+ start()</text>
<text text-anchor="start" x="385.5" y="-230.4" font-family="Helvetica,sans-Serif" font-size="9.00">+ start()</text>
<text text-anchor="start" x="385.5" y="-217.4" font-family="Helvetica,sans-Serif" font-size="9.00">+ stop()</text>
<text text-anchor="start" x="385.5" y="-204.4" font-family="Helvetica,sans-Serif" font-size="9.00">+ store()</text>
<text text-anchor="start" x="385.5" y="-191.4" font-family="Helvetica,sans-Serif" font-size="9.00">+ getInstance()</text>
<text text-anchor="start" x="385.5" y="-178.4" font-family="Helvetica,sans-Serif" font-size="9.00">&#45; CSimulation()</text>
<text text-anchor="start" x="385.5" y="-165.4" font-family="Helvetica,sans-Serif" font-size="9.00">&#45; callLayerReset()</text>
<text text-anchor="start" x="385.5" y="-152.4" font-family="Helvetica,sans-Serif" font-size="9.00">&#45; callLayerStart()</text>
<text text-anchor="start" x="385.5" y="-139.4" font-family="Helvetica,sans-Serif" font-size="9.00">&#45; callLayerStop()</text>
<text text-anchor="start" x="385.5" y="-126.4" font-family="Helvetica,sans-Serif" font-size="9.00">&#45; getLayerName()</text>
<text text-anchor="start" x="385.5" y="-113.4" font-family="Helvetica,sans-Serif" font-size="9.00">&#45; threadStartUp()</text>
<text text-anchor="start" x="385.5" y="-100.4" font-family="Helvetica,sans-Serif" font-size="9.00">&#45; web_static_disableenablelayer()</text>
<text text-anchor="start" x="385.5" y="-87.4" font-family="Helvetica,sans-Serif" font-size="9.00">&#45; web_static_getthreadsleep()</text>
<text text-anchor="start" x="385.5" y="-74.4" font-family="Helvetica,sans-Serif" font-size="9.00">&#45; web_static_hideshowlayer()</text>
<text text-anchor="start" x="385.5" y="-61.4" font-family="Helvetica,sans-Serif" font-size="9.00">&#45; web_static_listlayer()</text>
<text text-anchor="start" x="385.5" y="-48.4" font-family="Helvetica,sans-Serif" font-size="9.00">&#45; web_static_reset()</text>
<text text-anchor="start" x="385.5" y="-35.4" font-family="Helvetica,sans-Serif" font-size="9.00">&#45; web_static_setthreadsleep()</text>
<text text-anchor="start" x="385.5" y="-22.4" font-family="Helvetica,sans-Serif" font-size="9.00">&#45; web_static_start()</text>
<text text-anchor="start" x="385.5" y="-9.4" font-family="Helvetica,sans-Serif" font-size="9.00">&#45; web_static_stop()</text>
</g>
<!-- Node1&#45;&gt;Node1 -->
<g id="edge10" class="edge"><title>Node1&#45;&gt;Node1</title>
<path fill="none" stroke="#404040" d="M532.531,-283.914C543.018,-276.552 550,-261.914 550,-240 550,-224.763 546.624,-213.043 541.042,-204.842"/>
<polygon fill="none" stroke="#404040" points="540.895,-204.691 533.845,-203.177 532.531,-196.086 539.581,-197.6 540.895,-204.691"/>
<text text-anchor="middle" x="575" y="-238.4" font-family="Helvetica,sans-Serif" font-size="9.00"> &#45;c_instance</text>
</g>
<!-- Node2 -->
<g id="node2" class="node"><title>Node2</title>
<a xlink:href="../../d4/d63/a00082.htm" target="_top" xlink:title="message handler class ">
<polygon fill="none" stroke="black" points="98.5,-583 98.5,-789 281.5,-789 281.5,-583 98.5,-583"/>
<text text-anchor="start" x="106.5" y="-776.9" font-family="Helvetica,sans-Serif" font-size="9.00">de.tu_clausthal.in.mec.runtime.message.</text>
<text text-anchor="middle" x="190" y="-763.9" font-family="Helvetica,sans-Serif" font-size="9.00">CMessageSystem</text>
<polyline fill="none" stroke="black" points="98.5,-755 281.5,-755 "/>
<text text-anchor="start" x="106.5" y="-742.9" font-family="Helvetica,sans-Serif" font-size="9.00">&#45; m_listener</text>
<text text-anchor="start" x="106.5" y="-729.9" font-family="Helvetica,sans-Serif" font-size="9.00">&#45; m_messageflow</text>
<text text-anchor="start" x="106.5" y="-716.9" font-family="Helvetica,sans-Serif" font-size="9.00">&#45; m_root</text>
<polyline fill="none" stroke="black" points="98.5,-708 281.5,-708 "/>
<text text-anchor="start" x="106.5" y="-695.9" font-family="Helvetica,sans-Serif" font-size="9.00">+ addActionListener()</text>
<text text-anchor="start" x="106.5" y="-682.9" font-family="Helvetica,sans-Serif" font-size="9.00">+ pushMessage()</text>
<text text-anchor="start" x="106.5" y="-669.9" font-family="Helvetica,sans-Serif" font-size="9.00">+ register()</text>
<text text-anchor="start" x="106.5" y="-656.9" font-family="Helvetica,sans-Serif" font-size="9.00">+ release()</text>
<text text-anchor="start" x="106.5" y="-643.9" font-family="Helvetica,sans-Serif" font-size="9.00">+ removeListener()</text>
<text text-anchor="start" x="106.5" y="-630.9" font-family="Helvetica,sans-Serif" font-size="9.00">+ step()</text>
<text text-anchor="start" x="106.5" y="-617.9" font-family="Helvetica,sans-Serif" font-size="9.00">+ unregister()</text>
<text text-anchor="start" x="106.5" y="-604.9" font-family="Helvetica,sans-Serif" font-size="9.00">&#45; incrementMessageFlow()</text>
<text text-anchor="start" x="106.5" y="-591.9" font-family="Helvetica,sans-Serif" font-size="9.00">&#45; web_dynamic_flow()</text>
</a>
</g>
<!-- Node2&#45;&gt;Node1 -->
<g id="edge2" class="edge"><title>Node2&#45;&gt;Node1</title>
<path fill="none" stroke="#404040" d="M251.296,-582.838C286.921,-522.88 332.315,-446.481 371.206,-381.026"/>
<polygon fill="none" stroke="#404040" points="371.26,-380.936 370.886,-373.735 377.39,-370.62 377.764,-377.821 371.26,-380.936"/>
<text text-anchor="middle" x="341.5" y="-503.4" font-family="Helvetica,sans-Serif" font-size="9.00"> &#45;m_messagesystem</text>
</g>
<!-- Node3 -->
<g id="node4" class="node"><title>Node3</title>
<a xlink:href="../../de/db1/a00197.htm" target="_top" xlink:title="interface of void&#45;step method ">
<polygon fill="none" stroke="black" points="-0.5,-964 -0.5,-1040 142.5,-1040 142.5,-964 -0.5,-964"/>
<text text-anchor="start" x="7.5" y="-1027.9" font-family="Helvetica,sans-Serif" font-size="9.00">de.tu_clausthal.in.mec.runtime.</text>
<text text-anchor="middle" x="71" y="-1014.9" font-family="Helvetica,sans-Serif" font-size="9.00">IVoidSteppable</text>
<polyline fill="none" stroke="black" points="-0.5,-1006 142.5,-1006 "/>
<text text-anchor="middle" x="71" y="-993.9" font-family="Helvetica,sans-Serif" font-size="9.00"> </text>
<polyline fill="none" stroke="black" points="-0.5,-985 142.5,-985 "/>
<text text-anchor="start" x="7.5" y="-972.9" font-family="Helvetica,sans-Serif" font-size="9.00">+ step()</text>
</a>
</g>
<!-- Node3&#45;&gt;Node2 -->
<g id="edge4" class="edge"><title>Node3&#45;&gt;Node2</title>
<path fill="none" stroke="midnightblue" d="M88.9258,-954.399C105.328,-910.843 130.157,-844.911 151.101,-789.296"/>
<polygon fill="none" stroke="midnightblue" points="85.603,-953.291 85.3542,-963.883 92.1539,-955.758 85.603,-953.291"/>
</g>
<!-- Node4 -->
<g id="node6" class="node"><title>Node4</title>
<a xlink:href="../../da/d15/a00188.htm" target="_top" xlink:title="interface for all objects which are triggered by the simulation worker ">
<polygon fill="none" stroke="black" points="-0.5,-1151 -0.5,-1227 142.5,-1227 142.5,-1151 -0.5,-1151"/>
<text text-anchor="start" x="7.5" y="-1214.9" font-family="Helvetica,sans-Serif" font-size="9.00">de.tu_clausthal.in.mec.runtime.</text>
<text text-anchor="middle" x="71" y="-1201.9" font-family="Helvetica,sans-Serif" font-size="9.00">ISteppable</text>
<polyline fill="none" stroke="black" points="-0.5,-1193 142.5,-1193 "/>
<text text-anchor="middle" x="71" y="-1180.9" font-family="Helvetica,sans-Serif" font-size="9.00"> </text>
<polyline fill="none" stroke="black" points="-0.5,-1172 142.5,-1172 "/>
<text text-anchor="start" x="7.5" y="-1159.9" font-family="Helvetica,sans-Serif" font-size="9.00">+ release()</text>
</a>
</g>
<!-- Node4&#45;&gt;Node3 -->
<g id="edge6" class="edge"><title>Node4&#45;&gt;Node3</title>
<path fill="none" stroke="midnightblue" d="M71,-1140.48C71,-1109.25 71,-1069.22 71,-1040.24"/>
<polygon fill="none" stroke="midnightblue" points="67.5001,-1140.71 71,-1150.71 74.5001,-1140.71 67.5001,-1140.71"/>
</g>
<!-- Node5 -->
<g id="node8" class="node"><title>Node5</title>
<a xlink:href="../../d4/d3a/a00101.htm" target="_top" xlink:title="storage class to store websockets communicator thread&#45;safe ">
<polygon fill="none" stroke="black" points="160,-892.5 160,-1111.5 300,-1111.5 300,-892.5 160,-892.5"/>
<text text-anchor="start" x="168" y="-1099.4" font-family="Helvetica,sans-Serif" font-size="9.00">de.tu_clausthal.in.mec.ui.web.</text>
<text text-anchor="middle" x="230" y="-1086.4" font-family="Helvetica,sans-Serif" font-size="9.00">CSocketStorage</text>
<polyline fill="none" stroke="black" points="160,-1077.5 300,-1077.5 "/>
<text text-anchor="start" x="168" y="-1065.4" font-family="Helvetica,sans-Serif" font-size="9.00">&#45; m_communicator</text>
<polyline fill="none" stroke="black" points="160,-1056.5 300,-1056.5 "/>
<text text-anchor="start" x="168" y="-1044.4" font-family="Helvetica,sans-Serif" font-size="9.00">+ clear()</text>
<text text-anchor="start" x="168" y="-1031.4" font-family="Helvetica,sans-Serif" font-size="9.00">+ contains()</text>
<text text-anchor="start" x="168" y="-1018.4" font-family="Helvetica,sans-Serif" font-size="9.00">+ contains()</text>
<text text-anchor="start" x="168" y="-1005.4" font-family="Helvetica,sans-Serif" font-size="9.00">+ get()</text>
<text text-anchor="start" x="168" y="-992.4" font-family="Helvetica,sans-Serif" font-size="9.00">+ handshake()</text>
<text text-anchor="start" x="168" y="-979.4" font-family="Helvetica,sans-Serif" font-size="9.00">+ isEmpty()</text>
<text text-anchor="start" x="168" y="-966.4" font-family="Helvetica,sans-Serif" font-size="9.00">+ put()</text>
<text text-anchor="start" x="168" y="-953.4" font-family="Helvetica,sans-Serif" font-size="9.00">+ remove()</text>
<text text-anchor="start" x="168" y="-940.4" font-family="Helvetica,sans-Serif" font-size="9.00">+ remove()</text>
<text text-anchor="start" x="168" y="-927.4" font-family="Helvetica,sans-Serif" font-size="9.00">+ send()</text>
<text text-anchor="start" x="168" y="-914.4" font-family="Helvetica,sans-Serif" font-size="9.00">+ send()</text>
<text text-anchor="start" x="168" y="-901.4" font-family="Helvetica,sans-Serif" font-size="9.00">+ size()</text>
</a>
</g>
<!-- Node5&#45;&gt;Node2 -->
<g id="edge8" class="edge"><title>Node5&#45;&gt;Node2</title>
<path fill="none" stroke="#404040" d="M216.122,-892.365C212.394,-862.911 208.351,-830.975 204.586,-801.226"/>
<polygon fill="none" stroke="#404040" points="204.554,-800.972 199.832,-795.522 203.046,-789.067 207.768,-794.517 204.554,-800.972"/>
<text text-anchor="middle" x="252" y="-865.4" font-family="Helvetica,sans-Serif" font-size="9.00"> &#45;m_communicator</text>
</g>
<!-- Node6 -->
<g id="node11" class="node"><title>Node6</title>
<a xlink:href="../../d9/dcc/a00102.htm" target="_top" xlink:title="peristent storage for any objects ">
<polygon fill="none" stroke="black" points="298.5,-628.5 298.5,-743.5 441.5,-743.5 441.5,-628.5 298.5,-628.5"/>
<text text-anchor="start" x="306.5" y="-731.4" font-family="Helvetica,sans-Serif" font-size="9.00">de.tu_clausthal.in.mec.runtime.</text>
<text text-anchor="middle" x="370" y="-718.4" font-family="Helvetica,sans-Serif" font-size="9.00">CSimulation.CStorage</text>
<polyline fill="none" stroke="black" points="298.5,-709.5 441.5,-709.5 "/>
<text text-anchor="start" x="306.5" y="-697.4" font-family="Helvetica,sans-Serif" font-size="9.00">&#45; m_elements</text>
<polyline fill="none" stroke="black" points="298.5,-688.5 441.5,-688.5 "/>
<text text-anchor="start" x="306.5" y="-676.4" font-family="Helvetica,sans-Serif" font-size="9.00">+ add()</text>
<text text-anchor="start" x="306.5" y="-663.4" font-family="Helvetica,sans-Serif" font-size="9.00">+ exists()</text>
<text text-anchor="start" x="306.5" y="-650.4" font-family="Helvetica,sans-Serif" font-size="9.00">+ exists()</text>
<text text-anchor="start" x="306.5" y="-637.4" font-family="Helvetica,sans-Serif" font-size="9.00">+ get()</text>
</a>
</g>
<!-- Node6&#45;&gt;Node1 -->
<g id="edge12" class="edge"><title>Node6&#45;&gt;Node1</title>
<path fill="none" stroke="#404040" d="M381.025,-628.151C387.901,-592.071 397.278,-542.87 407.046,-491.618"/>
<polygon fill="none" stroke="#404040" points="407.088,-491.397 404.282,-484.754 409.335,-479.609 412.141,-486.252 407.088,-491.397"/>
<text text-anchor="middle" x="429.5" y="-503.4" font-family="Helvetica,sans-Serif" font-size="9.00"> &#45;m_storage</text>
</g>
<!-- Node7 -->
<g id="node13" class="node"><title>Node7</title>
<a xlink:href="../../db/db6/a00074.htm" target="_top" xlink:title="main simulation thread ">
<polygon fill="none" stroke="black" points="459,-531 459,-841 623,-841 623,-531 459,-531"/>
<text text-anchor="start" x="467" y="-828.9" font-family="Helvetica,sans-Serif" font-size="9.00">de.tu_clausthal.in.mec.runtime.core.</text>
<text text-anchor="middle" x="541" y="-815.9" font-family="Helvetica,sans-Serif" font-size="9.00">CMainLoop</text>
<polyline fill="none" stroke="black" points="459,-807 623,-807 "/>
<text text-anchor="start" x="467" y="-794.9" font-family="Helvetica,sans-Serif" font-size="9.00">&#45; m_pause</text>
<text text-anchor="start" x="467" y="-781.9" font-family="Helvetica,sans-Serif" font-size="9.00">&#45; m_pool</text>
<text text-anchor="start" x="467" y="-768.9" font-family="Helvetica,sans-Serif" font-size="9.00">&#45; m_shutdownstep</text>
<text text-anchor="start" x="467" y="-755.9" font-family="Helvetica,sans-Serif" font-size="9.00">&#45; m_simulationcount</text>
<text text-anchor="start" x="467" y="-742.9" font-family="Helvetica,sans-Serif" font-size="9.00">&#45; m_sleeptime</text>
<polyline fill="none" stroke="black" points="459,-734 623,-734 "/>
<text text-anchor="start" x="467" y="-721.9" font-family="Helvetica,sans-Serif" font-size="9.00">+ CMainLoop()</text>
<text text-anchor="start" x="467" y="-708.9" font-family="Helvetica,sans-Serif" font-size="9.00">+ getSimulationstep()</text>
<text text-anchor="start" x="467" y="-695.9" font-family="Helvetica,sans-Serif" font-size="9.00">+ getSleepTime()</text>
<text text-anchor="start" x="467" y="-682.9" font-family="Helvetica,sans-Serif" font-size="9.00">+ isPaused()</text>
<text text-anchor="start" x="467" y="-669.9" font-family="Helvetica,sans-Serif" font-size="9.00">+ pause()</text>
<text text-anchor="start" x="467" y="-656.9" font-family="Helvetica,sans-Serif" font-size="9.00">+ reset()</text>
<text text-anchor="start" x="467" y="-643.9" font-family="Helvetica,sans-Serif" font-size="9.00">+ resume()</text>
<text text-anchor="start" x="467" y="-630.9" font-family="Helvetica,sans-Serif" font-size="9.00">+ resume()</text>
<text text-anchor="start" x="467" y="-617.9" font-family="Helvetica,sans-Serif" font-size="9.00">+ run()</text>
<text text-anchor="start" x="467" y="-604.9" font-family="Helvetica,sans-Serif" font-size="9.00">+ setSleepTime()</text>
<text text-anchor="start" x="467" y="-591.9" font-family="Helvetica,sans-Serif" font-size="9.00">+ stop()</text>
<text text-anchor="start" x="467" y="-578.9" font-family="Helvetica,sans-Serif" font-size="9.00"># invokeTasks()</text>
<text text-anchor="start" x="467" y="-565.9" font-family="Helvetica,sans-Serif" font-size="9.00">&#45; processLayer()</text>
<text text-anchor="start" x="467" y="-552.9" font-family="Helvetica,sans-Serif" font-size="9.00">&#45; processObjects()</text>
<text text-anchor="start" x="467" y="-539.9" font-family="Helvetica,sans-Serif" font-size="9.00">&#45; createTask()</text>
</a>
</g>
<!-- Node7&#45;&gt;Node1 -->
<g id="edge14" class="edge"><title>Node7&#45;&gt;Node1</title>
<path fill="none" stroke="#404040" d="M511.102,-530.95C508.608,-518.015 506.049,-504.742 503.463,-491.33"/>
<polygon fill="none" stroke="#404040" points="503.456,-491.297 498.393,-486.163 501.184,-479.514 506.248,-484.648 503.456,-491.297"/>
<text text-anchor="middle" x="533.5" y="-503.4" font-family="Helvetica,sans-Serif" font-size="9.00"> &#45;m_mainloop</text>
</g>
<!-- Node8 -->
<g id="node15" class="node"><title>Node8</title>
<a xlink:href="../../d0/de8/a00133.htm" target="_top" xlink:title="world layer collection ">
<polygon fill="none" stroke="black" points="641,-563.5 641,-808.5 803,-808.5 803,-563.5 641,-563.5"/>
<text text-anchor="start" x="649" y="-796.4" font-family="Helvetica,sans-Serif" font-size="9.00">de.tu_clausthal.in.mec.object.world.</text>
<text text-anchor="middle" x="722" y="-783.4" font-family="Helvetica,sans-Serif" font-size="9.00">CWorld</text>
<polyline fill="none" stroke="black" points="641,-774.5 803,-774.5 "/>
<text text-anchor="start" x="649" y="-762.4" font-family="Helvetica,sans-Serif" font-size="9.00">&#45; m_layer</text>
<polyline fill="none" stroke="black" points="641,-753.5 803,-753.5 "/>
<text text-anchor="start" x="649" y="-741.4" font-family="Helvetica,sans-Serif" font-size="9.00">+ clear()</text>
<text text-anchor="start" x="649" y="-728.4" font-family="Helvetica,sans-Serif" font-size="9.00">+ containsKey()</text>
<text text-anchor="start" x="649" y="-715.4" font-family="Helvetica,sans-Serif" font-size="9.00">+ containsValue()</text>
<text text-anchor="start" x="649" y="-702.4" font-family="Helvetica,sans-Serif" font-size="9.00">+ entrySet()</text>
<text text-anchor="start" x="649" y="-689.4" font-family="Helvetica,sans-Serif" font-size="9.00">+ get()</text>
<text text-anchor="start" x="649" y="-676.4" font-family="Helvetica,sans-Serif" font-size="9.00">+ getOrderedLayer()</text>
<text text-anchor="start" x="649" y="-663.4" font-family="Helvetica,sans-Serif" font-size="9.00">+ getTyped()</text>
<text text-anchor="start" x="649" y="-650.4" font-family="Helvetica,sans-Serif" font-size="9.00">+ isEmpty()</text>
<text text-anchor="start" x="649" y="-637.4" font-family="Helvetica,sans-Serif" font-size="9.00">+ keySet()</text>
<text text-anchor="start" x="649" y="-624.4" font-family="Helvetica,sans-Serif" font-size="9.00">+ put()</text>
<text text-anchor="start" x="649" y="-611.4" font-family="Helvetica,sans-Serif" font-size="9.00">+ putAll()</text>
<text text-anchor="start" x="649" y="-598.4" font-family="Helvetica,sans-Serif" font-size="9.00">+ remove()</text>
<text text-anchor="start" x="649" y="-585.4" font-family="Helvetica,sans-Serif" font-size="9.00">+ size()</text>
<text text-anchor="start" x="649" y="-572.4" font-family="Helvetica,sans-Serif" font-size="9.00">+ values()</text>
</a>
</g>
<!-- Node8&#45;&gt;Node1 -->
<g id="edge16" class="edge"><title>Node8&#45;&gt;Node1</title>
<path fill="none" stroke="#404040" d="M651.538,-563.206C644.969,-551.958 638.383,-540.755 632,-530 601.997,-479.449 568.529,-424.306 538.842,-375.808"/>
<polygon fill="none" stroke="#404040" points="538.835,-375.796 532.29,-372.769 532.566,-365.563 539.111,-368.59 538.835,-375.796"/>
<text text-anchor="middle" x="637.5" y="-503.4" font-family="Helvetica,sans-Serif" font-size="9.00"> &#45;m_world</text>
</g>
</g>
</svg>
