<?xml version="1.0" encoding="UTF-8" standalone="no"?>
<!DOCTYPE svg PUBLIC "-//W3C//DTD SVG 1.1//EN"
 "http://www.w3.org/Graphics/SVG/1.1/DTD/svg11.dtd">
<!-- Generated by graphviz version 2.26.3 (20100126.1600)
 -->
<!-- Title: de.tu_clausthal.in.mec.object.car.CCarLayer.getUnitConvert Pages: 1 -->
<svg width="396pt" height="94pt"
 viewBox="0.00 0.00 396.00 94.00" xmlns="http://www.w3.org/2000/svg" xmlns:xlink="http://www.w3.org/1999/xlink">
<g id="graph1" class="graph" transform="scale(1 1) rotate(0) translate(4 90)">
<title>de.tu_clausthal.in.mec.object.car.CCarLayer.getUnitConvert</title>
<!-- Node1 -->
<g id="node1" class="node"><title>Node1</title>
<polygon fill="#bfbfbf" stroke="black" points="0,-26 0,-60 152,-60 152,-26 0,-26"/>
<text text-anchor="start" x="8" y="-47.9" font-family="Helvetica,sans-Serif" font-size="9.00">de.tu_clausthal.in.mec.object.car.</text>
<text text-anchor="middle" x="76" y="-34.9" font-family="Helvetica,sans-Serif" font-size="9.00">CCarLayer.getUnitConvert</text>
</g>
<!-- Node2 -->
<g id="node3" class="node"><title>Node2</title>
<a xlink:href="../../d1/d1e/a00087.htm#a91e3cf1e7d60c7e6f81611f948d13265" target="_top" xlink:title="checks the linger probability and modify speed ">
<polygon fill="none" stroke="black" points="188,-52 188,-86 388,-86 388,-52 188,-52"/>
<text text-anchor="start" x="196" y="-73.9" font-family="Helvetica,sans-Serif" font-size="9.00">de.tu_clausthal.in.mec.object.car.drivemodel.</text>
<text text-anchor="middle" x="288" y="-60.9" font-family="Helvetica,sans-Serif" font-size="9.00">CNagelSchreckenberg.checkLinger</text>
</a>
</g>
<!-- Node1&#45;&gt;Node2 -->
<g id="edge2" class="edge"><title>Node1&#45;&gt;Node2</title>
<path fill="none" stroke="midnightblue" d="M162.336,-53.5884C170.696,-54.6136 179.224,-55.6596 187.704,-56.6996"/>
<polygon fill="midnightblue" stroke="midnightblue" points="162.589,-50.0933 152.237,-52.3499 161.737,-57.0412 162.589,-50.0933"/>
</g>
<!-- Node3 -->
<g id="node5" class="node"><title>Node3</title>
<a xlink:href="../../d4/d3e/a00116.htm#ac01f2e9d4c5526a0b73d605e174c0134" target="_top" xlink:title="de.tu_clausthal.in.mec.object.car.\lCCarJasonAgent.CTrafficStorage.updating">
<polygon fill="none" stroke="black" points="192.5,-0 192.5,-34 383.5,-34 383.5,-0 192.5,-0"/>
<text text-anchor="start" x="200.5" y="-21.9" font-family="Helvetica,sans-Serif" font-size="9.00">de.tu_clausthal.in.mec.object.car.</text>
<text text-anchor="middle" x="288" y="-8.9" font-family="Helvetica,sans-Serif" font-size="9.00">CCarJasonAgent.CTrafficStorage.updating</text>
</a>
</g>
<!-- Node1&#45;&gt;Node3 -->
<g id="edge4" class="edge"><title>Node1&#45;&gt;Node3</title>
<path fill="none" stroke="midnightblue" d="M162.452,-32.3974C172.351,-31.1834 182.485,-29.9405 192.494,-28.7131"/>
<polygon fill="midnightblue" stroke="midnightblue" points="161.737,-28.9588 152.237,-33.6501 162.589,-35.9067 161.737,-28.9588"/>
</g>
</g>
</svg>
