<?xml version="1.0" encoding="UTF-8" standalone="no"?>
<!DOCTYPE svg PUBLIC "-//W3C//DTD SVG 1.1//EN"
 "http://www.w3.org/Graphics/SVG/1.1/DTD/svg11.dtd">
<!-- Generated by graphviz version 2.26.3 (20100126.1600)
 -->
<!-- Title: de.tu_clausthal.in.mec.common.CCommon.removePackageName Pages: 1 -->
<svg width="618pt" height="120pt"
 viewBox="0.00 0.00 618.00 120.00" xmlns="http://www.w3.org/2000/svg" xmlns:xlink="http://www.w3.org/1999/xlink">
<g id="graph1" class="graph" transform="scale(1 1) rotate(0) translate(4 116)">
<title>de.tu_clausthal.in.mec.common.CCommon.removePackageName</title>
<!-- Node1 -->
<g id="node1" class="node"><title>Node1</title>
<polygon fill="#bfbfbf" stroke="black" points="0.5,-26 0.5,-60 155.5,-60 155.5,-26 0.5,-26"/>
<text text-anchor="start" x="8.5" y="-47.9" font-family="Helvetica,sans-Serif" font-size="9.00">de.tu_clausthal.in.mec.common.</text>
<text text-anchor="middle" x="78" y="-34.9" font-family="Helvetica,sans-Serif" font-size="9.00">CCommon.removePackageName</text>
</g>
<!-- Node2 -->
<g id="node3" class="node"><title>Node2</title>
<a xlink:href="../../d1/dc6/a00037.htm#a5d4d844a730250f9b8db17ecf7106568" target="_top" xlink:title="returns the label of a class and string to get access to the resource ">
<polygon fill="none" stroke="black" points="192.5,-52 192.5,-86 355.5,-86 355.5,-52 192.5,-52"/>
<text text-anchor="start" x="200.5" y="-73.9" font-family="Helvetica,sans-Serif" font-size="9.00">de.tu_clausthal.in.mec.common.</text>
<text text-anchor="middle" x="274" y="-60.9" font-family="Helvetica,sans-Serif" font-size="9.00">CCommon.getResourceStringLabel</text>
</a>
</g>
<!-- Node1&#45;&gt;Node2 -->
<g id="edge2" class="edge"><title>Node1&#45;&gt;Node2</title>
<path fill="none" stroke="midnightblue" d="M165.733,-54.6381C174.637,-55.8191 183.654,-57.0153 192.488,-58.1871"/>
<polygon fill="midnightblue" stroke="midnightblue" points="166.119,-51.1587 155.746,-53.3132 165.199,-58.0979 166.119,-51.1587"/>
</g>
<!-- Node5 -->
<g id="node9" class="node"><title>Node5</title>
<a xlink:href="../../dc/de6/a00167.htm#ad758c143738f9b2e324b0f35f9094489" target="_top" xlink:title="returns a map to inspect current data of the car ">
<polygon fill="none" stroke="black" points="214,-0 214,-34 334,-34 334,-0 214,-0"/>
<text text-anchor="start" x="222" y="-21.9" font-family="Helvetica,sans-Serif" font-size="9.00">de.tu_clausthal.in.mec.ui.</text>
<text text-anchor="middle" x="274" y="-8.9" font-family="Helvetica,sans-Serif" font-size="9.00">IInspectorDefault.inspect</text>
</a>
</g>
<!-- Node1&#45;&gt;Node5 -->
<g id="edge8" class="edge"><title>Node1&#45;&gt;Node5</title>
<path fill="none" stroke="midnightblue" d="M165.802,-31.3528C182.057,-29.1965 198.691,-26.9899 213.888,-24.974"/>
<polygon fill="midnightblue" stroke="midnightblue" points="165.199,-27.9021 155.746,-32.6868 166.119,-34.8413 165.199,-27.9021"/>
</g>
<!-- Node3 -->
<g id="node5" class="node"><title>Node3</title>
<a xlink:href="../../dd/de3/a00201.htm#ac9a7db13733de23bb0d1f9a48db18647" target="_top" xlink:title="checks all languages ">
<polygon fill="none" stroke="black" points="392,-78 392,-112 610,-112 610,-78 392,-78"/>
<text text-anchor="start" x="400" y="-99.9" font-family="Helvetica,sans-Serif" font-size="9.00">de.tu_clausthal.in.mec.Test</text>
<text text-anchor="middle" x="501" y="-86.9" font-family="Helvetica,sans-Serif" font-size="9.00">_CLanguageLabels.MyMethodVisitor.checkLabel</text>
</a>
</g>
<!-- Node2&#45;&gt;Node3 -->
<g id="edge4" class="edge"><title>Node2&#45;&gt;Node3</title>
<path fill="none" stroke="midnightblue" d="M365.602,-79.4919C374.174,-80.4737 382.92,-81.4754 391.632,-82.4733"/>
<polygon fill="midnightblue" stroke="midnightblue" points="365.965,-76.0106 355.632,-78.3499 365.168,-82.9652 365.965,-76.0106"/>
</g>
<!-- Node4 -->
<g id="node7" class="node"><title>Node4</title>
<a xlink:href="../../d1/dc6/a00037.htm#a64fb4511ef526ef8c457f8b46e150562" target="_top" xlink:title="returns a string of the resource file ">
<polygon fill="none" stroke="black" points="427,-26 427,-60 575,-60 575,-26 427,-26"/>
<text text-anchor="start" x="435" y="-47.9" font-family="Helvetica,sans-Serif" font-size="9.00">de.tu_clausthal.in.mec.common.</text>
<text text-anchor="middle" x="501" y="-34.9" font-family="Helvetica,sans-Serif" font-size="9.00">CCommon.getResourceString</text>
</a>
</g>
<!-- Node2&#45;&gt;Node4 -->
<g id="edge6" class="edge"><title>Node2&#45;&gt;Node4</title>
<path fill="none" stroke="midnightblue" d="M365.826,-58.4825C386.127,-56.1573 407.389,-53.7219 426.882,-51.4893"/>
<polygon fill="midnightblue" stroke="midnightblue" points="365.168,-55.0348 355.632,-59.6501 365.965,-61.9894 365.168,-55.0348"/>
</g>
</g>
</svg>
