<?xml version="1.0" encoding="UTF-8" standalone="no"?>
<!DOCTYPE svg PUBLIC "-//W3C//DTD SVG 1.1//EN"
 "http://www.w3.org/Graphics/SVG/1.1/DTD/svg11.dtd">
<!-- Generated by graphviz version 2.26.3 (20100126.1600)
 -->
<!-- Title: de.tu_clausthal.in.mec.common.CCommon.getResourceURL Pages: 1 -->
<svg width="340pt" height="94pt"
 viewBox="0.00 0.00 340.00 94.00" xmlns="http://www.w3.org/2000/svg" xmlns:xlink="http://www.w3.org/1999/xlink">
<g id="graph1" class="graph" transform="scale(1 1) rotate(0) translate(4 90)">
<title>de.tu_clausthal.in.mec.common.CCommon.getResourceURL</title>
<!-- Node1 -->
<g id="node1" class="node"><title>Node1</title>
<polygon fill="#bfbfbf" stroke="black" points="0,-26 0,-60 148,-60 148,-26 0,-26"/>
<text text-anchor="start" x="8" y="-47.9" font-family="Helvetica,sans-Serif" font-size="9.00">de.tu_clausthal.in.mec.common.</text>
<text text-anchor="middle" x="74" y="-34.9" font-family="Helvetica,sans-Serif" font-size="9.00">CCommon.getResourceURL</text>
</g>
<!-- Node2 -->
<g id="node3" class="node"><title>Node2</title>
<a xlink:href="../../d1/dc6/a00037.htm#af4523cc0082db1faefd5cc2db9690028" target="_top" xlink:title="returns a file from a resource e.g. ">
<polygon fill="none" stroke="black" points="184,-52 184,-86 332,-86 332,-52 184,-52"/>
<text text-anchor="start" x="192" y="-73.9" font-family="Helvetica,sans-Serif" font-size="9.00">de.tu_clausthal.in.mec.common.</text>
<text text-anchor="middle" x="258" y="-60.9" font-family="Helvetica,sans-Serif" font-size="9.00">CCommon.getResourceURL</text>
</a>
</g>
<!-- Node1&#45;&gt;Node2 -->
<g id="edge2" class="edge"><title>Node1&#45;&gt;Node2</title>
<path fill="none" stroke="midnightblue" d="M158.066,-54.8789C166.654,-56.0924 175.336,-57.3192 183.808,-58.5163"/>
<polygon fill="midnightblue" stroke="midnightblue" points="158.436,-51.3965 148.044,-53.4628 157.456,-58.3276 158.436,-51.3965"/>
</g>
<!-- Node3 -->
<g id="node5" class="node"><title>Node3</title>
<a xlink:href="../../da/d74/a00099.htm#ada5a690c2b4b184737ba250dea353da5" target="_top" xlink:title="adds a new virtual directory to the server with existance checking ">
<polygon fill="none" stroke="black" points="185,-0 185,-34 331,-34 331,-0 185,-0"/>
<text text-anchor="start" x="193" y="-21.9" font-family="Helvetica,sans-Serif" font-size="9.00">de.tu_clausthal.in.mec.ui.web.</text>
<text text-anchor="middle" x="258" y="-8.9" font-family="Helvetica,sans-Serif" font-size="9.00">CServer.registerVirtualDirectory</text>
</a>
</g>
<!-- Node1&#45;&gt;Node3 -->
<g id="edge4" class="edge"><title>Node1&#45;&gt;Node3</title>
<path fill="none" stroke="midnightblue" d="M158.035,-31.1255C166.937,-29.8676 175.94,-28.5955 184.706,-27.3568"/>
<polygon fill="midnightblue" stroke="midnightblue" points="157.456,-27.6724 148.044,-32.5372 158.436,-34.6035 157.456,-27.6724"/>
</g>
</g>
</svg>
