<?xml version="1.0" encoding="UTF-8" standalone="no"?>
<!DOCTYPE svg PUBLIC "-//W3C//DTD SVG 1.1//EN"
 "http://www.w3.org/Graphics/SVG/1.1/DTD/svg11.dtd">
<!-- Generated by graphviz version 2.26.3 (20100126.1600)
 -->
<!-- Title: de.tu_clausthal.in.mec.common.CCommon.getHash Pages: 1 -->
<svg width="816pt" height="94pt"
 viewBox="0.00 0.00 816.00 94.00" xmlns="http://www.w3.org/2000/svg" xmlns:xlink="http://www.w3.org/1999/xlink">
<g id="graph1" class="graph" transform="scale(1 1) rotate(0) translate(4 90)">
<title>de.tu_clausthal.in.mec.common.CCommon.getHash</title>
<!-- Node1 -->
<g id="node1" class="node"><title>Node1</title>
<polygon fill="#bfbfbf" stroke="black" points="0,-26 0,-60 148,-60 148,-26 0,-26"/>
<text text-anchor="start" x="8" y="-47.9" font-family="Helvetica,sans-Serif" font-size="9.00">de.tu_clausthal.in.mec.common.</text>
<text text-anchor="middle" x="74" y="-34.9" font-family="Helvetica,sans-Serif" font-size="9.00">CCommon.getHash</text>
</g>
<!-- Node2 -->
<g id="node3" class="node"><title>Node2</title>
<a xlink:href="../../dc/dee/a00053.htm#a7e7939418c529551a915e16806f3035c" target="_top" xlink:title="returns the full path of a graph location ">
<polygon fill="none" stroke="black" points="184.5,-26 184.5,-60 363.5,-60 363.5,-26 184.5,-26"/>
<text text-anchor="start" x="192.5" y="-47.9" font-family="Helvetica,sans-Serif" font-size="9.00">de.tu_clausthal.in.mec.object.car.graph.</text>
<text text-anchor="middle" x="274" y="-34.9" font-family="Helvetica,sans-Serif" font-size="9.00">CGraphHopper.getGraphLocation</text>
</a>
</g>
<!-- Node1&#45;&gt;Node2 -->
<g id="edge2" class="edge"><title>Node1&#45;&gt;Node2</title>
<path fill="none" stroke="midnightblue" d="M158.237,-43C166.873,-43 175.67,-43 184.362,-43"/>
<polygon fill="midnightblue" stroke="midnightblue" points="158.188,-39.5001 148.188,-43 158.188,-46.5001 158.188,-39.5001"/>
</g>
<!-- Node3 -->
<g id="node5" class="node"><title>Node3</title>
<a xlink:href="../../dc/dee/a00053.htm#a9f50968acad02be391044bf2324747bc" target="_top" xlink:title="ctor ">
<polygon fill="none" stroke="black" points="400.5,-52 400.5,-86 579.5,-86 579.5,-52 400.5,-52"/>
<text text-anchor="start" x="408.5" y="-73.9" font-family="Helvetica,sans-Serif" font-size="9.00">de.tu_clausthal.in.mec.object.car.graph.</text>
<text text-anchor="middle" x="490" y="-60.9" font-family="Helvetica,sans-Serif" font-size="9.00">CGraphHopper.CGraphHopper</text>
</a>
</g>
<!-- Node2&#45;&gt;Node3 -->
<g id="edge4" class="edge"><title>Node2&#45;&gt;Node3</title>
<path fill="none" stroke="midnightblue" d="M373.673,-54.9977C382.522,-56.0628 391.445,-57.137 400.205,-58.1913"/>
<polygon fill="midnightblue" stroke="midnightblue" points="374.074,-51.5207 363.727,-53.8005 373.237,-58.4705 374.074,-51.5207"/>
</g>
<!-- Node4 -->
<g id="node7" class="node"><title>Node4</title>
<a xlink:href="../../dc/dee/a00053.htm#a4d340ee2714fbae18454e04e3e8c5640" target="_top" xlink:title="deletes a graph by URL ">
<polygon fill="none" stroke="black" points="400.5,-0 400.5,-34 579.5,-34 579.5,-0 400.5,-0"/>
<text text-anchor="start" x="408.5" y="-21.9" font-family="Helvetica,sans-Serif" font-size="9.00">de.tu_clausthal.in.mec.object.car.graph.</text>
<text text-anchor="middle" x="490" y="-8.9" font-family="Helvetica,sans-Serif" font-size="9.00">CGraphHopper.deleteGraph</text>
</a>
</g>
<!-- Node2&#45;&gt;Node4 -->
<g id="edge6" class="edge"><title>Node2&#45;&gt;Node4</title>
<path fill="none" stroke="midnightblue" d="M373.673,-31.0023C382.522,-29.9372 391.445,-28.863 400.205,-27.8087"/>
<polygon fill="midnightblue" stroke="midnightblue" points="373.237,-27.5295 363.727,-32.1995 374.074,-34.4793 373.237,-27.5295"/>
</g>
<!-- Node5 -->
<g id="node9" class="node"><title>Node5</title>
<a xlink:href="../../db/d3a/a00040.htm#a7c7843ed42afba37bf505b43381615df" target="_top" xlink:title="UI method &#45; set data. ">
<polygon fill="none" stroke="black" points="616,-0 616,-34 808,-34 808,-0 616,-0"/>
<text text-anchor="start" x="624" y="-21.9" font-family="Helvetica,sans-Serif" font-size="9.00">de.tu_clausthal.in.mec.CConfiguration.web</text>
<text text-anchor="middle" x="712" y="-8.9" font-family="Helvetica,sans-Serif" font-size="9.00">_static_deletegraph</text>
</a>
</g>
<!-- Node4&#45;&gt;Node5 -->
<g id="edge8" class="edge"><title>Node4&#45;&gt;Node5</title>
<path fill="none" stroke="midnightblue" d="M589.776,-17C598.444,-17 607.204,-17 615.842,-17"/>
<polygon fill="midnightblue" stroke="midnightblue" points="589.656,-13.5001 579.656,-17 589.656,-20.5001 589.656,-13.5001"/>
</g>
</g>
</svg>
