<?xml version="1.0" encoding="UTF-8" standalone="no"?>
<!DOCTYPE svg PUBLIC "-//W3C//DTD SVG 1.1//EN"
 "http://www.w3.org/Graphics/SVG/1.1/DTD/svg11.dtd">
<!-- Generated by graphviz version 2.26.3 (20100126.1600)
 -->
<!-- Title: de.tu_clausthal.in.mec.common.CCommon.getResourceString Pages: 1 -->
<svg width="548pt" height="42pt"
 viewBox="0.00 0.00 548.00 42.00" xmlns="http://www.w3.org/2000/svg" xmlns:xlink="http://www.w3.org/1999/xlink">
<g id="graph1" class="graph" transform="scale(1 1) rotate(0) translate(4 38)">
<title>de.tu_clausthal.in.mec.common.CCommon.getResourceString</title>
<!-- Node1 -->
<g id="node1" class="node"><title>Node1</title>
<polygon fill="#bfbfbf" stroke="black" points="0,-0 0,-34 148,-34 148,-0 0,-0"/>
<text text-anchor="start" x="8" y="-21.9" font-family="Helvetica,sans-Serif" font-size="9.00">de.tu_clausthal.in.mec.common.</text>
<text text-anchor="middle" x="74" y="-8.9" font-family="Helvetica,sans-Serif" font-size="9.00">CCommon.getResourceString</text>
</g>
<!-- Node2 -->
<g id="node3" class="node"><title>Node2</title>
<a xlink:href="../../d1/dc6/a00037.htm#a5d4d844a730250f9b8db17ecf7106568" target="_top" xlink:title="returns the label of a class and string to get access to the resource ">
<polygon fill="none" stroke="black" points="184.5,-0 184.5,-34 347.5,-34 347.5,-0 184.5,-0"/>
<text text-anchor="start" x="192.5" y="-21.9" font-family="Helvetica,sans-Serif" font-size="9.00">de.tu_clausthal.in.mec.common.</text>
<text text-anchor="middle" x="266" y="-8.9" font-family="Helvetica,sans-Serif" font-size="9.00">CCommon.getResourceStringLabel</text>
</a>
</g>
<!-- Node1&#45;&gt;Node2 -->
<g id="edge2" class="edge"><title>Node1&#45;&gt;Node2</title>
<path fill="none" stroke="midnightblue" d="M148.232,-17C156.727,-17 165.462,-17 174.151,-17"/>
<polygon fill="midnightblue" stroke="midnightblue" points="174.314,-20.5001 184.314,-17 174.314,-13.5001 174.314,-20.5001"/>
</g>
<!-- Node3 -->
<g id="node5" class="node"><title>Node3</title>
<a xlink:href="../../d1/dc6/a00037.htm#a7dcb26e8cdde436192ef19f0538f0c9d" target="_top" xlink:title="remove from a string the system package name ">
<polygon fill="none" stroke="black" points="384.5,-0 384.5,-34 539.5,-34 539.5,-0 384.5,-0"/>
<text text-anchor="start" x="392.5" y="-21.9" font-family="Helvetica,sans-Serif" font-size="9.00">de.tu_clausthal.in.mec.common.</text>
<text text-anchor="middle" x="462" y="-8.9" font-family="Helvetica,sans-Serif" font-size="9.00">CCommon.removePackageName</text>
</a>
</g>
<!-- Node2&#45;&gt;Node3 -->
<g id="edge4" class="edge"><title>Node2&#45;&gt;Node3</title>
<path fill="none" stroke="midnightblue" d="M347.702,-17C356.385,-17 365.242,-17 373.993,-17"/>
<polygon fill="midnightblue" stroke="midnightblue" points="374.199,-20.5001 384.199,-17 374.199,-13.5001 374.199,-20.5001"/>
</g>
</g>
</svg>
