<?xml version="1.0" encoding="UTF-8" standalone="no"?>
<!DOCTYPE svg PUBLIC "-//W3C//DTD SVG 1.1//EN"
 "http://www.w3.org/Graphics/SVG/1.1/DTD/svg11.dtd">
<!-- Generated by graphviz version 2.26.3 (20100126.1600)
 -->
<!-- Title: de.tu_clausthal.in.mec.common.CCommon.getResourceStringLabel Pages: 1 -->
<svg width="426pt" height="94pt"
 viewBox="0.00 0.00 426.00 94.00" xmlns="http://www.w3.org/2000/svg" xmlns:xlink="http://www.w3.org/1999/xlink">
<g id="graph1" class="graph" transform="scale(1 1) rotate(0) translate(4 90)">
<title>de.tu_clausthal.in.mec.common.CCommon.getResourceStringLabel</title>
<!-- Node1 -->
<g id="node1" class="node"><title>Node1</title>
<polygon fill="#bfbfbf" stroke="black" points="0.5,-26 0.5,-60 163.5,-60 163.5,-26 0.5,-26"/>
<text text-anchor="start" x="8.5" y="-47.9" font-family="Helvetica,sans-Serif" font-size="9.00">de.tu_clausthal.in.mec.common.</text>
<text text-anchor="middle" x="82" y="-34.9" font-family="Helvetica,sans-Serif" font-size="9.00">CCommon.getResourceStringLabel</text>
</g>
<!-- Node2 -->
<g id="node3" class="node"><title>Node2</title>
<a xlink:href="../../dd/de3/a00201.htm#ac9a7db13733de23bb0d1f9a48db18647" target="_top" xlink:title="checks all languages ">
<polygon fill="none" stroke="black" points="200,-52 200,-86 418,-86 418,-52 200,-52"/>
<text text-anchor="start" x="208" y="-73.9" font-family="Helvetica,sans-Serif" font-size="9.00">de.tu_clausthal.in.mec.Test</text>
<text text-anchor="middle" x="309" y="-60.9" font-family="Helvetica,sans-Serif" font-size="9.00">_CLanguageLabels.MyMethodVisitor.checkLabel</text>
</a>
</g>
<!-- Node1&#45;&gt;Node2 -->
<g id="edge2" class="edge"><title>Node1&#45;&gt;Node2</title>
<path fill="none" stroke="midnightblue" d="M173.602,-53.4919C182.174,-54.4737 190.92,-55.4754 199.632,-56.4733"/>
<polygon fill="midnightblue" stroke="midnightblue" points="173.965,-50.0106 163.632,-52.3499 173.168,-56.9652 173.965,-50.0106"/>
</g>
<!-- Node3 -->
<g id="node5" class="node"><title>Node3</title>
<a xlink:href="../../d1/dc6/a00037.htm#a64fb4511ef526ef8c457f8b46e150562" target="_top" xlink:title="returns a string of the resource file ">
<polygon fill="none" stroke="black" points="235,-0 235,-34 383,-34 383,-0 235,-0"/>
<text text-anchor="start" x="243" y="-21.9" font-family="Helvetica,sans-Serif" font-size="9.00">de.tu_clausthal.in.mec.common.</text>
<text text-anchor="middle" x="309" y="-8.9" font-family="Helvetica,sans-Serif" font-size="9.00">CCommon.getResourceString</text>
</a>
</g>
<!-- Node1&#45;&gt;Node3 -->
<g id="edge4" class="edge"><title>Node1&#45;&gt;Node3</title>
<path fill="none" stroke="midnightblue" d="M173.826,-32.4825C194.127,-30.1573 215.389,-27.7219 234.882,-25.4893"/>
<polygon fill="midnightblue" stroke="midnightblue" points="173.168,-29.0348 163.632,-33.6501 173.965,-35.9894 173.168,-29.0348"/>
</g>
</g>
</svg>
