<?xml version="1.0" encoding="UTF-8" standalone="no"?>
<!DOCTYPE svg PUBLIC "-//W3C//DTD SVG 1.1//EN"
 "http://www.w3.org/Graphics/SVG/1.1/DTD/svg11.dtd">
<!-- Generated by graphviz version 2.26.3 (20100126.1600)
 -->
<!-- Title: de.tu_clausthal.in.mec.common.CCommon.getBytes2Hex Pages: 1 -->
<svg width="1000pt" height="94pt"
 viewBox="0.00 0.00 1000.00 94.00" xmlns="http://www.w3.org/2000/svg" xmlns:xlink="http://www.w3.org/1999/xlink">
<g id="graph1" class="graph" transform="scale(1 1) rotate(0) translate(4 90)">
<title>de.tu_clausthal.in.mec.common.CCommon.getBytes2Hex</title>
<!-- Node1 -->
<g id="node1" class="node"><title>Node1</title>
<polygon fill="#bfbfbf" stroke="black" points="0,-26 0,-60 148,-60 148,-26 0,-26"/>
<text text-anchor="start" x="8" y="-47.9" font-family="Helvetica,sans-Serif" font-size="9.00">de.tu_clausthal.in.mec.common.</text>
<text text-anchor="middle" x="74" y="-34.9" font-family="Helvetica,sans-Serif" font-size="9.00">CCommon.getBytes2Hex</text>
</g>
<!-- Node2 -->
<g id="node3" class="node"><title>Node2</title>
<a xlink:href="../../d1/dc6/a00037.htm#a5787f1e254c47dda5783aff04de599fd" target="_top" xlink:title="returns the hash of a string ">
<polygon fill="none" stroke="black" points="184,-26 184,-60 332,-60 332,-26 184,-26"/>
<text text-anchor="start" x="192" y="-47.9" font-family="Helvetica,sans-Serif" font-size="9.00">de.tu_clausthal.in.mec.common.</text>
<text text-anchor="middle" x="258" y="-34.9" font-family="Helvetica,sans-Serif" font-size="9.00">CCommon.getHash</text>
</a>
</g>
<!-- Node1&#45;&gt;Node2 -->
<g id="edge2" class="edge"><title>Node1&#45;&gt;Node2</title>
<path fill="none" stroke="midnightblue" d="M158.066,-43C166.654,-43 175.336,-43 183.808,-43"/>
<polygon fill="midnightblue" stroke="midnightblue" points="158.045,-39.5001 148.044,-43 158.044,-46.5001 158.045,-39.5001"/>
</g>
<!-- Node3 -->
<g id="node5" class="node"><title>Node3</title>
<a xlink:href="../../dc/dee/a00053.htm#a7e7939418c529551a915e16806f3035c" target="_top" xlink:title="returns the full path of a graph location ">
<polygon fill="none" stroke="black" points="368.5,-26 368.5,-60 547.5,-60 547.5,-26 368.5,-26"/>
<text text-anchor="start" x="376.5" y="-47.9" font-family="Helvetica,sans-Serif" font-size="9.00">de.tu_clausthal.in.mec.object.car.graph.</text>
<text text-anchor="middle" x="458" y="-34.9" font-family="Helvetica,sans-Serif" font-size="9.00">CGraphHopper.getGraphLocation</text>
</a>
</g>
<!-- Node2&#45;&gt;Node3 -->
<g id="edge4" class="edge"><title>Node2&#45;&gt;Node3</title>
<path fill="none" stroke="midnightblue" d="M342.237,-43C350.873,-43 359.67,-43 368.362,-43"/>
<polygon fill="midnightblue" stroke="midnightblue" points="342.188,-39.5001 332.188,-43 342.188,-46.5001 342.188,-39.5001"/>
</g>
<!-- Node4 -->
<g id="node7" class="node"><title>Node4</title>
<a xlink:href="../../dc/dee/a00053.htm#a9f50968acad02be391044bf2324747bc" target="_top" xlink:title="ctor ">
<polygon fill="none" stroke="black" points="584.5,-52 584.5,-86 763.5,-86 763.5,-52 584.5,-52"/>
<text text-anchor="start" x="592.5" y="-73.9" font-family="Helvetica,sans-Serif" font-size="9.00">de.tu_clausthal.in.mec.object.car.graph.</text>
<text text-anchor="middle" x="674" y="-60.9" font-family="Helvetica,sans-Serif" font-size="9.00">CGraphHopper.CGraphHopper</text>
</a>
</g>
<!-- Node3&#45;&gt;Node4 -->
<g id="edge6" class="edge"><title>Node3&#45;&gt;Node4</title>
<path fill="none" stroke="midnightblue" d="M557.673,-54.9977C566.522,-56.0628 575.445,-57.137 584.205,-58.1913"/>
<polygon fill="midnightblue" stroke="midnightblue" points="558.074,-51.5207 547.727,-53.8005 557.237,-58.4705 558.074,-51.5207"/>
</g>
<!-- Node5 -->
<g id="node9" class="node"><title>Node5</title>
<a xlink:href="../../dc/dee/a00053.htm#a4d340ee2714fbae18454e04e3e8c5640" target="_top" xlink:title="deletes a graph by URL ">
<polygon fill="none" stroke="black" points="584.5,-0 584.5,-34 763.5,-34 763.5,-0 584.5,-0"/>
<text text-anchor="start" x="592.5" y="-21.9" font-family="Helvetica,sans-Serif" font-size="9.00">de.tu_clausthal.in.mec.object.car.graph.</text>
<text text-anchor="middle" x="674" y="-8.9" font-family="Helvetica,sans-Serif" font-size="9.00">CGraphHopper.deleteGraph</text>
</a>
</g>
<!-- Node3&#45;&gt;Node5 -->
<g id="edge8" class="edge"><title>Node3&#45;&gt;Node5</title>
<path fill="none" stroke="midnightblue" d="M557.673,-31.0023C566.522,-29.9372 575.445,-28.863 584.205,-27.8087"/>
<polygon fill="midnightblue" stroke="midnightblue" points="557.237,-27.5295 547.727,-32.1995 558.074,-34.4793 557.237,-27.5295"/>
</g>
<!-- Node6 -->
<g id="node11" class="node"><title>Node6</title>
<a xlink:href="../../db/d3a/a00040.htm#a7c7843ed42afba37bf505b43381615df" target="_top" xlink:title="UI method &#45; set data. ">
<polygon fill="none" stroke="black" points="800,-0 800,-34 992,-34 992,-0 800,-0"/>
<text text-anchor="start" x="808" y="-21.9" font-family="Helvetica,sans-Serif" font-size="9.00">de.tu_clausthal.in.mec.CConfiguration.web</text>
<text text-anchor="middle" x="896" y="-8.9" font-family="Helvetica,sans-Serif" font-size="9.00">_static_deletegraph</text>
</a>
</g>
<!-- Node5&#45;&gt;Node6 -->
<g id="edge10" class="edge"><title>Node5&#45;&gt;Node6</title>
<path fill="none" stroke="midnightblue" d="M773.776,-17C782.444,-17 791.204,-17 799.842,-17"/>
<polygon fill="midnightblue" stroke="midnightblue" points="773.656,-13.5001 763.656,-17 773.656,-20.5001 773.656,-13.5001"/>
</g>
</g>
</svg>
